<?xml version="1.0" encoding="UTF-8"?>
<svg xmlns="http://www.w3.org/2000/svg" xmlns:xlink="http://www.w3.org/1999/xlink" width="115pt" height="117pt" viewBox="0 0 115 117" version="1.1">
<defs>
<clipPath id="clip1">
  <path d="M 38 0.113281 L 45 0.113281 L 45 9 L 38 9 Z M 38 0.113281 "/>
</clipPath>
<clipPath id="clip2">
  <path d="M 98 0.113281 L 105 0.113281 L 105 6 L 98 6 Z M 98 0.113281 "/>
</clipPath>
</defs>
<g id="surface1">
<g clip-path="url(#clip1)" clip-rule="nonzero">
<path style=" stroke:none;fill-rule:nonzero;fill:rgb(0%,0%,0%);fill-opacity:1;" d="M 38.804688 0.640625 C 38.804688 1.289062 39.644531 2.757812 40.027344 2.757812 C 40.558594 2.757812 41.15625 2.253906 41.300781 1.675781 C 41.589844 0.570312 41.925781 1.054688 41.925781 2.511719 C 41.925781 3.855469 41.851562 4.074219 40.964844 5.179688 C 39.476562 7.074219 39.691406 8.757812 41.421875 8.757812 C 42.140625 8.757812 42.667969 7.769531 42.8125 6.113281 C 42.933594 4.796875 43.054688 4.578125 43.820312 3.953125 L 44.660156 3.234375 L 43.726562 3.304688 L 42.765625 3.351562 L 42.550781 1.722656 C 42.355469 0.261719 42.308594 0.113281 41.78125 0.113281 C 41.347656 0.113281 41.132812 0.328125 40.871094 0.929688 C 40.675781 1.359375 40.414062 1.796875 40.292969 1.890625 C 39.980469 2.085938 39.523438 1.3125 39.523438 0.617188 C 39.523438 0.328125 39.355469 0.113281 39.164062 0.113281 C 38.949219 0.113281 38.804688 0.328125 38.804688 0.640625 Z M 42.070312 5.757812 C 42.164062 5.945312 42.140625 6.496094 42.070312 6.976562 C 41.925781 7.675781 41.804688 7.816406 41.375 7.746094 C 40.699219 7.648438 40.558594 6.808594 41.109375 6.015625 C 41.566406 5.320312 41.878906 5.226562 42.070312 5.757812 Z M 42.070312 5.757812 "/>
</g>
<g clip-path="url(#clip2)" clip-rule="nonzero">
<path style=" stroke:none;fill-rule:nonzero;fill:rgb(0%,0%,0%);fill-opacity:1;" d="M 99.214844 1.265625 C 98.636719 1.890625 98.300781 2.945312 98.46875 3.617188 C 98.660156 4.410156 99.046875 4.339844 99.046875 3.519531 C 99.046875 2.679688 99.667969 1.769531 100.125 1.9375 C 100.628906 2.152344 100.582031 3.328125 100.003906 4.460938 C 99.71875 4.984375 99.574219 5.539062 99.667969 5.679688 C 99.886719 6.015625 104.253906 5.804688 104.636719 5.421875 C 104.828125 5.226562 104.375 5.152344 102.789062 5.152344 C 100.871094 5.152344 100.699219 5.105469 100.84375 4.722656 C 100.941406 4.507812 101.085938 3.835938 101.132812 3.234375 C 101.230469 2.371094 101.15625 2.011719 100.726562 1.480469 C 100.125 0.738281 99.742188 0.664062 99.214844 1.265625 Z M 99.214844 1.265625 "/>
</g>
<path style=" stroke:none;fill-rule:nonzero;fill:rgb(0%,0%,0%);fill-opacity:1;" d="M 79.964844 6.160156 C 80.0625 6.472656 80.421875 7.242188 80.78125 7.914062 C 81.476562 9.234375 82.195312 9.496094 82.605469 8.5625 C 82.917969 7.867188 83.132812 7.890625 83.300781 8.679688 C 83.710938 10.507812 83.542969 11.34375 82.652344 12.328125 C 81.285156 13.84375 80.949219 14.679688 80.949219 16.433594 C 80.972656 18.351562 81.667969 19.9375 82.628906 20.179688 C 83.804688 20.46875 83.996094 19.964844 84.308594 15.429688 C 84.550781 11.96875 84.550781 11.035156 84.261719 9.835938 C 84.070312 9.046875 83.78125 7.796875 83.636719 7.074219 C 83.253906 5.394531 82.652344 5.273438 82.484375 6.835938 C 82.246094 8.898438 81.8125 8.945312 80.925781 6.929688 C 80.347656 5.65625 79.652344 5.085938 79.964844 6.160156 Z M 83.660156 14.5625 C 83.636719 17.488281 83.398438 18.929688 82.941406 19.023438 C 82.316406 19.144531 81.71875 17.921875 81.597656 16.339844 C 81.5 15.015625 81.550781 14.757812 82.222656 13.722656 C 83.347656 11.992188 83.683594 12.183594 83.660156 14.5625 Z M 83.660156 14.5625 "/>
<path style=" stroke:none;fill-rule:nonzero;fill:rgb(0%,0%,0%);fill-opacity:1;" d="M 95.566406 6.351562 C 95.132812 6.808594 94.917969 6.835938 93.8125 6.402344 C 93.574219 6.328125 93.5 6.472656 93.574219 6.976562 C 93.644531 7.578125 93.742188 7.675781 94.316406 7.628906 C 94.675781 7.601562 94.964844 7.648438 94.964844 7.746094 C 94.964844 7.84375 94.699219 8.992188 94.363281 10.289062 C 94.027344 11.589844 93.765625 12.953125 93.765625 13.339844 C 93.765625 14.679688 94.171875 14.011719 94.699219 11.804688 C 95.542969 8.441406 95.734375 8.226562 96.667969 9.59375 C 96.980469 10.054688 97.316406 10.433594 97.4375 10.433594 C 97.675781 10.433594 96.957031 8.757812 96.476562 8.226562 C 96.140625 7.84375 96.140625 7.699219 96.40625 7.191406 C 96.691406 6.664062 96.691406 6.519531 96.382812 6.214844 C 96.046875 5.898438 95.972656 5.925781 95.566406 6.351562 Z M 95.566406 6.351562 "/>
<path style=" stroke:none;fill-rule:nonzero;fill:rgb(0%,0%,0%);fill-opacity:1;" d="M 87.019531 7.984375 C 86.683594 8.273438 86.542969 8.589844 86.636719 8.824219 C 86.757812 9.160156 86.878906 9.136719 87.691406 8.730469 C 88.773438 8.179688 89.0625 8.152344 89.515625 8.636719 C 89.851562 8.945312 90.164062 8.898438 90.164062 8.488281 C 90.164062 7.578125 87.980469 7.242188 87.019531 7.984375 Z M 87.019531 7.984375 "/>
<path style=" stroke:none;fill-rule:nonzero;fill:rgb(0%,0%,0%);fill-opacity:1;" d="M 88.078125 9.71875 C 87.765625 9.835938 87.523438 10.054688 87.523438 10.191406 C 87.523438 10.3125 87.765625 10.433594 88.078125 10.433594 C 88.675781 10.433594 91.101562 9.808594 91.316406 9.617188 C 91.53125 9.382812 88.652344 9.496094 88.078125 9.71875 Z M 88.078125 9.71875 "/>
<path style=" stroke:none;fill-rule:nonzero;fill:rgb(0%,0%,0%);fill-opacity:1;" d="M 76.652344 10.722656 C 75.117188 13.265625 73.390625 16.386719 71.902344 19.3125 C 70.316406 22.410156 66.429688 28.582031 64.917969 30.453125 L 64.339844 31.144531 L 63.140625 30.28125 C 59.734375 27.855469 52.75 25.554688 48.789062 25.554688 L 47.445312 25.554688 L 47.46875 23.320312 C 47.492188 20.589844 47.757812 17.488281 47.996094 17.253906 C 48.09375 17.152344 48.621094 17.011719 49.171875 16.9375 L 50.15625 16.796875 L 49.507812 16.023438 C 49.171875 15.617188 48.574219 14.539062 48.214844 13.648438 C 47.851562 12.761719 47.445312 11.992188 47.300781 11.945312 C 46.964844 11.824219 44.996094 16.121094 45.09375 16.769531 C 45.140625 17.152344 45.355469 17.296875 46.003906 17.34375 C 46.460938 17.394531 46.941406 17.511719 47.039062 17.609375 C 47.300781 17.878906 46.726562 24.664062 46.414062 25.003906 C 46.246094 25.144531 44.949219 25.386719 43.484375 25.554688 C 40.414062 25.867188 39.835938 26.105469 42.382812 25.984375 C 43.605469 25.9375 44.179688 26.011719 44.253906 26.207031 C 44.398438 26.589844 42.644531 27.066406 40.964844 27.113281 C 40.246094 27.136719 39.285156 27.332031 38.851562 27.570312 C 38.421875 27.785156 37.101562 28.339844 35.949219 28.792969 C 33.574219 29.710938 31.871094 30.496094 29.902344 31.703125 C 29.15625 32.152344 28.390625 32.511719 28.195312 32.511719 C 27.980469 32.511719 27.382812 31.480469 26.636719 29.804688 C 25.964844 28.339844 24.765625 25.648438 23.949219 23.878906 C 23.15625 22.097656 21.910156 18.957031 21.164062 16.9375 C 19.941406 13.433594 19.125 11.847656 19.125 12.90625 C 19.125 13.964844 22.316406 22.144531 25.292969 28.628906 C 26.375 31.054688 27.285156 33.136719 27.285156 33.28125 C 27.285156 33.429688 26.636719 34.21875 25.84375 35.058594 C 22.917969 38.207031 20.734375 42.066406 19.796875 45.808594 L 19.246094 47.945312 L 16.027344 47.777344 C 14.253906 47.710938 11.039062 47.636719 8.878906 47.636719 L 4.941406 47.636719 L 4.964844 46.359375 C 5.039062 44.441406 4.988281 44.296875 4.460938 44.035156 C 4.027344 43.792969 3.789062 43.914062 2.613281 45.042969 C 1.871094 45.738281 0.933594 46.554688 0.550781 46.816406 C 0.164062 47.105469 -0.0742188 47.441406 0.0195312 47.589844 C 0.09375 47.730469 0.789062 48.066406 1.558594 48.351562 C 2.300781 48.640625 3.261719 49.121094 3.691406 49.460938 C 4.628906 50.179688 4.773438 50.179688 4.582031 49.460938 C 4.484375 49.023438 4.558594 48.855469 5.011719 48.71875 C 5.804688 48.472656 16.195312 48.261719 17.78125 48.453125 L 19.125 48.617188 L 19.125 49.867188 C 19.148438 56.992188 22.917969 62.730469 29.515625 65.757812 C 33.1875 67.410156 37.941406 68.511719 41.46875 68.511719 L 43.363281 68.511719 L 43.363281 74.898438 C 43.363281 78.664062 43.269531 81.453125 43.125 81.71875 C 42.980469 82.003906 42.40625 82.265625 41.566406 82.433594 L 40.246094 82.703125 L 40.605469 83.34375 C 41.566406 85.121094 44.011719 88.554688 44.324219 88.554688 C 44.542969 88.554688 44.710938 88.289062 44.757812 87.835938 C 44.78125 87.429688 44.972656 86.085938 45.164062 84.835938 C 45.355469 83.589844 45.429688 82.507812 45.332031 82.410156 C 45.238281 82.3125 44.949219 82.191406 44.683594 82.144531 C 44.230469 82.078125 44.207031 81.855469 44.132812 75.90625 C 44.109375 72.261719 44.179688 69.519531 44.324219 69.136719 C 44.515625 68.589844 44.683594 68.511719 45.742188 68.511719 C 49.269531 68.511719 56.230469 67.167969 61.292969 65.511719 C 68.085938 63.28125 71.207031 60.835938 72.957031 56.441406 C 73.339844 55.460938 73.484375 54.429688 73.582031 51.59375 L 73.726562 47.992188 L 77.207031 47.847656 C 79.125 47.757812 85.507812 47.679688 91.4375 47.65625 L 102.164062 47.636719 L 102.164062 48.214844 C 102.164062 48.496094 102.046875 49.097656 101.902344 49.527344 C 101.757812 49.964844 101.683594 50.34375 101.757812 50.417969 C 101.949219 50.609375 102.957031 50.011719 103.414062 49.433594 C 103.628906 49.144531 104.542969 48.453125 105.40625 47.878906 C 106.269531 47.320312 106.964844 46.746094 106.964844 46.601562 C 106.964844 46.480469 106.339844 45.761719 105.550781 45.015625 C 104.78125 44.273438 103.988281 43.410156 103.773438 43.097656 C 103.222656 42.28125 103.027344 42.59375 102.886719 44.46875 C 102.691406 46.9375 103.773438 46.769531 87.285156 46.867188 L 73.222656 46.964844 L 72.667969 44.777344 C 71.492188 40.191406 69.644531 36.617188 66.886719 33.617188 C 65.972656 32.589844 65.207031 31.648438 65.207031 31.507812 C 65.207031 31.386719 65.683594 30.664062 66.261719 29.898438 C 67.964844 27.664062 70.125 24.136719 72.574219 19.480469 C 73.84375 17.085938 75.5 14.132812 76.292969 12.929688 C 77.0625 11.730469 77.683594 10.628906 77.683594 10.480469 C 77.683594 10.003906 76.988281 10.171875 76.652344 10.722656 Z M 47.46875 14.824219 C 47.324219 14.96875 47.207031 15.328125 47.207031 15.640625 C 47.207031 16.191406 46.171875 16.9375 45.859375 16.628906 C 45.691406 16.460938 46.628906 14.589844 47.179688 13.9375 C 47.542969 13.507812 47.566406 13.507812 47.636719 14.035156 C 47.683594 14.320312 47.613281 14.679688 47.46875 14.824219 Z M 48.40625 15.835938 C 48.40625 16.023438 48.308594 16.191406 48.164062 16.191406 C 48.046875 16.191406 47.925781 16.023438 47.925781 15.835938 C 47.925781 15.640625 48.046875 15.472656 48.164062 15.472656 C 48.308594 15.472656 48.40625 15.640625 48.40625 15.835938 Z M 46.4375 26.207031 C 46.484375 26.394531 46.316406 26.511719 46.027344 26.511719 C 45.523438 26.511719 45.1875 26.207031 45.453125 25.9375 C 45.691406 25.703125 46.316406 25.867188 46.4375 26.207031 Z M 50.398438 26.253906 C 50.804688 26.65625 50.398438 26.847656 49.171875 26.777344 C 47.851562 26.730469 47.207031 26.5625 47.207031 26.273438 C 47.207031 25.769531 49.894531 25.746094 50.398438 26.253906 Z M 53.925781 26.777344 C 56.46875 27.332031 61.246094 29.394531 62.300781 30.382812 C 62.710938 30.761719 62.78125 31.023438 62.660156 31.867188 C 62.347656 34.054688 62.085938 34.601562 60.859375 35.757812 C 60.1875 36.382812 59.589844 36.835938 59.515625 36.761719 C 59.445312 36.6875 59.78125 35.511719 60.238281 34.144531 C 61.222656 31.3125 61.339844 30.761719 61.003906 30.59375 C 60.859375 30.519531 60.164062 32.273438 59.398438 34.507812 C 58.101562 38.371094 57.308594 39.90625 56.347656 40.433594 C 56.011719 40.601562 55.871094 40.582031 55.75 40.3125 C 55.605469 39.90625 57.8125 32.417969 58.269531 31.890625 C 58.484375 31.628906 58.484375 31.386719 58.292969 30.957031 C 57.957031 30.214844 57.574219 30.183594 57.429688 30.886719 C 56.949219 33.136719 56.613281 34.480469 55.699219 37.359375 C 55.027344 39.519531 54.691406 40.914062 54.789062 41.34375 C 54.910156 41.945312 54.765625 42.136719 53.46875 43.144531 C 51.453125 44.730469 49.195312 45.738281 47.347656 45.886719 C 45.5 46.054688 45.332031 45.855469 45.835938 44.179688 C 46.054688 43.507812 46.605469 41.5625 47.085938 39.886719 C 47.542969 38.179688 48.214844 36.136719 48.550781 35.320312 C 48.886719 34.507812 49.558594 32.539062 50.0625 30.957031 C 50.613281 29.132812 51.070312 28.054688 51.285156 28.003906 C 51.8125 27.90625 53.230469 28.867188 53.375 29.417969 C 53.445312 29.65625 53.613281 29.878906 53.734375 29.878906 C 53.878906 29.878906 53.925781 29.636719 53.828125 29.320312 C 53.757812 29.035156 53.683594 28.722656 53.683594 28.628906 C 53.683594 28.527344 53.324219 28.265625 52.917969 28.054688 C 51.644531 27.402344 51.238281 26.96875 51.550781 26.589844 C 51.71875 26.417969 52.003906 26.320312 52.222656 26.371094 C 52.4375 26.417969 53.207031 26.609375 53.925781 26.777344 Z M 46.195312 28.3125 C 46.246094 28.964844 46.003906 32.34375 45.644531 35.847656 C 45.308594 39.351562 44.949219 43.054688 44.851562 44.035156 C 44.683594 45.785156 44.660156 45.835938 44.011719 45.90625 C 43.339844 45.976562 38.851562 43.722656 37.871094 42.808594 C 37.054688 42.042969 37.027344 40.601562 37.726562 37.480469 C 38.660156 33.304688 39.980469 28.601562 40.316406 28.265625 C 40.726562 27.855469 43.414062 27.183594 43.652344 27.429688 C 43.894531 27.664062 42.621094 32.898438 41.109375 37.914062 C 39.886719 42.042969 39.765625 42.640625 40.171875 42.761719 C 40.484375 42.886719 40.796875 41.921875 42.40625 35.878906 C 42.957031 33.835938 43.675781 31.21875 44.011719 30.066406 C 44.949219 26.921875 46.054688 26.035156 46.195312 28.3125 Z M 49.84375 27.59375 C 50.230469 28.054688 49.917969 29.253906 47.949219 34.867188 C 46.269531 39.640625 46.027344 40.191406 46.003906 39.09375 C 46.003906 38.152344 46.917969 28.792969 47.109375 27.886719 C 47.230469 27.28125 47.324219 27.234375 48.40625 27.234375 C 49.125 27.234375 49.652344 27.351562 49.84375 27.59375 Z M 38.925781 28.722656 C 39.046875 29.011719 36.285156 41.34375 36.09375 41.5625 C 36.046875 41.609375 35.542969 41.226562 34.988281 40.746094 C 33.550781 39.453125 33.523438 38.828125 34.605469 34.507812 C 35.757812 29.96875 36.09375 29.296875 37.414062 28.84375 C 38.710938 28.386719 38.804688 28.359375 38.925781 28.722656 Z M 34.054688 34.121094 C 33.476562 36.472656 32.949219 38.441406 32.878906 38.511719 C 32.683594 38.710938 29.972656 35.636719 29.253906 34.460938 L 28.628906 33.402344 L 29.324219 32.847656 C 29.710938 32.539062 30.574219 32.011719 31.222656 31.648438 C 32.253906 31.078125 32.375 31.054688 32.207031 31.460938 C 31.195312 33.90625 30.859375 36.113281 31.484375 36.113281 C 31.726562 36.113281 31.84375 35.878906 31.84375 35.296875 C 31.84375 34.867188 32.0625 33.808594 32.324219 32.992188 C 32.589844 32.179688 32.804688 31.359375 32.804688 31.191406 C 32.804688 30.835938 34.195312 29.878906 34.726562 29.878906 C 35.039062 29.878906 34.894531 30.640625 34.054688 34.121094 Z M 68.78125 36.835938 C 69.550781 37.984375 70.53125 40.003906 71.109375 41.511719 C 72.09375 44.132812 72.835938 46.816406 72.597656 47.035156 C 72.429688 47.226562 45.382812 47.46875 45.574219 47.296875 C 45.644531 47.207031 46.507812 47.011719 47.492188 46.890625 C 49.894531 46.582031 52.125 45.429688 54.597656 43.265625 C 57.070312 41.085938 62.230469 35.539062 63.71875 33.496094 L 64.820312 31.964844 L 66.140625 33.382812 C 66.859375 34.144531 68.039062 35.710938 68.78125 36.835938 Z M 28.871094 35.320312 C 31.84375 39.042969 33.09375 40.359375 34.941406 41.730469 C 38.734375 44.539062 42.214844 46.582031 43.726562 46.914062 C 45.40625 47.253906 44.230469 47.511719 40.363281 47.679688 C 34.390625 47.921875 20.375 47.992188 20.15625 47.777344 C 19.917969 47.539062 20.636719 44.878906 21.523438 42.761719 C 21.933594 41.777344 22.796875 40.144531 23.46875 39.136719 C 24.644531 37.339844 27.382812 34.191406 27.765625 34.191406 C 27.859375 34.191406 28.363281 34.703125 28.871094 35.320312 Z M 105.40625 46.480469 C 105.019531 46.769531 104.207031 46.703125 103.894531 46.386719 C 103.726562 46.21875 103.605469 45.738281 103.605469 45.28125 L 103.605469 44.441406 L 104.636719 45.382812 C 105.238281 45.929688 105.550781 46.386719 105.40625 46.480469 Z M 3.980469 46.722656 C 4.003906 47.46875 3.574219 47.589844 2.398438 47.132812 L 1.726562 46.867188 L 2.683594 46.054688 C 3.523438 45.304688 3.644531 45.261719 3.8125 45.640625 C 3.886719 45.886719 3.980469 46.359375 3.980469 46.722656 Z M 103.964844 47.898438 C 103.75 48.234375 103.605469 48.160156 103.605469 47.730469 C 103.605469 47.539062 103.726562 47.441406 103.84375 47.511719 C 103.988281 47.609375 104.039062 47.777344 103.964844 47.898438 Z M 72.980469 48.402344 C 73.195312 49.242188 73.148438 52.964844 72.910156 54.261719 C 72.429688 56.777344 71.710938 58.144531 70.027344 59.828125 C 69.140625 60.71875 67.871094 61.722656 67.222656 62.085938 L 65.996094 62.730469 L 65.179688 61.265625 C 64.246094 59.5625 63.765625 59.253906 63.765625 60.332031 C 63.765625 60.738281 63.644531 61.078125 63.5 61.078125 C 63.070312 61.078125 60.71875 59.417969 53.515625 53.945312 C 47.324219 49.265625 46.316406 48.453125 46.53125 48.304688 C 46.628906 48.234375 60.429688 47.992188 67.507812 47.921875 L 72.835938 47.878906 Z M 44.566406 50.320312 C 44.566406 51.429688 44.347656 55.554688 44.085938 59.511719 C 43.820312 63.472656 43.605469 66.976562 43.605469 67.289062 L 43.605469 67.867188 L 40.675781 67.722656 C 36.382812 67.480469 32.230469 66.429688 28.726562 64.671875 C 23.375 61.964844 19.84375 56.441406 19.84375 50.710938 L 19.84375 48.835938 L 20.515625 48.808594 C 21.214844 48.761719 36.429688 48.472656 41.515625 48.402344 L 44.566406 48.351562 Z M 48.285156 50.992188 C 48.8125 51.351562 49.484375 51.785156 49.773438 51.976562 C 50.207031 52.265625 61.292969 60.640625 63.019531 62.011719 C 63.691406 62.539062 63.550781 62.898438 62.566406 63.113281 C 61.652344 63.304688 61.871094 63.71875 62.878906 63.71875 C 64.292969 63.738281 62.996094 64.3125 59.253906 65.371094 C 53.804688 66.886719 48.667969 67.792969 45.597656 67.792969 L 44.324219 67.792969 L 44.324219 66.519531 C 44.324219 65.847656 44.542969 61.816406 44.804688 57.59375 C 45.070312 53.371094 45.285156 49.769531 45.285156 49.601562 C 45.285156 49.265625 46.699219 49.914062 48.285156 50.992188 Z M 43.125 84.261719 C 43.125 85.480469 42.859375 85.582031 42.1875 84.617188 C 41.589844 83.804688 41.566406 83.636719 42.019531 83.636719 C 42.214844 83.636719 42.429688 83.46875 42.5 83.253906 C 42.765625 82.582031 43.125 83.152344 43.125 84.261719 Z M 44.542969 83.921875 C 44.542969 84.351562 44.375 85.242188 44.207031 85.914062 C 43.917969 87.09375 43.894531 87.09375 43.871094 86.253906 C 43.820312 84.976562 44.109375 83.152344 44.347656 83.152344 C 44.46875 83.152344 44.566406 83.511719 44.542969 83.921875 Z M 44.542969 83.921875 "/>
<path style=" stroke:none;fill-rule:nonzero;fill:rgb(0%,0%,0%);fill-opacity:1;" d="M 54.332031 28.601562 C 54.238281 28.671875 54.164062 29.132812 54.164062 29.5625 C 54.164062 30.835938 53.109375 34.703125 51.5 39.351562 C 50.375 42.617188 50.085938 43.648438 50.300781 43.867188 C 50.660156 44.207031 51.238281 43.527344 51.429688 42.59375 C 51.550781 41.898438 52.652344 38.179688 53.878906 34.3125 C 54.980469 30.808594 55.222656 27.6875 54.332031 28.601562 Z M 54.332031 28.601562 "/>
<path style=" stroke:none;fill-rule:nonzero;fill:rgb(0%,0%,0%);fill-opacity:1;" d="M 61.292969 49.984375 C 60.859375 50.46875 60.164062 53.085938 60.164062 54.28125 C 60.164062 55.410156 60.574219 55.460938 60.765625 54.332031 C 60.859375 53.804688 61.078125 53.296875 61.246094 53.226562 C 61.84375 53.011719 62.972656 53.921875 63.765625 55.242188 C 64.195312 55.9375 64.605469 56.46875 64.652344 56.417969 C 64.871094 56.207031 64.222656 54.617188 63.5 53.636719 L 62.78125 52.648438 L 63.40625 51.90625 C 64.054688 51.136719 64.054688 50.417969 63.332031 49.84375 C 62.78125 49.410156 61.75 49.480469 61.292969 49.984375 Z M 63.019531 50.609375 C 63.261719 50.898438 63.214844 51.066406 62.828125 51.453125 C 62.300781 51.976562 61.363281 52.144531 61.363281 51.71875 C 61.363281 51.570312 61.484375 51.472656 61.605469 51.472656 C 61.75 51.472656 61.84375 51.28125 61.84375 51.042969 C 61.84375 50.226562 62.515625 50.011719 63.019531 50.609375 Z M 63.019531 50.609375 "/>
<path style=" stroke:none;fill-rule:nonzero;fill:rgb(0%,0%,0%);fill-opacity:1;" d="M 92.566406 15.09375 C 92.566406 15.519531 93.453125 15.640625 97.484375 15.808594 C 99.070312 15.886719 100.507812 15.855469 100.699219 15.738281 C 101.085938 15.496094 100.222656 15.328125 96.765625 14.992188 C 93.332031 14.65625 92.566406 14.679688 92.566406 15.09375 Z M 92.566406 15.09375 "/>
<path style=" stroke:none;fill-rule:nonzero;fill:rgb(0%,0%,0%);fill-opacity:1;" d="M 95.828125 17.878906 C 94.941406 18.664062 94.003906 20.34375 94.003906 21.160156 C 94.003906 22.144531 94.675781 22.507812 96.214844 22.359375 L 97.605469 22.242188 L 97.605469 23.945312 C 97.605469 25.890625 97.941406 25.769531 98.207031 23.757812 C 98.421875 22.265625 98.589844 22.023438 99.789062 21.835938 C 100.773438 21.664062 101.324219 21.234375 100.53125 21.234375 C 100.269531 21.234375 99.691406 21.066406 99.238281 20.878906 C 98.542969 20.589844 98.375 20.371094 98.230469 19.628906 C 98.085938 18.640625 97.269531 17.152344 96.886719 17.152344 C 96.765625 17.152344 96.285156 17.488281 95.828125 17.878906 Z M 97.269531 19.964844 C 97.363281 20.441406 97.316406 20.898438 97.171875 21.042969 C 96.789062 21.429688 94.726562 21.59375 94.726562 21.261719 C 94.726562 20.828125 95.445312 19.507812 95.996094 18.886719 C 96.476562 18.382812 96.523438 18.351562 96.8125 18.738281 C 96.980469 18.976562 97.195312 19.527344 97.269531 19.964844 Z M 97.269531 19.964844 "/>
<path style=" stroke:none;fill-rule:nonzero;fill:rgb(0%,0%,0%);fill-opacity:1;" d="M 69.933594 27.855469 C 69.835938 27.957031 69.765625 29.152344 69.765625 30.519531 C 69.765625 33.183594 70.003906 33.617188 70.652344 32.085938 C 70.988281 31.289062 71.0625 31.242188 71.300781 31.648438 C 72.238281 33.183594 72.980469 33.453125 72.40625 32.011719 C 72.117188 31.3125 72.117188 31.21875 72.667969 30.808594 L 73.246094 30.351562 L 72.597656 30.351562 C 71.878906 30.351562 71.734375 30.183594 71.207031 28.792969 C 70.84375 27.886719 70.316406 27.496094 69.933594 27.855469 Z M 69.933594 27.855469 "/>
<path style=" stroke:none;fill-rule:nonzero;fill:rgb(0%,0%,0%);fill-opacity:1;" d="M 17.46875 30.234375 C 16.699219 30.570312 16.675781 30.640625 16.820312 31.507812 C 16.894531 31.984375 17.085938 33.261719 17.207031 34.3125 C 17.710938 38.296875 17.710938 38.296875 19.4375 37.097656 C 20.828125 36.136719 21.574219 35.273438 21.476562 34.746094 C 21.429688 34.507812 20.902344 34.054688 20.277344 33.71875 C 19.652344 33.382812 19.078125 33.015625 18.980469 32.921875 C 18.886719 32.847656 19.222656 32.320312 19.699219 31.792969 C 20.179688 31.265625 20.566406 30.785156 20.566406 30.738281 C 20.566406 30.664062 20.398438 30.453125 20.179688 30.261719 C 19.726562 29.777344 18.550781 29.777344 17.46875 30.234375 Z M 19.605469 30.785156 C 19.605469 31.121094 18.261719 32.296875 18.09375 32.105469 C 17.878906 31.914062 17.878906 30.957031 18.09375 30.761719 C 18.308594 30.519531 19.605469 30.546875 19.605469 30.785156 Z M 20.804688 34.964844 C 20.804688 35.253906 19.027344 36.59375 18.621094 36.59375 C 18.09375 36.59375 17.925781 36.113281 17.925781 34.527344 L 17.925781 33.214844 L 19.363281 34.003906 C 20.15625 34.433594 20.804688 34.867188 20.804688 34.964844 Z M 20.804688 34.964844 "/>
<path style=" stroke:none;fill-rule:nonzero;fill:rgb(0%,0%,0%);fill-opacity:1;" d="M 109.84375 49.703125 C 109.84375 49.769531 110.039062 50.511719 110.253906 51.351562 L 110.660156 52.890625 L 109.773438 54.214844 C 109.292969 54.957031 108.886719 55.601562 108.886719 55.671875 C 108.886719 56.085938 109.4375 55.601562 110.421875 54.351562 C 111.046875 53.5625 111.691406 52.914062 111.835938 52.914062 C 112.003906 52.9375 112.484375 53.417969 112.917969 53.992188 C 113.660156 55.003906 114.164062 55.359375 114.164062 54.855469 C 114.164062 54.738281 113.734375 53.992188 113.179688 53.207031 C 112.316406 51.957031 112.222656 51.71875 112.484375 51.261719 C 112.699219 50.828125 112.820312 50.777344 113.109375 51.015625 C 113.398438 51.234375 113.445312 51.160156 113.445312 50.539062 C 113.445312 49.460938 112.796875 49.289062 112.101562 50.179688 L 111.550781 50.847656 L 110.851562 50.207031 C 110.207031 49.582031 109.84375 49.386719 109.84375 49.703125 Z M 109.84375 49.703125 "/>
<path style=" stroke:none;fill-rule:nonzero;fill:rgb(0%,0%,0%);fill-opacity:1;" d="M 30.765625 96.214844 C 30.332031 96.519531 30.308594 96.640625 30.597656 97.722656 C 31.027344 99.28125 31.484375 99.6875 31.269531 98.296875 C 31.078125 97.097656 31.363281 96.59375 32.230469 96.59375 C 33.09375 96.59375 33.261719 97.648438 32.613281 98.777344 C 31.917969 99.976562 31.941406 100.265625 32.828125 101.273438 C 33.261719 101.757812 33.523438 102.214844 33.429688 102.28125 C 33.355469 102.382812 32.660156 102.472656 31.894531 102.519531 C 29.683594 102.664062 29.347656 102.785156 29.710938 103.242188 C 30.308594 103.9375 34.484375 103.21875 34.484375 102.402344 C 34.484375 102.183594 34.078125 101.609375 33.597656 101.105469 L 32.710938 100.191406 L 33.238281 99.113281 C 33.886719 97.769531 33.910156 96.976562 33.285156 96.351562 C 32.734375 95.804688 31.4375 95.710938 30.765625 96.214844 Z M 30.765625 96.214844 "/>
<path style=" stroke:none;fill-rule:nonzero;fill:rgb(0%,0%,0%);fill-opacity:1;" d="M 11.925781 96.570312 C 11.347656 96.71875 11.324219 96.855469 11.15625 98.945312 C 11.0625 100.144531 10.871094 101.371094 10.726562 101.636719 C 10.558594 101.96875 10.53125 102.261719 10.726562 102.570312 C 10.84375 102.835938 10.964844 103.554688 10.988281 104.207031 C 11.011719 104.828125 11.085938 105.617188 11.207031 105.957031 L 11.375 106.554688 L 11.515625 105.957031 C 11.613281 105.617188 11.710938 104.710938 11.734375 103.914062 C 11.804688 102.496094 11.828125 102.472656 12.550781 102.402344 C 13.339844 102.332031 14.15625 102.976562 15.214844 104.5625 C 15.550781 105.042969 15.957031 105.496094 16.148438 105.570312 C 16.773438 105.808594 15.261719 103.242188 14.179688 102.214844 L 13.148438 101.253906 L 13.988281 100.078125 C 14.972656 98.679688 15.070312 97.628906 14.253906 96.886719 C 13.699219 96.351562 13.027344 96.261719 11.925781 96.570312 Z M 13.796875 97.359375 C 14.398438 97.964844 14.109375 98.992188 13.003906 100.144531 L 11.925781 101.273438 L 11.925781 99.71875 C 11.925781 98.679688 12.046875 97.964844 12.308594 97.601562 C 12.71875 97.023438 13.339844 96.90625 13.796875 97.359375 Z M 13.796875 97.359375 "/>
<path style=" stroke:none;fill-rule:nonzero;fill:rgb(0%,0%,0%);fill-opacity:1;" d="M 59.613281 97.410156 C 58.84375 97.722656 58.078125 98.132812 57.859375 98.296875 C 57.597656 98.511719 57.429688 98.511719 57.238281 98.320312 C 57.070312 98.152344 56.851562 98.035156 56.757812 98.035156 C 56.660156 98.035156 56.566406 99.808594 56.566406 101.992188 C 56.566406 105.785156 56.589844 105.957031 57.070312 106.21875 C 57.476562 106.433594 57.933594 106.386719 59.109375 106.078125 C 60.980469 105.570312 61.363281 105.183594 60.644531 104.589844 C 59.398438 103.554688 59.132812 103.054688 59.683594 102.71875 C 59.996094 102.519531 59.996094 100.914062 59.683594 100.914062 C 59.277344 100.914062 58.675781 102.09375 58.675781 102.929688 C 58.675781 103.359375 58.84375 104.011719 59.0625 104.320312 C 59.515625 105.015625 59.300781 105.304688 58.171875 105.570312 C 57.238281 105.785156 56.972656 104.945312 57.1875 102.351562 C 57.332031 100.601562 57.453125 100.191406 58.027344 99.453125 C 58.773438 98.488281 60.5 97.554688 61.484375 97.554688 C 62.15625 97.554688 62.300781 97.191406 61.699219 96.976562 C 61.171875 96.785156 61.171875 96.785156 59.613281 97.410156 Z M 59.613281 97.410156 "/>
<path style=" stroke:none;fill-rule:nonzero;fill:rgb(0%,0%,0%);fill-opacity:1;" d="M 52.726562 98.011719 C 52.726562 98.441406 53.710938 100.433594 53.925781 100.433594 C 54.308594 100.433594 54.214844 99.761719 53.683594 98.757812 C 53.230469 97.890625 52.726562 97.480469 52.726562 98.011719 Z M 52.726562 98.011719 "/>
<path style=" stroke:none;fill-rule:nonzero;fill:rgb(0%,0%,0%);fill-opacity:1;" d="M 40.171875 100.242188 C 40.003906 100.746094 40.484375 103.816406 40.871094 104.5625 C 41.0625 104.945312 41.398438 105.332031 41.589844 105.402344 C 42.1875 105.617188 43.101562 105.066406 43.628906 104.152344 L 44.132812 103.3125 L 44.734375 104.035156 C 45.40625 104.847656 45.742188 104.898438 46.726562 104.394531 C 47.347656 104.058594 47.445312 104.085938 47.636719 104.417969 C 47.902344 104.878906 49.148438 104.710938 49.628906 104.132812 C 50.039062 103.628906 50.277344 103.722656 50.683594 104.511719 C 51.140625 105.382812 52.078125 105.472656 52.871094 104.730469 L 53.398438 104.253906 L 53.710938 105.261719 C 53.902344 105.808594 54.164062 106.3125 54.308594 106.359375 C 54.71875 106.480469 54.933594 105.71875 54.621094 105.332031 C 54.476562 105.160156 54.308594 104.34375 54.238281 103.554688 C 54.070312 101.847656 53.828125 101.828125 52.964844 103.339844 C 52.101562 104.777344 51.550781 104.757812 51.019531 103.21875 C 50.78125 102.59375 50.542969 102.015625 50.46875 101.945312 C 50.421875 101.878906 49.964844 102.28125 49.484375 102.808594 C 48.980469 103.359375 48.5 103.792969 48.382812 103.792969 C 48.261719 103.792969 48.164062 103.433594 48.164062 102.976562 C 48.164062 101.710938 47.878906 99.957031 47.660156 99.957031 C 47.566406 99.957031 47.398438 100.359375 47.324219 100.84375 C 46.917969 103.410156 46.292969 104.371094 45.453125 103.722656 C 44.996094 103.386719 44.324219 101.609375 44.324219 100.769531 C 44.324219 100.480469 44.230469 100.144531 44.085938 100.078125 C 43.84375 99.929688 43.675781 100.480469 43.53125 102.160156 C 43.339844 104.226562 42.164062 105.183594 41.347656 103.984375 C 41.0625 103.601562 41.011719 103.144531 41.109375 102.351562 C 41.300781 100.84375 40.582031 99.183594 40.171875 100.242188 Z M 40.171875 100.242188 "/>
<path style=" stroke:none;fill-rule:nonzero;fill:rgb(0%,0%,0%);fill-opacity:1;" d="M 20.085938 100.628906 C 20.085938 101.273438 20.445312 101.46875 21.046875 101.152344 C 21.429688 100.9375 21.835938 100.964844 22.726562 101.226562 C 23.398438 101.417969 23.925781 101.488281 23.925781 101.371094 C 23.925781 100.9375 22.699219 100.386719 21.429688 100.265625 C 20.179688 100.144531 20.085938 100.167969 20.085938 100.628906 Z M 20.085938 100.628906 "/>
<path style=" stroke:none;fill-rule:nonzero;fill:rgb(0%,0%,0%);fill-opacity:1;" d="M 22.125 102.855469 C 20.324219 103.121094 19.4375 103.480469 19.796875 103.84375 C 19.964844 104.011719 20.542969 103.984375 21.691406 103.722656 C 22.582031 103.527344 23.878906 103.289062 24.523438 103.191406 C 25.460938 103.054688 25.628906 102.976562 25.246094 102.808594 C 24.667969 102.59375 23.996094 102.59375 22.125 102.855469 Z M 22.125 102.855469 "/>
<path style=" stroke:none;fill-rule:nonzero;fill:rgb(0%,0%,0%);fill-opacity:1;" d="M 64.820312 105.382812 C 64.894531 105.59375 64.964844 105.808594 64.964844 105.855469 C 64.964844 105.90625 65.085938 105.957031 65.207031 105.957031 C 65.347656 105.957031 65.445312 105.738281 65.445312 105.472656 C 65.445312 105.183594 65.277344 104.992188 65.0625 104.992188 C 64.796875 104.992188 64.726562 105.113281 64.820312 105.382812 Z M 64.820312 105.382812 "/>
<path style=" stroke:none;fill-rule:nonzero;fill:rgb(0%,0%,0%);fill-opacity:1;" d="M 28.171875 107.5625 C 27.71875 107.992188 28.222656 108.113281 30.523438 108.113281 C 32.851562 108.113281 33.621094 107.898438 32.660156 107.542969 C 32.15625 107.34375 28.363281 107.34375 28.171875 107.5625 Z M 28.171875 107.5625 "/>
<path style=" stroke:none;fill-rule:nonzero;fill:rgb(0%,0%,0%);fill-opacity:1;" d="M 29.636719 110.898438 C 29.253906 111.09375 28.964844 111.449219 28.964844 111.71875 C 28.964844 112.3125 29.0625 112.3125 29.902344 111.6875 C 30.8125 111.015625 31.605469 111.234375 31.605469 112.191406 C 31.605469 112.675781 31.222656 113.320312 30.308594 114.402344 L 28.988281 115.917969 L 29.878906 115.984375 C 30.859375 116.082031 34.078125 115.625 34.820312 115.292969 C 35.15625 115.144531 34.582031 115.097656 33.117188 115.167969 C 31.078125 115.242188 30.476562 115.125 31.125 114.71875 C 31.558594 114.449219 32.324219 112.722656 32.324219 112 C 32.324219 110.679688 31.003906 110.132812 29.636719 110.898438 Z M 29.636719 110.898438 "/>
</g>
</svg>
