<?xml version="1.0" encoding="UTF-8"?>
<svg xmlns="http://www.w3.org/2000/svg" xmlns:xlink="http://www.w3.org/1999/xlink" width="111pt" height="83pt" viewBox="0 0 111 83" version="1.1">
<defs>
<clipPath id="clip1">
  <path d="M 68 0.160156 L 70 0.160156 L 70 2 L 68 2 Z M 68 0.160156 "/>
</clipPath>
<clipPath id="clip2">
  <path d="M 69 0.160156 L 74 0.160156 L 74 3 L 69 3 Z M 69 0.160156 "/>
</clipPath>
</defs>
<g id="surface1">
<g clip-path="url(#clip1)" clip-rule="nonzero">
<path style=" stroke:none;fill-rule:nonzero;fill:rgb(0%,0%,0%);fill-opacity:1;" d="M 68.429688 0.929688 C 68.644531 1.960938 69.050781 2.367188 69.050781 1.550781 C 69.050781 1.191406 69.125 0.761719 69.195312 0.542969 C 69.292969 0.257812 69.195312 0.160156 68.8125 0.160156 C 68.332031 0.160156 68.285156 0.257812 68.429688 0.929688 Z M 68.429688 0.929688 "/>
</g>
<g clip-path="url(#clip2)" clip-rule="nonzero">
<path style=" stroke:none;fill-rule:nonzero;fill:rgb(0%,0%,0%);fill-opacity:1;" d="M 70.898438 0.664062 C 71.019531 1.046875 70.804688 1.382812 70.109375 1.984375 L 69.171875 2.777344 L 70.132812 2.777344 C 70.660156 2.777344 71.574219 2.679688 72.171875 2.585938 L 73.253906 2.390625 L 72.414062 2.175781 C 71.667969 1.960938 71.574219 1.839844 71.5 1.046875 C 71.453125 0.496094 71.308594 0.160156 71.09375 0.160156 C 70.898438 0.160156 70.828125 0.328125 70.898438 0.664062 Z M 70.898438 0.664062 "/>
</g>
<path style=" stroke:none;fill-rule:nonzero;fill:rgb(0%,0%,0%);fill-opacity:1;" d="M 78.605469 3.6875 C 78.125 4.527344 77.164062 7.625 77.332031 7.816406 C 77.40625 7.886719 77.8125 7.792969 78.246094 7.625 C 79.757812 7 79.925781 7.097656 80.355469 8.753906 C 80.910156 10.839844 81.101562 10.886719 80.910156 8.871094 C 80.765625 7.238281 80.765625 7.167969 81.316406 7 C 81.773438 6.855469 82.011719 6.976562 82.613281 7.695312 C 82.996094 8.175781 83.429688 8.558594 83.523438 8.558594 C 83.644531 8.558594 84.050781 8.34375 84.4375 8.054688 L 85.132812 7.574219 L 85.132812 8.128906 C 85.132812 8.441406 84.75 9.207031 84.292969 9.855469 C 83.40625 11.105469 83.066406 12.257812 83.308594 13.214844 C 83.453125 13.839844 84.050781 14.558594 84.414062 14.558594 C 84.941406 14.558594 85.421875 13.265625 85.589844 11.320312 C 85.730469 9.953125 85.925781 9.113281 86.1875 8.824219 C 86.574219 8.417969 86.574219 8.367188 86.117188 8.25 C 85.78125 8.175781 85.539062 7.792969 85.347656 7.023438 C 85.203125 6.398438 84.988281 5.871094 84.890625 5.800781 C 84.796875 5.726562 84.53125 6.183594 84.292969 6.761719 C 84.078125 7.359375 83.8125 7.839844 83.691406 7.839844 C 83.378906 7.839844 83.019531 7.289062 82.804688 6.425781 C 82.5625 5.441406 82.132812 5.199219 81.941406 5.921875 C 81.84375 6.304688 81.652344 6.425781 81.246094 6.351562 C 80.8125 6.304688 80.644531 6.0625 80.5 5.320312 C 80.042969 3.183594 79.300781 2.535156 78.605469 3.6875 Z M 79.828125 5.128906 C 79.972656 5.609375 80.019531 6.089844 79.949219 6.207031 C 79.707031 6.59375 78.582031 6.902344 78.339844 6.664062 C 78.078125 6.398438 78.988281 4.238281 79.347656 4.238281 C 79.492188 4.238281 79.707031 4.625 79.828125 5.128906 Z M 85.058594 11.441406 C 84.867188 13.097656 84.675781 13.648438 84.316406 13.527344 C 83.980469 13.40625 84.027344 11.320312 84.386719 10.40625 C 84.820312 9.28125 85.203125 9.878906 85.058594 11.441406 Z M 85.058594 11.441406 "/>
<path style=" stroke:none;fill-rule:nonzero;fill:rgb(0%,0%,0%);fill-opacity:1;" d="M 66.652344 4.382812 C 66.507812 4.71875 66.414062 5.082031 66.414062 5.199219 C 66.414062 5.726562 65.835938 5.679688 65.1875 5.054688 C 64.203125 4.121094 64.058594 4.503906 64.972656 5.65625 L 65.742188 6.59375 L 65.332031 7.816406 C 65.117188 8.464844 64.972656 9.472656 65.019531 10.046875 L 65.09375 11.082031 L 65.523438 9.398438 C 65.742188 8.488281 66.027344 7.648438 66.148438 7.527344 C 66.292969 7.382812 66.820312 7.648438 67.492188 8.199219 C 68.09375 8.703125 68.644531 9.039062 68.714844 8.96875 C 68.789062 8.894531 68.355469 8.296875 67.757812 7.625 C 66.75 6.496094 66.699219 6.351562 66.941406 5.679688 C 67.109375 5.199219 67.300781 4.984375 67.515625 5.054688 C 67.925781 5.199219 67.949219 4.863281 67.613281 4.214844 C 67.253906 3.59375 66.917969 3.640625 66.652344 4.382812 Z M 66.652344 4.382812 "/>
<path style=" stroke:none;fill-rule:nonzero;fill:rgb(0%,0%,0%);fill-opacity:1;" d="M 71.621094 6.808594 C 71.523438 6.878906 71.453125 7.070312 71.453125 7.214844 C 71.453125 7.40625 71.882812 7.433594 73.011719 7.265625 C 73.875 7.121094 74.574219 6.929688 74.574219 6.832031 C 74.574219 6.59375 71.835938 6.566406 71.621094 6.808594 Z M 71.621094 6.808594 "/>
<path style=" stroke:none;fill-rule:nonzero;fill:rgb(0%,0%,0%);fill-opacity:1;" d="M 71.453125 8.296875 C 71.453125 8.777344 72.84375 8.945312 74.355469 8.632812 C 75.027344 8.511719 75.078125 8.464844 74.691406 8.296875 C 74.019531 8.03125 71.453125 8.03125 71.453125 8.296875 Z M 71.453125 8.296875 "/>
<path style=" stroke:none;fill-rule:nonzero;fill:rgb(0%,0%,0%);fill-opacity:1;" d="M 18.246094 12.929688 C 18.316406 13.238281 18.699219 14.34375 19.085938 15.398438 C 19.492188 16.457031 20.882812 20.632812 22.226562 24.6875 C 24.820312 32.585938 26.238281 36.136719 28.539062 40.480469 C 31.226562 45.566406 33.507812 48.710938 35.8125 50.535156 C 37.445312 51.785156 39.917969 53.105469 41.355469 53.464844 C 43.613281 54.039062 42.507812 54.257812 34.972656 54.640625 C 22.757812 55.265625 7.996094 55.550781 5.859375 55.214844 C 5.042969 55.070312 4.949219 54.976562 4.828125 54.160156 C 4.589844 52.71875 4.421875 52.550781 3.484375 53.007812 C 2.285156 53.609375 -0.117188 55.601562 0.00390625 55.914062 C 0.0507812 56.082031 0.339844 56.222656 0.675781 56.273438 C 0.988281 56.296875 1.949219 56.511719 2.789062 56.726562 C 4.085938 57.0625 4.324219 57.207031 4.539062 57.808594 C 4.78125 58.457031 4.828125 58.480469 5.164062 58.144531 C 5.476562 57.832031 5.476562 57.664062 5.238281 57.136719 C 5.042969 56.679688 5.019531 56.417969 5.210938 56.222656 C 5.355469 56.082031 9.75 55.886719 17.285156 55.695312 C 23.765625 55.527344 32.261719 55.214844 36.125 55 C 39.988281 54.761719 43.203125 54.617188 43.253906 54.6875 C 43.46875 54.902344 43.636719 75.425781 43.445312 76.121094 C 43.253906 76.71875 43.035156 76.863281 42.21875 77.03125 C 41.019531 77.273438 40.972656 77.535156 41.789062 79.238281 C 42.484375 80.753906 43.515625 82 44.09375 82 C 44.40625 82 44.597656 81.617188 44.933594 80.25 C 45.148438 79.3125 45.554688 78.089844 45.796875 77.585938 C 46.058594 77.054688 46.253906 76.574219 46.253906 76.527344 C 46.253906 76.480469 45.796875 76.480469 45.246094 76.527344 L 44.210938 76.601562 L 44.140625 66.230469 C 44.09375 56.222656 44.1875 54.375 44.8125 54.761719 C 44.933594 54.832031 45.050781 55.097656 45.050781 55.335938 C 45.050781 55.914062 46.707031 58.433594 47.957031 59.800781 C 49.5625 61.550781 55.035156 64.695312 61.972656 67.839844 C 68.859375 71.007812 70.324219 71.511719 75.582031 72.640625 C 78.941406 73.359375 85.539062 75.207031 87.605469 76.023438 C 88.972656 76.574219 89.210938 76.574219 89.210938 76.121094 C 89.210938 75.929688 88.804688 75.664062 88.203125 75.519531 C 87.628906 75.375 86.164062 74.921875 84.941406 74.535156 C 82.058594 73.625 76.949219 72.304688 74.332031 71.800781 C 71.355469 71.199219 67.253906 69.640625 61.226562 66.808594 C 52.972656 62.921875 49.347656 60.734375 47.644531 58.671875 C 46.730469 57.566406 45.941406 56.082031 45.699219 55.121094 L 45.554688 54.496094 L 51.605469 54.207031 C 62.714844 53.65625 69.53125 53.464844 84.292969 53.296875 C 100.179688 53.105469 100.203125 53.128906 99.75 54.304688 C 99.605469 54.761719 99.605469 55.046875 99.796875 55.265625 C 100.179688 55.746094 100.371094 55.671875 100.683594 55 C 100.828125 54.6875 101.308594 54.230469 101.742188 54.015625 C 102.605469 53.585938 103.613281 52.746094 103.613281 52.457031 C 103.613281 52.359375 103.203125 52.046875 102.722656 51.734375 C 102.21875 51.449219 101.40625 50.824219 100.925781 50.367188 C 100.421875 49.886719 99.964844 49.574219 99.890625 49.648438 C 99.820312 49.71875 99.75 50.367188 99.699219 51.113281 L 99.652344 52.457031 L 98.210938 52.601562 C 97.421875 52.671875 89.042969 52.839844 79.613281 52.960938 C 70.179688 53.105469 60.292969 53.296875 57.652344 53.441406 C 48.964844 53.847656 46.972656 53.921875 46.972656 53.824219 C 46.972656 53.753906 48.101562 52.886719 49.46875 51.902344 C 54.582031 48.183594 58.539062 42.929688 61.804688 35.585938 C 62.378906 34.238281 63.195312 32.824219 63.582031 32.417969 C 65.238281 30.640625 74.285156 26.945312 78.363281 26.34375 C 78.964844 26.273438 79.492188 26.054688 79.5625 25.863281 C 79.875 24.902344 72.75 27.039062 67.539062 29.488281 C 65.835938 30.28125 64.394531 30.855469 64.324219 30.785156 C 64.253906 30.710938 64.730469 29.34375 65.40625 27.761719 C 68.117188 21.425781 71.117188 12.761719 70.707031 12.496094 C 70.324219 12.28125 70.011719 12.640625 70.011719 13.3125 C 70.011719 14.824219 65.40625 27.0625 63.460938 30.734375 C 63.027344 31.550781 62.40625 32.320312 61.972656 32.585938 C 60.867188 33.230469 57.84375 35.390625 55.972656 36.855469 C 53.859375 38.535156 49.46875 42.785156 48.941406 43.671875 C 48.675781 44.105469 48.386719 44.296875 48.101562 44.222656 C 47.8125 44.152344 47.644531 44.296875 47.546875 44.753906 C 47.453125 45.113281 46.972656 46.3125 46.46875 47.441406 C 45.582031 49.457031 45.125 50.96875 45.003906 52.359375 C 44.933594 53.175781 44.261719 53.464844 43.949219 52.792969 C 43.851562 52.550781 43.707031 46.070312 43.660156 38.367188 L 43.5625 24.351562 L 44.621094 24.449219 C 45.53125 24.519531 45.652344 24.449219 45.722656 23.992188 C 45.773438 23.703125 45.460938 22.886719 45.078125 22.191406 C 44.667969 21.472656 44.332031 20.703125 44.332031 20.511719 C 44.332031 20.296875 44.164062 20.007812 43.972656 19.839844 C 43.757812 19.648438 43.613281 19.648438 43.613281 19.792969 C 43.613281 19.9375 43.394531 20.082031 43.109375 20.128906 C 42.75 20.175781 42.414062 20.679688 41.8125 22.121094 C 41.378906 23.175781 41.066406 24.113281 41.140625 24.207031 C 41.1875 24.328125 41.667969 24.398438 42.195312 24.398438 L 43.132812 24.398438 L 43.132812 38.800781 C 43.132812 46.71875 43.058594 53.199219 42.988281 53.199219 C 42.316406 53.199219 39.628906 52.289062 38.453125 51.6875 C 36.386719 50.609375 33.003906 47.152344 31.324219 44.417969 C 27.363281 37.984375 24.460938 31 20.667969 18.664062 C 19.804688 15.832031 18.964844 13.265625 18.820312 12.953125 C 18.507812 12.257812 18.078125 12.230469 18.246094 12.929688 Z M 43.371094 22.648438 C 43.371094 23.65625 43.371094 23.679688 42.53125 23.679688 L 41.691406 23.679688 L 42.339844 22.359375 C 43.058594 20.894531 43.371094 20.992188 43.371094 22.648438 Z M 44.8125 23.488281 C 44.8125 23.992188 44.332031 24.0625 43.898438 23.632812 C 43.589844 23.320312 43.515625 21.953125 43.78125 21.664062 C 43.996094 21.472656 44.789062 22.914062 44.8125 23.488281 Z M 62.09375 33.640625 C 62.09375 33.953125 60.773438 36.398438 60.605469 36.398438 C 60.195312 36.398438 60.699219 34.601562 61.277344 33.976562 C 61.660156 33.542969 62.09375 33.375 62.09375 33.640625 Z M 59.691406 38.320312 C 59.378906 39.542969 58.589844 40.960938 58.203125 40.960938 C 57.796875 40.960938 58.179688 37.070312 58.613281 36.734375 C 58.804688 36.59375 58.972656 36.304688 58.972656 36.136719 C 58.972656 35.945312 59.164062 35.511719 59.40625 35.199219 L 59.8125 34.601562 L 59.882812 35.921875 C 59.933594 36.640625 59.835938 37.71875 59.691406 38.320312 Z M 57.554688 37.671875 C 57.246094 37.984375 57.21875 37.550781 57.484375 36.640625 L 57.652344 36.039062 L 57.722656 36.734375 C 57.773438 37.121094 57.699219 37.527344 57.554688 37.671875 Z M 55.996094 40.144531 C 55.5625 42.519531 55.492188 44.199219 55.828125 43.601562 C 55.949219 43.40625 56.164062 42.519531 56.308594 41.609375 C 56.859375 38.34375 57.53125 37.769531 57.53125 40.574219 C 57.53125 42.230469 57.484375 42.425781 56.574219 43.769531 C 56.042969 44.558594 55.179688 45.6875 54.652344 46.265625 L 53.667969 47.320312 L 53.8125 45.640625 C 54.003906 43.40625 54.386719 41.464844 54.796875 40.671875 C 54.988281 40.3125 55.132812 39.710938 55.132812 39.328125 C 55.132812 38.511719 56.164062 37 56.285156 37.648438 C 56.332031 37.863281 56.1875 38.992188 55.996094 40.144531 Z M 54.316406 39.566406 C 54.003906 40.601562 53.453125 44.199219 53.308594 46.121094 C 53.164062 47.992188 53.140625 48.0625 52.15625 49 C 51.050781 50.054688 49.492188 50.992188 49.226562 50.726562 C 48.988281 50.488281 49.828125 46.289062 50.332031 45.136719 C 50.597656 44.558594 50.8125 43.746094 50.8125 43.289062 C 50.8125 42.710938 51.003906 42.304688 51.53125 41.800781 C 51.941406 41.417969 52.253906 41.25 52.253906 41.390625 C 52.253906 41.558594 51.941406 43.144531 51.53125 44.921875 C 50.765625 48.375 50.667969 49.121094 51.050781 49.121094 C 51.292969 49.121094 51.316406 49.097656 51.890625 46.023438 C 52.109375 44.894531 52.445312 43.695312 52.613281 43.359375 C 52.804688 43 53.019531 42.136719 53.117188 41.417969 C 53.285156 40.097656 53.789062 39.039062 54.21875 39.039062 C 54.363281 39.039062 54.386719 39.28125 54.316406 39.566406 Z M 49.347656 45.929688 C 48.628906 50.511719 47.910156 52.71875 47.1875 52.71875 C 46.828125 52.71875 47.742188 46.839844 48.21875 45.902344 C 48.605469 45.160156 49.179688 44.558594 49.371094 44.679688 C 49.46875 44.726562 49.46875 45.304688 49.347656 45.929688 Z M 46.925781 49.238281 C 46.828125 49.9375 46.613281 50.824219 46.492188 51.160156 C 46.347656 51.519531 46.253906 52.046875 46.253906 52.382812 C 46.253906 52.695312 46.132812 52.960938 45.988281 52.960938 C 45.796875 52.960938 45.75 52.550781 45.84375 51.617188 C 45.988281 50.25 46.707031 47.921875 46.972656 47.921875 C 47.066406 47.921875 47.042969 48.519531 46.925781 49.238281 Z M 101.164062 51.953125 C 101.210938 52.289062 101.117188 52.480469 100.898438 52.480469 C 100.539062 52.480469 100.203125 51.664062 100.445312 51.398438 C 100.707031 51.136719 101.09375 51.449219 101.164062 51.953125 Z M 101.574219 53.199219 C 101.644531 53.34375 101.546875 53.511719 101.332031 53.585938 C 100.875 53.777344 100.613281 53.585938 100.851562 53.222656 C 101.042969 52.886719 101.378906 52.886719 101.574219 53.199219 Z M 4.011719 54.136719 C 4.421875 54.902344 4.300781 55.121094 3.4375 55.121094 C 2.378906 55.121094 2.09375 54.6875 2.8125 54.113281 C 3.484375 53.558594 3.699219 53.558594 4.011719 54.136719 Z M 1.972656 55.601562 C 2.042969 55.71875 2.019531 55.839844 1.875 55.839844 C 1.757812 55.839844 1.5625 55.71875 1.492188 55.601562 C 1.421875 55.457031 1.445312 55.359375 1.589844 55.359375 C 1.707031 55.359375 1.898438 55.457031 1.972656 55.601562 Z M 4.132812 56.082031 C 4.203125 56.199219 4.058594 56.320312 3.796875 56.320312 C 3.53125 56.320312 3.246094 56.199219 3.171875 56.082031 C 3.101562 55.9375 3.246094 55.839844 3.507812 55.839844 C 3.773438 55.839844 4.058594 55.9375 4.132812 56.082031 Z M 44.835938 77.558594 C 44.859375 78.160156 44.261719 80.824219 44.042969 80.945312 C 43.707031 81.160156 42.988281 80.390625 42.4375 79.289062 C 41.980469 78.375 41.980469 78.28125 42.339844 77.871094 C 42.890625 77.25 43.347656 77.34375 43.660156 78.089844 L 43.925781 78.761719 L 44.140625 77.96875 C 44.332031 77.25 44.789062 76.984375 44.835938 77.558594 Z M 44.835938 77.558594 "/>
<path style=" stroke:none;fill-rule:nonzero;fill:rgb(0%,0%,0%);fill-opacity:1;" d="M 47.453125 16.839844 C 47.453125 17.417969 48.21875 18.855469 48.628906 19 C 48.867188 19.097656 49.226562 18.878906 49.636719 18.398438 C 50.378906 17.511719 50.523438 17.65625 50.742188 19.359375 C 50.882812 20.535156 50.835938 20.632812 49.972656 21.519531 C 49.15625 22.359375 49.085938 22.550781 49.203125 23.34375 C 49.394531 24.496094 50.019531 25.167969 50.789062 25.070312 C 51.386719 25 51.414062 24.929688 51.53125 22.984375 C 51.628906 21.375 51.75 20.921875 52.085938 20.703125 C 53.308594 19.960938 53.332031 19.886719 52.371094 19.9375 L 51.460938 19.960938 L 51.125 18.519531 C 50.789062 17.007812 50.261719 16.214844 49.875 16.601562 C 49.757812 16.746094 49.539062 17.25 49.371094 17.726562 C 49.226562 18.230469 48.988281 18.640625 48.867188 18.640625 C 48.75 18.640625 48.4375 18.160156 48.171875 17.558594 C 47.691406 16.457031 47.453125 16.214844 47.453125 16.839844 Z M 51.050781 22.960938 C 51.050781 24.59375 50.597656 24.929688 50.019531 23.726562 C 49.660156 23.03125 49.707031 22.601562 50.285156 21.929688 C 50.882812 21.230469 51.050781 21.449219 51.050781 22.960938 Z M 51.050781 22.960938 "/>
<path style=" stroke:none;fill-rule:nonzero;fill:rgb(0%,0%,0%);fill-opacity:1;" d="M 86.574219 22 C 86.308594 22.167969 86.285156 22.359375 86.453125 22.863281 C 86.765625 23.726562 87.269531 23.894531 87.125 23.082031 C 87.027344 22.648438 87.101562 22.480469 87.386719 22.480469 C 87.964844 22.480469 88.109375 23.128906 87.699219 23.777344 C 87.484375 24.089844 87.386719 24.398438 87.460938 24.496094 C 87.722656 24.761719 90.941406 24.664062 90.773438 24.398438 C 90.699219 24.257812 90.363281 24.160156 90.027344 24.160156 C 89.117188 24.160156 88.492188 23.726562 88.492188 23.105469 C 88.492188 22.121094 87.386719 21.472656 86.574219 22 Z M 86.574219 22 "/>
<path style=" stroke:none;fill-rule:nonzero;fill:rgb(0%,0%,0%);fill-opacity:1;" d="M 97.253906 24.566406 C 96.722656 25.863281 95.933594 28.382812 95.933594 28.746094 C 95.933594 29.152344 96.003906 29.152344 97.15625 28.816406 C 98.597656 28.382812 98.667969 28.433594 98.957031 30.257812 L 99.125 31.480469 L 99.292969 30.015625 C 99.484375 28.214844 99.605469 28 100.5625 27.976562 C 101.261719 27.953125 101.261719 27.929688 100.300781 27.710938 C 99.722656 27.59375 99.21875 27.351562 99.171875 27.207031 C 98.117188 24.183594 97.660156 23.558594 97.253906 24.566406 Z M 98.1875 26.488281 C 98.523438 26.945312 98.574219 27.207031 98.40625 27.496094 C 98.117188 27.929688 96.988281 28.40625 96.75 28.167969 C 96.554688 27.976562 97.324219 25.839844 97.5625 25.839844 C 97.660156 25.839844 97.949219 26.128906 98.1875 26.488281 Z M 98.1875 26.488281 "/>
<path style=" stroke:none;fill-rule:nonzero;fill:rgb(0%,0%,0%);fill-opacity:1;" d="M 103.757812 26.367188 C 103.394531 26.847656 103.371094 26.871094 102.941406 26.488281 C 102.386719 25.984375 101.691406 25.960938 101.691406 26.417969 C 101.691406 27.089844 101.980469 27.519531 102.4375 27.519531 C 103.15625 27.519531 103.132812 28.144531 102.246094 30.472656 C 101.910156 31.382812 101.714844 32.175781 101.789062 32.25 C 101.859375 32.320312 102.292969 31.601562 102.722656 30.640625 L 103.515625 28.886719 L 104.1875 29.945312 C 104.765625 30.902344 104.8125 30.929688 104.691406 30.28125 C 104.597656 29.871094 104.378906 29.199219 104.164062 28.769531 C 103.828125 28.070312 103.828125 27.953125 104.1875 27.398438 C 104.933594 26.273438 104.523438 25.265625 103.757812 26.367188 Z M 103.757812 26.367188 "/>
<path style=" stroke:none;fill-rule:nonzero;fill:rgb(0%,0%,0%);fill-opacity:1;" d="M 84.027344 27.351562 C 83.285156 28.886719 82.277344 28.816406 82.253906 27.207031 C 82.253906 26.777344 82.132812 26.558594 81.867188 26.558594 C 81.554688 26.558594 81.507812 26.726562 81.628906 27.328125 C 81.84375 28.40625 82.445312 29.273438 82.898438 29.105469 C 83.835938 28.746094 84.363281 28.695312 84.460938 29.007812 C 84.675781 29.558594 84.195312 33.039062 83.8125 33.761719 C 83.308594 34.71875 82.707031 35.007812 81.21875 34.914062 C 80.117188 34.839844 79.925781 34.746094 79.492188 34.070312 C 78.964844 33.230469 78.652344 33.0625 78.652344 33.664062 C 78.652344 33.878906 79.035156 34.433594 79.492188 34.886719 C 80.308594 35.703125 80.40625 35.726562 81.675781 35.632812 C 83.378906 35.488281 84.195312 34.886719 84.582031 33.496094 C 84.890625 32.296875 84.988281 26.65625 84.699219 26.464844 C 84.605469 26.417969 84.292969 26.800781 84.027344 27.351562 Z M 84.027344 27.351562 "/>
<path style=" stroke:none;fill-rule:nonzero;fill:rgb(0%,0%,0%);fill-opacity:1;" d="M 88.851562 28.265625 C 88.757812 28.40625 88.730469 28.574219 88.804688 28.625 C 89.019531 28.839844 92.8125 28.433594 92.8125 28.214844 C 92.8125 27.902344 89.019531 27.953125 88.851562 28.265625 Z M 88.851562 28.265625 "/>
<path style=" stroke:none;fill-rule:nonzero;fill:rgb(0%,0%,0%);fill-opacity:1;" d="M 90.554688 29.511719 C 89.714844 29.777344 89.066406 30.398438 89.644531 30.398438 C 90.027344 30.398438 93.050781 29.441406 93.050781 29.320312 C 93.050781 29.105469 91.492188 29.222656 90.554688 29.511719 Z M 90.554688 29.511719 "/>
<path style=" stroke:none;fill-rule:nonzero;fill:rgb(0%,0%,0%);fill-opacity:1;" d="M 106.972656 50.800781 C 106.972656 51.519531 107.285156 51.761719 107.597656 51.257812 C 107.691406 51.0625 107.8125 51.089844 107.957031 51.304688 C 108.078125 51.519531 107.714844 52.433594 106.925781 53.871094 C 106.277344 55.097656 105.773438 56.175781 105.867188 56.25 C 105.941406 56.320312 106.5625 55.503906 107.238281 54.425781 L 108.484375 52.480469 L 109.324219 53.726562 C 110.355469 55.238281 110.597656 54.929688 109.757812 53.222656 C 109.058594 51.902344 108.964844 51.039062 109.445312 51.039062 C 109.636719 51.039062 109.898438 51.28125 110.042969 51.566406 C 110.285156 52.070312 110.308594 52.097656 110.308594 51.640625 C 110.355469 50.175781 109.707031 49.695312 108.820312 50.488281 C 108.386719 50.894531 108.363281 50.894531 108.148438 50.488281 C 108.003906 50.273438 107.691406 50.082031 107.453125 50.082031 C 107.066406 50.082031 106.972656 50.25 106.972656 50.800781 Z M 106.972656 50.800781 "/>
<path style=" stroke:none;fill-rule:nonzero;fill:rgb(0%,0%,0%);fill-opacity:1;" d="M 37.109375 56.105469 C 36.460938 56.753906 36.675781 56.945312 37.46875 56.441406 C 38.164062 55.984375 38.261719 56.199219 37.730469 56.894531 C 37.253906 57.542969 37.277344 59.609375 37.804688 60.640625 C 38.523438 62.128906 40.035156 61.839844 40.492188 60.113281 C 40.972656 58.382812 40.347656 56.632812 39.027344 55.9375 C 38.117188 55.480469 37.707031 55.503906 37.109375 56.105469 Z M 40.011719 57.785156 C 40.011719 57.902344 39.917969 58 39.773438 58 C 39.652344 58 39.53125 57.832031 39.53125 57.617188 C 39.53125 57.425781 39.652344 57.328125 39.773438 57.398438 C 39.917969 57.472656 40.011719 57.640625 40.011719 57.785156 Z M 39.148438 58.480469 C 39.605469 58.648438 39.773438 58.886719 39.773438 59.34375 C 39.773438 60.039062 39.171875 60.878906 38.667969 60.878906 C 38.285156 60.878906 37.78125 59.34375 37.972656 58.71875 C 38.140625 58.167969 38.285156 58.144531 39.148438 58.480469 Z M 39.148438 58.480469 "/>
</g>
</svg>
