<?xml version="1.0" encoding="UTF-8"?>
<svg xmlns="http://www.w3.org/2000/svg" xmlns:xlink="http://www.w3.org/1999/xlink" width="552pt" height="534pt" viewBox="0 0 552 534" version="1.1">
<defs>
<clipPath id="clip1">
  <path d="M 212 0.261719 L 229 0.261719 L 229 23 L 212 23 Z M 212 0.261719 "/>
</clipPath>
</defs>
<g id="surface1">
<path style="fill:none;stroke-width:29.5387;stroke-linecap:round;stroke-linejoin:round;stroke:rgb(14.109802%,13.719177%,8.616638%);stroke-opacity:1;stroke-miterlimit:4;" d="M 1975.703125 5258.867188 L 1975.703125 1288.398438 M 841.289062 3273.632812 L 4811.757812 3273.632812 M 4244.53125 5258.867188 C 4210.15625 5245.46875 4210.15625 5232.109375 4176.484375 5218.75 C 4142.8125 5205.390625 4142.8125 5191.992188 4109.804688 5178.632812 C 4076.835938 5165.273438 4076.835938 5151.914062 4044.53125 5138.554688 C 4012.226562 5125.15625 4012.226562 5111.796875 3980.664062 5098.4375 C 3949.0625 5085.078125 3949.0625 5071.679688 3918.164062 5058.320312 C 3887.226562 5044.960938 3887.226562 5031.601562 3857.03125 5018.203125 C 3826.835938 5004.84375 3826.835938 4991.484375 3797.304688 4978.125 C 3767.773438 4964.765625 3767.773438 4951.367188 3738.984375 4938.007812 C 3710.15625 4924.648438 3710.15625 4911.289062 3682.03125 4897.890625 C 3653.90625 4884.53125 3653.90625 4871.171875 3626.484375 4857.8125 C 3599.023438 4844.414062 3599.023438 4831.054688 3572.304688 4817.695312 C 3545.546875 4804.335938 3545.546875 4790.9375 3519.53125 4777.578125 C 3493.476562 4764.21875 3493.476562 4750.859375 3468.125 4737.5 C 3442.773438 4724.101562 3442.773438 4710.742188 3418.125 4697.382812 C 3393.476562 4684.023438 3393.476562 4670.625 3369.53125 4657.265625 C 3345.546875 4643.90625 3345.546875 4630.546875 3322.304688 4617.148438 C 3299.023438 4603.789062 3299.023438 4590.429688 3276.445312 4577.070312 C 3253.867188 4563.671875 3253.867188 4550.3125 3231.992188 4536.953125 C 3210.117188 4523.59375 3210.117188 4510.234375 3188.945312 4496.835938 C 3167.773438 4483.476562 3167.773438 4470.117188 3147.265625 4456.757812 C 3126.796875 4443.359375 3126.796875 4430 3106.992188 4416.640625 C 3087.226562 4403.28125 3087.226562 4389.882812 3068.125 4376.523438 C 3049.023438 4363.164062 3049.023438 4349.804688 3030.625 4336.40625 C 3012.226562 4323.046875 3012.226562 4309.6875 2994.492188 4296.328125 C 2976.796875 4282.96875 2976.796875 4269.570312 2959.765625 4256.210938 C 2942.773438 4242.851562 2942.773438 4229.492188 2926.445312 4216.09375 C 2910.117188 4202.734375 2910.117188 4189.375 2894.492188 4176.015625 C 2878.867188 4162.617188 2878.867188 4149.257812 2863.945312 4135.898438 C 2849.023438 4122.539062 2849.023438 4109.140625 2834.765625 4095.78125 C 2820.546875 4082.421875 2820.546875 4069.0625 2806.992188 4055.703125 C 2793.4375 4042.304688 2793.4375 4028.945312 2780.585938 4015.585938 C 2767.773438 4002.226562 2767.773438 3988.828125 2755.585938 3975.46875 C 2743.4375 3962.109375 2743.4375 3948.75 2731.992188 3935.351562 C 2720.546875 3921.992188 2720.546875 3908.632812 2709.765625 3895.273438 C 2698.984375 3881.875 2698.984375 3868.515625 2688.945312 3855.15625 C 2678.867188 3841.796875 2678.867188 3828.4375 2669.492188 3815.039062 C 2660.117188 3801.679688 2660.117188 3788.320312 2651.445312 3774.960938 C 2642.734375 3761.5625 2642.734375 3748.203125 2634.765625 3734.84375 C 2626.757812 3721.484375 2626.757812 3708.085938 2619.492188 3694.726562 C 2612.1875 3681.367188 2612.1875 3668.007812 2605.585938 3654.609375 C 2598.984375 3641.25 2598.984375 3627.890625 2593.085938 3614.53125 C 2587.1875 3601.171875 2587.1875 3587.773438 2581.992188 3574.414062 C 2576.757812 3561.054688 2576.757812 3547.695312 2572.265625 3534.296875 C 2567.734375 3520.9375 2567.734375 3507.578125 2563.945312 3494.21875 C 2560.117188 3480.820312 2560.117188 3467.460938 2556.992188 3454.101562 C 2553.867188 3440.742188 2553.867188 3427.34375 2551.445312 3413.984375 C 2548.984375 3400.625 2548.984375 3387.265625 2547.265625 3373.90625 C 2545.507812 3360.507812 2545.507812 3347.148438 2544.492188 3333.789062 C 2543.4375 3320.429688 2543.4375 3307.03125 2543.085938 3293.671875 C 2542.734375 3280.3125 2542.734375 3266.953125 2543.085938 3253.554688 C 2543.4375 3240.195312 2543.4375 3226.835938 2544.492188 3213.476562 C 2545.507812 3200.078125 2545.507812 3186.71875 2547.265625 3173.359375 C 2548.984375 3160 2548.984375 3146.640625 2551.445312 3133.242188 C 2553.867188 3119.882812 2553.867188 3106.523438 2556.992188 3093.164062 C 2560.117188 3079.765625 2560.117188 3066.40625 2563.945312 3053.046875 C 2567.734375 3039.6875 2567.734375 3026.289062 2572.265625 3012.929688 C 2576.757812 2999.570312 2576.757812 2986.210938 2581.992188 2972.8125 C 2587.1875 2959.453125 2587.1875 2946.09375 2593.085938 2932.734375 C 2598.984375 2919.375 2598.984375 2905.976562 2605.585938 2892.617188 C 2612.1875 2879.257812 2612.1875 2865.898438 2619.492188 2852.5 C 2626.757812 2839.140625 2626.757812 2825.78125 2634.765625 2812.421875 C 2642.734375 2799.023438 2642.734375 2785.664062 2651.445312 2772.304688 C 2660.117188 2758.945312 2660.117188 2745.546875 2669.492188 2732.1875 C 2678.867188 2718.828125 2678.867188 2705.46875 2688.945312 2692.109375 C 2698.984375 2678.710938 2698.984375 2665.351562 2709.765625 2651.992188 C 2720.546875 2638.632812 2720.546875 2625.234375 2731.992188 2611.875 C 2743.4375 2598.515625 2743.4375 2585.15625 2755.585938 2571.757812 C 2767.773438 2558.398438 2767.773438 2545.039062 2780.585938 2531.679688 C 2793.4375 2518.28125 2793.4375 2504.921875 2806.992188 2491.5625 C 2820.546875 2478.203125 2820.546875 2464.84375 2834.765625 2451.445312 C 2849.023438 2438.085938 2849.023438 2424.726562 2863.945312 2411.367188 C 2878.867188 2397.96875 2878.867188 2384.609375 2894.492188 2371.25 C 2910.117188 2357.890625 2910.117188 2344.492188 2926.445312 2331.132812 C 2942.773438 2317.773438 2942.773438 2304.414062 2959.765625 2291.015625 C 2976.796875 2277.65625 2976.796875 2264.296875 2994.492188 2250.9375 C 3012.226562 2237.578125 3012.226562 2224.179688 3030.625 2210.820312 C 3049.023438 2197.460938 3049.023438 2184.101562 3068.125 2170.703125 C 3087.226562 2157.34375 3087.226562 2143.984375 3106.992188 2130.625 C 3126.796875 2117.226562 3126.796875 2103.867188 3147.265625 2090.507812 C 3167.773438 2077.148438 3167.773438 2063.75 3188.945312 2050.390625 C 3210.117188 2037.03125 3210.117188 2023.671875 3231.992188 2010.3125 C 3253.867188 1996.914062 3253.867188 1983.554688 3276.445312 1970.195312 C 3299.023438 1956.835938 3299.023438 1943.4375 3322.304688 1930.078125 C 3345.546875 1916.71875 3345.546875 1903.359375 3369.53125 1889.960938 C 3393.476562 1876.601562 3393.476562 1863.242188 3418.125 1849.882812 C 3442.773438 1836.523438 3442.773438 1823.125 3468.125 1809.765625 C 3493.476562 1796.40625 3493.476562 1783.046875 3519.53125 1769.648438 C 3545.546875 1756.289062 3545.546875 1742.929688 3572.304688 1729.570312 C 3599.023438 1716.171875 3599.023438 1702.8125 3626.484375 1689.453125 C 3653.90625 1676.09375 3653.90625 1662.695312 3682.03125 1649.335938 C 3710.15625 1635.976562 3710.15625 1622.617188 3738.984375 1609.257812 C 3767.773438 1595.859375 3767.773438 1582.5 3797.304688 1569.140625 C 3826.835938 1555.78125 3826.835938 1542.382812 3857.03125 1529.023438 C 3887.226562 1515.664062 3887.226562 1502.304688 3918.164062 1488.90625 C 3949.0625 1475.546875 3949.0625 1462.1875 3980.664062 1448.828125 C 4012.226562 1435.429688 4012.226562 1422.070312 4044.53125 1408.710938 C 4076.835938 1395.351562 4076.835938 1381.992188 4109.804688 1368.59375 C 4142.8125 1355.234375 4142.8125 1341.875 4176.484375 1328.515625 C 4210.15625 1315.117188 4210.15625 1301.757812 4244.53125 1288.398438 " transform="matrix(0.1,0,0,-0.1,0,534)"/>
<path style=" stroke:none;fill-rule:nonzero;fill:rgb(0%,0%,0%);fill-opacity:1;" d="M 503.175781 198.601562 L 503.199219 198.5 L 503.234375 198.378906 L 503.265625 198.25 L 503.296875 198.101562 L 503.347656 197.949219 L 503.394531 197.78125 L 503.441406 197.605469 L 503.5 197.425781 L 503.5625 197.242188 L 503.636719 197.046875 L 503.714844 196.847656 L 503.796875 196.652344 L 503.886719 196.449219 L 503.984375 196.25 L 504.085938 196.046875 L 504.199219 195.847656 L 504.320312 195.652344 L 504.441406 195.460938 L 504.578125 195.273438 L 504.722656 195.097656 L 504.871094 194.917969 L 505.03125 194.757812 L 505.199219 194.605469 L 505.378906 194.460938 L 505.5625 194.332031 L 505.765625 194.21875 L 505.859375 194.160156 L 505.964844 194.113281 L 506.078125 194.074219 L 506.183594 194.03125 L 506.296875 193.992188 L 506.410156 193.960938 L 506.53125 193.9375 L 506.652344 193.910156 L 506.773438 193.894531 L 506.902344 193.878906 L 507.03125 193.871094 L 507.160156 193.871094 C 507.359375 193.871094 508.320312 193.871094 509.15625 194.386719 C 508.039062 194.589844 507.230469 195.597656 507.230469 196.554688 C 507.230469 197.191406 507.675781 197.964844 508.753906 197.964844 C 509.640625 197.964844 510.921875 197.25 510.921875 195.636719 C 510.921875 193.539062 508.554688 192.992188 507.191406 192.992188 C 504.863281 192.992188 503.449219 195.121094 502.976562 196.039062 C 501.96875 193.394531 499.800781 192.992188 498.644531 192.992188 C 494.460938 192.992188 492.164062 198.167969 492.164062 199.175781 C 492.164062 199.578125 492.566406 199.578125 492.65625 199.578125 C 492.972656 199.578125 493.101562 199.488281 493.171875 199.136719 C 494.535156 194.878906 497.195312 193.871094 498.558594 193.871094 C 499.324219 193.871094 500.71875 194.226562 500.71875 196.554688 C 500.71875 197.796875 500.039062 200.496094 498.558594 206.117188 C 497.914062 208.605469 496.511719 210.292969 494.738281 210.292969 C 494.496094 210.292969 493.574219 210.292969 492.738281 209.769531 C 493.746094 209.574219 494.625 208.734375 494.625 207.597656 C 494.625 206.519531 493.746094 206.203125 493.140625 206.203125 C 491.929688 206.203125 490.921875 207.246094 490.921875 208.535156 C 490.921875 210.371094 492.9375 211.179688 494.695312 211.179688 C 497.355469 211.179688 498.792969 208.367188 498.921875 208.132812 C 499.394531 209.613281 500.847656 211.179688 503.25 211.179688 C 507.394531 211.179688 509.691406 206.003906 509.691406 204.996094 C 509.691406 204.59375 509.328125 204.59375 509.199219 204.59375 C 508.84375 204.59375 508.753906 204.753906 508.683594 205.027344 C 507.359375 209.324219 504.628906 210.292969 503.339844 210.292969 C 501.765625 210.292969 501.121094 209.011719 501.121094 207.640625 C 501.121094 206.753906 501.363281 205.875 501.8125 204.109375 Z M 503.175781 198.601562 "/>
<g clip-path="url(#clip1)" clip-rule="nonzero">
<path style=" stroke:none;fill-rule:nonzero;fill:rgb(0%,0%,0%);fill-opacity:1;" d="M 228.226562 2.398438 L 228.230469 2.371094 L 228.238281 2.351562 L 228.246094 2.308594 L 228.257812 2.273438 L 228.265625 2.234375 L 228.273438 2.199219 L 228.289062 2.171875 L 228.292969 2.136719 L 228.300781 2.109375 L 228.308594 2.078125 L 228.308594 2.050781 L 228.324219 1.996094 L 228.328125 1.976562 L 228.328125 1.953125 L 228.335938 1.933594 L 228.335938 1.914062 L 228.34375 1.890625 L 228.34375 1.871094 L 228.351562 1.835938 L 228.351562 1.722656 L 228.355469 1.691406 L 228.355469 1.605469 C 228.355469 0.972656 227.875 0.664062 227.355469 0.664062 C 227.003906 0.664062 226.449219 0.875 226.136719 1.398438 C 226.066406 1.570312 225.785156 2.636719 225.65625 3.269531 C 225.402344 4.167969 225.167969 5.109375 224.957031 6.042969 L 223.390625 12.292969 C 223.257812 12.8125 221.769531 15.238281 219.476562 15.238281 C 217.707031 15.238281 217.316406 13.71875 217.316406 12.429688 C 217.316406 10.835938 217.914062 8.675781 219.09375 5.632812 C 219.648438 4.203125 219.789062 3.820312 219.789062 3.125 C 219.789062 1.570312 218.683594 0.289062 216.941406 0.289062 C 213.640625 0.289062 212.355469 5.3125 212.355469 5.632812 C 212.355469 5.980469 212.707031 5.980469 212.78125 5.980469 C 213.128906 5.980469 213.15625 5.902344 213.332031 5.347656 C 214.273438 2.078125 215.652344 1.050781 216.835938 1.050781 C 217.113281 1.050781 217.707031 1.050781 217.707031 2.15625 C 217.707031 3.027344 217.359375 3.917969 217.113281 4.585938 C 215.726562 8.265625 215.09375 10.242188 215.09375 11.878906 C 215.09375 14.960938 217.289062 16.003906 219.328125 16.003906 C 220.695312 16.003906 221.863281 15.410156 222.832031 14.445312 C 222.386719 16.242188 221.976562 17.949219 220.582031 19.792969 C 219.679688 20.964844 218.363281 21.980469 216.765625 21.980469 C 216.285156 21.980469 214.71875 21.867188 214.125 20.519531 C 214.683594 20.519531 215.144531 20.519531 215.617188 20.09375 C 215.964844 19.792969 216.3125 19.332031 216.3125 18.679688 C 216.3125 17.597656 215.378906 17.460938 215.03125 17.460938 C 214.238281 17.460938 213.082031 18.015625 213.082031 19.714844 C 213.082031 21.457031 214.621094 22.738281 216.765625 22.738281 C 220.347656 22.738281 223.914062 19.570312 224.894531 15.65625 Z M 228.226562 2.398438 "/>
</g>
<path style=" stroke:none;fill-rule:nonzero;fill:rgb(0%,0%,0%);fill-opacity:1;" d="M 185.34375 230.667969 L 185.335938 230.148438 L 185.300781 229.640625 L 185.25 229.144531 L 185.175781 228.660156 L 185.085938 228.183594 L 184.972656 227.722656 L 184.839844 227.277344 L 184.6875 226.847656 L 184.519531 226.429688 L 184.332031 226.015625 L 184.128906 225.625 L 183.90625 225.25 L 183.667969 224.886719 L 183.410156 224.539062 L 183.144531 224.210938 L 182.855469 223.898438 L 182.554688 223.597656 L 182.238281 223.3125 L 181.90625 223.046875 L 181.5625 222.804688 L 181.203125 222.574219 L 180.832031 222.363281 L 180.449219 222.167969 L 180.050781 221.996094 L 179.640625 221.839844 L 179.222656 221.703125 L 178.789062 221.589844 L 178.351562 221.492188 L 177.898438 221.421875 L 177.429688 221.367188 L 176.964844 221.332031 L 176.484375 221.324219 L 176.273438 222.195312 C 179.125 222.195312 182.253906 224.132812 182.253906 229.308594 C 182.253906 231.808594 181.3125 237.226562 177.875 241.503906 C 176.210938 243.617188 173.351562 245.667969 170.445312 245.667969 C 167.003906 245.667969 164.578125 242.859375 164.578125 238.269531 C 164.578125 236.746094 165.058594 231.667969 167.734375 227.605469 C 170.132812 224.003906 173.527344 222.195312 176.273438 222.195312 L 176.484375 221.324219 C 168.988281 221.324219 161.34375 229.210938 161.34375 237.300781 C 161.34375 243.058594 165.230469 246.566406 170.238281 246.566406 C 177.589844 246.566406 185.34375 238.96875 185.34375 230.667969 Z M 185.34375 230.667969 "/>
<path style=" stroke:none;fill-rule:nonzero;fill:rgb(0%,0%,0%);fill-opacity:1;" d="M 17.769531 471 C 17.953125 470.453125 17.953125 470.390625 17.953125 470.085938 C 17.953125 469.414062 17.40625 469.046875 16.792969 469.046875 C 16.429688 469.046875 15.816406 469.292969 15.449219 469.839844 C 15.390625 470.085938 15.023438 471.246094 14.902344 471.980469 C 14.59375 472.957031 14.351562 474.054688 14.105469 475.09375 L 12.335938 482.117188 C 12.214844 482.664062 10.503906 485.414062 7.9375 485.414062 C 5.984375 485.414062 5.558594 483.703125 5.558594 482.238281 C 5.558594 480.46875 6.230469 478.023438 7.511719 474.605469 C 8.121094 473.015625 8.304688 472.589844 8.304688 471.796875 C 8.304688 470.085938 7.085938 468.621094 5.128906 468.621094 C 1.40625 468.621094 0 474.300781 0 474.605469 C 0 475.03125 0.367188 475.03125 0.425781 475.03125 C 0.855469 475.03125 0.855469 474.910156 1.039062 474.300781 C 2.136719 470.636719 3.664062 469.476562 5.007812 469.476562 C 5.3125 469.476562 5.984375 469.476562 5.984375 470.695312 C 5.984375 471.671875 5.558594 472.710938 5.3125 473.445312 C 3.726562 477.597656 3.054688 479.796875 3.054688 481.628906 C 3.054688 485.109375 5.496094 486.269531 7.816406 486.269531 C 9.34375 486.269531 10.625 485.597656 11.726562 484.496094 C 11.238281 486.511719 10.75 488.46875 9.222656 490.542969 C 8.183594 491.828125 6.71875 492.988281 4.945312 492.988281 C 4.398438 492.988281 2.625 492.863281 1.953125 491.335938 C 2.566406 491.335938 3.113281 491.335938 3.601562 490.847656 C 4.03125 490.542969 4.398438 489.996094 4.398438 489.261719 C 4.398438 488.039062 3.359375 487.917969 2.992188 487.917969 C 2.078125 487.917969 0.792969 488.527344 0.792969 490.421875 C 0.792969 492.375 2.503906 493.839844 4.945312 493.839844 C 8.917969 493.839844 12.945312 490.300781 14.046875 485.902344 Z M 17.769531 471 "/>
<path style=" stroke:none;fill-rule:nonzero;fill:rgb(0%,0%,0%);fill-opacity:1;" d="M 59.234375 473.078125 C 59.847656 473.078125 60.578125 473.078125 60.578125 472.34375 C 60.578125 471.550781 59.847656 471.550781 59.296875 471.550781 L 35.96875 471.550781 C 35.417969 471.550781 34.6875 471.550781 34.6875 472.34375 C 34.6875 473.078125 35.417969 473.078125 35.96875 473.078125 Z M 59.296875 480.652344 C 59.847656 480.652344 60.578125 480.652344 60.578125 479.855469 C 60.578125 479.125 59.847656 479.125 59.234375 479.125 L 35.96875 479.125 C 35.417969 479.125 34.6875 479.125 34.6875 479.855469 C 34.6875 480.652344 35.417969 480.652344 35.96875 480.652344 Z M 59.296875 480.652344 "/>
<path style=" stroke:none;fill-rule:nonzero;fill:rgb(0%,0%,0%);fill-opacity:1;" d="M 91.074219 488.535156 L 84.234375 473.390625 C 83.929688 472.78125 83.746094 472.78125 83.625 472.78125 C 83.625 472.78125 83.378906 472.78125 82.953125 473.085938 L 79.289062 475.894531 C 78.800781 476.328125 78.800781 476.382812 78.800781 476.507812 C 78.800781 476.75 78.863281 476.933594 79.167969 476.933594 C 79.410156 476.933594 80.082031 476.382812 80.511719 476.078125 C 80.695312 475.894531 81.304688 475.46875 81.730469 475.164062 L 89.425781 492.019531 C 89.671875 492.628906 89.855469 492.628906 90.21875 492.628906 C 90.832031 492.628906 90.953125 492.445312 91.199219 491.894531 L 108.90625 455.253906 C 109.152344 454.703125 109.152344 454.582031 109.152344 454.460938 C 109.152344 454.09375 108.847656 453.667969 108.359375 453.667969 C 108.054688 453.667969 107.808594 453.910156 107.503906 454.519531 Z M 91.074219 488.535156 "/>
<path style="fill:none;stroke-width:39.0847;stroke-linecap:butt;stroke-linejoin:miter;stroke:rgb(0%,0%,0%);stroke-opacity:1;stroke-miterlimit:10;" d="M 1097.070312 790.46875 L 2152.34375 790.46875 " transform="matrix(0.1,0,0,-0.1,0,534)"/>
<path style=" stroke:none;fill-rule:nonzero;fill:rgb(0%,0%,0%);fill-opacity:1;" d="M 119.679688 472.101562 C 122.855469 471.0625 125.117188 468.375 125.117188 465.261719 C 125.117188 462.085938 121.695312 459.886719 117.96875 459.886719 C 114.0625 459.886719 111.070312 462.207031 111.070312 465.203125 C 111.070312 466.484375 111.925781 467.214844 113.085938 467.214844 C 114.246094 467.214844 115.039062 466.359375 115.039062 465.203125 C 115.039062 463.308594 113.207031 463.308594 112.65625 463.308594 C 113.816406 461.351562 116.382812 460.863281 117.785156 460.863281 C 119.4375 460.863281 121.574219 461.71875 121.574219 465.203125 C 121.574219 465.6875 121.453125 467.953125 120.472656 469.65625 C 119.3125 471.550781 117.96875 471.671875 116.992188 471.671875 C 116.6875 471.734375 115.773438 471.796875 115.464844 471.796875 C 115.160156 471.855469 114.917969 471.917969 114.917969 472.285156 C 114.917969 472.710938 115.160156 472.710938 115.832031 472.710938 L 117.542969 472.710938 C 120.71875 472.710938 122.183594 475.335938 122.183594 479.183594 C 122.183594 484.496094 119.496094 485.597656 117.785156 485.597656 C 116.078125 485.597656 113.144531 484.925781 111.800781 482.664062 C 113.144531 482.847656 114.367188 481.996094 114.367188 480.527344 C 114.367188 479.125 113.328125 478.328125 112.230469 478.328125 C 111.253906 478.328125 110.03125 478.878906 110.03125 480.589844 C 110.03125 484.132812 113.632812 486.695312 117.910156 486.695312 C 122.671875 486.695312 126.214844 483.15625 126.214844 479.183594 C 126.214844 476.007812 123.710938 472.957031 119.679688 472.101562 Z M 119.679688 472.101562 "/>
<path style=" stroke:none;fill-rule:nonzero;fill:rgb(0%,0%,0%);fill-opacity:1;" d="M 140.859375 474.054688 C 141.101562 473.078125 142.019531 469.476562 144.707031 469.476562 C 144.890625 469.476562 145.867188 469.476562 146.660156 469.964844 C 145.5625 470.207031 144.828125 471.125 144.828125 472.101562 C 144.828125 472.710938 145.253906 473.445312 146.292969 473.445312 C 147.148438 473.445312 148.371094 472.773438 148.371094 471.183594 C 148.371094 469.167969 146.109375 468.621094 144.765625 468.621094 C 142.507812 468.621094 141.164062 470.695312 140.675781 471.550781 C 139.699219 468.984375 137.621094 468.621094 136.460938 468.621094 C 132.429688 468.621094 130.171875 473.628906 130.171875 474.605469 C 130.171875 475.03125 130.597656 475.03125 130.660156 475.03125 C 130.964844 475.03125 131.085938 474.910156 131.148438 474.605469 C 132.492188 470.453125 135.054688 469.476562 136.398438 469.476562 C 137.132812 469.476562 138.476562 469.839844 138.476562 472.101562 C 138.476562 473.320312 137.804688 475.886719 136.398438 481.382812 C 135.789062 483.765625 134.386719 485.414062 132.675781 485.414062 C 132.429688 485.414062 131.574219 485.414062 130.71875 484.925781 C 131.699219 484.679688 132.554688 483.886719 132.554688 482.789062 C 132.554688 481.75 131.699219 481.445312 131.148438 481.445312 C 129.925781 481.445312 129.011719 482.421875 129.011719 483.703125 C 129.011719 485.476562 130.902344 486.269531 132.613281 486.269531 C 135.238281 486.269531 136.644531 483.519531 136.707031 483.335938 C 137.195312 484.742188 138.597656 486.269531 140.917969 486.269531 C 144.949219 486.269531 147.148438 481.261719 147.148438 480.285156 C 147.148438 479.855469 146.84375 479.855469 146.722656 479.855469 C 146.355469 479.855469 146.292969 480.039062 146.171875 480.285156 C 144.890625 484.496094 142.261719 485.414062 141.042969 485.414062 C 139.515625 485.414062 138.902344 484.191406 138.902344 482.847656 C 138.902344 481.996094 139.085938 481.140625 139.515625 479.429688 Z M 140.859375 474.054688 "/>
<path style=" stroke:none;fill-rule:nonzero;fill:rgb(0%,0%,0%);fill-opacity:1;" d="M 184.40625 476.863281 C 185.078125 476.863281 185.8125 476.863281 185.8125 476.070312 C 185.8125 475.335938 185.078125 475.335938 184.40625 475.335938 L 163.339844 475.335938 C 162.667969 475.335938 161.996094 475.335938 161.996094 476.070312 C 161.996094 476.863281 162.667969 476.863281 163.339844 476.863281 Z M 184.40625 476.863281 "/>
<path style=" stroke:none;fill-rule:nonzero;fill:rgb(0%,0%,0%);fill-opacity:1;" d="M 202.640625 482.847656 L 206.792969 478.820312 C 212.839844 473.445312 215.160156 471.367188 215.160156 467.460938 C 215.160156 463 211.679688 459.886719 206.917969 459.886719 C 202.519531 459.886719 199.648438 463.488281 199.648438 466.972656 C 199.648438 469.109375 201.601562 469.109375 201.726562 469.109375 C 202.398438 469.109375 203.742188 468.679688 203.742188 467.03125 C 203.742188 466.054688 203.007812 465.015625 201.664062 465.015625 C 201.359375 465.015625 201.296875 465.015625 201.175781 465.078125 C 202.03125 462.511719 204.167969 461.109375 206.425781 461.109375 C 209.96875 461.109375 211.617188 464.285156 211.617188 467.460938 C 211.617188 470.578125 209.726562 473.628906 207.527344 476.070312 L 200.078125 484.375 C 199.648438 484.804688 199.648438 484.925781 199.648438 485.839844 L 214.121094 485.839844 L 215.160156 479.0625 L 214.246094 479.0625 C 214 480.222656 213.757812 481.933594 213.328125 482.542969 C 213.085938 482.847656 210.519531 482.847656 209.664062 482.847656 Z M 202.640625 482.847656 "/>
<path style=" stroke:none;fill-rule:nonzero;fill:rgb(0%,0%,0%);fill-opacity:1;" d="M 237.902344 459.335938 L 234.421875 459.335938 L 234.421875 462.816406 L 237.902344 462.816406 Z M 237.65625 468.558594 L 234.726562 468.558594 L 234.726562 485.839844 L 237.65625 485.839844 Z M 237.65625 468.558594 "/>
<path style=" stroke:none;fill-rule:nonzero;fill:rgb(0%,0%,0%);fill-opacity:1;" d="M 254.226562 469.109375 C 252.210938 468.191406 250.625 467.886719 248.609375 467.886719 C 247.632812 467.886719 242.136719 467.886719 242.136719 472.957031 C 242.136719 474.910156 243.296875 476.132812 244.273438 476.863281 C 245.433594 477.71875 246.289062 477.902344 248.425781 478.328125 C 249.828125 478.578125 252.089844 479.0625 252.089844 481.140625 C 252.089844 483.828125 249.035156 483.828125 248.425781 483.828125 C 245.308594 483.828125 243.113281 482.359375 242.441406 481.933594 L 241.953125 484.558594 C 243.171875 485.167969 245.308594 486.269531 248.484375 486.269531 C 249.21875 486.269531 251.355469 486.269531 253.003906 485.046875 C 254.226562 484.070312 254.898438 482.542969 254.898438 480.832031 C 254.898438 478.695312 253.433594 477.414062 253.371094 477.292969 C 251.84375 475.886719 250.808594 475.644531 248.851562 475.335938 C 246.714844 474.910156 244.882812 474.484375 244.882812 472.589844 C 244.882812 470.207031 247.691406 470.207031 248.242188 470.207031 C 249.464844 470.207031 251.539062 470.328125 253.738281 471.671875 Z M 254.226562 469.109375 "/>
<path style=" stroke:none;fill-rule:nonzero;fill:rgb(0%,0%,0%);fill-opacity:1;" d="M 285.71875 474.605469 C 285.71875 470.636719 282.847656 467.886719 279.246094 467.886719 C 276.742188 467.886719 274.96875 468.496094 273.136719 469.535156 L 273.382812 472.101562 C 275.398438 470.695312 277.351562 470.207031 279.246094 470.207031 C 281.078125 470.207031 282.664062 471.734375 282.664062 474.605469 L 282.664062 476.316406 C 276.800781 476.375 271.855469 478.023438 271.855469 481.445312 C 271.855469 483.09375 272.894531 486.269531 276.3125 486.269531 C 276.863281 486.269531 280.527344 486.207031 282.789062 484.4375 L 282.789062 485.839844 L 285.71875 485.839844 Z M 282.664062 480.710938 C 282.664062 481.445312 282.664062 482.421875 281.320312 483.15625 C 280.222656 483.828125 278.695312 483.886719 278.269531 483.886719 C 276.4375 483.886719 274.664062 482.972656 274.664062 481.382812 C 274.664062 478.636719 280.953125 478.390625 282.664062 478.269531 Z M 282.664062 480.710938 "/>
<path style=" stroke:none;fill-rule:nonzero;fill:rgb(0%,0%,0%);fill-opacity:1;" d="M 309.496094 484.070312 C 310.71875 485.167969 312.425781 486.269531 314.746094 486.269531 C 318.535156 486.269531 321.953125 482.421875 321.953125 477.167969 C 321.953125 472.46875 319.511719 468.132812 315.785156 468.132812 C 313.464844 468.132812 311.207031 468.925781 309.375 470.453125 L 309.375 468.558594 L 306.441406 468.558594 L 306.441406 493.414062 L 309.496094 493.414062 Z M 309.496094 472.894531 C 310.410156 471.488281 311.9375 470.636719 313.648438 470.636719 C 316.578125 470.636719 318.902344 473.566406 318.902344 477.167969 C 318.902344 481.140625 316.152344 483.886719 313.222656 483.886719 C 311.695312 483.886719 310.65625 483.09375 309.863281 482.054688 C 309.496094 481.503906 309.496094 481.382812 309.496094 480.710938 Z M 309.496094 472.894531 "/>
<path style=" stroke:none;fill-rule:nonzero;fill:rgb(0%,0%,0%);fill-opacity:1;" d="M 338.960938 474.605469 C 338.960938 470.636719 336.089844 467.886719 332.484375 467.886719 C 329.980469 467.886719 328.210938 468.496094 326.378906 469.535156 L 326.625 472.101562 C 328.636719 470.695312 330.59375 470.207031 332.484375 470.207031 C 334.316406 470.207031 335.90625 471.734375 335.90625 474.605469 L 335.90625 476.316406 C 330.042969 476.375 325.097656 478.023438 325.097656 481.445312 C 325.097656 483.09375 326.132812 486.269531 329.554688 486.269531 C 330.105469 486.269531 333.769531 486.207031 336.027344 484.4375 L 336.027344 485.839844 L 338.960938 485.839844 Z M 335.90625 480.710938 C 335.90625 481.445312 335.90625 482.421875 334.5625 483.15625 C 333.464844 483.828125 331.9375 483.886719 331.507812 483.886719 C 329.675781 483.886719 327.90625 482.972656 327.90625 481.382812 C 327.90625 478.636719 334.195312 478.390625 335.90625 478.269531 Z M 335.90625 480.710938 "/>
<path style=" stroke:none;fill-rule:nonzero;fill:rgb(0%,0%,0%);fill-opacity:1;" d="M 347.117188 477.476562 C 347.117188 473.628906 349.925781 470.820312 353.773438 470.695312 L 353.773438 468.132812 C 350.292969 468.132812 348.15625 470.085938 346.933594 471.855469 L 346.933594 468.316406 L 344.1875 468.316406 L 344.1875 485.839844 L 347.117188 485.839844 Z M 347.117188 477.476562 "/>
<path style=" stroke:none;fill-rule:nonzero;fill:rgb(0%,0%,0%);fill-opacity:1;" d="M 369.886719 474.605469 C 369.886719 470.636719 367.019531 467.886719 363.414062 467.886719 C 360.910156 467.886719 359.140625 468.496094 357.308594 469.535156 L 357.550781 472.101562 C 359.566406 470.695312 361.519531 470.207031 363.414062 470.207031 C 365.246094 470.207031 366.835938 471.734375 366.835938 474.605469 L 366.835938 476.316406 C 360.972656 476.375 356.023438 478.023438 356.023438 481.445312 C 356.023438 483.09375 357.0625 486.269531 360.484375 486.269531 C 361.03125 486.269531 364.695312 486.207031 366.957031 484.4375 L 366.957031 485.839844 L 369.886719 485.839844 Z M 366.835938 480.710938 C 366.835938 481.445312 366.835938 482.421875 365.492188 483.15625 C 364.390625 483.828125 362.863281 483.886719 362.4375 483.886719 C 360.605469 483.886719 358.835938 482.972656 358.835938 481.382812 C 358.835938 478.636719 365.125 478.390625 366.835938 478.269531 Z M 366.835938 480.710938 "/>
<path style=" stroke:none;fill-rule:nonzero;fill:rgb(0%,0%,0%);fill-opacity:1;" d="M 379.136719 458.789062 L 376.203125 458.789062 L 376.203125 485.839844 L 379.257812 485.839844 L 379.257812 484.070312 C 380.175781 484.925781 381.882812 486.269531 384.511719 486.269531 C 388.359375 486.269531 391.714844 482.359375 391.714844 477.167969 C 391.714844 472.34375 389.089844 468.132812 385.425781 468.132812 C 383.898438 468.132812 381.457031 468.496094 379.136719 470.390625 Z M 379.257812 472.773438 C 379.867188 471.855469 381.273438 470.511719 383.410156 470.511719 C 385.730469 470.511719 388.664062 472.160156 388.664062 477.167969 C 388.664062 482.238281 385.425781 483.886719 383.042969 483.886719 C 381.519531 483.886719 380.234375 483.214844 379.257812 481.382812 Z M 379.257812 472.773438 "/>
<path style=" stroke:none;fill-rule:nonzero;fill:rgb(0%,0%,0%);fill-opacity:1;" d="M 412.5 477.292969 C 412.5 472.039062 408.589844 467.886719 404.011719 467.886719 C 399.183594 467.886719 395.398438 472.160156 395.398438 477.292969 C 395.398438 482.421875 399.367188 486.269531 403.949219 486.269531 C 408.589844 486.269531 412.5 482.359375 412.5 477.292969 Z M 403.949219 483.765625 C 401.261719 483.765625 398.453125 481.566406 398.453125 476.863281 C 398.453125 472.160156 401.382812 470.269531 403.949219 470.269531 C 406.695312 470.269531 409.445312 472.285156 409.445312 476.863281 C 409.445312 481.503906 406.820312 483.765625 403.949219 483.765625 Z M 403.949219 483.765625 "/>
<path style=" stroke:none;fill-rule:nonzero;fill:rgb(0%,0%,0%);fill-opacity:1;" d="M 416.882812 485.839844 L 419.816406 485.839844 L 419.816406 458.789062 L 416.882812 458.789062 Z M 416.882812 485.839844 "/>
<path style=" stroke:none;fill-rule:nonzero;fill:rgb(0%,0%,0%);fill-opacity:1;" d="M 438.582031 474.605469 C 438.582031 470.636719 435.714844 467.886719 432.109375 467.886719 C 429.605469 467.886719 427.835938 468.496094 426.003906 469.535156 L 426.246094 472.101562 C 428.261719 470.695312 430.214844 470.207031 432.109375 470.207031 C 433.941406 470.207031 435.53125 471.734375 435.53125 474.605469 L 435.53125 476.316406 C 429.667969 476.375 424.71875 478.023438 424.71875 481.445312 C 424.71875 483.09375 425.757812 486.269531 429.179688 486.269531 C 429.726562 486.269531 433.390625 486.207031 435.652344 484.4375 L 435.652344 485.839844 L 438.582031 485.839844 Z M 435.53125 480.710938 C 435.53125 481.445312 435.53125 482.421875 434.1875 483.15625 C 433.085938 483.828125 431.558594 483.886719 431.132812 483.886719 C 429.300781 483.886719 427.53125 482.972656 427.53125 481.382812 C 427.53125 478.636719 433.820312 478.390625 435.53125 478.269531 Z M 435.53125 480.710938 "/>
<path style=" stroke:none;fill-rule:nonzero;fill:rgb(0%,0%,0%);fill-opacity:1;" d="M 471.664062 474.605469 C 471.664062 470.636719 468.796875 467.886719 465.191406 467.886719 C 462.6875 467.886719 460.917969 468.496094 459.085938 469.535156 L 459.328125 472.101562 C 461.34375 470.695312 463.300781 470.207031 465.191406 470.207031 C 467.023438 470.207031 468.613281 471.734375 468.613281 474.605469 L 468.613281 476.316406 C 462.75 476.375 457.800781 478.023438 457.800781 481.445312 C 457.800781 483.09375 458.839844 486.269531 462.261719 486.269531 C 462.808594 486.269531 466.472656 486.207031 468.734375 484.4375 L 468.734375 485.839844 L 471.664062 485.839844 Z M 468.613281 480.710938 C 468.613281 481.445312 468.613281 482.421875 467.269531 483.15625 C 466.167969 483.828125 464.640625 483.886719 464.214844 483.886719 C 462.382812 483.886719 460.613281 482.972656 460.613281 481.382812 C 460.613281 478.636719 466.902344 478.390625 468.613281 478.269531 Z M 468.613281 480.710938 "/>
<path style=" stroke:none;fill-rule:nonzero;fill:rgb(0%,0%,0%);fill-opacity:1;" d="M 491.785156 474.238281 C 491.785156 471.671875 491.171875 468.132812 486.410156 468.132812 C 482.929688 468.132812 480.972656 470.757812 480.792969 471.0625 L 480.792969 468.316406 L 477.980469 468.316406 L 477.980469 485.839844 L 480.972656 485.839844 L 480.972656 476.316406 C 480.972656 473.75 481.953125 470.511719 484.945312 470.511719 C 488.667969 470.511719 488.730469 473.261719 488.730469 474.484375 L 488.730469 485.839844 L 491.785156 485.839844 Z M 491.785156 474.238281 "/>
<path style=" stroke:none;fill-rule:nonzero;fill:rgb(0%,0%,0%);fill-opacity:1;" d="M 511.84375 458.789062 L 508.910156 458.789062 L 508.910156 470.269531 C 506.835938 468.558594 504.695312 468.132812 503.230469 468.132812 C 499.382812 468.132812 496.332031 472.160156 496.332031 477.167969 C 496.332031 482.300781 499.324219 486.269531 503.046875 486.269531 C 504.332031 486.269531 506.589844 485.902344 508.789062 483.828125 L 508.789062 485.839844 L 511.84375 485.839844 Z M 508.789062 480.40625 C 508.789062 480.957031 508.726562 481.6875 507.507812 482.789062 C 506.589844 483.582031 505.613281 483.886719 504.636719 483.886719 C 502.191406 483.886719 499.382812 482.054688 499.382812 477.230469 C 499.382812 472.101562 502.742188 470.511719 505.003906 470.511719 C 506.773438 470.511719 507.933594 471.367188 508.789062 472.652344 Z M 508.789062 480.40625 "/>
<path style=" stroke:none;fill-rule:nonzero;fill:rgb(0%,0%,0%);fill-opacity:1;" d="M 535.765625 459.335938 L 532.285156 459.335938 L 532.285156 462.816406 L 535.765625 462.816406 Z M 535.519531 468.558594 L 532.589844 468.558594 L 532.589844 485.839844 L 535.519531 485.839844 Z M 535.519531 468.558594 "/>
<path style=" stroke:none;fill-rule:nonzero;fill:rgb(0%,0%,0%);fill-opacity:1;" d="M 545.554688 470.820312 L 551.050781 470.820312 L 551.050781 468.558594 L 545.554688 468.558594 L 545.554688 463.613281 L 542.867188 463.613281 L 542.867188 468.558594 L 539.449219 468.558594 L 539.449219 470.820312 L 542.746094 470.820312 L 542.746094 481.203125 C 542.746094 483.519531 543.296875 486.269531 545.984375 486.269531 C 548.671875 486.269531 550.6875 485.292969 551.664062 484.804688 L 551.050781 482.484375 C 550.015625 483.335938 548.792969 483.765625 547.511719 483.765625 C 546.105469 483.765625 545.554688 482.605469 545.554688 480.527344 Z M 545.554688 470.820312 "/>
<path style=" stroke:none;fill-rule:nonzero;fill:rgb(0%,0%,0%);fill-opacity:1;" d="M 2.015625 532.570312 L 4.945312 532.570312 L 4.945312 505.515625 L 2.015625 505.515625 Z M 2.015625 532.570312 "/>
<path style=" stroke:none;fill-rule:nonzero;fill:rgb(0%,0%,0%);fill-opacity:1;" d="M 26.402344 524.019531 C 26.402344 518.769531 22.492188 514.617188 17.914062 514.617188 C 13.089844 514.617188 9.300781 518.890625 9.300781 524.019531 C 9.300781 529.152344 13.273438 533 17.851562 533 C 22.492188 533 26.402344 529.089844 26.402344 524.019531 Z M 17.851562 530.496094 C 15.164062 530.496094 12.355469 528.296875 12.355469 523.59375 C 12.355469 518.890625 15.289062 517 17.851562 517 C 20.601562 517 23.347656 519.015625 23.347656 523.59375 C 23.347656 528.234375 20.722656 530.496094 17.851562 530.496094 Z M 17.851562 530.496094 "/>
<path style=" stroke:none;fill-rule:nonzero;fill:rgb(0%,0%,0%);fill-opacity:1;" d="M 46.960938 524.019531 C 46.960938 518.769531 43.054688 514.617188 38.472656 514.617188 C 33.648438 514.617188 29.863281 518.890625 29.863281 524.019531 C 29.863281 529.152344 33.832031 533 38.410156 533 C 43.054688 533 46.960938 529.089844 46.960938 524.019531 Z M 38.410156 530.496094 C 35.726562 530.496094 32.914062 528.296875 32.914062 523.59375 C 32.914062 518.890625 35.847656 517 38.410156 517 C 41.160156 517 43.90625 519.015625 43.90625 523.59375 C 43.90625 528.234375 41.28125 530.496094 38.410156 530.496094 Z M 38.410156 530.496094 "/>
<path style=" stroke:none;fill-rule:nonzero;fill:rgb(0%,0%,0%);fill-opacity:1;" d="M 59.101562 521.945312 L 65.636719 515.289062 L 62.15625 515.289062 L 54.277344 523.351562 L 54.277344 505.515625 L 51.46875 505.515625 L 51.46875 532.570312 L 54.15625 532.570312 L 54.15625 527.074219 L 57.269531 523.839844 L 63.316406 532.570312 L 66.492188 532.570312 Z M 59.101562 521.945312 "/>
<path style=" stroke:none;fill-rule:nonzero;fill:rgb(0%,0%,0%);fill-opacity:1;" d="M 80.582031 515.839844 C 78.566406 514.921875 76.980469 514.617188 74.964844 514.617188 C 73.988281 514.617188 68.492188 514.617188 68.492188 519.683594 C 68.492188 521.640625 69.652344 522.859375 70.628906 523.59375 C 71.789062 524.449219 72.644531 524.632812 74.78125 525.058594 C 76.183594 525.304688 78.445312 525.792969 78.445312 527.867188 C 78.445312 530.554688 75.390625 530.554688 74.78125 530.554688 C 71.667969 530.554688 69.46875 529.089844 68.796875 528.664062 L 68.308594 531.289062 C 69.527344 531.898438 71.667969 533 74.839844 533 C 75.574219 533 77.710938 533 79.359375 531.777344 C 80.582031 530.800781 81.253906 529.273438 81.253906 527.5625 C 81.253906 525.425781 79.789062 524.144531 79.726562 524.019531 C 78.199219 522.617188 77.164062 522.371094 75.207031 522.066406 C 73.070312 521.640625 71.238281 521.210938 71.238281 519.320312 C 71.238281 516.9375 74.046875 516.9375 74.597656 516.9375 C 75.820312 516.9375 77.894531 517.058594 80.09375 518.402344 Z M 80.582031 515.839844 "/>
<path style=" stroke:none;fill-rule:nonzero;fill:rgb(0%,0%,0%);fill-opacity:1;" d="M 98.273438 532.570312 L 101.207031 532.570312 L 101.207031 505.515625 L 98.273438 505.515625 Z M 98.273438 532.570312 "/>
<path style=" stroke:none;fill-rule:nonzero;fill:rgb(0%,0%,0%);fill-opacity:1;" d="M 110.753906 506.066406 L 107.273438 506.066406 L 107.273438 509.546875 L 110.753906 509.546875 Z M 110.507812 515.289062 L 107.578125 515.289062 L 107.578125 532.570312 L 110.507812 532.570312 Z M 110.507812 515.289062 "/>
<path style=" stroke:none;fill-rule:nonzero;fill:rgb(0%,0%,0%);fill-opacity:1;" d="M 124.636719 521.945312 L 131.171875 515.289062 L 127.6875 515.289062 L 119.8125 523.351562 L 119.8125 505.515625 L 117.003906 505.515625 L 117.003906 532.570312 L 119.6875 532.570312 L 119.6875 527.074219 L 122.804688 523.839844 L 128.851562 532.570312 L 132.023438 532.570312 Z M 124.636719 521.945312 "/>
<path style=" stroke:none;fill-rule:nonzero;fill:rgb(0%,0%,0%);fill-opacity:1;" d="M 147.773438 524.019531 C 147.773438 522.738281 147.710938 519.808594 146.246094 517.425781 C 144.597656 515.042969 142.277344 514.617188 140.871094 514.617188 C 136.535156 514.617188 132.996094 518.769531 132.996094 523.777344 C 132.996094 528.90625 136.78125 533 141.421875 533 C 143.863281 533 146.125 532.082031 147.652344 530.984375 L 147.40625 528.417969 C 144.964844 530.496094 142.339844 530.617188 141.484375 530.617188 C 138.367188 530.617188 135.863281 527.867188 135.742188 524.019531 Z M 135.925781 521.882812 C 136.535156 518.953125 138.613281 517 140.871094 517 C 142.886719 517 145.027344 518.28125 145.574219 521.882812 Z M 135.925781 521.882812 "/>
<path style=" stroke:none;fill-rule:nonzero;fill:rgb(0%,0%,0%);fill-opacity:1;" d="M 168.800781 517.546875 L 174.296875 517.546875 L 174.296875 515.289062 L 168.800781 515.289062 L 168.800781 510.34375 L 166.113281 510.34375 L 166.113281 515.289062 L 162.695312 515.289062 L 162.695312 517.546875 L 165.992188 517.546875 L 165.992188 527.929688 C 165.992188 530.25 166.542969 533 169.226562 533 C 171.914062 533 173.929688 532.023438 174.90625 531.53125 L 174.296875 529.210938 C 173.257812 530.066406 172.039062 530.496094 170.753906 530.496094 C 169.351562 530.496094 168.800781 529.335938 168.800781 527.257812 Z M 168.800781 517.546875 "/>
<path style=" stroke:none;fill-rule:nonzero;fill:rgb(0%,0%,0%);fill-opacity:1;" d="M 193 520.96875 C 193 518.402344 192.386719 514.859375 187.625 514.859375 C 185.242188 514.859375 183.351562 516.019531 182.128906 517.671875 L 182.128906 505.515625 L 179.195312 505.515625 L 179.195312 532.570312 L 182.191406 532.570312 L 182.191406 523.042969 C 182.191406 520.480469 183.167969 517.242188 186.160156 517.242188 C 189.882812 517.242188 189.945312 519.992188 189.945312 521.210938 L 189.945312 532.570312 L 193 532.570312 Z M 193 520.96875 "/>
<path style=" stroke:none;fill-rule:nonzero;fill:rgb(0%,0%,0%);fill-opacity:1;" d="M 202.492188 506.066406 L 199.011719 506.066406 L 199.011719 509.546875 L 202.492188 509.546875 Z M 202.25 515.289062 L 199.316406 515.289062 L 199.316406 532.570312 L 202.25 532.570312 Z M 202.25 515.289062 "/>
<path style=" stroke:none;fill-rule:nonzero;fill:rgb(0%,0%,0%);fill-opacity:1;" d="M 218.816406 515.839844 C 216.800781 514.921875 215.214844 514.617188 213.199219 514.617188 C 212.222656 514.617188 206.726562 514.617188 206.726562 519.683594 C 206.726562 521.640625 207.886719 522.859375 208.863281 523.59375 C 210.023438 524.449219 210.878906 524.632812 213.015625 525.058594 C 214.421875 525.304688 216.679688 525.792969 216.679688 527.867188 C 216.679688 530.554688 213.625 530.554688 213.015625 530.554688 C 209.902344 530.554688 207.703125 529.089844 207.03125 528.664062 L 206.542969 531.289062 C 207.765625 531.898438 209.902344 533 213.078125 533 C 213.808594 533 215.949219 533 217.597656 531.777344 C 218.816406 530.800781 219.488281 529.273438 219.488281 527.5625 C 219.488281 525.425781 218.023438 524.144531 217.960938 524.019531 C 216.4375 522.617188 215.398438 522.371094 213.445312 522.066406 C 211.304688 521.640625 209.472656 521.210938 209.472656 519.320312 C 209.472656 516.9375 212.285156 516.9375 212.832031 516.9375 C 214.054688 516.9375 216.128906 517.058594 218.328125 518.402344 Z M 218.816406 515.839844 "/>
</g>
</svg>
