<?xml version="1.0" encoding="UTF-8"?>
<svg xmlns="http://www.w3.org/2000/svg" xmlns:xlink="http://www.w3.org/1999/xlink" width="552pt" height="551pt" viewBox="0 0 552 551" version="1.1">
<defs>
<clipPath id="clip1">
  <path d="M 177 0.203125 L 194 0.203125 L 194 23 L 177 23 Z M 177 0.203125 "/>
</clipPath>
</defs>
<g id="surface1">
<path style="fill:none;stroke-width:32;stroke-linecap:round;stroke-linejoin:round;stroke:rgb(14.109802%,13.719177%,8.616638%);stroke-opacity:1;stroke-miterlimit:4;" d="M 1814.179688 5185.898438 L 1814.179688 1214.0625 M 679.375 3200 L 4651.210938 3200 M 3516.40625 5185.898438 C 3481.992188 5172.539062 3481.992188 5159.140625 3448.320312 5145.78125 C 3414.609375 5132.421875 3414.609375 5119.023438 3381.601562 5105.664062 C 3348.632812 5092.304688 3348.632812 5078.90625 3316.328125 5065.546875 C 3284.023438 5052.1875 3284.023438 5038.789062 3252.382812 5025.429688 C 3220.78125 5012.070312 3220.78125 4998.671875 3189.882812 4985.3125 C 3158.945312 4971.914062 3158.945312 4958.554688 3128.75 4945.195312 C 3098.515625 4931.796875 3098.515625 4918.4375 3068.984375 4905.078125 C 3039.492188 4891.679688 3039.492188 4878.320312 3010.625 4864.960938 C 2981.796875 4851.5625 2981.796875 4838.203125 2953.671875 4824.84375 C 2925.546875 4811.445312 2925.546875 4798.085938 2898.085938 4784.726562 C 2870.664062 4771.328125 2870.664062 4757.96875 2843.90625 4744.570312 C 2817.148438 4731.210938 2817.148438 4717.851562 2791.132812 4704.453125 C 2765.078125 4691.09375 2765.078125 4677.734375 2739.6875 4664.335938 C 2714.335938 4650.976562 2714.335938 4637.617188 2689.6875 4624.21875 C 2665.039062 4610.859375 2665.039062 4597.5 2641.054688 4584.101562 C 2617.109375 4570.742188 2617.109375 4557.382812 2593.828125 4543.984375 C 2570.546875 4530.625 2570.546875 4517.226562 2547.96875 4503.867188 C 2525.390625 4490.507812 2525.390625 4477.109375 2503.515625 4463.75 C 2481.640625 4450.390625 2481.640625 4436.992188 2460.429688 4423.632812 C 2439.257812 4410.273438 2439.257812 4396.875 2418.75 4383.515625 C 2398.242188 4370.15625 2398.242188 4356.757812 2378.476562 4343.398438 C 2358.671875 4330.039062 2358.671875 4316.640625 2339.570312 4303.28125 C 2320.46875 4289.882812 2320.46875 4276.523438 2302.03125 4263.164062 C 2283.632812 4249.765625 2283.632812 4236.40625 2265.898438 4223.046875 C 2248.203125 4209.648438 2248.203125 4196.289062 2231.171875 4182.929688 C 2214.140625 4169.53125 2214.140625 4156.171875 2197.851562 4142.8125 C 2181.523438 4129.414062 2181.523438 4116.054688 2165.859375 4102.695312 C 2150.234375 4089.296875 2150.234375 4075.9375 2135.3125 4062.578125 C 2120.390625 4049.179688 2120.390625 4035.820312 2106.132812 4022.421875 C 2091.875 4009.0625 2091.875 3995.703125 2078.359375 3982.304688 C 2064.804688 3968.945312 2064.804688 3955.585938 2051.953125 3942.1875 C 2039.101562 3928.828125 2039.101562 3915.46875 2026.953125 3902.070312 C 2014.765625 3888.710938 2014.765625 3875.351562 2003.320312 3861.953125 C 1991.835938 3848.59375 1991.835938 3835.234375 1981.09375 3821.835938 C 1970.3125 3808.476562 1970.3125 3795.078125 1960.234375 3781.71875 C 1950.15625 3768.359375 1950.15625 3754.960938 1940.78125 3741.601562 C 1931.40625 3728.242188 1931.40625 3714.84375 1922.734375 3701.484375 C 1914.0625 3688.125 1914.0625 3674.726562 1906.054688 3661.367188 C 1898.085938 3648.007812 1898.085938 3634.609375 1890.78125 3621.25 C 1883.476562 3607.890625 1883.476562 3594.492188 1876.875 3581.132812 C 1870.273438 3567.734375 1870.273438 3554.375 1864.375 3541.015625 C 1858.476562 3527.617188 1858.476562 3514.257812 1853.242188 3500.898438 C 1848.046875 3487.5 1848.046875 3474.140625 1843.515625 3460.78125 C 1839.023438 3447.382812 1839.023438 3434.023438 1835.195312 3420.664062 C 1831.367188 3407.265625 1831.367188 3393.90625 1828.242188 3380.546875 C 1825.117188 3367.148438 1825.117188 3353.789062 1822.695312 3340.390625 C 1820.273438 3327.03125 1820.273438 3313.671875 1818.515625 3300.273438 C 1816.796875 3286.914062 1816.796875 3273.554688 1815.742188 3260.15625 C 1814.6875 3246.796875 1814.6875 3233.4375 1814.335938 3220.039062 C 1814.023438 3206.679688 1814.023438 3193.320312 1814.335938 3179.921875 C 1814.6875 3166.5625 1814.6875 3153.203125 1815.742188 3139.804688 C 1816.796875 3126.445312 1816.796875 3113.046875 1818.515625 3099.6875 C 1820.273438 3086.328125 1820.273438 3072.929688 1822.695312 3059.570312 C 1825.117188 3046.210938 1825.117188 3032.8125 1828.242188 3019.453125 C 1831.367188 3006.09375 1831.367188 2992.695312 1835.195312 2979.335938 C 1839.023438 2965.976562 1839.023438 2952.578125 1843.515625 2939.21875 C 1848.046875 2925.859375 1848.046875 2912.460938 1853.242188 2899.101562 C 1858.476562 2885.703125 1858.476562 2872.34375 1864.375 2858.984375 C 1870.273438 2845.585938 1870.273438 2832.226562 1876.875 2818.867188 C 1883.476562 2805.46875 1883.476562 2792.109375 1890.78125 2778.75 C 1898.085938 2765.351562 1898.085938 2751.992188 1906.054688 2738.632812 C 1914.0625 2725.234375 1914.0625 2711.875 1922.734375 2698.515625 C 1931.40625 2685.117188 1931.40625 2671.757812 1940.78125 2658.398438 C 1950.15625 2645 1950.15625 2631.640625 1960.234375 2618.242188 C 1970.3125 2604.882812 1970.3125 2591.523438 1981.09375 2578.125 C 1991.835938 2564.765625 1991.835938 2551.40625 2003.320312 2538.007812 C 2014.765625 2524.648438 2014.765625 2511.289062 2026.953125 2497.890625 C 2039.101562 2484.53125 2039.101562 2471.171875 2051.953125 2457.773438 C 2064.804688 2444.414062 2064.804688 2431.054688 2078.359375 2417.65625 C 2091.875 2404.296875 2091.875 2390.898438 2106.132812 2377.539062 C 2120.390625 2364.179688 2120.390625 2350.78125 2135.3125 2337.421875 C 2150.234375 2324.0625 2150.234375 2310.664062 2165.859375 2297.304688 C 2181.523438 2283.945312 2181.523438 2270.546875 2197.851562 2257.1875 C 2214.140625 2243.828125 2214.140625 2230.429688 2231.171875 2217.070312 C 2248.203125 2203.710938 2248.203125 2190.3125 2265.898438 2176.953125 C 2283.632812 2163.554688 2283.632812 2150.195312 2302.03125 2136.835938 C 2320.46875 2123.4375 2320.46875 2110.078125 2339.570312 2096.71875 C 2358.671875 2083.320312 2358.671875 2069.960938 2378.476562 2056.601562 C 2398.242188 2043.203125 2398.242188 2029.84375 2418.75 2016.484375 C 2439.257812 2003.085938 2439.257812 1989.726562 2460.429688 1976.367188 C 2481.640625 1962.96875 2481.640625 1949.609375 2503.515625 1936.210938 C 2525.390625 1922.851562 2525.390625 1909.492188 2547.96875 1896.09375 C 2570.546875 1882.734375 2570.546875 1869.375 2593.828125 1855.976562 C 2617.109375 1842.617188 2617.109375 1829.257812 2641.054688 1815.859375 C 2665.039062 1802.5 2665.039062 1789.140625 2689.6875 1775.742188 C 2714.335938 1762.382812 2714.335938 1749.023438 2739.6875 1735.625 C 2765.078125 1722.265625 2765.078125 1708.867188 2791.132812 1695.507812 C 2817.148438 1682.148438 2817.148438 1668.75 2843.90625 1655.390625 C 2870.664062 1642.03125 2870.664062 1628.632812 2898.085938 1615.273438 C 2925.546875 1601.914062 2925.546875 1588.515625 2953.671875 1575.15625 C 2981.796875 1561.796875 2981.796875 1548.398438 3010.625 1535.039062 C 3039.492188 1521.679688 3039.492188 1508.28125 3068.984375 1494.921875 C 3098.515625 1481.5625 3098.515625 1468.164062 3128.75 1454.804688 C 3158.945312 1441.40625 3158.945312 1428.046875 3189.882812 1414.6875 C 3220.78125 1401.289062 3220.78125 1387.929688 3252.382812 1374.570312 C 3284.023438 1361.171875 3284.023438 1347.8125 3316.328125 1334.453125 C 3348.632812 1321.054688 3348.632812 1307.695312 3381.601562 1294.335938 C 3414.609375 1280.9375 3414.609375 1267.578125 3448.320312 1254.21875 C 3481.992188 1240.820312 3481.992188 1227.460938 3516.40625 1214.0625 " transform="matrix(0.1,0,0,-0.1,0,551)"/>
<g clip-path="url(#clip1)" clip-rule="nonzero">
<path style=" stroke:none;fill-rule:nonzero;fill:rgb(0%,0%,0%);fill-opacity:1;" d="M 193.359375 2.339844 L 193.363281 2.3125 L 193.371094 2.292969 L 193.378906 2.25 L 193.394531 2.214844 L 193.398438 2.175781 L 193.40625 2.140625 L 193.421875 2.113281 L 193.425781 2.078125 L 193.433594 2.050781 L 193.441406 2.019531 L 193.441406 1.992188 L 193.457031 1.9375 L 193.460938 1.917969 L 193.460938 1.894531 L 193.46875 1.875 L 193.46875 1.855469 L 193.476562 1.832031 L 193.476562 1.8125 L 193.484375 1.777344 L 193.484375 1.664062 L 193.492188 1.632812 L 193.492188 1.546875 C 193.492188 0.914062 193.011719 0.605469 192.488281 0.605469 C 192.140625 0.605469 191.582031 0.816406 191.269531 1.339844 C 191.199219 1.511719 190.921875 2.578125 190.789062 3.210938 C 190.535156 4.109375 190.300781 5.050781 190.089844 5.984375 L 188.523438 12.234375 C 188.390625 12.753906 186.902344 15.179688 184.609375 15.179688 C 182.839844 15.179688 182.449219 13.660156 182.449219 12.371094 C 182.449219 10.777344 183.050781 8.617188 184.226562 5.574219 C 184.785156 4.144531 184.921875 3.761719 184.921875 3.066406 C 184.921875 1.511719 183.816406 0.230469 182.074219 0.230469 C 178.773438 0.230469 177.492188 5.253906 177.492188 5.574219 C 177.492188 5.921875 177.839844 5.921875 177.914062 5.921875 C 178.261719 5.921875 178.292969 5.84375 178.464844 5.289062 C 179.40625 2.019531 180.785156 0.992188 181.96875 0.992188 C 182.246094 0.992188 182.839844 0.992188 182.839844 2.097656 C 182.839844 2.96875 182.492188 3.859375 182.246094 4.527344 C 180.863281 8.207031 180.226562 10.183594 180.226562 11.820312 C 180.226562 14.902344 182.421875 15.945312 184.464844 15.945312 C 185.828125 15.945312 187 15.351562 187.964844 14.386719 C 187.519531 16.183594 187.109375 17.890625 185.714844 19.734375 C 184.8125 20.90625 183.496094 21.921875 181.898438 21.921875 C 181.417969 21.921875 179.851562 21.808594 179.257812 20.460938 C 179.816406 20.460938 180.277344 20.460938 180.75 20.035156 C 181.097656 19.734375 181.445312 19.273438 181.445312 18.621094 C 181.445312 17.539062 180.511719 17.402344 180.164062 17.402344 C 179.371094 17.402344 178.214844 17.957031 178.214844 19.65625 C 178.214844 21.398438 179.753906 22.679688 181.898438 22.679688 C 185.480469 22.679688 189.046875 19.511719 190.027344 15.597656 Z M 193.359375 2.339844 "/>
</g>
<path style=" stroke:none;fill-rule:nonzero;fill:rgb(0%,0%,0%);fill-opacity:1;" d="M 489.199219 226.023438 L 489.222656 225.921875 L 489.253906 225.804688 L 489.285156 225.679688 L 489.316406 225.539062 L 489.363281 225.390625 L 489.410156 225.226562 L 489.457031 225.058594 L 489.511719 224.886719 L 489.574219 224.707031 L 489.644531 224.519531 L 489.722656 224.324219 L 489.800781 224.136719 L 489.886719 223.941406 L 489.980469 223.746094 L 490.082031 223.550781 L 490.191406 223.355469 L 490.425781 222.980469 L 490.558594 222.800781 L 490.839844 222.457031 L 490.992188 222.304688 L 491.15625 222.15625 L 491.328125 222.015625 L 491.507812 221.890625 L 491.703125 221.78125 L 491.796875 221.726562 L 491.898438 221.679688 L 492.007812 221.640625 L 492.109375 221.601562 L 492.21875 221.5625 L 492.328125 221.53125 L 492.5625 221.484375 L 492.679688 221.46875 L 492.804688 221.453125 L 492.929688 221.445312 L 493.054688 221.445312 C 493.25 221.445312 494.175781 221.445312 494.988281 221.945312 C 493.902344 222.140625 493.125 223.113281 493.125 224.042969 C 493.125 224.660156 493.554688 225.40625 494.597656 225.40625 C 495.457031 225.40625 496.695312 224.714844 496.695312 223.152344 C 496.695312 221.125 494.402344 220.59375 493.085938 220.59375 C 490.832031 220.59375 489.464844 222.652344 489.003906 223.542969 C 488.03125 220.984375 485.929688 220.59375 484.816406 220.59375 C 480.765625 220.59375 478.542969 225.601562 478.542969 226.578125 C 478.542969 226.96875 478.933594 226.96875 479.019531 226.96875 C 479.324219 226.96875 479.449219 226.882812 479.519531 226.539062 C 480.835938 222.417969 483.410156 221.445312 484.730469 221.445312 C 485.46875 221.445312 486.820312 221.789062 486.820312 224.042969 C 486.820312 225.242188 486.164062 227.855469 484.730469 233.296875 C 484.105469 235.707031 482.746094 237.335938 481.03125 237.335938 C 480.796875 237.335938 479.90625 237.335938 479.097656 236.828125 C 480.070312 236.640625 480.921875 235.832031 480.921875 234.730469 C 480.921875 233.683594 480.070312 233.378906 479.488281 233.378906 C 478.316406 233.378906 477.339844 234.386719 477.339844 235.636719 C 477.339844 237.414062 479.292969 238.195312 480.992188 238.195312 C 483.566406 238.195312 484.957031 235.472656 485.082031 235.246094 C 485.539062 236.679688 486.945312 238.195312 489.269531 238.195312 C 493.28125 238.195312 495.503906 233.1875 495.503906 232.210938 C 495.503906 231.820312 495.152344 231.820312 495.027344 231.820312 C 494.683594 231.820312 494.597656 231.976562 494.527344 232.242188 C 493.25 236.398438 490.605469 237.335938 489.355469 237.335938 C 487.835938 237.335938 487.210938 236.09375 487.210938 234.769531 C 487.210938 233.910156 487.445312 233.0625 487.882812 231.351562 Z M 489.199219 226.023438 "/>
<path style=" stroke:none;fill-rule:nonzero;fill:rgb(0%,0%,0%);fill-opacity:1;" d="M 168.207031 250.292969 L 168.199219 249.804688 L 168.167969 249.320312 L 168.121094 248.847656 L 168.046875 248.386719 L 167.960938 247.933594 L 167.855469 247.496094 L 167.730469 247.074219 L 167.582031 246.664062 L 167.425781 246.265625 L 167.246094 245.875 L 167.054688 245.503906 L 166.839844 245.144531 L 166.617188 244.800781 L 166.371094 244.46875 L 166.117188 244.15625 L 165.839844 243.859375 L 165.554688 243.574219 L 165.257812 243.300781 L 164.9375 243.050781 L 164.613281 242.816406 L 164.269531 242.597656 L 163.917969 242.402344 L 163.554688 242.214844 L 163.175781 242.050781 L 162.785156 241.902344 L 162.386719 241.769531 L 161.976562 241.664062 L 161.558594 241.570312 L 161.128906 241.503906 L 160.683594 241.453125 L 160.238281 241.417969 L 159.78125 241.414062 L 159.582031 242.242188 C 162.292969 242.242188 165.269531 244.082031 165.269531 249 C 165.269531 251.382812 164.375 256.53125 161.109375 260.601562 C 159.523438 262.609375 156.804688 264.558594 154.042969 264.558594 C 150.769531 264.558594 148.460938 261.886719 148.460938 257.527344 C 148.460938 256.074219 148.917969 251.25 151.464844 247.382812 C 153.746094 243.957031 156.972656 242.242188 159.582031 242.242188 L 159.78125 241.414062 C 152.65625 241.414062 145.386719 248.910156 145.386719 256.605469 C 145.386719 262.078125 149.085938 265.414062 153.84375 265.414062 C 160.835938 265.414062 168.207031 258.1875 168.207031 250.292969 Z M 168.207031 250.292969 "/>
<path style=" stroke:none;fill-rule:nonzero;fill:rgb(0%,0%,0%);fill-opacity:1;" d="M 17.769531 488 C 17.953125 487.453125 17.953125 487.390625 17.953125 487.085938 C 17.953125 486.414062 17.40625 486.046875 16.792969 486.046875 C 16.429688 486.046875 15.816406 486.292969 15.449219 486.839844 C 15.390625 487.085938 15.023438 488.246094 14.902344 488.980469 C 14.59375 489.957031 14.351562 491.054688 14.105469 492.09375 L 12.335938 499.117188 C 12.214844 499.667969 10.503906 502.414062 7.9375 502.414062 C 5.984375 502.414062 5.558594 500.703125 5.558594 499.238281 C 5.558594 497.46875 6.230469 495.023438 7.511719 491.605469 C 8.121094 490.015625 8.304688 489.589844 8.304688 488.796875 C 8.304688 487.085938 7.085938 485.621094 5.128906 485.621094 C 1.40625 485.621094 0 491.300781 0 491.605469 C 0 492.03125 0.367188 492.03125 0.425781 492.03125 C 0.855469 492.03125 0.855469 491.910156 1.039062 491.300781 C 2.136719 487.636719 3.664062 486.476562 5.007812 486.476562 C 5.3125 486.476562 5.984375 486.476562 5.984375 487.695312 C 5.984375 488.671875 5.558594 489.710938 5.3125 490.445312 C 3.726562 494.597656 3.054688 496.796875 3.054688 498.628906 C 3.054688 502.109375 5.496094 503.269531 7.816406 503.269531 C 9.34375 503.269531 10.625 502.597656 11.726562 501.5 C 11.238281 503.511719 10.75 505.46875 9.222656 507.542969 C 8.183594 508.828125 6.71875 509.988281 4.945312 509.988281 C 4.398438 509.988281 2.625 509.863281 1.953125 508.339844 C 2.566406 508.339844 3.113281 508.339844 3.601562 507.847656 C 4.03125 507.542969 4.398438 506.996094 4.398438 506.261719 C 4.398438 505.039062 3.359375 504.917969 2.992188 504.917969 C 2.078125 504.917969 0.792969 505.527344 0.792969 507.421875 C 0.792969 509.375 2.503906 510.84375 4.945312 510.84375 C 8.917969 510.84375 12.945312 507.300781 14.046875 502.902344 Z M 17.769531 488 "/>
<path style=" stroke:none;fill-rule:nonzero;fill:rgb(0%,0%,0%);fill-opacity:1;" d="M 59.234375 490.078125 C 59.847656 490.078125 60.578125 490.078125 60.578125 489.34375 C 60.578125 488.550781 59.847656 488.550781 59.296875 488.550781 L 35.96875 488.550781 C 35.417969 488.550781 34.6875 488.550781 34.6875 489.34375 C 34.6875 490.078125 35.417969 490.078125 35.96875 490.078125 Z M 59.296875 497.652344 C 59.847656 497.652344 60.578125 497.652344 60.578125 496.855469 C 60.578125 496.125 59.847656 496.125 59.234375 496.125 L 35.96875 496.125 C 35.417969 496.125 34.6875 496.125 34.6875 496.855469 C 34.6875 497.652344 35.417969 497.652344 35.96875 497.652344 Z M 59.296875 497.652344 "/>
<path style=" stroke:none;fill-rule:nonzero;fill:rgb(0%,0%,0%);fill-opacity:1;" d="M 91.074219 505.539062 L 84.234375 490.390625 C 83.929688 489.78125 83.746094 489.78125 83.625 489.78125 C 83.625 489.78125 83.378906 489.78125 82.953125 490.085938 L 79.289062 492.894531 C 78.800781 493.324219 78.800781 493.382812 78.800781 493.507812 C 78.800781 493.75 78.863281 493.933594 79.167969 493.933594 C 79.410156 493.933594 80.082031 493.382812 80.511719 493.078125 C 80.695312 492.894531 81.304688 492.46875 81.730469 492.164062 L 89.425781 509.019531 C 89.671875 509.628906 89.855469 509.628906 90.21875 509.628906 C 90.832031 509.628906 90.953125 509.445312 91.199219 508.894531 L 108.90625 472.253906 C 109.152344 471.703125 109.152344 471.582031 109.152344 471.460938 C 109.152344 471.09375 108.847656 470.667969 108.359375 470.667969 C 108.054688 470.667969 107.808594 470.910156 107.503906 471.519531 Z M 91.074219 505.539062 "/>
<path style="fill:none;stroke-width:39.0847;stroke-linecap:butt;stroke-linejoin:miter;stroke:rgb(0%,0%,0%);stroke-opacity:1;stroke-miterlimit:10;" d="M 1097.070312 790.46875 L 2152.34375 790.46875 " transform="matrix(0.1,0,0,-0.1,0,551)"/>
<path style=" stroke:none;fill-rule:nonzero;fill:rgb(0%,0%,0%);fill-opacity:1;" d="M 119.679688 489.101562 C 122.855469 488.0625 125.117188 485.375 125.117188 482.261719 C 125.117188 479.085938 121.695312 476.886719 117.96875 476.886719 C 114.0625 476.886719 111.070312 479.207031 111.070312 482.199219 C 111.070312 483.484375 111.925781 484.214844 113.085938 484.214844 C 114.246094 484.214844 115.039062 483.359375 115.039062 482.199219 C 115.039062 480.308594 113.207031 480.308594 112.65625 480.308594 C 113.816406 478.351562 116.382812 477.863281 117.785156 477.863281 C 119.4375 477.863281 121.574219 478.71875 121.574219 482.199219 C 121.574219 482.6875 121.453125 484.949219 120.472656 486.660156 C 119.3125 488.550781 117.96875 488.671875 116.992188 488.671875 C 116.6875 488.734375 115.773438 488.796875 115.464844 488.796875 C 115.160156 488.855469 114.917969 488.917969 114.917969 489.285156 C 114.917969 489.710938 115.160156 489.710938 115.832031 489.710938 L 117.542969 489.710938 C 120.71875 489.710938 122.183594 492.335938 122.183594 496.183594 C 122.183594 501.5 119.496094 502.597656 117.785156 502.597656 C 116.078125 502.597656 113.144531 501.925781 111.800781 499.667969 C 113.144531 499.847656 114.367188 498.996094 114.367188 497.527344 C 114.367188 496.125 113.328125 495.332031 112.230469 495.332031 C 111.253906 495.332031 110.03125 495.878906 110.03125 497.589844 C 110.03125 501.132812 113.632812 503.695312 117.910156 503.695312 C 122.671875 503.695312 126.214844 500.15625 126.214844 496.183594 C 126.214844 493.007812 123.710938 489.957031 119.679688 489.101562 Z M 119.679688 489.101562 "/>
<path style=" stroke:none;fill-rule:nonzero;fill:rgb(0%,0%,0%);fill-opacity:1;" d="M 140.859375 491.054688 C 141.101562 490.078125 142.019531 486.476562 144.707031 486.476562 C 144.890625 486.476562 145.867188 486.476562 146.660156 486.964844 C 145.5625 487.207031 144.828125 488.125 144.828125 489.101562 C 144.828125 489.710938 145.253906 490.445312 146.292969 490.445312 C 147.148438 490.445312 148.371094 489.773438 148.371094 488.183594 C 148.371094 486.167969 146.109375 485.621094 144.765625 485.621094 C 142.507812 485.621094 141.164062 487.695312 140.675781 488.550781 C 139.699219 485.988281 137.621094 485.621094 136.460938 485.621094 C 132.429688 485.621094 130.171875 490.628906 130.171875 491.605469 C 130.171875 492.03125 130.597656 492.03125 130.660156 492.03125 C 130.964844 492.03125 131.085938 491.910156 131.148438 491.605469 C 132.492188 487.453125 135.054688 486.476562 136.398438 486.476562 C 137.132812 486.476562 138.476562 486.839844 138.476562 489.101562 C 138.476562 490.324219 137.804688 492.886719 136.398438 498.382812 C 135.789062 500.765625 134.386719 502.414062 132.675781 502.414062 C 132.429688 502.414062 131.574219 502.414062 130.71875 501.925781 C 131.699219 501.679688 132.554688 500.886719 132.554688 499.789062 C 132.554688 498.75 131.699219 498.445312 131.148438 498.445312 C 129.925781 498.445312 129.011719 499.421875 129.011719 500.703125 C 129.011719 502.476562 130.902344 503.269531 132.613281 503.269531 C 135.238281 503.269531 136.644531 500.519531 136.707031 500.339844 C 137.195312 501.742188 138.597656 503.269531 140.917969 503.269531 C 144.949219 503.269531 147.148438 498.261719 147.148438 497.285156 C 147.148438 496.855469 146.84375 496.855469 146.722656 496.855469 C 146.355469 496.855469 146.292969 497.039062 146.171875 497.285156 C 144.890625 501.5 142.261719 502.414062 141.042969 502.414062 C 139.515625 502.414062 138.902344 501.191406 138.902344 499.847656 C 138.902344 498.996094 139.085938 498.140625 139.515625 496.429688 Z M 140.859375 491.054688 "/>
<path style=" stroke:none;fill-rule:nonzero;fill:rgb(0%,0%,0%);fill-opacity:1;" d="M 184.40625 493.863281 C 185.078125 493.863281 185.8125 493.863281 185.8125 493.070312 C 185.8125 492.335938 185.078125 492.335938 184.40625 492.335938 L 163.339844 492.335938 C 162.667969 492.335938 161.996094 492.335938 161.996094 493.070312 C 161.996094 493.863281 162.667969 493.863281 163.339844 493.863281 Z M 184.40625 493.863281 "/>
<path style=" stroke:none;fill-rule:nonzero;fill:rgb(0%,0%,0%);fill-opacity:1;" d="M 202.640625 499.847656 L 206.792969 495.820312 C 212.839844 490.445312 215.160156 488.367188 215.160156 484.460938 C 215.160156 480 211.679688 476.886719 206.917969 476.886719 C 202.519531 476.886719 199.648438 480.492188 199.648438 483.972656 C 199.648438 486.109375 201.601562 486.109375 201.726562 486.109375 C 202.398438 486.109375 203.742188 485.679688 203.742188 484.03125 C 203.742188 483.054688 203.007812 482.015625 201.664062 482.015625 C 201.359375 482.015625 201.296875 482.015625 201.175781 482.078125 C 202.03125 479.511719 204.167969 478.109375 206.425781 478.109375 C 209.96875 478.109375 211.617188 481.285156 211.617188 484.460938 C 211.617188 487.574219 209.726562 490.628906 207.527344 493.070312 L 200.078125 501.375 C 199.648438 501.804688 199.648438 501.925781 199.648438 502.84375 L 214.121094 502.84375 L 215.160156 496.0625 L 214.246094 496.0625 C 214 497.222656 213.757812 498.933594 213.328125 499.542969 C 213.085938 499.847656 210.519531 499.847656 209.664062 499.847656 Z M 202.640625 499.847656 "/>
<path style=" stroke:none;fill-rule:nonzero;fill:rgb(0%,0%,0%);fill-opacity:1;" d="M 237.902344 476.335938 L 234.421875 476.335938 L 234.421875 479.820312 L 237.902344 479.820312 Z M 237.65625 485.558594 L 234.726562 485.558594 L 234.726562 502.84375 L 237.65625 502.84375 Z M 237.65625 485.558594 "/>
<path style=" stroke:none;fill-rule:nonzero;fill:rgb(0%,0%,0%);fill-opacity:1;" d="M 254.226562 486.109375 C 252.210938 485.191406 250.625 484.886719 248.609375 484.886719 C 247.632812 484.886719 242.136719 484.886719 242.136719 489.957031 C 242.136719 491.910156 243.296875 493.132812 244.273438 493.863281 C 245.433594 494.71875 246.289062 494.902344 248.425781 495.332031 C 249.828125 495.574219 252.089844 496.0625 252.089844 498.140625 C 252.089844 500.828125 249.035156 500.828125 248.425781 500.828125 C 245.308594 500.828125 243.113281 499.359375 242.441406 498.933594 L 241.953125 501.558594 C 243.171875 502.171875 245.308594 503.269531 248.484375 503.269531 C 249.21875 503.269531 251.355469 503.269531 253.003906 502.046875 C 254.226562 501.070312 254.898438 499.542969 254.898438 497.835938 C 254.898438 495.695312 253.433594 494.414062 253.371094 494.292969 C 251.84375 492.886719 250.808594 492.644531 248.851562 492.335938 C 246.714844 491.910156 244.882812 491.484375 244.882812 489.589844 C 244.882812 487.207031 247.691406 487.207031 248.242188 487.207031 C 249.464844 487.207031 251.539062 487.332031 253.738281 488.671875 Z M 254.226562 486.109375 "/>
<path style=" stroke:none;fill-rule:nonzero;fill:rgb(0%,0%,0%);fill-opacity:1;" d="M 285.71875 491.605469 C 285.71875 487.636719 282.847656 484.886719 279.246094 484.886719 C 276.742188 484.886719 274.96875 485.5 273.136719 486.535156 L 273.382812 489.101562 C 275.398438 487.695312 277.351562 487.207031 279.246094 487.207031 C 281.078125 487.207031 282.664062 488.734375 282.664062 491.605469 L 282.664062 493.316406 C 276.800781 493.375 271.855469 495.023438 271.855469 498.445312 C 271.855469 500.09375 272.894531 503.269531 276.3125 503.269531 C 276.863281 503.269531 280.527344 503.207031 282.789062 501.4375 L 282.789062 502.84375 L 285.71875 502.84375 Z M 282.664062 497.710938 C 282.664062 498.445312 282.664062 499.421875 281.320312 500.15625 C 280.222656 500.828125 278.695312 500.886719 278.269531 500.886719 C 276.4375 500.886719 274.664062 499.972656 274.664062 498.382812 C 274.664062 495.636719 280.953125 495.390625 282.664062 495.269531 Z M 282.664062 497.710938 "/>
<path style=" stroke:none;fill-rule:nonzero;fill:rgb(0%,0%,0%);fill-opacity:1;" d="M 309.496094 501.070312 C 310.71875 502.171875 312.425781 503.269531 314.746094 503.269531 C 318.535156 503.269531 321.953125 499.421875 321.953125 494.171875 C 321.953125 489.46875 319.511719 485.132812 315.785156 485.132812 C 313.464844 485.132812 311.207031 485.925781 309.375 487.453125 L 309.375 485.558594 L 306.441406 485.558594 L 306.441406 510.414062 L 309.496094 510.414062 Z M 309.496094 489.894531 C 310.410156 488.492188 311.9375 487.636719 313.648438 487.636719 C 316.578125 487.636719 318.902344 490.566406 318.902344 494.171875 C 318.902344 498.140625 316.152344 500.886719 313.222656 500.886719 C 311.695312 500.886719 310.65625 500.09375 309.863281 499.054688 C 309.496094 498.507812 309.496094 498.382812 309.496094 497.710938 Z M 309.496094 489.894531 "/>
<path style=" stroke:none;fill-rule:nonzero;fill:rgb(0%,0%,0%);fill-opacity:1;" d="M 338.960938 491.605469 C 338.960938 487.636719 336.089844 484.886719 332.484375 484.886719 C 329.980469 484.886719 328.210938 485.5 326.378906 486.535156 L 326.625 489.101562 C 328.636719 487.695312 330.59375 487.207031 332.484375 487.207031 C 334.316406 487.207031 335.90625 488.734375 335.90625 491.605469 L 335.90625 493.316406 C 330.042969 493.375 325.097656 495.023438 325.097656 498.445312 C 325.097656 500.09375 326.132812 503.269531 329.554688 503.269531 C 330.105469 503.269531 333.769531 503.207031 336.027344 501.4375 L 336.027344 502.84375 L 338.960938 502.84375 Z M 335.90625 497.710938 C 335.90625 498.445312 335.90625 499.421875 334.5625 500.15625 C 333.464844 500.828125 331.9375 500.886719 331.507812 500.886719 C 329.675781 500.886719 327.90625 499.972656 327.90625 498.382812 C 327.90625 495.636719 334.195312 495.390625 335.90625 495.269531 Z M 335.90625 497.710938 "/>
<path style=" stroke:none;fill-rule:nonzero;fill:rgb(0%,0%,0%);fill-opacity:1;" d="M 347.117188 494.476562 C 347.117188 490.628906 349.925781 487.820312 353.773438 487.695312 L 353.773438 485.132812 C 350.292969 485.132812 348.15625 487.085938 346.933594 488.855469 L 346.933594 485.316406 L 344.1875 485.316406 L 344.1875 502.84375 L 347.117188 502.84375 Z M 347.117188 494.476562 "/>
<path style=" stroke:none;fill-rule:nonzero;fill:rgb(0%,0%,0%);fill-opacity:1;" d="M 369.886719 491.605469 C 369.886719 487.636719 367.019531 484.886719 363.414062 484.886719 C 360.910156 484.886719 359.140625 485.5 357.308594 486.535156 L 357.550781 489.101562 C 359.566406 487.695312 361.519531 487.207031 363.414062 487.207031 C 365.246094 487.207031 366.835938 488.734375 366.835938 491.605469 L 366.835938 493.316406 C 360.972656 493.375 356.023438 495.023438 356.023438 498.445312 C 356.023438 500.09375 357.0625 503.269531 360.484375 503.269531 C 361.03125 503.269531 364.695312 503.207031 366.957031 501.4375 L 366.957031 502.84375 L 369.886719 502.84375 Z M 366.835938 497.710938 C 366.835938 498.445312 366.835938 499.421875 365.492188 500.15625 C 364.390625 500.828125 362.863281 500.886719 362.4375 500.886719 C 360.605469 500.886719 358.835938 499.972656 358.835938 498.382812 C 358.835938 495.636719 365.125 495.390625 366.835938 495.269531 Z M 366.835938 497.710938 "/>
<path style=" stroke:none;fill-rule:nonzero;fill:rgb(0%,0%,0%);fill-opacity:1;" d="M 379.136719 475.789062 L 376.203125 475.789062 L 376.203125 502.84375 L 379.257812 502.84375 L 379.257812 501.070312 C 380.175781 501.925781 381.882812 503.269531 384.511719 503.269531 C 388.359375 503.269531 391.714844 499.359375 391.714844 494.171875 C 391.714844 489.34375 389.089844 485.132812 385.425781 485.132812 C 383.898438 485.132812 381.457031 485.5 379.136719 487.390625 Z M 379.257812 489.773438 C 379.867188 488.855469 381.273438 487.511719 383.410156 487.511719 C 385.730469 487.511719 388.664062 489.164062 388.664062 494.171875 C 388.664062 499.238281 385.425781 500.886719 383.042969 500.886719 C 381.519531 500.886719 380.234375 500.214844 379.257812 498.382812 Z M 379.257812 489.773438 "/>
<path style=" stroke:none;fill-rule:nonzero;fill:rgb(0%,0%,0%);fill-opacity:1;" d="M 412.5 494.292969 C 412.5 489.039062 408.589844 484.886719 404.011719 484.886719 C 399.183594 484.886719 395.398438 489.164062 395.398438 494.292969 C 395.398438 499.421875 399.367188 503.269531 403.949219 503.269531 C 408.589844 503.269531 412.5 499.359375 412.5 494.292969 Z M 403.949219 500.765625 C 401.261719 500.765625 398.453125 498.566406 398.453125 493.863281 C 398.453125 489.164062 401.382812 487.269531 403.949219 487.269531 C 406.695312 487.269531 409.445312 489.285156 409.445312 493.863281 C 409.445312 498.507812 406.820312 500.765625 403.949219 500.765625 Z M 403.949219 500.765625 "/>
<path style=" stroke:none;fill-rule:nonzero;fill:rgb(0%,0%,0%);fill-opacity:1;" d="M 416.882812 502.84375 L 419.816406 502.84375 L 419.816406 475.789062 L 416.882812 475.789062 Z M 416.882812 502.84375 "/>
<path style=" stroke:none;fill-rule:nonzero;fill:rgb(0%,0%,0%);fill-opacity:1;" d="M 438.582031 491.605469 C 438.582031 487.636719 435.714844 484.886719 432.109375 484.886719 C 429.605469 484.886719 427.835938 485.5 426.003906 486.535156 L 426.246094 489.101562 C 428.261719 487.695312 430.214844 487.207031 432.109375 487.207031 C 433.941406 487.207031 435.53125 488.734375 435.53125 491.605469 L 435.53125 493.316406 C 429.667969 493.375 424.71875 495.023438 424.71875 498.445312 C 424.71875 500.09375 425.757812 503.269531 429.179688 503.269531 C 429.726562 503.269531 433.390625 503.207031 435.652344 501.4375 L 435.652344 502.84375 L 438.582031 502.84375 Z M 435.53125 497.710938 C 435.53125 498.445312 435.53125 499.421875 434.1875 500.15625 C 433.085938 500.828125 431.558594 500.886719 431.132812 500.886719 C 429.300781 500.886719 427.53125 499.972656 427.53125 498.382812 C 427.53125 495.636719 433.820312 495.390625 435.53125 495.269531 Z M 435.53125 497.710938 "/>
<path style=" stroke:none;fill-rule:nonzero;fill:rgb(0%,0%,0%);fill-opacity:1;" d="M 471.664062 491.605469 C 471.664062 487.636719 468.796875 484.886719 465.191406 484.886719 C 462.6875 484.886719 460.917969 485.5 459.085938 486.535156 L 459.328125 489.101562 C 461.34375 487.695312 463.300781 487.207031 465.191406 487.207031 C 467.023438 487.207031 468.613281 488.734375 468.613281 491.605469 L 468.613281 493.316406 C 462.75 493.375 457.800781 495.023438 457.800781 498.445312 C 457.800781 500.09375 458.839844 503.269531 462.261719 503.269531 C 462.808594 503.269531 466.472656 503.207031 468.734375 501.4375 L 468.734375 502.84375 L 471.664062 502.84375 Z M 468.613281 497.710938 C 468.613281 498.445312 468.613281 499.421875 467.269531 500.15625 C 466.167969 500.828125 464.640625 500.886719 464.214844 500.886719 C 462.382812 500.886719 460.613281 499.972656 460.613281 498.382812 C 460.613281 495.636719 466.902344 495.390625 468.613281 495.269531 Z M 468.613281 497.710938 "/>
<path style=" stroke:none;fill-rule:nonzero;fill:rgb(0%,0%,0%);fill-opacity:1;" d="M 491.785156 491.238281 C 491.785156 488.671875 491.171875 485.132812 486.410156 485.132812 C 482.929688 485.132812 480.972656 487.757812 480.792969 488.0625 L 480.792969 485.316406 L 477.980469 485.316406 L 477.980469 502.84375 L 480.972656 502.84375 L 480.972656 493.316406 C 480.972656 490.75 481.953125 487.511719 484.945312 487.511719 C 488.667969 487.511719 488.730469 490.261719 488.730469 491.484375 L 488.730469 502.84375 L 491.785156 502.84375 Z M 491.785156 491.238281 "/>
<path style=" stroke:none;fill-rule:nonzero;fill:rgb(0%,0%,0%);fill-opacity:1;" d="M 511.84375 475.789062 L 508.910156 475.789062 L 508.910156 487.269531 C 506.835938 485.558594 504.695312 485.132812 503.230469 485.132812 C 499.382812 485.132812 496.332031 489.164062 496.332031 494.171875 C 496.332031 499.300781 499.324219 503.269531 503.046875 503.269531 C 504.332031 503.269531 506.589844 502.902344 508.789062 500.828125 L 508.789062 502.84375 L 511.84375 502.84375 Z M 508.789062 497.40625 C 508.789062 497.957031 508.726562 498.6875 507.507812 499.789062 C 506.589844 500.582031 505.613281 500.886719 504.636719 500.886719 C 502.191406 500.886719 499.382812 499.054688 499.382812 494.230469 C 499.382812 489.101562 502.742188 487.511719 505.003906 487.511719 C 506.773438 487.511719 507.933594 488.367188 508.789062 489.652344 Z M 508.789062 497.40625 "/>
<path style=" stroke:none;fill-rule:nonzero;fill:rgb(0%,0%,0%);fill-opacity:1;" d="M 535.765625 476.335938 L 532.285156 476.335938 L 532.285156 479.820312 L 535.765625 479.820312 Z M 535.519531 485.558594 L 532.589844 485.558594 L 532.589844 502.84375 L 535.519531 502.84375 Z M 535.519531 485.558594 "/>
<path style=" stroke:none;fill-rule:nonzero;fill:rgb(0%,0%,0%);fill-opacity:1;" d="M 545.554688 487.820312 L 551.050781 487.820312 L 551.050781 485.558594 L 545.554688 485.558594 L 545.554688 480.613281 L 542.867188 480.613281 L 542.867188 485.558594 L 539.449219 485.558594 L 539.449219 487.820312 L 542.746094 487.820312 L 542.746094 498.199219 C 542.746094 500.519531 543.296875 503.269531 545.984375 503.269531 C 548.671875 503.269531 550.6875 502.292969 551.664062 501.804688 L 551.050781 499.484375 C 550.015625 500.339844 548.792969 500.765625 547.511719 500.765625 C 546.105469 500.765625 545.554688 499.605469 545.554688 497.527344 Z M 545.554688 487.820312 "/>
<path style=" stroke:none;fill-rule:nonzero;fill:rgb(0%,0%,0%);fill-opacity:1;" d="M 2.015625 549.570312 L 4.945312 549.570312 L 4.945312 522.519531 L 2.015625 522.519531 Z M 2.015625 549.570312 "/>
<path style=" stroke:none;fill-rule:nonzero;fill:rgb(0%,0%,0%);fill-opacity:1;" d="M 26.402344 541.023438 C 26.402344 535.769531 22.492188 531.617188 17.914062 531.617188 C 13.089844 531.617188 9.300781 535.890625 9.300781 541.023438 C 9.300781 546.152344 13.273438 550 17.851562 550 C 22.492188 550 26.402344 546.089844 26.402344 541.023438 Z M 17.851562 547.496094 C 15.164062 547.496094 12.355469 545.296875 12.355469 540.59375 C 12.355469 535.890625 15.289062 534 17.851562 534 C 20.601562 534 23.347656 536.015625 23.347656 540.59375 C 23.347656 545.234375 20.722656 547.496094 17.851562 547.496094 Z M 17.851562 547.496094 "/>
<path style=" stroke:none;fill-rule:nonzero;fill:rgb(0%,0%,0%);fill-opacity:1;" d="M 46.960938 541.023438 C 46.960938 535.769531 43.054688 531.617188 38.472656 531.617188 C 33.648438 531.617188 29.863281 535.890625 29.863281 541.023438 C 29.863281 546.152344 33.832031 550 38.410156 550 C 43.054688 550 46.960938 546.089844 46.960938 541.023438 Z M 38.410156 547.496094 C 35.726562 547.496094 32.914062 545.296875 32.914062 540.59375 C 32.914062 535.890625 35.847656 534 38.410156 534 C 41.160156 534 43.90625 536.015625 43.90625 540.59375 C 43.90625 545.234375 41.28125 547.496094 38.410156 547.496094 Z M 38.410156 547.496094 "/>
<path style=" stroke:none;fill-rule:nonzero;fill:rgb(0%,0%,0%);fill-opacity:1;" d="M 59.101562 538.945312 L 65.636719 532.289062 L 62.15625 532.289062 L 54.277344 540.351562 L 54.277344 522.519531 L 51.46875 522.519531 L 51.46875 549.570312 L 54.15625 549.570312 L 54.15625 544.074219 L 57.269531 540.839844 L 63.316406 549.570312 L 66.492188 549.570312 Z M 59.101562 538.945312 "/>
<path style=" stroke:none;fill-rule:nonzero;fill:rgb(0%,0%,0%);fill-opacity:1;" d="M 80.582031 532.839844 C 78.566406 531.921875 76.980469 531.617188 74.964844 531.617188 C 73.988281 531.617188 68.492188 531.617188 68.492188 536.6875 C 68.492188 538.640625 69.652344 539.863281 70.628906 540.59375 C 71.789062 541.449219 72.644531 541.632812 74.78125 542.058594 C 76.183594 542.304688 78.445312 542.792969 78.445312 544.871094 C 78.445312 547.554688 75.390625 547.554688 74.78125 547.554688 C 71.667969 547.554688 69.46875 546.089844 68.796875 545.664062 L 68.308594 548.289062 C 69.527344 548.898438 71.667969 550 74.839844 550 C 75.574219 550 77.710938 550 79.359375 548.777344 C 80.582031 547.800781 81.253906 546.273438 81.253906 544.5625 C 81.253906 542.425781 79.789062 541.144531 79.726562 541.023438 C 78.199219 539.617188 77.164062 539.371094 75.207031 539.066406 C 73.070312 538.640625 71.238281 538.210938 71.238281 536.320312 C 71.238281 533.9375 74.046875 533.9375 74.597656 533.9375 C 75.820312 533.9375 77.894531 534.058594 80.09375 535.402344 Z M 80.582031 532.839844 "/>
<path style=" stroke:none;fill-rule:nonzero;fill:rgb(0%,0%,0%);fill-opacity:1;" d="M 98.273438 549.570312 L 101.207031 549.570312 L 101.207031 522.519531 L 98.273438 522.519531 Z M 98.273438 549.570312 "/>
<path style=" stroke:none;fill-rule:nonzero;fill:rgb(0%,0%,0%);fill-opacity:1;" d="M 110.753906 523.066406 L 107.273438 523.066406 L 107.273438 526.546875 L 110.753906 526.546875 Z M 110.507812 532.289062 L 107.578125 532.289062 L 107.578125 549.570312 L 110.507812 549.570312 Z M 110.507812 532.289062 "/>
<path style=" stroke:none;fill-rule:nonzero;fill:rgb(0%,0%,0%);fill-opacity:1;" d="M 124.636719 538.945312 L 131.171875 532.289062 L 127.6875 532.289062 L 119.8125 540.351562 L 119.8125 522.519531 L 117.003906 522.519531 L 117.003906 549.570312 L 119.6875 549.570312 L 119.6875 544.074219 L 122.804688 540.839844 L 128.851562 549.570312 L 132.023438 549.570312 Z M 124.636719 538.945312 "/>
<path style=" stroke:none;fill-rule:nonzero;fill:rgb(0%,0%,0%);fill-opacity:1;" d="M 147.773438 541.023438 C 147.773438 539.738281 147.710938 536.808594 146.246094 534.425781 C 144.597656 532.042969 142.277344 531.617188 140.871094 531.617188 C 136.535156 531.617188 132.996094 535.769531 132.996094 540.777344 C 132.996094 545.90625 136.78125 550 141.421875 550 C 143.863281 550 146.125 549.082031 147.652344 547.984375 L 147.40625 545.417969 C 144.964844 547.496094 142.339844 547.617188 141.484375 547.617188 C 138.367188 547.617188 135.863281 544.871094 135.742188 541.023438 Z M 135.925781 538.882812 C 136.535156 535.953125 138.613281 534 140.871094 534 C 142.886719 534 145.027344 535.28125 145.574219 538.882812 Z M 135.925781 538.882812 "/>
<path style=" stroke:none;fill-rule:nonzero;fill:rgb(0%,0%,0%);fill-opacity:1;" d="M 168.800781 534.546875 L 174.296875 534.546875 L 174.296875 532.289062 L 168.800781 532.289062 L 168.800781 527.34375 L 166.113281 527.34375 L 166.113281 532.289062 L 162.695312 532.289062 L 162.695312 534.546875 L 165.992188 534.546875 L 165.992188 544.929688 C 165.992188 547.25 166.542969 550 169.226562 550 C 171.914062 550 173.929688 549.023438 174.90625 548.535156 L 174.296875 546.210938 C 173.257812 547.066406 172.039062 547.496094 170.753906 547.496094 C 169.351562 547.496094 168.800781 546.335938 168.800781 544.257812 Z M 168.800781 534.546875 "/>
<path style=" stroke:none;fill-rule:nonzero;fill:rgb(0%,0%,0%);fill-opacity:1;" d="M 193 537.96875 C 193 535.402344 192.386719 531.859375 187.625 531.859375 C 185.242188 531.859375 183.351562 533.023438 182.128906 534.671875 L 182.128906 522.519531 L 179.195312 522.519531 L 179.195312 549.570312 L 182.191406 549.570312 L 182.191406 540.042969 C 182.191406 537.480469 183.167969 534.242188 186.160156 534.242188 C 189.882812 534.242188 189.945312 536.992188 189.945312 538.210938 L 189.945312 549.570312 L 193 549.570312 Z M 193 537.96875 "/>
<path style=" stroke:none;fill-rule:nonzero;fill:rgb(0%,0%,0%);fill-opacity:1;" d="M 202.492188 523.066406 L 199.011719 523.066406 L 199.011719 526.546875 L 202.492188 526.546875 Z M 202.25 532.289062 L 199.316406 532.289062 L 199.316406 549.570312 L 202.25 549.570312 Z M 202.25 532.289062 "/>
<path style=" stroke:none;fill-rule:nonzero;fill:rgb(0%,0%,0%);fill-opacity:1;" d="M 218.816406 532.839844 C 216.800781 531.921875 215.214844 531.617188 213.199219 531.617188 C 212.222656 531.617188 206.726562 531.617188 206.726562 536.6875 C 206.726562 538.640625 207.886719 539.863281 208.863281 540.59375 C 210.023438 541.449219 210.878906 541.632812 213.015625 542.058594 C 214.421875 542.304688 216.679688 542.792969 216.679688 544.871094 C 216.679688 547.554688 213.625 547.554688 213.015625 547.554688 C 209.902344 547.554688 207.703125 546.089844 207.03125 545.664062 L 206.542969 548.289062 C 207.765625 548.898438 209.902344 550 213.078125 550 C 213.808594 550 215.949219 550 217.597656 548.777344 C 218.816406 547.800781 219.488281 546.273438 219.488281 544.5625 C 219.488281 542.425781 218.023438 541.144531 217.960938 541.023438 C 216.4375 539.617188 215.398438 539.371094 213.445312 539.066406 C 211.304688 538.640625 209.472656 538.210938 209.472656 536.320312 C 209.472656 533.9375 212.285156 533.9375 212.832031 533.9375 C 214.054688 533.9375 216.128906 534.058594 218.328125 535.402344 Z M 218.816406 532.839844 "/>
</g>
</svg>
