<?xml version="1.0" encoding="UTF-8"?>
<svg xmlns="http://www.w3.org/2000/svg" xmlns:xlink="http://www.w3.org/1999/xlink" width="113pt" height="67pt" viewBox="0 0 113 67" version="1.1">
<defs>
<clipPath id="clip1">
  <path d="M 83 0.269531 L 89 0.269531 L 89 8 L 83 8 Z M 83 0.269531 "/>
</clipPath>
<clipPath id="clip2">
  <path d="M 88 0.269531 L 93 0.269531 L 93 8 L 88 8 Z M 88 0.269531 "/>
</clipPath>
<clipPath id="clip3">
  <path d="M 102 0.269531 L 107 0.269531 L 107 9 L 102 9 Z M 102 0.269531 "/>
</clipPath>
<clipPath id="clip4">
  <path d="M 110 0.269531 L 113 0.269531 L 113 10 L 110 10 Z M 110 0.269531 "/>
</clipPath>
<clipPath id="clip5">
  <path d="M 29 0.269531 L 81 0.269531 L 81 42 L 29 42 Z M 29 0.269531 "/>
</clipPath>
</defs>
<g id="surface1">
<g clip-path="url(#clip1)" clip-rule="nonzero">
<path style=" stroke:none;fill-rule:nonzero;fill:rgb(0%,0%,0%);fill-opacity:1;" d="M 83.796875 0.484375 C 83.75 0.582031 83.894531 1.277344 84.132812 1.996094 C 84.636719 3.484375 84.855469 6.148438 84.519531 6.871094 C 84.300781 7.300781 84.375 7.324219 85.285156 7.179688 C 86.511719 7.039062 88.070312 6.269531 88.167969 5.765625 C 88.214844 5.574219 87.734375 5.117188 87.015625 4.660156 C 86.367188 4.253906 85.8125 3.796875 85.8125 3.652344 C 85.8125 3.507812 86.03125 2.957031 86.316406 2.40625 C 86.847656 1.375 86.773438 0.292969 86.175781 0.292969 C 85.886719 0.292969 85.886719 0.414062 86.078125 0.871094 C 86.292969 1.324219 86.246094 1.566406 85.933594 2.070312 C 85.308594 3.03125 85.046875 2.835938 85.140625 1.492188 C 85.214844 0.339844 85.191406 0.292969 84.566406 0.292969 C 84.207031 0.292969 83.871094 0.367188 83.796875 0.484375 Z M 86.558594 5.019531 C 87.085938 5.355469 87.421875 5.71875 87.328125 5.8125 C 87.015625 6.078125 85.574219 6.605469 85.453125 6.484375 C 85.40625 6.4375 85.285156 5.933594 85.191406 5.382812 C 85 4.179688 85.191406 4.109375 86.558594 5.019531 Z M 86.558594 5.019531 "/>
</g>
<g clip-path="url(#clip2)" clip-rule="nonzero">
<path style=" stroke:none;fill-rule:nonzero;fill:rgb(0%,0%,0%);fill-opacity:1;" d="M 89.148438 0.941406 C 88.8125 1.804688 89.054688 4.902344 89.535156 5.910156 C 89.992188 6.871094 90.925781 7.375 91.597656 7.011719 C 92.199219 6.675781 92.175781 6.582031 91.503906 6.703125 C 91.140625 6.773438 90.78125 6.605469 90.375 6.171875 C 89.847656 5.621094 89.773438 5.285156 89.679688 3.460938 C 89.605469 1.734375 89.679688 1.347656 90.015625 1.109375 C 90.230469 0.941406 90.351562 0.703125 90.253906 0.558594 C 89.964844 0.078125 89.414062 0.292969 89.148438 0.941406 Z M 89.148438 0.941406 "/>
</g>
<g clip-path="url(#clip3)" clip-rule="nonzero">
<path style=" stroke:none;fill-rule:nonzero;fill:rgb(0%,0%,0%);fill-opacity:1;" d="M 102.972656 0.796875 C 103.070312 1.109375 103.359375 1.851562 103.597656 2.429688 C 104.054688 3.460938 104.054688 3.460938 104.628906 3.101562 C 105.710938 2.382812 105.855469 3.558594 104.796875 4.515625 C 103.621094 5.550781 103.527344 7.324219 104.558594 8.429688 C 105.300781 9.222656 105.636719 8.742188 105.804688 6.726562 C 105.878906 5.789062 106.046875 4.925781 106.167969 4.804688 C 106.285156 4.683594 106.238281 4.085938 106.046875 3.339844 C 105.878906 2.667969 105.734375 1.878906 105.734375 1.589844 C 105.734375 0.894531 105.496094 0.292969 105.230469 0.292969 C 105.109375 0.292969 105.015625 0.582031 105.015625 0.917969 C 105.015625 1.613281 104.628906 2.453125 104.316406 2.453125 C 104.199219 2.453125 103.957031 1.996094 103.765625 1.445312 C 103.429688 0.390625 102.664062 -0.234375 102.972656 0.796875 Z M 105.253906 6.148438 C 105.253906 7.46875 104.964844 8.070312 104.679688 7.347656 C 104.488281 6.871094 104.488281 5.71875 104.679688 5.238281 C 104.992188 4.445312 105.253906 4.902344 105.253906 6.148438 Z M 105.253906 6.148438 "/>
</g>
<g clip-path="url(#clip4)" clip-rule="nonzero">
<path style=" stroke:none;fill-rule:nonzero;fill:rgb(0%,0%,0%);fill-opacity:1;" d="M 111.46875 0.820312 C 112.476562 1.878906 112.453125 4.757812 111.421875 7.710938 C 111.0625 8.691406 110.847656 9.558594 110.894531 9.628906 C 111.109375 9.820312 112.238281 7.011719 112.574219 5.40625 C 113.03125 3.246094 113.007812 2.523438 112.453125 1.300781 C 112.140625 0.582031 111.855469 0.292969 111.496094 0.292969 L 110.992188 0.292969 Z M 111.46875 0.820312 "/>
</g>
<g clip-path="url(#clip5)" clip-rule="nonzero">
<path style=" stroke:none;fill-rule:nonzero;fill:rgb(0%,0%,0%);fill-opacity:1;" d="M 78.664062 0.84375 C 78.519531 1.011719 78.445312 1.542969 78.519531 1.996094 C 78.636719 2.8125 78.613281 2.835938 74.007812 6.414062 C 71.460938 8.382812 65.941406 12.773438 61.695312 16.132812 C 51.78125 24.054688 52.476562 23.550781 51.519531 23.5 C 51.015625 23.476562 50.65625 23.597656 50.535156 23.8125 C 50.414062 24.003906 50.125 24.582031 49.886719 25.0625 C 49.476562 25.902344 42.132812 32.046875 33.0625 39.148438 C 31.308594 40.515625 29.917969 41.691406 29.992188 41.765625 C 30.0625 41.835938 30.566406 41.574219 31.117188 41.1875 C 32.269531 40.398438 42.085938 32.550781 45.496094 29.71875 C 48.613281 27.101562 50.125 26.164062 50.894531 26.355469 C 51.421875 26.5 51.542969 26.382812 51.972656 25.445312 C 52.527344 24.199219 53.34375 23.40625 57.375 20.1875 C 77.796875 3.941406 78.734375 3.246094 80.125 2.835938 C 80.75 2.644531 80.679688 1.375 80.007812 0.917969 C 79.359375 0.460938 79 0.4375 78.664062 0.84375 Z M 78.664062 0.84375 "/>
</g>
<path style=" stroke:none;fill-rule:nonzero;fill:rgb(0%,0%,0%);fill-opacity:1;" d="M 93.613281 1.230469 C 93.542969 1.375 93.207031 1.492188 92.871094 1.492188 C 92.175781 1.492188 92.125 1.757812 92.726562 2.285156 C 93.085938 2.621094 93.160156 2.980469 93.085938 4.179688 C 93.039062 5.261719 93.085938 5.550781 93.230469 5.214844 C 93.351562 4.949219 93.46875 4.445312 93.46875 4.085938 C 93.496094 3.171875 93.855469 3.078125 94.695312 3.675781 C 95.679688 4.421875 95.824219 4.109375 94.957031 3.101562 C 94.503906 2.597656 94.238281 2.046875 94.261719 1.734375 C 94.335938 1.15625 93.878906 0.820312 93.613281 1.230469 Z M 93.613281 1.230469 "/>
<path style=" stroke:none;fill-rule:nonzero;fill:rgb(0%,0%,0%);fill-opacity:1;" d="M 107.847656 4.011719 C 107.773438 4.109375 107.824219 4.46875 107.964844 4.851562 C 108.183594 5.40625 108.160156 5.71875 107.824219 6.4375 L 107.390625 7.300781 L 107.992188 7.15625 C 109.070312 6.894531 109.71875 6.582031 110.03125 6.199219 C 110.316406 5.863281 110.269531 5.835938 109.621094 5.957031 C 108.855469 6.125 108.804688 6.054688 108.566406 4.515625 C 108.496094 4.039062 108.085938 3.773438 107.847656 4.011719 Z M 107.847656 4.011719 "/>
<path style=" stroke:none;fill-rule:nonzero;fill:rgb(0%,0%,0%);fill-opacity:1;" d="M 96.832031 4.589844 C 97.40625 5.019531 97.40625 5.046875 97 5.691406 C 96.351562 6.652344 96.613281 7.039062 97.742188 6.726562 C 98.941406 6.414062 99.183594 6.148438 98.4375 5.957031 C 97.910156 5.835938 97.8125 5.667969 97.8125 4.972656 C 97.8125 4.179688 97.765625 4.132812 97.046875 4.132812 L 96.253906 4.132812 Z M 96.832031 4.589844 "/>
<path style=" stroke:none;fill-rule:nonzero;fill:rgb(0%,0%,0%);fill-opacity:1;" d="M 101.175781 5.574219 C 100.910156 6.101562 100.789062 6.535156 100.910156 6.535156 C 101.199219 6.535156 102.132812 5.238281 102.132812 4.878906 C 102.132812 4.300781 101.628906 4.660156 101.175781 5.574219 Z M 101.175781 5.574219 "/>
<path style=" stroke:none;fill-rule:nonzero;fill:rgb(0%,0%,0%);fill-opacity:1;" d="M 80.03125 9.414062 C 79.980469 11.980469 79.933594 15.605469 79.910156 17.453125 C 79.886719 23.382812 79.839844 23.980469 79.429688 24.390625 C 79.238281 24.605469 78.78125 24.773438 78.445312 24.773438 C 77.367188 24.773438 78.085938 25.109375 79.503906 25.253906 L 80.824219 25.398438 L 80.65625 24.078125 C 80.558594 23.332031 80.390625 18.675781 80.316406 13.734375 C 80.175781 5.574219 80.148438 5.164062 80.03125 9.414062 Z M 80.03125 9.414062 "/>
<path style=" stroke:none;fill-rule:nonzero;fill:rgb(0%,0%,0%);fill-opacity:1;" d="M 56.796875 10.660156 L 56.316406 11.164062 L 56.941406 12.339844 C 58.023438 14.332031 58.644531 14.332031 57.949219 12.339844 C 57.46875 10.972656 57.734375 10.78125 58.980469 11.597656 C 60.253906 12.4375 60.636719 12.367188 60.589844 11.261719 C 60.566406 10.828125 60.519531 10.683594 60.445312 10.902344 C 60.300781 11.476562 59.964844 11.453125 58.644531 10.734375 C 58.023438 10.398438 57.46875 10.132812 57.398438 10.132812 C 57.328125 10.132812 57.0625 10.375 56.796875 10.660156 Z M 56.796875 10.660156 "/>
<path style=" stroke:none;fill-rule:nonzero;fill:rgb(0%,0%,0%);fill-opacity:1;" d="M 1.8125 12.222656 C 1.8125 13.636719 2.390625 15.84375 2.871094 16.324219 C 3.351562 16.804688 3.949219 16.515625 4.285156 15.652344 C 4.644531 14.742188 4.933594 14.742188 4.933594 15.652344 C 4.933594 16.207031 4.621094 16.660156 3.519531 17.742188 C 2.4375 18.796875 2.054688 19.347656 1.910156 20.046875 C 1.574219 21.988281 2.726562 23.8125 4.117188 23.476562 C 5.007812 23.238281 5.460938 21.941406 5.65625 19.0625 C 5.796875 17.046875 5.917969 16.542969 6.277344 16.253906 C 6.710938 15.917969 6.710938 15.917969 6.207031 15.894531 C 5.605469 15.894531 5.535156 15.675781 5.292969 13.398438 C 5.101562 11.332031 4.8125 11.238281 4.429688 13.0625 C 3.925781 15.269531 3.710938 15.894531 3.375 15.894531 C 2.964844 15.894531 2.605469 14.789062 2.414062 12.820312 C 2.222656 11.019531 1.8125 10.613281 1.8125 12.222656 Z M 5.101562 19.542969 C 4.910156 22.492188 4.191406 23.550781 3.160156 22.398438 C 2.582031 21.773438 2.34375 20.5 2.582031 19.589844 C 2.796875 18.726562 4.574219 16.996094 4.980469 17.238281 C 5.148438 17.355469 5.199219 18.101562 5.101562 19.542969 Z M 5.101562 19.542969 "/>
<path style=" stroke:none;fill-rule:nonzero;fill:rgb(0%,0%,0%);fill-opacity:1;" d="M 13.980469 16.300781 C 13.359375 17.597656 12.855469 18.726562 12.855469 18.820312 C 12.855469 18.941406 13.238281 19.011719 13.695312 19.011719 L 14.535156 19.011719 L 14.535156 24.460938 C 14.558594 33.941406 14.992188 48.726562 15.351562 53.214844 C 15.902344 59.476562 15.949219 58.996094 14.605469 59.1875 C 13.957031 59.261719 10.550781 59.332031 6.972656 59.355469 C 3.421875 59.382812 0.277344 59.476562 0.015625 59.574219 C -0.25 59.691406 3.160156 59.789062 7.765625 59.789062 L 16 59.8125 L 15.902344 62.140625 C 15.855469 63.4375 15.734375 64.710938 15.664062 64.972656 C 15.445312 65.550781 15.804688 66.171875 16.191406 65.957031 C 16.359375 65.835938 16.453125 64.710938 16.453125 62.71875 L 16.453125 59.644531 L 20.007812 59.476562 C 26.007812 59.1875 53.558594 58.878906 72.664062 58.851562 L 90.855469 58.851562 L 91.238281 59.453125 C 91.765625 60.269531 91.910156 60.054688 92.054688 58.347656 L 92.175781 56.910156 L 93.589844 57.796875 L 95.007812 58.683594 L 93.710938 59.355469 C 92.414062 60.003906 91.140625 61.132812 91.382812 61.375 C 91.453125 61.445312 91.839844 61.230469 92.246094 60.894531 C 93.0625 60.199219 94.839844 59.355469 95.488281 59.332031 C 95.726562 59.332031 96.160156 59.214844 96.421875 59.070312 C 96.902344 58.804688 96.832031 58.734375 95.460938 58.132812 C 94.671875 57.75 93.496094 57.078125 92.871094 56.597656 C 91.308594 55.421875 90.710938 55.445312 90.832031 56.71875 C 90.855469 56.910156 90.589844 57.222656 90.253906 57.367188 C 89.917969 57.535156 89.679688 57.75 89.75 57.871094 C 89.992188 58.253906 83.511719 58.398438 52.574219 58.636719 C 35.824219 58.78125 20.847656 58.949219 19.308594 59.019531 L 16.503906 59.140625 L 16.359375 58.230469 C 15.710938 54.101562 15.421875 47.5 15.328125 33.605469 L 15.207031 18.773438 L 15.902344 18.535156 C 17.460938 17.980469 17.773438 17.691406 17.726562 16.851562 C 17.679688 15.796875 16.503906 14.117188 15.710938 14.019531 C 15.160156 13.949219 14.992188 14.164062 13.980469 16.300781 Z M 16.910156 15.964844 C 17.535156 17.09375 17.535156 17.117188 17.054688 17.476562 C 16.382812 17.980469 15.664062 17.8125 15.46875 17.09375 C 15.328125 16.515625 15.300781 16.515625 14.941406 17.355469 C 14.535156 18.246094 13.933594 18.703125 13.695312 18.269531 C 13.476562 17.933594 15.566406 14.691406 15.949219 14.765625 C 16.140625 14.789062 16.574219 15.339844 16.910156 15.964844 Z M 16.910156 15.964844 "/>
<path style=" stroke:none;fill-rule:nonzero;fill:rgb(0%,0%,0%);fill-opacity:1;" d="M 43.214844 19.492188 C 43 19.851562 43.765625 20.980469 44.125 20.863281 C 44.292969 20.8125 44.4375 20.597656 44.488281 20.355469 C 44.65625 19.566406 43.597656 18.871094 43.214844 19.492188 Z M 43.214844 19.492188 "/>
<path style=" stroke:none;fill-rule:nonzero;fill:rgb(0%,0%,0%);fill-opacity:1;" d="M 44.796875 21.460938 C 44.511719 22.179688 45.015625 22.734375 45.710938 22.492188 C 46.261719 22.324219 46.382812 21.675781 45.925781 21.222656 C 45.46875 20.765625 45.015625 20.886719 44.796875 21.460938 Z M 44.796875 21.460938 "/>
<path style=" stroke:none;fill-rule:nonzero;fill:rgb(0%,0%,0%);fill-opacity:1;" d="M 75.734375 22.566406 C 75.734375 22.683594 75.949219 23.019531 76.214844 23.332031 C 77.03125 24.269531 76.671875 26.910156 75.351562 29.789062 C 74.605469 31.421875 74.773438 31.636719 75.613281 30.171875 C 76.980469 27.871094 77.582031 24.484375 76.886719 22.972656 C 76.644531 22.421875 75.734375 22.109375 75.734375 22.566406 Z M 75.734375 22.566406 "/>
<path style=" stroke:none;fill-rule:nonzero;fill:rgb(0%,0%,0%);fill-opacity:1;" d="M 72.160156 24.339844 L 71.871094 25.132812 L 71.269531 24.414062 C 70.8125 23.863281 70.695312 23.789062 70.695312 24.125 C 70.695312 24.675781 71.367188 25.972656 71.65625 25.972656 C 71.773438 25.972656 71.941406 25.851562 72.015625 25.734375 C 72.277344 25.300781 72.613281 25.734375 72.613281 26.523438 C 72.613281 27.054688 72.421875 27.4375 71.964844 27.796875 C 71.34375 28.277344 71.34375 28.347656 71.605469 29.261719 C 71.941406 30.390625 72.519531 30.964844 72.878906 30.605469 C 73.261719 30.222656 73.40625 27.917969 73.140625 25.878906 C 72.855469 23.667969 72.566406 23.1875 72.160156 24.339844 Z M 72.832031 28.421875 C 72.832031 28.734375 72.734375 29.1875 72.636719 29.453125 C 72.445312 29.910156 72.445312 29.910156 72.160156 29.382812 C 71.964844 28.996094 71.941406 28.734375 72.132812 28.375 C 72.46875 27.726562 72.855469 27.773438 72.832031 28.421875 Z M 72.832031 28.421875 "/>
<path style=" stroke:none;fill-rule:nonzero;fill:rgb(0%,0%,0%);fill-opacity:1;" d="M 55.574219 23.980469 C 55.574219 24.078125 55.789062 24.390625 56.078125 24.675781 C 56.511719 25.132812 56.582031 25.542969 56.605469 27.726562 C 56.65625 30.4375 56.847656 30.558594 57.230469 28.179688 C 57.421875 26.957031 57.613281 26.574219 58.191406 26.070312 C 58.597656 25.734375 58.933594 25.347656 58.933594 25.253906 C 58.933594 24.894531 56.894531 23.8125 56.222656 23.8125 C 55.863281 23.8125 55.574219 23.886719 55.574219 23.980469 Z M 57.902344 25.132812 C 58.070312 25.613281 57.855469 25.828125 57.398438 25.660156 C 57.183594 25.566406 57.085938 25.347656 57.160156 25.132812 C 57.351562 24.675781 57.710938 24.675781 57.902344 25.132812 Z M 57.902344 25.132812 "/>
<path style=" stroke:none;fill-rule:nonzero;fill:rgb(0%,0%,0%);fill-opacity:1;" d="M 61.191406 24.101562 C 61.09375 24.246094 60.972656 25.132812 60.902344 26.070312 C 60.832031 27.558594 60.878906 27.871094 61.382812 28.613281 C 62.125 29.691406 62.941406 29.8125 64.335938 28.996094 C 65.101562 28.542969 65.414062 28.179688 65.535156 27.605469 C 65.796875 26.429688 65.871094 26.40625 66.496094 27.125 C 67.140625 27.84375 67.308594 27.460938 66.710938 26.574219 C 66.445312 26.1875 66.375 25.757812 66.496094 25.253906 C 66.664062 24.507812 66.445312 24.316406 65.964844 24.796875 C 65.773438 24.988281 65.511719 24.941406 64.980469 24.675781 C 64.070312 24.199219 63.972656 24.199219 63.972656 24.628906 C 63.972656 24.820312 64.214844 25.011719 64.527344 25.0625 C 64.933594 25.109375 65.078125 25.324219 65.125 25.972656 C 65.269531 27.390625 64.789062 28.542969 63.925781 28.828125 C 62.582031 29.308594 62.054688 29.164062 61.671875 28.253906 C 61.167969 27.003906 61.214844 25.324219 61.8125 24.964844 C 62.4375 24.558594 62.4375 23.8125 61.839844 23.8125 C 61.574219 23.8125 61.285156 23.933594 61.191406 24.101562 Z M 61.191406 24.101562 "/>
<path style=" stroke:none;fill-rule:nonzero;fill:rgb(0%,0%,0%);fill-opacity:1;" d="M 68.582031 27.199219 C 68.414062 27.894531 68.34375 28.492188 68.390625 28.542969 C 68.582031 28.757812 69.519531 26.644531 69.398438 26.308594 C 69.160156 25.660156 68.847656 25.972656 68.582031 27.199219 Z M 68.582031 27.199219 "/>
<path style=" stroke:none;fill-rule:nonzero;fill:rgb(0%,0%,0%);fill-opacity:1;" d="M 34.839844 27.101562 C 34.910156 27.484375 35.078125 28.085938 35.199219 28.46875 C 35.488281 29.40625 35.34375 29.5 34.335938 29.019531 C 32.824219 28.300781 32.558594 28.46875 33.132812 29.863281 C 33.277344 30.222656 33.160156 30.269531 32.269531 30.222656 C 31.71875 30.199219 31.214844 30.292969 31.167969 30.4375 C 31.070312 30.726562 32.054688 32.070312 32.246094 31.878906 C 32.292969 31.804688 32.222656 31.589844 32.054688 31.375 C 31.476562 30.675781 32.078125 30.652344 33.328125 31.300781 C 34 31.660156 34.597656 31.902344 34.671875 31.828125 C 34.742188 31.757812 34.550781 31.277344 34.261719 30.726562 C 33.949219 30.199219 33.757812 29.71875 33.804688 29.644531 C 33.878906 29.597656 34.261719 29.71875 34.671875 29.910156 C 35.871094 30.535156 35.964844 30.4375 35.796875 28.972656 C 35.703125 28.15625 35.75 27.652344 35.894531 27.652344 C 36.015625 27.652344 36.613281 28.039062 37.238281 28.492188 C 38.292969 29.308594 38.894531 29.550781 38.726562 29.117188 C 38.582031 28.734375 35.4375 26.453125 35.054688 26.453125 C 34.765625 26.453125 34.71875 26.621094 34.839844 27.101562 Z M 34.839844 27.101562 "/>
<path style=" stroke:none;fill-rule:nonzero;fill:rgb(0%,0%,0%);fill-opacity:1;" d="M 52.453125 26.691406 C 52.453125 26.8125 52.765625 26.933594 53.148438 26.933594 C 53.558594 26.933594 53.941406 26.8125 54.015625 26.691406 C 54.109375 26.550781 53.824219 26.453125 53.316406 26.453125 C 52.839844 26.453125 52.453125 26.550781 52.453125 26.691406 Z M 52.453125 26.691406 "/>
<path style=" stroke:none;fill-rule:nonzero;fill:rgb(0%,0%,0%);fill-opacity:1;" d="M 51.664062 34.375 C 51.445312 40.972656 51.398438 41.476562 50.824219 41.691406 C 50.605469 41.765625 48.039062 42.003906 45.132812 42.199219 C 37.382812 42.726562 32.054688 43.179688 31.886719 43.347656 C 31.503906 43.710938 32.246094 43.734375 35.796875 43.375 C 37.910156 43.179688 42.160156 42.84375 45.253906 42.652344 C 52.453125 42.199219 52.527344 42.171875 52.308594 41.5 C 52.214844 41.214844 52.070312 38.164062 52 34.734375 L 51.855469 28.492188 Z M 51.664062 34.375 "/>
<path style=" stroke:none;fill-rule:nonzero;fill:rgb(0%,0%,0%);fill-opacity:1;" d="M 26.917969 42.339844 C 26.414062 43.039062 26.4375 44.140625 26.941406 44.40625 C 27.183594 44.550781 27.589844 44.550781 28.023438 44.40625 C 28.574219 44.214844 28.695312 44.019531 28.695312 43.398438 C 28.695312 42.628906 28.09375 41.8125 27.542969 41.8125 C 27.398438 41.8125 27.109375 42.054688 26.917969 42.339844 Z M 26.917969 42.339844 "/>
<path style=" stroke:none;fill-rule:nonzero;fill:rgb(0%,0%,0%);fill-opacity:1;" d="M 46.933594 44.886719 C 46.933594 45.03125 47.175781 45.558594 47.488281 46.0625 C 48.207031 47.285156 48.207031 50.429688 47.488281 52.375 C 46.550781 54.964844 46.597656 54.726562 47.054688 54.171875 C 48.085938 52.949219 48.46875 51.605469 48.46875 49.132812 C 48.46875 47.355469 48.375 46.542969 48.085938 45.988281 C 47.628906 45.171875 46.933594 44.476562 46.933594 44.886719 Z M 46.933594 44.886719 "/>
<path style=" stroke:none;fill-rule:nonzero;fill:rgb(0%,0%,0%);fill-opacity:1;" d="M 41.992188 47.261719 C 41.703125 48.414062 41.292969 48.507812 40.910156 47.523438 L 40.597656 46.734375 L 40.527344 47.382812 C 40.382812 48.292969 40.8125 48.964844 41.582031 49.0625 C 42.636719 49.179688 42.613281 50.019531 41.535156 50.667969 C 40.429688 51.316406 40.308594 51.703125 40.910156 52.710938 C 41.488281 53.621094 42.085938 53.957031 42.46875 53.574219 C 42.832031 53.214844 42.832031 46.972656 42.46875 46.613281 C 42.300781 46.445312 42.160156 46.613281 41.992188 47.261719 Z M 42.375 51.894531 C 42.375 52.878906 42.039062 53.140625 41.460938 52.566406 C 40.910156 52.011719 41.292969 50.933594 42.0625 50.933594 C 42.277344 50.933594 42.375 51.269531 42.375 51.894531 Z M 42.375 51.894531 "/>
<path style=" stroke:none;fill-rule:nonzero;fill:rgb(0%,0%,0%);fill-opacity:1;" d="M 22.574219 47.09375 C 22.359375 47.453125 22 51.4375 22.140625 51.820312 C 22.335938 52.347656 22.621094 51.941406 22.789062 50.933594 C 22.957031 49.828125 23.246094 49.734375 23.796875 50.574219 C 24.328125 51.390625 24.6875 51.339844 24.496094 50.453125 C 24.375 49.925781 24.421875 49.734375 24.664062 49.734375 C 24.832031 49.734375 24.6875 49.492188 24.328125 49.230469 C 23.992188 48.964844 23.628906 48.4375 23.535156 48.054688 C 23.34375 47.238281 22.8125 46.683594 22.574219 47.09375 Z M 22.574219 47.09375 "/>
<path style=" stroke:none;fill-rule:nonzero;fill:rgb(0%,0%,0%);fill-opacity:1;" d="M 31.335938 47.332031 C 31.191406 47.597656 30.855469 47.8125 30.613281 47.8125 C 30.085938 47.8125 29.964844 48.171875 30.398438 48.4375 C 30.589844 48.535156 30.613281 49.0625 30.519531 50.019531 C 30.328125 51.582031 30.710938 51.820312 31 50.332031 C 31.070312 49.878906 31.191406 49.492188 31.261719 49.492188 C 31.335938 49.492188 31.644531 49.710938 31.980469 49.972656 C 32.871094 50.667969 32.992188 50.332031 32.175781 49.492188 C 31.527344 48.820312 31.503906 48.703125 31.765625 47.980469 C 31.933594 47.523438 32.054688 47.117188 32.054688 47.019531 C 32.054688 46.660156 31.574219 46.878906 31.335938 47.332031 Z M 31.335938 47.332031 "/>
<path style=" stroke:none;fill-rule:nonzero;fill:rgb(0%,0%,0%);fill-opacity:1;" d="M 26.605469 47.742188 C 26.007812 48.652344 26.007812 51.171875 26.628906 51.871094 C 27.109375 52.398438 28.765625 52.589844 29.054688 52.132812 C 29.148438 51.988281 28.8125 51.894531 28.238281 51.894531 C 27.039062 51.894531 26.773438 51.484375 26.773438 49.660156 C 26.773438 48.339844 27.183594 47.597656 27.734375 47.933594 C 27.878906 48.003906 27.972656 47.863281 27.972656 47.597656 C 27.972656 46.851562 27.109375 46.949219 26.605469 47.742188 Z M 26.605469 47.742188 "/>
<path style=" stroke:none;fill-rule:nonzero;fill:rgb(0%,0%,0%);fill-opacity:1;" d="M 44.703125 49.515625 C 44.488281 50.332031 44.511719 51.726562 44.75 52.109375 C 45.0625 52.589844 45.351562 50.238281 45.0625 49.515625 L 44.847656 48.917969 Z M 44.703125 49.515625 "/>
<path style=" stroke:none;fill-rule:nonzero;fill:rgb(0%,0%,0%);fill-opacity:1;" d="M 37.191406 51.054688 C 36.972656 51.652344 36.855469 52.207031 36.925781 52.277344 C 37.117188 52.46875 37.742188 51.4375 37.933594 50.621094 C 38.199219 49.542969 37.644531 49.878906 37.191406 51.054688 Z M 37.191406 51.054688 "/>
<path style=" stroke:none;fill-rule:nonzero;fill:rgb(0%,0%,0%);fill-opacity:1;" d="M 34.214844 51.703125 C 34.214844 52.613281 34.285156 52.878906 34.453125 52.613281 C 34.765625 52.132812 34.765625 50.453125 34.453125 50.453125 C 34.335938 50.453125 34.214844 51.03125 34.214844 51.703125 Z M 34.214844 51.703125 "/>
<path style=" stroke:none;fill-rule:nonzero;fill:rgb(0%,0%,0%);fill-opacity:1;" d="M 99.277344 57.339844 C 99.445312 57.582031 99.855469 57.988281 100.167969 58.253906 L 100.742188 58.757812 L 99.949219 60.003906 C 99.542969 60.703125 99.253906 61.347656 99.351562 61.445312 C 99.542969 61.613281 99.925781 61.230469 100.742188 60.03125 L 101.148438 59.453125 L 102.351562 60.773438 C 103.8125 62.382812 103.957031 61.925781 102.589844 60.125 C 101.605469 58.878906 101.605469 58.828125 102.015625 58.375 C 102.253906 58.109375 102.589844 57.894531 102.757812 57.894531 C 102.925781 57.894531 103 57.703125 102.925781 57.414062 C 102.855469 57.148438 102.636719 56.933594 102.46875 56.933594 C 102.277344 56.933594 101.941406 57.148438 101.726562 57.414062 C 101.488281 57.675781 101.175781 57.894531 101.03125 57.894531 C 100.886719 57.894531 100.476562 57.675781 100.140625 57.414062 C 99.375 56.789062 98.824219 56.765625 99.277344 57.339844 Z M 99.277344 57.339844 "/>
</g>
</svg>
