<?xml version="1.0" encoding="UTF-8"?>
<svg xmlns="http://www.w3.org/2000/svg" xmlns:xlink="http://www.w3.org/1999/xlink" width="120pt" height="102pt" viewBox="0 0 120 102" version="1.1">
<defs>
<clipPath id="clip1">
  <path d="M 99 0.730469 L 105 0.730469 L 105 12 L 99 12 Z M 99 0.730469 "/>
</clipPath>
</defs>
<g id="surface1">
<g clip-path="url(#clip1)" clip-rule="nonzero">
<path style=" stroke:none;fill-rule:nonzero;fill:rgb(0%,0%,0%);fill-opacity:1;" d="M 101.566406 1.59375 C 101.496094 2.117188 101.28125 2.667969 101.0625 2.839844 C 100.777344 3.082031 100.632812 2.984375 100.222656 2.3125 C 99.960938 1.882812 99.742188 1.449219 99.742188 1.328125 C 99.742188 1.234375 99.648438 1.160156 99.503906 1.160156 C 99.121094 1.160156 99.238281 1.953125 99.742188 2.769531 C 100.367188 3.824219 101.257812 3.851562 101.785156 2.839844 C 102.214844 1.976562 102.503906 2.046875 102.71875 3.082031 C 102.816406 3.609375 102.695312 4.160156 102.289062 4.953125 C 101.160156 7.1875 101.28125 9.679688 102.550781 10.953125 C 103.152344 11.554688 103.175781 11.554688 103.511719 11.097656 C 103.800781 10.738281 103.847656 10.039062 103.726562 7.449219 C 103.585938 4.449219 103.609375 4.1875 104.089844 3.535156 C 104.351562 3.152344 104.472656 2.839844 104.328125 2.839844 C 104.207031 2.839844 104.015625 2.960938 103.945312 3.105469 C 103.632812 3.5625 103.246094 3.171875 102.863281 1.976562 C 102.359375 0.488281 101.785156 0.296875 101.566406 1.59375 Z M 103.199219 6.464844 C 103.414062 8.621094 103.367188 10.523438 103.105469 10.523438 C 102.769531 10.523438 102.191406 9.273438 102 8.144531 C 101.832031 7.160156 102.433594 4.996094 102.839844 4.996094 C 102.960938 4.996094 103.105469 5.667969 103.199219 6.464844 Z M 103.199219 6.464844 "/>
</g>
<path style=" stroke:none;fill-rule:nonzero;fill:rgb(0%,0%,0%);fill-opacity:1;" d="M 90.863281 2.839844 C 90.40625 4.660156 90.480469 4.59375 89.304688 3.898438 C 88.703125 3.5625 88.152344 3.320312 88.078125 3.394531 C 87.792969 3.679688 88.441406 4.378906 89.207031 4.617188 C 90.097656 4.90625 90.121094 5.046875 89.785156 7.257812 C 89.542969 8.769531 90.023438 8.578125 90.40625 7.019531 C 90.550781 6.441406 90.769531 5.960938 90.863281 5.960938 C 90.960938 5.960938 91.441406 6.273438 91.945312 6.679688 C 92.785156 7.328125 93.265625 7.570312 93.265625 7.304688 C 93.265625 7.234375 92.761719 6.707031 92.136719 6.128906 L 91.007812 5.046875 L 91.296875 3.796875 C 91.679688 2.144531 91.273438 1.257812 90.863281 2.839844 Z M 90.863281 2.839844 "/>
<path style=" stroke:none;fill-rule:nonzero;fill:rgb(0%,0%,0%);fill-opacity:1;" d="M 94.726562 3.171875 C 94.296875 3.679688 94.800781 3.871094 95.734375 3.585938 C 96.144531 3.441406 96.839844 3.226562 97.222656 3.105469 C 97.847656 2.910156 97.753906 2.867188 96.480469 2.867188 C 95.472656 2.839844 94.921875 2.960938 94.726562 3.171875 Z M 94.726562 3.171875 "/>
<path style=" stroke:none;fill-rule:nonzero;fill:rgb(0%,0%,0%);fill-opacity:1;" d="M 97.105469 4.019531 C 96.382812 4.234375 95.566406 4.570312 95.304688 4.714844 C 94.847656 4.976562 94.871094 4.976562 95.496094 4.996094 C 96.167969 4.996094 98.207031 4.160156 98.449219 3.777344 C 98.59375 3.511719 98.710938 3.488281 97.105469 4.019531 Z M 97.105469 4.019531 "/>
<path style=" stroke:none;fill-rule:nonzero;fill:rgb(0%,0%,0%);fill-opacity:1;" d="M 84.191406 8.890625 C 84.023438 9.058594 83.902344 9.273438 83.902344 9.394531 C 83.902344 9.730469 81.839844 12.226562 75.769531 19.257812 C 72.769531 22.738281 68.929688 27.226562 67.222656 29.265625 C 57.359375 41.046875 55.054688 43.660156 54.648438 43.492188 C 54.433594 43.421875 54.097656 43.355469 53.902344 43.328125 C 53.207031 43.328125 52.414062 42.707031 43.296875 34.785156 L 37.414062 29.699219 L 37.246094 25.808594 C 37.152344 23.667969 37.03125 21.730469 36.960938 21.511719 C 36.863281 21.203125 37.078125 21.035156 37.800781 20.839844 C 38.351562 20.699219 38.785156 20.53125 38.785156 20.457031 C 38.785156 20.265625 35.808594 16.039062 35.664062 16.039062 C 35.425781 16.039062 34.992188 17.363281 34.847656 18.5625 C 34.777344 19.210938 34.632812 20.242188 34.558594 20.816406 L 34.390625 21.871094 L 35.375 21.707031 C 36.289062 21.5625 36.382812 21.609375 36.480469 22.089844 C 36.695312 23.164062 36.839844 28.1875 36.648438 28.472656 C 36.433594 28.832031 29.257812 22.234375 27.097656 19.640625 C 25.558594 17.789062 25.273438 17.601562 25.152344 18.246094 C 25.078125 18.5625 30.238281 23.648438 35.328125 28.28125 L 36.792969 29.621094 L 37.078125 37.402344 C 37.246094 41.699219 37.464844 47.890625 37.585938 51.203125 C 37.800781 56.578125 38.113281 60.609375 38.425781 61.660156 C 38.496094 61.859375 38.398438 62.21875 38.230469 62.433594 C 37.847656 62.984375 36.023438 63.171875 22.703125 63.917969 C 12.359375 64.492188 6.792969 64.660156 5.785156 64.378906 C 5.449219 64.304688 5.136719 63.851562 4.871094 63.058594 C 4.632812 62.410156 4.320312 61.882812 4.175781 61.882812 C 4.03125 61.882812 3.046875 62.789062 1.96875 63.898438 L 0 65.910156 L 1.992188 66.007812 C 3.550781 66.082031 4.152344 66.226562 4.703125 66.632812 C 5.089844 66.917969 5.449219 67.160156 5.519531 67.160156 C 5.59375 67.160156 5.617188 66.707031 5.59375 66.128906 L 5.542969 65.117188 L 8.304688 65.046875 C 9.816406 65.027344 16.847656 64.660156 23.902344 64.28125 C 31.007812 63.898438 36.816406 63.65625 36.9375 63.777344 C 37.152344 63.992188 36.671875 64.617188 32.664062 69.441406 C 31.464844 70.882812 28.535156 74.503906 26.160156 77.457031 C 23.808594 80.410156 21.601562 83.144531 21.289062 83.53125 C 20.6875 84.273438 20.761719 84.730469 21.40625 84.171875 C 21.625 84.007812 23.113281 82.1875 24.695312 80.117188 C 29.425781 74.027344 36.3125 65.578125 37.222656 64.785156 C 38.160156 63.96875 38.375 63.898438 38.734375 64.328125 C 39.070312 64.761719 40.558594 72.632812 41.0625 76.691406 C 41.257812 78.082031 40.992188 78.320312 40.34375 77.410156 L 39.9375 76.882812 L 40.105469 77.433594 C 40.222656 77.839844 40.152344 78.082031 39.839844 78.292969 C 39.191406 78.777344 39.625 79.136719 40.65625 78.992188 C 41.136719 78.917969 41.640625 78.753906 41.785156 78.65625 C 41.902344 78.535156 42.214844 78.441406 42.457031 78.441406 C 42.792969 78.441406 42.863281 78.5625 42.769531 78.851562 C 41.808594 81.367188 41.519531 82.039062 41.375 82.039062 C 41.304688 82.039062 40.65625 81.394531 39.984375 80.601562 C 39.289062 79.785156 38.664062 79.210938 38.59375 79.28125 C 38.375 79.472656 41.160156 83.480469 41.519531 83.480469 C 41.734375 83.480469 41.953125 83.027344 42.121094 82.28125 C 42.480469 80.578125 43.199219 79.304688 44.183594 78.535156 C 45.144531 77.816406 45.289062 77.363281 44.496094 77.554688 C 44.183594 77.621094 43.464844 77.742188 42.863281 77.839844 L 41.785156 78.007812 L 40.847656 72.511719 C 39.503906 64.617188 39.40625 64.066406 39.550781 63.898438 C 39.625 63.824219 42.695312 63.609375 46.390625 63.414062 C 50.0625 63.226562 55.921875 62.910156 59.425781 62.722656 C 62.929688 62.53125 67.585938 62.363281 69.792969 62.363281 L 73.777344 62.363281 L 76.992188 65.410156 C 85.367188 73.378906 91.199219 79.113281 93.503906 81.65625 C 95.902344 84.320312 96.863281 84.992188 96.863281 84.007812 C 96.863281 83.742188 96.601562 83.433594 96.289062 83.285156 C 95.976562 83.144531 90.792969 78.203125 84.769531 72.273438 C 76.222656 63.871094 73.945312 61.492188 74.257812 61.378906 C 74.496094 61.28125 78.097656 61.039062 82.222656 60.796875 C 86.375 60.585938 91.03125 60.320312 92.542969 60.171875 C 94.054688 60.058594 98.136719 59.890625 101.59375 59.789062 C 108.503906 59.621094 108.625 59.648438 108.625 61.019531 C 108.625 62.457031 108.960938 62.554688 110.207031 61.523438 C 110.832031 60.992188 111.601562 60.203125 111.9375 59.769531 L 112.535156 58.996094 L 111.601562 58.640625 C 109.921875 57.96875 109.585938 57.730469 109.054688 56.867188 C 108.527344 56.027344 108.527344 56.027344 108.359375 56.601562 C 108.265625 56.9375 108.191406 57.585938 108.167969 58.089844 C 108.144531 58.90625 108.097656 58.976562 107.257812 59.097656 C 106.753906 59.164062 104.398438 59.285156 102.023438 59.363281 C 99.648438 59.457031 92.207031 59.839844 85.488281 60.226562 C 76.824219 60.707031 73.152344 60.824219 72.816406 60.65625 C 72.574219 60.511719 70.128906 58.328125 67.390625 55.808594 C 64.65625 53.265625 60.9375 49.859375 59.113281 48.226562 C 57.289062 46.59375 55.679688 45.035156 55.558594 44.789062 C 55.222656 44.164062 55.390625 43.929688 59.902344 38.601562 C 73.777344 22.1875 81.9375 12.65625 83.832031 10.738281 C 85.273438 9.246094 85.558594 8.601562 84.769531 8.601562 C 84.625 8.601562 84.359375 8.722656 84.191406 8.890625 Z M 36.382812 19.234375 C 36.382812 20.503906 36.097656 21.082031 35.472656 21.082031 C 35.089844 21.082031 35.160156 19.808594 35.640625 18.609375 C 36.046875 17.578125 36.382812 17.839844 36.382812 19.234375 Z M 37.558594 19.714844 C 37.847656 20.074219 37.679688 20.363281 37.175781 20.363281 C 37.007812 20.363281 36.863281 20.144531 36.863281 19.882812 C 36.863281 19.328125 37.175781 19.257812 37.558594 19.714844 Z M 43.871094 35.890625 C 47.207031 38.789062 50.710938 41.816406 51.625 42.5625 C 52.558594 43.328125 53.398438 44.097656 53.496094 44.265625 C 53.617188 44.503906 53.230469 45.128906 52.296875 46.257812 C 51.527344 47.144531 50.207031 48.753906 49.34375 49.785156 C 48.503906 50.816406 46.078125 53.667969 43.945312 56.097656 C 41.832031 58.523438 39.863281 60.777344 39.601562 61.113281 C 39.121094 61.714844 39.070312 61.714844 38.953125 61.28125 C 38.496094 59.839844 38.0625 52.617188 37.585938 38.960938 C 37.296875 30.464844 37.296875 30.394531 37.558594 30.488281 C 37.679688 30.511719 40.511719 32.960938 43.871094 35.890625 Z M 54.625 47.144531 C 54.625 47.890625 54.527344 48.203125 54.289062 48.203125 C 54.097656 48.203125 53.902344 48.367188 53.832031 48.5625 C 53.640625 49.039062 54.121094 58.640625 54.382812 59.839844 C 54.527344 60.464844 54.574219 58.90625 54.503906 55.328125 C 54.457031 52.328125 54.480469 49.882812 54.601562 49.882812 C 54.695312 49.882812 54.960938 52.328125 55.199219 55.328125 C 55.441406 58.355469 55.703125 61.039062 55.824219 61.328125 C 55.992188 61.738281 55.945312 61.859375 55.511719 61.976562 C 54.289062 62.285156 52.96875 62.117188 52.367188 61.570312 C 51.769531 61.019531 51.742188 60.851562 51.503906 56.457031 C 51.382812 53.960938 51.214844 51.171875 51.167969 50.285156 C 51.046875 48.777344 51.097656 48.585938 51.625 48.058594 C 51.9375 47.742188 52.367188 47.480469 52.535156 47.480469 C 52.726562 47.480469 53.183594 47.097656 53.519531 46.640625 C 53.878906 46.160156 54.289062 45.851562 54.40625 45.917969 C 54.527344 46.019531 54.625 46.542969 54.625 47.144531 Z M 56.953125 46.976562 C 57.71875 47.621094 58.800781 48.632812 59.375 49.210938 L 60.40625 50.285156 L 60.601562 55.019531 C 60.695312 57.609375 60.863281 59.789062 60.960938 59.890625 C 61.367188 60.320312 61.558594 59.503906 61.34375 58.160156 C 61.007812 56.164062 61.03125 51.632812 61.367188 51.414062 C 61.511719 51.34375 61.894531 51.511719 62.207031 51.824219 C 62.734375 52.378906 62.785156 52.617188 62.902344 55.996094 C 63.070312 60.226562 63.144531 60.679688 63.648438 60.679688 C 63.9375 60.679688 63.984375 60.5625 63.839844 60.246094 C 63.742188 60.035156 63.625 58.402344 63.550781 56.648438 C 63.433594 52.785156 63.40625 52.808594 66.167969 55.28125 L 68.039062 56.960938 L 67.921875 58.328125 C 67.847656 59.074219 67.847656 59.910156 67.945312 60.171875 C 68.230469 61.113281 68.542969 60.679688 68.542969 59.363281 C 68.542969 58.523438 68.640625 58.039062 68.832031 58.039062 C 69.289062 58.039062 69.984375 58.785156 69.984375 59.285156 C 69.984375 59.554688 70.152344 59.722656 70.414062 59.722656 C 70.65625 59.722656 71.089844 59.984375 71.398438 60.292969 L 71.929688 60.851562 L 71.015625 61.019531 C 69.695312 61.234375 66.792969 61.1875 66.40625 60.945312 C 66.167969 60.777344 66.097656 60.203125 66.167969 58.402344 C 66.238281 56.816406 66.167969 56.027344 66 55.953125 C 65.832031 55.90625 65.6875 56.769531 65.566406 58.570312 C 65.472656 60.035156 65.375 61.28125 65.351562 61.304688 C 65.328125 61.328125 63.503906 61.492188 61.296875 61.640625 C 58.128906 61.882812 57.191406 61.882812 56.929688 61.660156 C 56.425781 61.257812 56.113281 59.503906 55.726562 54.917969 C 55.128906 48.152344 55.03125 45.796875 55.296875 45.796875 C 55.441406 45.796875 56.183594 46.328125 56.953125 46.976562 Z M 50.640625 51.730469 C 51 55.929688 51.3125 61.90625 51.167969 62.074219 C 51.070312 62.164062 50.207031 62.265625 49.222656 62.3125 L 47.472656 62.410156 L 47.304688 61.066406 C 46.894531 57.851562 47.472656 52.953125 48.167969 53.648438 C 48.289062 53.769531 48.503906 55.492188 48.671875 57.511719 C 48.886719 60.226562 49.03125 61.160156 49.273438 61.160156 C 49.511719 61.160156 49.535156 60.917969 49.414062 60.128906 C 49.296875 59.578125 49.222656 57.320312 49.222656 55.136719 C 49.222656 51.535156 49.273438 51.082031 49.679688 50.621094 C 49.945312 50.335938 50.207031 50.117188 50.328125 50.117188 C 50.425781 50.117188 50.566406 50.839844 50.640625 51.730469 Z M 47.304688 53.480469 C 47.230469 53.601562 47.113281 53.722656 47.039062 53.722656 C 46.992188 53.722656 46.945312 53.601562 46.945312 53.480469 C 46.945312 53.335938 47.0625 53.242188 47.207031 53.242188 C 47.328125 53.242188 47.375 53.335938 47.304688 53.480469 Z M 46.128906 55.113281 C 45.9375 55.472656 45.574219 55.976562 45.289062 56.21875 C 44.519531 56.910156 44.617188 56.117188 45.40625 55.1875 C 46.175781 54.273438 46.585938 54.226562 46.128906 55.113281 Z M 46.65625 60.128906 C 46.609375 61.328125 46.535156 62.363281 46.464844 62.433594 C 46.390625 62.480469 45.289062 62.601562 44.015625 62.699219 L 41.664062 62.839844 L 41.664062 62.144531 C 41.664062 60.679688 42.214844 60.171875 42.480469 61.402344 C 42.550781 61.808594 42.769531 62.117188 42.960938 62.117188 C 43.414062 62.117188 43.753906 61.570312 43.390625 61.449219 C 42.960938 61.304688 43.054688 59.816406 43.511719 59.335938 C 43.894531 58.976562 43.921875 58.976562 44.089844 59.386719 C 44.183594 59.648438 44.28125 60.246094 44.28125 60.730469 C 44.304688 61.355469 44.425781 61.640625 44.664062 61.640625 C 44.953125 61.640625 44.976562 61.328125 44.878906 59.769531 C 44.734375 57.96875 44.761719 57.898438 45.527344 56.867188 L 46.34375 55.785156 L 46.535156 56.867188 C 46.632812 57.441406 46.679688 58.90625 46.65625 60.128906 Z M 43.824219 57.65625 C 43.824219 58.019531 43.390625 58.402344 43.199219 58.210938 C 43.03125 58.039062 43.367188 57.320312 43.609375 57.320312 C 43.726562 57.320312 43.824219 57.464844 43.824219 57.65625 Z M 109.824219 58.640625 C 110.0625 58.953125 110.039062 58.996094 109.609375 58.996094 C 109.320312 58.996094 109.105469 58.859375 109.105469 58.640625 C 109.105469 58.449219 109.199219 58.28125 109.320312 58.28125 C 109.441406 58.28125 109.65625 58.449219 109.824219 58.640625 Z M 42.382812 59.480469 C 42.382812 59.601562 42.167969 59.816406 41.902344 59.960938 C 41.375 60.246094 41.257812 59.984375 41.710938 59.53125 C 42.046875 59.195312 42.382812 59.144531 42.382812 59.480469 Z M 110.542969 60.441406 C 109.488281 61.328125 109.34375 61.328125 109.34375 60.441406 C 109.34375 59.742188 109.390625 59.722656 110.375 59.722656 L 111.382812 59.742188 Z M 40.65625 61.929688 C 40.609375 62.601562 40.464844 62.742188 39.9375 62.789062 C 39.167969 62.890625 39.097656 62.601562 39.648438 61.761719 C 40.222656 60.871094 40.753906 60.96875 40.65625 61.929688 Z M 4.34375 63.585938 C 4.535156 64.472656 4.464844 64.59375 3.648438 64.378906 C 2.929688 64.210938 2.855469 63.898438 3.433594 63.273438 C 3.984375 62.667969 4.152344 62.722656 4.34375 63.585938 Z M 4.078125 64.996094 C 4.414062 65.117188 4.703125 65.386719 4.703125 65.601562 C 4.703125 65.867188 4.535156 65.910156 3.9375 65.789062 C 2.449219 65.503906 1.96875 65.335938 1.871094 65.046875 C 1.753906 64.691406 3.214844 64.660156 4.078125 64.996094 Z M 4.078125 64.996094 "/>
<path style=" stroke:none;fill-rule:nonzero;fill:rgb(0%,0%,0%);fill-opacity:1;" d="M 57.886719 48.871094 C 57.816406 48.992188 57.863281 50.097656 58.007812 51.34375 C 58.128906 52.59375 58.320312 55.210938 58.441406 57.171875 C 58.632812 60.292969 58.894531 61.523438 59.304688 61.136719 C 59.351562 61.066406 59.257812 59.335938 59.0625 57.292969 C 58.871094 55.257812 58.703125 52.660156 58.703125 51.511719 C 58.703125 50.386719 58.632812 49.28125 58.558594 49.066406 C 58.390625 48.65625 58.078125 48.5625 57.886719 48.871094 Z M 57.886719 48.871094 "/>
<path style=" stroke:none;fill-rule:nonzero;fill:rgb(0%,0%,0%);fill-opacity:1;" d="M 42.265625 11.621094 C 42.191406 12.414062 42.097656 13.257812 42.070312 13.492188 C 42 14.3125 41.519531 14.164062 41.113281 13.234375 C 40.894531 12.730469 40.703125 12.105469 40.65625 11.867188 C 40.609375 11.601562 40.441406 11.363281 40.246094 11.285156 C 39.816406 11.144531 40.03125 12.128906 40.777344 13.640625 C 41.425781 14.984375 42.070312 15.171875 42.457031 14.144531 C 42.792969 13.257812 43.007812 13.210938 43.199219 13.996094 C 43.296875 14.410156 43.152344 14.960938 42.695312 15.777344 C 42.023438 16.976562 42.023438 16.976562 42.503906 17.457031 C 42.769531 17.722656 43.390625 18.007812 43.921875 18.105469 C 44.832031 18.273438 44.832031 18.246094 44.710938 17.578125 C 44.640625 17.195312 44.496094 16.304688 44.398438 15.585938 C 44.328125 14.890625 44.0625 13.953125 43.824219 13.542969 C 43.585938 13.136719 43.246094 12.320312 43.078125 11.722656 C 42.625 10.089844 42.433594 10.089844 42.265625 11.621094 Z M 43.921875 15.945312 C 44.351562 17.074219 43.847656 17.890625 43.152344 17.195312 C 42.648438 16.691406 42.960938 15.5625 43.609375 15.5625 C 43.703125 15.5625 43.847656 15.730469 43.921875 15.945312 Z M 43.921875 15.945312 "/>
<path style=" stroke:none;fill-rule:nonzero;fill:rgb(0%,0%,0%);fill-opacity:1;" d="M 79.34375 38.097656 C 79.34375 38.285156 79.609375 38.789062 79.945312 39.226562 C 81.191406 40.859375 81.625 43.234375 80.902344 44.578125 C 80.710938 44.960938 80.089844 45.65625 79.535156 46.136719 C 78.265625 47.195312 78.648438 47.285156 80.039062 46.257812 C 81.695312 45.058594 82.175781 43.066406 81.359375 40.714844 C 80.976562 39.585938 79.367188 37.492188 79.34375 38.097656 Z M 79.34375 38.097656 "/>
<path style=" stroke:none;fill-rule:nonzero;fill:rgb(0%,0%,0%);fill-opacity:1;" d="M 66.214844 40.328125 C 65.832031 40.785156 65.183594 43.929688 65.183594 45.246094 C 65.183594 46.785156 65.6875 47.480469 66.742188 47.480469 C 67.199219 47.480469 67.632812 47.363281 67.726562 47.21875 C 67.824219 47.027344 67.65625 46.996094 67.152344 47.117188 C 66.527344 47.242188 66.359375 47.164062 66 46.640625 C 65.496094 45.851562 65.664062 43.59375 66.359375 41.699219 C 66.839844 40.472656 66.742188 39.679688 66.214844 40.328125 Z M 66.214844 40.328125 "/>
<path style=" stroke:none;fill-rule:nonzero;fill:rgb(0%,0%,0%);fill-opacity:1;" d="M 76.609375 40.570312 C 76.535156 40.882812 76.441406 41.601562 76.367188 42.203125 C 76.320312 42.796875 76.175781 43.691406 76.078125 44.164062 C 75.839844 45.5625 76.367188 45.292969 76.679688 43.882812 C 77.136719 41.742188 77.28125 40.039062 76.992188 40.039062 C 76.824219 40.039062 76.65625 40.28125 76.609375 40.570312 Z M 76.609375 40.570312 "/>
<path style=" stroke:none;fill-rule:nonzero;fill:rgb(0%,0%,0%);fill-opacity:1;" d="M 61.128906 40.492188 C 60.839844 40.691406 60.816406 40.929688 61.054688 41.960938 C 61.222656 42.632812 61.34375 43.882812 61.34375 44.722656 C 61.34375 45.5625 61.464844 46.328125 61.585938 46.402344 C 61.726562 46.492188 61.824219 45.917969 61.824219 44.867188 L 61.824219 43.160156 L 62.785156 42.5625 C 63.839844 41.890625 64.007812 41.3125 63.3125 40.691406 C 62.832031 40.257812 61.679688 40.160156 61.128906 40.492188 Z M 63 41.335938 C 63.238281 41.621094 63.167969 41.769531 62.566406 42.082031 C 61.945312 42.394531 61.824219 42.394531 61.824219 42.105469 C 61.824219 41.097656 62.449219 40.691406 63 41.335938 Z M 63 41.335938 "/>
<path style=" stroke:none;fill-rule:nonzero;fill:rgb(0%,0%,0%);fill-opacity:1;" d="M 69.886719 41.386719 C 69.671875 43.039062 69.71875 45.320312 69.960938 45.320312 C 70.078125 45.320312 70.273438 44.3125 70.367188 43.089844 C 70.632812 40.28125 70.632812 40.449219 70.320312 40.355469 C 70.152344 40.304688 69.984375 40.714844 69.886719 41.386719 Z M 69.886719 41.386719 "/>
<path style=" stroke:none;fill-rule:nonzero;fill:rgb(0%,0%,0%);fill-opacity:1;" d="M 72.792969 44.699219 C 72.097656 46.1875 72.023438 46.523438 72.335938 46.523438 C 72.671875 46.523438 73.632812 44.242188 73.535156 43.738281 C 73.464844 43.402344 73.246094 43.691406 72.792969 44.699219 Z M 72.792969 44.699219 "/>
<path style=" stroke:none;fill-rule:nonzero;fill:rgb(0%,0%,0%);fill-opacity:1;" d="M 115.34375 58.257812 C 115.34375 58.492188 115.726562 58.996094 116.183594 59.335938 C 116.640625 59.699219 117.023438 60.152344 117.023438 60.34375 C 117.023438 60.535156 116.664062 61.421875 116.207031 62.3125 C 114.574219 65.578125 114.839844 65.9375 116.566406 62.769531 L 117.574219 60.871094 L 118.511719 61.808594 L 119.472656 62.722656 L 118.726562 61.378906 C 117.910156 59.910156 117.792969 59.242188 118.34375 59.242188 C 118.535156 59.242188 118.703125 59.027344 118.703125 58.785156 C 118.703125 57.992188 118.273438 57.992188 117.863281 58.785156 L 117.457031 59.53125 L 116.566406 58.660156 C 115.558594 57.679688 115.34375 57.609375 115.34375 58.257812 Z M 115.34375 58.257812 "/>
<path style=" stroke:none;fill-rule:nonzero;fill:rgb(0%,0%,0%);fill-opacity:1;" d="M 87.023438 88.210938 C 87.023438 88.355469 87.40625 88.996094 87.886719 89.621094 L 88.753906 90.753906 L 88.246094 92.050781 C 87.695312 93.511719 87.648438 93.800781 87.960938 93.800781 C 88.078125 93.800781 88.414062 93.292969 88.703125 92.667969 L 89.230469 91.542969 L 90.289062 92.722656 C 90.863281 93.394531 91.320312 93.851562 91.34375 93.75 C 91.34375 93.65625 90.910156 92.914062 90.382812 92.074219 C 89.785156 91.160156 89.472656 90.441406 89.566406 90.203125 C 90.144531 88.90625 89.785156 87.871094 89.207031 89.164062 L 88.921875 89.789062 L 87.984375 88.882812 C 87.457031 88.355469 87.023438 88.066406 87.023438 88.210938 Z M 87.023438 88.210938 "/>
<path style=" stroke:none;fill-rule:nonzero;fill:rgb(0%,0%,0%);fill-opacity:1;" d="M 96.265625 89.046875 C 96.359375 89.480469 96.671875 90.394531 96.984375 91.089844 C 97.390625 91.996094 97.679688 92.332031 98.113281 92.410156 C 98.664062 92.480469 98.664062 92.53125 98.640625 95.242188 C 98.617188 98.3125 98.28125 99.488281 97.246094 100.160156 C 96.359375 100.738281 95.496094 100.449219 94.296875 99.152344 C 93.121094 97.90625 92.976562 97.953125 93.886719 99.320312 C 94.679688 100.492188 95.425781 101 96.457031 101 C 97.390625 101 98.207031 100.328125 98.6875 99.175781 C 99.40625 97.449219 99.625 90.898438 99 89.722656 C 98.832031 89.363281 98.785156 89.480469 98.398438 91.328125 C 98.160156 92.5 97.414062 91.523438 96.863281 89.285156 C 96.550781 88.089844 96.023438 87.871094 96.265625 89.046875 Z M 96.265625 89.046875 "/>
<path style=" stroke:none;fill-rule:nonzero;fill:rgb(0%,0%,0%);fill-opacity:1;" d="M 108.382812 88.882812 C 108.070312 89.265625 108.238281 90.441406 108.625 90.441406 C 108.769531 90.441406 108.863281 90.171875 108.863281 89.839844 C 108.863281 89.410156 109.03125 89.21875 109.464844 89.097656 C 110.183594 88.929688 111.265625 89.554688 111.265625 90.152344 C 111.265625 90.871094 110.328125 92.097656 109.199219 92.914062 C 108.574219 93.320312 107.902344 93.800781 107.6875 93.96875 C 107.472656 94.113281 107.375 94.304688 107.472656 94.402344 C 107.617188 94.570312 114.839844 93.203125 115.054688 92.957031 C 115.273438 92.742188 114.046875 92.835938 112.007812 93.203125 C 110.878906 93.394531 109.945312 93.511719 109.921875 93.488281 C 109.871094 93.460938 110.230469 92.957031 110.6875 92.363281 C 112.464844 90.128906 111.960938 88.523438 109.488281 88.523438 C 109.03125 88.523438 108.550781 88.691406 108.382812 88.882812 Z M 108.382812 88.882812 "/>
<path style=" stroke:none;fill-rule:nonzero;fill:rgb(0%,0%,0%);fill-opacity:1;" d="M 93.023438 89.789062 C 93.023438 90.273438 92.855469 90.464844 92.183594 90.679688 C 91.703125 90.851562 91.34375 91.113281 91.34375 91.328125 C 91.34375 91.59375 91.488281 91.640625 91.894531 91.523438 C 93.457031 91.039062 93.601562 91.066406 94.199219 92.21875 C 94.511719 92.816406 94.871094 93.320312 94.992188 93.320312 C 95.113281 93.320312 95.039062 93.035156 94.871094 92.648438 C 94.128906 91.234375 94.152344 90.992188 94.992188 90.796875 L 95.785156 90.632812 L 94.847656 90.292969 C 94.320312 90.105469 93.695312 89.769531 93.457031 89.554688 C 93.046875 89.195312 93.023438 89.195312 93.023438 89.789062 Z M 93.023438 89.789062 "/>
<path style=" stroke:none;fill-rule:nonzero;fill:rgb(0%,0%,0%);fill-opacity:1;" d="M 100.777344 91.160156 C 100.464844 91.28125 100.222656 91.492188 100.222656 91.617188 C 100.222656 92.074219 100.65625 92.117188 101.328125 91.761719 C 101.710938 91.570312 102.648438 91.402344 103.414062 91.402344 C 104.160156 91.402344 104.785156 91.304688 104.785156 91.160156 C 104.785156 90.871094 101.519531 90.871094 100.777344 91.160156 Z M 100.777344 91.160156 "/>
<path style=" stroke:none;fill-rule:nonzero;fill:rgb(0%,0%,0%);fill-opacity:1;" d="M 102.695312 92.53125 C 102.265625 92.578125 101.902344 92.722656 101.902344 92.867188 C 101.902344 93.203125 104.089844 93.105469 104.902344 92.722656 L 105.625 92.410156 L 104.542969 92.410156 C 103.945312 92.433594 103.105469 92.480469 102.695312 92.53125 Z M 102.695312 92.53125 "/>
</g>
</svg>
