<?xml version="1.0" encoding="UTF-8"?>
<svg xmlns="http://www.w3.org/2000/svg" xmlns:xlink="http://www.w3.org/1999/xlink" width="101pt" height="54pt" viewBox="0 0 101 54" version="1.1">
<defs>
<clipPath id="clip1">
  <path d="M 0 0.980469 L 87 0.980469 L 87 50 L 0 50 Z M 0 0.980469 "/>
</clipPath>
</defs>
<g id="surface1">
<g clip-path="url(#clip1)" clip-rule="nonzero">
<path style=" stroke:none;fill-rule:nonzero;fill:rgb(0%,0%,0%);fill-opacity:1;" d="M 71.269531 1.445312 C 67.308594 1.660156 61.429688 2.042969 58.1875 2.234375 C 54.949219 2.453125 50.796875 2.667969 48.949219 2.714844 C 47.101562 2.789062 45.421875 2.882812 45.230469 2.957031 C 45.035156 3.027344 42.445312 3.195312 39.46875 3.339844 C 27.230469 3.941406 16.308594 4.5625 12.589844 4.921875 C 10.40625 5.117188 6.925781 5.429688 4.835938 5.597656 C 2.773438 5.765625 0.996094 5.980469 0.902344 6.074219 C 0.828125 6.148438 0.925781 6.410156 1.164062 6.675781 C 1.523438 7.058594 1.550781 7.539062 1.308594 11.765625 C 1.1875 14.332031 0.996094 20.089844 0.925781 24.578125 C 0.78125 31.996094 0.710938 32.789062 0.324219 33.316406 C -0.179688 33.941406 -0.0820312 34.347656 0.515625 34.132812 C 0.878906 33.988281 0.878906 34.613281 0.734375 41.453125 C 0.613281 46.082031 0.636719 48.941406 0.78125 48.941406 C 1.09375 48.941406 1.308594 47.476562 1.308594 45.316406 C 1.308594 43.949219 1.40625 43.394531 1.691406 43.15625 C 1.886719 42.988281 3.253906 41.117188 4.71875 39.003906 C 8.027344 34.226562 11.820312 29.117188 12.804688 28.203125 L 13.523438 27.507812 L 13.644531 28.082031 C 13.71875 28.394531 13.886719 29.402344 14.027344 30.339844 C 14.964844 36.125 19.980469 39.773438 27.902344 40.445312 C 28.980469 40.539062 29.941406 40.683594 29.988281 40.78125 C 30.0625 40.875 29.054688 42.292969 27.78125 43.921875 C 25.09375 47.402344 23.75 49.371094 23.941406 49.5625 C 24.179688 49.828125 24.492188 49.46875 26.773438 46.277344 C 29.699219 42.148438 31.214844 40.539062 32.148438 40.539062 C 32.796875 40.539062 36.539062 39.773438 37.597656 39.4375 C 38.292969 39.21875 38.101562 39.605469 36.445312 41.859375 C 34.382812 44.667969 31.980469 48.21875 32.148438 48.21875 C 32.675781 48.21875 33.324219 47.5 34.308594 45.890625 C 35.484375 43.949219 38.148438 40.417969 38.867188 39.820312 C 39.277344 39.484375 39.300781 39.507812 39.15625 40.179688 C 39.011719 40.804688 39.035156 40.851562 39.277344 40.492188 C 39.445312 40.277344 39.757812 39.773438 39.972656 39.386719 C 40.644531 38.1875 44.390625 36.988281 45.445312 37.636719 C 45.710938 37.804688 45.566406 38.117188 44.699219 39.148438 C 43.238281 40.851562 39.230469 46.898438 39.230469 47.402344 C 39.230469 48.125 39.878906 47.332031 41.796875 44.1875 C 43.910156 40.804688 44.988281 39.507812 45.539062 39.722656 C 45.78125 39.796875 46.046875 39.605469 46.332031 39.125 C 46.574219 38.714844 46.859375 38.378906 46.980469 38.378906 C 47.101562 38.378906 47.941406 38.597656 48.851562 38.882812 C 50.339844 39.339844 50.941406 39.363281 54.878906 39.292969 C 58.453125 39.195312 59.628906 39.074219 61.1875 38.644531 C 66.035156 37.300781 68.84375 36.148438 72.589844 34.011719 C 74.390625 32.980469 74.414062 32.980469 76.789062 32.980469 C 79.597656 32.980469 80.820312 33.460938 81.710938 34.898438 L 82.238281 35.765625 L 81.734375 36.316406 C 81.230469 36.867188 81.253906 37.25 81.804688 37.035156 C 81.972656 36.964844 82.238281 37.082031 82.40625 37.277344 C 82.8125 37.78125 82.238281 39.027344 81.132812 40.011719 C 78.15625 42.628906 74.339844 42.964844 72.515625 40.804688 C 70.933594 38.90625 71.773438 36.050781 74.316406 34.753906 C 75.347656 34.226562 75.78125 34.324219 75.179688 34.921875 C 74.820312 35.285156 74.84375 35.402344 75.230469 36.316406 C 75.46875 36.84375 75.734375 37.875 75.828125 38.546875 L 75.996094 39.820312 L 75.230469 39.820312 C 74.558594 39.820312 74.484375 39.867188 74.75 40.179688 C 75.0625 40.5625 75.324219 40.539062 77.582031 39.914062 C 79.117188 39.484375 79.214844 38.980469 77.941406 37.949219 L 77.027344 37.226562 L 77.699219 36.53125 C 78.253906 35.933594 78.300781 35.765625 78.0625 35.429688 C 77.894531 35.1875 77.4375 34.921875 77.054688 34.828125 C 76.667969 34.707031 76.285156 34.492188 76.238281 34.324219 C 76.140625 34.058594 76.40625 34.011719 77.363281 34.109375 C 78.300781 34.203125 78.78125 34.394531 79.308594 34.898438 C 80.125 35.691406 80.507812 35.621094 79.789062 34.828125 C 78.421875 33.386719 75.972656 33.195312 73.933594 34.394531 C 71.773438 35.667969 70.910156 37.371094 71.363281 39.4375 C 72.230469 43.300781 76.980469 43.949219 80.988281 40.78125 C 82.355469 39.699219 82.910156 38.667969 82.910156 37.226562 C 82.910156 35.859375 83.148438 35.5 85.644531 32.90625 C 87.734375 30.746094 86.75 31.058594 84.539062 33.269531 L 82.691406 35.117188 L 81.78125 34.132812 C 80.605469 32.882812 79.453125 32.5 76.742188 32.5 C 75.515625 32.5 74.507812 32.476562 74.507812 32.429688 C 74.507812 32.378906 74.867188 31.898438 75.324219 31.347656 C 75.757812 30.796875 76.308594 29.980469 76.523438 29.570312 C 77.054688 28.515625 77.390625 25.613281 77.148438 23.980469 C 77.027344 23.164062 77.054688 22.46875 77.222656 22.179688 C 77.582031 21.484375 82.285156 15.722656 83.867188 14.042969 C 84.589844 13.277344 85.429688 12.554688 85.71875 12.4375 C 86.390625 12.195312 87.179688 10.78125 86.675781 10.78125 C 86.148438 10.78125 83.390625 13.636719 80.195312 17.5 C 78.613281 19.417969 77.171875 21.125 77.003906 21.316406 C 76.765625 21.578125 76.550781 21.339844 75.828125 19.898438 C 75.347656 18.941406 74.414062 17.597656 73.789062 16.921875 L 72.613281 15.675781 L 74.460938 13.660156 C 75.46875 12.53125 77.726562 10.179688 79.453125 8.402344 C 81.949219 5.882812 82.71875 5.234375 83.078125 5.355469 C 83.4375 5.476562 83.699219 5.285156 84.179688 4.613281 C 85.164062 3.21875 84.613281 3.074219 83.003906 4.324219 C 82.261719 4.898438 79.574219 7.515625 77.054688 10.132812 C 72.804688 14.523438 72.421875 14.882812 71.75 14.789062 C 71.125 14.691406 66.421875 12.820312 66.132812 12.554688 C 65.84375 12.269531 72.828125 5.882812 75.46875 3.988281 C 78.230469 2.019531 78.925781 1.683594 80.726562 1.417969 C 81.683594 1.300781 82.886719 1.25 83.414062 1.324219 C 84.035156 1.417969 84.347656 1.394531 84.347656 1.203125 C 84.347656 0.84375 80.148438 0.914062 71.269531 1.445312 Z M 76.859375 1.875 C 76.835938 1.972656 76.09375 2.644531 75.230469 3.363281 C 73.644531 4.660156 69.371094 8.429688 66.613281 10.949219 L 65.078125 12.339844 L 63.949219 11.789062 C 63.347656 11.5 61.957031 11.066406 60.878906 10.828125 C 59.796875 10.613281 58.910156 10.371094 58.910156 10.300781 C 58.910156 9.941406 65.363281 3.820312 65.726562 3.820312 C 65.941406 3.820312 66.347656 3.4375 66.613281 2.980469 C 67.070312 2.210938 67.214844 2.140625 68.222656 2.117188 C 68.84375 2.089844 70.476562 1.996094 71.867188 1.898438 C 75.710938 1.660156 76.957031 1.636719 76.859375 1.875 Z M 64.667969 3.722656 C 63.949219 4.445312 62.078125 6.242188 60.515625 7.707031 L 57.710938 10.371094 L 55.117188 10.78125 C 50.484375 11.523438 47.363281 12.628906 44.460938 14.546875 L 43.550781 15.171875 L 40.261719 14.5 C 37.238281 13.875 36.710938 13.851562 33.492188 13.972656 C 31.574219 14.066406 28.8125 14.355469 27.347656 14.597656 C 25.910156 14.859375 24.683594 15.027344 24.660156 15.003906 C 24.324219 14.667969 32.292969 6.722656 33.710938 5.980469 C 34.070312 5.789062 34.164062 5.621094 33.996094 5.453125 C 33.613281 5.066406 32.773438 5.789062 27.660156 10.972656 C 23.941406 14.738281 22.597656 15.964844 21.300781 16.683594 C 18.324219 18.339844 16.429688 20.523438 14.894531 24.050781 C 14.390625 25.203125 13.453125 26.644531 12.085938 28.300781 C 9.589844 31.347656 5.796875 36.460938 3.734375 39.578125 C 2.894531 40.828125 2.101562 41.957031 1.980469 42.101562 C 1.5 42.628906 1.308594 41.453125 1.308594 37.660156 C 1.308594 34.300781 1.382812 33.554688 1.742188 32.859375 C 1.980469 32.402344 3.828125 29.90625 5.894531 27.339844 C 7.933594 24.773438 10.957031 20.933594 12.589844 18.820312 C 17.675781 12.242188 20.316406 9.074219 20.894531 8.859375 C 21.46875 8.644531 22.429688 7.035156 22.429688 6.316406 C 22.429688 5.570312 21.710938 6.386719 16.429688 13.203125 C 15.566406 14.308594 12.757812 17.859375 10.1875 21.125 C 7.621094 24.363281 4.644531 28.132812 3.589844 29.453125 C 2.558594 30.796875 1.597656 31.898438 1.5 31.898438 C 1.214844 31.898438 1.261719 25.445312 1.550781 24.410156 C 1.859375 23.355469 2.796875 22.035156 7.214844 16.636719 C 12.851562 9.675781 15.277344 6.941406 15.734375 6.941406 C 16.308594 6.941406 17.003906 5.957031 16.644531 5.621094 C 16.261719 5.257812 13.285156 8.476562 7.667969 15.339844 C 5.027344 18.554688 2.558594 21.53125 2.195312 21.941406 L 1.523438 22.660156 L 1.621094 20.476562 C 1.667969 19.300781 1.835938 18.101562 1.980469 17.835938 C 2.460938 16.949219 8.316406 9.21875 9.371094 8.089844 C 10.332031 7.058594 10.71875 6.21875 10.238281 6.21875 C 10.070312 6.21875 6.203125 11.117188 3.46875 14.789062 C 2.773438 15.746094 2.101562 16.539062 1.980469 16.539062 C 1.742188 16.539062 1.71875 11.738281 1.957031 8.90625 C 2.054688 7.417969 2.195312 6.867188 2.507812 6.699219 C 3.132812 6.363281 7.765625 5.789062 13.957031 5.257812 C 18.902344 4.851562 42.132812 3.578125 44.820312 3.578125 L 45.78125 3.578125 L 42.085938 7.347656 C 38.078125 11.453125 37.046875 12.699219 37.644531 12.699219 C 37.835938 12.699219 38.726562 11.859375 39.613281 10.828125 C 42.277344 7.78125 45.996094 4.25 47.027344 3.796875 C 47.726562 3.484375 49.214844 3.292969 52.308594 3.101562 C 54.683594 2.933594 57.757812 2.714844 59.148438 2.621094 C 60.539062 2.523438 62.628906 2.429688 63.828125 2.429688 L 65.964844 2.378906 Z M 62.820312 12.410156 C 63.949219 12.699219 64.835938 13.058594 65.027344 13.324219 C 65.316406 13.707031 65.414062 13.730469 65.605469 13.445312 C 65.773438 13.179688 66.179688 13.25 67.8125 13.875 C 72.683594 15.722656 75.109375 18.292969 76.40625 23.019531 C 77.027344 25.25 77.027344 26.738281 76.453125 28.324219 C 74.699219 32.882812 68.964844 36.386719 60.179688 38.234375 C 56.246094 39.050781 54.539062 39.195312 51.996094 38.882812 C 49.644531 38.597656 45.925781 37.492188 45.78125 37.011719 C 45.734375 36.867188 46.453125 36.292969 47.390625 35.738281 C 49.71875 34.371094 51.46875 32.570312 52.523438 30.410156 C 53.964844 27.507812 54.179688 24.484375 53.148438 22.132812 C 52.070312 19.660156 48.515625 16.972656 44.652344 15.722656 C 44.292969 15.605469 44.269531 15.507812 44.507812 15.21875 C 45.011719 14.597656 49.070312 12.699219 49.886719 12.699219 C 50.292969 12.699219 51.0625 12.578125 51.589844 12.4375 C 54.492188 11.621094 59.558594 11.621094 62.820312 12.410156 Z M 37.070312 14.378906 C 39.011719 14.621094 42.828125 15.507812 42.828125 15.746094 C 42.828125 15.796875 42.398438 16.394531 41.894531 17.089844 C 39.828125 19.875 38.75 23.117188 38.75 26.597656 C 38.75 30.292969 39.925781 33.339844 42.253906 35.621094 L 43.597656 36.941406 L 42.902344 37.203125 C 40.429688 38.140625 34.355469 39.820312 33.421875 39.820312 C 33.085938 39.820312 33.035156 39.675781 33.15625 39.101562 C 33.324219 38.140625 32.988281 38.164062 31.8125 39.21875 C 30.972656 39.988281 30.757812 40.058594 29.4375 40.058594 C 21.179688 40.058594 14.917969 35.691406 14.558594 29.667969 C 14.316406 25.828125 15.660156 22.347656 18.46875 19.539062 C 21.277344 16.683594 25.5 14.957031 29.628906 14.90625 C 31.644531 14.882812 33.398438 15.363281 33.804688 16.035156 C 33.902344 16.179688 34.117188 16.300781 34.308594 16.300781 C 34.886719 16.300781 34.40625 15.339844 33.613281 14.933594 L 32.867188 14.523438 L 33.46875 14.355469 C 34.332031 14.117188 34.8125 14.117188 37.070312 14.378906 Z M 46.117188 16.828125 C 48.734375 17.789062 51.179688 19.828125 52.574219 22.203125 C 53.195312 23.257812 53.269531 23.570312 53.269531 25.5625 C 53.246094 27.675781 53.195312 27.867188 52.214844 29.859375 C 50.894531 32.546875 49.09375 34.394531 46.597656 35.621094 C 45.324219 36.242188 44.605469 36.484375 44.195312 36.363281 C 43.355469 36.171875 41.054688 33.605469 40.355469 32.089844 C 39.421875 30.074219 39.15625 28.492188 39.300781 25.921875 C 39.515625 22.203125 40.597656 19.300781 42.515625 17.234375 C 43.71875 15.941406 43.71875 15.941406 46.117188 16.828125 Z M 77.316406 35.621094 C 77.4375 36.003906 76.789062 36.941406 76.382812 36.941406 C 76.09375 36.941406 76.140625 35.882812 76.476562 35.546875 C 76.859375 35.164062 77.125 35.1875 77.316406 35.621094 Z M 77.414062 38.308594 C 78.277344 38.8125 78.300781 39.292969 77.507812 39.484375 C 76.667969 39.699219 76.1875 39.4375 76.1875 38.789062 C 76.1875 37.828125 76.429688 37.730469 77.414062 38.308594 Z M 77.414062 38.308594 "/>
</g>
<path style=" stroke:none;fill-rule:nonzero;fill:rgb(0%,0%,0%);fill-opacity:1;" d="M 53.652344 5.257812 C 52.308594 6.242188 45.421875 13.035156 46.140625 12.699219 C 46.429688 12.554688 48.0625 11.117188 49.742188 9.53125 C 51.421875 7.921875 53.292969 6.242188 53.941406 5.789062 C 54.566406 5.355469 54.996094 4.875 54.925781 4.753906 C 54.757812 4.46875 54.78125 4.445312 53.652344 5.257812 Z M 53.652344 5.257812 "/>
<path style=" stroke:none;fill-rule:nonzero;fill:rgb(0%,0%,0%);fill-opacity:1;" d="M 88.835938 5.308594 C 88.765625 7.585938 88.574219 11.570312 88.40625 14.140625 C 87.925781 22.300781 88.453125 43.371094 89.222656 45.941406 L 89.507812 46.898438 L 89.582031 45.941406 C 89.628906 45.410156 89.484375 42.988281 89.222656 40.539062 C 88.859375 36.867188 88.789062 34.109375 88.8125 24.578125 C 88.835938 18.242188 88.980469 11.546875 89.125 9.699219 C 89.699219 2.882812 89.726562 1.179688 89.339844 1.179688 C 89.054688 1.179688 88.957031 1.875 88.835938 5.308594 Z M 88.835938 5.308594 "/>
<path style=" stroke:none;fill-rule:nonzero;fill:rgb(0%,0%,0%);fill-opacity:1;" d="M 84.804688 21.988281 C 81.902344 25.011719 77.84375 29.980469 78.277344 29.980469 C 78.566406 29.980469 79.859375 28.585938 81.515625 26.5 C 82.238281 25.5625 83.726562 23.957031 84.804688 22.898438 C 86.941406 20.8125 87.46875 20.140625 86.917969 20.140625 C 86.75 20.140625 85.789062 20.980469 84.804688 21.988281 Z M 84.804688 21.988281 "/>
<path style=" stroke:none;fill-rule:nonzero;fill:rgb(0%,0%,0%);fill-opacity:1;" d="M 11.125 38.066406 C 7.835938 42.027344 2.027344 49.613281 2.027344 49.949219 C 2.027344 50.042969 2.195312 50.140625 2.390625 50.140625 C 2.582031 50.140625 3.277344 49.347656 3.925781 48.386719 C 5.582031 45.914062 9.300781 40.972656 9.804688 40.5625 C 10.164062 40.25 10.1875 40.300781 10.046875 41.164062 C 9.828125 42.53125 10.308594 44.019531 11.292969 45.003906 L 12.15625 45.84375 L 11.316406 46.851562 C 10.835938 47.402344 9.878906 48.554688 9.132812 49.417969 C 8.414062 50.257812 7.859375 51.003906 7.910156 51.050781 C 8.195312 51.339844 9.085938 50.667969 9.757812 49.707031 C 10.164062 49.082031 10.980469 48.003906 11.558594 47.308594 C 12.539062 46.15625 12.710938 46.058594 13.691406 46.058594 C 15.253906 46.058594 17.339844 45.242188 18.421875 44.210938 C 19.644531 43.011719 19.859375 42.554688 19.8125 41.308594 C 19.765625 39.722656 19.164062 38.691406 17.894531 37.949219 C 16.957031 37.394531 16.550781 37.300781 15.15625 37.347656 C 14.246094 37.371094 13.1875 37.5625 12.78125 37.78125 C 12.371094 37.972656 11.988281 38.089844 11.917969 38.042969 C 11.867188 37.972656 12.46875 37.277344 13.285156 36.460938 C 14.628906 35.117188 15.109375 34.300781 14.507812 34.300781 C 14.390625 34.300781 12.851562 36.003906 11.125 38.066406 Z M 17.4375 38.164062 C 18.15625 38.476562 19.550781 40.492188 19.550781 41.210938 C 19.550781 43.058594 16.40625 45.578125 14.101562 45.578125 C 13.164062 45.578125 11.652344 44.835938 11.125 44.117188 C 9.996094 42.507812 10.550781 40.15625 12.324219 38.980469 C 13.332031 38.285156 14.628906 37.972656 14.84375 38.355469 C 14.941406 38.476562 14.820312 39.605469 14.628906 40.851562 C 14.414062 42.074219 14.269531 43.5625 14.316406 44.164062 L 14.414062 45.21875 L 14.84375 44.257812 C 15.445312 42.941406 15.734375 42.820312 16.355469 43.613281 L 16.910156 44.257812 L 16.910156 43.613281 C 16.910156 43.179688 17.078125 42.914062 17.390625 42.820312 C 17.964844 42.628906 17.796875 42.21875 17.148438 42.21875 C 16.8125 42.21875 16.621094 41.957031 16.429688 41.1875 C 16.285156 40.636719 16.070312 39.867188 15.925781 39.484375 C 15.804688 39.101562 15.757812 38.738281 15.828125 38.667969 C 16.019531 38.476562 16.910156 39.363281 16.910156 39.746094 C 16.910156 39.914062 17.027344 40.058594 17.148438 40.058594 C 17.53125 40.058594 17.4375 39.53125 16.910156 38.667969 C 16.40625 37.851562 16.523438 37.730469 17.4375 38.164062 Z M 15.949219 41.859375 C 15.949219 42.195312 15.851562 42.460938 15.710938 42.460938 C 15.589844 42.460938 15.46875 42.195312 15.46875 41.859375 C 15.46875 41.523438 15.589844 41.257812 15.710938 41.257812 C 15.851562 41.257812 15.949219 41.523438 15.949219 41.859375 Z M 15.949219 41.859375 "/>
<path style=" stroke:none;fill-rule:nonzero;fill:rgb(0%,0%,0%);fill-opacity:1;" d="M 65.84375 39.027344 C 61.261719 43.828125 57.734375 48.074219 58.046875 48.410156 C 58.238281 48.605469 58.261719 48.578125 61.285156 44.882812 C 62.390625 43.539062 64.355469 41.429688 65.628906 40.226562 C 68.027344 37.949219 68.820312 36.941406 68.195312 36.941406 C 68.003906 36.941406 66.949219 37.875 65.84375 39.027344 Z M 65.84375 39.027344 "/>
<path style=" stroke:none;fill-rule:nonzero;fill:rgb(0%,0%,0%);fill-opacity:1;" d="M 85.046875 40.613281 C 83.148438 42.242188 78.734375 46.804688 78.324219 47.523438 C 77.796875 48.53125 78.878906 47.597656 81.566406 44.765625 C 83.078125 43.132812 84.851562 41.453125 85.476562 41.042969 C 86.75 40.25 87.46875 39.605469 87.46875 39.292969 C 87.46875 38.789062 86.675781 39.21875 85.046875 40.613281 Z M 85.046875 40.613281 "/>
<path style=" stroke:none;fill-rule:nonzero;fill:rgb(0%,0%,0%);fill-opacity:1;" d="M 48.371094 40.898438 C 46.285156 42.773438 42.78125 47.738281 43.523438 47.738281 C 43.789062 47.738281 44.917969 46.324219 45.710938 44.980469 C 46.550781 43.5625 48.347656 41.738281 48.878906 41.738281 C 49.382812 41.738281 49.621094 41.285156 49.5 40.492188 C 49.429688 39.964844 49.382812 39.988281 48.371094 40.898438 Z M 48.371094 40.898438 "/>
<path style=" stroke:none;fill-rule:nonzero;fill:rgb(0%,0%,0%);fill-opacity:1;" d="M 54.421875 41.546875 C 53.027344 43.011719 49.765625 47.089844 49.910156 47.210938 C 50.101562 47.429688 50.796875 46.707031 53.195312 43.804688 C 55.214844 41.355469 55.789062 40.539062 55.476562 40.539062 C 55.429688 40.539062 54.972656 40.996094 54.421875 41.546875 Z M 54.421875 41.546875 "/>
<path style=" stroke:none;fill-rule:nonzero;fill:rgb(0%,0%,0%);fill-opacity:1;" d="M 23.582031 42.628906 C 22.214844 44.042969 18.324219 49.445312 18.492188 49.707031 C 18.757812 50.117188 19.332031 49.46875 20.941406 47.019531 C 21.851562 45.628906 23.125 43.921875 23.75 43.25 C 25.1875 41.621094 25.070312 41.117188 23.582031 42.628906 Z M 23.582031 42.628906 "/>
<path style=" stroke:none;fill-rule:nonzero;fill:rgb(0%,0%,0%);fill-opacity:1;" d="M 73.71875 44.257812 C 72.878906 45.003906 70.691406 47.476562 70.40625 48.027344 C 69.566406 49.5625 72.613281 46.636719 74.484375 44.117188 C 74.941406 43.46875 74.507812 43.5625 73.71875 44.257812 Z M 73.71875 44.257812 "/>
<path style=" stroke:none;fill-rule:nonzero;fill:rgb(0%,0%,0%);fill-opacity:1;" d="M 85.140625 46.445312 C 83.941406 47.476562 83.605469 47.980469 84.085938 47.980469 C 84.371094 47.980469 86.75 45.820312 86.75 45.554688 C 86.75 45.148438 86.390625 45.339844 85.140625 46.445312 Z M 85.140625 46.445312 "/>
<path style=" stroke:none;fill-rule:nonzero;fill:rgb(0%,0%,0%);fill-opacity:1;" d="M 98.363281 47.355469 C 98.628906 47.570312 99.011719 47.738281 99.203125 47.738281 C 99.445312 47.738281 99.492188 47.8125 99.324219 47.980469 C 99.203125 48.101562 95.414062 48.316406 90.710938 48.460938 C 68.894531 49.109375 59.292969 49.46875 53.988281 49.78125 C 48.710938 50.089844 41.4375 50.429688 24.46875 51.101562 C 21.035156 51.242188 15.539062 51.554688 12.230469 51.820312 C 8.941406 52.082031 5.195312 52.300781 3.949219 52.300781 C 1.238281 52.300781 -0.324219 52.515625 0.15625 52.804688 C 0.566406 53.066406 3.972656 53.066406 6.828125 52.78125 C 13.621094 52.132812 18.46875 51.796875 24.949219 51.578125 C 32.894531 51.316406 44.460938 50.789062 54.589844 50.257812 C 62.269531 49.851562 79.355469 49.25 89.027344 49.058594 C 98.316406 48.890625 100.667969 48.722656 100.835938 48.292969 C 101.054688 47.714844 100.308594 47.210938 99.085938 47.089844 C 97.980469 46.996094 97.933594 47.019531 98.363281 47.355469 Z M 98.363281 47.355469 "/>
</g>
</svg>
