<?xml version="1.0" encoding="UTF-8"?>
<svg xmlns="http://www.w3.org/2000/svg" xmlns:xlink="http://www.w3.org/1999/xlink" width="93pt" height="52pt" viewBox="0 0 93 52" version="1.1">
<defs>
<clipPath id="clip1">
  <path d="M 0 0.371094 L 93 0.371094 L 93 51 L 0 51 Z M 0 0.371094 "/>
</clipPath>
</defs>
<g id="surface1">
<g clip-path="url(#clip1)" clip-rule="nonzero">
<path style=" stroke:none;fill-rule:nonzero;fill:rgb(0%,0%,0%);fill-opacity:1;" d="M 47.242188 0.980469 C 46.667969 1.582031 46.5 1.601562 42.105469 1.820312 C 39.585938 1.9375 35.769531 2.105469 33.585938 2.179688 C 31.402344 2.226562 27.683594 2.441406 25.304688 2.636719 C 22.929688 2.851562 20.195312 3.019531 19.234375 3.019531 L 17.480469 3.019531 L 18.011719 2.304688 C 18.828125 1.195312 18.394531 1.195312 17.339844 2.273438 L 16.402344 3.234375 L 11.265625 3.71875 C 8.433594 3.980469 5.097656 4.265625 3.875 4.363281 C 2.144531 4.484375 1.667969 4.601562 1.667969 4.890625 C 1.667969 5.304688 2.289062 5.273438 8.386719 4.511719 C 14.171875 3.761719 15.585938 3.667969 15.585938 3.980469 C 15.585938 4.128906 13.691406 6.644531 11.363281 9.570312 C 9.035156 12.503906 6.203125 16.171875 5.050781 17.710938 C 3.921875 19.242188 2.84375 20.515625 2.648438 20.515625 C 2.363281 20.539062 2.339844 19.679688 2.507812 14.832031 C 2.601562 11.710938 2.699219 8.609375 2.699219 7.988281 C 2.699219 6.761719 2.289062 5.996094 2.074219 6.761719 C 1.929688 7.242188 1.570312 12.789062 1.28125 18.503906 C 1.136719 21.523438 0.875 23.226562 0.347656 24.457031 C 0.226562 24.761719 0.273438 24.859375 0.492188 24.8125 C 0.875 24.738281 0.875 24.546875 0.515625 30.261719 C 0.371094 32.492188 0.179688 36.960938 0.0820312 40.148438 C -0.0625 45.476562 -0.0390625 45.980469 0.324219 45.980469 C 0.539062 45.980469 0.707031 45.8125 0.707031 45.625 C 0.707031 44.585938 5.792969 36.476562 10.640625 29.777344 C 16.808594 21.234375 27.96875 6.691406 29.867188 4.746094 L 31.785156 2.757812 L 36.226562 2.515625 C 38.675781 2.371094 41.890625 2.304688 43.402344 2.347656 L 46.113281 2.417969 L 43.640625 5.5625 C 42.273438 7.265625 40.761719 9.1875 40.304688 9.8125 C 39.851562 10.410156 39.371094 10.96875 39.226562 11.011719 C 38.675781 11.207031 32.53125 10.796875 32.457031 10.554688 C 32.410156 10.433594 32.988281 9.691406 33.707031 8.898438 C 34.976562 7.554688 35.53125 6.546875 35.144531 6.1875 C 35.050781 6.09375 34.90625 6.164062 34.859375 6.335938 C 34.761719 6.597656 32.3125 9.90625 31.546875 10.820312 C 31.402344 10.988281 30.492188 11.472656 29.507812 11.898438 C 23.746094 14.394531 20.289062 17.660156 17.722656 23.011719 C 15.226562 28.265625 16.113281 32.757812 20.265625 35.777344 C 20.988281 36.308594 21.585938 36.789062 21.585938 36.859375 C 21.585938 36.929688 20.84375 38.179688 19.953125 39.621094 C 16.714844 44.804688 15.515625 47.417969 16.402344 47.417969 C 16.640625 47.417969 16.859375 47.058594 17.027344 46.386719 C 17.457031 44.585938 21.011719 38.304688 22.089844 37.410156 C 22.378906 37.195312 22.859375 37.242188 24.417969 37.722656 C 25.546875 38.085938 26.386719 38.472656 26.386719 38.636719 C 26.386719 38.804688 25.425781 40.484375 24.226562 42.332031 C 22.136719 45.644531 21.828125 46.222656 22.28125 46.222656 C 22.738281 46.222656 23.507812 45.332031 23.914062 44.304688 C 24.5625 42.691406 25.835938 40.410156 26.648438 39.429688 L 27.371094 38.539062 L 30.324219 38.539062 C 31.929688 38.539062 33.324219 38.609375 33.417969 38.683594 C 33.5625 38.851562 28.210938 46.054688 27.371094 46.800781 C 27.105469 47.058594 26.867188 47.441406 26.867188 47.683594 C 26.867188 47.925781 26.675781 48.167969 26.457031 48.234375 C 26.21875 48.308594 23.003906 48.523438 19.304688 48.738281 C 15.609375 48.957031 11.339844 49.222656 9.828125 49.34375 C 6.347656 49.632812 4.546875 49.632812 4.546875 49.363281 C 4.546875 48.835938 12.347656 38.515625 14.601562 36.09375 C 15.296875 35.328125 15.828125 34.601562 15.730469 34.53125 C 15.371094 34.171875 10.859375 39.644531 6.683594 45.476562 C 5.699219 46.847656 4.570312 48.355469 4.164062 48.8125 L 3.417969 49.679688 L 2.050781 49.34375 C 1.304688 49.175781 0.632812 49.074219 0.5625 49.175781 C 0.273438 49.433594 0.730469 49.820312 1.667969 50.058594 C 2.242188 50.207031 2.625 50.472656 2.625 50.664062 C 2.625 51.113281 2.722656 51.113281 3.632812 50.636719 C 4.210938 50.324219 6.324219 50.105469 12.082031 49.679688 C 23.003906 48.886719 29.648438 48.644531 45.105469 48.5 C 52.570312 48.429688 62.242188 48.261719 66.585938 48.113281 C 70.953125 48 77.53125 47.777344 81.226562 47.664062 L 87.945312 47.441406 L 88.953125 48.691406 L 89.097656 46.820312 C 89.195312 45.792969 89.265625 44.179688 89.265625 43.242188 C 89.265625 41.441406 89.410156 39.667969 90.347656 29.179688 C 90.683594 25.554688 91.257812 18.691406 91.667969 13.9375 C 92.050781 9.1875 92.457031 5.011719 92.53125 4.632812 C 92.675781 3.929688 92.289062 3.71875 92.050781 4.363281 C 91.976562 4.582031 91.90625 5.304688 91.90625 5.996094 C 91.90625 6.667969 91.738281 8.515625 91.546875 10.097656 C 91.355469 11.683594 90.921875 16.316406 90.585938 20.417969 C 90.25 24.503906 89.746094 30.066406 89.480469 32.757812 L 88.976562 37.652344 L 86.960938 39.960938 C 84.898438 42.28125 82.546875 45.5 82.546875 45.957031 C 82.546875 46.601562 83.097656 46.074219 84.296875 44.226562 C 85.738281 42.042969 88.234375 39.019531 88.617188 39.019531 C 88.785156 39.019531 88.808594 40.078125 88.691406 42.1875 C 88.546875 44.972656 88.472656 45.429688 88.066406 45.792969 C 87.730469 46.054688 87.683594 46.222656 87.875 46.292969 C 88.042969 46.363281 87.875 46.53125 87.464844 46.679688 C 86.339844 47.136719 64.785156 47.875 64.785156 47.472656 C 64.785156 46.867188 69.179688 41.15625 71.914062 38.226562 C 73.332031 36.71875 73.691406 36.140625 73.234375 36.140625 C 72.945312 36.140625 68.074219 41.878906 65.890625 44.777344 C 64.859375 46.175781 63.777344 47.375 63.515625 47.492188 C 63.011719 47.683594 48.179688 48.140625 47.988281 47.972656 C 47.84375 47.851562 48.226562 47.226562 50.988281 43.242188 L 53.339844 39.8125 L 56.050781 39.667969 C 57.539062 39.597656 59.480469 39.402344 60.347656 39.234375 C 61.210938 39.09375 62.003906 39.019531 62.074219 39.113281 C 62.242188 39.28125 60.828125 41.136719 58.28125 44.058594 C 57.25 45.28125 56.386719 46.316406 56.386719 46.363281 C 56.386719 46.414062 56.53125 46.460938 56.722656 46.460938 C 56.914062 46.460938 58.523438 44.683594 60.273438 42.523438 L 63.464844 38.5625 L 65.265625 37.9375 C 72.441406 35.371094 77.171875 31.316406 78.5625 26.5625 C 79.042969 24.960938 79.066406 22.410156 78.609375 20.972656 L 78.296875 19.867188 L 80.792969 16.796875 C 82.1875 15.09375 84.273438 12.523438 85.472656 11.085938 C 87.898438 8.15625 89.410156 5.972656 89.195312 5.730469 C 88.929688 5.492188 88.304688 6.164062 86.554688 8.660156 C 85.617188 9.980469 83.339844 12.929688 81.515625 15.214844 L 78.179688 19.363281 L 75.730469 17.011719 C 74.410156 15.71875 73.257812 14.589844 73.234375 14.472656 C 73.113281 14.253906 76.1875 10.410156 78.371094 8.035156 C 80.578125 5.660156 81.585938 4.363281 81.585938 3.886719 C 81.585938 3.1875 81.058594 3.71875 78.347656 7.097656 C 76.90625 8.878906 74.988281 11.226562 74.074219 12.335938 L 72.441406 14.328125 L 70.28125 13.195312 C 69.105469 12.570312 68.144531 11.921875 68.144531 11.757812 C 68.144531 11.441406 69.730469 9.355469 70.402344 8.804688 C 70.835938 8.441406 71.339844 7.582031 71.746094 6.503906 C 71.9375 5.996094 71.914062 5.898438 71.507812 5.898438 C 71.265625 5.898438 70.976562 6.113281 70.90625 6.402344 C 70.714844 6.980469 68.050781 10.988281 67.59375 11.371094 C 67.355469 11.5625 66.730469 11.472656 65.050781 10.914062 C 63.828125 10.53125 61.785156 10.027344 60.515625 9.8125 C 59.242188 9.621094 58.136719 9.402344 58.113281 9.355469 C 57.800781 9.113281 62.410156 3.113281 63.082031 2.898438 C 63.324219 2.832031 63.585938 2.5625 63.660156 2.328125 C 63.800781 1.769531 65.410156 1.652344 74.867188 1.433594 C 79.953125 1.316406 81.945312 1.34375 82.59375 1.554688 C 83.507812 1.847656 86.386719 1.703125 86.386719 1.34375 C 86.386719 0.839844 84.394531 0.859375 55.1875 1.53125 C 51.296875 1.632812 48.058594 1.679688 48.011719 1.652344 C 47.960938 1.601562 48.035156 1.316406 48.179688 0.980469 C 48.5625 0.164062 48.058594 0.164062 47.242188 0.980469 Z M 62.097656 2.832031 C 60.464844 4.820312 57.347656 9.066406 57.347656 9.28125 C 57.347656 9.402344 56.675781 9.503906 55.859375 9.503906 C 54.203125 9.503906 52.546875 9.886719 50.792969 10.652344 C 50.171875 10.914062 49.667969 11.085938 49.667969 11.011719 C 49.667969 10.746094 52.785156 6.429688 53.867188 5.226562 C 54.492188 4.554688 54.945312 3.839844 54.875 3.691406 C 54.730469 3.234375 53.554688 4.582031 51.296875 7.746094 C 50.21875 9.261719 48.921875 10.847656 48.417969 11.304688 C 47.914062 11.757812 47.507812 12.1875 47.507812 12.261719 C 47.507812 12.523438 48.273438 12.355469 48.828125 11.996094 C 49.164062 11.777344 49.425781 11.683594 49.425781 11.757812 C 49.425781 11.851562 49.882812 11.660156 50.457031 11.328125 C 51.898438 10.484375 53.988281 9.929688 55.472656 10.027344 L 56.746094 10.097656 L 55.066406 10.554688 C 54.15625 10.796875 52.355469 11.441406 51.105469 11.972656 C 47.867188 13.34375 46.929688 13.363281 43.1875 12.1875 C 41.554688 11.660156 40.164062 11.136719 40.113281 10.988281 C 40.089844 10.867188 40.570312 10.097656 41.195312 9.308594 C 44.820312 4.746094 46.402344 2.878906 46.859375 2.5625 C 47.457031 2.136719 50.792969 1.914062 58.28125 1.867188 L 62.914062 1.820312 Z M 30.464844 2.945312 C 30.464844 3.019531 29.84375 3.859375 29.074219 4.796875 C 27.273438 6.980469 15.632812 22.265625 11.625 27.738281 C 9.921875 30.042969 6.996094 34.265625 5.121094 37.128906 C 3.226562 39.960938 1.523438 42.429688 1.332031 42.597656 C 0.996094 42.886719 0.945312 42.691406 0.945312 40.796875 C 0.945312 37.96875 1.378906 33.335938 1.667969 32.757812 C 2.265625 31.679688 8.746094 22.433594 11.9375 18.140625 C 17.433594 10.746094 19.449219 8.253906 19.808594 8.394531 C 20.003906 8.472656 20.433594 8.011719 20.988281 7.148438 C 21.875 5.730469 21.96875 5.417969 21.585938 5.417969 C 20.988281 5.417969 11.195312 18.164062 5.625 26.179688 C 2.027344 31.363281 1.714844 31.746094 1.523438 31.222656 C 1.425781 31.007812 1.523438 28.9375 1.738281 26.609375 C 2.097656 22.511719 2.121094 22.386719 2.890625 21.28125 C 6.324219 16.410156 14.84375 5.683594 16.257812 4.386719 C 16.882812 3.859375 17.53125 3.503906 17.9375 3.476562 C 18.296875 3.457031 20.914062 3.308594 23.746094 3.140625 C 30.539062 2.757812 30.464844 2.757812 30.464844 2.945312 Z M 61.691406 11.035156 C 62.265625 11.207031 63.179688 11.539062 63.707031 11.777344 L 64.667969 12.1875 L 64.066406 11.515625 C 63.730469 11.15625 63.609375 10.914062 63.828125 10.988281 C 64.019531 11.058594 64.761719 11.304688 65.457031 11.515625 C 66.203125 11.777344 66.707031 12.066406 66.707031 12.28125 C 66.707031 12.691406 64.90625 15.214844 55.355469 28.097656 C 51.539062 33.234375 48.296875 37.511719 48.15625 37.554688 C 47.84375 37.679688 46.304688 36.859375 46.304688 36.570312 C 46.304688 36.457031 47.457031 35.15625 48.851562 33.667969 C 50.265625 32.207031 51.683594 30.570312 52.019531 30.066406 C 52.667969 29.105469 52.785156 29.035156 53.195312 29.441406 C 53.480469 29.730469 53.769531 28.9375 54.492188 25.988281 C 55.257812 22.867188 53.507812 18.28125 50.171875 14.710938 C 49.523438 14.011719 49.1875 13.484375 49.332031 13.34375 C 49.714844 12.960938 53.050781 11.636719 54.800781 11.179688 C 56.84375 10.632812 60.203125 10.554688 61.691406 11.035156 Z M 38.3125 11.609375 C 38.792969 11.757812 38.507812 12.234375 34.976562 17.304688 C 30.273438 24.042969 22.355469 35.636719 22.234375 35.996094 C 21.96875 36.71875 17.746094 33.140625 17.746094 32.207031 C 17.746094 31.988281 18.128906 31.410156 18.585938 30.886719 C 19.042969 30.382812 19.425781 29.777344 19.425781 29.539062 C 19.425781 29.035156 19.808594 28.363281 22.808594 23.851562 C 25.332031 20.085938 28.332031 15.886719 30.394531 13.265625 C 31.640625 11.710938 31.714844 11.660156 32.769531 11.660156 C 34.042969 11.660156 35.171875 12.1875 35.386719 12.859375 C 35.675781 13.746094 36.058594 13.386719 35.890625 12.382812 L 35.746094 11.417969 L 36.753906 11.441406 C 37.332031 11.472656 38.027344 11.539062 38.3125 11.609375 Z M 42.25 12.355469 C 44.648438 12.980469 46.304688 13.722656 46.304688 14.179688 C 46.304688 14.371094 45.660156 15.355469 44.867188 16.34375 C 41.820312 20.085938 40.785156 22.34375 40.449219 25.9375 C 40.164062 29.011719 41.433594 34.027344 42.609375 34.464844 C 43.667969 34.867188 43.257812 35.347656 41.21875 36.09375 C 38.960938 36.90625 35.960938 37.820312 35.53125 37.820312 C 35.003906 37.820312 35.265625 37.363281 36.632812 35.898438 C 37.808594 34.632812 38.027344 34.484375 38.171875 34.847656 C 38.3125 35.253906 38.363281 35.207031 38.601562 34.632812 C 38.914062 33.8125 38.9375 33.019531 38.648438 33.019531 C 38.53125 33.019531 37.617188 33.980469 36.609375 35.179688 C 35.578125 36.355469 34.59375 37.511719 34.402344 37.703125 C 34.113281 37.988281 33.371094 38.058594 30.921875 38.058594 C 29.050781 38.058594 27.828125 37.96875 27.828125 37.820312 C 27.828125 37.078125 37.523438 23.730469 39.105469 22.34375 C 39.945312 21.597656 40.761719 19.746094 40.066406 20.179688 C 39.707031 20.394531 32.578125 29.945312 29.53125 34.265625 C 27.875 36.621094 26.890625 37.820312 26.601562 37.820312 C 26.144531 37.820312 23.097656 36.761719 22.859375 36.523438 C 22.570312 36.234375 23.554688 34.601562 27.632812 28.601562 C 36.945312 14.945312 39.203125 11.898438 39.921875 11.898438 C 40.234375 11.898438 41.265625 12.113281 42.25 12.355469 Z M 29.625 13.386719 C 29.242188 13.96875 27.632812 16.242188 26.027344 18.503906 C 24.417969 20.730469 21.996094 24.261719 20.648438 26.304688 C 18.011719 30.261719 17.386719 31.054688 17.097656 30.761719 C 17.003906 30.667969 16.90625 29.539062 16.929688 28.265625 C 16.929688 26.273438 17.050781 25.703125 17.625 24.28125 C 18.492188 22.195312 20.675781 18.859375 22.210938 17.304688 C 24.296875 15.140625 28.378906 12.476562 29.121094 12.761719 C 29.289062 12.839844 29.578125 12.71875 29.746094 12.503906 C 30.371094 11.757812 30.273438 12.402344 29.625 13.386719 Z M 68.9375 13.007812 C 70.472656 13.769531 71.746094 14.660156 71.746094 14.945312 C 71.746094 15.308594 68.339844 19.867188 63.753906 25.582031 C 61.882812 27.886719 58.859375 31.769531 57.035156 34.222656 C 55.1875 36.667969 53.578125 38.757812 53.480469 38.878906 C 53.3125 39.066406 49.738281 38.394531 49.164062 38.035156 C 48.777344 37.820312 49.304688 37.007812 53.960938 30.738281 C 55.738281 28.363281 59.242188 23.609375 61.738281 20.179688 C 67.714844 11.945312 67.425781 12.261719 68.9375 13.007812 Z M 49.617188 15.960938 C 52.257812 18.164062 53.386719 20.730469 53.21875 24.308594 C 53.171875 25.988281 53.074219 26.417969 52.667969 26.730469 C 52.402344 26.972656 51.753906 27.789062 51.25 28.582031 C 49.546875 31.222656 45.632812 34.703125 44.410156 34.703125 C 44.265625 34.703125 43.953125 34.292969 43.691406 33.761719 C 43.425781 33.261719 42.945312 32.539062 42.609375 32.15625 C 41.648438 31.007812 41.457031 29.730469 41.722656 26.832031 L 41.960938 24.261719 L 44.074219 20.058594 C 45.730469 16.769531 46.332031 15.789062 46.859375 15.546875 C 47.21875 15.382812 47.507812 15.140625 47.507812 14.996094 C 47.507812 14.492188 48.273438 14.851562 49.617188 15.960938 Z M 74.074219 16.171875 C 75.25 17.136719 76.5 18.429688 77.171875 19.464844 C 77.648438 20.179688 78.417969 19.078125 69.921875 29.777344 C 65.410156 35.472656 63.394531 37.820312 62.820312 38.105469 C 60.730469 39.09375 54.226562 39.621094 54.226562 38.777344 C 54.226562 38.515625 57.875 33.761719 64.761719 24.980469 C 71.625 16.265625 72.441406 15.261719 72.707031 15.261719 C 72.828125 15.261719 73.425781 15.667969 74.074219 16.171875 Z M 78.226562 21.644531 C 78.417969 22.171875 78.492188 23.253906 78.417969 24.308594 C 78.179688 27.839844 75.371094 32.011719 71.648438 34.34375 C 69.492188 35.683594 65.339844 37.632812 64.859375 37.53125 C 64.59375 37.484375 65.339844 36.355469 67.332031 33.839844 C 68.890625 31.847656 71.867188 28.097656 73.90625 25.511719 C 75.945312 22.890625 77.699219 20.777344 77.792969 20.777344 C 77.867188 20.777344 78.082031 21.164062 78.226562 21.644531 Z M 43.042969 37.148438 C 40.929688 39.402344 36.464844 45.523438 36.464844 46.175781 C 36.464844 46.867188 37.089844 46.242188 38.074219 44.5625 C 39.273438 42.523438 40.808594 40.511719 42.609375 38.5625 C 43.90625 37.171875 43.90625 37.148438 45.035156 37.292969 C 46.1875 37.410156 47.363281 37.867188 47.601562 38.273438 C 47.746094 38.472656 43.546875 45.402344 42.753906 46.292969 C 42.492188 46.582031 42.464844 46.800781 42.632812 46.96875 C 42.945312 47.273438 43.136719 47.039062 45.609375 42.859375 C 46.667969 41.085938 47.769531 39.382812 48.058594 39.066406 L 48.609375 38.539062 L 50.480469 38.996094 C 51.539062 39.261719 52.472656 39.570312 52.59375 39.691406 C 52.714844 39.8125 52.402344 40.222656 51.851562 40.652344 C 51.347656 41.058594 50.648438 41.972656 50.289062 42.667969 C 49.953125 43.363281 49.113281 44.804688 48.417969 45.886719 L 47.144531 47.804688 L 44.289062 47.972656 C 40.953125 48.167969 27.585938 48.1875 27.585938 48.019531 C 27.585938 47.730469 33.058594 40.265625 33.945312 39.355469 C 34.640625 38.609375 35.171875 38.304688 35.914062 38.179688 C 36.464844 38.105469 38.339844 37.554688 40.113281 36.980469 C 44.339844 35.5625 44.507812 35.589844 43.042969 37.148438 Z M 43.042969 37.148438 "/>
</g>
<path style=" stroke:none;fill-rule:nonzero;fill:rgb(0%,0%,0%);fill-opacity:1;" d="M 87.96875 20.660156 C 86.53125 22.097656 81.371094 29.996094 81.683594 30.308594 C 81.921875 30.546875 82.332031 30.019531 83.820312 27.476562 C 84.996094 25.464844 86.675781 23.105469 88.59375 20.730469 C 89.386719 19.722656 88.953125 19.679688 87.96875 20.660156 Z M 87.96875 20.660156 "/>
<path style=" stroke:none;fill-rule:nonzero;fill:rgb(0%,0%,0%);fill-opacity:1;" d="M 86.890625 33.546875 C 84.128906 36.667969 82.113281 39.042969 80.988281 40.582031 C 79.546875 42.523438 77.265625 46.175781 77.265625 46.511719 C 77.265625 47.136719 77.960938 46.34375 78.96875 44.609375 C 80.433594 42.042969 83.003906 38.683594 85.667969 35.832031 C 86.84375 34.554688 87.828125 33.335938 87.828125 33.140625 C 87.828125 32.609375 87.683594 32.683594 86.890625 33.546875 Z M 86.890625 33.546875 "/>
<path style=" stroke:none;fill-rule:nonzero;fill:rgb(0%,0%,0%);fill-opacity:1;" d="M 76.378906 33.261719 C 75.753906 33.503906 75.707031 34.027344 75.996094 36.929688 L 76.136719 38.5625 L 77.121094 38.417969 C 78.660156 38.179688 79.667969 37.820312 79.667969 37.484375 C 79.667969 37.316406 79.355469 36.886719 78.945312 36.503906 C 78.105469 35.683594 78.058594 35.394531 78.707031 34.820312 C 80.003906 33.644531 78.273438 32.492188 76.378906 33.261719 Z M 78.371094 33.859375 C 78.464844 34.078125 78.273438 34.464844 77.890625 34.820312 C 77.554688 35.136719 77.265625 35.472656 77.265625 35.5625 C 77.265625 35.636719 77.675781 36.066406 78.15625 36.523438 C 78.632812 36.980469 78.96875 37.410156 78.875 37.484375 C 78.777344 37.582031 78.179688 37.703125 77.507812 37.769531 L 76.28125 37.890625 L 76.402344 37.078125 C 76.472656 36.621094 76.59375 35.636719 76.667969 34.867188 C 76.808594 33.546875 76.835938 33.503906 77.53125 33.503906 C 77.9375 33.503906 78.296875 33.644531 78.371094 33.859375 Z M 78.371094 33.859375 "/>
<path style=" stroke:none;fill-rule:nonzero;fill:rgb(0%,0%,0%);fill-opacity:1;" d="M 15.492188 37.148438 C 15.105469 38.492188 14.625 41.011719 14.722656 41.136719 C 14.792969 41.179688 15.128906 41.011719 15.492188 40.722656 C 16.355469 40.054688 16.929688 40.097656 17.363281 40.867188 L 17.722656 41.539062 L 17.746094 40.746094 C 17.746094 40.148438 17.84375 39.980469 18.226562 39.980469 C 18.945312 39.980469 18.800781 39.546875 18.058594 39.457031 C 17.507812 39.402344 17.363281 39.214844 17.097656 38.328125 C 16.617188 36.644531 15.800781 36.042969 15.492188 37.148438 Z M 16.738281 39.164062 C 16.617188 39.839844 16.066406 39.859375 16.066406 39.1875 C 16.066406 38.878906 16.136719 38.539062 16.234375 38.441406 C 16.472656 38.207031 16.835938 38.683594 16.738281 39.164062 Z M 16.738281 39.164062 "/>
</g>
</svg>
