<?xml version="1.0" encoding="UTF-8"?>
<svg xmlns="http://www.w3.org/2000/svg" xmlns:xlink="http://www.w3.org/1999/xlink" width="115pt" height="89pt" viewBox="0 0 115 89" version="1.1">
<defs>
<clipPath id="clip1">
  <path d="M 57 0.398438 L 63 0.398438 L 63 11 L 57 11 Z M 57 0.398438 "/>
</clipPath>
</defs>
<g id="surface1">
<g clip-path="url(#clip1)" clip-rule="nonzero">
<path style=" stroke:none;fill-rule:nonzero;fill:rgb(0%,0%,0%);fill-opacity:1;" d="M 57.601562 0.902344 C 57.601562 1.191406 57.769531 1.765625 57.984375 2.222656 C 58.441406 3.160156 59.089844 3.277344 59.59375 2.558594 C 59.929688 2.054688 59.929688 2.054688 60.097656 2.605469 C 60.382812 3.734375 60.214844 4.765625 59.519531 6.160156 C 58.703125 7.765625 58.585938 9.132812 59.160156 10.238281 C 59.59375 11.101562 60.070312 11.152344 60.574219 10.429688 C 60.863281 10.023438 60.960938 9.253906 60.960938 7.382812 L 60.960938 4.886719 L 61.921875 3.953125 C 62.878906 3.0625 62.953125 2.707031 62.015625 3.398438 C 61.152344 4.046875 60.792969 3.855469 60.601562 2.605469 C 60.359375 0.855469 60.214844 0.398438 59.902344 0.398438 C 59.734375 0.398438 59.519531 0.855469 59.375 1.40625 C 59.257812 1.984375 59.0625 2.4375 58.921875 2.4375 C 58.800781 2.4375 58.535156 1.984375 58.367188 1.40625 C 58.007812 0.351562 57.601562 0.0625 57.601562 0.902344 Z M 60.480469 7.886719 C 60.480469 9.6875 60.238281 10.429688 59.785156 10.140625 C 59.449219 9.925781 59.425781 7.621094 59.761719 6.78125 C 60.191406 5.65625 60.480469 6.109375 60.480469 7.886719 Z M 60.480469 7.886719 "/>
</g>
<path style=" stroke:none;fill-rule:nonzero;fill:rgb(0%,0%,0%);fill-opacity:1;" d="M 52.558594 3.0625 C 52.558594 3.421875 52.726562 4.167969 52.921875 4.742188 C 53.304688 5.847656 53.160156 6.253906 52.414062 6.109375 C 52.054688 6.0625 51.9375 5.753906 51.839844 4.671875 C 51.769531 3.925781 51.648438 3.253906 51.574219 3.160156 C 51.238281 2.828125 49.078125 6.714844 49.34375 7.167969 C 49.414062 7.261719 49.894531 7.359375 50.425781 7.359375 L 51.359375 7.359375 L 51.359375 8.964844 C 51.359375 9.878906 51.191406 13.621094 51 17.320312 C 50.808594 21.015625 50.640625 27.878906 50.640625 32.585938 L 50.640625 41.101562 L 43.753906 41.414062 C 39.9375 41.558594 35.328125 41.753906 33.480469 41.828125 L 30.121094 41.964844 L 26.640625 39.757812 C 24.742188 38.535156 20.953125 36.183594 18.238281 34.550781 C 15.527344 32.894531 10.824219 29.992188 7.800781 28.09375 C 4.753906 26.203125 2.136719 24.636719 1.96875 24.636719 C 1.175781 24.636719 2.015625 25.285156 5.832031 27.589844 C 8.089844 28.984375 12.71875 31.789062 16.105469 33.835938 C 19.488281 35.894531 23.761719 38.511719 25.558594 39.664062 C 28.585938 41.585938 28.824219 41.773438 28.296875 41.964844 C 27.984375 42.089844 22.777344 42.253906 16.753906 42.332031 C 7.441406 42.445312 5.761719 42.421875 5.6875 42.132812 C 5.617188 41.941406 5.449219 41.269531 5.304688 40.597656 C 5.136719 39.953125 4.96875 39.351562 4.894531 39.300781 C 4.847656 39.230469 4.175781 39.613281 3.40625 40.140625 C 2.664062 40.671875 1.585938 41.367188 1.03125 41.679688 C 0.457031 41.992188 0 42.332031 0 42.421875 C 0 42.542969 0.40625 42.6875 0.910156 42.757812 C 2.664062 43.046875 4.296875 43.671875 4.824219 44.222656 C 5.449219 44.894531 5.761719 44.773438 5.761719 43.863281 C 5.761719 42.925781 6.121094 42.878906 12.816406 42.878906 C 15.863281 42.855469 21 42.757812 24.238281 42.636719 L 30.121094 42.421875 L 31.558594 43.308594 C 36.839844 46.476562 39.839844 48.566406 39.839844 49.070312 C 39.839844 49.238281 39.480469 49.839844 39.023438 50.390625 C 37.65625 52.070312 33.601562 59.511719 27.910156 70.839844 C 22.65625 81.332031 20.542969 85.8125 20.734375 86.03125 C 21.097656 86.367188 21.742188 85.40625 22.320312 83.773438 C 23.015625 81.710938 32.160156 63.253906 35.136719 57.878906 C 37.128906 54.300781 39.792969 50.128906 40.441406 49.597656 C 40.753906 49.339844 40.96875 49.339844 41.6875 49.695312 C 42.144531 49.910156 42.886719 50.367188 43.296875 50.679688 C 43.703125 50.992188 45.457031 52.09375 47.160156 53.128906 L 50.28125 55.023438 L 50.207031 62.796875 C 50.183594 67.09375 50.089844 71.753906 50.015625 73.167969 L 49.871094 75.757812 L 49.105469 75.757812 C 47.59375 75.757812 47.59375 75.972656 48.910156 78.664062 C 50.304688 81.5 51.550781 83.175781 51.863281 82.671875 C 51.984375 82.503906 52.078125 81.667969 52.078125 80.796875 C 52.105469 79.335938 52.273438 78.160156 52.679688 76.285156 C 52.847656 75.542969 52.847656 75.519531 52.007812 75.519531 C 51.359375 75.519531 51.070312 75.378906 50.855469 75.015625 C 50.566406 74.4375 50.617188 56.007812 50.929688 55.71875 C 51.144531 55.503906 53.136719 56.707031 62.328125 62.605469 C 66.792969 65.464844 70.921875 68.246094 71.519531 68.773438 C 72.097656 69.332031 72.695312 69.757812 72.839844 69.757812 C 73.367188 69.757812 84.214844 76.695312 85.414062 77.773438 C 85.703125 78.039062 86.351562 79.023438 86.808594 79.957031 C 87.792969 81.902344 88.488281 82.957031 88.824219 82.957031 C 89.257812 82.957031 89.015625 82.335938 87.9375 80.679688 C 87.335938 79.765625 86.953125 78.972656 87.070312 78.925781 C 87.214844 78.878906 88.535156 79.625 90.023438 80.582031 C 91.535156 81.542969 93.574219 82.8125 94.558594 83.460938 C 95.542969 84.085938 97.273438 85.09375 98.398438 85.71875 C 99.527344 86.367188 100.824219 87.132812 101.28125 87.421875 C 101.734375 87.734375 102.3125 88 102.574219 88 C 103.414062 88 102.527344 87.351562 99.527344 85.765625 C 97.921875 84.925781 94.273438 82.742188 91.414062 80.894531 L 86.207031 77.585938 L 84.625 74.390625 C 82.273438 69.664062 77.734375 61.621094 75.71875 58.597656 C 72.335938 53.535156 67.175781 48.519531 62.328125 45.542969 C 59.519531 43.8125 55.488281 41.917969 54.671875 41.917969 C 54.167969 41.917969 53.976562 41.847656 54.144531 41.679688 C 54.265625 41.558594 60.433594 41.175781 68.039062 40.839844 C 87.335938 40.003906 93.265625 39.636719 101.929688 38.871094 L 103.414062 38.726562 L 103.558594 39.664062 C 103.824219 41.101562 104.0625 42.039062 104.183594 41.992188 C 104.230469 41.941406 105 41.246094 105.886719 40.429688 L 107.472656 38.917969 L 105.601562 37.09375 L 103.726562 35.292969 L 103.464844 36.183594 C 103.320312 36.664062 103.199219 37.238281 103.199219 37.457031 C 103.199219 38.03125 102.480469 38.222656 98.519531 38.65625 C 94.078125 39.132812 86.375 39.566406 69.238281 40.359375 C 61.992188 40.671875 55.105469 41.007812 53.976562 41.101562 C 50.761719 41.320312 51.023438 42.398438 51.214844 29.4375 C 51.289062 23.4375 51.433594 16.003906 51.503906 12.925781 C 51.671875 6.636719 51.601562 6.878906 53.59375 6.542969 C 54.070312 6.445312 54.480469 6.277344 54.480469 6.160156 C 54.480469 6.039062 54.214844 5.535156 53.878906 5.054688 C 53.542969 4.578125 53.28125 4.003906 53.28125 3.78125 C 53.28125 3.542969 53.113281 3.160156 52.921875 2.894531 C 52.585938 2.464844 52.585938 2.464844 52.558594 3.0625 Z M 51.121094 6.183594 C 50.976562 6.421875 50.710938 6.636719 50.519531 6.636719 C 50.0625 6.636719 50.0625 6.542969 50.566406 5.511719 C 50.953125 4.695312 50.976562 4.671875 51.167969 5.175781 C 51.265625 5.488281 51.265625 5.917969 51.121094 6.183594 Z M 105.121094 37.839844 C 105.121094 37.960938 105.023438 38.082031 104.878906 38.082031 C 104.761719 38.082031 104.640625 37.960938 104.640625 37.839844 C 104.640625 37.695312 104.761719 37.597656 104.878906 37.597656 C 105.023438 37.597656 105.121094 37.695312 105.121094 37.839844 Z M 106.441406 38.796875 C 106.585938 39.039062 105.191406 40.476562 104.832031 40.476562 C 104.425781 40.476562 104.375 39.46875 104.785156 39.015625 C 105.214844 38.535156 106.199219 38.390625 106.441406 38.796875 Z M 4.753906 41.511719 L 4.824219 42.398438 L 3.023438 42.398438 C 2.015625 42.398438 1.199219 42.351562 1.199219 42.300781 C 1.199219 42.0625 3.984375 40.476562 4.320312 40.527344 C 4.535156 40.578125 4.703125 40.933594 4.753906 41.511719 Z M 50.28125 41.65625 C 50.449219 41.941406 48.046875 42.855469 46.679688 43.046875 C 45.910156 43.140625 45.503906 43.359375 45.144531 43.863281 C 44.855469 44.246094 44.496094 44.558594 44.328125 44.558594 C 44.160156 44.558594 43.679688 45.039062 43.273438 45.613281 C 42.191406 47.152344 40.96875 47.992188 40.152344 47.828125 C 39.769531 47.726562 38.328125 46.960938 36.960938 46.070312 C 35.566406 45.210938 33.71875 44.054688 32.832031 43.503906 C 31.945312 42.972656 31.199219 42.445312 31.199219 42.378906 C 31.199219 42.300781 34.199219 42.132812 37.871094 42.039062 C 41.519531 41.941406 45.503906 41.773438 46.679688 41.679688 C 49.894531 41.414062 50.113281 41.414062 50.28125 41.65625 Z M 55.199219 42.636719 C 55.679688 42.757812 55.824219 43.003906 55.96875 43.863281 C 56.6875 48.398438 57.769531 54.277344 58.34375 56.628906 C 58.726562 58.191406 59.039062 59.511719 59.039062 59.585938 C 59.039062 59.753906 57.550781 58.960938 56.710938 58.308594 C 56.28125 58.003906 55.921875 57.519531 55.921875 57.253906 C 55.921875 56.992188 55.726562 56.4375 55.511719 56.007812 C 55.296875 55.578125 54.769531 53.828125 54.335938 52.117188 C 53.183594 47.558594 52.105469 43.8125 51.695312 43.023438 C 51.503906 42.636719 51.359375 42.300781 51.359375 42.253906 C 51.359375 42.132812 54.503906 42.445312 55.199219 42.636719 Z M 50.375 45.6875 L 50.375 48.757812 L 49.703125 46.789062 C 49.078125 44.871094 48.625 44.082031 48.359375 44.367188 C 48.289062 44.4375 48.671875 45.835938 49.222656 47.464844 C 50.230469 50.488281 50.808594 54.398438 50.230469 54.398438 C 49.679688 54.398438 48.238281 52.457031 47.902344 51.253906 C 47.136719 48.6875 46.246094 44.292969 46.464844 44.082031 C 46.703125 43.839844 49.632812 42.714844 50.113281 42.664062 C 50.328125 42.636719 50.398438 43.382812 50.375 45.6875 Z M 5.039062 43.117188 C 5.039062 43.238281 4.921875 43.359375 4.777344 43.359375 C 4.65625 43.359375 4.609375 43.238281 4.679688 43.117188 C 4.753906 42.972656 4.871094 42.878906 4.945312 42.878906 C 4.992188 42.878906 5.039062 42.972656 5.039062 43.117188 Z M 58.390625 43.863281 C 61.054688 45.210938 63.097656 46.578125 63.3125 47.175781 C 63.433594 47.511719 63.71875 48.757812 63.9375 49.960938 C 64.34375 52.308594 67.488281 64.382812 67.753906 64.644531 C 68.257812 65.128906 68.113281 64.167969 67.222656 61.070312 C 64.96875 53.082031 63.910156 47.917969 64.558594 47.917969 C 64.945312 47.917969 67.464844 50.03125 69.910156 52.457031 C 73.105469 55.578125 76.320312 60.089844 76.320312 61.429688 C 76.320312 61.644531 76.921875 64.191406 77.640625 67.046875 C 78.382812 69.902344 78.9375 72.332031 78.910156 72.445312 C 78.863281 72.566406 78.335938 72.332031 77.761719 71.941406 L 76.679688 71.222656 L 75.382812 65.992188 C 74.039062 60.519531 73.320312 58.238281 72.9375 58.238281 C 72.625 58.238281 72.671875 58.527344 73.078125 59.535156 C 73.390625 60.253906 74.59375 65.03125 75.71875 69.925781 C 75.910156 70.695312 75.527344 70.621094 73.945312 69.542969 L 72.550781 68.585938 L 71.304688 64.191406 C 69.601562 58.09375 68.398438 53.414062 68.398438 52.839844 C 68.398438 52.214844 67.992188 51.589844 67.777344 51.835938 C 67.535156 52.046875 68.089844 54.378906 70.007812 61.238281 C 70.847656 64.261719 71.496094 67.023438 71.472656 67.308594 C 71.398438 67.839844 71.089844 67.671875 66.984375 65.007812 C 61.847656 61.671875 60.550781 60.734375 59.953125 59.917969 C 59.710938 59.585938 59.257812 58.238281 58.921875 56.917969 C 58.152344 53.917969 56.640625 45.519531 56.640625 44.292969 C 56.640625 43.191406 56.902344 43.117188 58.390625 43.863281 Z M 46.488281 47.894531 C 46.894531 49.527344 47.328125 51.277344 47.398438 51.804688 C 47.566406 52.71875 47.542969 52.742188 47.0625 52.503906 C 46.800781 52.339844 46.511719 51.925781 46.414062 51.566406 C 46.34375 51.210938 46.03125 50.367188 45.695312 49.71875 C 44.59375 47.4375 44.449219 44.535156 45.433594 44.871094 C 45.601562 44.917969 46.054688 46.285156 46.488281 47.894531 Z M 52.632812 48.230469 C 53.113281 50.101562 53.855469 52.789062 54.289062 54.230469 C 54.695312 55.644531 54.984375 56.871094 54.910156 56.941406 C 54.648438 57.183594 53.375 56.367188 52.488281 55.382812 C 51.335938 54.109375 51.121094 53.175781 51.121094 49.457031 C 51.121094 46.359375 51.265625 44.796875 51.574219 44.796875 C 51.648438 44.796875 52.128906 46.339844 52.632812 48.230469 Z M 44.761719 48.757812 C 45.191406 50.03125 45.457031 51.109375 45.359375 51.160156 C 45.265625 51.210938 44.953125 51.015625 44.664062 50.707031 C 43.824219 49.8125 43.105469 46.886719 43.609375 46.40625 C 43.847656 46.140625 43.96875 46.359375 44.761719 48.757812 Z M 42.9375 48.332031 C 43.414062 50.007812 43.320312 50.101562 42.097656 49.339844 L 41.28125 48.855469 L 41.808594 48.132812 C 42.097656 47.753906 42.40625 47.4375 42.503906 47.4375 C 42.625 47.4375 42.816406 47.847656 42.9375 48.332031 Z M 79.414062 66.015625 C 80.6875 68.292969 81.070312 69.160156 80.855469 69.300781 C 80.617188 69.445312 80.6875 70.023438 81.214844 71.894531 C 81.601562 73.238281 81.984375 74.320312 82.078125 74.320312 C 82.175781 74.320312 82.414062 74.128906 82.632812 73.886719 C 82.945312 73.527344 82.96875 73.382812 82.726562 73.140625 C 82.488281 72.878906 82.511719 72.835938 82.800781 72.925781 C 82.992188 72.972656 83.566406 73.8125 84.097656 74.796875 C 85.152344 76.8125 85.128906 76.8125 82.296875 75.015625 C 80.953125 74.152344 80.257812 73.527344 79.945312 72.902344 C 79.296875 71.628906 77.28125 64.117188 77.28125 63.015625 C 77.28125 62.222656 77.472656 62.511719 79.414062 66.015625 Z M 82.320312 71.203125 C 82.945312 72.398438 82.945312 72.734375 82.34375 72.421875 C 82.105469 72.277344 81.769531 71.828125 81.625 71.414062 C 81.046875 69.734375 81.503906 69.613281 82.320312 71.203125 Z M 51.984375 76.527344 C 51.910156 76.839844 51.71875 78.039062 51.574219 79.238281 C 51.433594 80.417969 51.289062 81.421875 51.238281 81.46875 C 51.144531 81.589844 49.511719 78.855469 49.222656 78.089844 C 49.054688 77.679688 49.054688 77.222656 49.199219 76.839844 C 49.390625 76.308594 49.511719 76.261719 50.039062 76.476562 C 50.519531 76.671875 50.761719 76.621094 51.023438 76.359375 C 51.601562 75.78125 52.152344 75.902344 51.984375 76.527344 Z M 51.984375 76.527344 "/>
<path style=" stroke:none;fill-rule:nonzero;fill:rgb(0%,0%,0%);fill-opacity:1;" d="M 59.449219 46.886719 C 59.351562 47.03125 59.449219 47.65625 59.640625 48.300781 C 59.832031 48.953125 60.40625 51.378906 60.960938 53.679688 C 62.230469 59.054688 62.832031 61.117188 63.167969 61.117188 C 63.3125 61.117188 63.359375 60.902344 63.265625 60.566406 C 62.710938 58.742188 61.152344 52.429688 60.71875 50.128906 C 60.191406 47.488281 59.761719 46.382812 59.449219 46.886719 Z M 59.449219 46.886719 "/>
<path style=" stroke:none;fill-rule:nonzero;fill:rgb(0%,0%,0%);fill-opacity:1;" d="M 6.910156 16.863281 C 6.792969 16.960938 6.71875 17.222656 6.71875 17.464844 C 6.71875 17.707031 6.601562 18.183594 6.457031 18.566406 L 6.191406 19.238281 L 5.542969 18.445312 C 5.183594 18.039062 4.800781 17.679688 4.726562 17.679688 C 4.34375 17.679688 4.609375 18.542969 5.136719 19.09375 C 5.832031 19.839844 5.902344 20.152344 5.664062 21.332031 C 5.375 22.621094 5.640625 22.984375 6.070312 21.925781 C 6.289062 21.445312 6.527344 21.039062 6.601562 21.039062 C 6.671875 21.039062 7.152344 21.300781 7.632812 21.636719 C 8.113281 21.972656 8.710938 22.238281 8.976562 22.238281 C 9.3125 22.238281 9.097656 22.023438 8.351562 21.542969 C 7.054688 20.726562 6.648438 20.082031 6.863281 19.238281 C 7.054688 18.496094 7.273438 18.46875 7.753906 19.167969 C 8.328125 20.007812 8.257812 19.191406 7.609375 17.847656 C 7.320312 17.203125 7.007812 16.765625 6.910156 16.863281 Z M 6.910156 16.863281 "/>
<path style=" stroke:none;fill-rule:nonzero;fill:rgb(0%,0%,0%);fill-opacity:1;" d="M 35.902344 17.082031 C 35.496094 17.292969 34.824219 17.894531 34.367188 18.398438 C 33.601562 19.339844 32.832031 19.621094 32.519531 19.117188 C 32.328125 18.804688 30.097656 18.804688 29.519531 19.117188 C 29.257812 19.261719 29.113281 19.527344 29.183594 19.71875 C 29.28125 19.984375 29.449219 20.007812 29.761719 19.839844 C 30.070312 19.671875 30.265625 19.71875 30.503906 19.984375 C 30.886719 20.464844 32.257812 20.292969 33.625 19.597656 C 34.128906 19.339844 34.65625 19.117188 34.800781 19.117188 C 34.921875 19.117188 35.039062 19.621094 35.039062 20.269531 C 35.039062 21.589844 35.328125 22.003906 36.3125 22.003906 C 37.96875 22.003906 39.191406 20.128906 38.664062 18.378906 C 38.375 17.4375 37.632812 16.71875 36.960938 16.71875 C 36.769531 16.71875 36.289062 16.886719 35.902344 17.082031 Z M 37.96875 18.015625 C 38.351562 18.589844 38.160156 19.933594 37.535156 20.726562 C 36.550781 22.023438 35.351562 21.589844 35.59375 20.03125 C 35.734375 19.070312 36.289062 17.605469 36.574219 17.390625 C 36.839844 17.222656 37.703125 17.605469 37.96875 18.015625 Z M 37.96875 18.015625 "/>
<path style=" stroke:none;fill-rule:nonzero;fill:rgb(0%,0%,0%);fill-opacity:1;" d="M 10.320312 17.753906 C 10.320312 18.210938 10.152344 18.496094 9.71875 18.6875 C 8.785156 19.117188 8.929688 19.644531 9.9375 19.457031 C 10.726562 19.308594 10.800781 19.359375 11.257812 20.292969 C 11.902344 21.519531 12.359375 21.589844 11.855469 20.390625 C 11.496094 19.578125 11.496094 19.476562 11.902344 19.191406 C 12.433594 18.804688 13.128906 19.003906 13.945312 19.742188 C 14.472656 20.246094 14.664062 20.292969 15.214844 20.082031 C 15.574219 19.960938 15.910156 19.839844 15.984375 19.839844 C 16.03125 19.839844 16.078125 21.109375 16.078125 22.671875 C 16.078125 24.835938 15.984375 25.621094 15.695312 26.03125 C 15.214844 26.726562 15.046875 26.707031 14.039062 25.8125 C 13.03125 24.902344 12.863281 25.429688 13.871094 26.390625 C 15.214844 27.664062 16.199219 27.015625 16.585938 24.613281 C 17.015625 21.925781 16.273438 16.863281 15.601562 17.917969 C 15.480469 18.109375 15.359375 18.519531 15.359375 18.835938 C 15.359375 19.339844 14.785156 19.8125 14.496094 19.527344 C 14.425781 19.457031 14.304688 18.953125 14.230469 18.421875 C 14.089844 17.414062 13.441406 17.007812 13.441406 17.917969 C 13.441406 18.332031 13.273438 18.398438 12.433594 18.398438 C 11.617188 18.398438 11.304688 18.277344 10.871094 17.726562 L 10.34375 17.082031 Z M 10.320312 17.753906 "/>
<path style=" stroke:none;fill-rule:nonzero;fill:rgb(0%,0%,0%);fill-opacity:1;" d="M 23.761719 17.847656 C 23.761719 18.210938 23.878906 18.6875 24 18.878906 C 24.191406 19.167969 24.265625 19.140625 24.382812 18.6875 C 24.601562 17.917969 25.054688 18.160156 25.152344 19.070312 C 25.199219 19.578125 25.054688 20.101562 24.742188 20.535156 C 24.023438 21.542969 24.097656 21.855469 25.03125 21.6875 C 26.039062 21.519531 27.71875 20.847656 27.527344 20.65625 C 27.457031 20.585938 27 20.628906 26.519531 20.773438 L 25.632812 21.015625 L 25.777344 19.839844 C 25.921875 18.835938 25.847656 18.589844 25.390625 18.089844 C 25.078125 17.753906 24.601562 17.414062 24.3125 17.320312 C 23.832031 17.175781 23.761719 17.246094 23.761719 17.847656 Z M 23.761719 17.847656 "/>
<path style=" stroke:none;fill-rule:nonzero;fill:rgb(0%,0%,0%);fill-opacity:1;" d="M 20.0625 18.613281 C 20.207031 19.503906 20.183594 19.578125 19.585938 19.742188 C 19.175781 19.839844 18.960938 20.054688 18.960938 20.367188 C 18.960938 20.726562 19.054688 20.796875 19.390625 20.679688 C 20.328125 20.292969 20.496094 20.414062 20.734375 21.835938 C 21.070312 23.65625 21.335938 23.390625 21.167969 21.398438 L 21.046875 19.839844 L 21.9375 19.839844 C 22.464844 19.839844 22.777344 19.742188 22.679688 19.597656 C 22.609375 19.457031 22.222656 19.359375 21.839844 19.359375 C 21.3125 19.359375 21.046875 19.191406 20.761719 18.664062 C 20.183594 17.535156 19.894531 17.511719 20.0625 18.613281 Z M 20.0625 18.613281 "/>
<path style=" stroke:none;fill-rule:nonzero;fill:rgb(0%,0%,0%);fill-opacity:1;" d="M 4.078125 23.4375 C 4.078125 23.558594 4.296875 23.679688 4.585938 23.679688 C 4.847656 23.679688 4.992188 23.558594 4.921875 23.4375 C 4.847656 23.292969 4.609375 23.203125 4.414062 23.203125 C 4.222656 23.203125 4.078125 23.292969 4.078125 23.4375 Z M 4.078125 23.4375 "/>
<path style=" stroke:none;fill-rule:nonzero;fill:rgb(0%,0%,0%);fill-opacity:1;" d="M 0 28.117188 C 0 28.308594 0.214844 28.476562 0.480469 28.476562 C 0.792969 28.476562 0.910156 28.359375 0.816406 28.117188 C 0.71875 27.925781 0.527344 27.757812 0.335938 27.757812 C 0.144531 27.757812 0 27.925781 0 28.117188 Z M 0 28.117188 "/>
<path style=" stroke:none;fill-rule:nonzero;fill:rgb(0%,0%,0%);fill-opacity:1;" d="M 1.921875 28.8125 C 1.921875 29.054688 2.136719 29.203125 2.425781 29.203125 C 3 29.203125 2.929688 28.644531 2.328125 28.527344 C 2.089844 28.476562 1.921875 28.597656 1.921875 28.8125 Z M 1.921875 28.8125 "/>
<path style=" stroke:none;fill-rule:nonzero;fill:rgb(0%,0%,0%);fill-opacity:1;" d="M 113.257812 36.878906 C 112.632812 37.984375 112.535156 38.007812 112.152344 37.359375 C 111.742188 36.734375 110.398438 36.015625 110.398438 36.445312 C 110.398438 36.878906 110.664062 37.191406 111.40625 37.644531 C 111.742188 37.886719 112.105469 38.269531 112.175781 38.511719 C 112.246094 38.753906 112.007812 39.902344 111.601562 41.082031 C 111.214844 42.253906 110.929688 43.261719 111 43.308594 C 111.046875 43.382812 111.503906 42.566406 111.960938 41.535156 L 112.824219 39.636719 L 113.761719 40.71875 C 114.816406 41.964844 115.34375 41.871094 114.382812 40.597656 C 113.472656 39.421875 113.183594 38.488281 113.519531 37.863281 C 113.832031 37.238281 114.40625 37.214844 114.550781 37.765625 C 114.625 38.03125 114.671875 37.933594 114.695312 37.527344 C 114.71875 36.78125 114.359375 35.917969 114 35.917969 C 113.878906 35.917969 113.542969 36.351562 113.257812 36.878906 Z M 113.257812 36.878906 "/>
<path style=" stroke:none;fill-rule:nonzero;fill:rgb(0%,0%,0%);fill-opacity:1;" d="M 101.832031 48.160156 C 101.351562 48.351562 101.28125 48.566406 101.28125 49.621094 L 101.28125 50.871094 L 102.910156 50.726562 C 103.800781 50.628906 105.070312 50.558594 105.71875 50.558594 C 106.585938 50.558594 106.824219 50.488281 106.558594 50.320312 C 106.367188 50.203125 105.457031 50.082031 104.542969 50.082031 C 103.078125 50.082031 102.9375 50.03125 103.078125 49.644531 C 103.199219 49.429688 103.273438 48.972656 103.296875 48.636719 C 103.320312 47.964844 102.742188 47.773438 101.832031 48.160156 Z M 102.480469 49.09375 C 102.480469 49.382812 102 49.695312 101.832031 49.527344 C 101.664062 49.359375 101.976562 48.878906 102.265625 48.878906 C 102.382812 48.878906 102.480469 48.972656 102.480469 49.09375 Z M 102.480469 49.09375 "/>
<path style=" stroke:none;fill-rule:nonzero;fill:rgb(0%,0%,0%);fill-opacity:1;" d="M 96.839844 50.796875 C 96.769531 51.0625 96.792969 51.46875 96.9375 51.6875 C 97.152344 52.09375 97.175781 52.09375 97.320312 51.6875 C 97.535156 51.132812 97.847656 51.160156 98.160156 51.757812 C 98.351562 52.09375 98.304688 52.644531 98.039062 53.796875 C 97.847656 54.6875 97.679688 55.644531 97.679688 55.984375 C 97.679688 56.894531 98.113281 56.65625 98.28125 55.644531 C 98.734375 52.933594 98.878906 52.789062 99.886719 54.015625 C 100.945312 55.308594 101.160156 55.046875 100.199219 53.628906 C 99.3125 52.285156 99.097656 51.421875 99.71875 51.664062 C 100.175781 51.855469 100.199219 51.277344 99.769531 50.707031 C 99.480469 50.320312 99.433594 50.320312 99.144531 50.65625 C 98.734375 51.132812 98.304688 51.132812 97.921875 50.679688 C 97.511719 50.175781 97.03125 50.222656 96.839844 50.796875 Z M 96.839844 50.796875 "/>
<path style=" stroke:none;fill-rule:nonzero;fill:rgb(0%,0%,0%);fill-opacity:1;" d="M 77.496094 51.398438 C 77.328125 53.726562 78.550781 55.09375 79.777344 53.917969 C 80.519531 53.246094 80.6875 53.511719 80.832031 55.765625 C 80.929688 57.351562 80.902344 57.519531 80.496094 57.519531 C 79.679688 57.519531 78.480469 58.429688 78.480469 59.03125 C 78.480469 59.871094 79.847656 61.8125 80.566406 61.984375 C 81.695312 62.269531 81.742188 61.8125 81.359375 56.082031 C 81.023438 51.210938 80.664062 50.175781 79.992188 52.09375 C 79.34375 54.015625 78.238281 54.351562 78.238281 52.621094 C 78.238281 52.191406 78.070312 51.636719 77.878906 51.378906 C 77.542969 50.917969 77.542969 50.917969 77.496094 51.398438 Z M 80.878906 59.828125 C 80.878906 60.664062 80.808594 61.359375 80.710938 61.359375 C 80.59375 61.339844 80.160156 60.855469 79.726562 60.253906 C 78.863281 59.101562 78.9375 58.644531 80.039062 58.238281 C 80.785156 57.953125 80.878906 58.140625 80.878906 59.828125 Z M 80.878906 59.828125 "/>
<path style=" stroke:none;fill-rule:nonzero;fill:rgb(0%,0%,0%);fill-opacity:1;" d="M 90.960938 52.644531 C 90.960938 53.464844 91.320312 53.707031 91.726562 53.222656 C 92.0625 52.839844 92.351562 52.789062 93.574219 52.886719 C 94.488281 52.984375 95.039062 52.933594 95.039062 52.789062 C 95.039062 52.457031 93.863281 52.238281 92.257812 52.238281 C 91.175781 52.238281 90.960938 52.308594 90.960938 52.644531 Z M 90.960938 52.644531 "/>
<path style=" stroke:none;fill-rule:nonzero;fill:rgb(0%,0%,0%);fill-opacity:1;" d="M 84.527344 52.886719 C 83.855469 53.03125 83.59375 53.558594 84 54.039062 C 84.382812 54.496094 84.71875 54.496094 84.71875 54.0625 C 84.71875 53.605469 85.246094 53.4375 86.664062 53.4375 C 87.886719 53.4375 88.246094 53.128906 87.3125 52.863281 C 86.710938 52.71875 85.414062 52.71875 84.527344 52.886719 Z M 84.527344 52.886719 "/>
<path style=" stroke:none;fill-rule:nonzero;fill:rgb(0%,0%,0%);fill-opacity:1;" d="M 85.078125 54.664062 C 84.984375 54.804688 84.960938 54.972656 85.03125 55.023438 C 85.222656 55.238281 88.078125 54.835938 88.078125 54.613281 C 88.078125 54.300781 85.246094 54.351562 85.078125 54.664062 Z M 85.078125 54.664062 "/>
</g>
</svg>
