<?xml version="1.0" encoding="UTF-8"?>
<svg xmlns="http://www.w3.org/2000/svg" xmlns:xlink="http://www.w3.org/1999/xlink" width="117pt" height="103pt" viewBox="0 0 117 103" version="1.1">
<defs>
<clipPath id="clip1">
  <path d="M 31 0.960938 L 37 0.960938 L 37 12 L 31 12 Z M 31 0.960938 "/>
</clipPath>
</defs>
<g id="surface1">
<g clip-path="url(#clip1)" clip-rule="nonzero">
<path style=" stroke:none;fill-rule:nonzero;fill:rgb(0%,0%,0%);fill-opacity:1;" d="M 31.558594 2.039062 C 32.207031 4.273438 32.953125 4.804688 34.007812 3.816406 C 34.511719 3.3125 34.558594 3.3125 34.703125 3.722656 C 34.824219 3.984375 34.703125 4.46875 34.441406 4.898438 C 33.167969 7.085938 32.878906 7.65625 32.734375 8.570312 C 32.59375 9.480469 32.664062 9.648438 33.3125 10.320312 C 34.199219 11.183594 35.28125 11.28125 36.023438 10.535156 C 36.480469 10.085938 36.503906 9.863281 36.359375 8.429688 C 36.265625 7.5625 36.097656 6.359375 35.976562 5.785156 C 35.761719 4.871094 35.808594 4.65625 36.238281 4.203125 C 36.863281 3.554688 36.863281 3.265625 36.238281 3.601562 C 35.542969 3.964844 35.398438 3.792969 35.0625 2.28125 C 34.679688 0.628906 34.175781 0.527344 33.9375 2.066406 C 33.671875 3.84375 32.59375 3.746094 32.28125 1.898438 C 32.160156 1.199219 32.015625 0.964844 31.679688 0.964844 C 31.246094 0.964844 31.246094 1.03125 31.558594 2.039062 Z M 35.496094 6.722656 C 35.832031 8.332031 35.832031 9.671875 35.472656 10.03125 C 34.753906 10.757812 33.359375 9.890625 33.359375 8.6875 C 33.359375 7.828125 34.488281 5.519531 34.921875 5.519531 C 35.113281 5.519531 35.351562 6.023438 35.496094 6.722656 Z M 35.496094 6.722656 "/>
</g>
<path style=" stroke:none;fill-rule:nonzero;fill:rgb(0%,0%,0%);fill-opacity:1;" d="M 86.472656 1.871094 C 86.328125 1.972656 86.039062 2.664062 85.847656 3.433594 C 85.464844 4.921875 85.199219 5.351562 85.03125 4.871094 C 84.839844 4.347656 83.519531 2.640625 83.304688 2.640625 C 83.160156 2.640625 82.992188 3.121094 82.894531 3.722656 C 82.726562 4.945312 82.511719 5.066406 82.128906 4.203125 C 81.769531 3.410156 80.929688 3.410156 80.734375 4.203125 C 80.496094 5.140625 80.832031 6.433594 81.40625 6.746094 C 81.863281 6.984375 81.886719 6.964844 81.742188 6.460938 C 81.359375 5.234375 81.3125 4.804688 81.550781 4.804688 C 81.695312 4.804688 82.105469 5.570312 82.464844 6.480469 C 82.824219 7.417969 83.207031 8.09375 83.304688 7.992188 C 83.425781 7.871094 83.519531 6.9375 83.566406 5.886719 L 83.640625 3.964844 L 84.40625 5.453125 C 84.839844 6.265625 85.296875 6.984375 85.414062 7.058594 C 85.535156 7.132812 85.753906 6.628906 85.921875 5.929688 C 86.496094 3.433594 86.664062 2.886719 86.878906 2.886719 C 87 2.886719 87.167969 3.167969 87.265625 3.527344 C 87.574219 4.992188 88.152344 6.628906 88.464844 6.964844 C 88.894531 7.417969 88.894531 7.226562 88.320312 4.804688 C 87.839844 2.886719 87.3125 1.679688 86.929688 1.679688 C 86.832031 1.679688 86.640625 1.777344 86.472656 1.871094 Z M 86.472656 1.871094 "/>
<path style=" stroke:none;fill-rule:nonzero;fill:rgb(0%,0%,0%);fill-opacity:1;" d="M 90.40625 4.488281 C 89.902344 5.066406 89.664062 6.144531 89.976562 6.339844 C 90.121094 6.433594 90.289062 6.242188 90.382812 5.90625 C 90.457031 5.570312 90.671875 5.183594 90.839844 5.039062 C 91.441406 4.535156 91.488281 5.28125 90.9375 6.769531 C 90.167969 8.855469 90.527344 8.976562 94.152344 7.847656 C 95.039062 7.589844 95.761719 7.253906 95.761719 7.152344 C 95.761719 6.890625 95.566406 6.914062 93.574219 7.320312 C 92.617188 7.535156 91.800781 7.636719 91.726562 7.5625 C 91.65625 7.488281 91.726562 7.085938 91.871094 6.648438 C 92.304688 5.472656 92.230469 4.609375 91.703125 4.320312 C 91.054688 3.984375 90.863281 4.011719 90.40625 4.488281 Z M 90.40625 4.488281 "/>
<path style=" stroke:none;fill-rule:nonzero;fill:rgb(0%,0%,0%);fill-opacity:1;" d="M 75.910156 7.636719 C 75.359375 8.28125 72.886719 10.367188 70.390625 12.265625 C 61.246094 19.253906 54.503906 24.601562 46.777344 31.011719 C 44.566406 32.835938 42.574219 34.320312 42.359375 34.320312 C 41.929688 34.320312 39.480469 32.664062 38.449219 31.679688 C 38.136719 31.394531 37.96875 31.058594 38.089844 30.964844 C 38.351562 30.695312 44.398438 29.304688 46.054688 29.140625 C 47.59375 28.945312 48.40625 28.636719 48.070312 28.296875 C 47.664062 27.890625 39.695312 29.570312 38.089844 30.390625 C 37.464844 30.722656 37.34375 30.722656 37.03125 30.433594 C 36.742188 30.121094 36.886719 29.976562 38.207031 29.332031 C 41.449219 27.746094 47.328125 26.617188 48.671875 27.339844 C 49.296875 27.671875 50.375 27.242188 49.96875 26.835938 C 48.816406 25.679688 40.390625 27.144531 36.910156 29.113281 L 36.023438 29.597656 L 35.113281 28.992188 C 34.609375 28.65625 33.671875 27.914062 33 27.3125 L 31.800781 26.210938 L 31.847656 23.140625 C 31.871094 21.433594 31.96875 19.535156 32.0625 18.890625 C 32.183594 17.886719 32.304688 17.71875 33.023438 17.402344 C 33.480469 17.210938 33.839844 16.945312 33.839844 16.804688 C 33.839844 16.394531 31.152344 13.65625 30.863281 13.757812 C 30.742188 13.804688 30.527344 14.140625 30.40625 14.546875 C 30.289062 14.929688 29.878906 15.964844 29.496094 16.847656 C 29.113281 17.71875 28.800781 18.601562 28.800781 18.816406 C 28.800781 19.347656 29.472656 19.296875 30.457031 18.695312 C 30.886719 18.433594 31.296875 18.265625 31.367188 18.339844 C 31.441406 18.410156 31.414062 19.804688 31.320312 21.460938 C 31.128906 24.554688 30.839844 25.535156 30.214844 25.058594 C 28.632812 23.835938 22.246094 18.628906 20.519531 17.160156 C 18.046875 15.023438 17.328125 14.519531 17.113281 14.738281 C 16.847656 15.003906 17.808594 15.863281 24.433594 21.167969 L 30.960938 26.402344 L 30.960938 27.433594 C 30.960938 27.984375 30.742188 31.945312 30.480469 36.242188 C 30.214844 40.535156 30 44.234375 30 44.472656 C 30 44.957031 28.511719 46.636719 26.855469 48.023438 L 25.726562 48.964844 L 25.007812 48.554688 C 24.121094 48.054688 23.808594 48.265625 24.265625 49.105469 C 24.574219 49.707031 24.527344 49.777344 23.640625 50.546875 C 23.113281 51.003906 21.769531 52.179688 20.664062 53.160156 C 18.433594 55.152344 18.433594 55.152344 15.671875 54.582031 C 14.351562 54.3125 13.777344 54.289062 13.585938 54.480469 C 13.199219 54.863281 13.703125 55.105469 15.742188 55.441406 C 16.726562 55.589844 17.519531 55.757812 17.519531 55.804688 C 17.519531 55.828125 16.464844 56.71875 15.191406 57.746094 C 9.40625 62.378906 0 70.394531 0 70.707031 C 0 71.402344 0.910156 70.992188 2.160156 69.695312 C 3.503906 68.332031 9.40625 63.265625 15.359375 58.394531 L 18.625 55.730469 L 22.558594 55.847656 C 25.992188 55.945312 26.617188 56.015625 27.191406 56.453125 C 27.863281 56.90625 28.558594 56.90625 28.558594 56.402344 C 28.558594 56.28125 28.777344 56.160156 29.039062 56.160156 C 29.496094 56.160156 29.519531 56.332031 29.519531 58.972656 C 29.519531 61.65625 29.734375 62.738281 30.167969 62.304688 C 30.265625 62.210938 30.335938 60.769531 30.289062 59.113281 L 30.214844 56.09375 L 36.046875 56.261719 C 50.59375 56.664062 68.519531 57.390625 69.574219 57.628906 C 70.535156 57.816406 71.375 58.417969 74.902344 61.347656 C 79.320312 65.039062 87.792969 72.410156 91.800781 76.058594 C 94.152344 78.167969 94.800781 78.582031 94.800781 77.90625 C 94.800781 77.496094 93.886719 76.320312 93.550781 76.320312 C 93.214844 76.320312 91.96875 75.3125 87.238281 71.160156 C 85.128906 69.3125 80.832031 65.597656 77.710938 62.929688 C 74.566406 60.242188 72 57.9375 72 57.816406 C 72 57.671875 72.625 57.628906 73.632812 57.722656 C 74.519531 57.792969 77.449219 58.011719 80.160156 58.226562 C 88.128906 58.804688 101.496094 60.242188 102.792969 60.628906 C 103.441406 60.816406 103.273438 61.417969 102.359375 62.332031 C 101.449219 63.242188 101.398438 63.582031 102.238281 63.121094 C 102.816406 62.808594 102.792969 62.785156 103.175781 63.527344 C 103.558594 64.273438 103.800781 64.226562 104.160156 63.359375 C 104.519531 62.519531 105.359375 61.992188 106.777344 61.777344 C 107.328125 61.679688 107.832031 61.515625 107.902344 61.394531 C 107.976562 61.273438 107.566406 60.648438 106.96875 60.023438 C 106.367188 59.402344 105.695312 58.515625 105.480469 58.058594 C 104.976562 57.097656 104.710938 56.886719 104.015625 56.886719 C 103.390625 56.886719 103.199219 57.289062 103.199219 58.707031 C 103.199219 59.765625 103.199219 59.765625 102.359375 59.765625 C 101.902344 59.765625 99.191406 59.496094 96.3125 59.160156 C 88.871094 58.347656 84.550781 57.9375 77.160156 57.359375 C 72.046875 56.976562 70.585938 56.785156 70.078125 56.453125 C 69.742188 56.234375 67.105469 54.144531 64.199219 51.816406 C 61.296875 49.488281 56.878906 46.011719 54.359375 44.066406 C 51.863281 42.121094 48.550781 39.582031 47.039062 38.402344 C 43.441406 35.617188 43.03125 35.183594 43.464844 34.65625 C 43.921875 34.085938 49.96875 29.039062 50.183594 29.039062 C 50.59375 29.039062 50.953125 33.359375 50.808594 36.648438 C 50.664062 40.03125 50.832031 40.871094 51.359375 39.460938 C 51.71875 38.519531 51.648438 32.453125 51.238281 30.339844 C 50.953125 28.871094 50.953125 28.417969 51.167969 28.132812 C 51.886719 27.265625 67.054688 15.480469 70.320312 13.253906 C 71.183594 12.671875 72.289062 11.808594 72.792969 11.378906 C 73.273438 10.921875 73.847656 10.5625 74.039062 10.5625 C 74.230469 10.5625 74.496094 10.347656 74.640625 10.085938 C 74.785156 9.816406 75.3125 9.390625 75.816406 9.121094 C 76.824219 8.617188 78.070312 7.296875 77.929688 6.863281 C 77.710938 6.167969 76.871094 6.507812 75.910156 7.636719 Z M 32.398438 16.105469 C 32.566406 16.367188 32.617188 16.65625 32.542969 16.730469 C 32.351562 16.945312 31.679688 16.320312 31.679688 15.9375 C 31.679688 15.433594 32.113281 15.527344 32.398438 16.105469 Z M 31.679688 16.898438 C 31.679688 17.09375 31.511719 17.304688 31.296875 17.378906 C 30.625 17.640625 30.457031 17.546875 30.71875 17.039062 C 31.007812 16.488281 31.679688 16.394531 31.679688 16.898438 Z M 36.359375 30.816406 C 38.734375 32.71875 40.894531 34.488281 41.160156 34.804688 L 41.640625 35.332031 L 40.894531 35.976562 C 34.34375 41.546875 31.152344 44.160156 30.960938 44.160156 C 30.625 44.160156 30.648438 42.601562 31.078125 35.765625 C 31.535156 28.730469 31.65625 27.359375 31.894531 27.359375 C 31.992188 27.359375 34.007812 28.921875 36.359375 30.816406 Z M 48.480469 40.273438 C 51.71875 42.746094 55.175781 45.410156 56.160156 46.203125 C 57.144531 47.015625 58.871094 48.359375 60 49.203125 C 61.128906 50.039062 63.648438 52.03125 65.59375 53.617188 L 69.144531 56.519531 L 67.871094 56.597656 C 66 56.71875 30.265625 55.535156 30.070312 55.367188 C 30.070312 55.347656 30.121094 53.160156 30.238281 50.519531 L 30.40625 45.746094 L 31.703125 44.546875 C 34.273438 42.191406 42.023438 35.765625 42.3125 35.765625 C 42.480469 35.765625 45.238281 37.804688 48.480469 40.273438 Z M 29.664062 48.410156 C 29.59375 49.417969 29.519531 51.410156 29.519531 52.847656 L 29.519531 55.441406 L 28.824219 55.441406 C 28.199219 55.441406 28.128906 55.347656 27.71875 53.886719 C 27.503906 53.039062 27 51.695312 26.640625 50.929688 L 25.96875 49.515625 L 27.648438 48.023438 C 28.558594 47.234375 29.425781 46.5625 29.566406 46.5625 C 29.734375 46.5625 29.785156 47.140625 29.664062 48.410156 Z M 25.992188 51.527344 C 25.992188 52.847656 25.558594 55.085938 25.320312 54.964844 C 25.175781 54.890625 25.105469 54.097656 25.152344 53.113281 C 25.175781 52.179688 25.105469 51.339844 24.984375 51.265625 C 24.742188 51.121094 24.601562 51.601562 24.335938 53.402344 C 24.167969 54.695312 23.902344 55.203125 23.375 55.203125 C 22.96875 55.203125 22.945312 54.671875 23.304688 52.992188 C 23.496094 52.105469 23.832031 51.480469 24.40625 50.90625 C 25.152344 50.160156 25.273438 50.113281 25.609375 50.472656 C 25.824219 50.664062 25.992188 51.144531 25.992188 51.527344 Z M 22.34375 54.582031 C 22.199219 54.9375 21.984375 55.152344 21.839844 55.085938 C 21.503906 54.863281 21.550781 54.359375 22.007812 53.332031 L 22.414062 52.441406 L 22.488281 53.183594 C 22.535156 53.570312 22.464844 54.222656 22.34375 54.582031 Z M 26.929688 53.886719 C 26.929688 54.222656 26.953125 54.601562 26.976562 54.769531 C 27 54.914062 26.855469 55.085938 26.710938 55.132812 C 26.496094 55.203125 26.398438 54.9375 26.398438 54.265625 C 26.398438 53.210938 26.855469 52.871094 26.929688 53.886719 Z M 20.808594 54.648438 C 20.617188 54.84375 20.304688 54.964844 20.136719 54.914062 C 19.921875 54.84375 19.992188 54.648438 20.398438 54.242188 C 20.808594 53.835938 21 53.765625 21.070312 53.976562 C 21.121094 54.144531 21 54.460938 20.808594 54.648438 Z M 105.601562 61.203125 C 105.144531 61.515625 104.878906 61.515625 104.878906 61.203125 C 104.878906 61.058594 105.121094 60.964844 105.433594 60.964844 C 105.863281 60.964844 105.886719 61.011719 105.601562 61.203125 Z M 105.601562 61.203125 "/>
<path style=" stroke:none;fill-rule:nonzero;fill:rgb(0%,0%,0%);fill-opacity:1;" d="M 42.671875 17.929688 C 42.097656 18.078125 42.121094 18.746094 42.742188 21.242188 C 43.34375 23.617188 43.585938 23.738281 45.40625 22.589844 C 46.824219 21.671875 47.230469 21.003906 46.585938 20.640625 C 46.320312 20.519531 45.886719 20.402344 45.601562 20.402344 L 45.097656 20.402344 L 45.625 19.707031 C 46.535156 18.480469 45.9375 17.808594 43.921875 17.808594 C 43.464844 17.808594 42.886719 17.855469 42.671875 17.929688 Z M 45.359375 18.816406 C 45.359375 19.226562 43.585938 20.6875 43.34375 20.472656 C 43.152344 20.28125 43.152344 18.84375 43.367188 18.648438 C 43.441406 18.554688 43.945312 18.480469 44.449219 18.480469 C 45.070312 18.480469 45.359375 18.582031 45.359375 18.816406 Z M 46.078125 21.3125 C 46.078125 21.410156 45.601562 21.746094 45 22.03125 C 43.945312 22.535156 43.921875 22.535156 43.679688 22.085938 C 43.535156 21.816406 43.488281 21.480469 43.558594 21.359375 C 43.726562 21.078125 46.078125 21.023438 46.078125 21.3125 Z M 46.078125 21.3125 "/>
<path style=" stroke:none;fill-rule:nonzero;fill:rgb(0%,0%,0%);fill-opacity:1;" d="M 55.464844 31.132812 C 55.054688 32.140625 54.214844 37.105469 54.382812 37.535156 C 54.625 38.183594 54.9375 37.972656 55.199219 37.011719 C 55.367188 36.390625 55.632812 35.976562 56.0625 35.785156 C 56.59375 35.546875 56.734375 35.597656 57.121094 36.054688 C 57.382812 36.359375 57.574219 36.671875 57.601562 36.769531 C 57.601562 36.890625 57.71875 36.964844 57.839844 36.964844 C 58.152344 36.964844 58.152344 36.078125 57.816406 35.855469 C 57.671875 35.785156 57.625 35.453125 57.695312 35.140625 C 57.792969 34.777344 57.648438 34.296875 57.238281 33.722656 C 56.929688 33.222656 56.59375 32.453125 56.496094 31.945312 C 56.230469 30.242188 55.921875 30.023438 55.464844 31.132812 Z M 56.519531 34.828125 C 56.425781 34.945312 56.207031 35.039062 56.015625 35.039062 C 55.65625 35.039062 55.558594 34.203125 55.847656 33.460938 C 55.992188 33.097656 56.0625 33.144531 56.328125 33.792969 C 56.496094 34.226562 56.59375 34.679688 56.519531 34.828125 Z M 56.519531 34.828125 "/>
<path style=" stroke:none;fill-rule:nonzero;fill:rgb(0%,0%,0%);fill-opacity:1;" d="M 80.878906 41.09375 C 80.878906 41.261719 80.328125 41.71875 79.65625 42.078125 C 78.695312 42.601562 78.359375 42.671875 78.097656 42.460938 C 77.617188 42.054688 77.449219 42.671875 77.566406 44.453125 C 77.664062 45.722656 77.785156 46.011719 78.433594 46.589844 C 78.863281 46.972656 79.199219 47.453125 79.199219 47.640625 C 79.199219 47.835938 79.320312 48.003906 79.441406 48.003906 C 79.585938 48.003906 79.679688 47.855469 79.679688 47.6875 C 79.679688 47.519531 80.160156 46.804688 80.761719 46.132812 C 82.320312 44.28125 82.703125 42.582031 81.816406 41.429688 C 81.289062 40.757812 80.878906 40.609375 80.878906 41.09375 Z M 81.359375 43.65625 C 81.214844 44.210938 81 44.640625 80.878906 44.640625 C 80.710938 44.640625 80.902344 43.46875 81.289062 42.480469 C 81.550781 41.738281 81.625 42.695312 81.359375 43.65625 Z M 80.0625 44.039062 C 79.609375 45.84375 79.078125 46.417969 78.550781 45.722656 C 78.023438 44.976562 78.167969 44.210938 78.910156 43.828125 C 79.894531 43.273438 80.230469 43.347656 80.0625 44.039062 Z M 80.0625 44.039062 "/>
<path style=" stroke:none;fill-rule:nonzero;fill:rgb(0%,0%,0%);fill-opacity:1;" d="M 16.414062 41.738281 C 15.191406 42.289062 15.097656 42.554688 15.648438 43.65625 C 16.222656 44.785156 16.222656 45.914062 15.671875 45.792969 C 15.433594 45.746094 15.144531 45.390625 15.046875 45.003906 C 14.734375 43.972656 14.519531 43.609375 14.207031 43.488281 C 13.847656 43.367188 13.847656 44.09375 14.183594 45.097656 C 14.351562 45.554688 14.832031 46.105469 15.382812 46.46875 C 15.910156 46.777344 16.367188 47.304688 16.464844 47.640625 C 16.679688 48.554688 17.039062 48.359375 17.039062 47.304688 C 17.039062 46.535156 17.183594 46.253906 17.808594 45.722656 C 18.527344 45.121094 18.601562 45.097656 18.886719 45.507812 C 19.054688 45.746094 19.199219 46.347656 19.199219 46.847656 C 19.199219 47.351562 19.296875 47.765625 19.390625 47.765625 C 19.511719 47.765625 20.230469 47.640625 21.023438 47.496094 C 22.824219 47.160156 23.398438 46.679688 21.769531 46.871094 C 20.761719 46.972656 20.640625 46.945312 20.785156 46.589844 C 21.433594 45.097656 21.046875 44.160156 19.800781 44.160156 C 19.054688 44.160156 19.007812 44.113281 18.886719 43.152344 C 18.792969 42.507812 18.550781 41.976562 18.238281 41.71875 C 17.59375 41.183594 17.640625 41.183594 16.414062 41.738281 Z M 17.953125 42.289062 C 18.40625 42.746094 18.289062 43.707031 17.710938 44.570312 C 17.398438 45.003906 17.089844 45.359375 16.992188 45.359375 C 16.777344 45.359375 16.488281 42.554688 16.679688 42.265625 C 16.871094 41.90625 17.59375 41.929688 17.953125 42.289062 Z M 20.398438 45.460938 C 20.398438 45.648438 20.304688 45.890625 20.160156 45.964844 C 20.039062 46.03125 19.921875 45.890625 19.921875 45.628906 C 19.921875 45.339844 20.039062 45.121094 20.160156 45.121094 C 20.304688 45.121094 20.398438 45.265625 20.398438 45.460938 Z M 20.398438 45.460938 "/>
<path style=" stroke:none;fill-rule:nonzero;fill:rgb(0%,0%,0%);fill-opacity:1;" d="M 83.902344 45.507812 C 83.640625 46.179688 83.734375 49.320312 84 49.058594 C 84.359375 48.695312 84.601562 45.460938 84.289062 45.265625 C 84.167969 45.191406 83.976562 45.289062 83.902344 45.507812 Z M 83.902344 45.507812 "/>
<path style=" stroke:none;fill-rule:nonzero;fill:rgb(0%,0%,0%);fill-opacity:1;" d="M 66.3125 48.460938 C 65.878906 49.03125 65.519531 49.730469 65.519531 49.992188 C 65.519531 50.429688 65.640625 50.453125 66.769531 50.304688 C 67.632812 50.183594 68.183594 49.945312 68.542969 49.535156 C 69 49.085938 69.335938 48.964844 70.34375 48.964844 C 73.726562 48.964844 77.617188 50.855469 78.71875 53.066406 C 79.296875 54.167969 79.320312 54.695312 78.863281 55.804688 C 78.648438 56.28125 78.601562 56.640625 78.742188 56.640625 C 79.175781 56.640625 79.726562 54.914062 79.609375 53.957031 C 79.34375 51.9375 77.59375 50.351562 74.398438 49.179688 C 73.078125 48.695312 72.40625 48.601562 70.03125 48.601562 L 67.222656 48.601562 L 67.152344 48.003906 C 67.078125 47.429688 67.03125 47.453125 66.3125 48.460938 Z M 66.3125 48.460938 "/>
<path style=" stroke:none;fill-rule:nonzero;fill:rgb(0%,0%,0%);fill-opacity:1;" d="M 115.175781 58.921875 C 114.886719 59.378906 114.601562 59.765625 114.527344 59.765625 C 114.433594 59.765625 114.046875 59.546875 113.640625 59.28125 C 113.257812 59.015625 112.777344 58.804688 112.632812 58.804688 C 112.105469 58.804688 112.296875 59.519531 112.871094 59.738281 C 114.121094 60.222656 114.144531 60.582031 112.992188 62.453125 C 112.390625 63.410156 111.839844 64.367188 111.742188 64.5625 C 111.503906 65.039062 113.207031 63.242188 114.023438 62.183594 L 114.648438 61.347656 L 115.535156 62.039062 C 116.664062 62.90625 116.878906 62.664062 116.0625 61.488281 C 115.34375 60.433594 115.296875 60.167969 115.800781 59.765625 C 116.207031 59.429688 116.304688 58.085938 115.921875 58.085938 C 115.777344 58.085938 115.441406 58.46875 115.175781 58.921875 Z M 115.175781 58.921875 "/>
<path style=" stroke:none;fill-rule:nonzero;fill:rgb(0%,0%,0%);fill-opacity:1;" d="M 41.160156 78.648438 C 40.894531 81.289062 40.894531 81.3125 39.695312 81.507812 C 39.121094 81.582031 38.640625 81.746094 38.640625 81.84375 C 38.640625 82.058594 39.503906 82.320312 40.246094 82.320312 C 40.777344 82.320312 40.777344 82.394531 40.753906 84.359375 C 40.679688 87.265625 41.183594 87.601562 41.328125 84.769531 C 41.398438 83.597656 41.519531 82.488281 41.617188 82.347656 C 41.710938 82.203125 42.480469 82.085938 43.464844 82.085938 L 45.144531 82.085938 L 44.519531 83.113281 C 43.296875 85.253906 44.039062 85.609375 45.671875 83.71875 L 46.753906 82.441406 L 46.921875 83.160156 C 47.230469 84.601562 47.664062 85.5625 48 85.5625 C 48.214844 85.5625 48.503906 85.105469 48.71875 84.433594 C 48.910156 83.785156 49.128906 83.28125 49.199219 83.28125 C 49.273438 83.28125 49.558594 83.71875 49.871094 84.242188 C 50.566406 85.46875 51.046875 85.46875 51.527344 84.242188 C 51.742188 83.71875 51.984375 83.28125 52.078125 83.28125 C 52.152344 83.28125 52.535156 83.929688 52.921875 84.722656 C 53.304688 85.515625 53.710938 86.160156 53.832031 86.160156 C 54.433594 86.160156 52.679688 82.253906 52.03125 82.132812 C 51.742188 82.085938 51.527344 82.273438 51.359375 82.730469 C 50.734375 84.433594 50.761719 84.433594 50.089844 82.972656 C 49.753906 82.226562 49.34375 81.601562 49.199219 81.601562 C 49.054688 81.601562 48.71875 82.105469 48.457031 82.730469 C 47.902344 83.976562 47.976562 84.023438 47.160156 81.984375 L 46.800781 81.054688 L 44.257812 81.222656 L 41.710938 81.410156 L 41.855469 80.597656 C 42.238281 78.792969 42.289062 77.738281 42 77.402344 C 41.472656 76.777344 41.351562 76.992188 41.160156 78.648438 Z M 41.160156 78.648438 "/>
<path style=" stroke:none;fill-rule:nonzero;fill:rgb(0%,0%,0%);fill-opacity:1;" d="M 61.222656 79.5625 C 60.382812 81.265625 60.070312 81.410156 58.753906 80.738281 C 58.152344 80.429688 57.984375 80.402344 57.816406 80.6875 C 57.265625 81.527344 57.792969 83.976562 58.632812 84.695312 C 58.871094 84.863281 59.039062 85.273438 59.039062 85.589844 C 59.039062 86.332031 59.351562 86.332031 59.761719 85.5625 C 59.929688 85.226562 60.433594 84.746094 60.886719 84.480469 C 62.351562 83.617188 63.167969 81.554688 62.160156 81.242188 C 61.488281 81.023438 61.558594 80.304688 62.28125 79.828125 C 63.023438 79.320312 63.144531 78.003906 62.425781 78.003906 C 62.113281 78.003906 61.753906 78.480469 61.222656 79.5625 Z M 60.238281 82.085938 C 60.238281 82.515625 59.398438 84.003906 59.136719 84.003906 C 58.824219 84.003906 58.320312 82.972656 58.320312 82.320312 C 58.320312 81.914062 58.488281 81.84375 59.28125 81.84375 C 59.808594 81.84375 60.238281 81.9375 60.238281 82.085938 Z M 62.160156 82.058594 C 62.160156 82.367188 61.199219 83.519531 60.9375 83.519531 C 60.625 83.519531 60.671875 82.871094 61.007812 82.320312 C 61.320312 81.84375 62.160156 81.648438 62.160156 82.058594 Z M 62.160156 82.058594 "/>
<path style=" stroke:none;fill-rule:nonzero;fill:rgb(0%,0%,0%);fill-opacity:1;" d="M 100.945312 79.488281 C 100.753906 79.921875 100.535156 80.640625 100.441406 81.054688 C 100.367188 81.480469 100.175781 81.84375 100.054688 81.84375 C 99.9375 81.84375 99.574219 81.410156 99.238281 80.886719 C 98.902344 80.351562 98.449219 79.898438 98.207031 79.898438 C 97.464844 79.847656 97.320312 79.804688 96.792969 79.488281 C 96.289062 79.203125 96.191406 79.253906 95.761719 79.972656 C 95.039062 81.167969 95.160156 83.039062 95.953125 83.039062 C 96.238281 83.039062 96.265625 82.972656 96.046875 82.757812 C 95.6875 82.394531 95.6875 81.601562 96 80.738281 C 96.238281 80.140625 96.289062 80.113281 96.648438 80.453125 C 96.839844 80.664062 97.199219 81.507812 97.414062 82.347656 C 97.96875 84.460938 98.496094 84.582031 98.304688 82.535156 L 98.136719 81.003906 L 98.6875 81.648438 C 99 82.011719 99.433594 82.5625 99.671875 82.921875 C 100.246094 83.71875 100.65625 83.429688 101.015625 81.964844 C 101.160156 81.390625 101.375 80.855469 101.472656 80.785156 C 101.59375 80.71875 101.785156 81.289062 101.929688 82.03125 C 102.070312 82.777344 102.335938 83.71875 102.503906 84.121094 C 103.007812 85.347656 103.054688 84.222656 102.601562 81.769531 C 102.023438 78.582031 101.566406 77.976562 100.945312 79.488281 Z M 100.945312 79.488281 "/>
<path style=" stroke:none;fill-rule:nonzero;fill:rgb(0%,0%,0%);fill-opacity:1;" d="M 15.359375 80.6875 C 14.734375 81.746094 14.28125 83.738281 14.59375 84.054688 C 14.785156 84.242188 14.902344 84.097656 15 83.617188 C 15.3125 82.253906 15.648438 81.359375 15.839844 81.359375 C 15.960938 81.359375 16.175781 82.03125 16.367188 82.847656 C 16.535156 83.664062 16.800781 84.359375 16.96875 84.410156 C 17.113281 84.460938 17.398438 83.957031 17.617188 83.183594 C 17.832031 82.46875 18.097656 81.792969 18.238281 81.722656 C 18.359375 81.648438 18.574219 82.058594 18.742188 82.609375 C 19.296875 84.648438 19.34375 84.816406 19.585938 84.890625 C 19.726562 84.9375 19.992188 84.628906 20.207031 84.191406 L 20.59375 83.402344 L 21.238281 84.769531 C 21.601562 85.535156 21.984375 86.113281 22.078125 86.039062 C 22.34375 85.871094 21.910156 84.390625 21.191406 82.921875 L 20.59375 81.746094 L 20.136719 82.296875 L 19.703125 82.828125 L 19.320312 81.914062 C 18.695312 80.453125 18.191406 80.304688 17.542969 81.390625 L 17.089844 82.132812 L 16.609375 81.023438 C 16.320312 80.429688 16.054688 79.921875 15.960938 79.921875 C 15.886719 79.921875 15.625 80.261719 15.359375 80.6875 Z M 15.359375 80.6875 "/>
<path style=" stroke:none;fill-rule:nonzero;fill:rgb(0%,0%,0%);fill-opacity:1;" d="M 64.679688 83.210938 C 64.390625 83.957031 64.222656 87.265625 64.511719 87.003906 C 64.703125 86.808594 65.183594 84.769531 65.351562 83.304688 C 65.425781 82.804688 64.871094 82.730469 64.679688 83.210938 Z M 64.679688 83.210938 "/>
<path style=" stroke:none;fill-rule:nonzero;fill:rgb(0%,0%,0%);fill-opacity:1;" d="M 105.265625 83.429688 C 105.191406 83.640625 105.121094 84.746094 105.144531 85.871094 C 105.167969 87.84375 105.167969 87.914062 105.480469 87.242188 C 105.863281 86.453125 105.960938 83.039062 105.625 83.039062 C 105.503906 83.039062 105.335938 83.210938 105.265625 83.429688 Z M 105.265625 83.429688 "/>
<path style=" stroke:none;fill-rule:nonzero;fill:rgb(0%,0%,0%);fill-opacity:1;" d="M 29.351562 83.453125 C 28.992188 83.519531 28.800781 83.738281 28.800781 84.054688 C 28.800781 84.480469 28.894531 84.527344 29.59375 84.339844 C 30 84.222656 31.152344 84.144531 32.113281 84.167969 C 33.335938 84.191406 33.839844 84.121094 33.769531 83.929688 C 33.625 83.453125 30.886719 83.160156 29.351562 83.453125 Z M 29.351562 83.453125 "/>
<path style=" stroke:none;fill-rule:nonzero;fill:rgb(0%,0%,0%);fill-opacity:1;" d="M 31.34375 84.984375 C 29.617188 85.179688 28.871094 85.535156 29.617188 85.828125 C 30.359375 86.113281 34.65625 85.320312 34.414062 84.9375 C 34.273438 84.695312 33.71875 84.695312 31.34375 84.984375 Z M 31.34375 84.984375 "/>
<path style=" stroke:none;fill-rule:nonzero;fill:rgb(0%,0%,0%);fill-opacity:1;" d="M 23.449219 87.054688 C 23.0625 90.914062 23.425781 91.777344 24 88.441406 C 24.3125 86.617188 24.265625 85.65625 23.855469 85.515625 C 23.6875 85.46875 23.542969 86.039062 23.449219 87.054688 Z M 23.449219 87.054688 "/>
<path style=" stroke:none;fill-rule:nonzero;fill:rgb(0%,0%,0%);fill-opacity:1;" d="M 45.503906 89.304688 C 45.433594 89.617188 45.335938 90.792969 45.3125 91.921875 L 45.238281 93.960938 L 44.039062 93.960938 C 42 93.960938 42.480469 94.707031 44.59375 94.777344 L 45.359375 94.804688 L 45.359375 96.222656 C 45.359375 97.945312 45.574219 99.125 45.910156 99.125 C 46.054688 99.125 46.105469 98.351562 46.03125 96.960938 L 45.910156 94.804688 L 48.433594 94.804688 L 47.976562 95.6875 C 47.449219 96.75 47.375 97.65625 47.855469 97.824219 C 48.3125 97.992188 50.089844 97.082031 50.449219 96.480469 C 50.929688 95.71875 51.289062 95.929688 51.71875 97.199219 C 51.9375 97.847656 52.246094 98.402344 52.441406 98.402344 C 52.609375 98.402344 52.96875 97.898438 53.230469 97.25 L 53.710938 96.125 L 53.976562 96.769531 C 54.144531 97.25 54.40625 97.441406 54.816406 97.441406 C 55.152344 97.441406 55.488281 97.320312 55.558594 97.199219 C 55.824219 96.769531 56.089844 96.9375 56.761719 97.972656 C 57.625 99.265625 57.816406 98.789062 57.097656 97.082031 C 56.496094 95.640625 56.136719 95.472656 55.296875 96.265625 L 54.769531 96.75 L 54.335938 95.832031 C 54.070312 95.332031 53.785156 94.925781 53.640625 94.925781 C 53.519531 94.925781 53.183594 95.351562 52.945312 95.886719 L 52.464844 96.816406 L 52.007812 95.6875 C 51.742188 95.066406 51.40625 94.5625 51.265625 94.5625 C 51.097656 94.5625 50.449219 95.164062 49.824219 95.886719 C 49.199219 96.601562 48.601562 97.199219 48.457031 97.199219 C 47.976562 97.199219 48.289062 96.414062 49.199219 95.429688 C 50.59375 93.917969 50.496094 93.769531 48.335938 93.960938 C 46.894531 94.105469 46.464844 94.082031 46.296875 93.816406 C 46.175781 93.625 46.105469 92.519531 46.105469 91.347656 C 46.105469 89.261719 45.769531 88.105469 45.503906 89.304688 Z M 45.503906 89.304688 "/>
<path style=" stroke:none;fill-rule:nonzero;fill:rgb(0%,0%,0%);fill-opacity:1;" d="M 65.089844 91.273438 C 64.945312 91.417969 64.703125 92.039062 64.511719 92.617188 C 64.34375 93.191406 63.960938 93.816406 63.671875 94.011719 C 63.214844 94.320312 63.191406 94.417969 63.457031 94.707031 C 63.742188 94.992188 63.742188 95.261719 63.40625 96.527344 C 63.191406 97.347656 62.902344 98.015625 62.761719 98.015625 C 62.617188 98.042969 62.449219 97.058594 62.351562 95.808594 C 62.28125 94.585938 62.136719 93.507812 62.039062 93.414062 C 61.273438 92.640625 61.320312 97.011719 62.113281 98.550781 C 62.398438 99.144531 62.542969 99.769531 62.472656 100.25 C 62.304688 101.304688 62.566406 101.261719 63 100.132812 C 63.238281 99.601562 63.71875 99.023438 64.273438 98.6875 C 65.207031 98.113281 66.289062 96.75 66.71875 95.667969 C 66.910156 95.140625 66.863281 94.945312 66.480469 94.5625 C 66.214844 94.300781 65.785156 94.082031 65.519531 94.082031 C 64.945312 94.082031 64.847656 93.167969 65.398438 92.976562 C 65.617188 92.886719 65.761719 92.519531 65.761719 92.039062 C 65.761719 91.152344 65.472656 90.816406 65.089844 91.273438 Z M 66.214844 94.925781 C 66.359375 95.09375 65.113281 97.058594 64.464844 97.65625 C 64.007812 98.09375 63.839844 98.140625 63.839844 97.898438 C 63.839844 97.515625 64.535156 95.066406 64.726562 94.730469 C 64.847656 94.539062 65.976562 94.707031 66.214844 94.925781 Z M 66.214844 94.925781 "/>
<path style=" stroke:none;fill-rule:nonzero;fill:rgb(0%,0%,0%);fill-opacity:1;" d="M 20.449219 95.207031 C 20.304688 95.597656 20.0625 96.3125 19.894531 96.84375 L 19.585938 97.804688 L 19.34375 96.554688 C 18.960938 94.679688 18.625 94.488281 17.640625 95.597656 C 16.871094 96.480469 16.824219 96.507812 16.558594 96.023438 C 16.414062 95.738281 16.199219 95.519531 16.078125 95.519531 C 15.671875 95.519531 15.574219 97.058594 15.910156 98.164062 C 16.414062 99.816406 16.847656 99.648438 17.496094 97.5625 C 17.785156 96.582031 18.121094 95.765625 18.238281 95.765625 C 18.335938 95.765625 18.550781 96.582031 18.695312 97.5625 C 18.863281 98.550781 19.078125 99.414062 19.199219 99.480469 C 19.511719 99.675781 20.015625 98.90625 20.542969 97.347656 C 20.808594 96.554688 21.144531 95.886719 21.265625 95.886719 C 21.382812 95.886719 21.671875 96.75 21.910156 97.804688 C 22.152344 98.855469 22.488281 99.984375 22.632812 100.320312 L 22.894531 100.925781 L 22.992188 100.179688 C 23.089844 99.292969 22.464844 96.507812 21.9375 95.375 C 21.457031 94.367188 20.785156 94.320312 20.449219 95.207031 Z M 20.449219 95.207031 "/>
<path style=" stroke:none;fill-rule:nonzero;fill:rgb(0%,0%,0%);fill-opacity:1;" d="M 33.359375 96.648438 C 31.992188 96.792969 31.871094 96.890625 32.160156 97.441406 C 32.425781 97.945312 33.121094 98.113281 33.121094 97.65625 C 33.121094 97.46875 33.671875 97.417969 34.800781 97.488281 C 36.457031 97.585938 36.863281 97.417969 36.070312 97.011719 C 35.472656 96.675781 34.34375 96.527344 33.359375 96.648438 Z M 33.359375 96.648438 "/>
<path style=" stroke:none;fill-rule:nonzero;fill:rgb(0%,0%,0%);fill-opacity:1;" d="M 69.265625 97.46875 C 68.160156 97.730469 67.441406 98.28125 67.441406 98.90625 C 67.441406 99.648438 67.847656 99.625 68.59375 98.886719 C 69.3125 98.183594 70.320312 97.898438 70.320312 98.402344 C 70.320312 98.550781 69.816406 99.191406 69.191406 99.863281 C 68.351562 100.757812 68.136719 101.113281 68.351562 101.332031 C 68.832031 101.808594 71.351562 101.832031 73.464844 101.402344 C 75.695312 100.972656 76.703125 100.417969 74.878906 100.636719 C 72.457031 100.945312 69.601562 101.09375 69.601562 100.898438 C 69.601562 100.777344 69.9375 100.25 70.320312 99.75 C 70.726562 99.222656 71.039062 98.5 71.039062 98.113281 C 71.039062 97.757812 70.992188 97.441406 70.945312 97.441406 C 70.894531 97.441406 70.703125 97.394531 70.511719 97.347656 C 70.34375 97.300781 69.769531 97.347656 69.265625 97.46875 Z M 69.265625 97.46875 "/>
<path style=" stroke:none;fill-rule:nonzero;fill:rgb(0%,0%,0%);fill-opacity:1;" d="M 25.152344 98.808594 C 24.695312 98.929688 24.433594 99.457031 24.625 99.960938 C 24.816406 100.441406 25.199219 100.417969 25.585938 99.917969 C 26.183594 99.054688 26.207031 99.863281 25.585938 100.757812 C 25.246094 101.261719 24.960938 101.738281 24.960938 101.832031 C 24.960938 102.144531 26.160156 102 27.527344 101.519531 C 29.449219 100.847656 29.710938 100.488281 28.152344 100.707031 L 26.878906 100.875 L 26.878906 100.011719 C 26.878906 99.390625 26.734375 99.074219 26.425781 98.886719 C 25.945312 98.640625 25.824219 98.617188 25.152344 98.808594 Z M 25.152344 98.808594 "/>
<path style=" stroke:none;fill-rule:nonzero;fill:rgb(0%,0%,0%);fill-opacity:1;" d="M 33.839844 98.808594 C 32.664062 99 31.679688 99.414062 31.800781 99.625 C 32.015625 99.9375 32.761719 99.890625 34.222656 99.457031 C 36.144531 98.90625 35.878906 98.472656 33.839844 98.808594 Z M 33.839844 98.808594 "/>
</g>
</svg>
