<?xml version="1.0" encoding="UTF-8"?>
<svg xmlns="http://www.w3.org/2000/svg" xmlns:xlink="http://www.w3.org/1999/xlink" width="109pt" height="82pt" viewBox="0 0 109 82" version="1.1">
<defs>
<clipPath id="clip1">
  <path d="M 42 0.1875 L 48 0.1875 L 48 9 L 42 9 Z M 42 0.1875 "/>
</clipPath>
</defs>
<g id="surface1">
<g clip-path="url(#clip1)" clip-rule="nonzero">
<path style=" stroke:none;fill-rule:nonzero;fill:rgb(0%,0%,0%);fill-opacity:1;" d="M 45.839844 0.878906 C 45.480469 1.722656 44.734375 2.34375 44.257812 2.152344 C 44.089844 2.105469 43.726562 1.648438 43.441406 1.191406 C 42.886719 0.257812 42.574219 0.28125 42.816406 1.242188 C 43.007812 2.03125 43.800781 2.796875 44.375 2.796875 C 44.640625 2.796875 45.167969 2.535156 45.550781 2.199219 C 46.777344 1.191406 46.992188 2.414062 45.863281 3.855469 C 44.902344 5.03125 44.734375 5.917969 45.265625 6.996094 C 45.671875 7.863281 46.390625 8.441406 46.777344 8.226562 C 46.894531 8.152344 47.0625 6.996094 47.160156 5.679688 C 47.257812 4.164062 47.449219 3.136719 47.664062 2.945312 C 47.929688 2.65625 47.902344 2.585938 47.519531 2.488281 C 47.207031 2.414062 47.039062 2.058594 46.921875 1.265625 C 46.726562 -0.0078125 46.273438 -0.175781 45.839844 0.878906 Z M 46.777344 6.449219 C 46.800781 7.097656 46.703125 7.359375 46.441406 7.359375 C 45.601562 7.359375 45.3125 5.246094 46.007812 4.242188 L 46.441406 3.640625 L 46.609375 4.601562 C 46.703125 5.128906 46.777344 5.96875 46.777344 6.449219 Z M 46.777344 6.449219 "/>
</g>
<path style=" stroke:none;fill-rule:nonzero;fill:rgb(0%,0%,0%);fill-opacity:1;" d="M 37.273438 6.808594 C 36.9375 7.554688 36.648438 8.5625 36.625 9.015625 C 36.601562 9.785156 36.671875 9.878906 37.273438 9.953125 L 37.921875 10.023438 L 37.921875 14.753906 L 35.472656 15.519531 C 27.574219 17.945312 23.832031 20.128906 20.328125 24.304688 C 17.304688 27.929688 16.296875 30.234375 15.769531 34.722656 L 15.480469 37.242188 L 13.800781 37.382812 C 11.519531 37.601562 6.550781 37.621094 5.472656 37.457031 C 4.777344 37.335938 4.464844 37.097656 4.078125 36.472656 L 3.601562 35.65625 L 2.59375 36.183594 C 1.34375 36.808594 0 37.789062 0 38.082031 C 0 38.199219 0.40625 38.414062 0.910156 38.5625 C 2.328125 38.992188 3.601562 39.570312 3.601562 39.808594 C 3.601562 39.90625 3.71875 39.996094 3.839844 39.996094 C 3.984375 39.996094 4.078125 39.59375 4.078125 39.089844 L 4.078125 38.152344 L 7.871094 38.007812 C 9.9375 37.910156 12.574219 37.839844 13.703125 37.839844 L 15.769531 37.839844 L 16.078125 39.207031 C 17.015625 43.527344 20.230469 46.9375 26.039062 49.839844 C 29.113281 51.371094 35.425781 52.960938 38.398438 52.960938 L 39.289062 52.960938 L 39.457031 54.808594 C 39.527344 55.816406 39.601562 57.421875 39.601562 58.410156 C 39.601562 60.066406 39.550781 60.183594 39 60.449219 C 38.542969 60.640625 38.257812 60.640625 37.777344 60.421875 C 37.414062 60.28125 37.078125 60.183594 37.03125 60.257812 C 36.886719 60.402344 39.335938 63.257812 40.128906 63.832031 C 40.535156 64.144531 40.945312 64.265625 41.351562 64.144531 C 42 63.996094 42.289062 63.160156 42.625 60.6875 L 42.792969 59.441406 L 40.152344 59.730469 L 39.960938 56.609375 C 39.863281 54.878906 39.863281 53.34375 39.960938 53.199219 C 40.03125 53.082031 40.753906 52.960938 41.519531 52.960938 C 46.320312 52.960938 54.097656 51.136719 58.367188 48.976562 C 61.871094 47.226562 65.976562 43.816406 67.296875 41.585938 C 68.039062 40.3125 68.59375 38.414062 68.808594 36.304688 C 69.046875 34.3125 68.855469 34.382812 73.222656 34.144531 L 76.273438 33.976562 L 76.414062 34.816406 C 76.511719 35.273438 76.679688 35.730469 76.800781 35.796875 C 76.921875 35.867188 77.6875 35.394531 78.527344 34.722656 C 79.34375 34.074219 80.113281 33.519531 80.207031 33.519531 C 80.304688 33.519531 80.398438 33.421875 80.398438 33.304688 C 80.398438 33.207031 79.753906 32.867188 78.960938 32.585938 C 78.167969 32.292969 77.207031 31.789062 76.800781 31.457031 L 76.078125 30.832031 L 76.078125 32.03125 C 76.078125 33.183594 76.054688 33.234375 75.3125 33.371094 C 73.824219 33.660156 69.023438 33.996094 68.855469 33.832031 C 68.785156 33.710938 68.472656 32.847656 68.183594 31.863281 C 67.105469 28.265625 64.65625 23.796875 62.113281 20.847656 C 59.855469 18.207031 56.855469 16.265625 52.871094 14.867188 C 51.046875 14.226562 50.902344 14.199219 45.960938 14.246094 C 43.199219 14.246094 40.414062 14.367188 39.769531 14.511719 C 39.046875 14.65625 38.566406 14.65625 38.496094 14.511719 C 38.425781 14.394531 38.425781 13.242188 38.519531 11.945312 L 38.6875 9.617188 L 39.671875 9.257812 C 40.464844 8.992188 40.703125 8.777344 40.753906 8.292969 C 40.800781 7.789062 40.558594 7.457031 39.503906 6.570312 C 38.785156 5.945312 38.136719 5.441406 38.039062 5.441406 C 37.96875 5.441406 37.609375 6.066406 37.273438 6.808594 Z M 40.078125 7.695312 C 40.609375 8.367188 40.199219 8.796875 39.023438 8.796875 C 38.304688 8.796875 37.921875 8.917969 37.824219 9.160156 C 37.679688 9.570312 36.960938 9.660156 36.960938 9.28125 C 36.960938 8.847656 37.679688 7.285156 38.089844 6.832031 C 38.449219 6.421875 38.496094 6.421875 39.121094 6.878906 C 39.480469 7.117188 39.910156 7.503906 40.078125 7.695312 Z M 51.238281 14.917969 C 53.0625 15.328125 55.800781 16.457031 57.527344 17.488281 C 60.574219 19.3125 64.632812 24.371094 66.503906 28.695312 C 67.441406 30.855469 68.207031 33.472656 68.039062 33.785156 C 67.847656 34.074219 66.097656 34.214844 56.878906 34.722656 C 51.9375 34.984375 46.105469 35.320312 43.945312 35.441406 L 40.03125 35.679688 L 39.40625 35.082031 C 38.855469 34.503906 38.785156 34.265625 38.617188 31.242188 C 38.398438 27.207031 38.257812 15.328125 38.449219 15.160156 C 38.519531 15.089844 39.769531 14.917969 41.183594 14.796875 C 46.007812 14.414062 49.296875 15.234375 50.304688 17.105469 C 50.566406 17.609375 50.832031 17.824219 50.976562 17.679688 C 51.097656 17.5625 51.023438 17.199219 50.761719 16.789062 C 50.183594 15.929688 49.777344 15.59375 48.550781 15.015625 C 47.976562 14.753906 47.519531 14.488281 47.519531 14.441406 C 47.519531 14.292969 49.558594 14.5625 51.238281 14.917969 Z M 37.777344 19.042969 C 37.847656 21.015625 37.992188 25.527344 38.0625 29.105469 L 38.207031 35.632812 L 37.535156 35.777344 C 36.070312 36.066406 16.511719 37.410156 16.34375 37.214844 C 16.128906 37.023438 16.34375 33.855469 16.679688 32.246094 C 17.304688 29.226562 18.886719 26.441406 21.71875 23.464844 C 23.710938 21.371094 25.558594 20.007812 28.320312 18.617188 C 30.359375 17.585938 36.144531 15.570312 37.105469 15.539062 C 37.609375 15.519531 37.632812 15.640625 37.777344 19.042969 Z M 78.191406 32.898438 L 79.246094 33.421875 L 78.238281 34.335938 C 77.6875 34.839844 77.160156 35.171875 77.089844 35.082031 C 76.992188 35.007812 76.921875 34.527344 76.894531 34.042969 C 76.894531 33.570312 76.800781 32.96875 76.679688 32.730469 C 76.441406 32.171875 76.921875 32.199219 78.191406 32.898438 Z M 68.113281 34.769531 C 68.832031 35.488281 67.871094 39.617188 66.480469 41.679688 C 63.046875 46.839844 55.03125 50.917969 45.886719 52.117188 C 42.335938 52.601562 40.175781 52.601562 39.984375 52.097656 C 39.910156 51.90625 39.742188 49.984375 39.601562 47.847656 C 39.480469 45.710938 39.238281 42.257812 39.097656 40.164062 C 38.953125 38.082031 38.855469 36.328125 38.902344 36.28125 C 39 36.207031 44.953125 35.824219 58.441406 35.082031 C 62.136719 34.863281 65.328125 34.667969 65.519531 34.621094 C 66.382812 34.410156 67.847656 34.503906 68.113281 34.769531 Z M 37.632812 36.808594 C 37.679688 37.117188 37.847656 37.359375 38.015625 37.359375 C 38.230469 37.359375 38.398438 37.890625 38.496094 38.96875 C 38.808594 42.234375 39.359375 49.984375 39.359375 51.257812 L 39.359375 52.554688 L 37.367188 52.382812 C 36.265625 52.285156 34.222656 51.976562 32.855469 51.660156 C 27.121094 50.34375 23.566406 48.472656 20.015625 44.945312 C 18.214844 43.144531 17.734375 42.492188 17.230469 41.171875 C 16.871094 40.3125 16.535156 39.207031 16.441406 38.730469 C 16.296875 37.960938 16.320312 37.839844 16.824219 37.742188 C 17.136719 37.667969 20.207031 37.457031 23.640625 37.242188 C 27.070312 37.023438 31.34375 36.710938 33.121094 36.519531 C 37.273438 36.136719 37.535156 36.136719 37.632812 36.808594 Z M 3.359375 36.996094 C 3.359375 37.214844 3.191406 37.433594 2.976562 37.527344 C 2.542969 37.695312 2.039062 37.265625 2.257812 36.90625 C 2.519531 36.492188 3.359375 36.59375 3.359375 36.996094 Z M 3.238281 38.34375 C 3.527344 38.796875 3.121094 38.898438 2.710938 38.488281 C 2.328125 38.105469 2.328125 38.082031 2.6875 38.082031 C 2.902344 38.082031 3.167969 38.199219 3.238281 38.34375 Z M 41.902344 61.265625 C 41.664062 63.402344 41.089844 64.023438 40.222656 63.136719 C 39.457031 62.394531 39.839844 60.710938 40.894531 60.257812 C 42.023438 59.777344 42.070312 59.824219 41.902344 61.265625 Z M 41.902344 61.265625 "/>
<path style=" stroke:none;fill-rule:nonzero;fill:rgb(0%,0%,0%);fill-opacity:1;" d="M 41.976562 38.535156 C 40.96875 39.304688 40.679688 40.265625 41.160156 41.171875 C 41.375 41.609375 41.832031 42.066406 42.191406 42.183594 C 42.984375 42.492188 46.296875 42.328125 47.039062 41.917969 C 47.832031 41.488281 47.472656 41.394531 46.222656 41.703125 C 44.734375 42.066406 42.625 41.867188 42 41.320312 C 41.375 40.769531 41.375 39.90625 42 39.28125 C 42.503906 38.777344 43.199219 38.632812 43.199219 39.035156 C 43.199219 39.421875 43.847656 39.304688 44.015625 38.898438 C 44.207031 38.394531 44.160156 38.367188 43.296875 38.171875 C 42.792969 38.082031 42.40625 38.171875 41.976562 38.535156 Z M 41.976562 38.535156 "/>
<path style=" stroke:none;fill-rule:nonzero;fill:rgb(0%,0%,0%);fill-opacity:1;" d="M 87 32.367188 C 86.953125 32.535156 86.785156 32.992188 86.640625 33.402344 L 86.375 34.097656 L 85.777344 33.328125 C 85.199219 32.609375 84.480469 32.292969 84.480469 32.796875 C 84.480469 32.917969 84.816406 33.402344 85.199219 33.832031 C 85.609375 34.285156 85.921875 34.742188 85.921875 34.816406 C 85.921875 34.910156 85.464844 35.679688 84.9375 36.539062 C 84.382812 37.410156 84 38.152344 84.046875 38.226562 C 84.191406 38.34375 85.679688 36.570312 86.089844 35.824219 C 86.304688 35.414062 86.425781 35.488281 87.265625 36.59375 C 87.792969 37.265625 88.296875 37.816406 88.390625 37.816406 C 88.585938 37.839844 87.960938 36.617188 87.097656 35.246094 C 86.808594 34.769531 86.808594 34.621094 87.191406 33.976562 C 87.648438 33.160156 87.742188 32.082031 87.359375 32.082031 C 87.214844 32.082031 87.046875 32.226562 87 32.367188 Z M 87 32.367188 "/>
<path style=" stroke:none;fill-rule:nonzero;fill:rgb(0%,0%,0%);fill-opacity:1;" d="M 102 68.441406 C 101.710938 69.089844 101.160156 70.3125 100.777344 71.152344 L 100.105469 72.664062 L 99.265625 71.753906 C 98.566406 71.007812 98.351562 70.910156 98.183594 71.171875 C 98.015625 71.441406 98.136719 71.703125 98.617188 72.136719 C 98.976562 72.472656 99.382812 72.976562 99.527344 73.210938 C 99.671875 73.480469 99.886719 73.601562 100.054688 73.5 C 100.367188 73.289062 101.734375 70.621094 102.359375 68.992188 C 102.9375 67.433594 102.648438 66.976562 102 68.441406 Z M 102 68.441406 "/>
<path style=" stroke:none;fill-rule:nonzero;fill:rgb(0%,0%,0%);fill-opacity:1;" d="M 93.910156 69.207031 C 93.550781 69.328125 93.480469 70.960938 93.816406 70.960938 C 93.9375 70.960938 94.078125 70.722656 94.128906 70.410156 C 94.175781 70.074219 94.390625 69.855469 94.753906 69.808594 C 95.59375 69.6875 95.398438 70.3125 94.078125 71.898438 C 93.433594 72.6875 92.878906 73.433594 92.878906 73.554688 C 92.878906 73.863281 93.742188 74.082031 95.113281 74.082031 C 95.832031 74.082031 96.214844 73.984375 96.121094 73.835938 C 96.046875 73.695312 95.542969 73.601562 95.039062 73.601562 C 94.535156 73.601562 94.03125 73.480469 93.960938 73.359375 C 93.863281 73.210938 94.246094 72.617188 94.777344 72.039062 C 96.40625 70.265625 95.832031 68.414062 93.910156 69.207031 Z M 93.910156 69.207031 "/>
<path style=" stroke:none;fill-rule:nonzero;fill:rgb(0%,0%,0%);fill-opacity:1;" d="M 70.703125 70.023438 C 70.632812 70.433594 70.558594 71.320312 70.558594 71.96875 C 70.558594 72.855469 70.464844 73.167969 70.152344 73.265625 C 68.710938 73.722656 68.015625 74.441406 67.753906 75.761719 C 67.632812 76.382812 67.679688 76.480469 68.160156 76.480469 C 68.6875 76.480469 70.296875 75.640625 70.585938 75.207031 C 70.679688 75.085938 70.992188 75.160156 71.328125 75.375 C 71.855469 75.738281 71.976562 75.707031 72.839844 75.28125 L 73.777344 74.800781 L 74.28125 75.449219 C 74.617188 75.832031 74.902344 76 75.097656 75.90625 C 75.3125 75.761719 75.265625 75.59375 74.902344 75.257812 C 74.617188 74.992188 74.398438 74.535156 74.398438 74.25 C 74.398438 73.957031 74.328125 73.480469 74.257812 73.167969 C 74.136719 72.738281 74.039062 72.6875 73.777344 72.90625 C 73.585938 73.042969 73.441406 73.3125 73.441406 73.480469 C 73.441406 73.984375 72.480469 75.039062 72.023438 75.039062 C 71.472656 75.039062 71.28125 74.03125 71.28125 71.246094 C 71.28125 69.257812 70.992188 68.632812 70.703125 70.023438 Z M 70.078125 74.394531 C 70.078125 74.703125 69.3125 75.492188 68.710938 75.855469 C 68.207031 76.144531 68.351562 75.085938 68.878906 74.5625 C 69.433594 74.007812 70.078125 73.9375 70.078125 74.394531 Z M 70.078125 74.394531 "/>
<path style=" stroke:none;fill-rule:nonzero;fill:rgb(0%,0%,0%);fill-opacity:1;" d="M 74.160156 69.855469 C 74.160156 70.480469 74.519531 70.890625 74.734375 70.527344 C 74.902344 70.242188 74.640625 69.28125 74.375 69.28125 C 74.257812 69.28125 74.160156 69.539062 74.160156 69.855469 Z M 74.160156 69.855469 "/>
<path style=" stroke:none;fill-rule:nonzero;fill:rgb(0%,0%,0%);fill-opacity:1;" d="M 103.464844 70.382812 C 102.503906 71.585938 102.960938 71.847656 104.039062 70.722656 C 105.433594 69.257812 105.550781 70.164062 104.160156 71.753906 C 102.648438 73.457031 102.769531 73.601562 105.671875 73.554688 L 108.121094 73.527344 L 106.152344 73.382812 C 105.070312 73.3125 104.136719 73.167969 104.039062 73.097656 C 103.96875 73 104.207031 72.570312 104.59375 72.136719 C 105.625 70.9375 105.863281 70.359375 105.550781 70.042969 C 105.046875 69.539062 103.992188 69.710938 103.464844 70.382812 Z M 103.464844 70.382812 "/>
<path style=" stroke:none;fill-rule:nonzero;fill:rgb(0%,0%,0%);fill-opacity:1;" d="M 44.039062 70.695312 C 43.96875 71.105469 43.992188 71.609375 44.113281 71.824219 C 44.328125 72.207031 44.375 72.207031 44.664062 71.730469 C 45.097656 71.058594 45.214844 71.058594 45.550781 71.796875 C 46.390625 73.648438 46.078125 76.648438 44.761719 79.191406 C 43.847656 80.945312 43.777344 81.160156 44.160156 80.917969 C 44.6875 80.582031 45.601562 78.875 46.105469 77.199219 C 46.753906 75.039062 46.65625 72.90625 45.792969 71.246094 C 45.070312 69.855469 44.28125 69.59375 44.039062 70.695312 Z M 44.039062 70.695312 "/>
<path style=" stroke:none;fill-rule:nonzero;fill:rgb(0%,0%,0%);fill-opacity:1;" d="M 58.222656 70.527344 C 58.175781 70.695312 58.03125 71.226562 57.863281 71.703125 C 57.71875 72.160156 57.601562 72.90625 57.601562 73.3125 C 57.601562 73.863281 57.433594 74.175781 57 74.460938 C 56.425781 74.847656 56.398438 74.898438 56.785156 75.304688 C 57.097656 75.640625 57.144531 76 57 76.984375 C 56.808594 78.402344 57.238281 78.472656 57.503906 77.058594 C 57.601562 76.578125 57.816406 76.144531 58.007812 76.074219 C 58.175781 76 58.945312 76.167969 59.664062 76.457031 C 61.800781 77.273438 62.230469 77.03125 60.3125 76.117188 C 59.351562 75.6875 58.558594 75.183594 58.558594 75.066406 C 58.558594 74.917969 58.65625 74.800781 58.777344 74.800781 C 58.894531 74.800781 59.257812 74.460938 59.542969 74.058594 C 60.167969 73.167969 60.238281 71.703125 59.664062 70.839844 C 59.257812 70.214844 58.367188 70.023438 58.222656 70.527344 Z M 59.472656 71.796875 C 59.855469 72.640625 59.855469 72.738281 59.136719 73.578125 C 58.054688 74.867188 57.960938 74.609375 58.464844 71.847656 C 58.632812 71.03125 59.113281 71.007812 59.472656 71.796875 Z M 59.472656 71.796875 "/>
<path style=" stroke:none;fill-rule:nonzero;fill:rgb(0%,0%,0%);fill-opacity:1;" d="M 82.03125 72.085938 C 81.816406 72.328125 81.574219 72.761719 81.503906 73.042969 C 81.289062 73.769531 79.894531 75.113281 79.65625 74.867188 C 79.558594 74.777344 79.441406 74.082031 79.390625 73.359375 C 79.296875 71.796875 78.910156 71.632812 78.671875 73.042969 C 78.457031 74.292969 78.097656 75.039062 77.640625 75.039062 C 77.183594 75.039062 77.015625 74.730469 76.703125 73.265625 C 76.414062 71.945312 75.9375 71.796875 76.007812 73.042969 C 76.078125 74.058594 76.945312 75.761719 77.398438 75.761719 C 77.59375 75.761719 78 75.640625 78.335938 75.492188 C 78.792969 75.28125 79.03125 75.28125 79.273438 75.472656 C 79.511719 75.6875 80.160156 75.664062 81.839844 75.375 C 83.089844 75.183594 84.144531 74.992188 84.191406 74.945312 C 84.238281 74.898438 83.808594 74.703125 83.230469 74.535156 C 82.441406 74.273438 82.175781 74.058594 82.128906 73.625 C 82.054688 73.242188 82.128906 73.117188 82.320312 73.242188 C 82.679688 73.457031 83.039062 72.953125 83.039062 72.207031 C 83.039062 71.585938 82.535156 71.511719 82.03125 72.085938 Z M 81.601562 74.5625 C 81.601562 74.679688 81.480469 74.800781 81.335938 74.800781 C 81.214844 74.800781 81.167969 74.679688 81.238281 74.5625 C 81.3125 74.417969 81.433594 74.320312 81.503906 74.320312 C 81.550781 74.320312 81.601562 74.417969 81.601562 74.5625 Z M 81.601562 74.5625 "/>
<path style=" stroke:none;fill-rule:nonzero;fill:rgb(0%,0%,0%);fill-opacity:1;" d="M 25.921875 73.210938 C 24.601562 76.3125 24.671875 79.410156 26.039062 79.9375 C 26.640625 80.152344 27.359375 80.105469 27.359375 79.835938 C 27.359375 79.695312 27.167969 79.601562 26.929688 79.601562 C 26.6875 79.601562 26.230469 79.332031 25.921875 79 C 25.441406 78.472656 25.390625 78.257812 25.511719 76.957031 C 25.585938 76.097656 25.894531 74.96875 26.257812 74.226562 C 26.59375 73.527344 26.878906 72.785156 26.878906 72.570312 C 26.878906 71.796875 26.375 72.160156 25.921875 73.210938 Z M 25.921875 73.210938 "/>
<path style=" stroke:none;fill-rule:nonzero;fill:rgb(0%,0%,0%);fill-opacity:1;" d="M 87.070312 72.449219 C 86.929688 72.855469 87.097656 73.359375 87.382812 73.359375 C 87.503906 73.359375 87.601562 73.191406 87.601562 72.976562 C 87.601562 72.640625 87.792969 72.59375 88.871094 72.738281 C 90.023438 72.875 90.070312 72.855469 89.664062 72.519531 C 89.089844 72.085938 87.214844 72.039062 87.070312 72.449219 Z M 87.070312 72.449219 "/>
<path style=" stroke:none;fill-rule:nonzero;fill:rgb(0%,0%,0%);fill-opacity:1;" d="M 11.160156 72.6875 C 10.894531 72.832031 10.273438 73.332031 9.769531 73.816406 C 7.441406 76 7.296875 78.707031 9.503906 79.265625 C 10.273438 79.457031 12.671875 79.210938 13.464844 78.875 C 13.894531 78.6875 13.609375 78.664062 12.121094 78.738281 C 9.550781 78.875 8.542969 78.542969 8.449219 77.511719 C 8.351562 76.601562 8.902344 75.449219 9.9375 74.367188 C 11.375 72.808594 12.71875 72.492188 12.71875 73.722656 C 12.71875 74.058594 12.839844 74.320312 12.960938 74.320312 C 13.273438 74.320312 13.273438 73.457031 12.960938 72.855469 C 12.671875 72.351562 11.902344 72.28125 11.160156 72.6875 Z M 11.160156 72.6875 "/>
<path style=" stroke:none;fill-rule:nonzero;fill:rgb(0%,0%,0%);fill-opacity:1;" d="M 39.839844 73.332031 C 39.71875 73.601562 39.601562 74.417969 39.601562 75.160156 C 39.601562 77.394531 40.246094 78.015625 41.398438 76.835938 C 42.550781 75.707031 42.023438 72.875 40.679688 72.875 C 40.34375 72.875 39.984375 73.074219 39.839844 73.332031 Z M 41.375 73.984375 C 41.734375 74.945312 41.230469 76.722656 40.558594 76.722656 C 40.128906 76.722656 40.054688 75.304688 40.441406 74.441406 C 40.894531 73.527344 41.160156 73.382812 41.375 73.984375 Z M 41.375 73.984375 "/>
<path style=" stroke:none;fill-rule:nonzero;fill:rgb(0%,0%,0%);fill-opacity:1;" d="M 63.3125 73.601562 C 62.976562 73.835938 62.566406 74.394531 62.398438 74.800781 C 62.136719 75.402344 62.160156 75.617188 62.519531 76.144531 C 62.808594 76.601562 63.046875 76.722656 63.433594 76.625 C 64.871094 76.210938 65.328125 76.191406 66.121094 76.578125 C 67.199219 77.105469 67.824219 76.9375 66.816406 76.410156 C 66 76 65.6875 75.28125 65.902344 74.394531 C 66.023438 73.957031 65.953125 73.835938 65.566406 73.835938 C 65.304688 73.835938 64.96875 73.667969 64.800781 73.480469 C 64.390625 73 64.03125 73.023438 63.3125 73.601562 Z M 64.320312 74.917969 C 64.320312 75.492188 64.175781 75.832031 63.839844 76 C 62.832031 76.554688 62.496094 75.351562 63.382812 74.394531 C 64.03125 73.722656 64.320312 73.863281 64.320312 74.917969 Z M 64.320312 74.917969 "/>
<path style=" stroke:none;fill-rule:nonzero;fill:rgb(0%,0%,0%);fill-opacity:1;" d="M 29.878906 74.082031 C 29.351562 75.113281 29.398438 77.007812 30.023438 77.777344 C 30.601562 78.492188 31.726562 78.617188 32.566406 78.039062 C 33.742188 77.226562 33.742188 74.535156 32.566406 73.722656 C 32.28125 73.527344 31.65625 73.359375 31.152344 73.359375 C 30.40625 73.359375 30.191406 73.480469 29.878906 74.082031 Z M 31.894531 73.957031 C 32.28125 74.152344 32.640625 74.488281 32.734375 74.679688 C 33.527344 76.742188 31.441406 79 30.335938 77.320312 C 29.878906 76.625 30.023438 75.136719 30.625 74.175781 C 31.078125 73.5 31.03125 73.5 31.894531 73.957031 Z M 31.894531 73.957031 "/>
<path style=" stroke:none;fill-rule:nonzero;fill:rgb(0%,0%,0%);fill-opacity:1;" d="M 87.625 73.816406 C 87.433594 73.9375 87.40625 74.082031 87.550781 74.175781 C 87.886719 74.367188 90.71875 74.058594 90.71875 73.816406 C 90.71875 73.527344 88.054688 73.554688 87.625 73.816406 Z M 87.625 73.816406 "/>
<path style=" stroke:none;fill-rule:nonzero;fill:rgb(0%,0%,0%);fill-opacity:1;" d="M 16.921875 75.738281 C 16.679688 76.167969 17.257812 76.265625 18.289062 76 C 18.839844 75.832031 19.753906 75.785156 20.304688 75.875 C 20.929688 75.953125 21.382812 75.929688 21.480469 75.761719 C 21.574219 75.59375 20.878906 75.519531 19.34375 75.519531 C 18.097656 75.519531 17.015625 75.617188 16.921875 75.738281 Z M 16.921875 75.738281 "/>
<path style=" stroke:none;fill-rule:nonzero;fill:rgb(0%,0%,0%);fill-opacity:1;" d="M 34.800781 76.410156 C 34.414062 77.273438 33.839844 79.117188 33.960938 79.117188 C 34.105469 79.117188 35.160156 77.007812 35.375 76.289062 C 35.617188 75.542969 35.183594 75.617188 34.800781 76.410156 Z M 34.800781 76.410156 "/>
<path style=" stroke:none;fill-rule:nonzero;fill:rgb(0%,0%,0%);fill-opacity:1;" d="M 18.121094 76.957031 C 17.953125 77.25 19.246094 77.25 21 76.957031 C 22.128906 76.792969 22.105469 76.792969 20.230469 76.742188 C 19.152344 76.742188 18.191406 76.816406 18.121094 76.957031 Z M 18.121094 76.957031 "/>
<path style=" stroke:none;fill-rule:nonzero;fill:rgb(0%,0%,0%);fill-opacity:1;" d="M 51.265625 77.96875 C 50.785156 78.761719 50.566406 79.601562 50.855469 79.601562 C 51.070312 79.601562 52.078125 77.917969 52.078125 77.5625 C 52.078125 77.25 51.574219 77.488281 51.265625 77.96875 Z M 51.265625 77.96875 "/>
</g>
</svg>
