<?xml version="1.0" encoding="UTF-8"?>
<svg xmlns="http://www.w3.org/2000/svg" xmlns:xlink="http://www.w3.org/1999/xlink" width="114pt" height="92pt" viewBox="0 0 114 92" version="1.1">
<defs>
<clipPath id="clip1">
  <path d="M 17 0.0507812 L 24 0.0507812 L 24 8 L 17 8 Z M 17 0.0507812 "/>
</clipPath>
<clipPath id="clip2">
  <path d="M 50 79 L 54 79 L 54 91.050781 L 50 91.050781 Z M 50 79 "/>
</clipPath>
</defs>
<g id="surface1">
<g clip-path="url(#clip1)" clip-rule="nonzero">
<path style=" stroke:none;fill-rule:nonzero;fill:rgb(0%,0%,0%);fill-opacity:1;" d="M 17.519531 0.199219 C 17.519531 0.511719 18.480469 2.167969 18.816406 2.453125 C 19.273438 2.839844 19.800781 2.574219 20.398438 1.664062 L 20.832031 0.992188 L 21 1.734375 C 21.121094 2.308594 20.976562 2.839844 20.425781 3.992188 C 19.609375 5.644531 19.488281 6.917969 20.015625 7.664062 C 20.304688 8.023438 20.449219 8.070312 20.808594 7.855469 C 21.335938 7.519531 21.550781 6.796875 21.574219 5.070312 C 21.601562 3.824219 21.671875 3.679688 22.511719 2.984375 C 23.230469 2.382812 23.28125 2.261719 22.800781 2.453125 C 21.863281 2.765625 21.625 2.550781 21.457031 1.253906 C 21.265625 -0.257812 20.640625 -0.355469 19.921875 1.015625 C 19.65625 1.542969 19.34375 2.023438 19.222656 2.09375 C 19.128906 2.167969 18.839844 1.734375 18.601562 1.160156 C 18.382812 0.558594 18.046875 0.078125 17.855469 0.078125 C 17.664062 0.078125 17.519531 0.125 17.519531 0.199219 Z M 21.121094 5.214844 C 21.121094 6.125 20.832031 7.277344 20.617188 7.277344 C 20.375 7.277344 20.328125 5.359375 20.542969 4.78125 C 20.734375 4.253906 21.121094 4.542969 21.121094 5.214844 Z M 21.121094 5.214844 "/>
</g>
<path style=" stroke:none;fill-rule:nonzero;fill:rgb(0%,0%,0%);fill-opacity:1;" d="M 22.511719 10.566406 C 21.984375 11.140625 20.398438 14.09375 20.398438 14.453125 C 20.398438 14.695312 20.785156 14.71875 21.984375 14.574219 L 23.566406 14.40625 L 23.449219 18.941406 C 23.160156 30.582031 22.488281 47.503906 22.34375 47.644531 C 22.105469 47.933594 7.703125 48.152344 6.601562 47.910156 C 5.761719 47.71875 5.640625 47.597656 5.566406 47 C 5.398438 45.414062 5.039062 44.476562 4.585938 44.476562 C 3.910156 44.476562 0 47.71875 0 48.246094 C 0 48.488281 3.40625 50.335938 4.320312 50.574219 C 4.894531 50.742188 4.921875 50.742188 4.441406 50.359375 C 4.175781 50.140625 3.335938 49.636719 2.59375 49.253906 C 1.847656 48.871094 1.152344 48.4375 1.078125 48.292969 C 0.886719 47.984375 2.089844 46.6875 3.433594 45.75 C 4.34375 45.125 4.390625 45.125 4.703125 45.535156 C 4.871094 45.796875 4.945312 46.109375 4.871094 46.230469 C 4.753906 46.421875 4.679688 46.398438 4.609375 46.207031 C 4.558594 46.039062 4.414062 45.917969 4.296875 45.917969 C 3.984375 45.917969 4.03125 48.078125 4.34375 49.015625 C 4.65625 49.902344 4.96875 49.972656 5.28125 49.160156 L 5.519531 48.558594 L 11.832031 48.558594 C 15.3125 48.558594 19.152344 48.488281 20.328125 48.414062 L 22.511719 48.246094 L 22.609375 59.140625 C 22.726562 71.140625 22.777344 70.636719 21.238281 70.636719 C 20.113281 70.636719 19.558594 71.429688 20.160156 72.152344 C 20.304688 72.320312 20.761719 72.964844 21.191406 73.636719 C 22.390625 75.511719 22.726562 75.390625 24.046875 72.535156 C 24.671875 71.191406 25.128906 69.992188 25.054688 69.871094 C 24.984375 69.75 24.601562 69.726562 24.238281 69.796875 C 23.566406 69.941406 23.566406 69.941406 23.398438 68.429688 C 23.328125 67.589844 23.28125 62.765625 23.328125 57.679688 C 23.398438 49.664062 23.449219 48.4375 23.761719 48.4375 C 24.023438 48.4375 24.3125 49.160156 24.742188 50.910156 C 25.65625 54.460938 26.566406 56.117188 28.800781 58.375 C 32.160156 61.78125 36.359375 63.367188 42.671875 63.605469 L 46.078125 63.75 L 46.078125 65.695312 C 46.078125 69.726562 46.390625 75.941406 46.585938 75.628906 C 46.703125 75.460938 46.800781 72.65625 46.800781 69.390625 L 46.800781 63.488281 L 48.433594 63.101562 C 52.441406 62.191406 57.71875 59.957031 61.007812 57.773438 C 64.128906 55.6875 66.121094 52.832031 67.320312 48.679688 C 67.65625 47.503906 67.945312 46.542969 67.992188 46.519531 C 68.136719 46.398438 98.472656 45.941406 98.640625 46.039062 C 98.734375 46.085938 98.953125 46.636719 99.097656 47.238281 C 99.238281 47.839844 99.457031 48.320312 99.550781 48.320312 C 99.648438 48.320312 99.960938 47.933594 100.273438 47.476562 C 100.558594 47 101.230469 46.328125 101.761719 45.964844 C 103.105469 45.054688 103.078125 44.261719 101.6875 43.445312 C 101.113281 43.109375 100.511719 42.65625 100.320312 42.4375 C 100.105469 42.175781 99.9375 42.125 99.695312 42.34375 C 99.433594 42.558594 99.335938 42.511719 99.214844 42.222656 C 98.902344 41.429688 98.640625 42.152344 98.640625 43.734375 L 98.640625 45.390625 L 94.03125 45.535156 C 91.488281 45.605469 84.574219 45.75 78.695312 45.824219 L 67.992188 45.964844 L 67.847656 42.535156 C 67.632812 37.496094 66.648438 33.894531 64.464844 30.246094 C 61.246094 24.847656 56.929688 22.636719 49.65625 22.636719 L 47.113281 22.636719 L 46.945312 19.566406 C 46.871094 17.886719 46.726562 16.109375 46.65625 15.605469 C 46.367188 13.925781 46.175781 14.71875 46.273438 17.238281 C 46.34375 18.628906 46.296875 20.453125 46.222656 21.269531 L 46.054688 22.78125 L 45.046875 23.046875 C 43.894531 23.359375 42.144531 24.535156 41.761719 25.277344 C 41.425781 25.902344 41.542969 25.878906 42.265625 25.253906 C 43.296875 24.320312 44.976562 23.359375 45.527344 23.359375 C 46.03125 23.359375 46.078125 23.476562 46.078125 24.414062 L 46.078125 25.46875 L 44.953125 25.636719 C 41.878906 26.09375 36.382812 28.351562 33.265625 30.414062 C 31.007812 31.902344 28.175781 34.804688 26.902344 36.894531 C 25.34375 39.511719 24.671875 41.671875 24.070312 46.277344 C 23.976562 47.070312 23.785156 47.71875 23.640625 47.71875 C 23.28125 47.71875 23.207031 37.78125 23.496094 30.199219 C 23.640625 26.621094 23.832031 21.582031 23.902344 18.992188 L 24.070312 14.238281 L 25.175781 13.925781 C 25.871094 13.734375 26.304688 13.46875 26.351562 13.207031 C 26.472656 12.628906 23.902344 10.160156 23.183594 10.160156 C 23.015625 10.160156 22.703125 10.351562 22.511719 10.566406 Z M 23.472656 11.40625 C 23.832031 11.765625 23.832031 12.605469 23.496094 13.351562 C 23.304688 13.804688 22.992188 13.972656 22.246094 14.070312 C 21.695312 14.140625 21.214844 14.167969 21.167969 14.117188 C 20.976562 13.925781 22.703125 11.117188 23.039062 11.117188 C 23.113281 11.117188 23.304688 11.238281 23.472656 11.40625 Z M 25.390625 12.558594 C 25.800781 13.207031 25.585938 13.519531 24.695312 13.519531 C 24 13.519531 23.855469 13.230469 24.144531 12.460938 C 24.359375 11.933594 25.03125 11.984375 25.390625 12.558594 Z M 55.441406 23.71875 C 62.902344 26.023438 67.441406 33.535156 67.441406 43.6875 C 67.441406 44.816406 67.320312 45.726562 67.175781 45.796875 C 67.054688 45.894531 64.367188 46.0625 61.246094 46.183594 C 58.128906 46.277344 53.617188 46.445312 51.238281 46.542969 C 47.785156 46.664062 46.847656 46.613281 46.535156 46.375 C 46.199219 46.0625 46.175781 44.984375 46.320312 36.269531 C 46.441406 29.070312 46.558594 26.40625 46.777344 26.140625 C 47.542969 25.207031 50.929688 25.496094 52.632812 26.621094 C 53.734375 27.34375 54.070312 27.199219 53.28125 26.359375 C 52.464844 25.496094 51.265625 25.183594 48.910156 25.230469 L 46.800781 25.253906 L 46.800781 24.34375 C 46.800781 23.839844 46.871094 23.359375 46.992188 23.261719 C 47.304688 22.902344 54.023438 23.285156 55.441406 23.71875 Z M 46.007812 31.085938 C 45.910156 33.871094 45.839844 38.503906 45.839844 41.382812 L 45.839844 46.589844 L 45.191406 46.734375 C 44.136719 46.949219 36.886719 47.335938 30.550781 47.503906 L 24.71875 47.671875 L 24.71875 46.0625 C 24.71875 42.773438 25.800781 39.414062 27.886719 36.34375 C 29.160156 34.46875 32.617188 31.207031 34.558594 30.078125 C 37.847656 28.160156 43.488281 26.046875 45.457031 26.023438 L 46.152344 26 Z M 99.625 44.71875 L 99.382812 45.320312 L 99.382812 44.671875 C 99.359375 44.335938 99.433594 43.832031 99.527344 43.589844 C 99.695312 43.183594 99.71875 43.183594 99.792969 43.636719 C 99.816406 43.925781 99.742188 44.40625 99.625 44.71875 Z M 101.519531 44 C 101.808594 44.191406 101.785156 44.261719 101.328125 44.382812 C 100.824219 44.527344 100.824219 44.550781 101.207031 44.863281 C 101.617188 45.152344 101.59375 45.175781 101.089844 45.199219 C 100.511719 45.199219 100.175781 44.695312 100.414062 44.117188 C 100.558594 43.710938 100.992188 43.664062 101.519531 44 Z M 100.800781 45.917969 C 100.800781 46.039062 100.585938 46.253906 100.320312 46.398438 C 99.792969 46.6875 99.671875 46.421875 100.128906 45.964844 C 100.464844 45.628906 100.800781 45.582031 100.800781 45.917969 Z M 66.960938 46.636719 C 67.273438 46.832031 67.273438 47.046875 66.886719 48.488281 C 65.449219 54.007812 62.0625 57.367188 54.863281 60.414062 C 51.9375 61.664062 47.28125 63.054688 46.992188 62.765625 C 46.753906 62.527344 46.199219 47.644531 46.414062 47.429688 C 46.585938 47.261719 49.847656 47.070312 58.800781 46.664062 C 65.519531 46.375 66.550781 46.375 66.960938 46.636719 Z M 45.191406 47.789062 L 45.839844 48.078125 L 45.839844 53.886719 C 45.839844 57.101562 45.910156 60.460938 46.007812 61.375 L 46.152344 63.007812 L 41.976562 62.910156 C 37.414062 62.789062 36.3125 62.527344 32.929688 60.824219 C 31.199219 59.957031 28.222656 57.222656 27.121094 55.542969 C 25.777344 53.40625 24.527344 48.847656 25.199219 48.4375 C 25.367188 48.34375 28.800781 48.101562 32.855469 47.933594 C 36.886719 47.742188 40.367188 47.550781 40.558594 47.503906 C 41.183594 47.308594 44.496094 47.527344 45.191406 47.789062 Z M 24 70.972656 C 24 71.167969 23.902344 71.40625 23.761719 71.476562 C 23.640625 71.550781 23.519531 71.40625 23.519531 71.140625 C 23.519531 70.855469 23.640625 70.636719 23.761719 70.636719 C 23.902344 70.636719 24 70.78125 24 70.972656 Z M 22.800781 72.320312 C 22.800781 74.503906 22.34375 74.816406 21.550781 73.183594 C 21 72.007812 21.070312 71.453125 21.886719 71.140625 C 22.679688 70.855469 22.800781 71 22.800781 72.320312 Z M 22.800781 72.320312 "/>
<path style=" stroke:none;fill-rule:nonzero;fill:rgb(0%,0%,0%);fill-opacity:1;" d="M 49.726562 50.597656 C 48.769531 51.414062 48.359375 52.421875 48.71875 53.117188 C 49.152344 53.910156 50.496094 54.390625 51.816406 54.199219 C 53.785156 53.933594 53.808594 53.597656 51.886719 53.597656 C 50.929688 53.597656 49.921875 53.476562 49.65625 53.359375 C 48.9375 52.949219 49.105469 52.0625 50.039062 51.222656 C 51.023438 50.382812 51.238281 50.308594 51.550781 50.863281 C 51.742188 51.222656 51.792969 51.222656 51.9375 50.839844 C 52.007812 50.621094 52.03125 50.335938 51.9375 50.214844 C 51.671875 49.78125 50.425781 50 49.726562 50.597656 Z M 49.726562 50.597656 "/>
<path style=" stroke:none;fill-rule:nonzero;fill:rgb(0%,0%,0%);fill-opacity:1;" d="M 111.480469 42.796875 L 110.855469 44.023438 L 109.96875 43.277344 C 109.488281 42.894531 109.007812 42.558594 108.910156 42.558594 C 108.457031 42.558594 108.792969 43.230469 109.609375 43.902344 L 110.496094 44.644531 L 109.824219 45.679688 C 108.984375 46.949219 109.152344 47.167969 110.113281 46.039062 C 110.519531 45.582031 111 45.199219 111.167969 45.199219 C 111.335938 45.199219 111.863281 45.605469 112.367188 46.085938 C 113.617188 47.308594 113.785156 46.925781 112.585938 45.605469 C 111.480469 44.429688 111.359375 43.902344 112.078125 43.46875 C 112.390625 43.253906 112.558594 42.894531 112.558594 42.390625 C 112.558594 41.261719 112.175781 41.40625 111.480469 42.796875 Z M 111.480469 42.796875 "/>
<path style=" stroke:none;fill-rule:nonzero;fill:rgb(0%,0%,0%);fill-opacity:1;" d="M 16.726562 50.429688 C 15.886719 51.367188 15.648438 55.039062 16.367188 55.925781 C 16.992188 56.71875 18.863281 55.855469 19.511719 54.488281 C 19.726562 54.03125 19.921875 53.308594 19.921875 52.878906 C 19.921875 50.839844 17.808594 49.230469 16.726562 50.429688 Z M 18.265625 50.71875 C 18.503906 50.863281 18.886719 51.320312 19.105469 51.726562 C 19.609375 52.710938 19.367188 53.863281 18.433594 54.917969 C 17.664062 55.804688 16.945312 56 16.703125 55.375 C 16.414062 54.628906 16.558594 52.734375 16.945312 52.207031 C 17.160156 51.894531 17.257812 51.488281 17.183594 51.292969 C 16.894531 50.550781 17.425781 50.285156 18.265625 50.71875 Z M 18.265625 50.71875 "/>
<path style=" stroke:none;fill-rule:nonzero;fill:rgb(0%,0%,0%);fill-opacity:1;" d="M 100.152344 77.40625 C 99.167969 78.460938 97.441406 80.957031 97.441406 81.367188 C 97.441406 81.582031 97.847656 81.679688 99 81.679688 L 100.558594 81.679688 L 100.558594 82.902344 C 100.558594 84.367188 100.921875 84.269531 101.113281 82.757812 C 101.160156 82.160156 101.28125 81.582031 101.351562 81.511719 C 101.449219 81.4375 102.289062 81.175781 103.246094 80.933594 L 105 80.503906 L 103.128906 80.574219 L 101.230469 80.644531 L 101.304688 79.300781 C 101.375 77.429688 101.304688 76.636719 101.089844 76.636719 C 100.992188 76.636719 100.558594 77 100.152344 77.40625 Z M 100.800781 79.398438 C 100.800781 80.429688 100.703125 80.742188 100.34375 80.957031 C 99.769531 81.246094 98.398438 81.269531 98.398438 80.984375 C 98.398438 80.550781 100.367188 77.839844 100.585938 77.984375 C 100.703125 78.054688 100.800781 78.703125 100.800781 79.398438 Z M 100.800781 79.398438 "/>
<path style=" stroke:none;fill-rule:nonzero;fill:rgb(0%,0%,0%);fill-opacity:1;" d="M 64.558594 79.855469 C 64.558594 81.125 64.464844 81.703125 64.199219 81.917969 C 63.886719 82.183594 63.886719 82.300781 64.320312 83 C 64.585938 83.429688 64.800781 84.007812 64.800781 84.292969 C 64.800781 84.558594 64.921875 84.796875 65.039062 84.796875 C 65.183594 84.796875 65.28125 84.628906 65.28125 84.4375 C 65.28125 83.957031 65.640625 83.984375 67.152344 84.558594 C 68.542969 85.085938 68.878906 85.132812 68.878906 84.824219 C 68.878906 84.726562 68.257812 84.390625 67.488281 84.125 C 64.96875 83.191406 64.703125 82.613281 66.359375 81.65625 C 67.871094 80.765625 67.703125 79.421875 66 78.558594 C 65.472656 78.292969 64.945312 78.078125 64.800781 78.078125 C 64.65625 78.078125 64.558594 78.773438 64.558594 79.855469 Z M 66.574219 79.734375 C 67.078125 80.285156 66.910156 80.71875 66 81.246094 L 65.28125 81.65625 L 65.28125 80.765625 C 65.28125 79.949219 65.617188 79.277344 66 79.277344 C 66.097656 79.277344 66.335938 79.46875 66.574219 79.734375 Z M 66.574219 79.734375 "/>
<path style=" stroke:none;fill-rule:nonzero;fill:rgb(0%,0%,0%);fill-opacity:1;" d="M 75.742188 78.824219 C 75.671875 79.230469 75.601562 79.878906 75.601562 80.238281 C 75.601562 80.71875 75.359375 81.078125 74.734375 81.558594 C 74.257812 81.917969 73.65625 82.6875 73.390625 83.261719 C 73.007812 84.175781 72.863281 84.292969 72.480469 84.078125 C 72.214844 83.933594 71.976562 83.453125 71.878906 82.832031 C 71.785156 82.253906 71.542969 81.605469 71.328125 81.367188 C 70.558594 80.503906 69.335938 81.054688 69 82.46875 C 68.734375 83.476562 69.191406 83.863281 70.464844 83.671875 C 71.304688 83.550781 71.519531 83.597656 71.519531 83.910156 C 71.519531 84.773438 73.320312 84.773438 74.902344 83.933594 C 75.910156 83.382812 76.128906 83.335938 76.464844 83.621094 C 76.847656 83.933594 77.59375 84.03125 80.328125 84.101562 C 81 84.125 81.550781 83.984375 82.03125 83.621094 L 82.777344 83.117188 L 83.664062 83.71875 C 84.3125 84.152344 84.863281 84.320312 85.703125 84.320312 C 87.023438 84.320312 87.359375 84.054688 86.519531 83.597656 C 86.015625 83.335938 85.921875 83.09375 85.871094 81.847656 C 85.800781 80.476562 85.777344 80.40625 85.390625 80.789062 C 85.152344 81.03125 84.910156 81.605469 84.839844 82.109375 C 84.574219 83.574219 84.550781 83.644531 84.023438 83.382812 C 83.761719 83.238281 83.425781 82.710938 83.28125 82.230469 C 82.894531 81.054688 82.609375 80.765625 82.441406 81.34375 C 81.839844 83.238281 81.121094 83.957031 81.121094 82.6875 C 81.121094 82.0625 80.519531 81.199219 80.089844 81.199219 C 80.015625 81.199219 80.015625 81.726562 80.089844 82.375 C 80.230469 83.550781 79.945312 84.101562 79.488281 83.527344 C 79.34375 83.359375 79.199219 82.804688 79.152344 82.300781 C 79.054688 81.175781 78.480469 80.789062 78.480469 81.847656 C 78.480469 82.519531 77.902344 83.597656 77.566406 83.597656 C 76.871094 83.574219 76.679688 83.046875 76.558594 80.695312 C 76.441406 78.222656 76.054688 77.308594 75.742188 78.824219 Z M 70.96875 82.085938 C 71.0625 82.328125 70.921875 82.636719 70.585938 82.925781 C 69.960938 83.40625 69.601562 83.308594 69.601562 82.664062 C 69.601562 81.796875 70.679688 81.320312 70.96875 82.085938 Z M 75.070312 82.832031 C 74.710938 83.308594 74.351562 83.597656 74.113281 83.597656 C 73.777344 83.597656 73.921875 83.117188 74.398438 82.636719 C 74.976562 82.0625 75.550781 82.230469 75.070312 82.832031 Z M 75.070312 82.832031 "/>
<path style=" stroke:none;fill-rule:nonzero;fill:rgb(0%,0%,0%);fill-opacity:1;" d="M 78 78.726562 C 78 79.277344 78.359375 79.664062 78.574219 79.328125 C 78.648438 79.207031 78.550781 78.894531 78.359375 78.65625 C 78.023438 78.222656 78.023438 78.222656 78 78.726562 Z M 78 78.726562 "/>
<g clip-path="url(#clip2)" clip-rule="nonzero">
<path style=" stroke:none;fill-rule:nonzero;fill:rgb(0%,0%,0%);fill-opacity:1;" d="M 51.359375 79.519531 C 51.359375 79.664062 51.648438 80.214844 52.03125 80.765625 C 52.609375 81.65625 52.679688 81.992188 52.65625 83.695312 C 52.65625 85.253906 52.488281 86.140625 51.769531 88.277344 C 51.289062 89.71875 50.953125 90.941406 51 90.992188 C 51.167969 91.160156 52.054688 89.191406 52.679688 87.292969 C 53.617188 84.390625 53.398438 81.078125 52.152344 79.710938 C 51.71875 79.230469 51.359375 79.160156 51.359375 79.519531 Z M 51.359375 79.519531 "/>
</g>
<path style=" stroke:none;fill-rule:nonzero;fill:rgb(0%,0%,0%);fill-opacity:1;" d="M 35.183594 80.191406 C 35.136719 80.285156 34.847656 81.199219 34.585938 82.160156 C 33.433594 86.261719 34.320312 90.125 36.40625 90.078125 C 36.71875 90.054688 36.671875 89.984375 36.191406 89.695312 C 34.824219 88.949219 34.296875 86.644531 34.800781 83.644531 C 35.089844 81.917969 35.398438 81.34375 35.761719 81.917969 C 36.046875 82.398438 36.214844 81.847656 36.023438 80.984375 C 35.878906 80.167969 35.449219 79.78125 35.183594 80.191406 Z M 35.183594 80.191406 "/>
<path style=" stroke:none;fill-rule:nonzero;fill:rgb(0%,0%,0%);fill-opacity:1;" d="M 91.152344 80.40625 C 90.191406 80.644531 90.816406 80.957031 92.257812 80.957031 C 93.097656 80.957031 93.960938 81.03125 94.175781 81.101562 C 94.390625 81.175781 94.558594 81.125 94.558594 81.007812 C 94.558594 80.503906 92.304688 80.09375 91.152344 80.40625 Z M 91.152344 80.40625 "/>
<path style=" stroke:none;fill-rule:nonzero;fill:rgb(0%,0%,0%);fill-opacity:1;" d="M 40.921875 81.414062 C 40.847656 81.679688 40.390625 82.445312 39.9375 83.09375 C 38.832031 84.703125 38.878906 84.894531 40.199219 84.703125 L 41.28125 84.535156 L 41.28125 85.855469 C 41.28125 86.574219 41.398438 87.246094 41.519531 87.320312 C 41.664062 87.414062 41.761719 87.125 41.761719 86.621094 C 41.761719 85.253906 42.144531 84.558594 42.886719 84.558594 C 43.609375 84.558594 43.390625 84.175781 42.601562 84.03125 C 42.238281 83.984375 42.070312 83.644531 41.878906 82.542969 C 41.640625 81.078125 41.207031 80.574219 40.921875 81.414062 Z M 41.28125 83.476562 C 41.28125 83.863281 40.464844 84.390625 40.222656 84.152344 C 40.054688 83.984375 40.777344 83.117188 41.089844 83.117188 C 41.183594 83.117188 41.28125 83.285156 41.28125 83.476562 Z M 41.28125 83.476562 "/>
<path style=" stroke:none;fill-rule:nonzero;fill:rgb(0%,0%,0%);fill-opacity:1;" d="M 91.847656 81.941406 C 91.105469 82.375 91.632812 82.566406 93.046875 82.351562 C 96.671875 81.773438 96.742188 81.726562 94.441406 81.703125 C 93.265625 81.703125 92.089844 81.796875 91.847656 81.941406 Z M 91.847656 81.941406 "/>
<path style=" stroke:none;fill-rule:nonzero;fill:rgb(0%,0%,0%);fill-opacity:1;" d="M 47.015625 82.949219 C 46.390625 84.078125 47.207031 86.957031 48.144531 86.957031 C 48.671875 86.957031 49.441406 85.734375 49.441406 84.894531 C 49.441406 83.40625 47.566406 81.894531 47.015625 82.949219 Z M 48.433594 83.644531 C 48.839844 84.054688 48.792969 85.566406 48.359375 86.140625 C 48.046875 86.527344 47.976562 86.550781 47.761719 86.238281 C 47.640625 86.046875 47.519531 85.375 47.519531 84.773438 C 47.519531 83.382812 47.808594 83.023438 48.433594 83.644531 Z M 48.433594 83.644531 "/>
<path style=" stroke:none;fill-rule:nonzero;fill:rgb(0%,0%,0%);fill-opacity:1;" d="M 16.367188 84.007812 C 15.863281 84.511719 15.238281 85.445312 15 86.09375 C 14.566406 87.246094 14.566406 87.269531 15.023438 88.132812 L 15.480469 89 L 17.28125 88.972656 C 18.574219 88.949219 19.441406 88.78125 20.351562 88.398438 C 21.046875 88.109375 21.574219 87.824219 21.527344 87.773438 C 21.503906 87.726562 20.664062 87.917969 19.679688 88.160156 C 16.632812 88.949219 15.359375 88.734375 15.359375 87.414062 C 15.359375 86.40625 16.128906 85.015625 17.183594 84.078125 L 18.070312 83.308594 L 18.457031 83.816406 C 18.910156 84.414062 19.296875 84.222656 18.9375 83.574219 C 18.527344 82.804688 17.425781 83 16.367188 84.007812 Z M 16.367188 84.007812 "/>
<path style=" stroke:none;fill-rule:nonzero;fill:rgb(0%,0%,0%);fill-opacity:1;" d="M 24.480469 85.039062 C 24.480469 85.421875 25.585938 85.757812 26.878906 85.757812 C 28.464844 85.757812 28.585938 85.375 27.121094 85.0625 C 25.585938 84.726562 24.480469 84.726562 24.480469 85.039062 Z M 24.480469 85.039062 "/>
<path style=" stroke:none;fill-rule:nonzero;fill:rgb(0%,0%,0%);fill-opacity:1;" d="M 44.449219 85.664062 C 44.304688 85.949219 44.113281 86.644531 44.015625 87.199219 C 43.800781 88.542969 44.230469 88.300781 44.640625 86.863281 C 44.976562 85.613281 44.855469 84.894531 44.449219 85.664062 Z M 44.449219 85.664062 "/>
<path style=" stroke:none;fill-rule:nonzero;fill:rgb(0%,0%,0%);fill-opacity:1;" d="M 25.679688 86.957031 C 25.679688 87.101562 26.304688 87.199219 27.097656 87.199219 C 27.886719 87.199219 28.609375 87.078125 28.679688 86.957031 C 28.777344 86.816406 28.246094 86.71875 27.265625 86.71875 C 26.375 86.71875 25.679688 86.816406 25.679688 86.957031 Z M 25.679688 86.957031 "/>
</g>
</svg>
