<?xml version="1.0" encoding="UTF-8"?>
<svg xmlns="http://www.w3.org/2000/svg" xmlns:xlink="http://www.w3.org/1999/xlink" width="115pt" height="121pt" viewBox="0 0 115 121" version="1.1">
<defs>
<clipPath id="clip1">
  <path d="M 3 0.816406 L 27 0.816406 L 27 3 L 3 3 Z M 3 0.816406 "/>
</clipPath>
<clipPath id="clip2">
  <path d="M 2 0.816406 L 63 0.816406 L 63 38 L 2 38 Z M 2 0.816406 "/>
</clipPath>
</defs>
<g id="surface1">
<g clip-path="url(#clip1)" clip-rule="nonzero">
<path style=" stroke:none;fill-rule:nonzero;fill:rgb(0%,0%,0%);fill-opacity:1;" d="M 3.296875 1.023438 C 3.296875 1.144531 3.582031 1.480469 3.917969 1.742188 C 4.472656 2.175781 4.589844 2.199219 5.046875 1.910156 C 5.984375 1.335938 7.375 1.214844 16.855469 1.046875 L 26.214844 0.878906 L 14.765625 0.855469 C 7.832031 0.832031 3.296875 0.902344 3.296875 1.023438 Z M 3.296875 1.023438 "/>
</g>
<g clip-path="url(#clip2)" clip-rule="nonzero">
<path style=" stroke:none;fill-rule:nonzero;fill:rgb(0%,0%,0%);fill-opacity:1;" d="M 62.527344 2.605469 C 62.574219 3.589844 62.503906 5.894531 62.359375 7.71875 C 62.214844 9.519531 61.925781 13.550781 61.710938 16.648438 C 61.519531 19.742188 61.328125 22.550781 61.277344 22.886719 C 61.230469 23.222656 61.183594 26.007812 61.183594 29.054688 L 61.136719 34.648438 L 59.910156 34.648438 C 59.117188 34.648438 58.757812 34.742188 58.855469 34.910156 C 59.046875 35.199219 7.496094 35.03125 4.160156 34.742188 C 2.597656 34.597656 2.289062 34.621094 2.382812 34.910156 C 2.550781 35.390625 9.054688 35.535156 31.375 35.582031 C 41.480469 35.582031 52.0625 35.679688 54.917969 35.773438 L 60.128906 35.917969 L 60.511719 36.613281 C 60.75 36.976562 61.015625 37.285156 61.136719 37.285156 C 61.230469 37.285156 61.566406 36.902344 61.832031 36.421875 C 62.261719 35.703125 62.289062 35.488281 62.046875 35.199219 C 61.832031 34.933594 61.757812 33.902344 61.808594 31.550781 C 61.902344 26.199219 62.359375 13.191406 62.457031 12.804688 C 62.671875 12.015625 63.078125 2.605469 62.933594 1.742188 C 62.671875 0.160156 62.40625 0.710938 62.527344 2.605469 Z M 62.527344 2.605469 "/>
</g>
<path style=" stroke:none;fill-rule:nonzero;fill:rgb(0%,0%,0%);fill-opacity:1;" d="M 3.773438 3.6875 C 3.773438 4.285156 3.871094 4.621094 4.015625 4.527344 C 4.160156 4.453125 4.253906 4.070312 4.253906 3.6875 C 4.253906 3.300781 4.160156 2.917969 4.015625 2.847656 C 3.871094 2.75 3.773438 3.085938 3.773438 3.6875 Z M 3.773438 3.6875 "/>
<path style=" stroke:none;fill-rule:nonzero;fill:rgb(0%,0%,0%);fill-opacity:1;" d="M 53.167969 3.949219 C 52.808594 4.144531 52.734375 4.550781 52.757812 6.519531 L 52.78125 8.847656 L 53.238281 6.804688 C 53.71875 4.621094 54.222656 3.925781 55.277344 3.925781 C 56.070312 3.925781 56 4.117188 54.847656 5.292969 L 53.839844 6.300781 L 54.917969 6.78125 C 55.496094 7.023438 56.144531 7.285156 56.335938 7.359375 C 56.550781 7.429688 56.261719 7.671875 55.542969 7.984375 C 54.894531 8.246094 54.296875 8.488281 54.175781 8.488281 C 54.078125 8.488281 53.863281 8.65625 53.695312 8.847656 C 53.457031 9.132812 53.457031 9.207031 53.695312 9.207031 C 54.199219 9.207031 57.296875 7.71875 57.296875 7.480469 C 57.296875 7.359375 56.792969 7.046875 56.167969 6.757812 C 55.519531 6.496094 54.96875 6.230469 54.917969 6.183594 C 54.847656 6.109375 55.207031 5.679688 55.6875 5.175781 C 56.167969 4.671875 56.574219 4.144531 56.574219 3.976562 C 56.574219 3.613281 53.765625 3.589844 53.167969 3.949219 Z M 53.167969 3.949219 "/>
<path style=" stroke:none;fill-rule:nonzero;fill:rgb(0%,0%,0%);fill-opacity:1;" d="M 12.800781 4.359375 C 12.605469 4.671875 12.101562 9.832031 12.222656 10.214844 C 12.296875 10.382812 12.605469 9.976562 12.917969 9.328125 C 13.566406 7.984375 14.214844 7.671875 14.574219 8.535156 L 14.792969 9.085938 L 14.960938 8.535156 C 15.054688 8.175781 15.296875 8.007812 15.726562 8.007812 C 16.421875 8.007812 16.207031 7.621094 15.414062 7.480469 C 14.792969 7.382812 14.335938 6.445312 14.335938 5.269531 C 14.335938 4.527344 14.261719 4.382812 13.949219 4.503906 C 13.734375 4.597656 13.421875 4.550781 13.253906 4.40625 C 13.085938 4.261719 12.871094 4.238281 12.800781 4.359375 Z M 14.09375 6.949219 C 14.09375 7.144531 14 7.238281 13.855469 7.167969 C 13.734375 7.09375 13.613281 6.925781 13.613281 6.78125 C 13.613281 6.664062 13.734375 6.566406 13.855469 6.566406 C 14 6.566406 14.09375 6.734375 14.09375 6.949219 Z M 14.09375 6.949219 "/>
<path style=" stroke:none;fill-rule:nonzero;fill:rgb(0%,0%,0%);fill-opacity:1;" d="M 3.773438 6.976562 C 3.75 7.886719 3.605469 13.117188 3.4375 18.613281 C 3.246094 24.109375 3.175781 28.984375 3.269531 29.414062 L 3.4375 30.207031 L 3.605469 29.488281 C 3.824219 28.527344 4.136719 5.367188 3.941406 5.367188 C 3.847656 5.367188 3.773438 6.085938 3.773438 6.976562 Z M 3.773438 6.976562 "/>
<path style=" stroke:none;fill-rule:nonzero;fill:rgb(0%,0%,0%);fill-opacity:1;" d="M 105.679688 6.039062 C 105.605469 6.160156 105.726562 6.78125 105.917969 7.429688 C 106.253906 8.535156 106.253906 10.167969 105.847656 12.085938 L 105.726562 12.710938 L 107.816406 12.519531 C 110.3125 12.300781 110.71875 12.085938 110.238281 11.152344 C 110.046875 10.816406 109.613281 10.261719 109.277344 9.949219 C 108.511719 9.230469 108.511719 8.941406 109.277344 7.765625 C 110.289062 6.253906 110.070312 5.992188 107.765625 5.894531 C 106.6875 5.871094 105.75 5.917969 105.679688 6.039062 Z M 109.136719 6.445312 C 109.375 6.734375 109.304688 6.949219 108.679688 7.648438 C 108.269531 8.125 107.933594 8.65625 107.933594 8.824219 C 107.933594 8.992188 108.367188 9.6875 108.894531 10.359375 C 109.421875 11.007812 109.855469 11.605469 109.855469 11.679688 C 109.855469 11.894531 107.863281 12.085938 107.046875 11.941406 C 106.230469 11.796875 106.207031 11.75 106.351562 10.910156 C 106.421875 10.429688 106.566406 9.160156 106.640625 8.054688 L 106.808594 6.085938 L 107.816406 6.085938 C 108.4375 6.085938 108.96875 6.230469 109.136719 6.445312 Z M 109.136719 6.445312 "/>
<path style=" stroke:none;fill-rule:nonzero;fill:rgb(0%,0%,0%);fill-opacity:1;" d="M 98.3125 6.445312 C 96.535156 7.40625 95.960938 13.046875 97.640625 13.046875 C 97.949219 13.046875 97.902344 12.878906 97.472656 12.207031 C 97.183594 11.773438 97.109375 11.222656 97.183594 10.214844 C 97.328125 8.4375 97.925781 7.167969 98.839844 6.804688 C 99.488281 6.542969 99.605469 6.566406 100.136719 7.046875 C 100.976562 7.839844 101.289062 8.992188 101.167969 10.910156 C 101.117188 12.039062 101.167969 12.46875 101.335938 12.300781 C 101.457031 12.183594 101.574219 11.222656 101.574219 10.214844 C 101.550781 6.902344 100.230469 5.390625 98.3125 6.445312 Z M 98.3125 6.445312 "/>
<path style=" stroke:none;fill-rule:nonzero;fill:rgb(0%,0%,0%);fill-opacity:1;" d="M 72.582031 7.046875 C 71.214844 7.453125 69.582031 8.726562 69.054688 9.78125 C 68.046875 11.917969 67.925781 14.679688 68.792969 16.910156 C 69.199219 17.992188 70.472656 19.238281 71.574219 19.671875 C 72.941406 20.175781 75.269531 20.03125 76.640625 19.335938 C 77.886719 18.710938 79.230469 17.199219 79.613281 16.046875 C 80.261719 14.101562 79.421875 10.71875 77.792969 8.558594 C 76.664062 7.070312 74.550781 6.445312 72.582031 7.046875 Z M 76.039062 7.789062 C 78.367188 8.964844 80.070312 13.550781 79.0625 15.949219 C 78.128906 18.183594 76.039062 19.621094 73.710938 19.597656 C 71.597656 19.574219 70.398438 18.832031 69.390625 16.886719 C 68.863281 15.832031 68.648438 12.589844 69.054688 11.175781 C 69.390625 9.878906 70.855469 8.152344 71.09375 8.773438 C 71.238281 9.132812 71.289062 9.132812 71.71875 8.703125 C 72.078125 8.34375 72.296875 8.292969 72.773438 8.488281 C 73.445312 8.75 73.566406 8.460938 72.992188 7.984375 C 72.65625 7.695312 72.65625 7.648438 73.0625 7.335938 C 73.589844 6.949219 74.765625 7.117188 76.039062 7.789062 Z M 76.039062 7.789062 "/>
<path style=" stroke:none;fill-rule:nonzero;fill:rgb(0%,0%,0%);fill-opacity:1;" d="M 73.855469 12.132812 C 73.855469 13.238281 73.976562 14.292969 74.09375 14.488281 C 74.261719 14.726562 74.335938 14.101562 74.335938 12.496094 C 74.335938 11.101562 74.238281 10.167969 74.09375 10.167969 C 73.949219 10.167969 73.855469 10.984375 73.855469 12.132812 Z M 73.855469 12.132812 "/>
<path style=" stroke:none;fill-rule:nonzero;fill:rgb(0%,0%,0%);fill-opacity:1;" d="M 89.839844 7.453125 C 89.574219 8.390625 89.238281 10.671875 89.070312 12.6875 C 88.878906 15.0625 89.144531 15.277344 89.816406 13.261719 C 90.464844 11.367188 91.015625 11.4375 92.167969 13.527344 C 92.40625 13.957031 92.648438 14.246094 92.71875 14.175781 C 92.792969 14.101562 92.695312 13.789062 92.480469 13.480469 C 92.261719 13.191406 92.09375 12.710938 92.09375 12.398438 C 92.09375 11.964844 92.261719 11.847656 93.007812 11.726562 C 94.398438 11.488281 94.472656 11.414062 93.269531 11.390625 C 91.734375 11.367188 91.398438 11.007812 90.917969 8.964844 C 90.535156 7.214844 90.101562 6.613281 89.839844 7.453125 Z M 90.894531 10.789062 C 90.894531 11.414062 90.488281 11.582031 90.269531 11.007812 C 90.078125 10.527344 90.34375 9.855469 90.65625 10.046875 C 90.773438 10.117188 90.894531 10.453125 90.894531 10.789062 Z M 90.894531 10.789062 "/>
<path style=" stroke:none;fill-rule:nonzero;fill:rgb(0%,0%,0%);fill-opacity:1;" d="M 20.070312 9.421875 C 17.335938 10.503906 14.457031 13.335938 12.847656 16.550781 C 11.910156 18.46875 11.816406 18.804688 11.816406 20.460938 C 11.839844 22.574219 12.296875 23.679688 13.78125 25.070312 C 15.007812 26.222656 15.703125 26.605469 17.457031 27.207031 C 20.695312 28.3125 26.214844 27.589844 31.351562 25.429688 C 32.480469 24.949219 33.390625 24.589844 33.414062 24.636719 C 33.4375 24.664062 33.773438 25.261719 34.160156 25.957031 C 35.023438 27.613281 36.800781 29.199219 38.527344 29.894531 C 40.304688 30.589844 44.574219 30.664062 46.976562 30.015625 C 49.472656 29.320312 53.214844 27.398438 54.75 25.984375 C 57.679688 23.320312 58.710938 19.816406 57.535156 16.480469 C 56.382812 13.191406 53.933594 11.558594 48.054688 10.238281 C 44.457031 9.421875 43.445312 9.351562 40.78125 9.6875 C 38.429688 9.976562 36.582031 10.480469 38.40625 10.335938 C 38.886719 10.285156 39.296875 10.335938 39.296875 10.40625 C 39.296875 10.503906 38.550781 11.199219 37.613281 11.992188 C 36.703125 12.757812 35.933594 13.480469 35.933594 13.574219 C 35.933594 13.957031 35.023438 13.742188 33.03125 12.949219 C 31.902344 12.496094 29.695312 11.679688 28.136719 11.125 C 26.574219 10.597656 24.941406 9.878906 24.511719 9.566406 C 23.550781 8.824219 21.726562 8.773438 20.070312 9.421875 Z M 23.625 9.566406 L 24.511719 9.949219 L 23.816406 10.503906 C 23.40625 10.839844 23.167969 11.175781 23.261719 11.269531 C 23.359375 11.367188 23.597656 11.292969 23.816406 11.125 C 24.632812 10.453125 29.070312 11.582031 33.222656 13.527344 L 35.238281 14.460938 L 34.640625 15.496094 C 33.464844 17.535156 33.007812 19.429688 33.101562 21.902344 L 33.175781 24.160156 L 30.824219 25.09375 C 23.816406 27.902344 18.128906 27.949219 14.742188 25.214844 C 12.941406 23.726562 12.320312 22.480469 12.320312 20.34375 C 12.320312 18.855469 12.414062 18.398438 13.183594 16.863281 C 14.144531 14.941406 16.855469 11.773438 18.34375 10.863281 C 19.421875 10.191406 21.75 9.230469 22.328125 9.207031 C 22.566406 9.207031 23.144531 9.375 23.625 9.566406 Z M 44.40625 10.144531 C 45.054688 10.261719 45.800781 10.574219 46.136719 10.886719 C 46.640625 11.367188 46.734375 11.390625 46.734375 11.054688 C 46.734375 9.925781 52.421875 11.582031 54.824219 13.429688 C 57.34375 15.351562 58.136719 20.152344 56.40625 23.101562 C 54.96875 25.574219 51.65625 27.949219 47.816406 29.292969 C 46.109375 29.871094 45.535156 29.941406 42.894531 29.964844 C 40.136719 29.964844 39.773438 29.917969 38.527344 29.320312 C 36.390625 28.3125 34.015625 25.839844 34.015625 24.589844 C 34.015625 24.46875 34.78125 23.894531 35.742188 23.320312 C 36.703125 22.765625 37.902344 21.878906 38.40625 21.398438 C 39.320312 20.535156 39.367188 20.460938 39.222656 19.3125 C 39.03125 17.703125 38.3125 16.359375 37.039062 15.300781 C 36.464844 14.824219 36.03125 14.269531 36.101562 14.101562 C 36.296875 13.597656 39.582031 11.078125 40.855469 10.503906 C 42.128906 9.902344 42.605469 9.855469 44.40625 10.144531 Z M 36.65625 15.878906 C 36.65625 16.285156 35.09375 18.804688 34.832031 18.804688 C 34.566406 18.804688 35 17.488281 35.597656 16.453125 C 36.222656 15.398438 36.65625 15.160156 36.65625 15.878906 Z M 37.519531 18.015625 C 36.917969 19.285156 35.742188 21.132812 34.757812 22.382812 C 34.039062 23.320312 33.894531 23.390625 33.75 22.984375 C 33.246094 21.710938 33.679688 19.285156 34.398438 19.285156 C 34.757812 19.285156 34.757812 19.335938 34.398438 19.886719 C 33.917969 20.605469 33.917969 20.964844 34.375 20.964844 C 34.566406 20.964844 35 20.390625 35.3125 19.695312 C 36.128906 18.015625 37.351562 16.527344 37.6875 16.863281 C 37.878906 17.054688 37.832031 17.390625 37.519531 18.015625 Z M 38.574219 19.359375 C 38.574219 20.269531 37.496094 21.734375 36.390625 22.285156 C 35.480469 22.765625 35.503906 22.480469 36.558594 20.796875 C 38.09375 18.375 38.574219 18.015625 38.574219 19.359375 Z M 38.574219 19.359375 "/>
<path style=" stroke:none;fill-rule:nonzero;fill:rgb(0%,0%,0%);fill-opacity:1;" d="M 1.136719 49.71875 C 1.136719 50.152344 2.527344 51.015625 2.71875 50.703125 C 2.960938 50.292969 59.070312 50.558594 59.574219 50.964844 C 59.839844 51.183594 60.128906 51.183594 60.824219 50.917969 L 61.734375 50.605469 L 59.574219 50.460938 C 58.398438 50.367188 46.566406 50.269531 33.296875 50.246094 C 11.3125 50.222656 6.679688 50.125 2.527344 49.621094 C 1.589844 49.503906 1.136719 49.550781 1.136719 49.71875 Z M 1.136719 49.71875 "/>
<path style=" stroke:none;fill-rule:nonzero;fill:rgb(0%,0%,0%);fill-opacity:1;" d="M 63.054688 52.933594 C 63.03125 54.832031 62.933594 56.847656 62.816406 57.445312 C 62.695312 58.046875 62.40625 62.511719 62.191406 67.40625 C 61.832031 75.398438 61.757812 76.335938 61.351562 76.671875 C 60.941406 77.054688 60.941406 77.078125 61.496094 77.605469 C 62.023438 78.085938 62.046875 78.109375 62.191406 77.679688 C 62.261719 77.4375 62.429688 74.007812 62.574219 70.046875 C 62.71875 66.085938 62.984375 60.207031 63.175781 56.964844 C 63.605469 49.984375 63.605469 49.527344 63.296875 49.527344 C 63.152344 49.527344 63.054688 50.824219 63.054688 52.933594 Z M 63.054688 52.933594 "/>
<path style=" stroke:none;fill-rule:nonzero;fill:rgb(0%,0%,0%);fill-opacity:1;" d="M 113.625 51.976562 C 112.710938 55.070312 112.613281 55.453125 112.949219 55.167969 C 113.261719 54.855469 114.65625 50.824219 114.65625 50.199219 C 114.65625 49.191406 114.222656 49.910156 113.625 51.976562 Z M 113.625 51.976562 "/>
<path style=" stroke:none;fill-rule:nonzero;fill:rgb(0%,0%,0%);fill-opacity:1;" d="M 1.304688 51.6875 C 1.230469 52.144531 1.085938 53.605469 1.015625 54.925781 C 0.941406 56.246094 0.726562 59.222656 0.535156 61.527344 C 0.03125 67.742188 -0.160156 73.789062 0.152344 74.488281 C 0.34375 74.992188 0.390625 74.871094 0.414062 73.648438 C 0.464844 69.636719 1.136719 59.007812 1.613281 54.445312 C 1.734375 53.246094 1.757812 51.949219 1.640625 51.566406 L 1.445312 50.847656 Z M 1.304688 51.6875 "/>
<path style=" stroke:none;fill-rule:nonzero;fill:rgb(0%,0%,0%);fill-opacity:1;" d="M 105.054688 54.015625 C 104.382812 54.351562 104.238281 54.566406 104.289062 55.046875 C 104.335938 55.382812 104.382812 56.796875 104.40625 58.214844 C 104.429688 60.039062 104.527344 60.710938 104.71875 60.542969 C 104.863281 60.421875 105.824219 60.109375 106.832031 59.871094 C 107.863281 59.605469 108.75 59.34375 108.824219 59.292969 C 108.871094 59.222656 108.4375 58.671875 107.839844 58.046875 L 106.734375 56.941406 L 107.382812 55.742188 C 107.910156 54.804688 108.007812 54.46875 107.792969 54.160156 C 107.429688 53.558594 106.0625 53.511719 105.054688 54.015625 Z M 107.070312 54.398438 C 107.457031 54.664062 107.429688 54.757812 106.757812 55.648438 C 106.351562 56.175781 106.015625 56.703125 106.015625 56.847656 C 106.015625 56.964844 106.472656 57.519531 107 58.070312 L 108.007812 59.101562 L 107.070312 59.246094 C 106.542969 59.320312 105.894531 59.4375 105.605469 59.511719 C 105.054688 59.605469 105.054688 59.582031 105.054688 57.230469 C 105.054688 55.382812 105.152344 54.757812 105.4375 54.46875 C 105.894531 54.015625 106.496094 53.992188 107.070312 54.398438 Z M 107.070312 54.398438 "/>
<path style=" stroke:none;fill-rule:nonzero;fill:rgb(0%,0%,0%);fill-opacity:1;" d="M 38 54.496094 C 35.886719 54.925781 33.894531 55.742188 32.480469 56.703125 C 31.183594 57.589844 31.039062 57.613281 29 56.871094 C 26.886719 56.101562 22.832031 55.285156 21.199219 55.285156 C 20.09375 55.285156 19.421875 55.503906 16.832031 56.75 C 12.582031 58.789062 11 60.46875 10.109375 63.804688 C 8.625 69.328125 12.199219 73.527344 19.230469 74.511719 C 21.992188 74.894531 25.085938 74.511719 28.519531 73.382812 L 31.085938 72.519531 L 33.34375 73.429688 C 37.136719 74.941406 40.78125 74.824219 45.96875 73.023438 C 50.359375 71.460938 53.289062 69.519531 53.597656 67.886719 C 54.101562 65.101562 50.117188 59.175781 46.136719 56.847656 C 45.007812 56.199219 44.457031 55.695312 44.289062 55.214844 C 44.144531 54.832031 43.78125 54.421875 43.445312 54.300781 C 42.605469 53.992188 39.917969 54.0625 38 54.496094 Z M 43.519531 54.925781 C 43.976562 55.261719 43.976562 55.261719 43.496094 55.261719 C 43.230469 55.261719 42.703125 55.117188 42.296875 54.925781 L 41.574219 54.613281 L 42.320312 54.589844 C 42.703125 54.566406 43.253906 54.734375 43.519531 54.925781 Z M 43.398438 55.984375 C 47.597656 57.757812 51.535156 61.886719 52.734375 65.796875 L 53.214844 67.335938 L 52.6875 68.320312 C 51.941406 69.636719 50.574219 70.648438 48.03125 71.703125 C 43.808594 73.480469 42.152344 73.863281 38.695312 73.863281 C 36.03125 73.863281 35.382812 73.789062 34.230469 73.335938 C 33.511719 73.046875 32.695312 72.664062 32.429688 72.46875 C 32 72.132812 32.046875 72.0625 33.34375 70.886719 C 35.550781 68.917969 35.792969 68.390625 35.625 65.65625 C 35.457031 62.414062 35 61.261719 33.128906 59.390625 C 31.351562 57.613281 31.277344 57.757812 34.421875 56.199219 C 37.542969 54.664062 40.136719 54.613281 43.398438 55.984375 Z M 22.230469 56.511719 C 22.734375 56.679688 22.976562 56.941406 22.976562 57.253906 C 22.976562 57.757812 22.445312 59.628906 20.167969 67.359375 C 18.894531 71.726562 18.703125 73.09375 19.519531 72.277344 C 19.710938 72.085938 19.902344 71.390625 19.949219 70.71875 C 20.046875 69.398438 22.421875 61.285156 23.382812 59.007812 C 23.71875 58.214844 24.03125 57.277344 24.101562 56.894531 C 24.199219 56.367188 24.367188 56.246094 24.917969 56.246094 C 25.351562 56.246094 25.6875 56.390625 25.78125 56.628906 C 26.023438 57.300781 25.207031 61.191406 23.933594 65.367188 C 23.261719 67.550781 22.445312 70.285156 22.109375 71.488281 C 21.75 72.664062 21.34375 73.789062 21.175781 73.984375 C 20.910156 74.269531 20.527344 74.246094 18.632812 73.933594 C 14.765625 73.285156 12.054688 71.558594 10.832031 68.992188 C 9.871094 67.023438 10.277344 63.496094 11.695312 61.285156 C 12.4375 60.109375 13.542969 58.957031 13.710938 59.152344 C 13.855469 59.269531 11.910156 65.773438 11.335938 67.144531 C 11.117188 67.648438 11 68.125 11.09375 68.199219 C 11.429688 68.535156 11.960938 67.453125 12.65625 65.03125 C 13.0625 63.589844 13.640625 61.816406 13.902344 61.09375 C 14.167969 60.398438 14.335938 59.535156 14.261719 59.199219 C 14.167969 58.71875 14.3125 58.503906 14.910156 58.144531 C 15.320312 57.902344 15.75 57.6875 15.871094 57.6875 C 16.207031 57.6875 15.773438 59.75 14.429688 64.503906 C 12.65625 70.765625 12.535156 71.992188 13.734375 70.648438 C 13.976562 70.382812 14.046875 70.167969 13.902344 70.167969 C 13.734375 70.167969 13.613281 69.949219 13.613281 69.6875 C 13.613281 68.964844 16.734375 58.117188 17.117188 57.496094 C 17.3125 57.207031 17.695312 56.964844 18.007812 56.964844 C 18.320312 56.964844 18.679688 56.847656 18.847656 56.679688 C 18.992188 56.535156 19.207031 56.488281 19.304688 56.558594 C 19.519531 56.796875 17.429688 65.175781 16.230469 68.796875 C 15.726562 70.382812 15.296875 71.824219 15.296875 72.015625 C 15.296875 72.566406 15.847656 72.230469 16.039062 71.582031 C 18.65625 62.199219 19.496094 59.390625 19.878906 58.863281 C 20.144531 58.480469 20.335938 57.804688 20.335938 57.230469 C 20.335938 56.367188 20.40625 56.246094 20.910156 56.246094 C 21.199219 56.246094 21.800781 56.367188 22.230469 56.511719 Z M 27.632812 56.964844 C 28.351562 57.230469 28.421875 57.734375 27.894531 59.460938 C 27.390625 61.09375 27.605469 61.117188 28.375 59.535156 C 29.144531 57.878906 29.503906 57.566406 30.152344 57.925781 C 30.632812 58.167969 30.632812 58.214844 29.792969 59.367188 C 29.335938 60.015625 28.589844 61.429688 28.136719 62.535156 C 27.535156 64.023438 27.222656 64.527344 26.886719 64.527344 C 26.574219 64.527344 26.429688 64.742188 26.382812 65.246094 C 26.359375 65.628906 26.046875 67.238281 25.734375 68.796875 C 25.109375 71.773438 24.992188 72.804688 25.351562 72.804688 C 25.78125 72.804688 26.167969 72.085938 25.902344 71.773438 C 25.710938 71.558594 25.757812 71.007812 26.070312 69.804688 C 26.625 67.671875 27.101562 66.328125 27.320312 66.328125 C 27.605469 66.328125 27.824219 68.269531 27.726562 70.023438 C 27.65625 71.796875 27.824219 72.039062 28.277344 70.71875 L 28.566406 69.832031 L 29.503906 70.886719 C 30.269531 71.75 30.367188 71.992188 30.128906 72.230469 C 29.742188 72.636719 24.582031 74.007812 23.480469 74.007812 C 22.664062 74.007812 22.664062 74.03125 23.144531 72.878906 C 23.191406 72.734375 23.046875 72.636719 22.808594 72.636719 C 22.230469 72.6875 22.183594 72.878906 24.558594 65.007812 C 25.664062 61.3125 26.574219 58 26.574219 57.664062 C 26.574219 57.132812 26.742188 56.726562 26.960938 56.726562 C 26.984375 56.726562 27.296875 56.824219 27.632812 56.964844 Z M 33.320312 60.300781 C 35.167969 62.367188 35.839844 65.964844 34.808594 68.246094 C 34.253906 69.496094 32.09375 71.605469 31.398438 71.605469 C 30.726562 71.605469 29.070312 69.566406 28.496094 68.007812 C 28.039062 66.804688 28.015625 66.445312 28.230469 64.742188 C 28.519531 62.414062 28.734375 61.816406 29.984375 59.917969 L 30.941406 58.40625 L 31.664062 58.839844 C 32.070312 59.054688 32.816406 59.726562 33.320312 60.300781 Z M 33.320312 60.300781 "/>
<path style=" stroke:none;fill-rule:nonzero;fill:rgb(0%,0%,0%);fill-opacity:1;" d="M 96.007812 54.804688 C 94.976562 55.429688 94.109375 56.773438 93.703125 58.40625 C 93.320312 59.871094 93.488281 60.878906 94.085938 61 C 94.519531 61.09375 94.640625 60.6875 94.253906 60.445312 C 93.824219 60.183594 93.992188 58.574219 94.589844 57.300781 C 95.527344 55.285156 97.207031 54.300781 98.167969 55.238281 C 98.695312 55.789062 98.816406 57.421875 98.480469 59.726562 C 98.335938 60.636719 98.359375 60.855469 98.574219 60.664062 C 98.71875 60.519531 98.960938 59.65625 99.101562 58.742188 C 99.320312 57.351562 99.296875 56.847656 98.960938 55.695312 C 98.574219 54.351562 98.550781 54.328125 97.664062 54.328125 C 97.183594 54.328125 96.4375 54.542969 96.007812 54.804688 Z M 96.007812 54.804688 "/>
<path style=" stroke:none;fill-rule:nonzero;fill:rgb(0%,0%,0%);fill-opacity:1;" d="M 88.253906 56.007812 C 88.253906 56.175781 88.0625 56.222656 87.800781 56.125 C 87.464844 56.03125 87.246094 56.125 87.078125 56.460938 C 86.742188 57.0625 85.589844 61.816406 85.734375 61.957031 C 85.976562 62.199219 86.527344 61.453125 86.671875 60.710938 C 86.863281 59.726562 87.320312 59.292969 88.0625 59.414062 C 88.472656 59.460938 88.640625 59.65625 88.6875 60.207031 C 88.78125 61.359375 88.976562 62.007812 89.191406 62.007812 C 89.3125 62.007812 89.3125 61.621094 89.214844 61.167969 C 88.976562 60.0625 89.144531 59.414062 89.742188 59.222656 C 90.199219 59.078125 90.199219 59.054688 89.671875 58.789062 C 89.191406 58.574219 89.070312 58.285156 88.976562 57.230469 C 88.902344 56.488281 88.734375 55.886719 88.566406 55.816406 C 88.398438 55.765625 88.253906 55.863281 88.253906 56.007812 Z M 88.734375 57.949219 C 88.734375 58.503906 88.640625 58.648438 88.230469 58.648438 C 87.847656 58.648438 87.773438 58.550781 87.894531 58.214844 C 87.992188 58 88.136719 57.613281 88.183594 57.398438 C 88.375 56.773438 88.734375 57.132812 88.734375 57.949219 Z M 87.535156 57.6875 C 87.535156 57.804688 87.4375 57.925781 87.296875 57.925781 C 87.175781 57.925781 87.054688 57.804688 87.054688 57.6875 C 87.054688 57.542969 87.175781 57.445312 87.296875 57.445312 C 87.4375 57.445312 87.535156 57.542969 87.535156 57.6875 Z M 87.535156 57.6875 "/>
<path style=" stroke:none;fill-rule:nonzero;fill:rgb(0%,0%,0%);fill-opacity:1;" d="M 69.582031 56.535156 C 68.960938 56.75 68.625 57.109375 68.023438 58.261719 C 67.398438 59.511719 67.277344 60.0625 67.183594 61.957031 C 67.0625 64.671875 67.445312 65.894531 68.816406 67.144531 C 69.941406 68.175781 70.589844 68.34375 72.390625 68.175781 C 74.09375 68.03125 75.414062 67.382812 76.566406 66.109375 C 78.101562 64.40625 78.269531 62.847656 77.117188 60.445312 C 75.726562 57.519531 72.175781 55.671875 69.582031 56.535156 Z M 73.039062 57.542969 C 73.351562 57.757812 73.734375 57.878906 73.855469 57.804688 C 74.191406 57.589844 76.230469 59.582031 76.78125 60.6875 C 77.117188 61.285156 77.289062 62.125 77.3125 63.015625 C 77.335938 64.167969 77.214844 64.527344 76.613281 65.414062 C 75.199219 67.40625 71.960938 68.414062 70.109375 67.453125 C 68.359375 66.542969 67.613281 65.054688 67.613281 62.4375 C 67.613281 58.789062 69.320312 56.460938 71.625 56.992188 C 72.078125 57.085938 72.703125 57.328125 73.039062 57.542969 Z M 73.039062 57.542969 "/>
<path style=" stroke:none;fill-rule:nonzero;fill:rgb(0%,0%,0%);fill-opacity:1;" d="M 70.902344 60.039062 C 70.664062 60.277344 70.496094 60.613281 70.496094 60.757812 C 70.496094 61.167969 71.09375 61.117188 71.457031 60.6875 C 71.839844 60.207031 72.632812 60.300781 72.992188 60.878906 C 73.351562 61.453125 72.773438 62.4375 71.648438 63.183594 C 70.421875 63.976562 70.734375 64.261719 72.582031 64.09375 C 74.574219 63.902344 75.414062 63.46875 73.78125 63.445312 L 72.605469 63.445312 L 73.109375 62.628906 C 73.757812 61.574219 73.757812 60.78125 73.0625 60.132812 C 72.390625 59.488281 71.429688 59.460938 70.902344 60.039062 Z M 70.902344 60.039062 "/>
<path style=" stroke:none;fill-rule:nonzero;fill:rgb(0%,0%,0%);fill-opacity:1;" d="M 54.269531 69.710938 C 54.054688 70.046875 53.816406 74.964844 54.03125 74.964844 C 54.101562 74.964844 54.367188 74.871094 54.605469 74.75 C 54.824219 74.628906 55.472656 74.414062 56.046875 74.269531 C 57.222656 73.933594 57.296875 73.671875 56.429688 72.78125 L 55.808594 72.132812 L 56.3125 71.582031 C 56.863281 70.984375 56.960938 70.167969 56.527344 69.734375 C 56.167969 69.375 54.511719 69.351562 54.269531 69.710938 Z M 56.261719 70.285156 C 56.40625 70.71875 55.710938 71.605469 55.207031 71.605469 C 54.800781 71.605469 54.773438 70.261719 55.207031 70.09375 C 55.757812 69.855469 56.117188 69.925781 56.261719 70.285156 Z M 55.710938 72.949219 C 56.214844 73.144531 56.214844 73.671875 55.710938 73.863281 C 55.328125 74.007812 54.414062 73.648438 54.414062 73.3125 C 54.414062 72.832031 54.992188 72.6875 55.710938 72.949219 Z M 55.710938 72.949219 "/>
<path style=" stroke:none;fill-rule:nonzero;fill:rgb(0%,0%,0%);fill-opacity:1;" d="M 7.398438 73.09375 C 7.183594 73.765625 6.414062 77.390625 6.414062 77.75 C 6.414062 77.796875 6.535156 77.847656 6.65625 77.847656 C 6.800781 77.847656 7.109375 77.367188 7.375 76.789062 C 7.976562 75.375 8.238281 75.277344 8.816406 76.214844 L 9.296875 77.007812 L 9.296875 76.214844 C 9.296875 75.589844 9.390625 75.445312 9.847656 75.445312 C 10.136719 75.445312 10.542969 75.328125 10.734375 75.207031 C 11.023438 75.015625 10.976562 74.964844 10.496094 74.964844 C 9.511719 74.964844 8.863281 74.34375 8.765625 73.335938 C 8.71875 72.636719 8.574219 72.421875 8.167969 72.375 C 7.78125 72.328125 7.589844 72.46875 7.398438 73.09375 Z M 8.382812 74.773438 C 8.167969 74.992188 8.09375 74.941406 8.09375 74.488281 C 8.09375 74.03125 8.167969 73.984375 8.382812 74.199219 C 8.597656 74.414062 8.597656 74.558594 8.382812 74.773438 Z M 8.382812 74.773438 "/>
<path style=" stroke:none;fill-rule:nonzero;fill:rgb(0%,0%,0%);fill-opacity:1;" d="M 60.992188 80.007812 C 60.824219 80.175781 57.320312 80.34375 51.511719 80.488281 C 46.445312 80.605469 35.863281 80.894531 28.015625 81.109375 C 12.007812 81.542969 2.289062 81.496094 1.808594 81.015625 C 1.375 80.582031 0.894531 80.65625 0.894531 81.183594 C 0.894531 82.046875 1.664062 82.335938 3.582031 82.144531 C 4.542969 82.046875 7.925781 81.949219 11.09375 81.925781 C 14.261719 81.925781 20.144531 81.804688 24.175781 81.6875 C 28.207031 81.542969 38.429688 81.277344 46.902344 81.109375 C 55.351562 80.917969 62.429688 80.703125 62.597656 80.605469 C 62.816406 80.460938 62.765625 80.34375 62.457031 80.078125 C 61.925781 79.695312 61.328125 79.671875 60.992188 80.007812 Z M 60.992188 80.007812 "/>
<path style=" stroke:none;fill-rule:nonzero;fill:rgb(0%,0%,0%);fill-opacity:1;" d="M 94.519531 88.335938 C 94.109375 89.101562 93.535156 91.359375 93.535156 92.152344 C 93.535156 93.542969 93.941406 93.253906 94.109375 91.742188 C 94.230469 90.757812 94.421875 90.183594 94.757812 89.894531 C 95.023438 89.65625 95.214844 89.199219 95.214844 88.71875 C 95.214844 87.855469 94.878906 87.6875 94.519531 88.335938 Z M 94.519531 88.335938 "/>
<path style=" stroke:none;fill-rule:nonzero;fill:rgb(0%,0%,0%);fill-opacity:1;" d="M 12.367188 88.816406 C 5.648438 88.886719 5.214844 88.910156 5.214844 89.320312 C 5.214844 89.558594 5.480469 90.015625 5.839844 90.351562 C 6.246094 90.734375 6.390625 90.78125 6.296875 90.519531 C 5.984375 89.726562 7.015625 89.582031 14.289062 89.320312 C 23.839844 89.007812 42.296875 89.4375 56.09375 90.351562 C 61.6875 90.710938 62.335938 90.664062 62.335938 89.964844 C 62.335938 89.535156 63.128906 89.558594 54.773438 89.605469 C 50.671875 89.605469 43.925781 89.414062 38.335938 89.125 C 33.128906 88.863281 26.742188 88.671875 24.175781 88.695312 C 21.605469 88.742188 16.277344 88.789062 12.367188 88.816406 Z M 12.367188 88.816406 "/>
<path style=" stroke:none;fill-rule:nonzero;fill:rgb(0%,0%,0%);fill-opacity:1;" d="M 109.085938 89.054688 C 108.320312 89.175781 108.246094 89.582031 108.101562 93.855469 L 108.03125 96.566406 L 108.894531 96.566406 C 109.375 96.566406 110.238281 96.328125 110.816406 96.015625 C 112.183594 95.34375 112.375 94.453125 111.414062 93.445312 L 110.765625 92.773438 L 111.390625 91.863281 C 112.0625 90.878906 112.207031 89.65625 111.726562 89.175781 C 111.4375 88.886719 110.429688 88.863281 109.085938 89.054688 Z M 111.296875 89.726562 C 111.703125 90.230469 111.367188 91.046875 110.261719 92.054688 L 109.304688 92.917969 L 110.261719 93.421875 C 111.800781 94.191406 111.871094 95.03125 110.429688 95.726562 C 109.976562 95.941406 109.351562 96.085938 109.0625 96.039062 C 108.582031 95.964844 108.535156 95.847656 108.605469 94.527344 C 108.703125 92.054688 109.136719 89.871094 109.566406 89.605469 C 110.167969 89.269531 110.960938 89.320312 111.296875 89.726562 Z M 111.296875 89.726562 "/>
<path style=" stroke:none;fill-rule:nonzero;fill:rgb(0%,0%,0%);fill-opacity:1;" d="M 63.4375 89.390625 C 63.390625 89.582031 63.269531 91.503906 63.199219 93.6875 C 63.128906 95.871094 62.886719 99.160156 62.695312 101.007812 C 62.429688 103.359375 62.335938 106.453125 62.359375 111.277344 C 62.382812 116.390625 62.335938 118.261719 62.117188 118.480469 C 61.78125 118.816406 52.734375 118.765625 42.414062 118.40625 C 28.0625 117.878906 20.289062 117.6875 12.703125 117.613281 C 5.527344 117.566406 4.734375 117.613281 4.734375 117.949219 C 4.734375 118.3125 5.816406 118.335938 15.96875 118.359375 C 30.75 118.382812 61.445312 119.367188 62.382812 119.871094 C 62.695312 120.039062 62.933594 120.039062 63.128906 119.894531 C 63.296875 119.75 63.824219 119.582031 64.328125 119.488281 C 65.382812 119.292969 65.503906 118.71875 64.566406 118.527344 C 63.414062 118.285156 63.175781 118.023438 63.007812 116.941406 C 62.71875 115.046875 62.816406 105.183594 63.175781 100.886719 C 64.015625 90.566406 64.0625 89.558594 63.800781 89.292969 C 63.632812 89.125 63.511719 89.152344 63.4375 89.390625 Z M 63.4375 89.390625 "/>
<path style=" stroke:none;fill-rule:nonzero;fill:rgb(0%,0%,0%);fill-opacity:1;" d="M 100.015625 90.351562 C 99.269531 90.664062 98.144531 91.695312 97.734375 92.511719 C 97.542969 92.847656 97.328125 93.757812 97.253906 94.550781 C 97.085938 95.871094 97.136719 96.039062 97.734375 96.757812 L 98.382812 97.527344 L 98.816406 97 C 99.152344 96.566406 99.199219 96.375 98.984375 96.132812 C 98.839844 95.941406 98.742188 95.460938 98.742188 95.054688 C 98.792969 94.359375 98.765625 94.335938 98.574219 94.839844 C 98.429688 95.152344 98.238281 95.320312 98.09375 95.246094 C 97.710938 95.007812 97.808594 93.636719 98.3125 92.726562 C 99.128906 91.144531 101.335938 90.183594 101.625 91.285156 C 101.71875 91.671875 101.839844 91.71875 102.246094 91.480469 C 102.632812 91.285156 102.800781 91.3125 103.0625 91.671875 C 103.472656 92.222656 103.472656 94.621094 103.039062 96.445312 C 102.679688 97.933594 102.703125 98.292969 103.183594 97.816406 C 103.542969 97.453125 103.832031 95.628906 103.832031 93.613281 C 103.855469 91.863281 103.472656 90.757812 102.679688 90.328125 C 102.101562 90.039062 100.808594 90.039062 100.015625 90.351562 Z M 100.015625 90.351562 "/>
<path style=" stroke:none;fill-rule:nonzero;fill:rgb(0%,0%,0%);fill-opacity:1;" d="M 4.613281 91.09375 C 4.542969 91.261719 4.519531 92.152344 4.542969 93.085938 C 4.589844 94 4.421875 96.855469 4.183594 99.421875 C 3.464844 107.488281 3.34375 116.03125 3.96875 115.40625 C 4.0625 115.3125 4.160156 113.175781 4.160156 110.65625 C 4.207031 106.261719 4.925781 93.375 5.261719 91.429688 C 5.359375 90.902344 4.78125 90.613281 4.613281 91.09375 Z M 4.613281 91.09375 "/>
<path style=" stroke:none;fill-rule:nonzero;fill:rgb(0%,0%,0%);fill-opacity:1;" d="M 89.574219 92.078125 C 89.40625 92.511719 88.976562 93.855469 88.640625 95.03125 C 88.304688 96.230469 87.96875 97.382812 87.871094 97.597656 C 87.773438 97.863281 87.847656 98.007812 88.0625 98.007812 C 88.253906 98.007812 88.6875 97.382812 89.046875 96.566406 C 89.984375 94.40625 90.296875 94.574219 91.039062 97.597656 C 91.277344 98.582031 91.734375 98.75 91.519531 97.742188 C 90.992188 95.320312 91.015625 95.175781 91.878906 94.789062 C 92.648438 94.480469 92.648438 94.453125 92.09375 94.429688 C 91.277344 94.40625 90.894531 94 90.894531 93.160156 C 90.894531 92.414062 90.4375 91.285156 90.128906 91.285156 C 90.007812 91.285156 89.765625 91.648438 89.574219 92.078125 Z M 90.558594 93.734375 C 90.75 94.023438 89.984375 94.695312 89.648438 94.503906 C 89.40625 94.359375 89.863281 93.445312 90.175781 93.445312 C 90.296875 93.445312 90.464844 93.566406 90.558594 93.734375 Z M 90.558594 93.734375 "/>
<path style=" stroke:none;fill-rule:nonzero;fill:rgb(0%,0%,0%);fill-opacity:1;" d="M 46.496094 92.488281 C 46.496094 92.992188 46.445312 93.015625 44.765625 92.824219 C 41.742188 92.460938 37.855469 92.582031 36.773438 93.085938 C 36.03125 93.421875 35.910156 93.542969 36.269531 93.613281 C 36.632812 93.710938 36.511719 93.855469 35.71875 94.285156 L 34.734375 94.863281 L 33.101562 94.191406 C 30.296875 93.039062 28.398438 92.65625 25.253906 92.628906 C 22.015625 92.605469 21.222656 92.871094 20.984375 94.09375 C 20.863281 94.621094 20.527344 94.933594 19.304688 95.558594 C 16.832031 96.832031 14.910156 99.015625 13.421875 102.300781 C 12.65625 104.007812 12.558594 106.910156 13.230469 108.636719 C 14.335938 111.542969 18.632812 113.390625 23.429688 113.007812 C 25.351562 112.863281 28.78125 112.09375 30.773438 111.375 C 31.710938 111.039062 31.78125 111.039062 33.175781 111.804688 C 36.054688 113.414062 37.519531 113.726562 41.816406 113.703125 C 45.296875 113.703125 45.871094 113.628906 47.792969 113.03125 C 52.230469 111.6875 54.847656 110.054688 55.925781 107.992188 C 56.289062 107.269531 56.457031 106.429688 56.527344 104.824219 C 56.648438 102.132812 56.238281 100.574219 54.871094 98.535156 C 53.792969 96.878906 52.640625 96.015625 49.496094 94.382812 C 47.695312 93.46875 47.335938 93.183594 47.335938 92.703125 C 47.335938 92.34375 47.167969 92.101562 46.925781 92.054688 C 46.613281 92.007812 46.496094 92.125 46.496094 92.488281 Z M 29.695312 93.566406 C 30.414062 93.757812 31.6875 94.191406 32.503906 94.550781 L 33.992188 95.175781 L 32.3125 97.09375 C 31.398438 98.175781 30.246094 99.832031 29.742188 100.839844 C 28.949219 102.496094 28.855469 102.855469 28.855469 104.582031 C 28.855469 106.191406 28.976562 106.765625 29.503906 107.917969 C 29.863281 108.6875 30.367188 109.597656 30.65625 109.933594 C 30.917969 110.269531 31.085938 110.628906 31.015625 110.726562 C 30.894531 110.941406 27.824219 111.78125 25.855469 112.167969 C 23.839844 112.550781 19.832031 112.503906 18.367188 112.070312 C 16.640625 111.566406 14.960938 110.460938 14.238281 109.359375 C 11.261719 104.894531 15.800781 96.496094 21.917969 95.125 C 23.359375 94.789062 24.511719 95.152344 25.0625 96.085938 C 25.277344 96.46875 25.542969 96.734375 25.664062 96.664062 C 26.046875 96.421875 25.855469 95.582031 25.253906 95.007812 C 24.773438 94.503906 24.4375 94.40625 23.238281 94.40625 C 22.445312 94.40625 21.75 94.3125 21.679688 94.191406 C 21.535156 93.976562 22.136719 93.375 22.734375 93.109375 C 23.335938 92.871094 28.304688 93.183594 29.695312 93.566406 Z M 42.75 93.421875 C 42.941406 93.734375 39.96875 103.765625 39.726562 103.621094 C 39.632812 103.550781 39.535156 102.976562 39.535156 102.328125 C 39.535156 101.703125 39.296875 100.550781 39.007812 99.78125 C 38.457031 98.34375 38.457031 98.222656 39.464844 94.816406 C 39.535156 94.597656 39.464844 94.40625 39.320312 94.40625 C 39.175781 94.40625 38.863281 95.054688 38.648438 95.871094 C 38.429688 96.6875 38.09375 97.40625 37.902344 97.453125 C 37.710938 97.527344 37.0625 97.09375 36.390625 96.421875 L 35.214844 95.246094 L 36.320312 94.695312 C 38.40625 93.636719 42.414062 92.847656 42.75 93.421875 Z M 45.367188 93.734375 C 45.871094 93.925781 46.015625 94.144531 46.015625 94.671875 C 46.015625 95.65625 44.574219 101.054688 43.015625 105.925781 C 41.550781 110.511719 41.238281 111.925781 41.671875 111.925781 C 41.816406 111.925781 41.984375 111.636719 42.078125 111.253906 C 42.464844 109.527344 42.773438 108.398438 43.855469 104.917969 C 44.503906 102.855469 45.320312 100.046875 45.65625 98.679688 C 46.566406 94.984375 46.734375 94.40625 46.976562 94.40625 C 47.09375 94.40625 47.261719 94.648438 47.335938 94.910156 C 47.480469 95.292969 47.550781 95.34375 47.695312 95.101562 C 47.816406 94.933594 47.839844 94.695312 47.792969 94.597656 C 47.335938 93.855469 50.863281 95.460938 52.375 96.664062 L 53.070312 97.214844 L 52.78125 99.085938 C 52.613281 100.117188 51.800781 103.070312 50.933594 105.6875 C 49.328125 110.582031 49.183594 111.0625 49.640625 110.917969 C 49.78125 110.871094 50.144531 110.03125 50.457031 109.046875 C 50.742188 108.0625 51.632812 105.230469 52.398438 102.757812 C 53.984375 97.789062 53.960938 97.789062 55.160156 100.046875 C 55.664062 101.007812 55.6875 101.199219 55.421875 102.132812 C 54.800781 104.34375 53.933594 108.253906 53.933594 108.976562 C 53.933594 109.933594 53.335938 110.367188 50.429688 111.519531 C 46.6875 113.03125 44.457031 113.4375 40.976562 113.292969 C 39.320312 113.222656 37.496094 113.007812 36.894531 112.816406 C 35.144531 112.285156 32.816406 111.160156 32.816406 110.871094 C 32.816406 110.726562 33.582031 110.175781 34.519531 109.648438 C 35.457031 109.117188 36.871094 108.109375 37.640625 107.390625 C 38.429688 106.695312 39.128906 106.144531 39.175781 106.191406 C 39.222656 106.261719 38.933594 107.367188 38.550781 108.664062 C 37.832031 111.109375 37.6875 112.167969 38.09375 112.167969 C 38.429688 112.167969 38.839844 111.300781 38.671875 110.894531 C 38.550781 110.535156 42.535156 96.039062 43.277344 94.167969 C 43.6875 93.132812 43.757812 93.109375 45.367188 93.734375 Z M 35.816406 96.589844 C 36.269531 97 37.207031 98.175781 37.855469 99.160156 C 38.984375 100.863281 39.054688 101.078125 39.054688 102.542969 C 39.054688 105.46875 37.445312 107.605469 33.800781 109.503906 L 31.902344 110.488281 L 31.253906 109.742188 C 29.40625 107.535156 28.832031 104.941406 29.648438 102.398438 C 30.4375 99.902344 33.511719 95.847656 34.613281 95.847656 C 34.808594 95.847656 35.335938 96.183594 35.816406 96.589844 Z M 56.335938 104.292969 C 56.335938 105.46875 55.613281 107.75 55.039062 108.375 C 54.605469 108.855469 54.535156 108.855469 54.464844 108.496094 C 54.414062 108.277344 54.726562 107.007812 55.136719 105.6875 C 55.855469 103.335938 56.335938 102.78125 56.335938 104.292969 Z M 39.535156 105.445312 C 39.535156 105.566406 39.4375 105.6875 39.296875 105.6875 C 39.175781 105.6875 39.054688 105.566406 39.054688 105.445312 C 39.054688 105.300781 39.175781 105.207031 39.296875 105.207031 C 39.4375 105.207031 39.535156 105.300781 39.535156 105.445312 Z M 39.535156 105.445312 "/>
<path style=" stroke:none;fill-rule:nonzero;fill:rgb(0%,0%,0%);fill-opacity:1;" d="M 48.824219 99.015625 C 48.488281 100.765625 47.550781 104.320312 46.734375 106.886719 C 45.941406 109.453125 45.296875 111.710938 45.296875 111.855469 C 45.296875 112.285156 45.917969 112.238281 46.398438 111.757812 C 46.664062 111.496094 46.710938 111.328125 46.519531 111.253906 C 46.0625 111.109375 46.207031 110.390625 47.429688 106.335938 C 48.078125 104.199219 48.800781 101.75 49.015625 100.886719 C 49.230469 100.023438 49.613281 98.992188 49.878906 98.582031 C 50.40625 97.742188 50.480469 96.566406 50.046875 96.132812 C 49.878906 95.964844 49.6875 95.847656 49.613281 95.847656 C 49.519531 95.847656 49.183594 97.285156 48.824219 99.015625 Z M 48.824219 99.015625 "/>
<path style=" stroke:none;fill-rule:nonzero;fill:rgb(0%,0%,0%);fill-opacity:1;" d="M 70.183594 92.34375 C 68.289062 93.039062 67.613281 94.167969 67.421875 96.925781 C 67.328125 98.703125 67.375 99.039062 67.976562 100.359375 C 69.246094 103.191406 71.457031 104.460938 74.574219 104.175781 C 76.136719 104.03125 77.984375 103.167969 79.039062 102.0625 C 81.320312 99.6875 79.925781 94.09375 76.664062 92.511719 C 75.824219 92.101562 75.175781 92.007812 73.351562 92.007812 C 72.078125 92.03125 70.6875 92.175781 70.183594 92.34375 Z M 70.734375 93.328125 C 69.703125 94.382812 69.941406 94.671875 71.046875 93.6875 C 71.503906 93.277344 72.222656 92.847656 72.65625 92.703125 C 73.613281 92.367188 74.3125 92.796875 75.605469 94.648438 C 76.085938 95.34375 76.496094 95.824219 76.496094 95.703125 C 76.496094 95.390625 75.582031 93.902344 75.007812 93.300781 C 73.976562 92.152344 75.871094 92.292969 77.289062 93.46875 C 78.222656 94.238281 79.445312 96.566406 79.710938 98.007812 C 79.902344 99.183594 79.304688 101.125 78.488281 101.894531 C 77.550781 102.78125 75.246094 103.789062 74.144531 103.816406 C 72.65625 103.839844 70.640625 103.144531 69.847656 102.328125 C 68.238281 100.695312 67.566406 98.199219 68.070312 95.871094 C 68.40625 94.335938 69.007812 93.398438 70.0625 92.894531 C 71.359375 92.246094 71.625 92.414062 70.734375 93.328125 Z M 70.734375 93.328125 "/>
<path style=" stroke:none;fill-rule:nonzero;fill:rgb(0%,0%,0%);fill-opacity:1;" d="M 71.382812 95.535156 C 71.09375 95.796875 71.191406 96.496094 71.574219 96.804688 C 71.886719 97.046875 71.933594 97.023438 71.933594 96.613281 C 71.933594 95.917969 72.75 95.726562 73.613281 96.230469 C 74.597656 96.832031 74.671875 97.214844 73.832031 97.503906 C 72.917969 97.816406 72.941406 98.246094 73.902344 98.796875 C 74.503906 99.160156 74.597656 99.277344 74.3125 99.46875 C 74.144531 99.589844 73.6875 99.6875 73.328125 99.6875 C 72.96875 99.6875 72.605469 99.78125 72.535156 99.925781 C 72.34375 100.238281 73.949219 100.238281 75.101562 99.925781 C 76.351562 99.566406 76.421875 99.277344 75.367188 98.796875 C 74.863281 98.558594 74.40625 98.34375 74.359375 98.320312 C 74.3125 98.292969 74.527344 98.054688 74.839844 97.789062 C 75.535156 97.214844 75.34375 96.757812 74.09375 95.894531 C 73.351562 95.390625 71.742188 95.175781 71.382812 95.535156 Z M 71.382812 95.535156 "/>
<path style=" stroke:none;fill-rule:nonzero;fill:rgb(0%,0%,0%);fill-opacity:1;" d="M 8.625 111.230469 C 8.335938 112.453125 8.144531 113.488281 8.214844 113.558594 C 8.289062 113.628906 8.527344 113.511719 8.765625 113.292969 C 9.464844 112.671875 9.96875 112.816406 10.351562 113.726562 C 10.808594 114.804688 11.070312 114.804688 10.902344 113.703125 C 10.78125 112.984375 10.832031 112.816406 11.238281 112.71875 C 11.695312 112.597656 11.695312 112.574219 11.167969 112.3125 C 10.757812 112.09375 10.589844 111.757812 10.496094 110.917969 C 10.351562 109.789062 9.941406 109.046875 9.4375 109.046875 C 9.269531 109.046875 8.910156 110.03125 8.625 111.230469 Z M 10.015625 111.925781 C 10.015625 112.046875 9.917969 112.167969 9.773438 112.167969 C 9.65625 112.167969 9.535156 112.046875 9.535156 111.925781 C 9.535156 111.78125 9.65625 111.6875 9.773438 111.6875 C 9.917969 111.6875 10.015625 111.78125 10.015625 111.925781 Z M 10.015625 111.925781 "/>
<path style=" stroke:none;fill-rule:nonzero;fill:rgb(0%,0%,0%);fill-opacity:1;" d="M 56.695312 112.765625 C 56.457031 113.75 56.191406 114.636719 56.070312 114.710938 C 55.78125 114.878906 55.808594 115.550781 56.09375 116.007812 C 56.261719 116.292969 56.382812 116.292969 56.625 116.054688 C 56.765625 115.910156 57.367188 115.765625 57.941406 115.765625 C 59.238281 115.765625 59.503906 115.3125 58.757812 114.300781 C 58.253906 113.628906 58.253906 113.535156 58.589844 113.007812 C 59.382812 111.804688 59 110.964844 57.65625 110.964844 C 57.152344 110.964844 57.054688 111.160156 56.695312 112.765625 Z M 58.085938 112.671875 C 57.488281 113.292969 57.175781 112.933594 57.703125 112.191406 C 57.96875 111.804688 58.136719 111.710938 58.328125 111.902344 C 58.519531 112.09375 58.445312 112.3125 58.085938 112.671875 Z M 58.109375 114.542969 C 58.519531 114.976562 58.496094 115.023438 58.015625 115.167969 C 57.464844 115.335938 56.816406 114.949219 56.816406 114.421875 C 56.816406 113.941406 57.632812 114.015625 58.109375 114.542969 Z M 58.109375 114.542969 "/>
</g>
</svg>
