<?xml version="1.0" encoding="UTF-8"?>
<svg xmlns="http://www.w3.org/2000/svg" xmlns:xlink="http://www.w3.org/1999/xlink" width="68pt" height="50pt" viewBox="0 0 68 50" version="1.1">
<defs>
<clipPath id="clip1">
  <path d="M 0 0.542969 L 64 0.542969 L 64 41 L 0 41 Z M 0 0.542969 "/>
</clipPath>
</defs>
<g id="surface1">
<g clip-path="url(#clip1)" clip-rule="nonzero">
<path style=" stroke:none;fill-rule:nonzero;fill:rgb(0%,0%,0%);fill-opacity:1;" d="M 55.304688 1.113281 C 54.96875 1.886719 48.5625 6.6875 39.273438 13.113281 C 35.578125 15.710938 27.417969 21.472656 18.632812 27.710938 C 15.152344 30.207031 12.25 32.222656 12.152344 32.222656 C 12.058594 32.222656 11.769531 32.027344 11.53125 31.816406 C 11.21875 31.527344 11 31.503906 10.832031 31.667969 C 10.496094 32.007812 10.761719 32.464844 11.265625 32.464844 C 11.9375 32.464844 10.953125 33.304688 7.882812 35.390625 C 4.378906 37.738281 2.144531 39.417969 2.3125 39.589844 C 2.363281 39.640625 2.625 39.589844 2.890625 39.441406 C 3.464844 39.136719 8.792969 35.410156 10.59375 34.042969 L 11.867188 33.085938 L 12.417969 33.757812 C 13.640625 35.269531 14.242188 39.035156 13.402344 39.855469 C 13.042969 40.210938 12.296875 40.261719 6.441406 40.261719 C 0.847656 40.234375 -0.109375 40.3125 0.0078125 40.597656 C 0.105469 40.886719 1.519531 40.90625 9.394531 40.789062 C 14.480469 40.691406 20.121094 40.527344 21.898438 40.402344 C 23.671875 40.261719 29.433594 39.832031 34.664062 39.417969 C 39.898438 39.035156 45.730469 38.632812 47.578125 38.558594 C 51.296875 38.363281 51.417969 38.410156 51.417969 39.710938 C 51.417969 40.789062 51.875 40.691406 51.945312 39.609375 L 52.015625 38.582031 L 57.273438 38.511719 C 60.777344 38.484375 62.648438 38.363281 62.867188 38.171875 C 63.464844 37.691406 62.839844 37.546875 61.183594 37.785156 C 59.289062 38.078125 57.96875 37.886719 57.800781 37.3125 C 57.730469 37.09375 57.371094 33.976562 57.035156 30.417969 C 56.480469 24.710938 56.386719 22.546875 56.289062 12.230469 C 56.195312 3.207031 56.097656 0.539062 55.882812 0.539062 C 55.714844 0.539062 55.449219 0.808594 55.304688 1.113281 Z M 56.167969 27.902344 C 56.3125 29.292969 56.386719 30.472656 56.335938 30.519531 C 56.242188 30.609375 53.027344 30.996094 52.210938 31.023438 C 51.679688 31.023438 51.65625 31.113281 51.632812 33.230469 C 51.632812 34.453125 51.539062 35.988281 51.464844 36.660156 L 51.296875 37.859375 L 46.136719 38.152344 C 43.304688 38.316406 37.351562 38.703125 32.9375 39.035156 C 22.546875 39.832031 17.601562 40.144531 15.632812 40.144531 L 14.027344 40.144531 L 14.265625 39.472656 C 14.578125 38.632812 14.027344 35.847656 13.160156 33.976562 L 12.585938 32.746094 L 13.089844 32.269531 C 13.378906 32.027344 16.59375 29.703125 20.21875 27.136719 C 33.632812 17.632812 37.304688 15.035156 39.128906 13.785156 C 40.136719 13.09375 42.921875 11.128906 45.296875 9.417969 C 47.671875 7.71875 50.960938 5.363281 52.617188 4.191406 L 55.617188 2.054688 L 55.785156 13.71875 C 55.859375 20.128906 56.050781 26.511719 56.167969 27.902344 Z M 56.144531 32.128906 C 56.671875 32.464844 56.914062 33.710938 57.007812 36.660156 L 57.058594 37.859375 L 52.015625 37.859375 L 52.066406 36.777344 C 52.089844 36.183594 52.183594 34.765625 52.257812 33.609375 L 52.425781 31.527344 L 54.007812 31.667969 C 54.898438 31.738281 55.859375 31.933594 56.144531 32.128906 Z M 56.144531 32.128906 "/>
</g>
<path style=" stroke:none;fill-rule:nonzero;fill:rgb(0%,0%,0%);fill-opacity:1;" d="M 19.136719 32.152344 C 19.042969 32.53125 18.875 33.015625 18.753906 33.253906 C 18.609375 33.519531 18.609375 33.855469 18.800781 34.164062 C 18.992188 34.527344 18.992188 34.738281 18.800781 34.933594 C 18.417969 35.316406 18.007812 34.839844 17.839844 33.757812 C 17.699219 32.796875 17.242188 32.4375 17 33.0625 C 16.808594 33.589844 17.503906 35.195312 18.226562 35.820312 C 18.707031 36.230469 18.800781 36.519531 18.730469 37.09375 C 18.65625 37.527344 18.679688 38.128906 18.777344 38.464844 C 18.898438 38.914062 18.96875 38.746094 19.113281 37.617188 C 19.28125 36.328125 19.378906 36.109375 20.097656 35.632812 C 20.554688 35.34375 21.105469 34.839844 21.320312 34.503906 C 21.707031 33.921875 21.707031 33.855469 21.296875 33.417969 C 21.082031 33.183594 20.648438 32.941406 20.363281 32.894531 C 20 32.847656 19.832031 32.632812 19.785156 32.152344 C 19.738281 31.785156 19.617188 31.503906 19.496094 31.503906 C 19.351562 31.503906 19.210938 31.785156 19.136719 32.152344 Z M 20.867188 33.777344 C 21.007812 34.214844 20.3125 35.101562 19.808594 35.101562 C 19.496094 35.101562 19.351562 33.878906 19.664062 33.589844 C 19.953125 33.277344 20.722656 33.417969 20.867188 33.777344 Z M 20.867188 33.777344 "/>
<path style=" stroke:none;fill-rule:nonzero;fill:rgb(0%,0%,0%);fill-opacity:1;" d="M 23.121094 9.710938 C 22.328125 10.429688 21.679688 11.195312 21.679688 11.464844 C 21.65625 11.726562 21.875 12.304688 22.136719 12.710938 C 22.570312 13.429688 22.738281 13.503906 23.722656 13.503906 C 24.824219 13.503906 25.738281 13.816406 25.738281 14.222656 C 25.738281 14.316406 25.449219 14.773438 25.113281 15.183594 C 24.585938 15.777344 24.34375 15.902344 23.839844 15.777344 C 23.386719 15.660156 23.289062 15.6875 23.480469 15.902344 C 23.625 16.042969 24.105469 16.144531 24.539062 16.09375 C 25.136719 16.042969 25.425781 15.832031 25.738281 15.230469 C 25.976562 14.796875 26.121094 14.222656 26.050781 13.957031 C 25.859375 13.28125 24.632812 12.710938 23.671875 12.855469 C 22.953125 12.976562 22.882812 12.921875 22.738281 12.304688 C 22.546875 11.4375 22.882812 10.785156 24.128906 9.472656 C 25.519531 8.054688 24.824219 8.222656 23.121094 9.710938 Z M 23.121094 9.710938 "/>
<path style=" stroke:none;fill-rule:nonzero;fill:rgb(0%,0%,0%);fill-opacity:1;" d="M 64.808594 14.484375 C 64.570312 14.605469 64.378906 14.894531 64.378906 15.109375 C 64.378906 15.304688 63.945312 16.382812 63.417969 17.511719 C 62.890625 18.640625 62.457031 19.648438 62.457031 19.765625 C 62.457031 19.859375 62.914062 19.765625 63.464844 19.503906 C 64.015625 19.261719 64.570312 19.113281 64.664062 19.164062 C 64.761719 19.234375 64.859375 19.738281 64.859375 20.292969 C 64.859375 20.847656 64.976562 21.472656 65.097656 21.660156 C 65.265625 21.921875 65.335938 21.757812 65.335938 21.015625 C 65.335938 19.335938 65.671875 18.777344 66.65625 18.777344 C 67.113281 18.777344 67.496094 18.660156 67.496094 18.539062 C 67.496094 18.398438 67.136719 18.304688 66.730469 18.304688 C 66.296875 18.304688 65.792969 18.207031 65.625 18.109375 C 65.265625 17.867188 65.144531 16.359375 65.410156 15.109375 C 65.601562 14.171875 65.503906 14.078125 64.808594 14.484375 Z M 64.859375 17.820312 C 64.859375 18.371094 64.015625 18.921875 63.777344 18.539062 C 63.5625 18.207031 64.328125 17.054688 64.617188 17.222656 C 64.761719 17.316406 64.859375 17.582031 64.859375 17.820312 Z M 64.859375 17.820312 "/>
<path style=" stroke:none;fill-rule:nonzero;fill:rgb(0%,0%,0%);fill-opacity:1;" d="M 33.945312 42.707031 C 33.511719 42.808594 33.394531 42.945312 33.464844 43.449219 C 33.539062 44.101562 34.136719 44.511719 34.136719 43.90625 C 34.136719 43.429688 34.953125 43.191406 35.9375 43.359375 C 37.570312 43.667969 37.617188 44.632812 36.058594 45.734375 C 35.53125 46.113281 35.097656 46.5 35.097656 46.617188 C 35.097656 46.738281 35.53125 47.074219 36.058594 47.34375 C 36.585938 47.605469 37.015625 47.917969 37.015625 48.039062 C 37.015625 48.304688 35.578125 48.542969 33.96875 48.542969 C 33.273438 48.542969 32.699219 48.640625 32.699219 48.777344 C 32.699219 49.113281 35.960938 49.046875 37.113281 48.707031 C 38.386719 48.324219 38.433594 47.941406 37.28125 47.34375 C 36.730469 47.074219 36.296875 46.765625 36.296875 46.667969 C 36.296875 46.550781 36.5625 46.210938 36.875 45.925781 C 38.144531 44.726562 37.785156 43.261719 36.128906 42.808594 C 35.195312 42.542969 34.90625 42.519531 33.945312 42.707031 Z M 33.945312 42.707031 "/>
</g>
</svg>
