<?xml version="1.0" encoding="UTF-8"?>
<svg xmlns="http://www.w3.org/2000/svg" xmlns:xlink="http://www.w3.org/1999/xlink" width="649pt" height="261pt" viewBox="0 0 649 261" version="1.1">
<defs>
<clipPath id="clip1">
  <path d="M 0 0.542969 L 301 0.542969 L 301 197 L 0 197 Z M 0 0.542969 "/>
</clipPath>
</defs>
<g id="surface1">
<g clip-path="url(#clip1)" clip-rule="nonzero">
<path style="fill:none;stroke-width:19.0851;stroke-linecap:round;stroke-linejoin:round;stroke:rgb(0%,0%,0%);stroke-opacity:1;stroke-miterlimit:4;" d="M 9.570312 650.195312 L 2990.507812 650.195312 L 2990.507812 2595.078125 L 9.570312 2595.078125 Z M 9.570312 650.195312 " transform="matrix(0.1,0,0,-0.1,0,261)"/>
</g>
<path style="fill:none;stroke-width:21.432;stroke-linecap:round;stroke-linejoin:round;stroke:rgb(0%,0%,0%);stroke-opacity:1;stroke-miterlimit:4;" d="M 1727.409757 -1607.872992 C 1727.409757 -1300.380201 1473.557479 -1051.103568 1160.371814 -1051.103568 C 847.225572 -1051.103568 593.33387 -1300.380201 593.33387 -1607.872992 C 593.33387 -1915.327076 847.225572 -2164.565001 1160.371814 -2164.565001 C 1473.557479 -2164.565001 1727.409757 -1915.327076 1727.409757 -1607.872992 Z M 1727.409757 -1607.872992 " transform="matrix(0.0990826,0,0,0.100917,0,261)"/>
<path style="fill:none;stroke-width:21.432;stroke-linecap:round;stroke-linejoin:round;stroke:rgb(0%,0%,0%);stroke-opacity:1;stroke-miterlimit:4;" d="M 2434.521803 -1607.872992 C 2434.521803 -1300.380201 2180.630101 -1051.103568 1867.483859 -1051.103568 C 1554.298194 -1051.103568 1300.445916 -1300.380201 1300.445916 -1607.872992 C 1300.445916 -1915.327076 1554.298194 -2164.565001 1867.483859 -2164.565001 C 2180.630101 -2164.565001 2434.521803 -1915.327076 2434.521803 -1607.872992 Z M 2434.521803 -1607.872992 " transform="matrix(0.0990826,0,0,0.100917,0,261)"/>
<path style=" stroke:none;fill-rule:nonzero;fill:rgb(0%,0%,0%);fill-opacity:1;" d="M 92.8125 105.207031 L 92.683594 105.410156 L 92.5625 105.609375 L 92.433594 105.796875 L 92.304688 105.972656 L 92.183594 106.140625 L 92.054688 106.296875 L 91.925781 106.445312 L 91.804688 106.589844 L 91.675781 106.722656 L 91.546875 106.84375 L 91.425781 106.960938 L 91.296875 107.070312 L 91.167969 107.171875 L 91.046875 107.265625 L 90.917969 107.351562 L 90.789062 107.433594 L 90.664062 107.507812 L 90.535156 107.574219 L 90.277344 107.699219 L 90.148438 107.746094 L 90.011719 107.792969 L 89.882812 107.839844 L 89.75 107.875 L 89.621094 107.90625 L 89.484375 107.933594 L 89.351562 107.960938 L 89.222656 107.980469 L 88.945312 108.015625 L 88.675781 108.035156 C 88.261719 108.070312 87.964844 108.070312 87.964844 108.710938 C 87.964844 108.914062 88.132812 109.082031 88.398438 109.082031 C 89.304688 109.082031 90.351562 108.976562 91.292969 108.976562 C 92.398438 108.976562 93.582031 109.082031 94.664062 109.082031 C 94.863281 109.082031 95.308594 109.082031 95.308594 108.441406 C 95.308594 108.070312 95.003906 108.035156 94.765625 108.035156 C 93.988281 107.976562 93.183594 107.699219 93.183594 106.867188 C 93.183594 106.453125 93.386719 106.082031 93.652344 105.621094 L 96.214844 101.300781 L 104.667969 101.300781 L 104.574219 100.257812 L 96.851562 100.257812 L 103.496094 89.132812 L 104.574219 100.257812 L 104.667969 101.300781 C 104.742188 102.003906 105.207031 106.589844 105.207031 106.925781 C 105.207031 107.941406 103.457031 108.035156 102.789062 108.035156 C 102.3125 108.035156 101.976562 108.035156 101.976562 108.710938 C 101.976562 109.082031 102.375 109.082031 102.449219 109.082031 C 103.820312 109.082031 105.28125 108.976562 106.65625 108.976562 C 107.5 108.976562 109.625 109.082031 110.46875 109.082031 C 110.671875 109.082031 111.070312 109.082031 111.070312 108.40625 C 111.070312 108.035156 110.734375 108.035156 110.300781 108.035156 C 108.210938 108.035156 108.210938 107.804688 108.101562 106.824219 L 106.054688 85.773438 C 105.980469 85.097656 105.980469 84.960938 105.410156 84.960938 C 104.871094 84.960938 104.742188 85.191406 104.53125 85.53125 Z M 92.8125 105.207031 "/>
<path style=" stroke:none;fill-rule:nonzero;fill:rgb(0%,0%,0%);fill-opacity:1;" d="M 191.414062 107.726562 L 191.378906 107.847656 L 191.351562 107.960938 L 191.316406 108.070312 L 191.292969 108.171875 L 191.265625 108.273438 L 191.230469 108.359375 L 191.195312 108.449219 L 191.164062 108.53125 L 191.128906 108.605469 L 191.089844 108.679688 L 191.042969 108.746094 L 190.992188 108.808594 L 190.945312 108.867188 L 190.886719 108.914062 L 190.824219 108.96875 L 190.75 109.011719 L 190.675781 109.058594 L 190.589844 109.089844 L 190.5 109.125 L 190.398438 109.160156 L 190.289062 109.1875 L 190.230469 109.199219 L 190.167969 109.207031 L 190.109375 109.21875 L 190.039062 109.234375 L 189.972656 109.242188 L 189.90625 109.246094 L 189.832031 109.253906 L 189.75 109.265625 L 189.675781 109.273438 L 189.585938 109.28125 L 189.507812 109.28125 L 189.417969 109.289062 L 189.324219 109.292969 L 189.230469 109.292969 L 189.132812 109.300781 L 189.03125 109.300781 L 188.925781 109.308594 L 188.347656 109.308594 C 187.773438 109.308594 187.4375 109.308594 187.4375 109.984375 C 187.4375 110.355469 187.746094 110.355469 188.347656 110.355469 L 200.375 110.355469 C 205.695312 110.355469 209.671875 106.386719 209.671875 103.078125 C 209.671875 100.660156 207.71875 98.703125 204.449219 98.332031 C 207.960938 97.691406 211.496094 95.195312 211.496094 91.988281 C 211.496094 89.5 209.265625 87.34375 205.222656 87.34375 L 204.753906 88.390625 C 207.71875 88.390625 208.421875 90.375 208.421875 91.855469 C 208.421875 94.824219 205.527344 98.027344 201.421875 98.027344 L 196.503906 98.027344 L 196.300781 98.765625 L 202.664062 98.765625 C 205.898438 98.765625 206.539062 101.261719 206.539062 102.707031 C 206.539062 106.046875 203.542969 109.308594 199.570312 109.308594 L 194.984375 109.308594 C 194.515625 109.308594 194.441406 109.308594 194.246094 109.28125 C 193.910156 109.246094 193.8125 109.214844 193.8125 108.941406 C 193.8125 108.847656 193.8125 108.773438 193.984375 108.171875 L 196.300781 98.765625 L 196.503906 98.027344 L 198.589844 89.667969 C 198.890625 88.492188 198.953125 88.390625 200.414062 88.390625 L 204.753906 88.390625 L 205.222656 87.34375 L 193.910156 87.34375 C 193.273438 87.34375 192.933594 87.34375 192.933594 88.019531 C 192.933594 88.390625 193.230469 88.390625 193.875 88.390625 C 193.933594 88.390625 194.585938 88.390625 195.152344 88.453125 C 195.753906 88.527344 196.058594 88.5625 196.058594 88.992188 C 196.058594 89.128906 196.03125 89.238281 195.921875 89.636719 Z M 191.414062 107.726562 "/>
<path style=" stroke:none;fill-rule:nonzero;fill:rgb(0%,0%,0%);fill-opacity:1;" d="M 94.890625 252.75 L 94.6875 253.070312 L 94.496094 253.378906 L 94.296875 253.675781 L 94.09375 253.957031 L 93.902344 254.21875 L 93.699219 254.460938 L 93.5 254.695312 L 93.308594 254.917969 L 93.105469 255.132812 L 92.902344 255.324219 L 92.710938 255.503906 L 92.507812 255.675781 L 92.308594 255.832031 L 92.117188 255.984375 L 91.914062 256.125 L 91.710938 256.25 L 91.511719 256.363281 L 91.308594 256.472656 L 91.105469 256.566406 L 90.90625 256.667969 L 90.703125 256.738281 L 90.488281 256.8125 L 90.289062 256.886719 L 90.074219 256.9375 L 89.875 256.992188 L 89.660156 257.039062 L 89.449219 257.082031 L 89.246094 257.109375 L 88.808594 257.167969 L 88.386719 257.195312 C 87.738281 257.25 87.269531 257.25 87.269531 258.257812 C 87.269531 258.574219 87.535156 258.84375 87.949219 258.84375 C 89.375 258.84375 91.019531 258.671875 92.5 258.671875 C 94.242188 258.671875 96.101562 258.84375 97.804688 258.84375 C 98.113281 258.84375 98.8125 258.84375 98.8125 257.832031 C 98.8125 257.25 98.335938 257.195312 97.960938 257.195312 C 96.738281 257.097656 95.476562 256.667969 95.476562 255.355469 C 95.476562 254.707031 95.792969 254.125 96.207031 253.398438 L 100.238281 246.605469 L 113.523438 246.605469 L 113.375 244.96875 L 101.238281 244.96875 L 111.6875 227.484375 L 113.375 244.96875 L 113.523438 246.605469 C 113.640625 247.710938 114.375 254.917969 114.375 255.449219 C 114.375 257.046875 111.621094 257.195312 110.570312 257.195312 C 109.824219 257.195312 109.292969 257.195312 109.292969 258.257812 C 109.292969 258.84375 109.921875 258.84375 110.039062 258.84375 C 112.195312 258.84375 114.492188 258.671875 116.648438 258.671875 C 117.980469 258.671875 121.316406 258.84375 122.644531 258.84375 C 122.964844 258.84375 123.589844 258.84375 123.589844 257.777344 C 123.589844 257.195312 123.058594 257.195312 122.378906 257.195312 C 119.09375 257.195312 119.09375 256.832031 118.925781 255.292969 L 115.703125 222.203125 C 115.585938 221.136719 115.585938 220.925781 114.695312 220.925781 C 113.84375 220.925781 113.640625 221.285156 113.3125 221.816406 Z M 94.890625 252.75 "/>
<path style=" stroke:none;fill-rule:nonzero;fill:rgb(0%,0%,0%);fill-opacity:1;" d="M 169.289062 229.082031 L 169.289062 228.546875 L 169.277344 228.460938 L 169.277344 228.375 L 169.269531 228.300781 L 169.257812 228.21875 L 169.246094 228.132812 L 169.234375 228.058594 L 169.226562 227.984375 L 169.203125 227.910156 L 169.183594 227.835938 L 169.160156 227.769531 L 169.128906 227.707031 L 169.109375 227.644531 L 169.066406 227.582031 L 169.035156 227.527344 L 168.949219 227.417969 L 168.894531 227.378906 L 168.84375 227.335938 L 168.789062 227.292969 L 168.757812 227.28125 L 168.726562 227.261719 L 168.695312 227.25 L 168.652344 227.238281 L 168.621094 227.226562 L 168.578125 227.207031 L 168.546875 227.207031 L 168.503906 227.195312 L 168.460938 227.1875 L 168.417969 227.175781 L 168.320312 227.175781 L 168.28125 227.164062 L 168.226562 227.164062 C 167.183594 227.164062 167.183594 228.132812 167.183594 229.082031 L 167.183594 248.242188 C 167.183594 256.207031 158.542969 257.894531 154.578125 257.894531 C 152.1875 257.894531 148.847656 257.417969 146.042969 255.601562 C 141.96875 253.015625 141.96875 249.625 141.96875 248.207031 L 141.96875 229.082031 C 141.96875 228.132812 141.96875 227.164062 140.90625 227.164062 C 139.84375 227.164062 139.84375 228.132812 139.84375 229.082031 L 139.84375 248.46875 C 139.84375 256.515625 147.945312 260 154.578125 260 C 161.457031 260 169.289062 256.300781 169.289062 248.507812 Z M 169.289062 229.082031 "/>
<path style=" stroke:none;fill-rule:nonzero;fill:rgb(0%,0%,0%);fill-opacity:1;" d="M 192.472656 254.707031 L 192.429688 254.898438 L 192.378906 255.082031 L 192.335938 255.25 L 192.292969 255.414062 L 192.238281 255.566406 L 192.195312 255.707031 L 192.144531 255.84375 L 192.089844 255.972656 L 191.964844 256.207031 L 191.898438 256.3125 L 191.824219 256.40625 L 191.738281 256.503906 L 191.644531 256.582031 L 191.546875 256.667969 L 191.441406 256.726562 L 191.316406 256.800781 L 191.1875 256.855469 L 191.039062 256.90625 L 190.878906 256.960938 L 190.707031 257.003906 L 190.625 257.023438 L 190.527344 257.039062 L 190.421875 257.054688 L 190.324219 257.082031 L 190.210938 257.089844 L 190.101562 257.097656 L 189.984375 257.109375 L 189.867188 257.128906 L 189.742188 257.140625 L 189.613281 257.152344 L 189.476562 257.152344 L 189.335938 257.167969 L 189.199219 257.171875 L 189.050781 257.171875 L 188.890625 257.183594 L 188.730469 257.183594 L 188.570312 257.195312 L 187.65625 257.195312 C 186.765625 257.195312 186.234375 257.195312 186.234375 258.257812 C 186.234375 258.84375 186.710938 258.84375 187.65625 258.84375 L 206.558594 258.84375 C 214.933594 258.84375 221.175781 252.601562 221.175781 247.402344 C 221.175781 243.597656 218.101562 240.527344 212.96875 239.941406 C 218.484375 238.933594 224.054688 235.007812 224.054688 229.972656 C 224.054688 226.058594 220.546875 222.667969 214.179688 222.667969 L 213.457031 224.316406 C 218.101562 224.316406 219.21875 227.429688 219.21875 229.757812 C 219.21875 234.425781 214.667969 239.464844 208.207031 239.464844 L 200.476562 239.464844 L 200.167969 240.621094 L 210.160156 240.621094 C 215.242188 240.621094 216.261719 244.542969 216.261719 246.820312 C 216.261719 252.070312 211.542969 257.195312 205.292969 257.195312 L 198.085938 257.195312 C 197.363281 257.195312 197.246094 257.195312 196.925781 257.152344 C 196.394531 257.097656 196.246094 257.046875 196.246094 256.625 C 196.246094 256.472656 196.246094 256.355469 196.511719 255.414062 L 200.167969 240.621094 L 200.476562 239.464844 L 203.75 226.328125 C 204.230469 224.476562 204.335938 224.316406 206.621094 224.316406 L 213.457031 224.316406 L 214.179688 222.667969 L 196.394531 222.667969 C 195.398438 222.667969 194.863281 222.667969 194.863281 223.730469 C 194.863281 224.316406 195.332031 224.316406 196.34375 224.316406 C 196.449219 224.316406 197.457031 224.316406 198.351562 224.410156 C 199.296875 224.527344 199.785156 224.582031 199.785156 225.261719 C 199.785156 225.472656 199.734375 225.644531 199.5625 226.273438 Z M 192.472656 254.707031 "/>
<path style="fill:none;stroke-width:19.0851;stroke-linecap:round;stroke-linejoin:round;stroke:rgb(0%,0%,0%);stroke-opacity:1;stroke-miterlimit:4;" d="M 3493.867188 638.789062 L 6474.765625 638.789062 L 6474.765625 2583.59375 L 3493.867188 2583.59375 Z M 3493.867188 638.789062 " transform="matrix(0.1,0,0,-0.1,0,261)"/>
<path style="fill:none;stroke-width:21.432;stroke-linecap:round;stroke-linejoin:round;stroke:rgb(0%,0%,0%);stroke-opacity:1;stroke-miterlimit:4;" d="M 5243.967533 -1596.531679 C 5243.967533 -1289.077596 4990.115255 -1039.800963 4676.92959 -1039.800963 C 4363.783348 -1039.800963 4109.891646 -1289.077596 4109.891646 -1596.531679 C 4109.891646 -1904.024471 4363.783348 -2153.262396 4676.92959 -2153.262396 C 4990.115255 -2153.262396 5243.967533 -1904.024471 5243.967533 -1596.531679 Z M 5243.967533 -1596.531679 " transform="matrix(0.0990826,0,0,0.100917,0,261)"/>
<path style="fill:none;stroke-width:21.432;stroke-linecap:round;stroke-linejoin:round;stroke:rgb(0%,0%,0%);stroke-opacity:1;stroke-miterlimit:4;" d="M 5951.040155 -1596.531679 C 5951.040155 -1289.077596 5697.187877 -1039.800963 5384.002211 -1039.800963 C 5070.85597 -1039.800963 4816.964268 -1289.077596 4816.964268 -1596.531679 C 4816.964268 -1904.024471 5070.85597 -2153.262396 5384.002211 -2153.262396 C 5697.187877 -2153.262396 5951.040155 -1904.024471 5951.040155 -1596.531679 Z M 5951.040155 -1596.531679 " transform="matrix(0.0990826,0,0,0.100917,0,261)"/>
<path style=" stroke:none;fill-rule:nonzero;fill:rgb(0%,0%,0%);fill-opacity:1;" d="M 441.242188 106.351562 L 441.113281 106.554688 L 440.992188 106.75 L 440.863281 106.941406 L 440.734375 107.117188 L 440.613281 107.285156 L 440.484375 107.441406 L 440.355469 107.589844 L 440.234375 107.730469 L 440.105469 107.867188 L 439.976562 107.988281 L 439.855469 108.101562 L 439.726562 108.210938 L 439.597656 108.3125 L 439.476562 108.40625 L 439.347656 108.496094 L 439.21875 108.578125 L 439.089844 108.652344 L 438.960938 108.71875 L 438.832031 108.78125 L 438.707031 108.839844 L 438.578125 108.886719 L 438.441406 108.933594 L 438.3125 108.984375 L 438.179688 109.015625 L 438.050781 109.050781 L 437.777344 109.105469 L 437.652344 109.125 L 437.375 109.160156 L 437.101562 109.179688 C 436.691406 109.210938 436.394531 109.210938 436.394531 109.855469 C 436.394531 110.058594 436.5625 110.226562 436.824219 110.226562 C 437.730469 110.226562 438.78125 110.117188 439.71875 110.117188 C 440.828125 110.117188 442.011719 110.226562 443.09375 110.226562 C 443.289062 110.226562 443.738281 110.226562 443.738281 109.585938 C 443.738281 109.210938 443.433594 109.179688 443.195312 109.179688 C 442.417969 109.117188 441.613281 108.839844 441.613281 108.007812 C 441.613281 107.597656 441.816406 107.222656 442.078125 106.765625 L 444.644531 102.441406 L 453.097656 102.441406 L 453 101.402344 L 445.277344 101.402344 L 451.925781 90.277344 L 453 101.402344 L 453.097656 102.441406 C 453.171875 103.144531 453.636719 107.730469 453.636719 108.070312 C 453.636719 109.082031 451.886719 109.179688 451.214844 109.179688 C 450.742188 109.179688 450.40625 109.179688 450.40625 109.855469 C 450.40625 110.226562 450.804688 110.226562 450.878906 110.226562 C 452.25 110.226562 453.710938 110.117188 455.085938 110.117188 C 455.929688 110.117188 458.054688 110.226562 458.898438 110.226562 C 459.101562 110.226562 459.5 110.226562 459.5 109.550781 C 459.5 109.179688 459.160156 109.179688 458.730469 109.179688 C 456.640625 109.179688 456.640625 108.949219 456.53125 107.96875 L 454.480469 86.917969 C 454.40625 86.242188 454.40625 86.105469 453.839844 86.105469 C 453.296875 86.105469 453.171875 86.335938 452.960938 86.671875 Z M 441.242188 106.351562 "/>
<path style=" stroke:none;fill-rule:nonzero;fill:rgb(0%,0%,0%);fill-opacity:1;" d="M 539.839844 108.867188 L 539.808594 108.988281 L 539.78125 109.105469 L 539.746094 109.214844 L 539.691406 109.417969 L 539.660156 109.503906 L 539.625 109.59375 L 539.589844 109.671875 L 539.558594 109.746094 L 539.515625 109.820312 L 539.46875 109.890625 L 539.421875 109.949219 L 539.375 110.011719 L 539.3125 110.058594 L 539.253906 110.113281 L 539.179688 110.152344 L 539.105469 110.199219 L 539.015625 110.234375 L 538.929688 110.269531 L 538.828125 110.300781 L 538.65625 110.34375 L 538.597656 110.347656 L 538.535156 110.363281 L 538.46875 110.375 L 538.402344 110.382812 L 538.332031 110.390625 L 538.257812 110.398438 L 538.179688 110.410156 L 538.105469 110.417969 L 538.015625 110.421875 L 537.933594 110.421875 L 537.847656 110.429688 L 537.75 110.4375 L 537.65625 110.4375 L 537.5625 110.445312 L 537.460938 110.445312 L 537.351562 110.449219 L 536.777344 110.449219 C 536.203125 110.449219 535.863281 110.449219 535.863281 111.128906 C 535.863281 111.5 536.175781 111.5 536.777344 111.5 L 548.800781 111.5 C 554.125 111.5 558.101562 107.53125 558.101562 104.222656 C 558.101562 101.800781 556.144531 99.847656 552.878906 99.476562 C 556.390625 98.832031 559.925781 96.335938 559.925781 93.132812 C 559.925781 90.644531 557.695312 88.488281 553.652344 88.488281 L 553.183594 89.535156 C 556.144531 89.535156 556.847656 91.515625 556.847656 92.996094 C 556.847656 95.964844 553.953125 99.171875 549.851562 99.171875 L 544.933594 99.171875 L 544.730469 99.910156 L 551.09375 99.910156 C 554.328125 99.910156 554.96875 102.402344 554.96875 103.851562 C 554.96875 107.191406 551.972656 110.449219 547.996094 110.449219 L 543.414062 110.449219 C 542.945312 110.449219 542.871094 110.449219 542.675781 110.421875 C 542.335938 110.390625 542.242188 110.355469 542.242188 110.085938 C 542.242188 109.992188 542.242188 109.917969 542.410156 109.316406 L 544.730469 99.910156 L 544.933594 99.171875 L 547.015625 90.8125 C 547.320312 89.636719 547.382812 89.535156 548.84375 89.535156 L 553.183594 89.535156 L 553.652344 88.488281 L 542.335938 88.488281 C 541.703125 88.488281 541.363281 88.488281 541.363281 89.164062 C 541.363281 89.535156 541.660156 89.535156 542.304688 89.535156 C 542.363281 89.535156 543.011719 89.535156 543.582031 89.59375 C 544.183594 89.667969 544.488281 89.703125 544.488281 90.136719 C 544.488281 90.273438 544.460938 90.378906 544.351562 90.777344 Z M 539.839844 108.867188 "/>
<path style=" stroke:none;fill-rule:nonzero;fill:rgb(0%,0%,0%);fill-opacity:1;" d="M 431.890625 250.75 L 431.6875 251.070312 L 431.496094 251.378906 L 431.296875 251.675781 L 431.09375 251.957031 L 430.902344 252.21875 L 430.699219 252.460938 L 430.5 252.695312 L 430.308594 252.917969 L 430.105469 253.132812 L 429.902344 253.324219 L 429.710938 253.503906 L 429.507812 253.675781 L 429.308594 253.832031 L 429.117188 253.984375 L 428.914062 254.125 L 428.710938 254.25 L 428.511719 254.363281 L 428.308594 254.472656 L 428.105469 254.566406 L 427.90625 254.667969 L 427.703125 254.738281 L 427.488281 254.8125 L 427.289062 254.886719 L 427.074219 254.9375 L 426.875 254.992188 L 426.660156 255.039062 L 426.449219 255.082031 L 426.246094 255.109375 L 425.808594 255.167969 L 425.386719 255.195312 C 424.738281 255.25 424.269531 255.25 424.269531 256.257812 C 424.269531 256.574219 424.535156 256.84375 424.949219 256.84375 C 426.375 256.84375 428.019531 256.671875 429.5 256.671875 C 431.242188 256.671875 433.101562 256.84375 434.804688 256.84375 C 435.113281 256.84375 435.8125 256.84375 435.8125 255.832031 C 435.8125 255.25 435.335938 255.195312 434.960938 255.195312 C 433.738281 255.097656 432.476562 254.667969 432.476562 253.355469 C 432.476562 252.707031 432.792969 252.125 433.207031 251.398438 L 437.238281 244.605469 L 450.523438 244.605469 L 450.375 242.96875 L 438.238281 242.96875 L 448.6875 225.484375 L 450.375 242.96875 L 450.523438 244.605469 C 450.640625 245.710938 451.375 252.917969 451.375 253.449219 C 451.375 255.046875 448.621094 255.195312 447.570312 255.195312 C 446.824219 255.195312 446.292969 255.195312 446.292969 256.257812 C 446.292969 256.84375 446.921875 256.84375 447.039062 256.84375 C 449.195312 256.84375 451.492188 256.671875 453.648438 256.671875 C 454.980469 256.671875 458.316406 256.84375 459.644531 256.84375 C 459.964844 256.84375 460.589844 256.84375 460.589844 255.777344 C 460.589844 255.195312 460.058594 255.195312 459.378906 255.195312 C 456.09375 255.195312 456.09375 254.832031 455.925781 253.292969 L 452.703125 220.203125 C 452.585938 219.136719 452.585938 218.925781 451.695312 218.925781 C 450.84375 218.925781 450.640625 219.285156 450.3125 219.816406 Z M 431.890625 250.75 "/>
<path style=" stroke:none;fill-rule:nonzero;fill:rgb(0%,0%,0%);fill-opacity:1;" d="M 472.828125 220.222656 L 472.847656 220.15625 L 472.878906 220.105469 L 472.902344 220.050781 L 472.921875 220 L 472.945312 219.957031 L 472.964844 219.902344 L 472.984375 219.859375 L 473.007812 219.816406 L 473.019531 219.765625 L 473.039062 219.722656 L 473.050781 219.691406 L 473.058594 219.648438 L 473.070312 219.605469 L 473.082031 219.578125 L 473.101562 219.5 L 473.113281 219.46875 L 473.125 219.433594 L 473.125 219.402344 L 473.132812 219.371094 L 473.132812 219.339844 L 473.144531 219.308594 L 473.144531 219.253906 L 473.15625 219.191406 L 473.15625 219.042969 C 473.15625 217.894531 472.113281 217 470.964844 217 C 469.550781 217 469.117188 218.160156 468.9375 218.746094 L 464.035156 234.785156 C 464.003906 234.847656 463.855469 235.335938 463.855469 235.378906 C 463.855469 235.816406 465.003906 236.203125 465.300781 236.203125 C 465.566406 236.203125 465.597656 236.113281 465.851562 235.570312 Z M 472.828125 220.222656 "/>
<path style=" stroke:none;fill-rule:nonzero;fill:rgb(0%,0%,0%);fill-opacity:1;" d="M 521.097656 236.707031 L 521.074219 235.976562 L 521 235.253906 L 520.894531 234.570312 L 520.734375 233.914062 L 520.535156 233.273438 L 520.300781 232.660156 L 520.035156 232.078125 L 519.726562 231.519531 L 519.386719 230.980469 L 519.011719 230.46875 L 518.609375 229.992188 L 518.183594 229.523438 L 517.726562 229.085938 L 517.25 228.683594 L 516.738281 228.289062 L 516.21875 227.929688 L 515.675781 227.589844 L 515.113281 227.269531 L 514.539062 226.972656 L 513.941406 226.707031 L 513.335938 226.453125 L 512.71875 226.226562 L 512.105469 226.027344 L 511.464844 225.84375 L 510.828125 225.6875 L 510.191406 225.546875 L 509.554688 225.429688 L 508.914062 225.335938 L 508.265625 225.261719 L 507.640625 225.207031 L 507 225.175781 L 506.386719 225.164062 C 499.484375 225.164062 491.652344 228.875 491.652344 236.667969 L 491.652344 256.097656 C 491.652344 257.054688 491.652344 258 492.714844 258 C 493.777344 258 493.777344 257.054688 493.777344 256.097656 L 493.777344 236.933594 C 493.777344 228.992188 502.410156 227.289062 506.386719 227.289062 C 508.753906 227.289062 512.09375 227.757812 514.898438 229.566406 C 518.992188 232.160156 518.992188 235.550781 518.992188 236.972656 L 518.992188 256.097656 C 518.992188 257.054688 518.992188 258 520.035156 258 C 521.097656 258 521.097656 257.054688 521.097656 256.097656 Z M 521.097656 236.707031 "/>
<path style=" stroke:none;fill-rule:nonzero;fill:rgb(0%,0%,0%);fill-opacity:1;" d="M 544.28125 252.707031 L 544.226562 252.898438 L 544.183594 253.082031 L 544.132812 253.25 L 544.089844 253.414062 L 544.046875 253.566406 L 543.992188 253.707031 L 543.941406 253.84375 L 543.886719 253.972656 L 543.835938 254.089844 L 543.769531 254.207031 L 543.695312 254.3125 L 543.621094 254.40625 L 543.535156 254.503906 L 543.453125 254.582031 L 543.34375 254.667969 L 543.238281 254.726562 L 543.121094 254.800781 L 542.984375 254.855469 L 542.847656 254.90625 L 542.6875 254.960938 L 542.515625 255.003906 L 542.421875 255.023438 L 542.324219 255.039062 L 542.230469 255.054688 L 542.121094 255.082031 L 541.910156 255.097656 L 541.792969 255.109375 L 541.664062 255.128906 L 541.550781 255.140625 L 541.410156 255.152344 L 541.28125 255.152344 L 541.144531 255.167969 L 540.996094 255.171875 L 540.847656 255.171875 L 540.699219 255.183594 L 540.539062 255.183594 L 540.367188 255.195312 L 539.464844 255.195312 C 538.5625 255.195312 538.03125 255.195312 538.03125 256.257812 C 538.03125 256.84375 538.519531 256.84375 539.464844 256.84375 L 558.367188 256.84375 C 566.730469 256.84375 572.980469 250.601562 572.980469 245.402344 C 572.980469 241.597656 569.910156 238.527344 564.773438 237.941406 C 570.292969 236.933594 575.851562 233.007812 575.851562 227.972656 C 575.851562 224.058594 572.34375 220.667969 565.988281 220.667969 L 565.253906 222.316406 C 569.910156 222.316406 571.015625 225.429688 571.015625 227.757812 C 571.015625 232.425781 566.464844 237.464844 560.011719 237.464844 L 552.285156 237.464844 L 551.964844 238.621094 L 561.96875 238.621094 C 567.050781 238.621094 568.058594 242.542969 568.058594 244.820312 C 568.058594 250.070312 563.339844 255.195312 557.101562 255.195312 L 549.894531 255.195312 C 549.160156 255.195312 549.042969 255.195312 548.722656 255.152344 C 548.191406 255.097656 548.054688 255.046875 548.054688 254.625 C 548.054688 254.472656 548.054688 254.355469 548.320312 253.414062 L 551.964844 238.621094 L 552.285156 237.464844 L 555.558594 224.328125 C 556.039062 222.476562 556.132812 222.316406 558.429688 222.316406 L 565.253906 222.316406 L 565.988281 220.667969 L 548.191406 220.667969 C 547.203125 220.667969 546.671875 220.667969 546.671875 221.730469 C 546.671875 222.316406 547.128906 222.316406 548.148438 222.316406 C 548.246094 222.316406 549.253906 222.316406 550.160156 222.410156 C 551.105469 222.527344 551.582031 222.582031 551.582031 223.261719 C 551.582031 223.472656 551.539062 223.644531 551.371094 224.273438 Z M 544.28125 252.707031 "/>
<path style=" stroke:none;fill-rule:nonzero;fill:rgb(0%,0%,0%);fill-opacity:1;" d="M 589.414062 220.222656 L 589.4375 220.15625 L 589.46875 220.105469 L 589.488281 220.050781 L 589.511719 220 L 589.53125 219.957031 L 589.554688 219.902344 L 589.574219 219.859375 L 589.597656 219.816406 L 589.605469 219.765625 L 589.628906 219.722656 L 589.636719 219.691406 L 589.660156 219.605469 L 589.671875 219.578125 L 589.679688 219.53125 L 589.703125 219.46875 L 589.703125 219.433594 L 589.714844 219.402344 L 589.722656 219.371094 L 589.722656 219.339844 L 589.734375 219.308594 L 589.734375 219.253906 L 589.746094 219.191406 L 589.746094 219.042969 C 589.746094 217.894531 588.703125 217 587.554688 217 C 586.140625 217 585.714844 218.160156 585.523438 218.746094 L 580.625 234.785156 C 580.59375 234.847656 580.445312 235.335938 580.445312 235.378906 C 580.445312 235.816406 581.589844 236.203125 581.890625 236.203125 C 582.15625 236.203125 582.1875 236.113281 582.441406 235.570312 Z M 589.414062 220.222656 "/>
<path style=" stroke:none;fill-rule:nonzero;fill:rgb(70.117188%,70.117188%,70.117188%);fill-opacity:1;" d="M 100.957031 151.496094 C 81.832031 146.046875 66.441406 130.027344 61.925781 110.875 C 55.03125 81.613281 74.195312 51.75 103.890625 45.488281 C 107.738281 44.675781 112.691406 44.011719 114.890625 44.011719 C 123.777344 44.011719 138.871094 48.664062 144.828125 53.238281 C 146.695312 54.671875 146.597656 54.917969 142.015625 60.101562 C 129.40625 74.378906 124.585938 94.6875 129.367188 113.390625 C 131.871094 123.171875 135.472656 129.839844 142.199219 137.121094 L 147.507812 142.871094 L 142.199219 145.933594 C 139.277344 147.617188 134.640625 149.726562 131.890625 150.621094 C 125.09375 152.832031 107.398438 153.332031 100.957031 151.496094 Z M 94.902344 108.015625 C 93.769531 104.453125 96.035156 101.976562 100.425781 101.976562 C 104 101.976562 104.390625 102.226562 104.390625 104.507812 C 104.390625 105.902344 103.71875 107.296875 102.894531 107.613281 C 100.199219 108.648438 102.316406 109.808594 106.898438 109.808594 C 111.371094 109.808594 112.621094 108.796875 110.023438 107.277344 C 109.132812 106.753906 108.28125 102.871094 107.582031 96.121094 C 106.992188 90.421875 106.285156 85.539062 106.015625 85.269531 C 104.988281 84.242188 103.4375 86.257812 97.421875 96.425781 C 93.988281 102.21875 90.363281 107.167969 89.292969 107.507812 C 86.359375 108.4375 88.058594 109.976562 92.015625 109.976562 C 95.046875 109.976562 95.441406 109.710938 94.902344 108.015625 Z M 94.902344 108.015625 "/>
<path style=" stroke:none;fill-rule:nonzero;fill:rgb(70.117188%,70.117188%,70.117188%);fill-opacity:1;" d="M 98.421875 99.226562 C 98.4375 98.8125 99.5625 96.675781 100.914062 94.476562 L 103.378906 90.476562 L 103.382812 93.644531 C 103.386719 95.386719 103.664062 97.523438 103.996094 98.394531 C 104.46875 99.628906 103.917969 99.976562 101.496094 99.976562 C 99.789062 99.976562 98.402344 99.640625 98.421875 99.226562 Z M 98.421875 99.226562 "/>
<path style=" stroke:none;fill-rule:nonzero;fill:rgb(70.117188%,70.117188%,70.117188%);fill-opacity:1;" d="M 144.738281 135.257812 C 139.097656 129.113281 133.832031 118.984375 131.800781 110.363281 C 127.738281 93.128906 133.816406 72.648438 146.703125 60.160156 L 150.09375 56.871094 L 155.300781 62.570312 C 170.316406 79 173.617188 102.300781 163.789062 122.503906 C 160.382812 129.503906 152.210938 139.976562 150.152344 139.976562 C 149.558594 139.976562 147.121094 137.855469 144.738281 135.257812 Z M 144.738281 135.257812 "/>
<path style=" stroke:none;fill-rule:nonzero;fill:rgb(70.117188%,70.117188%,70.117188%);fill-opacity:1;" d="M 174.890625 152.496094 C 174.339844 152.320312 171.414062 151.421875 168.390625 150.507812 C 165.363281 149.589844 160.589844 147.460938 157.78125 145.78125 L 152.671875 142.726562 L 157.597656 137.601562 C 163.15625 131.820312 169.617188 119.363281 171.300781 111.175781 C 175 93.195312 169.980469 73.773438 158.234375 60.59375 C 155.496094 57.519531 153.488281 54.625 153.773438 54.164062 C 154.980469 52.214844 167.421875 46.84375 173.890625 45.484375 C 183.3125 43.5 188.621094 43.605469 197.804688 45.957031 C 208.003906 48.5625 214.402344 52.136719 222.492188 59.734375 C 244.675781 80.585938 245.148438 115.363281 223.535156 136.867188 C 212.367188 147.976562 199.941406 153.046875 184.246094 152.898438 C 179.648438 152.855469 175.441406 152.675781 174.890625 152.496094 Z M 204.929688 109.523438 C 209.261719 107.714844 211.097656 103.707031 209.035156 100.554688 C 207.769531 98.625 207.867188 98.125 210.007812 95.636719 C 212.90625 92.265625 212.945312 91.535156 210.390625 88.976562 C 208.722656 87.308594 207.054688 86.976562 200.390625 86.976562 C 195.722656 86.976562 192.390625 87.394531 192.390625 87.976562 C 192.390625 88.527344 193.117188 88.976562 194.007812 88.976562 C 195.191406 88.976562 195.464844 89.578125 195.035156 91.226562 C 194.710938 92.464844 193.660156 96.808594 192.699219 100.878906 C 191.441406 106.203125 190.453125 108.410156 189.171875 108.746094 C 188.191406 109 187.390625 109.609375 187.390625 110.09375 C 187.390625 111.542969 201.167969 111.097656 204.929688 109.523438 Z M 204.929688 109.523438 "/>
<path style=" stroke:none;fill-rule:nonzero;fill:rgb(70.117188%,70.117188%,70.117188%);fill-opacity:1;" d="M 194.722656 107.546875 C 195.027344 106.761719 195.574219 104.511719 195.941406 102.546875 C 196.550781 99.304688 196.917969 98.976562 199.929688 98.976562 C 205.996094 98.976562 207.875 104.121094 203.042969 107.507812 C 200.222656 109.480469 193.96875 109.511719 194.722656 107.546875 Z M 194.722656 107.546875 "/>
<path style=" stroke:none;fill-rule:nonzero;fill:rgb(70.117188%,70.117188%,70.117188%);fill-opacity:1;" d="M 197.394531 97.226562 C 197.398438 96.8125 197.871094 94.789062 198.441406 92.726562 C 199.382812 89.335938 199.808594 88.976562 202.878906 88.976562 C 206.773438 88.976562 207.824219 90.113281 206.988281 93.433594 C 206.265625 96.320312 197.375 99.832031 197.394531 97.226562 Z M 197.394531 97.226562 "/>
<path style=" stroke:none;fill-rule:nonzero;fill:rgb(70.117188%,70.117188%,70.117188%);fill-opacity:1;" d="M 350.390625 99.976562 L 350.390625 3.976562 L 646.390625 3.976562 L 646.390625 195.976562 L 350.390625 195.976562 Z M 480.390625 154.953125 C 483.964844 153.914062 489.476562 151.5 492.640625 149.59375 L 498.390625 146.121094 L 504.140625 149.585938 C 513.324219 155.121094 521.222656 157.164062 533.390625 157.164062 C 541.242188 157.164062 545.527344 156.644531 550.390625 155.097656 C 570.25 148.78125 585.617188 131.804688 589.886719 111.476562 C 592.65625 98.273438 591 86.703125 584.429688 73.367188 C 573.472656 51.132812 546.773438 38.199219 522.484375 43.359375 C 514.929688 44.964844 503.339844 49.808594 500.15625 52.6875 C 498.5625 54.128906 498.214844 54.132812 496.640625 52.75 C 495.675781 51.902344 492.886719 50.203125 490.4375 48.96875 C 467.011719 37.183594 441 41.136719 422.90625 59.234375 C 411.195312 70.949219 405.988281 83.511719 406.011719 99.976562 C 406.066406 139.105469 442.460938 166.007812 480.390625 154.953125 Z M 480.390625 154.953125 "/>
</g>
</svg>
