<?xml version="1.0" encoding="UTF-8"?>
<svg xmlns="http://www.w3.org/2000/svg" xmlns:xlink="http://www.w3.org/1999/xlink" width="649pt" height="258pt" viewBox="0 0 649 258" version="1.1">
<defs>
<clipPath id="clip1">
  <path d="M 0 0.617188 L 301 0.617188 L 301 198 L 0 198 Z M 0 0.617188 "/>
</clipPath>
</defs>
<g id="surface1">
<g clip-path="url(#clip1)" clip-rule="nonzero">
<path style="fill:none;stroke-width:19.0851;stroke-linecap:round;stroke-linejoin:round;stroke:rgb(0%,0%,0%);stroke-opacity:1;stroke-miterlimit:4;" d="M 9.570312 619.453125 L 2990.507812 619.453125 L 2990.507812 2564.335938 L 9.570312 2564.335938 Z M 9.570312 619.453125 " transform="matrix(0.1,0,0,-0.1,0,258)"/>
</g>
<path style="fill:none;stroke-width:21.432;stroke-linecap:round;stroke-linejoin:round;stroke:rgb(0%,0%,0%);stroke-opacity:1;stroke-miterlimit:4;" d="M 1727.409757 -1577.410149 C 1727.409757 -1269.956065 1473.557479 -1020.679432 1160.371814 -1020.679432 C 847.225572 -1020.679432 593.33387 -1269.956065 593.33387 -1577.410149 C 593.33387 -1884.90294 847.225572 -2134.140866 1160.371814 -2134.140866 C 1473.557479 -2134.140866 1727.409757 -1884.90294 1727.409757 -1577.410149 Z M 1727.409757 -1577.410149 " transform="matrix(0.0990826,0,0,0.100917,0,258)"/>
<path style="fill:none;stroke-width:21.432;stroke-linecap:round;stroke-linejoin:round;stroke:rgb(0%,0%,0%);stroke-opacity:1;stroke-miterlimit:4;" d="M 2434.521803 -1577.410149 C 2434.521803 -1269.956065 2180.630101 -1020.679432 1867.483859 -1020.679432 C 1554.298194 -1020.679432 1300.445916 -1269.956065 1300.445916 -1577.410149 C 1300.445916 -1884.90294 1554.298194 -2134.140866 1867.483859 -2134.140866 C 2180.630101 -2134.140866 2434.521803 -1884.90294 2434.521803 -1577.410149 Z M 2434.521803 -1577.410149 " transform="matrix(0.0990826,0,0,0.100917,0,258)"/>
<path style=" stroke:none;fill-rule:nonzero;fill:rgb(0%,0%,0%);fill-opacity:1;" d="M 92.8125 105.28125 L 92.683594 105.484375 L 92.5625 105.683594 L 92.433594 105.871094 L 92.304688 106.046875 L 92.183594 106.214844 L 92.054688 106.371094 L 91.925781 106.519531 L 91.804688 106.664062 L 91.675781 106.796875 L 91.546875 106.917969 L 91.425781 107.035156 L 91.296875 107.144531 L 91.167969 107.246094 L 91.046875 107.339844 L 90.917969 107.425781 L 90.789062 107.507812 L 90.664062 107.582031 L 90.535156 107.648438 L 90.277344 107.773438 L 90.148438 107.820312 L 90.011719 107.867188 L 89.882812 107.914062 L 89.75 107.949219 L 89.621094 107.980469 L 89.484375 108.007812 L 89.351562 108.035156 L 89.222656 108.054688 L 88.945312 108.089844 L 88.675781 108.109375 C 88.261719 108.144531 87.964844 108.144531 87.964844 108.785156 C 87.964844 108.988281 88.132812 109.15625 88.398438 109.15625 C 89.304688 109.15625 90.351562 109.050781 91.292969 109.050781 C 92.398438 109.050781 93.582031 109.15625 94.664062 109.15625 C 94.863281 109.15625 95.308594 109.15625 95.308594 108.515625 C 95.308594 108.144531 95.003906 108.109375 94.765625 108.109375 C 93.988281 108.050781 93.183594 107.773438 93.183594 106.941406 C 93.183594 106.527344 93.386719 106.15625 93.652344 105.695312 L 96.214844 101.375 L 104.667969 101.375 L 104.574219 100.332031 L 96.851562 100.332031 L 103.496094 89.207031 L 104.574219 100.332031 L 104.667969 101.375 C 104.742188 102.078125 105.207031 106.664062 105.207031 107 C 105.207031 108.015625 103.457031 108.109375 102.789062 108.109375 C 102.3125 108.109375 101.976562 108.109375 101.976562 108.785156 C 101.976562 109.15625 102.375 109.15625 102.449219 109.15625 C 103.820312 109.15625 105.28125 109.050781 106.65625 109.050781 C 107.5 109.050781 109.625 109.15625 110.46875 109.15625 C 110.671875 109.15625 111.070312 109.15625 111.070312 108.480469 C 111.070312 108.109375 110.734375 108.109375 110.300781 108.109375 C 108.210938 108.109375 108.210938 107.878906 108.101562 106.898438 L 106.054688 85.847656 C 105.980469 85.171875 105.980469 85.035156 105.410156 85.035156 C 104.871094 85.035156 104.742188 85.265625 104.53125 85.605469 Z M 92.8125 105.28125 "/>
<path style=" stroke:none;fill-rule:nonzero;fill:rgb(0%,0%,0%);fill-opacity:1;" d="M 191.414062 107.800781 L 191.378906 107.921875 L 191.351562 108.035156 L 191.316406 108.144531 L 191.292969 108.246094 L 191.265625 108.347656 L 191.230469 108.433594 L 191.195312 108.523438 L 191.164062 108.605469 L 191.128906 108.679688 L 191.089844 108.753906 L 191.042969 108.820312 L 190.992188 108.882812 L 190.945312 108.941406 L 190.886719 108.988281 L 190.824219 109.042969 L 190.75 109.085938 L 190.675781 109.132812 L 190.589844 109.164062 L 190.5 109.199219 L 190.398438 109.234375 L 190.289062 109.261719 L 190.230469 109.273438 L 190.167969 109.28125 L 190.109375 109.292969 L 190.039062 109.308594 L 189.972656 109.316406 L 189.90625 109.320312 L 189.832031 109.328125 L 189.75 109.339844 L 189.675781 109.347656 L 189.585938 109.355469 L 189.507812 109.355469 L 189.417969 109.363281 L 189.324219 109.367188 L 189.230469 109.367188 L 189.132812 109.375 L 189.03125 109.375 L 188.925781 109.382812 L 188.347656 109.382812 C 187.773438 109.382812 187.4375 109.382812 187.4375 110.058594 C 187.4375 110.429688 187.746094 110.429688 188.347656 110.429688 L 200.375 110.429688 C 205.695312 110.429688 209.671875 106.460938 209.671875 103.152344 C 209.671875 100.734375 207.71875 98.777344 204.449219 98.40625 C 207.960938 97.765625 211.496094 95.269531 211.496094 92.0625 C 211.496094 89.574219 209.265625 87.417969 205.222656 87.417969 L 204.753906 88.464844 C 207.71875 88.464844 208.421875 90.449219 208.421875 91.929688 C 208.421875 94.898438 205.527344 98.101562 201.421875 98.101562 L 196.503906 98.101562 L 196.300781 98.839844 L 202.664062 98.839844 C 205.898438 98.839844 206.539062 101.335938 206.539062 102.78125 C 206.539062 106.121094 203.542969 109.382812 199.570312 109.382812 L 194.984375 109.382812 C 194.515625 109.382812 194.441406 109.382812 194.246094 109.355469 C 193.910156 109.320312 193.8125 109.289062 193.8125 109.015625 C 193.8125 108.921875 193.8125 108.847656 193.984375 108.246094 L 196.300781 98.839844 L 196.503906 98.101562 L 198.589844 89.742188 C 198.890625 88.566406 198.953125 88.464844 200.414062 88.464844 L 204.753906 88.464844 L 205.222656 87.417969 L 193.910156 87.417969 C 193.273438 87.417969 192.933594 87.417969 192.933594 88.09375 C 192.933594 88.464844 193.230469 88.464844 193.875 88.464844 C 193.933594 88.464844 194.585938 88.464844 195.152344 88.527344 C 195.753906 88.601562 196.058594 88.636719 196.058594 89.066406 C 196.058594 89.203125 196.03125 89.3125 195.921875 89.710938 Z M 191.414062 107.800781 "/>
<path style="fill:none;stroke-width:19.0851;stroke-linecap:round;stroke-linejoin:round;stroke:rgb(0%,0%,0%);stroke-opacity:1;stroke-miterlimit:4;" d="M 3493.867188 608.046875 L 6474.765625 608.046875 L 6474.765625 2552.890625 L 3493.867188 2552.890625 Z M 3493.867188 608.046875 " transform="matrix(0.1,0,0,-0.1,0,258)"/>
<path style="fill:none;stroke-width:21.432;stroke-linecap:round;stroke-linejoin:round;stroke:rgb(0%,0%,0%);stroke-opacity:1;stroke-miterlimit:4;" d="M 5243.967533 -1566.107544 C 5243.967533 -1258.614753 4990.115255 -1009.376827 4676.92959 -1009.376827 C 4363.783348 -1009.376827 4109.891646 -1258.614753 4109.891646 -1566.107544 C 4109.891646 -1873.561627 4363.783348 -2122.838261 4676.92959 -2122.838261 C 4990.115255 -2122.838261 5243.967533 -1873.561627 5243.967533 -1566.107544 Z M 5243.967533 -1566.107544 " transform="matrix(0.0990826,0,0,0.100917,0,258)"/>
<path style="fill:none;stroke-width:21.432;stroke-linecap:round;stroke-linejoin:round;stroke:rgb(0%,0%,0%);stroke-opacity:1;stroke-miterlimit:4;" d="M 5951.040155 -1566.107544 C 5951.040155 -1258.614753 5697.187877 -1009.376827 5384.002211 -1009.376827 C 5070.85597 -1009.376827 4816.964268 -1258.614753 4816.964268 -1566.107544 C 4816.964268 -1873.561627 5070.85597 -2122.838261 5384.002211 -2122.838261 C 5697.187877 -2122.838261 5951.040155 -1873.561627 5951.040155 -1566.107544 Z M 5951.040155 -1566.107544 " transform="matrix(0.0990826,0,0,0.100917,0,258)"/>
<path style=" stroke:none;fill-rule:nonzero;fill:rgb(0%,0%,0%);fill-opacity:1;" d="M 441.242188 106.425781 L 441.113281 106.628906 L 440.992188 106.824219 L 440.863281 107.015625 L 440.734375 107.191406 L 440.613281 107.359375 L 440.484375 107.515625 L 440.355469 107.664062 L 440.234375 107.804688 L 440.105469 107.941406 L 439.976562 108.0625 L 439.855469 108.175781 L 439.726562 108.285156 L 439.597656 108.386719 L 439.476562 108.480469 L 439.347656 108.570312 L 439.21875 108.652344 L 439.089844 108.726562 L 438.960938 108.792969 L 438.832031 108.855469 L 438.707031 108.914062 L 438.578125 108.960938 L 438.441406 109.007812 L 438.3125 109.058594 L 438.179688 109.089844 L 438.050781 109.125 L 437.777344 109.179688 L 437.652344 109.199219 L 437.375 109.234375 L 437.101562 109.253906 C 436.691406 109.285156 436.394531 109.285156 436.394531 109.929688 C 436.394531 110.132812 436.5625 110.300781 436.824219 110.300781 C 437.730469 110.300781 438.78125 110.191406 439.71875 110.191406 C 440.828125 110.191406 442.011719 110.300781 443.09375 110.300781 C 443.289062 110.300781 443.738281 110.300781 443.738281 109.660156 C 443.738281 109.285156 443.433594 109.253906 443.195312 109.253906 C 442.417969 109.191406 441.613281 108.914062 441.613281 108.082031 C 441.613281 107.671875 441.816406 107.296875 442.078125 106.839844 L 444.644531 102.515625 L 453.097656 102.515625 L 453 101.476562 L 445.277344 101.476562 L 451.925781 90.351562 L 453 101.476562 L 453.097656 102.515625 C 453.171875 103.21875 453.636719 107.804688 453.636719 108.144531 C 453.636719 109.15625 451.886719 109.253906 451.214844 109.253906 C 450.742188 109.253906 450.40625 109.253906 450.40625 109.929688 C 450.40625 110.300781 450.804688 110.300781 450.878906 110.300781 C 452.25 110.300781 453.710938 110.191406 455.085938 110.191406 C 455.929688 110.191406 458.054688 110.300781 458.898438 110.300781 C 459.101562 110.300781 459.5 110.300781 459.5 109.625 C 459.5 109.253906 459.160156 109.253906 458.730469 109.253906 C 456.640625 109.253906 456.640625 109.023438 456.53125 108.042969 L 454.480469 86.992188 C 454.40625 86.316406 454.40625 86.179688 453.839844 86.179688 C 453.296875 86.179688 453.171875 86.410156 452.960938 86.746094 Z M 441.242188 106.425781 "/>
<path style=" stroke:none;fill-rule:nonzero;fill:rgb(0%,0%,0%);fill-opacity:1;" d="M 539.839844 108.941406 L 539.808594 109.0625 L 539.78125 109.179688 L 539.746094 109.289062 L 539.691406 109.492188 L 539.660156 109.578125 L 539.625 109.667969 L 539.589844 109.746094 L 539.558594 109.820312 L 539.515625 109.894531 L 539.46875 109.964844 L 539.421875 110.023438 L 539.375 110.085938 L 539.3125 110.132812 L 539.253906 110.1875 L 539.179688 110.226562 L 539.105469 110.273438 L 539.015625 110.308594 L 538.929688 110.34375 L 538.828125 110.375 L 538.65625 110.417969 L 538.597656 110.421875 L 538.535156 110.4375 L 538.46875 110.449219 L 538.402344 110.457031 L 538.332031 110.464844 L 538.257812 110.472656 L 538.179688 110.484375 L 538.105469 110.492188 L 538.015625 110.496094 L 537.933594 110.496094 L 537.847656 110.503906 L 537.75 110.511719 L 537.65625 110.511719 L 537.5625 110.519531 L 537.460938 110.519531 L 537.351562 110.523438 L 536.777344 110.523438 C 536.203125 110.523438 535.863281 110.523438 535.863281 111.203125 C 535.863281 111.574219 536.175781 111.574219 536.777344 111.574219 L 548.800781 111.574219 C 554.125 111.574219 558.101562 107.605469 558.101562 104.296875 C 558.101562 101.875 556.144531 99.921875 552.878906 99.550781 C 556.390625 98.90625 559.925781 96.410156 559.925781 93.207031 C 559.925781 90.71875 557.695312 88.5625 553.652344 88.5625 L 553.183594 89.609375 C 556.144531 89.609375 556.847656 91.589844 556.847656 93.070312 C 556.847656 96.039062 553.953125 99.246094 549.851562 99.246094 L 544.933594 99.246094 L 544.730469 99.984375 L 551.09375 99.984375 C 554.328125 99.984375 554.96875 102.476562 554.96875 103.925781 C 554.96875 107.265625 551.972656 110.523438 547.996094 110.523438 L 543.414062 110.523438 C 542.945312 110.523438 542.871094 110.523438 542.675781 110.496094 C 542.335938 110.464844 542.242188 110.429688 542.242188 110.160156 C 542.242188 110.066406 542.242188 109.992188 542.410156 109.390625 L 544.730469 99.984375 L 544.933594 99.246094 L 547.015625 90.886719 C 547.320312 89.710938 547.382812 89.609375 548.84375 89.609375 L 553.183594 89.609375 L 553.652344 88.5625 L 542.335938 88.5625 C 541.703125 88.5625 541.363281 88.5625 541.363281 89.238281 C 541.363281 89.609375 541.660156 89.609375 542.304688 89.609375 C 542.363281 89.609375 543.011719 89.609375 543.582031 89.667969 C 544.183594 89.742188 544.488281 89.777344 544.488281 90.210938 C 544.488281 90.347656 544.460938 90.453125 544.351562 90.851562 Z M 539.839844 108.941406 "/>
<path style=" stroke:none;fill-rule:nonzero;fill:rgb(70.117188%,70.117188%,70.117188%);fill-opacity:1;" d="M 144.738281 135.332031 C 139.097656 129.1875 133.832031 119.058594 131.800781 110.4375 C 127.738281 93.203125 133.816406 72.722656 146.703125 60.234375 L 150.09375 56.945312 L 155.300781 62.644531 C 170.316406 79.074219 173.617188 102.375 163.789062 122.578125 C 160.382812 129.578125 152.210938 140.050781 150.152344 140.050781 C 149.558594 140.050781 147.121094 137.929688 144.738281 135.332031 Z M 144.738281 135.332031 "/>
<path style=" stroke:none;fill-rule:nonzero;fill:rgb(70.117188%,70.117188%,70.117188%);fill-opacity:1;" d="M 350.390625 100.050781 L 350.390625 4.050781 L 646.390625 4.050781 L 646.390625 196.050781 L 350.390625 196.050781 Z M 480.390625 155.027344 C 483.964844 153.988281 489.476562 151.574219 492.640625 149.667969 L 498.390625 146.195312 L 504.140625 149.660156 C 513.324219 155.195312 521.222656 157.238281 533.390625 157.238281 C 541.242188 157.238281 545.527344 156.71875 550.390625 155.171875 C 570.25 148.855469 585.617188 131.878906 589.886719 111.550781 C 592.65625 98.347656 591 86.777344 584.429688 73.441406 C 573.472656 51.207031 546.773438 38.273438 522.484375 43.433594 C 514.929688 45.039062 503.339844 49.882812 500.15625 52.761719 C 498.5625 54.203125 498.214844 54.207031 496.640625 52.824219 C 495.675781 51.976562 492.886719 50.277344 490.4375 49.042969 C 467.011719 37.257812 441 41.210938 422.90625 59.308594 C 411.195312 71.023438 405.988281 83.585938 406.011719 100.050781 C 406.066406 139.179688 442.460938 166.082031 480.390625 155.027344 Z M 480.390625 155.027344 "/>
<path style=" stroke:none;fill-rule:nonzero;fill:rgb(70.117188%,70.117188%,70.117188%);fill-opacity:1;" d="M 456.855469 153.941406 C 444.007812 152.402344 433.480469 147.03125 424.207031 137.285156 C 413.824219 126.375 409.214844 115.105469 409.164062 100.5 C 409.109375 84.988281 414.539062 71.816406 425.386719 61.132812 C 441.992188 44.78125 467.804688 40.875 488.347656 51.597656 C 496.488281 55.851562 496.351562 55.492188 491.695312 60.261719 C 481.296875 70.917969 476.160156 84.078125 476.160156 100.050781 C 476.160156 115.882812 480.453125 127.230469 490.792969 138.734375 L 495.429688 143.886719 L 492.523438 145.957031 C 483.839844 152.136719 469.179688 155.421875 456.855469 153.941406 Z M 444.390625 110.132812 C 444.390625 109.628906 443.902344 109.054688 443.308594 108.859375 C 442.558594 108.605469 442.605469 107.667969 443.46875 105.773438 C 444.5 103.511719 445.347656 103.050781 448.484375 103.050781 C 451.476562 103.050781 452.398438 103.5 452.945312 105.226562 C 453.410156 106.691406 453.105469 107.785156 452.011719 108.585938 C 451.121094 109.238281 450.390625 110.058594 450.390625 110.410156 C 450.390625 111.46875 459.222656 111.132812 459.890625 110.050781 C 460.230469 109.5 459.855469 109.050781 459.058594 109.050781 C 457.226562 109.050781 456.699219 106.808594 455.832031 95.300781 C 455.34375 88.882812 454.746094 86.050781 453.867188 86.050781 C 453.171875 86.050781 449.78125 90.816406 446.335938 96.644531 C 442.886719 102.46875 439.238281 107.753906 438.226562 108.382812 C 435.34375 110.183594 436.046875 111.050781 440.390625 111.050781 C 442.589844 111.050781 444.390625 110.636719 444.390625 110.132812 Z M 444.390625 110.132812 "/>
<path style=" stroke:none;fill-rule:nonzero;fill:rgb(70.117188%,70.117188%,70.117188%);fill-opacity:1;" d="M 526.855469 153.941406 C 519.421875 153.050781 511.242188 150.246094 505.496094 146.617188 L 501.148438 143.875 L 505.207031 139.710938 C 515.265625 129.402344 520.8125 115.285156 520.789062 100.050781 C 520.769531 84.945312 515.992188 72.246094 506.371094 61.722656 L 501.238281 56.105469 L 506.0625 53.035156 C 513.449219 48.34375 523.410156 45.660156 533.390625 45.675781 C 548.316406 45.699219 561.316406 51.085938 571.835938 61.605469 C 596.117188 85.890625 592.265625 125.390625 563.6875 145.171875 C 553.46875 152.246094 539.8125 155.496094 526.855469 153.941406 Z M 552.992188 111.011719 C 557.976562 109.117188 560.085938 103.703125 556.882812 101.046875 C 555.566406 99.953125 555.691406 99.5 557.882812 97.46875 C 563.652344 92.125 559.664062 88.050781 548.667969 88.050781 C 544.664062 88.050781 541.390625 88.464844 541.390625 88.96875 C 541.390625 89.472656 541.902344 90.054688 542.53125 90.265625 C 543.335938 90.535156 542.984375 93.503906 541.335938 100.347656 C 539.449219 108.167969 538.644531 110.050781 537.191406 110.050781 C 536.199219 110.050781 535.390625 110.5 535.390625 111.050781 C 535.390625 112.382812 549.472656 112.351562 552.992188 111.011719 Z M 552.992188 111.011719 "/>
<path style=" stroke:none;fill-rule:nonzero;fill:rgb(70.117188%,70.117188%,70.117188%);fill-opacity:1;" d="M 546.683594 94.613281 C 547.722656 90.074219 547.839844 89.960938 551.21875 90.25 C 553.167969 90.417969 555.164062 91.3125 555.773438 92.289062 C 557.269531 94.675781 553.929688 97.925781 549.191406 98.695312 L 545.617188 99.277344 Z M 546.683594 94.613281 "/>
<path style=" stroke:none;fill-rule:nonzero;fill:rgb(70.117188%,70.117188%,70.117188%);fill-opacity:1;" d="M 543.394531 108.800781 C 543.398438 108.113281 543.871094 105.863281 544.441406 103.800781 C 545.292969 100.734375 545.945312 100.050781 548.003906 100.050781 C 554.097656 100.050781 556.289062 104.207031 552.199219 108.011719 C 549.761719 110.285156 543.386719 110.855469 543.394531 108.800781 Z M 543.394531 108.800781 "/>
<path style=" stroke:none;fill-rule:nonzero;fill:rgb(70.117188%,70.117188%,70.117188%);fill-opacity:1;" d="M 448.59375 97.121094 C 451.003906 92.929688 452.347656 93.351562 452.375 98.300781 C 452.386719 100.699219 452.003906 101.050781 449.359375 101.050781 L 446.328125 101.050781 Z M 448.59375 97.121094 "/>
<path style=" stroke:none;fill-rule:nonzero;fill:rgb(0%,0%,0%);fill-opacity:1;" d="M 101.890625 247.824219 L 101.6875 248.144531 L 101.496094 248.453125 L 101.296875 248.75 L 101.09375 249.027344 L 100.902344 249.292969 L 100.699219 249.535156 L 100.5 249.769531 L 100.308594 249.992188 L 100.105469 250.207031 L 99.902344 250.398438 L 99.710938 250.578125 L 99.507812 250.75 L 99.308594 250.90625 L 99.117188 251.058594 L 98.914062 251.195312 L 98.710938 251.324219 L 98.511719 251.4375 L 98.308594 251.546875 L 98.105469 251.640625 L 97.90625 251.738281 L 97.703125 251.8125 L 97.488281 251.886719 L 97.289062 251.960938 L 97.074219 252.011719 L 96.875 252.066406 L 96.660156 252.109375 L 96.449219 252.152344 L 96.246094 252.183594 L 95.808594 252.238281 L 95.386719 252.269531 C 94.738281 252.320312 94.269531 252.320312 94.269531 253.332031 C 94.269531 253.648438 94.535156 253.917969 94.949219 253.917969 C 96.375 253.917969 98.019531 253.746094 99.5 253.746094 C 101.242188 253.746094 103.101562 253.917969 104.804688 253.917969 C 105.113281 253.917969 105.8125 253.917969 105.8125 252.90625 C 105.8125 252.320312 105.335938 252.269531 104.960938 252.269531 C 103.738281 252.171875 102.476562 251.738281 102.476562 250.429688 C 102.476562 249.78125 102.792969 249.195312 103.207031 248.472656 L 107.238281 241.679688 L 120.523438 241.679688 L 120.375 240.042969 L 108.238281 240.042969 L 118.6875 222.558594 L 120.375 240.042969 L 120.523438 241.679688 C 120.640625 242.785156 121.375 249.992188 121.375 250.523438 C 121.375 252.121094 118.621094 252.269531 117.570312 252.269531 C 116.824219 252.269531 116.292969 252.269531 116.292969 253.332031 C 116.292969 253.917969 116.921875 253.917969 117.039062 253.917969 C 119.195312 253.917969 121.492188 253.746094 123.648438 253.746094 C 124.980469 253.746094 128.316406 253.917969 129.644531 253.917969 C 129.964844 253.917969 130.589844 253.917969 130.589844 252.851562 C 130.589844 252.269531 130.058594 252.269531 129.378906 252.269531 C 126.09375 252.269531 126.09375 251.90625 125.925781 250.367188 L 122.703125 217.273438 C 122.585938 216.210938 122.585938 216 121.695312 216 C 120.84375 216 120.640625 216.359375 120.3125 216.890625 Z M 101.890625 247.824219 "/>
<path style=" stroke:none;fill-rule:nonzero;fill:rgb(0%,0%,0%);fill-opacity:1;" d="M 176.289062 233.78125 L 176.269531 233.050781 L 176.203125 232.328125 L 176.085938 231.644531 L 175.929688 230.988281 L 175.738281 230.347656 L 175.503906 229.734375 L 175.226562 229.148438 L 174.929688 228.59375 L 174.589844 228.054688 L 174.214844 227.542969 L 173.8125 227.066406 L 173.375 226.597656 L 172.917969 226.160156 L 172.441406 225.757812 L 171.941406 225.363281 L 171.410156 225.003906 L 170.867188 224.664062 L 170.304688 224.34375 L 169.730469 224.046875 L 169.136719 223.78125 L 168.53125 223.523438 L 167.921875 223.300781 L 167.296875 223.101562 L 166.667969 222.917969 L 166.03125 222.761719 L 165.394531 222.621094 L 164.746094 222.503906 L 164.109375 222.410156 L 163.46875 222.335938 L 162.832031 222.28125 L 162.203125 222.25 L 161.578125 222.238281 C 154.679688 222.238281 146.84375 225.949219 146.84375 233.742188 L 146.84375 253.171875 C 146.84375 254.128906 146.84375 255.074219 147.90625 255.074219 C 148.96875 255.074219 148.96875 254.128906 148.96875 253.171875 L 148.96875 234.007812 C 148.96875 226.066406 157.601562 224.363281 161.578125 224.363281 C 163.949219 224.363281 167.296875 224.832031 170.09375 226.640625 C 174.183594 229.234375 174.183594 232.625 174.183594 234.046875 L 174.183594 253.171875 C 174.183594 254.128906 174.183594 255.074219 175.226562 255.074219 C 176.289062 255.074219 176.289062 254.128906 176.289062 253.171875 Z M 176.289062 233.78125 "/>
<path style=" stroke:none;fill-rule:nonzero;fill:rgb(0%,0%,0%);fill-opacity:1;" d="M 199.472656 249.78125 L 199.429688 249.972656 L 199.378906 250.152344 L 199.335938 250.324219 L 199.292969 250.484375 L 199.238281 250.640625 L 199.195312 250.78125 L 199.144531 250.917969 L 199.089844 251.046875 L 198.964844 251.28125 L 198.898438 251.386719 L 198.824219 251.480469 L 198.738281 251.578125 L 198.644531 251.652344 L 198.546875 251.738281 L 198.441406 251.800781 L 198.316406 251.875 L 198.1875 251.929688 L 198.039062 251.980469 L 197.878906 252.035156 L 197.707031 252.078125 L 197.625 252.097656 L 197.527344 252.109375 L 197.421875 252.128906 L 197.324219 252.152344 L 197.210938 252.164062 L 197.101562 252.171875 L 196.984375 252.183594 L 196.867188 252.203125 L 196.742188 252.214844 L 196.613281 252.226562 L 196.476562 252.226562 L 196.335938 252.238281 L 196.199219 252.246094 L 196.050781 252.246094 L 195.890625 252.257812 L 195.730469 252.257812 L 195.570312 252.269531 L 194.65625 252.269531 C 193.765625 252.269531 193.234375 252.269531 193.234375 253.332031 C 193.234375 253.917969 193.710938 253.917969 194.65625 253.917969 L 213.558594 253.917969 C 221.933594 253.917969 228.175781 247.675781 228.175781 242.476562 C 228.175781 238.671875 225.101562 235.601562 219.96875 235.015625 C 225.484375 234.007812 231.054688 230.082031 231.054688 225.046875 C 231.054688 221.132812 227.546875 217.742188 221.179688 217.742188 L 220.457031 219.390625 C 225.101562 219.390625 226.21875 222.503906 226.21875 224.832031 C 226.21875 229.5 221.667969 234.539062 215.207031 234.539062 L 207.476562 234.539062 L 207.167969 235.695312 L 217.160156 235.695312 C 222.242188 235.695312 223.261719 239.617188 223.261719 241.894531 C 223.261719 247.144531 218.542969 252.269531 212.292969 252.269531 L 205.085938 252.269531 C 204.363281 252.269531 204.246094 252.269531 203.925781 252.226562 C 203.394531 252.171875 203.246094 252.121094 203.246094 251.695312 C 203.246094 251.546875 203.246094 251.429688 203.511719 250.484375 L 207.167969 235.695312 L 207.476562 234.539062 L 210.75 221.398438 C 211.230469 219.550781 211.335938 219.390625 213.621094 219.390625 L 220.457031 219.390625 L 221.179688 217.742188 L 203.394531 217.742188 C 202.398438 217.742188 201.863281 217.742188 201.863281 218.804688 C 201.863281 219.390625 202.332031 219.390625 203.34375 219.390625 C 203.449219 219.390625 204.457031 219.390625 205.351562 219.484375 C 206.296875 219.601562 206.785156 219.65625 206.785156 220.335938 C 206.785156 220.546875 206.734375 220.71875 206.5625 221.347656 Z M 199.472656 249.78125 "/>
<path style=" stroke:none;fill-rule:nonzero;fill:rgb(0%,0%,0%);fill-opacity:1;" d="M 449.890625 249.75 L 449.6875 250.066406 L 449.496094 250.375 L 449.296875 250.675781 L 449.09375 250.949219 L 448.902344 251.214844 L 448.699219 251.460938 L 448.5 251.695312 L 448.308594 251.917969 L 448.105469 252.128906 L 447.902344 252.320312 L 447.710938 252.503906 L 447.507812 252.671875 L 447.308594 252.832031 L 447.117188 252.980469 L 446.914062 253.117188 L 446.710938 253.246094 L 446.511719 253.363281 L 446.308594 253.46875 L 446.105469 253.566406 L 445.90625 253.660156 L 445.703125 253.734375 L 445.488281 253.808594 L 445.289062 253.882812 L 445.074219 253.9375 L 444.875 253.992188 L 444.660156 254.03125 L 444.449219 254.074219 L 444.246094 254.109375 L 443.808594 254.160156 L 443.386719 254.191406 C 442.738281 254.246094 442.269531 254.246094 442.269531 255.253906 C 442.269531 255.574219 442.535156 255.839844 442.949219 255.839844 C 444.375 255.839844 446.019531 255.671875 447.5 255.671875 C 449.242188 255.671875 451.101562 255.839844 452.804688 255.839844 C 453.113281 255.839844 453.8125 255.839844 453.8125 254.832031 C 453.8125 254.246094 453.335938 254.191406 452.960938 254.191406 C 451.738281 254.097656 450.476562 253.660156 450.476562 252.351562 C 450.476562 251.707031 450.792969 251.121094 451.207031 250.398438 L 455.238281 243.605469 L 468.523438 243.605469 L 468.375 241.96875 L 456.238281 241.96875 L 466.6875 224.480469 L 468.375 241.96875 L 468.523438 243.605469 C 468.640625 244.710938 469.375 251.917969 469.375 252.449219 C 469.375 254.042969 466.621094 254.191406 465.570312 254.191406 C 464.824219 254.191406 464.292969 254.191406 464.292969 255.253906 C 464.292969 255.839844 464.921875 255.839844 465.039062 255.839844 C 467.195312 255.839844 469.492188 255.671875 471.648438 255.671875 C 472.980469 255.671875 476.316406 255.839844 477.644531 255.839844 C 477.964844 255.839844 478.589844 255.839844 478.589844 254.777344 C 478.589844 254.191406 478.058594 254.191406 477.378906 254.191406 C 474.09375 254.191406 474.09375 253.832031 473.925781 252.289062 L 470.703125 219.199219 C 470.585938 218.136719 470.585938 217.921875 469.695312 217.921875 C 468.84375 217.921875 468.640625 218.285156 468.3125 218.816406 Z M 449.890625 249.75 "/>
<path style=" stroke:none;fill-rule:nonzero;fill:rgb(0%,0%,0%);fill-opacity:1;" d="M 490.828125 219.21875 L 490.847656 219.15625 L 490.878906 219.101562 L 490.902344 219.050781 L 490.921875 218.996094 L 490.945312 218.953125 L 490.964844 218.902344 L 490.984375 218.859375 L 491.007812 218.816406 L 491.019531 218.761719 L 491.039062 218.71875 L 491.050781 218.6875 L 491.058594 218.644531 L 491.070312 218.601562 L 491.082031 218.570312 L 491.09375 218.527344 L 491.101562 218.496094 L 491.125 218.433594 L 491.125 218.402344 L 491.132812 218.371094 L 491.132812 218.335938 L 491.144531 218.304688 L 491.144531 218.253906 L 491.15625 218.1875 L 491.15625 218.039062 C 491.15625 216.890625 490.113281 216 488.964844 216 C 487.550781 216 487.117188 217.15625 486.9375 217.742188 L 482.035156 233.78125 C 482.003906 233.847656 481.855469 234.335938 481.855469 234.378906 C 481.855469 234.8125 483.003906 235.195312 483.300781 235.195312 C 483.566406 235.195312 483.597656 235.113281 483.851562 234.570312 Z M 490.828125 219.21875 "/>
<path style=" stroke:none;fill-rule:nonzero;fill:rgb(0%,0%,0%);fill-opacity:1;" d="M 539.097656 226.078125 L 539.097656 225.726562 L 539.085938 225.542969 L 539.085938 225.460938 L 539.074219 225.375 L 539.074219 225.300781 L 539.066406 225.214844 L 539.054688 225.128906 L 539.042969 225.054688 L 539.023438 224.980469 L 539.011719 224.90625 L 538.992188 224.832031 L 538.957031 224.769531 L 538.9375 224.707031 L 538.90625 224.640625 L 538.875 224.578125 L 538.832031 224.523438 L 538.800781 224.472656 L 538.703125 224.375 L 538.652344 224.332031 L 538.585938 224.289062 L 538.554688 224.28125 L 538.523438 224.257812 L 538.492188 224.246094 L 538.460938 224.238281 L 538.417969 224.226562 L 538.382812 224.207031 L 538.34375 224.207031 L 538.300781 224.195312 L 538.269531 224.183594 L 538.226562 224.171875 L 538.128906 224.171875 L 538.085938 224.164062 L 538.035156 224.164062 C 536.992188 224.164062 536.992188 225.128906 536.992188 226.078125 L 536.992188 245.242188 C 536.992188 253.203125 528.351562 254.894531 524.386719 254.894531 C 521.992188 254.894531 518.644531 254.414062 515.839844 252.597656 C 511.777344 250.015625 511.777344 246.625 511.777344 245.199219 L 511.777344 226.078125 C 511.777344 225.128906 511.777344 224.164062 510.714844 224.164062 C 509.652344 224.164062 509.652344 225.128906 509.652344 226.078125 L 509.652344 245.464844 C 509.652344 253.511719 517.753906 257 524.386719 257 C 531.253906 257 539.097656 253.300781 539.097656 245.507812 Z M 539.097656 226.078125 "/>
<path style=" stroke:none;fill-rule:nonzero;fill:rgb(0%,0%,0%);fill-opacity:1;" d="M 562.28125 251.707031 L 562.226562 251.894531 L 562.183594 252.078125 L 562.132812 252.246094 L 562.046875 252.566406 L 561.992188 252.703125 L 561.941406 252.84375 L 561.886719 252.96875 L 561.835938 253.085938 L 561.769531 253.203125 L 561.695312 253.308594 L 561.621094 253.40625 L 561.535156 253.5 L 561.453125 253.574219 L 561.34375 253.660156 L 561.238281 253.726562 L 561.121094 253.800781 L 560.984375 253.851562 L 560.847656 253.90625 L 560.6875 253.957031 L 560.421875 254.023438 L 560.324219 254.03125 L 560.230469 254.054688 L 560.121094 254.074219 L 559.910156 254.097656 L 559.792969 254.109375 L 559.664062 254.128906 L 559.550781 254.140625 L 559.410156 254.148438 L 559.28125 254.148438 L 559.144531 254.160156 L 558.996094 254.171875 L 558.847656 254.171875 L 558.699219 254.183594 L 558.539062 254.183594 L 558.367188 254.191406 L 557.464844 254.191406 C 556.5625 254.191406 556.03125 254.191406 556.03125 255.253906 C 556.03125 255.839844 556.519531 255.839844 557.464844 255.839844 L 576.367188 255.839844 C 584.730469 255.839844 590.980469 249.601562 590.980469 244.402344 C 590.980469 240.597656 587.910156 237.523438 582.773438 236.941406 C 588.292969 235.929688 593.851562 232.007812 593.851562 226.96875 C 593.851562 223.058594 590.34375 219.667969 583.988281 219.667969 L 583.253906 221.3125 C 587.910156 221.3125 589.015625 224.429688 589.015625 226.757812 C 589.015625 231.421875 584.464844 236.460938 578.011719 236.460938 L 570.285156 236.460938 L 569.964844 237.621094 L 579.96875 237.621094 C 585.050781 237.621094 586.058594 241.542969 586.058594 243.816406 C 586.058594 249.070312 581.339844 254.191406 575.101562 254.191406 L 567.894531 254.191406 C 567.160156 254.191406 567.042969 254.191406 566.722656 254.148438 C 566.191406 254.097656 566.054688 254.042969 566.054688 253.617188 C 566.054688 253.46875 566.054688 253.351562 566.320312 252.40625 L 569.964844 237.621094 L 570.285156 236.460938 L 573.558594 223.324219 C 574.039062 221.472656 574.132812 221.3125 576.429688 221.3125 L 583.253906 221.3125 L 583.988281 219.667969 L 566.191406 219.667969 C 565.203125 219.667969 564.671875 219.667969 564.671875 220.730469 C 564.671875 221.3125 565.128906 221.3125 566.148438 221.3125 C 566.246094 221.3125 567.253906 221.3125 568.160156 221.410156 C 569.105469 221.527344 569.582031 221.578125 569.582031 222.261719 C 569.582031 222.472656 569.539062 222.644531 569.371094 223.269531 Z M 562.28125 251.707031 "/>
<path style=" stroke:none;fill-rule:nonzero;fill:rgb(0%,0%,0%);fill-opacity:1;" d="M 607.414062 219.21875 L 607.4375 219.15625 L 607.46875 219.101562 L 607.488281 219.050781 L 607.511719 218.996094 L 607.53125 218.953125 L 607.554688 218.902344 L 607.574219 218.859375 L 607.597656 218.816406 L 607.605469 218.761719 L 607.628906 218.71875 L 607.636719 218.6875 L 607.660156 218.601562 L 607.671875 218.570312 L 607.679688 218.527344 L 607.703125 218.464844 L 607.703125 218.433594 L 607.714844 218.402344 L 607.722656 218.371094 L 607.722656 218.335938 L 607.734375 218.304688 L 607.734375 218.253906 L 607.746094 218.1875 L 607.746094 218.039062 C 607.746094 216.890625 606.703125 216 605.554688 216 C 604.140625 216 603.714844 217.15625 603.523438 217.742188 L 598.625 233.78125 C 598.59375 233.847656 598.445312 234.335938 598.445312 234.378906 C 598.445312 234.8125 599.589844 235.195312 599.890625 235.195312 C 600.15625 235.195312 600.1875 235.113281 600.441406 234.570312 Z M 607.414062 219.21875 "/>
</g>
</svg>
