<?xml version="1.0" encoding="UTF-8"?>
<svg xmlns="http://www.w3.org/2000/svg" xmlns:xlink="http://www.w3.org/1999/xlink" width="116pt" height="85pt" viewBox="0 0 116 85" version="1.1">
<defs>
<clipPath id="clip1">
  <path d="M 19 0.101562 L 29 0.101562 L 29 7 L 19 7 Z M 19 0.101562 "/>
</clipPath>
<clipPath id="clip2">
  <path d="M 51 0.101562 L 53 0.101562 L 53 7 L 51 7 Z M 51 0.101562 "/>
</clipPath>
</defs>
<g id="surface1">
<g clip-path="url(#clip1)" clip-rule="nonzero">
<path style=" stroke:none;fill-rule:nonzero;fill:rgb(0%,0%,0%);fill-opacity:1;" d="M 20.25 0.84375 C 19.886719 1.566406 19.886719 1.636719 20.367188 2.238281 C 20.921875 2.910156 21.257812 3.605469 21.929688 5.457031 C 22.242188 6.292969 22.503906 6.628906 22.960938 6.726562 C 23.824219 6.941406 25.121094 6.203125 25.816406 5.09375 C 26.511719 4.011719 27.136719 3.917969 27.976562 4.832031 C 28.625 5.527344 28.9375 5.457031 28.671875 4.660156 C 28.578125 4.378906 28.023438 3.917969 27.402344 3.628906 C 26.394531 3.148438 26.25 2.960938 25.792969 1.660156 C 25.480469 0.753906 25.167969 0.203125 24.90625 0.148438 C 24.519531 0.0820312 24.519531 0.128906 24.878906 0.820312 C 25.074219 1.230469 25.265625 1.925781 25.289062 2.335938 C 25.3125 3.082031 25.289062 3.101562 24.351562 3.054688 C 22.71875 2.960938 22.3125 2.789062 22.3125 2.191406 C 22.3125 1.492188 22.746094 1.0625 23.222656 1.253906 C 23.511719 1.347656 23.5625 1.277344 23.441406 0.964844 C 23.34375 0.726562 23.273438 0.4375 23.273438 0.316406 C 23.273438 0.203125 23.03125 0.101562 22.746094 0.101562 C 22.335938 0.101562 22.097656 0.339844 21.785156 1.0625 C 21.570312 1.589844 21.28125 2.023438 21.136719 2.023438 C 20.730469 2.023438 20.824219 1.039062 21.28125 0.535156 C 21.640625 0.128906 21.640625 0.101562 21.160156 0.101562 C 20.824219 0.101562 20.511719 0.367188 20.25 0.84375 Z M 25.023438 4.109375 C 25.382812 4.328125 25.167969 4.878906 24.449219 5.476562 C 23.175781 6.558594 22.3125 6.128906 22.3125 4.421875 L 22.3125 3.652344 L 23.585938 3.820312 C 24.257812 3.917969 24.90625 4.039062 25.023438 4.109375 Z M 25.023438 4.109375 "/>
</g>
<g clip-path="url(#clip2)" clip-rule="nonzero">
<path style=" stroke:none;fill-rule:nonzero;fill:rgb(0%,0%,0%);fill-opacity:1;" d="M 51.207031 0.675781 C 50.96875 1.714844 51.207031 6.292969 51.542969 6.628906 C 51.761719 6.871094 51.832031 6.414062 51.832031 4.398438 C 51.832031 2.960938 51.929688 1.78125 52.097656 1.613281 C 52.410156 1.300781 52.121094 0.101562 51.6875 0.101562 C 51.519531 0.101562 51.304688 0.367188 51.207031 0.675781 Z M 51.207031 0.675781 "/>
</g>
<path style=" stroke:none;fill-rule:nonzero;fill:rgb(0%,0%,0%);fill-opacity:1;" d="M 78.761719 1.445312 C 78.257812 1.804688 78.234375 1.953125 78.257812 5.335938 C 78.28125 9.246094 78.519531 10.855469 78.808594 8.980469 C 78.878906 8.382812 78.976562 7.253906 79.023438 6.484375 C 79.046875 5.527344 79.191406 5.023438 79.410156 4.953125 C 79.601562 4.878906 80.632812 5.789062 81.855469 7.089844 C 83.03125 8.335938 83.992188 9.203125 83.992188 9.054688 C 83.992188 8.789062 83.34375 7.972656 80.65625 4.832031 C 80.320312 4.421875 80.320312 4.347656 80.65625 4.109375 C 81.785156 3.269531 81.617188 1.972656 80.273438 1.421875 C 79.265625 0.988281 79.410156 0.988281 78.761719 1.445312 Z M 80.175781 2.261719 C 80.730469 2.578125 80.753906 2.933594 80.222656 3.507812 C 79.601562 4.179688 79.191406 4.039062 79.191406 3.148438 C 79.191406 2.023438 79.382812 1.855469 80.175781 2.261719 Z M 80.175781 2.261719 "/>
<path style=" stroke:none;fill-rule:nonzero;fill:rgb(0%,0%,0%);fill-opacity:1;" d="M 55.167969 1.832031 C 55 2.140625 54.855469 3.054688 54.855469 3.871094 C 54.832031 5.117188 54.929688 5.457031 55.382812 5.910156 L 55.914062 6.4375 L 56.417969 5.960938 C 57.039062 5.335938 57.089844 3.84375 56.511719 2.667969 C 55.914062 1.398438 55.527344 1.15625 55.167969 1.832031 Z M 56.273438 3.558594 C 56.488281 4.636719 56.34375 5.261719 55.914062 5.261719 C 55.503906 5.261719 55.3125 4.230469 55.527344 3.316406 C 55.746094 2.503906 56.105469 2.621094 56.273438 3.558594 Z M 56.273438 3.558594 "/>
<path style=" stroke:none;fill-rule:nonzero;fill:rgb(0%,0%,0%);fill-opacity:1;" d="M 27.375 9.726562 C 27.402344 10.039062 27.304688 10.566406 27.160156 10.902344 C 27.015625 11.238281 26.5625 12.367188 26.152344 13.445312 C 25.3125 15.675781 22.289062 21.796875 18.472656 29.023438 C 14.585938 36.339844 10.167969 45.203125 9.808594 46.378906 C 9.402344 47.765625 9.738281 48.082031 12.015625 48.367188 C 13.382812 48.558594 22.550781 48.820312 28.074219 48.84375 C 28.410156 48.84375 29.800781 48.726562 31.191406 48.585938 C 34.121094 48.292969 61.839844 48.203125 66.570312 48.464844 C 69.59375 48.628906 69.6875 48.652344 70.3125 49.347656 C 70.9375 50.046875 70.9375 50.046875 71.394531 49.542969 C 71.753906 49.132812 72.113281 49.0625 73.816406 49.0625 C 75.832031 49.0625 88.144531 49.925781 95.871094 50.621094 C 98.128906 50.8125 100.191406 50.980469 100.503906 50.980469 C 101.152344 50.980469 101.199219 50.476562 100.550781 49.902344 C 99.808594 49.230469 97.359375 45.367188 89.367188 32.261719 C 77.898438 13.421875 77.511719 12.753906 77.511719 11.285156 C 77.511719 10.300781 76.960938 9.894531 75.617188 9.871094 C 75.136719 9.871094 65.296875 9.773438 53.753906 9.675781 C 42.207031 9.558594 31.527344 9.414062 30.039062 9.316406 L 27.304688 9.148438 Z M 28.914062 12.964844 C 29.128906 16.210938 28.746094 25.46875 28.074219 34.210938 C 27.808594 37.566406 27.519531 41.980469 27.449219 44.046875 L 27.28125 47.789062 L 25.839844 47.960938 C 23.753906 48.171875 20.5625 48.128906 16.3125 47.863281 C 11.464844 47.527344 10.9375 47.40625 10.839844 46.636719 C 10.71875 45.535156 12.832031 41.046875 20.320312 26.839844 C 24.6875 18.464844 27.832031 11.765625 27.832031 10.714844 C 27.832031 10.347656 27.976562 10.179688 28.289062 10.179688 C 28.695312 10.179688 28.769531 10.445312 28.914062 12.964844 Z M 63.136719 10.398438 C 74.800781 10.636719 74.703125 10.613281 74.824219 12.292969 C 74.898438 13.210938 74.367188 17.457031 71.753906 36.941406 C 71.367188 39.84375 70.886719 43.515625 70.671875 45.082031 C 70.480469 46.660156 70.289062 47.980469 70.242188 48.03125 C 70.191406 48.054688 67.839844 47.980469 65.007812 47.839844 C 61.71875 47.667969 54.375 47.597656 44.511719 47.695312 L 29.128906 47.8125 L 28.601562 46.902344 C 27.90625 45.675781 27.90625 44.238281 28.671875 34.78125 C 29.007812 30.675781 29.394531 23.839844 29.511719 19.542969 C 29.632812 15.246094 29.777344 11.527344 29.871094 11.261719 C 29.96875 10.996094 30.089844 10.636719 30.136719 10.46875 C 30.234375 10.132812 46.550781 10.089844 63.136719 10.398438 Z M 79.144531 16.589844 C 80.703125 19.210938 84.617188 25.660156 87.832031 30.941406 C 96.207031 44.695312 98.703125 48.871094 98.824219 49.347656 C 98.921875 49.734375 98.730469 49.78125 97.410156 49.78125 C 95.222656 49.78125 76.480469 48.558594 72.90625 48.203125 L 71.511719 48.054688 L 71.511719 45.964844 C 71.511719 44.164062 72.160156 38.863281 74.753906 19.179688 C 75.449219 13.878906 75.808594 11.863281 76.097656 11.863281 C 76.191406 11.863281 77.5625 13.996094 79.144531 16.589844 Z M 79.144531 16.589844 "/>
<path style=" stroke:none;fill-rule:nonzero;fill:rgb(0%,0%,0%);fill-opacity:1;" d="M 68.320312 12.753906 C 68.105469 13.109375 67.191406 16.492188 67.191406 16.953125 C 67.191406 17.238281 67.382812 17.382812 67.695312 17.382812 C 68.128906 17.382812 68.175781 17.476562 68.054688 18.269531 C 67.984375 18.773438 67.863281 20.261719 67.792969 21.585938 C 67.71875 22.902344 67.578125 24.269531 67.527344 24.628906 C 67.382812 25.378906 67.769531 25.542969 68.03125 24.894531 C 68.105469 24.652344 68.34375 22.660156 68.5625 20.429688 L 68.945312 16.421875 L 69.472656 16.902344 L 70 17.40625 L 69.6875 15.4375 C 69.472656 14.117188 69.234375 13.300781 68.921875 12.988281 C 68.65625 12.753906 68.394531 12.628906 68.320312 12.753906 Z M 68.320312 12.753906 "/>
<path style=" stroke:none;fill-rule:nonzero;fill:rgb(0%,0%,0%);fill-opacity:1;" d="M 63.113281 27.988281 C 63.136719 28.804688 63.304688 30.316406 63.519531 31.300781 C 63.953125 33.367188 64.191406 40.347656 63.855469 40.878906 C 63.6875 41.164062 63.542969 41.164062 63.28125 40.953125 C 62.320312 40.15625 62.609375 41.742188 63.710938 43.300781 C 64.625 44.597656 65.273438 44.71875 65.585938 43.660156 C 65.703125 43.253906 65.898438 42.753906 66.015625 42.535156 C 66.304688 41.960938 66.28125 41.863281 65.898438 41.863281 C 65.703125 41.863281 65.394531 42.082031 65.175781 42.367188 C 64.863281 42.820312 64.816406 42.367188 64.695312 38.09375 C 64.625 35.476562 64.503906 32.789062 64.410156 32.09375 C 64.289062 30.988281 64.3125 30.820312 64.839844 30.507812 C 65.128906 30.316406 65.632812 30.082031 65.921875 30.003906 C 66.351562 29.863281 66.449219 29.960938 66.59375 30.753906 C 66.878906 32.578125 67.121094 32.335938 67.433594 29.910156 C 67.601562 28.589844 67.648438 27.390625 67.550781 27.246094 C 67.265625 26.765625 66.976562 26.980469 66.519531 28.011719 C 66.207031 28.734375 65.824219 29.140625 65.320312 29.359375 C 64.144531 29.839844 63.855469 29.597656 63.785156 28.039062 C 63.738281 27.203125 63.59375 26.621094 63.425781 26.550781 C 63.183594 26.476562 63.113281 26.863281 63.113281 27.988281 Z M 63.113281 27.988281 "/>
<path style=" stroke:none;fill-rule:nonzero;fill:rgb(0%,0%,0%);fill-opacity:1;" d="M 87.617188 20.429688 C 87.640625 23.335938 87.785156 24.367188 88.191406 24.507812 C 88.335938 24.558594 88.410156 23.476562 88.359375 21.652344 C 88.289062 18.414062 88.191406 17.621094 87.832031 17.621094 C 87.6875 17.621094 87.59375 18.753906 87.617188 20.429688 Z M 87.617188 20.429688 "/>
<path style=" stroke:none;fill-rule:nonzero;fill:rgb(0%,0%,0%);fill-opacity:1;" d="M 90.832031 19.277344 C 89.96875 19.804688 88.984375 20.839844 89.535156 20.621094 C 89.992188 20.457031 90.328125 20.839844 90.6875 22.011719 C 91.167969 23.457031 92.800781 23.429688 93.59375 21.941406 C 94.074219 21.054688 92.753906 18.820312 91.746094 18.820312 C 91.648438 18.820312 91.242188 19.011719 90.832031 19.277344 Z M 92.488281 19.925781 C 93.160156 20.578125 93.234375 21.464844 92.679688 21.988281 C 92.417969 22.277344 92.03125 22.421875 91.816406 22.347656 C 91.382812 22.179688 90.832031 20.457031 91.023438 19.925781 C 91.214844 19.445312 92.007812 19.421875 92.488281 19.925781 Z M 92.488281 19.925781 "/>
<path style=" stroke:none;fill-rule:nonzero;fill:rgb(0%,0%,0%);fill-opacity:1;" d="M 9.6875 21.246094 C 9.878906 23.71875 10.191406 25.589844 10.578125 26.550781 C 11.054688 27.726562 11.222656 27.269531 10.886719 25.714844 C 10.71875 24.894531 10.550781 23.457031 10.550781 22.542969 C 10.550781 20.191406 10.335938 19.0625 9.878906 19.0625 C 9.570312 19.0625 9.542969 19.378906 9.6875 21.246094 Z M 9.6875 21.246094 "/>
<path style=" stroke:none;fill-rule:nonzero;fill:rgb(0%,0%,0%);fill-opacity:1;" d="M 12.90625 20.789062 C 12.496094 21.148438 11.753906 22.210938 11.753906 22.46875 C 11.753906 22.566406 11.898438 22.589844 12.089844 22.515625 C 12.328125 22.421875 12.617188 22.714844 12.929688 23.335938 C 13.191406 23.863281 13.578125 24.339844 13.769531 24.414062 C 14.34375 24.628906 15.351562 23.597656 15.496094 22.660156 C 15.761719 21.082031 14.054688 19.878906 12.90625 20.789062 Z M 14.753906 21.726562 C 14.945312 22.328125 14.441406 23.621094 14.03125 23.621094 C 13.648438 23.621094 13.433594 23.070312 13.433594 22.039062 C 13.433594 21.339844 13.503906 21.222656 14.007812 21.222656 C 14.394531 21.222656 14.65625 21.390625 14.753906 21.726562 Z M 14.753906 21.726562 "/>
<path style=" stroke:none;fill-rule:nonzero;fill:rgb(0%,0%,0%);fill-opacity:1;" d="M 1.023438 48.03125 C 0.808594 48.101562 0.710938 48.675781 0.710938 49.660156 C 0.710938 50.695312 0.59375 51.246094 0.351562 51.464844 C -0.078125 51.820312 -0.128906 52.445312 0.28125 52.347656 C 0.449219 52.328125 0.640625 52.757812 0.761719 53.382812 C 0.855469 53.980469 1 54.628906 1.074219 54.820312 C 1.335938 55.492188 1.671875 54.535156 1.671875 52.996094 L 1.671875 51.558594 L 3.066406 50.597656 C 4.578125 49.542969 4.816406 48.894531 3.832031 48.4375 C 3.113281 48.101562 1.433594 47.863281 1.023438 48.03125 Z M 3.257812 49.109375 C 3.425781 49.378906 2.34375 50.503906 1.886719 50.503906 C 1.769531 50.503906 1.671875 50.117188 1.671875 49.660156 C 1.671875 48.894531 1.71875 48.820312 2.367188 48.820312 C 2.777344 48.820312 3.160156 48.941406 3.257812 49.109375 Z M 3.257812 49.109375 "/>
<path style=" stroke:none;fill-rule:nonzero;fill:rgb(0%,0%,0%);fill-opacity:1;" d="M 105.59375 49.832031 C 103.746094 51.082031 103.695312 52.566406 105.472656 53.429688 C 106.074219 53.71875 106.550781 54.03125 106.550781 54.128906 C 106.550781 54.222656 105.929688 54.4375 105.183594 54.585938 C 104.417969 54.753906 103.625 54.964844 103.433594 55.0625 C 102.066406 55.804688 106.746094 55.230469 108.207031 54.464844 C 109.214844 53.960938 109.144531 53.695312 107.945312 53.382812 C 104.898438 52.613281 104.367188 52.089844 105.519531 50.960938 C 106.023438 50.457031 106.410156 50.238281 106.671875 50.359375 C 107.054688 50.503906 107.054688 50.550781 106.695312 51.101562 C 106.359375 51.605469 106.359375 51.707031 106.648438 51.707031 C 107.273438 51.707031 107.777344 50.960938 107.703125 50.164062 C 107.609375 49.179688 106.746094 49.0625 105.59375 49.832031 Z M 105.59375 49.832031 "/>
<path style=" stroke:none;fill-rule:nonzero;fill:rgb(0%,0%,0%);fill-opacity:1;" d="M 46.601562 50.789062 C 46.265625 51.128906 46.214844 56.070312 46.527344 56.863281 C 46.695312 57.292969 46.71875 57.269531 46.863281 56.742188 C 47.03125 55.996094 47.152344 50.789062 47.007812 50.621094 C 46.9375 50.578125 46.746094 50.644531 46.601562 50.789062 Z M 46.601562 50.789062 "/>
<path style=" stroke:none;fill-rule:nonzero;fill:rgb(0%,0%,0%);fill-opacity:1;" d="M 19.792969 51.84375 C 19.578125 52.179688 19.433594 52.210938 19.023438 51.964844 C 18.304688 51.605469 17.753906 51.628906 17.753906 52.0625 C 17.753906 52.253906 17.847656 52.421875 17.992188 52.421875 C 18.113281 52.421875 18.402344 52.6875 18.617188 53.046875 C 19 53.597656 19 53.765625 18.640625 55.253906 C 17.730469 59.164062 17.945312 59.644531 19.097656 56.191406 C 19.433594 55.179688 19.792969 54.339844 19.914062 54.339844 C 20.007812 54.339844 20.535156 54.84375 21.066406 55.46875 C 22.097656 56.695312 22.769531 56.742188 21.855469 55.542969 C 20.082031 53.117188 19.914062 52.660156 20.921875 52.660156 C 21.375 52.660156 21.375 52.613281 21.066406 52.109375 C 20.609375 51.4375 20.105469 51.339844 19.792969 51.84375 Z M 19.792969 51.84375 "/>
<path style=" stroke:none;fill-rule:nonzero;fill:rgb(0%,0%,0%);fill-opacity:1;" d="M 49.914062 52.636719 C 49.289062 53.8125 49.914062 56.457031 50.945312 57.082031 C 51.304688 57.292969 51.496094 57.222656 51.976562 56.667969 C 52.863281 55.636719 52.746094 54.628906 51.570312 53.285156 C 50.488281 52.0625 50.273438 51.964844 49.914062 52.636719 Z M 51.472656 54.203125 C 51.953125 54.917969 51.855469 56.117188 51.328125 56.214844 C 50.921875 56.285156 50.394531 55.347656 50.394531 54.484375 C 50.394531 53.476562 50.921875 53.335938 51.472656 54.203125 Z M 51.472656 54.203125 "/>
<path style=" stroke:none;fill-rule:nonzero;fill:rgb(0%,0%,0%);fill-opacity:1;" d="M 85.914062 52.78125 C 85.625 53.503906 85.578125 53.503906 84.570312 52.878906 C 83.296875 52.109375 83.007812 52.46875 84.113281 53.476562 L 85.046875 54.339844 L 84.761719 55.378906 C 84.59375 55.925781 84.402344 56.597656 84.304688 56.863281 C 84.234375 57.128906 84.519531 56.886719 84.953125 56.308594 C 85.359375 55.757812 85.746094 55.300781 85.769531 55.300781 C 85.816406 55.300781 86.25 55.636719 86.753906 56.023438 C 87.257812 56.429688 87.710938 56.695312 87.761719 56.644531 C 87.808594 56.597656 87.519531 56.046875 87.136719 55.398438 C 86.394531 54.269531 86.199219 53.621094 86.585938 53.621094 C 86.679688 53.621094 86.898438 53.742188 87.066406 53.910156 C 87.425781 54.269531 87.449219 53.933594 87.089844 52.925781 C 86.777344 52.039062 86.222656 51.964844 85.914062 52.78125 Z M 85.914062 52.78125 "/>
<path style=" stroke:none;fill-rule:nonzero;fill:rgb(0%,0%,0%);fill-opacity:1;" d="M 101.632812 63.003906 C 100.984375 63.128906 97.746094 63.484375 94.433594 63.796875 C 88.433594 64.378906 88.433594 64.378906 88.046875 63.894531 C 87.328125 62.980469 87.015625 63.894531 85.3125 71.742188 C 84.710938 74.503906 84.113281 77.191406 83.96875 77.71875 L 83.703125 78.628906 L 82.9375 77.886719 C 82.121094 77.09375 81.183594 76.902344 80.96875 77.5 C 80.730469 78.082031 81.519531 79.0625 82.191406 79.0625 C 82.601562 79.0625 82.886719 79.277344 83.152344 79.78125 C 83.945312 81.316406 84.183594 80.8125 85.191406 75.339844 C 85.984375 71.070312 86.800781 66.988281 87.015625 66.269531 C 87.089844 66.054688 87.449219 65.695312 87.808594 65.527344 C 88.578125 65.117188 98.945312 63.941406 101.632812 63.941406 C 103.960938 63.941406 105.519531 63.269531 104.105469 62.886719 C 103.457031 62.71875 103.191406 62.742188 101.632812 63.003906 Z M 101.632812 63.003906 "/>
<path style=" stroke:none;fill-rule:nonzero;fill:rgb(0%,0%,0%);fill-opacity:1;" d="M 3.976562 66.269531 C 3.542969 67.109375 2.441406 72.628906 2.25 74.863281 C 2.082031 76.6875 2.273438 76.757812 3.066406 75.199219 C 3.640625 74.046875 4.144531 74.140625 4.480469 75.507812 C 4.816406 76.902344 5.007812 77.261719 5.296875 76.972656 C 5.441406 76.832031 5.417969 76.253906 5.25 75.484375 C 5.105469 74.789062 5.082031 74.140625 5.175781 74.023438 C 5.535156 73.714844 7.144531 73.515625 7.3125 73.78125 C 7.550781 74.164062 7.863281 74.070312 7.960938 73.589844 C 8.03125 73.300781 8.320312 73.589844 8.945312 74.578125 C 9.449219 75.339844 9.929688 75.894531 10.046875 75.820312 C 10.167969 75.75 10.335938 75.148438 10.433594 74.503906 C 10.601562 73.253906 11.03125 72.585938 11.679688 72.585938 C 11.992188 72.585938 11.992188 72.507812 11.753906 72.222656 C 11.222656 71.597656 10.648438 71.8125 10.191406 72.820312 C 9.953125 73.347656 9.664062 73.78125 9.570312 73.78125 C 9.449219 73.78125 9.207031 73.46875 8.992188 73.089844 C 8.464844 72.03125 7.191406 71.789062 7.191406 72.726562 C 7.191406 72.964844 6.90625 73.0625 6.113281 73.0625 C 5.082031 73.0625 5.054688 73.039062 4.914062 72.148438 C 4.839844 71.667969 4.671875 70.804688 4.527344 70.253906 C 4.242188 68.910156 4.242188 67.230469 4.550781 67.421875 C 4.695312 67.515625 4.792969 67.179688 4.792969 66.605469 C 4.792969 65.476562 4.480469 65.335938 3.976562 66.269531 Z M 4.074219 72.222656 C 4.074219 72.820312 3.976562 73.300781 3.832031 73.300781 C 3.710938 73.300781 3.59375 72.820312 3.59375 72.222656 C 3.59375 71.621094 3.710938 71.140625 3.832031 71.140625 C 3.976562 71.140625 4.074219 71.621094 4.074219 72.222656 Z M 4.074219 72.222656 "/>
<path style=" stroke:none;fill-rule:nonzero;fill:rgb(0%,0%,0%);fill-opacity:1;" d="M 112.433594 67.398438 C 112.121094 67.855469 112.097656 68.09375 112.3125 68.503906 C 112.625 69.082031 113.03125 68.933594 113.03125 68.238281 C 113.03125 67.996094 113.152344 67.78125 113.273438 67.78125 C 113.847656 67.78125 113.394531 68.8125 112.144531 70.328125 C 111.472656 71.164062 111.402344 71.359375 111.738281 71.476562 C 112.3125 71.695312 115.265625 71.644531 115.648438 71.40625 C 116.082031 71.140625 115.769531 70.972656 114.425781 70.78125 C 113.777344 70.6875 113.273438 70.589844 113.273438 70.566406 C 113.273438 70.542969 113.488281 70.109375 113.753906 69.585938 C 114.015625 69.054688 114.234375 68.359375 114.234375 68.023438 C 114.234375 66.796875 113.082031 66.390625 112.433594 67.398438 Z M 112.433594 67.398438 "/>
<path style=" stroke:none;fill-rule:nonzero;fill:rgb(0%,0%,0%);fill-opacity:1;" d="M 36.710938 67.855469 C 36.710938 68.023438 36.953125 68.8125 37.242188 69.585938 C 38.609375 73.398438 37.671875 80.167969 35.394531 82.832031 C 34.242188 84.171875 34.335938 84.417969 35.535156 83.261719 C 36.785156 82.042969 37.265625 81.082031 37.9375 78.558594 C 38.921875 74.742188 38.824219 71.457031 37.648438 68.71875 C 37.167969 67.589844 36.710938 67.179688 36.710938 67.855469 Z M 36.710938 67.855469 "/>
<path style=" stroke:none;fill-rule:nonzero;fill:rgb(0%,0%,0%);fill-opacity:1;" d="M 75.832031 68.023438 C 75.832031 68.191406 76.097656 68.621094 76.433594 69.03125 C 77.34375 70.109375 77.632812 71.457031 77.609375 74.503906 C 77.585938 77.644531 77.152344 79.277344 75.710938 81.339844 C 73.984375 83.835938 74.007812 83.792969 74.96875 82.902344 C 76.289062 81.675781 77.175781 80.308594 77.777344 78.558594 C 78.738281 75.726562 78.425781 70.515625 77.175781 68.667969 C 76.648438 67.902344 75.832031 67.515625 75.832031 68.023438 Z M 75.832031 68.023438 "/>
<path style=" stroke:none;fill-rule:nonzero;fill:rgb(0%,0%,0%);fill-opacity:1;" d="M 51.351562 68.621094 C 50.898438 69.101562 50.777344 69.605469 50.585938 71.550781 C 50.054688 76.902344 51.089844 80.167969 53.730469 81.558594 C 55.625 82.542969 56.296875 82.347656 54.570312 81.316406 C 53.800781 80.863281 52.914062 80.238281 52.625 79.972656 C 51.738281 79.132812 51.304688 77.5 51.183594 74.503906 C 51.039062 70.378906 51.738281 68.359375 53.03125 69.171875 C 53.585938 69.507812 53.65625 69.246094 53.273438 68.476562 C 52.914062 67.855469 52.023438 67.902344 51.351562 68.621094 Z M 51.351562 68.621094 "/>
<path style=" stroke:none;fill-rule:nonzero;fill:rgb(0%,0%,0%);fill-opacity:1;" d="M 55.097656 69.269531 C 54.761719 72.726562 54.710938 75.75 55 76.734375 L 55.289062 77.742188 L 55.457031 75.941406 C 55.695312 73.109375 55.695312 68.023438 55.457031 68.023438 C 55.335938 68.023438 55.167969 68.597656 55.097656 69.269531 Z M 55.097656 69.269531 "/>
<path style=" stroke:none;fill-rule:nonzero;fill:rgb(0%,0%,0%);fill-opacity:1;" d="M 26.871094 69.507812 C 26.488281 70.378906 26.296875 71.40625 26.222656 73.039062 C 26.082031 75.582031 26.367188 77.117188 27.136719 77.886719 C 27.617188 78.367188 28.550781 78.507812 28.550781 78.101562 C 28.550781 77.957031 28.410156 77.863281 28.214844 77.863281 C 28.023438 77.863281 27.640625 77.574219 27.375 77.238281 C 26.945312 76.710938 26.871094 76.253906 26.871094 74.527344 C 26.871094 72.390625 27.328125 69.871094 27.808594 69.390625 C 28 69.203125 28.074219 69.269531 28.074219 69.652344 C 28.074219 69.941406 28.191406 70.179688 28.335938 70.179688 C 28.527344 70.179688 28.550781 69.917969 28.457031 69.4375 C 28.382812 69.03125 28.3125 68.597656 28.3125 68.476562 C 28.3125 68.359375 28.121094 68.261719 27.855469 68.261719 C 27.542969 68.261719 27.257812 68.644531 26.871094 69.507812 Z M 26.871094 69.507812 "/>
<path style=" stroke:none;fill-rule:nonzero;fill:rgb(0%,0%,0%);fill-opacity:1;" d="M 31.578125 69.894531 C 31.242188 70.566406 30.878906 72.316406 30.59375 74.910156 C 30.449219 76.324219 30.785156 76.78125 31.433594 75.988281 C 31.839844 75.484375 31.839844 75.507812 32.128906 76.445312 C 32.5625 77.863281 32.898438 77.597656 32.824219 75.894531 L 32.753906 74.382812 L 33.832031 74.070312 C 35.871094 73.46875 35.96875 73.300781 34.265625 73.378906 L 32.65625 73.445312 L 32.585938 71.40625 C 32.511719 69.203125 32.175781 68.71875 31.578125 69.894531 Z M 31.578125 69.894531 "/>
<path style=" stroke:none;fill-rule:nonzero;fill:rgb(0%,0%,0%);fill-opacity:1;" d="M 58.359375 70.347656 C 58.144531 70.878906 58.167969 74.863281 58.382812 75.75 C 58.746094 77.167969 60.28125 77.191406 60.878906 75.773438 C 61.503906 74.238281 60.738281 71.597656 59.367188 70.542969 C 58.601562 69.964844 58.527344 69.941406 58.359375 70.347656 Z M 60.089844 72.585938 C 60.59375 73.878906 60.570312 74.8125 60.015625 75.484375 C 59.320312 76.347656 58.984375 75.820312 58.984375 73.832031 C 58.984375 71.382812 59.417969 70.902344 60.089844 72.585938 Z M 60.089844 72.585938 "/>
<path style=" stroke:none;fill-rule:nonzero;fill:rgb(0%,0%,0%);fill-opacity:1;" d="M 90.375 71.070312 C 90.183594 72.339844 90.234375 76.445312 90.472656 77.023438 C 90.617188 77.429688 90.664062 77.382812 90.785156 76.664062 C 90.855469 76.207031 90.976562 74.550781 91.046875 72.988281 C 91.144531 70.757812 91.121094 70.179688 90.855469 70.179688 C 90.664062 70.179688 90.472656 70.566406 90.375 71.070312 Z M 90.375 71.070312 "/>
<path style=" stroke:none;fill-rule:nonzero;fill:rgb(0%,0%,0%);fill-opacity:1;" d="M 109.144531 71.023438 C 108.664062 71.839844 108.640625 71.863281 108.089844 71.503906 C 107.777344 71.308594 107.417969 71.140625 107.273438 71.140625 C 106.792969 71.140625 107.03125 72.101562 107.632812 72.484375 C 108.425781 72.988281 108.402344 73.378906 107.394531 75.707031 C 106.9375 76.78125 106.550781 77.792969 106.550781 77.914062 C 106.550781 78.539062 107.535156 77.214844 108.136719 75.796875 C 108.496094 74.960938 108.855469 74.261719 108.976562 74.261719 C 109.074219 74.261719 109.382812 74.644531 109.671875 75.101562 C 109.960938 75.558594 110.34375 75.941406 110.535156 75.941406 C 110.992188 75.941406 110.96875 75.84375 110.296875 74.789062 C 109.382812 73.421875 109.3125 72.726562 109.886719 71.765625 C 110.367188 70.996094 110.367188 70.179688 109.886719 70.179688 C 109.746094 70.179688 109.433594 70.566406 109.144531 71.023438 Z M 109.144531 71.023438 "/>
<path style=" stroke:none;fill-rule:nonzero;fill:rgb(0%,0%,0%);fill-opacity:1;" d="M 95.03125 71.238281 C 95.03125 71.429688 95.152344 71.667969 95.273438 71.742188 C 96.039062 72.222656 95.105469 75.339844 94.191406 75.339844 C 93.785156 75.339844 93.710938 75.148438 93.640625 73.902344 C 93.617188 73.109375 93.519531 72.203125 93.449219 71.886719 C 93.234375 70.902344 92.871094 71.789062 92.871094 73.378906 C 92.871094 75.125 93.375 76.421875 94.074219 76.421875 C 94.792969 76.421875 95.992188 75.148438 95.992188 74.382812 C 95.992188 74.023438 96.089844 73.804688 96.234375 73.902344 C 96.375 73.972656 96.472656 74.335938 96.472656 74.695312 C 96.496094 76.492188 97.289062 76.949219 98.5625 75.84375 C 99.160156 75.316406 99.234375 75.125 99.234375 73.714844 C 99.234375 71.503906 98.34375 70.636719 96.929688 71.40625 C 96.542969 71.597656 96.328125 71.578125 96.015625 71.285156 C 95.488281 70.804688 95.03125 70.78125 95.03125 71.238281 Z M 98.34375 72.148438 C 98.800781 72.605469 98.703125 74.382812 98.152344 75.003906 C 97.746094 75.484375 97.648438 75.539062 97.457031 75.222656 C 97.144531 74.765625 96.855469 72.464844 97.074219 72.128906 C 97.265625 71.765625 97.984375 71.789062 98.34375 72.148438 Z M 98.34375 72.148438 "/>
<path style=" stroke:none;fill-rule:nonzero;fill:rgb(0%,0%,0%);fill-opacity:1;" d="M 65.054688 72.128906 C 65.199219 72.675781 65.25 73.15625 65.199219 73.210938 C 65.152344 73.253906 64.550781 73.378906 63.832031 73.46875 C 62.535156 73.660156 62.25 73.902344 62.609375 74.457031 C 62.777344 74.742188 62.945312 74.71875 63.570312 74.382812 C 64 74.164062 64.578125 74.023438 64.863281 74.070312 C 65.394531 74.140625 65.464844 74.335938 65.921875 76.636719 C 66.089844 77.574219 66.472656 76.757812 66.472656 75.390625 C 66.472656 74.578125 66.570312 74.261719 66.808594 74.261719 C 67.457031 74.261719 67.480469 73.78125 66.855469 73.515625 C 66.472656 73.328125 66.089844 72.84375 65.847656 72.203125 C 65.320312 70.804688 64.769531 70.757812 65.054688 72.128906 Z M 65.054688 72.128906 "/>
<path style=" stroke:none;fill-rule:nonzero;fill:rgb(0%,0%,0%);fill-opacity:1;" d="M 14.082031 72.003906 C 13.792969 72.367188 13.265625 72.964844 12.90625 73.347656 C 12.136719 74.164062 12.066406 74.503906 12.617188 74.503906 C 12.832031 74.503906 13.3125 74.765625 13.71875 75.101562 C 14.34375 75.628906 14.65625 75.707031 16.214844 75.707031 C 17.511719 75.707031 18.257812 75.582031 18.929688 75.25 L 19.839844 74.765625 L 20.511719 75.484375 C 21.351562 76.347656 22.097656 76.46875 21.496094 75.628906 C 20.921875 74.863281 20.703125 74.308594 20.273438 72.753906 C 19.9375 71.597656 19.792969 71.382812 19.3125 71.382812 C 18.6875 71.382812 17.511719 72.585938 16.792969 74.023438 C 16.359375 74.863281 16.191406 74.980469 15.496094 74.980469 C 14.367188 74.980469 13.960938 74.429688 14.441406 73.589844 C 15.351562 71.980469 15.089844 70.78125 14.082031 72.003906 Z M 19.433594 72.652344 C 19.433594 73.109375 18.089844 74.335938 17.730469 74.214844 C 17.5625 74.164062 17.730469 73.804688 18.234375 73.230469 C 19.023438 72.316406 19.433594 72.128906 19.433594 72.652344 Z M 19.433594 72.652344 "/>
<path style=" stroke:none;fill-rule:nonzero;fill:rgb(0%,0%,0%);fill-opacity:1;" d="M 69.351562 71.621094 C 69.351562 71.742188 69.6875 72.222656 70.074219 72.652344 C 70.886719 73.589844 70.9375 73.972656 70.433594 75.339844 C 69.738281 77.261719 70.167969 77.527344 71.03125 75.707031 C 71.34375 75.03125 71.679688 74.503906 71.777344 74.503906 C 71.847656 74.503906 72.234375 74.886719 72.570312 75.339844 C 72.929688 75.796875 73.3125 76.179688 73.457031 76.179688 C 73.863281 76.179688 73.671875 75.582031 72.929688 74.621094 C 72.542969 74.09375 72.328125 73.636719 72.472656 73.589844 C 72.808594 73.46875 72.785156 72.917969 72.351562 72.101562 C 71.921875 71.261719 71.609375 71.191406 71.394531 71.863281 L 71.25 72.339844 L 70.550781 71.863281 C 69.832031 71.335938 69.351562 71.238281 69.351562 71.621094 Z M 69.351562 71.621094 "/>
<path style=" stroke:none;fill-rule:nonzero;fill:rgb(0%,0%,0%);fill-opacity:1;" d="M 43.601562 73.230469 C 42.785156 73.445312 43.335938 73.902344 44.511719 73.972656 C 45.878906 74.070312 46.960938 73.855469 46.648438 73.542969 C 46.382812 73.277344 44.199219 73.039062 43.601562 73.230469 Z M 43.601562 73.230469 "/>
<path style=" stroke:none;fill-rule:nonzero;fill:rgb(0%,0%,0%);fill-opacity:1;" d="M 101.296875 73.277344 C 100.648438 73.6875 101.296875 73.953125 103.3125 74.117188 C 105.761719 74.308594 106.792969 73.996094 104.96875 73.589844 C 103.046875 73.15625 101.65625 73.039062 101.296875 73.277344 Z M 101.296875 73.277344 "/>
<path style=" stroke:none;fill-rule:nonzero;fill:rgb(0%,0%,0%);fill-opacity:1;" d="M 44.054688 75.199219 C 43.648438 75.269531 43.382812 75.4375 43.457031 75.582031 C 43.550781 75.84375 46.289062 75.820312 47.273438 75.558594 C 47.824219 75.390625 47.800781 75.367188 46.914062 75.199219 C 45.808594 74.980469 45.039062 74.980469 44.054688 75.199219 Z M 44.054688 75.199219 "/>
</g>
</svg>
