<?xml version="1.0" encoding="UTF-8"?>
<svg xmlns="http://www.w3.org/2000/svg" xmlns:xlink="http://www.w3.org/1999/xlink" width="510pt" height="407pt" viewBox="0 0 510 407" version="1.1">
<defs>
<clipPath id="clip1">
  <path d="M 0 0.0742188 L 424 0.0742188 L 424 406.074219 L 0 406.074219 Z M 0 0.0742188 "/>
</clipPath>
<clipPath id="clip2">
  <path d="M 175 0.0742188 L 195 0.0742188 L 195 28 L 175 28 Z M 175 0.0742188 "/>
</clipPath>
</defs>
<g id="surface1">
<g clip-path="url(#clip1)" clip-rule="nonzero">
<path style="fill:none;stroke-width:24;stroke-linecap:round;stroke-linejoin:round;stroke:rgb(0%,0%,0%);stroke-opacity:1;stroke-dasharray:48,24;stroke-miterlimit:4;" d="M 11.953125 828.867188 L 4221.40625 828.867188 M 2116.679688 21.757812 L 2116.679688 4057.421875 M 11.953125 3250.273438 C 26.132812 3217.65625 40.3125 3185.390625 54.492188 3153.4375 C 68.671875 3121.484375 82.851562 3089.84375 97.03125 3058.554688 C 111.171875 3027.265625 125.351562 2996.328125 139.53125 2965.664062 C 153.710938 2935.039062 167.890625 2904.726562 182.070312 2874.765625 C 196.210938 2844.765625 210.390625 2815.117188 224.570312 2785.820312 C 238.75 2756.484375 252.929688 2727.5 267.109375 2698.867188 C 281.25 2670.195312 295.429688 2641.875 309.609375 2613.867188 C 323.789062 2585.859375 337.96875 2558.203125 352.148438 2530.859375 C 366.289062 2503.515625 380.46875 2476.484375 394.648438 2449.804688 C 408.828125 2423.125 423.007812 2396.796875 437.1875 2370.78125 C 451.328125 2344.726562 465.507812 2319.0625 479.6875 2293.671875 C 493.867188 2268.320312 508.046875 2243.28125 522.226562 2218.59375 C 536.367188 2193.867188 550.546875 2169.492188 564.726562 2145.429688 C 578.90625 2121.40625 593.085938 2097.695312 607.265625 2074.296875 C 621.40625 2050.898438 635.585938 2027.851562 649.765625 2005.117188 C 663.945312 1982.382812 678.125 1960 692.304688 1937.929688 C 706.445312 1915.859375 720.625 1894.101562 734.804688 1872.695312 C 748.984375 1851.289062 763.164062 1830.195312 777.34375 1809.453125 C 791.484375 1788.710938 805.664062 1768.28125 819.84375 1748.164062 C 834.023438 1728.085938 848.203125 1708.320312 862.382812 1688.90625 C 876.523438 1669.453125 890.703125 1650.351562 904.882812 1631.5625 C 919.0625 1612.8125 933.242188 1594.335938 947.421875 1576.210938 C 961.5625 1558.125 975.742188 1540.3125 989.921875 1522.851562 C 1004.101562 1505.390625 1018.28125 1488.28125 1032.460938 1471.484375 C 1046.601562 1454.6875 1060.78125 1438.203125 1074.960938 1422.070312 C 1089.140625 1405.9375 1103.320312 1390.117188 1117.5 1374.648438 C 1131.640625 1359.140625 1145.820312 1343.984375 1160 1329.179688 C 1174.179688 1314.335938 1188.359375 1299.84375 1202.539062 1285.703125 C 1216.679688 1271.523438 1230.859375 1257.695312 1245.039062 1244.179688 C 1259.21875 1230.664062 1273.398438 1217.5 1287.578125 1204.648438 C 1301.71875 1191.796875 1315.898438 1179.296875 1330.078125 1167.109375 C 1344.257812 1154.921875 1358.4375 1143.046875 1372.617188 1131.523438 C 1386.757812 1120 1400.9375 1108.789062 1415.117188 1097.929688 C 1429.296875 1087.070312 1443.476562 1076.523438 1457.65625 1066.289062 C 1471.796875 1056.09375 1485.976562 1046.210938 1500.15625 1036.640625 C 1514.335938 1027.109375 1528.515625 1017.890625 1542.695312 1008.984375 C 1556.835938 1000.078125 1571.015625 991.523438 1585.195312 983.28125 C 1599.375 975.078125 1613.554688 967.148438 1627.734375 959.570312 C 1641.875 951.992188 1656.054688 944.765625 1670.234375 937.851562 C 1684.414062 930.9375 1698.59375 924.335938 1712.773438 918.085938 C 1726.914062 911.796875 1741.09375 905.898438 1755.273438 900.273438 C 1769.453125 894.6875 1783.632812 889.414062 1797.8125 884.492188 C 1811.953125 879.53125 1826.132812 874.921875 1840.3125 870.625 C 1854.492188 866.367188 1868.671875 862.421875 1882.851562 858.789062 C 1897.03125 855.15625 1911.171875 851.875 1925.351562 848.90625 C 1939.53125 845.9375 1953.710938 843.28125 1967.890625 840.976562 C 1982.070312 838.671875 1996.210938 836.71875 2010.390625 835.078125 C 2024.570312 833.398438 2038.75 832.109375 2052.929688 831.09375 C 2067.109375 830.117188 2081.25 829.453125 2095.429688 829.140625 C 2109.609375 828.789062 2123.789062 828.789062 2137.96875 829.140625 C 2152.148438 829.453125 2166.289062 830.117188 2180.46875 831.09375 C 2194.648438 832.109375 2208.828125 833.398438 2223.007812 835.078125 C 2237.1875 836.71875 2251.328125 838.671875 2265.507812 840.976562 C 2279.6875 843.28125 2293.867188 845.9375 2308.046875 848.90625 C 2322.226562 851.875 2336.367188 855.15625 2350.546875 858.789062 C 2364.726562 862.382812 2378.90625 866.367188 2393.085938 870.625 C 2407.265625 874.921875 2421.40625 879.53125 2435.585938 884.492188 C 2449.765625 889.414062 2463.945312 894.6875 2478.125 900.273438 C 2492.304688 905.898438 2506.445312 911.796875 2520.625 918.085938 C 2534.804688 924.335938 2548.984375 930.9375 2563.164062 937.851562 C 2577.34375 944.765625 2591.484375 951.992188 2605.664062 959.570312 C 2619.84375 967.148438 2634.023438 975.078125 2648.203125 983.28125 C 2662.382812 991.523438 2676.523438 1000.078125 2690.703125 1008.984375 C 2704.882812 1017.890625 2719.0625 1027.109375 2733.242188 1036.640625 C 2747.421875 1046.210938 2761.5625 1056.09375 2775.742188 1066.289062 C 2789.921875 1076.523438 2804.101562 1087.070312 2818.28125 1097.929688 C 2832.460938 1108.789062 2846.601562 1120 2860.78125 1131.523438 C 2874.960938 1143.046875 2889.140625 1154.921875 2903.320312 1167.109375 C 2917.5 1179.296875 2931.640625 1191.796875 2945.820312 1204.648438 C 2960 1217.5 2974.179688 1230.664062 2988.359375 1244.179688 C 3002.539062 1257.695312 3016.679688 1271.523438 3030.859375 1285.703125 C 3045.039062 1299.84375 3059.21875 1314.335938 3073.398438 1329.179688 C 3087.578125 1343.984375 3101.71875 1359.140625 3115.898438 1374.648438 C 3130.078125 1390.117188 3144.257812 1405.9375 3158.4375 1422.070312 C 3172.617188 1438.203125 3186.757812 1454.6875 3200.9375 1471.484375 C 3215.117188 1488.28125 3229.296875 1505.390625 3243.476562 1522.851562 C 3257.65625 1540.3125 3271.796875 1558.125 3285.976562 1576.210938 C 3300.15625 1594.335938 3314.335938 1612.8125 3328.515625 1631.5625 C 3342.695312 1650.351562 3356.835938 1669.453125 3371.015625 1688.90625 C 3385.195312 1708.320312 3399.375 1728.085938 3413.554688 1748.164062 C 3427.734375 1768.28125 3441.875 1788.710938 3456.054688 1809.453125 C 3470.234375 1830.195312 3484.414062 1851.289062 3498.59375 1872.695312 C 3512.773438 1894.101562 3526.914062 1915.859375 3541.09375 1937.929688 C 3555.273438 1960 3569.453125 1982.382812 3583.632812 2005.117188 C 3597.8125 2027.851562 3611.953125 2050.898438 3626.132812 2074.296875 C 3640.3125 2097.695312 3654.492188 2121.40625 3668.671875 2145.429688 C 3682.851562 2169.492188 3697.03125 2193.867188 3711.171875 2218.59375 C 3725.351562 2243.28125 3739.53125 2268.320312 3753.710938 2293.671875 C 3767.890625 2319.0625 3782.070312 2344.726562 3796.210938 2370.78125 C 3810.390625 2396.796875 3824.570312 2423.125 3838.75 2449.804688 C 3852.929688 2476.484375 3867.109375 2503.515625 3881.25 2530.859375 C 3895.429688 2558.203125 3909.609375 2585.859375 3923.789062 2613.867188 C 3937.96875 2641.875 3952.148438 2670.195312 3966.289062 2698.867188 C 3980.46875 2727.5 3994.648438 2756.484375 4008.828125 2785.820312 C 4023.007812 2815.117188 4037.1875 2844.765625 4051.328125 2874.765625 C 4065.507812 2904.726562 4079.6875 2935.039062 4093.867188 2965.664062 C 4108.046875 2996.328125 4122.226562 3027.265625 4136.367188 3058.554688 C 4150.546875 3089.84375 4164.726562 3121.484375 4178.90625 3153.4375 C 4193.085938 3185.390625 4207.265625 3217.65625 4221.40625 3250.273438 " transform="matrix(0.1,0,0,-0.1,0,407)"/>
</g>
<path style="fill:none;stroke-width:32;stroke-linecap:butt;stroke-linejoin:round;stroke:rgb(93.359375%,49.021912%,12.547302%);stroke-opacity:1;stroke-miterlimit:4;" d="M 2136.015625 504.492188 L 4704.140625 2667.148438 " transform="matrix(0.1,0,0,-0.1,0,407)"/>
<path style="fill-rule:nonzero;fill:rgb(0%,0%,100%);fill-opacity:1;stroke-width:32;stroke-linecap:butt;stroke-linejoin:round;stroke:rgb(66.992188%,64.646912%,88.28125%);stroke-opacity:1;stroke-dasharray:64,32;stroke-miterlimit:4;" d="M 3686.328125 179.492188 L 1686.328125 2876.25 " transform="matrix(0.1,0,0,-0.1,0,407)"/>
<path style=" stroke:none;fill-rule:nonzero;fill:rgb(0%,0%,0%);fill-opacity:1;" d="M 14.464844 297.617188 L 14.488281 297.507812 L 14.523438 297.378906 L 14.558594 297.246094 L 14.589844 297.089844 L 14.640625 296.929688 L 14.691406 296.75 L 14.746094 296.5625 L 14.804688 296.378906 L 14.871094 296.179688 L 14.949219 295.976562 L 15.035156 295.765625 L 15.117188 295.5625 L 15.210938 295.347656 L 15.3125 295.136719 L 15.425781 294.921875 L 15.542969 294.710938 L 15.671875 294.507812 L 15.796875 294.300781 L 15.945312 294.105469 L 16.25 293.730469 L 16.417969 293.5625 L 16.597656 293.402344 L 16.785156 293.246094 L 16.980469 293.113281 L 17.195312 292.992188 L 17.296875 292.933594 L 17.40625 292.882812 L 17.523438 292.839844 L 17.636719 292.796875 L 17.753906 292.753906 L 17.875 292.71875 L 18 292.695312 L 18.128906 292.667969 L 18.257812 292.652344 L 18.390625 292.636719 L 18.527344 292.625 L 18.664062 292.625 C 18.878906 292.625 19.890625 292.625 20.773438 293.171875 C 19.589844 293.382812 18.742188 294.445312 18.742188 295.457031 C 18.742188 296.128906 19.207031 296.945312 20.347656 296.945312 C 21.285156 296.945312 22.636719 296.191406 22.636719 294.488281 C 22.636719 292.277344 20.136719 291.699219 18.699219 291.699219 C 16.242188 291.699219 14.753906 293.945312 14.25 294.914062 C 13.1875 292.125 10.902344 291.699219 9.683594 291.699219 C 5.269531 291.699219 2.847656 297.160156 2.847656 298.222656 C 2.847656 298.648438 3.273438 298.648438 3.367188 298.648438 C 3.699219 298.648438 3.832031 298.554688 3.910156 298.179688 C 5.347656 293.691406 8.152344 292.625 9.589844 292.625 C 10.398438 292.625 11.871094 293 11.871094 295.457031 C 11.871094 296.769531 11.15625 299.617188 9.589844 305.542969 C 8.910156 308.171875 7.429688 309.949219 5.558594 309.949219 C 5.304688 309.949219 4.335938 309.949219 3.449219 309.398438 C 4.515625 309.191406 5.441406 308.308594 5.441406 307.109375 C 5.441406 305.96875 4.515625 305.636719 3.875 305.636719 C 2.601562 305.636719 1.539062 306.734375 1.539062 308.09375 C 1.539062 310.035156 3.664062 310.882812 5.515625 310.882812 C 8.324219 310.882812 9.835938 307.917969 9.972656 307.671875 C 10.476562 309.234375 12.007812 310.882812 14.539062 310.882812 C 18.910156 310.882812 21.335938 305.425781 21.335938 304.363281 C 21.335938 303.9375 20.953125 303.9375 20.816406 303.9375 C 20.441406 303.9375 20.347656 304.105469 20.273438 304.394531 C 18.878906 308.929688 15.996094 309.949219 14.632812 309.949219 C 12.976562 309.949219 12.296875 308.597656 12.296875 307.152344 C 12.296875 306.214844 12.550781 305.289062 13.027344 303.425781 Z M 14.464844 297.617188 "/>
<g clip-path="url(#clip2)" clip-rule="nonzero">
<path style=" stroke:none;fill-rule:nonzero;fill:rgb(0%,0%,0%);fill-opacity:1;" d="M 194.695312 2.703125 L 194.703125 2.671875 L 194.710938 2.644531 L 194.71875 2.59375 L 194.738281 2.550781 L 194.746094 2.5 L 194.753906 2.457031 L 194.769531 2.425781 L 194.78125 2.382812 L 194.796875 2.3125 L 194.796875 2.28125 L 194.8125 2.210938 L 194.820312 2.1875 L 194.820312 2.160156 L 194.832031 2.136719 L 194.832031 2.109375 L 194.839844 2.082031 L 194.839844 2.058594 L 194.847656 2.015625 L 194.847656 1.878906 L 194.855469 1.835938 L 194.855469 1.734375 C 194.855469 0.960938 194.269531 0.585938 193.632812 0.585938 C 193.207031 0.585938 192.527344 0.84375 192.144531 1.480469 C 192.058594 1.691406 191.71875 2.992188 191.554688 3.769531 C 191.25 4.863281 190.960938 6.011719 190.707031 7.152344 L 188.792969 14.78125 C 188.632812 15.417969 186.8125 18.378906 184.011719 18.378906 C 181.851562 18.378906 181.378906 16.523438 181.378906 14.949219 C 181.378906 13.003906 182.109375 10.367188 183.546875 6.652344 C 184.226562 4.90625 184.394531 4.441406 184.394531 3.589844 C 184.394531 1.691406 183.042969 0.128906 180.917969 0.128906 C 176.886719 0.128906 175.324219 6.257812 175.324219 6.652344 C 175.324219 7.074219 175.746094 7.074219 175.839844 7.074219 C 176.265625 7.074219 176.300781 6.980469 176.511719 6.300781 C 177.660156 2.3125 179.34375 1.054688 180.789062 1.054688 C 181.128906 1.054688 181.851562 1.054688 181.851562 2.40625 C 181.851562 3.46875 181.429688 4.558594 181.128906 5.375 C 179.4375 9.863281 178.664062 12.28125 178.664062 14.277344 C 178.664062 18.039062 181.34375 19.3125 183.835938 19.3125 C 185.5 19.3125 186.929688 18.589844 188.113281 17.40625 C 187.566406 19.601562 187.066406 21.683594 185.367188 23.9375 C 184.261719 25.367188 182.652344 26.609375 180.707031 26.609375 C 180.117188 26.609375 178.207031 26.472656 177.480469 24.824219 C 178.164062 24.824219 178.722656 24.824219 179.300781 24.304688 C 179.726562 23.9375 180.152344 23.378906 180.152344 22.578125 C 180.152344 21.261719 179.011719 21.089844 178.585938 21.089844 C 177.617188 21.089844 176.207031 21.769531 176.207031 23.84375 C 176.207031 25.972656 178.085938 27.535156 180.707031 27.535156 C 185.078125 27.535156 189.429688 23.667969 190.628906 18.886719 Z M 194.695312 2.703125 "/>
</g>
<path style=" stroke:none;fill-rule:nonzero;fill:rgb(0%,0%,0%);fill-opacity:1;" d="M 35.703125 73.628906 L 35.730469 73.519531 L 35.761719 73.390625 L 35.796875 73.253906 L 35.832031 73.101562 L 35.882812 72.941406 L 35.933594 72.761719 L 35.984375 72.574219 L 36.042969 72.386719 L 36.113281 72.191406 L 36.1875 71.988281 L 36.273438 71.777344 L 36.359375 71.570312 L 36.453125 71.359375 L 36.554688 71.144531 L 36.664062 70.933594 L 36.785156 70.722656 L 36.910156 70.515625 L 37.039062 70.3125 L 37.183594 70.117188 L 37.488281 69.742188 L 37.660156 69.574219 L 37.839844 69.410156 L 38.027344 69.257812 L 38.222656 69.121094 L 38.433594 69.003906 L 38.535156 68.945312 L 38.644531 68.894531 L 38.765625 68.851562 L 38.875 68.808594 L 38.996094 68.765625 L 39.113281 68.730469 L 39.242188 68.707031 L 39.371094 68.679688 L 39.496094 68.664062 L 39.632812 68.644531 L 39.769531 68.636719 L 39.90625 68.636719 C 40.117188 68.636719 41.128906 68.636719 42.015625 69.183594 C 40.832031 69.394531 39.980469 70.457031 39.980469 71.46875 C 39.980469 72.140625 40.449219 72.957031 41.589844 72.957031 C 42.523438 72.957031 43.875 72.199219 43.875 70.5 C 43.875 68.289062 41.375 67.710938 39.9375 67.710938 C 37.480469 67.710938 35.992188 69.957031 35.492188 70.925781 C 34.429688 68.136719 32.140625 67.710938 30.925781 67.710938 C 26.511719 67.710938 24.085938 73.171875 24.085938 74.234375 C 24.085938 74.660156 24.511719 74.660156 24.605469 74.660156 C 24.9375 74.660156 25.074219 74.566406 25.152344 74.191406 C 26.585938 69.699219 29.394531 68.636719 30.832031 68.636719 C 31.640625 68.636719 33.109375 69.011719 33.109375 71.46875 C 33.109375 72.777344 32.394531 75.628906 30.832031 81.554688 C 30.152344 84.183594 28.671875 85.960938 26.800781 85.960938 C 26.546875 85.960938 25.574219 85.960938 24.691406 85.40625 C 25.753906 85.203125 26.679688 84.320312 26.679688 83.121094 C 26.679688 81.980469 25.753906 81.648438 25.117188 81.648438 C 23.839844 81.648438 22.777344 82.746094 22.777344 84.105469 C 22.777344 86.046875 24.902344 86.894531 26.757812 86.894531 C 29.5625 86.894531 31.078125 83.929688 31.214844 83.679688 C 31.714844 85.246094 33.246094 86.894531 35.78125 86.894531 C 40.152344 86.894531 42.574219 81.4375 42.574219 80.375 C 42.574219 79.949219 42.191406 79.949219 42.054688 79.949219 C 41.683594 79.949219 41.589844 80.117188 41.511719 80.40625 C 40.117188 84.941406 37.234375 85.960938 35.875 85.960938 C 34.214844 85.960938 33.535156 84.609375 33.535156 83.164062 C 33.535156 82.226562 33.789062 81.300781 34.265625 79.4375 Z M 35.703125 73.628906 "/>
<path style=" stroke:none;fill-rule:nonzero;fill:rgb(0%,0%,0%);fill-opacity:1;" d="M 60.695312 65.730469 L 59.695312 65.730469 C 59.609375 66.375 59.300781 68.136719 58.917969 68.425781 C 58.699219 68.59375 56.410156 68.59375 55.996094 68.59375 L 50.535156 68.59375 C 53.648438 65.847656 54.683594 65.023438 56.460938 63.628906 C 58.65625 61.878906 60.695312 60.039062 60.695312 57.226562 C 60.695312 53.636719 57.566406 51.441406 53.765625 51.441406 C 50.101562 51.441406 47.601562 54.019531 47.601562 56.742188 C 47.601562 58.261719 48.875 58.40625 49.183594 58.40625 C 49.886719 58.40625 50.746094 57.898438 50.746094 56.835938 C 50.746094 56.308594 50.535156 55.269531 48.996094 55.269531 C 49.914062 53.167969 51.929688 52.523438 53.324219 52.523438 C 56.292969 52.523438 57.832031 54.820312 57.832031 57.226562 C 57.832031 59.800781 55.996094 61.84375 55.042969 62.90625 L 47.90625 69.964844 C 47.601562 70.226562 47.601562 70.296875 47.601562 71.121094 L 59.8125 71.121094 Z M 60.695312 65.730469 "/>
<path style=" stroke:none;fill-rule:nonzero;fill:rgb(0%,0%,0%);fill-opacity:1;" d="M 105.664062 72.566406 L 106.03125 72.566406 L 106.089844 72.558594 L 106.160156 72.558594 L 106.277344 72.542969 L 106.335938 72.53125 L 106.398438 72.523438 L 106.457031 72.515625 L 106.507812 72.5 L 106.566406 72.480469 L 106.667969 72.449219 L 106.71875 72.421875 L 106.769531 72.398438 L 106.8125 72.363281 L 106.855469 72.335938 L 106.898438 72.292969 L 106.933594 72.261719 L 106.96875 72.21875 L 106.984375 72.191406 L 107 72.167969 L 107.007812 72.148438 L 107.027344 72.125 L 107.035156 72.097656 L 107.050781 72.066406 L 107.0625 72.039062 L 107.070312 72.003906 L 107.078125 71.980469 L 107.085938 71.945312 L 107.085938 71.910156 L 107.09375 71.878906 L 107.09375 71.84375 L 107.101562 71.808594 L 107.101562 71.734375 C 107.101562 70.882812 106.296875 70.882812 105.707031 70.882812 L 80.332031 70.882812 C 79.730469 70.882812 78.9375 70.882812 78.9375 71.734375 C 78.9375 72.566406 79.730469 72.566406 80.367188 72.566406 Z M 105.664062 72.566406 "/>
<path style=" stroke:none;fill-rule:nonzero;fill:rgb(0%,0%,0%);fill-opacity:1;" d="M 105.707031 80.796875 L 105.820312 80.796875 L 105.9375 80.789062 L 106.117188 80.789062 L 106.234375 80.773438 L 106.296875 80.773438 L 106.347656 80.765625 L 106.40625 80.746094 L 106.464844 80.738281 L 106.515625 80.722656 L 106.574219 80.703125 L 106.625 80.6875 L 106.679688 80.671875 L 106.730469 80.644531 L 106.769531 80.621094 L 106.855469 80.550781 L 106.898438 80.519531 L 106.933594 80.476562 L 106.949219 80.457031 L 106.96875 80.433594 L 106.984375 80.414062 L 107 80.390625 L 107.007812 80.363281 L 107.027344 80.339844 L 107.035156 80.3125 L 107.050781 80.289062 L 107.070312 80.230469 L 107.085938 80.160156 L 107.085938 80.125 L 107.09375 80.09375 L 107.09375 80.058594 L 107.101562 80.023438 L 107.101562 79.949219 C 107.101562 79.097656 106.296875 79.097656 105.664062 79.097656 L 80.367188 79.097656 C 79.730469 79.097656 78.9375 79.097656 78.9375 79.949219 C 78.9375 80.796875 79.730469 80.796875 80.332031 80.796875 Z M 105.707031 80.796875 "/>
<path style=" stroke:none;fill-rule:nonzero;fill:rgb(0%,0%,0%);fill-opacity:1;" d="M 133.703125 79.4375 L 133.703125 83.121094 C 133.703125 84.652344 133.617188 85.109375 130.488281 85.109375 L 129.597656 85.109375 L 129.597656 86.429688 C 131.339844 86.292969 133.542969 86.292969 135.320312 86.292969 C 137.105469 86.292969 139.351562 86.292969 141.078125 86.429688 L 141.078125 85.109375 L 140.183594 85.109375 C 137.054688 85.109375 136.96875 84.652344 136.96875 83.121094 L 136.96875 79.4375 L 141.210938 79.4375 L 141.210938 78.128906 L 136.96875 78.128906 L 136.96875 58.839844 C 136.96875 57.992188 136.96875 57.746094 136.296875 57.746094 C 135.90625 57.746094 135.785156 57.746094 135.445312 58.261719 L 122.4375 78.128906 L 123.625 78.128906 L 133.96875 62.328125 L 133.96875 78.128906 L 122.4375 78.128906 L 122.4375 79.4375 Z M 133.703125 79.4375 "/>
<path style=" stroke:none;fill-rule:nonzero;fill:rgb(0%,0%,0%);fill-opacity:1;" d="M 163.066406 70.289062 L 163.074219 70.253906 L 163.085938 70.226562 L 163.101562 70.175781 L 163.109375 70.132812 L 163.128906 70.082031 L 163.136719 70.039062 L 163.144531 70.007812 L 163.152344 69.964844 L 163.167969 69.894531 L 163.179688 69.863281 L 163.195312 69.792969 L 163.195312 69.769531 L 163.203125 69.742188 L 163.203125 69.71875 L 163.210938 69.691406 L 163.210938 69.667969 L 163.21875 69.640625 L 163.21875 69.597656 L 163.230469 69.546875 L 163.230469 69.316406 C 163.230469 68.542969 162.640625 68.171875 162.003906 68.171875 C 161.578125 68.171875 160.90625 68.425781 160.515625 69.0625 C 160.441406 69.277344 160.089844 70.578125 159.9375 71.351562 C 159.632812 72.449219 159.335938 73.59375 159.085938 74.734375 L 157.175781 82.363281 C 157.011719 83 155.191406 85.960938 152.386719 85.960938 C 150.234375 85.960938 149.757812 84.105469 149.757812 82.535156 C 149.757812 80.585938 150.488281 77.949219 151.917969 74.234375 C 152.597656 72.488281 152.769531 72.023438 152.769531 71.171875 C 152.769531 69.277344 151.417969 67.710938 149.292969 67.710938 C 145.269531 67.710938 143.695312 73.84375 143.695312 74.234375 C 143.695312 74.660156 144.121094 74.660156 144.214844 74.660156 C 144.640625 74.660156 144.683594 74.566406 144.894531 73.882812 C 146.035156 69.894531 147.726562 68.636719 149.171875 68.636719 C 149.503906 68.636719 150.234375 68.636719 150.234375 69.988281 C 150.234375 71.054688 149.808594 72.140625 149.503906 72.957031 C 147.820312 77.449219 147.046875 79.863281 147.046875 81.863281 C 147.046875 85.621094 149.714844 86.894531 152.214844 86.894531 C 153.875 86.894531 155.3125 86.171875 156.492188 84.992188 C 155.949219 87.183594 155.449219 89.269531 153.746094 91.523438 C 152.640625 92.949219 151.035156 94.191406 149.078125 94.191406 C 148.492188 94.191406 146.578125 94.054688 145.863281 92.40625 C 146.542969 92.40625 147.097656 92.40625 147.683594 91.886719 C 148.109375 91.523438 148.535156 90.960938 148.535156 90.160156 C 148.535156 88.84375 147.394531 88.671875 146.96875 88.671875 C 145.992188 88.671875 144.589844 89.351562 144.589844 91.429688 C 144.589844 93.554688 146.460938 95.117188 149.078125 95.117188 C 153.449219 95.117188 157.8125 91.25 159.003906 86.46875 Z M 163.066406 70.289062 "/>
<path style=" stroke:none;fill-rule:nonzero;fill:rgb(0%,0%,0%);fill-opacity:1;" d="M 497.28125 130.234375 L 497.300781 130.175781 L 497.308594 130.125 L 497.332031 130.023438 L 497.359375 129.917969 L 497.382812 129.828125 L 497.410156 129.734375 L 497.4375 129.65625 L 497.460938 129.570312 L 497.488281 129.496094 L 497.511719 129.425781 L 497.539062 129.359375 L 497.5625 129.300781 L 497.589844 129.238281 L 497.613281 129.1875 L 497.640625 129.136719 L 497.664062 129.085938 L 497.691406 129.042969 L 497.714844 129 L 497.742188 128.96875 L 497.777344 128.933594 L 497.800781 128.898438 L 497.835938 128.867188 L 497.859375 128.839844 L 497.894531 128.8125 L 497.929688 128.789062 L 497.964844 128.773438 L 498.003906 128.746094 L 498.039062 128.730469 L 498.082031 128.710938 L 498.117188 128.703125 L 498.160156 128.6875 L 498.210938 128.679688 L 498.253906 128.660156 C 498.632812 128.566406 500.039062 128.566406 500.921875 128.566406 C 505.199219 128.566406 507.105469 128.746094 507.105469 132.054688 C 507.105469 132.675781 506.941406 134.332031 506.773438 135.4375 C 506.730469 135.601562 506.636719 136.121094 506.636719 136.238281 C 506.636719 136.492188 506.773438 136.800781 507.136719 136.800781 C 507.625 136.800781 507.699219 136.449219 507.777344 135.8125 L 508.925781 128.449219 C 508.976562 128.277344 509.019531 127.851562 509.019531 127.71875 C 509.019531 127.257812 508.59375 127.257812 507.871094 127.257812 L 484.355469 127.257812 C 483.328125 127.257812 483.292969 127.308594 482.996094 128.109375 L 480.460938 135.558594 C 480.410156 135.652344 480.207031 136.238281 480.207031 136.332031 C 480.207031 136.585938 480.410156 136.800781 480.71875 136.800781 C 481.140625 136.800781 481.175781 136.585938 481.429688 135.90625 C 483.71875 129.339844 484.816406 128.566406 491.089844 128.566406 L 492.742188 128.566406 C 493.933594 128.566406 493.933594 128.746094 493.933594 129.078125 C 493.933594 129.339844 493.804688 129.84375 493.761719 129.960938 L 488.089844 152.589844 C 487.707031 154.164062 487.570312 154.625 483.039062 154.625 C 481.507812 154.625 481.261719 154.625 481.261719 155.441406 C 481.261719 155.941406 481.71875 155.941406 481.976562 155.941406 C 483.132812 155.941406 484.3125 155.867188 485.453125 155.867188 C 486.644531 155.867188 487.878906 155.804688 489.058594 155.804688 C 490.242188 155.804688 491.421875 155.867188 492.578125 155.867188 C 493.804688 155.867188 495.078125 155.941406 496.261719 155.941406 C 496.6875 155.941406 497.1875 155.941406 497.1875 155.089844 C 497.1875 154.625 496.855469 154.625 495.75 154.625 C 494.6875 154.625 494.144531 154.625 493.046875 154.546875 C 491.804688 154.410156 491.472656 154.292969 491.472656 153.621094 C 491.472656 153.5625 491.472656 153.347656 491.636719 152.726562 Z M 497.28125 130.234375 "/>
<path style=" stroke:none;fill-rule:nonzero;fill:rgb(0%,0%,0%);fill-opacity:1;" d="M 405.019531 361.230469 L 405.105469 360.917969 L 405.144531 360.765625 L 405.199219 360.621094 L 405.25 360.46875 L 405.308594 360.324219 L 405.367188 360.1875 L 405.4375 360.050781 L 405.503906 359.914062 L 405.582031 359.777344 L 405.664062 359.652344 L 405.75 359.53125 L 405.851562 359.414062 L 405.953125 359.292969 L 406.066406 359.183594 L 406.191406 359.082031 L 406.320312 358.980469 L 406.457031 358.886719 L 406.761719 358.699219 L 406.933594 358.621094 L 407.109375 358.546875 L 407.304688 358.46875 L 407.503906 358.410156 L 407.722656 358.347656 L 407.945312 358.289062 L 408.183594 358.246094 L 408.4375 358.203125 L 408.699219 358.171875 L 408.980469 358.136719 L 409.28125 358.113281 L 409.433594 358.101562 L 409.59375 358.101562 C 409.804688 358.101562 410.308594 358.058594 410.308594 357.253906 C 410.308594 357.210938 410.308594 356.785156 409.765625 356.785156 C 408.351562 356.785156 406.882812 356.921875 405.488281 356.921875 C 404.039062 356.921875 402.5625 356.785156 401.148438 356.785156 C 400.902344 356.785156 400.394531 356.785156 400.394531 357.636719 C 400.394531 358.101562 400.816406 358.101562 401.148438 358.101562 C 403.574219 358.136719 404.039062 359.03125 404.039062 359.957031 C 404.039062 360.09375 403.957031 360.730469 403.914062 360.851562 L 399.175781 379.703125 L 389.804688 357.59375 C 389.457031 356.828125 389.421875 356.785156 388.453125 356.785156 L 382.78125 356.785156 C 381.929688 356.785156 381.539062 356.785156 381.539062 357.636719 C 381.539062 358.101562 381.929688 358.101562 382.722656 358.101562 C 382.933594 358.101562 385.605469 358.101562 385.605469 358.484375 L 379.933594 381.234375 C 379.507812 382.933594 378.792969 384.285156 375.367188 384.40625 C 375.09375 384.40625 374.632812 384.449219 374.632812 385.257812 C 374.632812 385.554688 374.847656 385.722656 375.1875 385.722656 C 376.546875 385.722656 378.019531 385.585938 379.429688 385.585938 C 380.867188 385.585938 382.390625 385.722656 383.785156 385.722656 C 383.996094 385.722656 384.542969 385.722656 384.542969 384.875 C 384.542969 384.449219 384.175781 384.40625 383.707031 384.40625 C 381.25 384.328125 380.902344 383.402344 380.902344 382.550781 C 380.902344 382.253906 380.945312 382.042969 381.082031 381.582031 L 386.667969 359.199219 C 386.847656 359.453125 386.847656 359.53125 387.058594 359.957031 L 397.601562 384.914062 C 397.902344 385.648438 398.019531 385.722656 398.402344 385.722656 C 398.871094 385.722656 398.871094 385.585938 399.082031 384.832031 Z M 405.019531 361.230469 "/>
<path style=" stroke:none;fill-rule:nonzero;fill:rgb(0%,0%,0%);fill-opacity:1;" d="M 252.265625 198.539062 L 252.140625 198.734375 L 252.027344 198.921875 L 251.902344 199.101562 L 251.78125 199.269531 L 251.664062 199.429688 L 251.542969 199.578125 L 251.417969 199.722656 L 251.304688 199.855469 L 251.179688 199.984375 L 251.058594 200.101562 L 250.941406 200.210938 L 250.820312 200.316406 L 250.695312 200.410156 L 250.582031 200.503906 L 250.457031 200.585938 L 250.335938 200.664062 L 250.210938 200.734375 L 250.089844 200.800781 L 249.96875 200.855469 L 249.84375 200.914062 L 249.722656 200.960938 L 249.59375 201.003906 L 249.46875 201.050781 L 249.339844 201.082031 L 249.21875 201.117188 L 249.089844 201.140625 L 248.960938 201.167969 L 248.839844 201.1875 L 248.574219 201.21875 L 248.316406 201.238281 C 247.921875 201.269531 247.636719 201.269531 247.636719 201.882812 C 247.636719 202.078125 247.800781 202.238281 248.050781 202.238281 C 248.914062 202.238281 249.914062 202.136719 250.8125 202.136719 C 251.871094 202.136719 253 202.238281 254.035156 202.238281 C 254.21875 202.238281 254.644531 202.238281 254.644531 201.625 C 254.644531 201.269531 254.355469 201.238281 254.128906 201.238281 C 253.386719 201.179688 252.621094 200.914062 252.621094 200.121094 C 252.621094 199.726562 252.8125 199.375 253.066406 198.933594 L 255.511719 194.808594 L 263.578125 194.808594 L 263.488281 193.816406 L 256.117188 193.816406 L 262.460938 183.199219 L 263.488281 193.816406 L 263.578125 194.808594 C 263.648438 195.480469 264.09375 199.855469 264.09375 200.179688 C 264.09375 201.148438 262.421875 201.238281 261.785156 201.238281 C 261.332031 201.238281 261.007812 201.238281 261.007812 201.882812 C 261.007812 202.238281 261.390625 202.238281 261.460938 202.238281 C 262.769531 202.238281 264.164062 202.136719 265.476562 202.136719 C 266.28125 202.136719 268.308594 202.238281 269.113281 202.238281 C 269.308594 202.238281 269.691406 202.238281 269.691406 201.59375 C 269.691406 201.238281 269.367188 201.238281 268.953125 201.238281 C 266.960938 201.238281 266.960938 201.019531 266.855469 200.082031 L 264.902344 179.992188 C 264.828125 179.347656 264.828125 179.21875 264.289062 179.21875 C 263.773438 179.21875 263.648438 179.4375 263.449219 179.761719 Z M 252.265625 198.539062 "/>
<path style=" stroke:none;fill-rule:nonzero;fill:rgb(0%,0%,0%);fill-opacity:1;" d="M 281.226562 209.949219 L 281.226562 209.910156 L 281.222656 209.898438 L 281.222656 209.878906 L 281.214844 209.871094 L 281.210938 209.859375 L 281.210938 209.847656 L 281.203125 209.835938 L 281.191406 209.820312 L 281.183594 209.800781 L 281.171875 209.789062 L 281.15625 209.769531 L 281.132812 209.730469 L 281.113281 209.710938 L 281.09375 209.6875 L 281.085938 209.671875 L 281.0625 209.648438 L 281.054688 209.632812 L 281.042969 209.621094 L 281.027344 209.601562 L 281.015625 209.589844 L 280.996094 209.574219 L 280.984375 209.558594 L 280.949219 209.523438 L 280.9375 209.503906 L 280.878906 209.445312 L 280.867188 209.425781 L 280.839844 209.410156 L 280.820312 209.390625 L 280.800781 209.363281 L 280.78125 209.34375 L 280.757812 209.316406 L 280.730469 209.296875 L 280.710938 209.273438 L 280.6875 209.246094 C 276.671875 205.195312 275.640625 199.121094 275.640625 194.203125 C 275.640625 188.609375 276.859375 183.007812 280.816406 179 C 281.226562 178.605469 281.226562 178.542969 281.226562 178.445312 C 281.226562 178.21875 281.105469 178.128906 280.917969 178.128906 C 280.597656 178.128906 277.699219 180.308594 275.800781 184.386719 C 274.160156 187.929688 273.773438 191.5 273.773438 194.203125 C 273.773438 196.714844 274.128906 200.59375 275.890625 204.234375 C 277.820312 208.1875 280.597656 210.273438 280.917969 210.273438 C 281.105469 210.273438 281.226562 210.183594 281.226562 209.949219 Z M 281.226562 209.949219 "/>
<path style=" stroke:none;fill-rule:nonzero;fill:rgb(0%,0%,0%);fill-opacity:1;" d="M 292.503906 181.65625 L 292.503906 181.296875 L 292.496094 181.269531 L 292.496094 181.207031 L 292.488281 181.160156 L 292.484375 181.121094 L 292.476562 181.089844 L 292.464844 181.058594 L 292.457031 181.027344 L 292.433594 180.972656 L 292.375 180.914062 L 292.320312 180.882812 L 292.296875 180.871094 L 292.285156 180.863281 L 292.265625 180.859375 L 292.25 180.859375 L 292.210938 180.84375 L 292.191406 180.84375 L 292.171875 180.839844 L 292.15625 180.839844 L 292.136719 180.832031 L 292.089844 180.832031 L 292.0625 180.824219 L 291.929688 180.824219 L 291.894531 180.820312 L 291.765625 180.820312 C 289.773438 182.878906 286.945312 182.878906 285.921875 182.878906 L 285.921875 183.878906 C 286.566406 183.878906 288.460938 183.878906 290.121094 183.039062 L 290.121094 199.695312 C 290.121094 200.855469 290.039062 201.238281 287.140625 201.238281 L 286.113281 201.238281 L 286.113281 202.238281 C 287.242188 202.136719 290.039062 202.136719 291.316406 202.136719 C 292.605469 202.136719 295.402344 202.136719 296.53125 202.238281 L 296.53125 201.238281 L 295.496094 201.238281 C 292.605469 201.238281 292.503906 200.890625 292.503906 199.695312 Z M 292.503906 181.65625 "/>
<path style=" stroke:none;fill-rule:nonzero;fill:rgb(0%,0%,0%);fill-opacity:1;" d="M 305.6875 202.207031 L 305.6875 202.011719 L 305.675781 201.820312 L 305.667969 201.632812 L 305.648438 201.449219 L 305.628906 201.277344 L 305.601562 201.109375 L 305.578125 200.941406 L 305.546875 200.785156 L 305.507812 200.632812 L 305.460938 200.484375 L 305.417969 200.339844 L 305.371094 200.207031 L 305.3125 200.078125 L 305.253906 199.953125 L 305.195312 199.832031 L 305.132812 199.722656 L 305.0625 199.617188 L 304.992188 199.515625 L 304.914062 199.425781 L 304.835938 199.339844 L 304.75 199.257812 L 304.667969 199.1875 L 304.578125 199.121094 L 304.480469 199.058594 L 304.382812 199.003906 L 304.285156 198.960938 L 304.183594 198.921875 L 304.082031 198.890625 L 303.972656 198.863281 L 303.859375 198.84375 L 303.746094 198.835938 L 303.628906 198.832031 C 302.570312 198.832031 301.925781 199.636719 301.925781 200.535156 C 301.925781 201.398438 302.570312 202.238281 303.628906 202.238281 C 304.007812 202.238281 304.433594 202.109375 304.757812 201.824219 C 304.847656 201.753906 304.886719 201.722656 304.917969 201.722656 C 304.953125 201.722656 304.976562 201.753906 304.976562 202.207031 C 304.976562 204.585938 303.859375 206.515625 302.789062 207.574219 C 302.441406 207.925781 302.441406 207.996094 302.441406 208.085938 C 302.441406 208.316406 302.601562 208.441406 302.765625 208.441406 C 303.113281 208.441406 305.6875 205.96875 305.6875 202.207031 Z M 305.6875 202.207031 "/>
<path style=" stroke:none;fill-rule:nonzero;fill:rgb(0%,0%,0%);fill-opacity:1;" d="M 317.496094 199.761719 L 320.90625 196.449219 C 325.914062 192.015625 327.847656 190.28125 327.847656 187.066406 C 327.847656 183.394531 324.957031 180.820312 321.035156 180.820312 C 317.394531 180.820312 315.011719 183.789062 315.011719 186.648438 C 315.011719 188.445312 316.625 188.445312 316.714844 188.445312 C 317.269531 188.445312 318.394531 188.058594 318.394531 186.742188 C 318.394531 185.90625 317.820312 185.066406 316.691406 185.066406 C 316.4375 185.066406 316.367188 185.066406 316.269531 185.097656 C 317.011719 183.007812 318.742188 181.820312 320.609375 181.820312 C 323.539062 181.820312 324.925781 184.433594 324.925781 187.066406 C 324.925781 189.632812 323.3125 192.175781 321.550781 194.171875 L 315.375 201.050781 C 315.011719 201.398438 315.011719 201.464844 315.011719 202.238281 L 326.945312 202.238281 L 327.847656 196.644531 L 327.042969 196.644531 C 326.878906 197.609375 326.660156 199.023438 326.339844 199.507812 C 326.105469 199.761719 323.988281 199.761719 323.28125 199.761719 Z M 317.496094 199.761719 "/>
<path style=" stroke:none;fill-rule:nonzero;fill:rgb(0%,0%,0%);fill-opacity:1;" d="M 338.800781 194.203125 L 338.800781 193.714844 L 338.792969 193.460938 L 338.789062 193.195312 L 338.761719 192.65625 L 338.722656 192.085938 L 338.664062 191.492188 L 338.601562 190.878906 L 338.511719 190.253906 L 338.40625 189.601562 L 338.277344 188.945312 L 338.128906 188.28125 L 337.960938 187.601562 L 337.761719 186.917969 L 337.535156 186.226562 L 337.285156 185.535156 L 337.148438 185.195312 L 337 184.851562 L 336.84375 184.511719 L 336.683594 184.167969 C 334.761719 180.21875 332 178.128906 331.675781 178.128906 C 331.480469 178.128906 331.351562 178.25 331.351562 178.445312 C 331.351562 178.542969 331.351562 178.605469 331.960938 179.1875 C 335.117188 182.363281 336.949219 187.480469 336.949219 194.203125 C 336.949219 199.695312 335.761719 205.355469 331.765625 209.410156 C 331.351562 209.789062 331.351562 209.859375 331.351562 209.949219 C 331.351562 210.144531 331.480469 210.273438 331.675781 210.273438 C 332 210.273438 334.882812 208.085938 336.785156 204.007812 C 338.417969 200.476562 338.800781 196.90625 338.800781 194.203125 Z M 338.800781 194.203125 "/>
<path style=" stroke:none;fill-rule:nonzero;fill:rgb(0%,0%,0%);fill-opacity:1;" d="M 331.417969 285.5625 L 331.5625 284.695312 L 333.855469 275.507812 C 334.148438 274.332031 334.222656 274.230469 335.671875 274.230469 L 338.917969 274.230469 C 341.722656 274.230469 343.511719 275.136719 343.511719 277.46875 C 343.511719 278.789062 342.835938 281.6875 341.519531 282.90625 C 339.824219 284.417969 337.808594 284.695312 336.308594 284.695312 L 331.5625 284.695312 L 331.417969 285.5625 L 337.15625 285.5625 C 341.953125 285.5625 346.640625 282.0625 346.640625 278.28125 C 346.640625 275.679688 344.417969 273.179688 339.996094 273.179688 L 329.0625 273.179688 C 328.417969 273.179688 328.042969 273.179688 328.042969 273.820312 C 328.042969 274.230469 328.347656 274.230469 329.027344 274.230469 C 329.460938 274.230469 330.078125 274.253906 330.476562 274.289062 C 331.019531 274.363281 331.222656 274.460938 331.222656 274.832031 C 331.222656 274.96875 331.1875 275.074219 331.078125 275.476562 L 326.5625 293.597656 C 326.222656 294.917969 326.160156 295.183594 323.492188 295.183594 C 322.921875 295.183594 322.550781 295.183594 322.550781 295.832031 C 322.550781 296.234375 322.949219 296.234375 323.042969 296.234375 C 324 296.234375 326.390625 296.125 327.332031 296.125 C 328.042969 296.125 328.78125 296.171875 329.496094 296.171875 C 330.246094 296.171875 330.984375 296.234375 331.695312 296.234375 C 331.925781 296.234375 332.359375 296.234375 332.359375 295.554688 C 332.359375 295.183594 332.070312 295.183594 331.417969 295.183594 C 330.171875 295.183594 329.230469 295.183594 329.230469 294.582031 C 329.230469 294.382812 329.289062 294.214844 329.324219 294.011719 Z M 331.417969 285.5625 "/>
<path style=" stroke:none;fill-rule:nonzero;fill:rgb(0%,0%,0%);fill-opacity:1;" d="M 358.78125 304.328125 L 358.78125 304.269531 L 358.777344 304.253906 L 358.777344 304.25 L 358.769531 304.234375 L 358.761719 304.222656 L 358.753906 304.207031 L 358.75 304.195312 L 358.734375 304.175781 L 358.726562 304.160156 L 358.714844 304.140625 L 358.699219 304.121094 L 358.679688 304.097656 L 358.667969 304.078125 L 358.648438 304.050781 L 358.632812 304.039062 L 358.625 304.023438 L 358.585938 303.984375 L 358.570312 303.964844 L 358.558594 303.949219 L 358.546875 303.9375 L 358.53125 303.917969 L 358.511719 303.902344 L 358.496094 303.882812 L 358.457031 303.84375 L 358.445312 303.820312 L 358.421875 303.800781 L 358.335938 303.714844 L 358.316406 303.691406 L 358.289062 303.664062 L 358.265625 303.644531 L 358.242188 303.617188 L 358.214844 303.589844 C 354 299.335938 352.921875 292.960938 352.921875 287.800781 C 352.921875 281.925781 354.203125 276.042969 358.347656 271.835938 C 358.78125 271.425781 358.78125 271.355469 358.78125 271.253906 C 358.78125 271.015625 358.660156 270.921875 358.457031 270.921875 C 358.117188 270.921875 355.082031 273.210938 353.089844 277.496094 C 351.363281 281.214844 350.964844 284.960938 350.964844 287.800781 C 350.964844 290.433594 351.328125 294.507812 353.1875 298.328125 C 355.207031 302.480469 358.117188 304.667969 358.457031 304.667969 C 358.660156 304.667969 358.78125 304.574219 358.78125 304.328125 Z M 358.78125 304.328125 "/>
<path style=" stroke:none;fill-rule:nonzero;fill:rgb(0%,0%,0%);fill-opacity:1;" d="M 371.980469 286.039062 L 372 285.949219 L 372.019531 285.847656 L 372.046875 285.738281 L 372.082031 285.617188 L 372.117188 285.488281 L 372.15625 285.347656 L 372.203125 285.199219 L 372.25 285.046875 L 372.304688 284.890625 L 372.367188 284.730469 L 372.425781 284.558594 L 372.5 284.398438 L 372.574219 284.230469 L 372.65625 284.058594 L 372.746094 283.890625 L 372.832031 283.71875 L 372.933594 283.558594 L 373.042969 283.394531 L 373.152344 283.238281 L 373.273438 283.089844 L 373.402344 282.941406 L 373.539062 282.804688 L 373.679688 282.675781 L 373.828125 282.554688 L 373.984375 282.445312 L 374.148438 282.351562 L 374.234375 282.304688 L 374.324219 282.265625 L 374.410156 282.230469 L 374.507812 282.195312 L 374.601562 282.164062 L 374.695312 282.136719 L 374.796875 282.113281 L 374.898438 282.09375 L 375 282.082031 L 375.101562 282.066406 L 375.210938 282.0625 L 375.320312 282.0625 C 375.488281 282.0625 376.296875 282.0625 377.007812 282.496094 C 376.066406 282.664062 375.386719 283.511719 375.386719 284.316406 C 375.386719 284.851562 375.753906 285.503906 376.667969 285.503906 C 377.40625 285.503906 378.492188 284.898438 378.492188 283.542969 C 378.492188 281.78125 376.5 281.320312 375.355469 281.320312 C 373.394531 281.320312 372.210938 283.109375 371.808594 283.882812 C 370.964844 281.660156 369.140625 281.320312 368.164062 281.320312 C 364.648438 281.320312 362.726562 285.671875 362.726562 286.519531 C 362.726562 286.855469 363.0625 286.855469 363.136719 286.855469 C 363.402344 286.855469 363.511719 286.78125 363.570312 286.484375 C 364.71875 282.90625 366.945312 282.0625 368.089844 282.0625 C 368.742188 282.0625 369.914062 282.359375 369.914062 284.316406 C 369.914062 285.359375 369.34375 287.628906 368.089844 292.351562 C 367.554688 294.445312 366.378906 295.859375 364.886719 295.859375 C 364.683594 295.859375 363.910156 295.859375 363.199219 295.421875 C 364.046875 295.257812 364.792969 294.554688 364.792969 293.597656 C 364.792969 292.691406 364.046875 292.425781 363.539062 292.425781 C 362.523438 292.425781 361.675781 293.300781 361.675781 294.382812 C 361.675781 295.929688 363.367188 296.605469 364.851562 296.605469 C 367.089844 296.605469 368.292969 294.242188 368.402344 294.046875 C 368.800781 295.292969 370.023438 296.605469 372.039062 296.605469 C 375.523438 296.605469 377.445312 292.257812 377.445312 291.410156 C 377.445312 291.070312 377.140625 291.070312 377.039062 291.070312 C 376.742188 291.070312 376.667969 291.207031 376.601562 291.4375 C 375.488281 295.046875 373.191406 295.859375 372.117188 295.859375 C 370.792969 295.859375 370.253906 294.785156 370.253906 293.632812 C 370.253906 292.886719 370.457031 292.148438 370.835938 290.664062 Z M 371.980469 286.039062 "/>
<path style=" stroke:none;fill-rule:nonzero;fill:rgb(0%,0%,0%);fill-opacity:1;" d="M 388.023438 293.957031 L 388.117188 293.199219 L 389.722656 286.804688 C 389.914062 286.070312 389.933594 285.996094 390.929688 285.996094 L 393.695312 285.996094 C 395.886719 285.996094 397.25 286.667969 397.25 288.335938 C 397.25 289.066406 396.980469 290.929688 395.785156 292 C 394.945312 292.75 393.597656 293.199219 391.898438 293.199219 L 388.117188 293.199219 L 388.023438 293.957031 L 392.296875 293.957031 C 396.289062 293.957031 399.664062 291.410156 399.664062 288.835938 C 399.664062 286.84375 397.722656 285.148438 394.484375 285.148438 L 386.234375 285.148438 C 385.753906 285.148438 385.480469 285.148438 385.480469 285.671875 C 385.480469 285.996094 385.734375 285.996094 386.253906 285.996094 C 386.632812 285.996094 386.730469 285.996094 387.15625 286.050781 C 387.628906 286.089844 387.671875 286.144531 387.671875 286.375 C 387.671875 286.421875 387.671875 286.539062 387.574219 286.898438 L 384.464844 299.335938 C 384.222656 300.257812 384.203125 300.425781 382.359375 300.425781 C 381.933594 300.425781 381.648438 300.425781 381.648438 300.941406 C 381.648438 300.96875 381.648438 301.273438 382.027344 301.273438 C 382.71875 301.273438 384.410156 301.179688 385.097656 301.179688 C 385.503906 301.179688 386.328125 301.179688 386.730469 301.199219 C 387.195312 301.234375 387.785156 301.273438 388.238281 301.273438 C 388.382812 301.273438 388.726562 301.273438 388.726562 300.753906 C 388.726562 300.425781 388.457031 300.425781 387.976562 300.425781 C 387.957031 300.425781 387.5 300.425781 387.082031 300.375 C 386.539062 300.332031 386.539062 300.257812 386.539062 300.019531 C 386.539062 300 386.539062 299.851562 386.632812 299.507812 Z M 388.023438 293.957031 "/>
<path style=" stroke:none;fill-rule:nonzero;fill:rgb(0%,0%,0%);fill-opacity:1;" d="M 409.34375 296.199219 L 409.34375 295.996094 L 409.328125 295.792969 L 409.324219 295.597656 L 409.304688 295.40625 L 409.28125 295.222656 L 409.226562 294.871094 L 409.195312 294.710938 L 409.152344 294.546875 L 409.105469 294.390625 L 409.058594 294.242188 L 409.011719 294.097656 L 408.949219 293.964844 L 408.890625 293.835938 L 408.828125 293.707031 L 408.761719 293.589844 L 408.6875 293.484375 L 408.613281 293.375 L 408.53125 293.28125 L 408.449219 293.191406 L 408.359375 293.105469 L 408.273438 293.027344 L 408.179688 292.960938 L 408.078125 292.894531 L 407.976562 292.839844 L 407.875 292.792969 L 407.765625 292.75 L 407.65625 292.71875 L 407.542969 292.691406 L 407.425781 292.671875 L 407.183594 292.65625 C 406.070312 292.65625 405.394531 293.503906 405.394531 294.445312 C 405.394531 295.351562 406.070312 296.234375 407.183594 296.234375 C 407.582031 296.234375 408.027344 296.097656 408.367188 295.800781 C 408.460938 295.726562 408.511719 295.691406 408.539062 295.691406 C 408.570312 295.691406 408.597656 295.726562 408.597656 296.199219 C 408.597656 298.699219 407.425781 300.726562 406.308594 301.835938 C 405.9375 302.203125 405.9375 302.277344 405.9375 302.371094 C 405.9375 302.617188 406.105469 302.746094 406.273438 302.746094 C 406.648438 302.746094 409.34375 300.148438 409.34375 296.199219 Z M 409.34375 296.199219 "/>
<path style=" stroke:none;fill-rule:nonzero;fill:rgb(0%,0%,0%);fill-opacity:1;" d="M 433.863281 283.375 L 433.863281 283.347656 L 433.867188 283.328125 L 433.882812 283.285156 L 433.890625 283.253906 L 433.902344 283.210938 L 433.910156 283.179688 L 433.917969 283.152344 L 433.921875 283.117188 L 433.9375 283.0625 L 433.941406 283.035156 L 433.957031 282.980469 L 433.957031 282.960938 L 433.964844 282.941406 L 433.96875 282.921875 L 433.96875 282.878906 L 433.976562 282.859375 L 433.976562 282.824219 L 433.984375 282.785156 L 433.984375 282.601562 C 433.984375 281.984375 433.523438 281.6875 433.015625 281.6875 C 432.675781 281.6875 432.132812 281.890625 431.828125 282.398438 C 431.761719 282.570312 431.492188 283.605469 431.363281 284.222656 C 431.117188 285.097656 430.886719 286.011719 430.683594 286.917969 L 429.160156 292.996094 C 429.03125 293.503906 427.582031 295.859375 425.347656 295.859375 C 423.632812 295.859375 423.253906 294.382812 423.253906 293.128906 C 423.253906 291.578125 423.835938 289.480469 424.980469 286.519531 C 425.515625 285.128906 425.65625 284.757812 425.65625 284.078125 C 425.65625 282.570312 424.574219 281.320312 422.878906 281.320312 C 419.675781 281.320312 418.421875 286.207031 418.421875 286.519531 C 418.421875 286.855469 418.761719 286.855469 418.84375 286.855469 C 419.179688 286.855469 419.207031 286.78125 419.378906 286.242188 C 420.285156 283.0625 421.632812 282.0625 422.785156 282.0625 C 423.050781 282.0625 423.632812 282.0625 423.632812 283.136719 C 423.632812 283.984375 423.292969 284.851562 423.050781 285.503906 C 421.707031 289.078125 421.089844 291.003906 421.089844 292.59375 C 421.089844 295.589844 423.21875 296.605469 425.210938 296.605469 C 426.53125 296.605469 427.675781 296.03125 428.617188 295.089844 C 428.183594 296.835938 427.785156 298.496094 426.429688 300.292969 C 425.550781 301.429688 424.269531 302.417969 422.710938 302.417969 C 422.25 302.417969 420.726562 302.3125 420.148438 300.996094 C 420.691406 300.996094 421.132812 300.996094 421.597656 300.582031 C 421.9375 300.292969 422.277344 299.84375 422.277344 299.207031 C 422.277344 298.15625 421.367188 298.023438 421.03125 298.023438 C 420.257812 298.023438 419.132812 298.5625 419.132812 300.21875 C 419.132812 301.910156 420.625 303.15625 422.710938 303.15625 C 426.191406 303.15625 429.667969 300.074219 430.617188 296.265625 Z M 433.863281 283.375 "/>
<path style=" stroke:none;fill-rule:nonzero;fill:rgb(0%,0%,0%);fill-opacity:1;" d="M 442.078125 293.957031 L 442.175781 293.199219 L 443.789062 286.804688 C 443.976562 286.070312 443.996094 285.996094 444.992188 285.996094 L 447.757812 285.996094 C 449.945312 285.996094 451.3125 286.667969 451.3125 288.335938 C 451.3125 289.066406 451.035156 290.929688 449.851562 292 C 449.003906 292.75 447.664062 293.199219 445.957031 293.199219 L 442.175781 293.199219 L 442.078125 293.957031 L 446.363281 293.957031 C 450.351562 293.957031 453.726562 291.410156 453.726562 288.835938 C 453.726562 286.84375 451.789062 285.148438 448.550781 285.148438 L 440.292969 285.148438 C 439.816406 285.148438 439.539062 285.148438 439.539062 285.671875 C 439.539062 285.996094 439.796875 285.996094 440.3125 285.996094 C 440.699219 285.996094 440.792969 285.996094 441.210938 286.050781 C 441.695312 286.089844 441.734375 286.144531 441.734375 286.375 C 441.734375 286.421875 441.734375 286.539062 441.640625 286.898438 L 438.523438 299.335938 C 438.277344 300.257812 438.257812 300.425781 436.417969 300.425781 C 435.996094 300.425781 435.710938 300.425781 435.710938 300.941406 C 435.710938 300.96875 435.710938 301.273438 436.089844 301.273438 C 436.773438 301.273438 438.46875 301.179688 439.160156 301.179688 C 439.558594 301.179688 440.386719 301.179688 440.792969 301.199219 C 441.253906 301.234375 441.851562 301.273438 442.304688 301.273438 C 442.4375 301.273438 442.792969 301.273438 442.792969 300.753906 C 442.792969 300.425781 442.511719 300.425781 442.039062 300.425781 C 442.019531 300.425781 441.566406 300.425781 441.136719 300.375 C 440.601562 300.332031 440.601562 300.257812 440.601562 300.019531 C 440.601562 300 440.601562 299.851562 440.699219 299.507812 Z M 442.078125 293.957031 "/>
<path style=" stroke:none;fill-rule:nonzero;fill:rgb(0%,0%,0%);fill-opacity:1;" d="M 466.308594 287.800781 L 466.308594 287.546875 L 466.300781 287.285156 L 466.300781 287.019531 L 466.285156 286.742188 L 466.257812 286.171875 L 466.21875 285.578125 L 466.164062 284.953125 L 466.089844 284.308594 L 466.003906 283.652344 L 465.894531 282.96875 L 465.757812 282.277344 L 465.601562 281.578125 L 465.417969 280.867188 L 465.214844 280.148438 L 464.980469 279.425781 L 464.714844 278.699219 L 464.417969 277.980469 L 464.253906 277.621094 L 464.085938 277.265625 C 462.066406 273.117188 459.160156 270.921875 458.820312 270.921875 C 458.625 270.921875 458.480469 271.050781 458.480469 271.253906 C 458.480469 271.355469 458.480469 271.425781 459.117188 272.035156 C 462.433594 275.367188 464.363281 280.738281 464.363281 287.800781 C 464.363281 293.5625 463.109375 299.507812 458.914062 303.761719 C 458.480469 304.160156 458.480469 304.234375 458.480469 304.328125 C 458.480469 304.53125 458.625 304.667969 458.820312 304.667969 C 459.160156 304.667969 462.1875 302.371094 464.191406 298.089844 C 465.90625 294.382812 466.308594 290.636719 466.308594 287.800781 Z M 466.308594 287.800781 "/>
<path style=" stroke:none;fill-rule:nonzero;fill:rgb(0%,0%,0%);fill-opacity:1;" d="M 201.589844 344.082031 L 201.582031 343.453125 L 201.539062 342.832031 L 201.480469 342.226562 L 201.386719 341.632812 L 201.273438 341.054688 L 201.140625 340.492188 L 200.976562 339.949219 L 200.789062 339.421875 L 200.585938 338.910156 L 200.355469 338.410156 L 200.109375 337.933594 L 199.839844 337.472656 L 199.550781 337.03125 L 199.234375 336.605469 L 198.910156 336.207031 L 198.554688 335.824219 L 198.1875 335.457031 L 197.804688 335.109375 L 197.398438 334.785156 L 196.980469 334.488281 L 196.539062 334.207031 L 196.085938 333.953125 L 195.621094 333.714844 L 195.136719 333.503906 L 194.632812 333.316406 L 194.125 333.144531 L 193.597656 333.007812 L 193.058594 332.890625 L 192.507812 332.804688 L 191.9375 332.738281 L 191.367188 332.695312 L 190.78125 332.6875 L 190.527344 333.75 C 194.003906 333.75 197.824219 336.113281 197.824219 342.421875 C 197.824219 345.476562 196.675781 352.085938 192.480469 357.304688 C 190.449219 359.882812 186.964844 362.382812 183.417969 362.382812 C 179.214844 362.382812 176.257812 358.957031 176.257812 353.359375 C 176.257812 351.496094 176.84375 345.304688 180.109375 340.347656 C 183.035156 335.953125 187.175781 333.75 190.527344 333.75 L 190.78125 332.6875 C 181.640625 332.6875 172.3125 342.304688 172.3125 352.175781 C 172.3125 359.203125 177.054688 363.480469 183.160156 363.480469 C 192.132812 363.480469 201.589844 354.210938 201.589844 344.082031 Z M 201.589844 344.082031 "/>
<path style=" stroke:none;fill-rule:nonzero;fill:rgb(0%,0%,0%);fill-opacity:1;" d="M 240.519531 208.191406 C 240.519531 211.808594 237.585938 214.742188 233.96875 214.742188 C 230.351562 214.742188 227.417969 211.808594 227.417969 208.191406 C 227.417969 204.574219 230.351562 201.640625 233.96875 201.640625 C 237.585938 201.640625 240.519531 204.574219 240.519531 208.191406 Z M 240.519531 208.191406 "/>
<path style=" stroke:none;fill-rule:nonzero;fill:rgb(0%,0%,0%);fill-opacity:1;" d="M 301.316406 288.191406 C 301.316406 291.808594 298.386719 294.742188 294.769531 294.742188 C 291.152344 294.742188 288.21875 291.808594 288.21875 288.191406 C 288.21875 284.574219 291.152344 281.640625 294.769531 281.640625 C 298.386719 281.640625 301.316406 284.574219 301.316406 288.191406 Z M 301.316406 288.191406 "/>
</g>
</svg>
