<?xml version="1.0" encoding="UTF-8"?>
<svg xmlns="http://www.w3.org/2000/svg" xmlns:xlink="http://www.w3.org/1999/xlink" width="111pt" height="77pt" viewBox="0 0 111 77" version="1.1">
<defs>
<clipPath id="clip1">
  <path d="M 79 0.808594 L 82 0.808594 L 82 12 L 79 12 Z M 79 0.808594 "/>
</clipPath>
</defs>
<g id="surface1">
<g clip-path="url(#clip1)" clip-rule="nonzero">
<path style=" stroke:none;fill-rule:nonzero;fill:rgb(0%,0%,0%);fill-opacity:1;" d="M 80.183594 2.039062 C 80.425781 2.785156 80.808594 4.417969 81.023438 5.664062 C 81.382812 7.753906 81.382812 8.089844 81.046875 9.433594 C 80.617188 11.183594 80.710938 11.542969 81.265625 10.199219 C 81.839844 8.855469 81.625 5.039062 80.855469 2.6875 C 80.542969 1.703125 80.136719 0.863281 79.992188 0.816406 C 79.800781 0.746094 79.871094 1.175781 80.183594 2.039062 Z M 80.183594 2.039062 "/>
</g>
<path style=" stroke:none;fill-rule:nonzero;fill:rgb(0%,0%,0%);fill-opacity:1;" d="M 69.71875 3.433594 L 69.886719 5.6875 L 68.664062 6.214844 C 67.488281 6.695312 67.441406 6.769531 67.441406 7.632812 C 67.441406 8.976562 67.847656 10.199219 68.542969 10.945312 C 69.097656 11.542969 69.191406 11.566406 69.527344 11.230469 C 69.769531 11.015625 70.03125 9.960938 70.246094 8.617188 C 70.511719 6.695312 70.65625 6.3125 71.207031 5.808594 L 71.878906 5.230469 L 71.207031 5.351562 C 70.558594 5.472656 70.558594 5.472656 70.535156 4.007812 C 70.511719 2.257812 70.296875 1.417969 69.863281 1.273438 C 69.625 1.199219 69.574219 1.609375 69.71875 3.433594 Z M 69.695312 6.886719 C 69.863281 7.34375 69.839844 9 69.625 9.960938 C 69.382812 11.113281 68.929688 10.96875 68.257812 9.527344 C 67.753906 8.398438 67.703125 8.113281 67.945312 7.65625 C 68.519531 6.601562 69.433594 6.191406 69.695312 6.886719 Z M 69.695312 6.886719 "/>
<path style=" stroke:none;fill-rule:nonzero;fill:rgb(0%,0%,0%);fill-opacity:1;" d="M 72.71875 2.953125 C 72.71875 4.105469 73.320312 6.382812 73.777344 7.105469 C 74.328125 7.945312 74.496094 7.726562 74.015625 6.792969 C 73.824219 6.382812 73.609375 5.28125 73.558594 4.34375 C 73.511719 3.433594 73.414062 2.566406 73.320312 2.425781 C 73.007812 1.945312 72.71875 2.207031 72.71875 2.953125 Z M 72.71875 2.953125 "/>
<path style=" stroke:none;fill-rule:nonzero;fill:rgb(0%,0%,0%);fill-opacity:1;" d="M 74.878906 2.976562 C 74.878906 3.144531 75.214844 3.601562 75.601562 3.984375 C 76.128906 4.488281 76.320312 4.894531 76.34375 5.519531 C 76.34375 6 76.441406 6.816406 76.535156 7.34375 L 76.753906 8.304688 L 76.777344 7.03125 C 76.800781 5.566406 77.136719 5.304688 78.167969 5.953125 C 78.769531 6.335938 78.742188 6.289062 77.953125 5.351562 C 76.96875 4.25 76.824219 3.863281 77.425781 3.863281 C 77.6875 3.863281 77.761719 3.746094 77.664062 3.480469 C 77.59375 3.265625 77.519531 3.046875 77.519531 3 C 77.519531 2.738281 76.945312 2.953125 76.679688 3.3125 C 76.390625 3.695312 76.320312 3.695312 75.910156 3.359375 C 75.191406 2.738281 74.878906 2.617188 74.878906 2.976562 Z M 74.878906 2.976562 "/>
<path style=" stroke:none;fill-rule:nonzero;fill:rgb(0%,0%,0%);fill-opacity:1;" d="M 84.601562 6.746094 C 84.359375 7.152344 84.886719 7.632812 85.199219 7.320312 C 85.390625 7.128906 85.34375 6.960938 85.105469 6.769531 C 84.863281 6.550781 84.71875 6.550781 84.601562 6.746094 Z M 84.601562 6.746094 "/>
<path style=" stroke:none;fill-rule:nonzero;fill:rgb(0%,0%,0%);fill-opacity:1;" d="M 63.40625 7.367188 C 63.289062 7.632812 63.121094 8.304688 63.046875 8.90625 C 62.832031 10.441406 61.105469 15.746094 59.710938 19.105469 C 58.078125 23.015625 55.992188 27.746094 55.273438 29.160156 C 54.265625 31.152344 49.246094 38.640625 47.183594 41.207031 C 45.335938 43.535156 45.191406 43.65625 44.160156 43.800781 C 42.792969 43.992188 23.449219 45.410156 23.375 45.3125 C 23.160156 45.121094 23.207031 19.679688 23.425781 19.464844 C 23.734375 19.152344 22.585938 15.578125 22.222656 15.695312 C 21.769531 15.816406 20.351562 18.914062 20.230469 20.0625 C 20.0625 21.359375 20.328125 21.433594 21.527344 20.519531 C 21.984375 20.183594 22.414062 19.96875 22.511719 20.0625 C 22.609375 20.136719 22.703125 25.871094 22.777344 32.761719 L 22.847656 45.3125 L 20.617188 45.480469 C 16.34375 45.792969 4.679688 46.082031 3.839844 45.886719 C 3.167969 45.769531 2.976562 45.601562 2.929688 45.074219 C 2.878906 44.710938 2.734375 44.425781 2.59375 44.425781 C 2.207031 44.425781 0.0234375 46.199219 0 46.511719 C 0 46.894531 1.65625 48.023438 2.230469 48.023438 C 2.496094 48.023438 2.761719 47.761719 2.902344 47.351562 L 3.144531 46.679688 L 10.511719 46.367188 C 14.566406 46.222656 19.054688 46.007812 20.496094 45.9375 L 23.089844 45.792969 L 22.992188 50.449219 C 22.894531 54.503906 22.824219 55.199219 22.414062 55.894531 C 21.960938 56.664062 21.960938 56.6875 22.414062 57.023438 C 22.800781 57.3125 22.894531 57.863281 23.0625 61.03125 C 23.183594 63.046875 23.375 65.761719 23.519531 67.054688 C 23.640625 68.351562 23.761719 69.839844 23.761719 70.34375 C 23.761719 71.207031 23.710938 71.304688 23.136719 71.304688 C 22.609375 71.304688 22.535156 71.375 22.65625 71.832031 C 22.726562 72.144531 22.800781 72.457031 22.800781 72.550781 C 22.800781 72.671875 22.945312 72.746094 23.136719 72.746094 C 23.496094 72.746094 23.617188 73.007812 23.878906 74.425781 C 24.289062 76.65625 24.503906 76.558594 25.078125 73.847656 C 25.535156 71.664062 25.464844 71.089844 24.71875 70.894531 C 24.457031 70.824219 24.238281 70.65625 24.238281 70.488281 C 24.238281 70.34375 24.097656 68.328125 23.902344 66.023438 C 23.710938 63.71875 23.496094 60.71875 23.398438 59.398438 L 23.257812 56.953125 L 25.007812 56.542969 C 27.816406 55.871094 31.199219 54.746094 32.761719 53.976562 C 35.953125 52.367188 40.007812 49.367188 43.96875 45.648438 L 45.503906 44.207031 L 48.503906 43.96875 C 56.734375 43.273438 77.566406 42.359375 91.152344 42.121094 L 99.839844 41.953125 L 99.839844 42.886719 C 99.839844 43.417969 99.71875 43.96875 99.550781 44.136719 C 99.40625 44.28125 99.335938 44.472656 99.40625 44.542969 C 99.550781 44.6875 102.238281 42.960938 102.695312 42.433594 C 102.984375 42.074219 102.910156 41.976562 102.214844 41.617188 C 101.785156 41.375 100.945312 40.753906 100.367188 40.222656 L 99.289062 39.265625 L 99.433594 40.175781 C 99.550781 40.96875 99.503906 41.113281 99.046875 41.28125 C 98.761719 41.375 95.398438 41.542969 91.558594 41.640625 C 80.113281 41.878906 69.625 42.242188 65.089844 42.503906 C 51.839844 43.273438 48.71875 43.488281 47.59375 43.609375 C 46.777344 43.679688 46.320312 43.65625 46.320312 43.488281 C 46.320312 43.34375 47.472656 41.664062 48.910156 39.769531 C 54.191406 32.617188 55.871094 29.617188 59.6875 20.425781 C 62.015625 14.808594 64.320312 7.609375 63.886719 7.175781 C 63.71875 7.007812 63.574219 7.082031 63.40625 7.367188 Z M 22.273438 18.023438 C 22.511719 18.648438 22.464844 18.839844 21.9375 19.464844 C 21.097656 20.425781 20.785156 20.375 20.953125 19.320312 C 21.070312 18.550781 21.695312 17.304688 21.9375 17.304688 C 21.984375 17.304688 22.152344 17.617188 22.273438 18.023438 Z M 101.878906 42.242188 C 102.070312 42.601562 101.039062 43.082031 100.753906 42.792969 C 100.609375 42.648438 100.585938 42.433594 100.65625 42.289062 C 100.871094 41.953125 101.6875 41.953125 101.878906 42.242188 Z M 44.160156 44.640625 C 44.160156 44.90625 41.878906 46.894531 38.617188 49.488281 C 34.464844 52.753906 28.703125 55.367188 24.574219 55.847656 L 23.28125 56.015625 L 23.28125 45.914062 L 24.191406 45.769531 C 24.671875 45.695312 26.808594 45.503906 28.921875 45.359375 C 31.03125 45.214844 34.535156 44.953125 36.71875 44.785156 C 41.664062 44.425781 44.160156 44.351562 44.160156 44.640625 Z M 2.0625 46.847656 C 2.136719 46.992188 2.089844 47.230469 1.945312 47.375 C 1.726562 47.59375 1.609375 47.566406 1.441406 47.304688 C 1.320312 47.113281 1.199219 46.871094 1.199219 46.753906 C 1.199219 46.488281 1.871094 46.558594 2.0625 46.847656 Z M 2.0625 46.847656 "/>
<path style=" stroke:none;fill-rule:nonzero;fill:rgb(0%,0%,0%);fill-opacity:1;" d="M 27.839844 13.535156 C 27.839844 14.28125 27.457031 15.382812 27.167969 15.382812 C 27.070312 15.382812 26.710938 14.878906 26.398438 14.230469 C 26.015625 13.488281 25.800781 13.25 25.753906 13.511719 C 25.632812 13.992188 26.449219 15.648438 27 16.105469 C 27.359375 16.390625 27.457031 16.390625 27.742188 16.007812 C 27.910156 15.769531 28.105469 15.433594 28.152344 15.289062 C 28.320312 14.855469 28.558594 15.265625 28.726562 16.175781 C 28.824219 16.871094 28.726562 17.257812 28.105469 18.167969 C 27.695312 18.792969 27.359375 19.417969 27.359375 19.558594 C 27.359375 20.113281 28.128906 20.90625 28.65625 20.90625 C 29.59375 20.90625 29.832031 20.351562 29.664062 18.769531 L 29.496094 17.351562 L 30.601562 16.464844 C 31.894531 15.410156 31.871094 15.074219 30.574219 15.960938 C 30.097656 16.296875 29.617188 16.511719 29.519531 16.464844 C 29.425781 16.417969 29.160156 15.71875 28.921875 14.90625 C 28.414062 13.273438 27.839844 12.527344 27.839844 13.535156 Z M 29.183594 18.839844 C 29.472656 20.0625 28.847656 20.929688 28.34375 19.96875 C 28.175781 19.65625 28.152344 19.296875 28.320312 18.886719 C 28.609375 18.097656 28.992188 18.097656 29.183594 18.839844 Z M 29.183594 18.839844 "/>
<path style=" stroke:none;fill-rule:nonzero;fill:rgb(0%,0%,0%);fill-opacity:1;" d="M 109.753906 39.746094 C 109.390625 40.34375 109.03125 40.824219 108.960938 40.824219 C 108.886719 40.824219 108.574219 40.441406 108.265625 39.984375 C 107.953125 39.527344 107.617188 39.144531 107.496094 39.144531 C 107.0625 39.144531 107.304688 40.03125 107.878906 40.585938 C 108.648438 41.304688 108.625 41.566406 107.734375 43.152344 C 106.777344 44.832031 106.96875 45.023438 108.023438 43.464844 C 108.480469 42.816406 108.910156 42.265625 108.984375 42.265625 C 109.078125 42.265625 109.511719 42.816406 109.945312 43.488281 C 110.902344 44.976562 111.167969 44.640625 110.304688 43.082031 C 109.535156 41.6875 109.511719 41.136719 110.28125 40.105469 C 110.617188 39.648438 110.878906 39.144531 110.878906 38.976562 C 110.878906 38.375 110.449219 38.664062 109.753906 39.746094 Z M 109.753906 39.746094 "/>
<path style=" stroke:none;fill-rule:nonzero;fill:rgb(0%,0%,0%);fill-opacity:1;" d="M 17.449219 47.808594 C 15.910156 48.695312 15.695312 53.160156 17.136719 53.808594 C 18.457031 54.410156 20.398438 52.488281 20.398438 50.566406 C 20.398438 48.382812 18.886719 46.96875 17.449219 47.808594 Z M 19.199219 48.503906 C 20.207031 49.511719 20.089844 51.480469 18.960938 52.632812 C 17.230469 54.359375 16.222656 52.488281 17.160156 49.273438 C 17.496094 48.214844 17.617188 48.023438 18.121094 48.023438 C 18.457031 48.023438 18.9375 48.242188 19.199219 48.503906 Z M 19.199219 48.503906 "/>
</g>
</svg>
