<?xml version="1.0" encoding="UTF-8"?>
<svg xmlns="http://www.w3.org/2000/svg" xmlns:xlink="http://www.w3.org/1999/xlink" width="101pt" height="64pt" viewBox="0 0 101 64" version="1.1">
<defs>
<clipPath id="clip1">
  <path d="M 4 0.207031 L 8 0.207031 L 8 11 L 4 11 Z M 4 0.207031 "/>
</clipPath>
</defs>
<g id="surface1">
<g clip-path="url(#clip1)" clip-rule="nonzero">
<path style=" stroke:none;fill-rule:nonzero;fill:rgb(0%,0%,0%);fill-opacity:1;" d="M 6.171875 1.078125 C 5.691406 2.328125 5.425781 2.421875 5.1875 1.488281 C 5.019531 0.886719 4.996094 0.886719 4.828125 1.320312 C 4.539062 1.992188 4.539062 3.070312 4.828125 3.238281 C 4.945312 3.3125 5.308594 3.214844 5.59375 3.023438 C 6.242188 2.566406 6.746094 2.519531 6.746094 2.921875 C 6.746094 3.09375 6.433594 3.839844 6.050781 4.558594 C 5.667969 5.28125 5.234375 6.503906 5.066406 7.246094 C 4.777344 8.472656 4.804688 8.664062 5.210938 9.382812 C 6.195312 11.0625 6.652344 10.414062 6.988281 6.933594 C 7.105469 5.589844 7.347656 4.34375 7.515625 4.152344 C 7.707031 3.910156 7.707031 3.742188 7.539062 3.648438 C 7.417969 3.546875 7.226562 2.785156 7.15625 1.941406 C 6.988281 -0.046875 6.699219 -0.3125 6.171875 1.078125 Z M 6.386719 7.847656 C 6.316406 8.421875 6.148438 8.878906 6.003906 8.878906 C 5.667969 8.878906 5.738281 6.046875 6.097656 5.449219 C 6.363281 4.941406 6.386719 4.992188 6.460938 5.878906 C 6.507812 6.40625 6.484375 7.296875 6.386719 7.847656 Z M 6.386719 7.847656 "/>
</g>
<path style=" stroke:none;fill-rule:nonzero;fill:rgb(0%,0%,0%);fill-opacity:1;" d="M 67.945312 2.28125 C 67.945312 2.472656 68.042969 2.640625 68.164062 2.640625 C 68.285156 2.640625 68.425781 2.472656 68.523438 2.28125 C 68.59375 2.0625 68.523438 1.917969 68.308594 1.917969 C 68.117188 1.917969 67.945312 2.085938 67.945312 2.28125 Z M 67.945312 2.28125 "/>
<path style=" stroke:none;fill-rule:nonzero;fill:rgb(0%,0%,0%);fill-opacity:1;" d="M 66.652344 4.582031 C 66.171875 4.96875 66.027344 5.304688 66.027344 6 C 66.027344 7.171875 66.507812 7.605469 67.441406 7.222656 C 68.378906 6.816406 68.691406 6.046875 68.308594 5.109375 C 67.898438 4.152344 67.394531 4.007812 66.652344 4.582031 Z M 66.652344 4.582031 "/>
<path style=" stroke:none;fill-rule:nonzero;fill:rgb(0%,0%,0%);fill-opacity:1;" d="M 64.730469 8.785156 C 64.515625 9.3125 64.804688 9.546875 65.066406 9.121094 C 65.355469 8.664062 65.355469 8.398438 65.089844 8.398438 C 64.972656 8.398438 64.804688 8.566406 64.730469 8.785156 Z M 64.730469 8.785156 "/>
<path style=" stroke:none;fill-rule:nonzero;fill:rgb(0%,0%,0%);fill-opacity:1;" d="M 11.621094 10.632812 C 11.019531 11.519531 10.105469 13.558594 10.105469 14.039062 C 10.105469 14.449219 10.609375 14.855469 11.257812 14.953125 C 11.546875 15 11.929688 15.167969 12.074219 15.3125 C 12.292969 15.527344 12.410156 19.246094 12.53125 29.230469 C 12.628906 36.71875 12.84375 43.96875 12.964844 45.335938 C 13.105469 46.703125 13.226562 48.167969 13.226562 48.625 L 13.226562 49.4375 L 6.339844 49.464844 C 2.5 49.488281 -0.308594 49.582031 0.0273438 49.679688 C 0.363281 49.773438 3.460938 49.871094 6.914062 49.894531 C 10.371094 49.917969 13.25 49.992188 13.300781 50.085938 C 13.441406 50.304688 13.898438 56.519531 13.996094 59.398438 C 14.042969 60.863281 13.996094 61.296875 13.753906 61.246094 C 13.394531 61.175781 13.609375 62.351562 14.066406 62.855469 C 14.621094 63.429688 14.714844 62.375 14.425781 58.390625 C 14.308594 56.304688 14.117188 53.566406 14.042969 52.296875 L 13.875 49.96875 L 19.132812 49.824219 C 22.011719 49.726562 28.921875 49.511719 34.46875 49.320312 C 54.746094 48.625 78.003906 48 84.578125 48 C 86.621094 48 86.667969 48.023438 86.667969 48.574219 C 86.667969 48.886719 86.859375 49.367188 87.097656 49.65625 L 87.507812 50.160156 L 88.5625 49.4375 C 89.140625 49.03125 90.265625 48.480469 91.035156 48.191406 C 91.804688 47.921875 92.355469 47.617188 92.257812 47.519531 C 92.164062 47.421875 91.417969 47.109375 90.628906 46.796875 C 88.945312 46.152344 87.699219 45.382812 87.050781 44.664062 C 86.789062 44.398438 86.523438 44.160156 86.425781 44.160156 C 86.332031 44.160156 86.285156 44.878906 86.285156 45.765625 L 86.308594 47.398438 L 82.417969 47.566406 C 80.308594 47.664062 73.226562 47.855469 66.699219 47.976562 C 60.195312 48.121094 48.9375 48.429688 41.667969 48.71875 C 34.417969 48.984375 25.179688 49.222656 21.171875 49.246094 L 13.851562 49.320312 L 13.683594 48.480469 C 13.371094 47.015625 12.988281 33.429688 12.988281 24.121094 L 12.988281 15.167969 L 13.609375 14.757812 C 14.117188 14.449219 14.210938 14.207031 14.117188 13.726562 C 13.921875 12.816406 12.554688 9.839844 12.339844 9.839844 C 12.242188 9.839844 11.90625 10.199219 11.621094 10.632812 Z M 12.578125 11.785156 C 12.265625 12.09375 11.90625 11.664062 12.171875 11.253906 C 12.265625 11.0625 12.386719 11.0625 12.578125 11.253906 C 12.769531 11.449219 12.769531 11.589844 12.578125 11.785156 Z M 12.050781 13.222656 C 12.195312 13.871094 11.90625 14.398438 11.378906 14.398438 C 10.898438 14.398438 10.777344 13.871094 11.066406 13.101562 C 11.355469 12.335938 11.835938 12.382812 12.050781 13.222656 Z M 13.226562 13.199219 C 13.226562 13.582031 13.132812 13.917969 12.988281 13.917969 C 12.867188 13.917969 12.746094 13.582031 12.746094 13.199219 C 12.746094 12.792969 12.867188 12.480469 12.988281 12.480469 C 13.132812 12.480469 13.226562 12.792969 13.226562 13.199219 Z M 88.945312 46.605469 C 89.8125 47.039062 90.507812 47.449219 90.507812 47.542969 C 90.507812 47.6875 87.820312 49.199219 87.53125 49.199219 C 87.460938 49.199219 87.386719 48.910156 87.386719 48.574219 C 87.386719 48.167969 87.53125 47.902344 87.867188 47.832031 C 88.539062 47.664062 88.46875 47.28125 87.746094 47.28125 C 87.242188 47.28125 87.148438 47.160156 87.148438 46.558594 C 87.148438 46.152344 87.195312 45.839844 87.265625 45.839844 C 87.316406 45.839844 88.082031 46.171875 88.945312 46.605469 Z M 88.945312 46.605469 "/>
<path style=" stroke:none;fill-rule:nonzero;fill:rgb(0%,0%,0%);fill-opacity:1;" d="M 83.066406 11.542969 C 83.066406 11.664062 83.308594 12.238281 83.59375 12.792969 C 84.074219 13.679688 84.148438 14.160156 84.148438 16.917969 C 84.148438 19.894531 84.125 20.085938 83.476562 21.214844 C 83.117188 21.863281 82.851562 22.4375 82.921875 22.488281 C 83.140625 22.703125 84.265625 21 84.53125 20.085938 C 84.890625 18.695312 84.675781 14.109375 84.148438 12.671875 C 83.789062 11.6875 83.066406 10.917969 83.066406 11.542969 Z M 83.066406 11.542969 "/>
<path style=" stroke:none;fill-rule:nonzero;fill:rgb(0%,0%,0%);fill-opacity:1;" d="M 62.789062 12.214844 C 62.714844 12.335938 62.761719 12.503906 62.90625 12.597656 C 63.027344 12.671875 63.148438 12.574219 63.148438 12.382812 C 63.148438 11.953125 63.003906 11.878906 62.789062 12.214844 Z M 62.789062 12.214844 "/>
<path style=" stroke:none;fill-rule:nonzero;fill:rgb(0%,0%,0%);fill-opacity:1;" d="M 61.273438 13.128906 C 60.84375 13.296875 60.265625 14.519531 60.265625 15.3125 C 60.265625 17.015625 62.019531 16.941406 63.003906 15.191406 C 63.21875 14.808594 62.546875 13.511719 61.996094 13.246094 C 61.777344 13.128906 61.441406 13.078125 61.273438 13.128906 Z M 61.273438 13.128906 "/>
<path style=" stroke:none;fill-rule:nonzero;fill:rgb(0%,0%,0%);fill-opacity:1;" d="M 72.027344 13.96875 C 71.882812 14.28125 71.644531 15.382812 71.476562 16.414062 L 71.1875 18.3125 L 69.820312 18.792969 C 68.308594 19.269531 68.066406 19.75 68.882812 20.496094 C 69.339844 20.902344 69.339844 20.902344 69.21875 20.449219 C 69.097656 19.96875 70.105469 18.960938 70.730469 18.960938 C 71.210938 18.960938 71.378906 19.941406 71.140625 21.144531 C 70.972656 21.910156 70.804688 22.199219 70.515625 22.171875 C 70.203125 22.152344 70.179688 22.222656 70.347656 22.582031 C 70.996094 23.785156 71.476562 23.085938 71.738281 20.589844 C 71.90625 18.863281 71.929688 18.839844 72.820312 18.40625 C 73.300781 18.191406 73.707031 17.976562 73.707031 17.921875 C 73.707031 17.878906 73.324219 17.902344 72.867188 17.953125 L 72.027344 18.046875 L 72.027344 16.605469 C 72.027344 15.625 72.148438 15.09375 72.386719 14.878906 C 72.796875 14.542969 72.867188 13.773438 72.507812 13.558594 C 72.386719 13.488281 72.148438 13.65625 72.027344 13.96875 Z M 72.027344 13.96875 "/>
<path style=" stroke:none;fill-rule:nonzero;fill:rgb(0%,0%,0%);fill-opacity:1;" d="M 75.050781 14.519531 C 74.761719 15.289062 74.90625 17.757812 75.292969 18.71875 C 75.746094 19.847656 76.394531 20.304688 77.019531 19.941406 C 77.378906 19.726562 77.378906 19.703125 76.898438 19.679688 C 75.796875 19.679688 75.386719 18.238281 75.628906 15.144531 C 75.675781 14.449219 75.265625 13.96875 75.050781 14.519531 Z M 75.050781 14.519531 "/>
<path style=" stroke:none;fill-rule:nonzero;fill:rgb(0%,0%,0%);fill-opacity:1;" d="M 80.164062 14.6875 C 79.753906 15.480469 79.753906 15.480469 79.226562 15 C 78.769531 14.589844 78.746094 14.589844 78.746094 14.976562 C 78.746094 15.214844 78.867188 15.625 79.011719 15.886719 C 79.15625 16.171875 79.273438 17.085938 79.25 17.921875 C 79.226562 18.816406 79.324219 19.4375 79.46875 19.4375 C 79.585938 19.4375 79.707031 19.222656 79.707031 18.984375 C 79.707031 17.902344 79.921875 17.757812 80.738281 18.261719 C 81.914062 18.960938 82.011719 18.816406 81.050781 17.757812 C 80.570312 17.230469 80.1875 16.703125 80.1875 16.582031 C 80.1875 15.984375 80.691406 15.121094 81.050781 15.121094 C 81.316406 15.121094 81.386719 15 81.292969 14.734375 C 81.21875 14.519531 81.148438 14.304688 81.148438 14.253906 C 81.148438 13.917969 80.402344 14.253906 80.164062 14.6875 Z M 80.164062 14.6875 "/>
<path style=" stroke:none;fill-rule:nonzero;fill:rgb(0%,0%,0%);fill-opacity:1;" d="M 59.234375 17.921875 C 59.140625 18 59.066406 18.191406 59.066406 18.335938 C 59.066406 18.480469 59.1875 18.457031 59.355469 18.289062 C 59.5 18.144531 59.570312 17.953125 59.523438 17.878906 C 59.453125 17.808594 59.308594 17.832031 59.234375 17.921875 Z M 59.234375 17.921875 "/>
<path style=" stroke:none;fill-rule:nonzero;fill:rgb(0%,0%,0%);fill-opacity:1;" d="M 56.570312 22.054688 C 56.476562 22.222656 56.453125 22.414062 56.523438 22.488281 C 56.738281 22.703125 56.980469 22.390625 56.859375 22.054688 C 56.761719 21.792969 56.714844 21.792969 56.570312 22.054688 Z M 56.570312 22.054688 "/>
<path style=" stroke:none;fill-rule:nonzero;fill:rgb(0%,0%,0%);fill-opacity:1;" d="M 54.507812 22.605469 C 53.957031 23.207031 53.859375 24.527344 54.386719 24.960938 C 54.84375 25.320312 55.585938 25.078125 56.164062 24.335938 C 56.691406 23.664062 56.59375 22.941406 55.875 22.4375 C 55.203125 21.960938 55.105469 21.984375 54.507812 22.605469 Z M 54.507812 22.605469 "/>
<path style=" stroke:none;fill-rule:nonzero;fill:rgb(0%,0%,0%);fill-opacity:1;" d="M 50.546875 29.28125 C 50.476562 29.398438 50.523438 29.519531 50.644531 29.519531 C 50.789062 29.519531 50.90625 29.398438 50.90625 29.28125 C 50.90625 29.136719 50.859375 29.039062 50.8125 29.039062 C 50.738281 29.039062 50.621094 29.136719 50.546875 29.28125 Z M 50.546875 29.28125 "/>
<path style=" stroke:none;fill-rule:nonzero;fill:rgb(0%,0%,0%);fill-opacity:1;" d="M 47.164062 30.359375 C 46.730469 31.414062 46.683594 32.878906 47.117188 32.449219 C 47.285156 32.28125 47.691406 32.160156 48.050781 32.160156 C 48.675781 32.160156 49.707031 31.222656 49.707031 30.695312 C 49.707031 30.261719 48.722656 29.519531 48.125 29.519531 C 47.667969 29.519531 47.453125 29.710938 47.164062 30.359375 Z M 47.164062 30.359375 "/>
<path style=" stroke:none;fill-rule:nonzero;fill:rgb(0%,0%,0%);fill-opacity:1;" d="M 44.667969 33.121094 C 44.667969 33.574219 44.738281 33.625 44.957031 33.40625 C 45.171875 33.191406 45.171875 33.046875 44.957031 32.832031 C 44.738281 32.617188 44.667969 32.664062 44.667969 33.121094 Z M 44.667969 33.121094 "/>
<path style=" stroke:none;fill-rule:nonzero;fill:rgb(0%,0%,0%);fill-opacity:1;" d="M 42.867188 34.078125 C 42.796875 34.199219 42.820312 34.320312 42.964844 34.320312 C 43.082031 34.320312 43.273438 34.199219 43.347656 34.078125 C 43.417969 33.933594 43.394531 33.839844 43.25 33.839844 C 43.132812 33.839844 42.9375 33.933594 42.867188 34.078125 Z M 42.867188 34.078125 "/>
<path style=" stroke:none;fill-rule:nonzero;fill:rgb(0%,0%,0%);fill-opacity:1;" d="M 39.21875 34.582031 C 38.929688 34.679688 38.523438 35.109375 38.308594 35.496094 C 38.117188 35.902344 37.730469 36.335938 37.46875 36.480469 C 37.203125 36.625 37.035156 36.863281 37.132812 36.984375 C 37.226562 37.171875 37.347656 37.171875 37.539062 36.984375 C 37.707031 36.816406 37.921875 36.816406 38.234375 36.984375 C 38.523438 37.128906 38.980469 37.128906 39.578125 36.960938 C 40.660156 36.671875 40.851562 36.527344 41.355469 35.734375 C 41.738281 35.136719 41.738281 35.136719 40.730469 34.75 C 40.105469 34.511719 39.554688 34.464844 39.21875 34.582031 Z M 39.21875 34.582031 "/>
<path style=" stroke:none;fill-rule:nonzero;fill:rgb(0%,0%,0%);fill-opacity:1;" d="M 29.453125 37.320312 C 29.234375 37.535156 29.066406 38.0625 29.066406 38.496094 C 29.066406 39.863281 29.957031 40.222656 31.082031 39.335938 C 31.804688 38.757812 31.875 38.160156 31.300781 37.632812 C 30.601562 37.007812 29.882812 36.910156 29.453125 37.320312 Z M 29.453125 37.320312 "/>
<path style=" stroke:none;fill-rule:nonzero;fill:rgb(0%,0%,0%);fill-opacity:1;" d="M 33.628906 37.773438 C 33.628906 37.847656 33.746094 37.96875 33.867188 38.039062 C 34.011719 38.109375 34.105469 38.0625 34.105469 37.941406 C 34.105469 37.796875 34.011719 37.679688 33.867188 37.679688 C 33.746094 37.679688 33.628906 37.726562 33.628906 37.773438 Z M 33.628906 37.773438 "/>
<path style=" stroke:none;fill-rule:nonzero;fill:rgb(0%,0%,0%);fill-opacity:1;" d="M 26.546875 39.121094 C 26.476562 39.238281 26.570312 39.359375 26.761719 39.359375 C 26.980469 39.359375 27.148438 39.238281 27.148438 39.121094 C 27.148438 38.976562 27.050781 38.878906 26.929688 38.878906 C 26.789062 38.878906 26.621094 38.976562 26.546875 39.121094 Z M 26.546875 39.121094 "/>
<path style=" stroke:none;fill-rule:nonzero;fill:rgb(0%,0%,0%);fill-opacity:1;" d="M 49.875 39.527344 C 49.777344 39.597656 49.707031 39.910156 49.730469 40.171875 C 49.730469 40.632812 49.753906 40.632812 49.972656 40.101562 C 50.210938 39.527344 50.164062 39.238281 49.875 39.527344 Z M 49.875 39.527344 "/>
<path style=" stroke:none;fill-rule:nonzero;fill:rgb(0%,0%,0%);fill-opacity:1;" d="M 95.546875 46.171875 C 95.546875 47.0625 95.789062 47.519531 96.265625 47.519531 C 97.105469 47.519531 97.347656 48.167969 97.011719 49.390625 C 96.433594 51.429688 96.433594 51.527344 96.796875 51.070312 C 96.964844 50.855469 97.300781 50.328125 97.539062 49.917969 L 97.945312 49.152344 L 98.90625 50.015625 C 100.417969 51.382812 100.441406 51.167969 98.980469 49.246094 C 98.332031 48.40625 98.234375 48.121094 98.453125 47.734375 C 98.570312 47.472656 98.789062 47.328125 98.929688 47.398438 C 99.050781 47.496094 99.148438 47.328125 99.148438 47.0625 C 99.148438 46.269531 98.621094 46.199219 98.066406 46.894531 L 97.539062 47.566406 L 96.867188 46.75 C 95.90625 45.597656 95.546875 45.457031 95.546875 46.171875 Z M 95.546875 46.171875 "/>
<path style=" stroke:none;fill-rule:nonzero;fill:rgb(0%,0%,0%);fill-opacity:1;" d="M 57.769531 50.519531 C 56.882812 52.488281 56.882812 52.679688 57.84375 52.679688 C 58.683594 52.679688 58.945312 52.941406 59.1875 54.046875 C 59.402344 55.101562 59.789062 54.839844 59.789062 53.664062 C 59.789062 53.0625 59.90625 52.511719 60.074219 52.414062 C 60.265625 52.296875 60.242188 52.171875 60.003906 51.984375 C 59.8125 51.839844 59.453125 51.214844 59.210938 50.589844 C 58.972656 49.96875 58.707031 49.390625 58.585938 49.320312 C 58.46875 49.246094 58.105469 49.796875 57.769531 50.519531 Z M 58.585938 51.597656 C 58.585938 51.71875 58.492188 51.839844 58.347656 51.839844 C 58.226562 51.839844 58.105469 51.71875 58.105469 51.597656 C 58.105469 51.457031 58.226562 51.359375 58.347656 51.359375 C 58.492188 51.359375 58.585938 51.457031 58.585938 51.597656 Z M 58.585938 51.597656 "/>
<path style=" stroke:none;fill-rule:nonzero;fill:rgb(0%,0%,0%);fill-opacity:1;" d="M 74.957031 50.039062 C 74.332031 50.808594 74.066406 52.464844 74.402344 53.328125 C 74.859375 54.527344 77.1875 54.429688 77.019531 53.207031 C 76.945312 52.75 76.804688 52.679688 75.867188 52.679688 C 74.8125 52.679688 74.789062 52.65625 74.835938 51.960938 C 74.859375 51.574219 75.125 50.953125 75.410156 50.566406 C 76.082031 49.632812 75.652344 49.152344 74.957031 50.039062 Z M 76.226562 53.28125 C 76.300781 53.398438 76.15625 53.519531 75.867188 53.519531 C 75.578125 53.519531 75.433594 53.398438 75.507812 53.28125 C 75.578125 53.136719 75.746094 53.039062 75.867188 53.039062 C 75.988281 53.039062 76.15625 53.136719 76.226562 53.28125 Z M 76.226562 53.28125 "/>
<path style=" stroke:none;fill-rule:nonzero;fill:rgb(0%,0%,0%);fill-opacity:1;" d="M 65.90625 50.640625 C 65.453125 51.527344 65.570312 52.078125 66.265625 52.078125 C 66.554688 52.078125 66.867188 52.320312 67.035156 52.703125 C 67.300781 53.230469 67.273438 53.375 66.867188 53.664062 C 66.628906 53.855469 66.265625 54 66.097656 54 C 65.929688 54 65.789062 54.09375 65.789062 54.238281 C 65.789062 54.742188 66.964844 54.457031 67.441406 53.855469 C 67.898438 53.28125 67.898438 53.183594 67.5625 52.296875 C 67.105469 51.214844 67.25 50.640625 67.921875 50.640625 C 68.1875 50.640625 68.476562 50.519531 68.546875 50.398438 C 68.644531 50.253906 68.402344 50.160156 68.019531 50.160156 C 67.660156 50.160156 67.105469 50.085938 66.820312 50.015625 C 66.410156 49.894531 66.21875 50.039062 65.90625 50.640625 Z M 65.90625 50.640625 "/>
<path style=" stroke:none;fill-rule:nonzero;fill:rgb(0%,0%,0%);fill-opacity:1;" d="M 49.660156 50.421875 C 48.964844 50.808594 49.105469 51.429688 49.828125 51.261719 C 50.378906 51.121094 50.425781 51.191406 50.425781 51.839844 C 50.425781 52.296875 50.59375 52.65625 50.90625 52.847656 C 51.601562 53.28125 51.507812 53.472656 50.425781 53.757812 C 49.46875 54.023438 49.300781 54.480469 50.164062 54.480469 C 50.957031 54.480469 52.105469 53.953125 52.105469 53.589844 C 52.105469 53.398438 51.890625 52.96875 51.628906 52.632812 C 51.363281 52.296875 51.148438 51.71875 51.148438 51.335938 C 51.148438 50.902344 50.980469 50.566406 50.691406 50.398438 C 50.140625 50.109375 50.164062 50.109375 49.660156 50.421875 Z M 49.660156 50.421875 "/>
<path style=" stroke:none;fill-rule:nonzero;fill:rgb(0%,0%,0%);fill-opacity:1;" d="M 41.042969 51.070312 C 40.660156 51.40625 40.5625 51.648438 40.683594 51.984375 C 40.851562 52.414062 40.875 52.414062 41.164062 52.007812 C 41.5 51.574219 42.027344 51.457031 42.027344 51.816406 C 42.027344 51.910156 41.644531 52.488281 41.1875 53.0625 L 40.347656 54.121094 L 41.957031 54.191406 C 43.777344 54.261719 44.5 54.121094 43.945312 53.757812 C 43.753906 53.617188 43.179688 53.519531 42.652344 53.519531 L 41.738281 53.519531 L 42.125 52.917969 C 42.578125 52.222656 42.628906 51.335938 42.21875 50.921875 C 41.835938 50.542969 41.691406 50.566406 41.042969 51.070312 Z M 41.042969 51.070312 "/>
<path style=" stroke:none;fill-rule:nonzero;fill:rgb(0%,0%,0%);fill-opacity:1;" d="M 30.125 53.039062 C 30.339844 55.464844 30.84375 55.941406 30.675781 53.566406 C 30.628906 52.605469 30.433594 51.671875 30.265625 51.527344 C 30.027344 51.289062 30.003906 51.597656 30.125 53.039062 Z M 30.125 53.039062 "/>
</g>
</svg>
