<?xml version="1.0" encoding="UTF-8"?>
<svg xmlns="http://www.w3.org/2000/svg" xmlns:xlink="http://www.w3.org/1999/xlink" width="657pt" height="479pt" viewBox="0 0 657 479" version="1.1">
<defs>
<clipPath id="clip1">
  <path d="M 50 0.894531 L 117 0.894531 L 117 52 L 50 52 Z M 50 0.894531 "/>
</clipPath>
<clipPath id="clip2">
  <path d="M 178 0.894531 L 245 0.894531 L 245 52 L 178 52 Z M 178 0.894531 "/>
</clipPath>
<clipPath id="clip3">
  <path d="M 384 0.894531 L 451 0.894531 L 451 47 L 384 47 Z M 384 0.894531 "/>
</clipPath>
<clipPath id="clip4">
  <path d="M 512 0.894531 L 579 0.894531 L 579 47 L 512 47 Z M 512 0.894531 "/>
</clipPath>
</defs>
<g id="surface1">
<g clip-path="url(#clip1)" clip-rule="nonzero">
<path style="fill:none;stroke-width:40;stroke-linecap:butt;stroke-linejoin:miter;stroke:rgb(1.177979%,1.177979%,1.177979%);stroke-opacity:1;stroke-miterlimit:4;" d="M 943.398438 4608.789062 C 943.398438 4549.84375 895.625 4502.109375 836.71875 4502.109375 C 777.8125 4502.109375 730.039062 4549.84375 730.039062 4608.789062 C 730.039062 4667.65625 777.8125 4715.46875 836.71875 4715.46875 C 895.625 4715.46875 943.398438 4667.65625 943.398438 4608.789062 Z M 943.398438 4608.789062 " transform="matrix(0.1,0,0,-0.1,0,479)"/>
</g>
<path style="fill:none;stroke-width:40;stroke-linecap:butt;stroke-linejoin:miter;stroke:rgb(1.177979%,1.177979%,1.177979%);stroke-opacity:1;stroke-miterlimit:4;" d="M 943.398438 4182.109375 C 943.398438 4123.164062 895.625 4075.46875 836.71875 4075.46875 C 777.8125 4075.46875 730.039062 4123.164062 730.039062 4182.109375 C 730.039062 4240.976562 777.8125 4288.789062 836.71875 4288.789062 C 895.625 4288.789062 943.398438 4240.976562 943.398438 4182.109375 Z M 943.398438 4182.109375 " transform="matrix(0.1,0,0,-0.1,0,479)"/>
<path style="fill:none;stroke-width:40;stroke-linecap:butt;stroke-linejoin:miter;stroke:rgb(1.177979%,1.177979%,1.177979%);stroke-opacity:1;stroke-miterlimit:4;" d="M 943.398438 3755.46875 C 943.398438 3696.523438 895.625 3648.789062 836.71875 3648.789062 C 777.8125 3648.789062 730.039062 3696.523438 730.039062 3755.46875 C 730.039062 3814.335938 777.8125 3862.109375 836.71875 3862.109375 C 895.625 3862.109375 943.398438 3814.335938 943.398438 3755.46875 Z M 943.398438 3755.46875 " transform="matrix(0.1,0,0,-0.1,0,479)"/>
<path style="fill:none;stroke-width:40;stroke-linecap:butt;stroke-linejoin:miter;stroke:rgb(1.177979%,1.177979%,1.177979%);stroke-opacity:1;stroke-miterlimit:4;" d="M 943.398438 3328.789062 C 943.398438 3269.84375 895.625 3222.109375 836.71875 3222.109375 C 777.8125 3222.109375 730.039062 3269.84375 730.039062 3328.789062 C 730.039062 3387.65625 777.8125 3435.46875 836.71875 3435.46875 C 895.625 3435.46875 943.398438 3387.65625 943.398438 3328.789062 Z M 943.398438 3328.789062 " transform="matrix(0.1,0,0,-0.1,0,479)"/>
<g clip-path="url(#clip2)" clip-rule="nonzero">
<path style="fill:none;stroke-width:40;stroke-linecap:butt;stroke-linejoin:miter;stroke:rgb(1.177979%,1.177979%,1.177979%);stroke-opacity:1;stroke-miterlimit:4;" d="M 2223.398438 4608.789062 C 2223.398438 4549.84375 2175.625 4502.109375 2116.71875 4502.109375 C 2057.8125 4502.109375 2010.039062 4549.84375 2010.039062 4608.789062 C 2010.039062 4667.65625 2057.8125 4715.46875 2116.71875 4715.46875 C 2175.625 4715.46875 2223.398438 4667.65625 2223.398438 4608.789062 Z M 2223.398438 4608.789062 " transform="matrix(0.1,0,0,-0.1,0,479)"/>
</g>
<path style="fill:none;stroke-width:40;stroke-linecap:butt;stroke-linejoin:miter;stroke:rgb(1.177979%,1.177979%,1.177979%);stroke-opacity:1;stroke-miterlimit:4;" d="M 2223.398438 4182.109375 C 2223.398438 4123.164062 2175.625 4075.46875 2116.71875 4075.46875 C 2057.8125 4075.46875 2010.039062 4123.164062 2010.039062 4182.109375 C 2010.039062 4240.976562 2057.8125 4288.789062 2116.71875 4288.789062 C 2175.625 4288.789062 2223.398438 4240.976562 2223.398438 4182.109375 Z M 2223.398438 4182.109375 " transform="matrix(0.1,0,0,-0.1,0,479)"/>
<path style="fill:none;stroke-width:40;stroke-linecap:butt;stroke-linejoin:miter;stroke:rgb(1.177979%,1.177979%,1.177979%);stroke-opacity:1;stroke-miterlimit:4;" d="M 2223.398438 3755.46875 C 2223.398438 3696.523438 2175.625 3648.789062 2116.71875 3648.789062 C 2057.8125 3648.789062 2010.039062 3696.523438 2010.039062 3755.46875 C 2010.039062 3814.335938 2057.8125 3862.109375 2116.71875 3862.109375 C 2175.625 3862.109375 2223.398438 3814.335938 2223.398438 3755.46875 Z M 2223.398438 3755.46875 " transform="matrix(0.1,0,0,-0.1,0,479)"/>
<path style="fill:none;stroke-width:40;stroke-linecap:butt;stroke-linejoin:miter;stroke:rgb(1.177979%,1.177979%,1.177979%);stroke-opacity:1;stroke-miterlimit:4;" d="M 2223.398438 3328.789062 C 2223.398438 3269.84375 2175.625 3222.109375 2116.71875 3222.109375 C 2057.8125 3222.109375 2010.039062 3269.84375 2010.039062 3328.789062 C 2010.039062 3387.65625 2057.8125 3435.46875 2116.71875 3435.46875 C 2175.625 3435.46875 2223.398438 3387.65625 2223.398438 3328.789062 Z M 2223.398438 3328.789062 " transform="matrix(0.1,0,0,-0.1,0,479)"/>
<path style="fill:none;stroke-width:40;stroke-linecap:butt;stroke-linejoin:miter;stroke:rgb(1.177979%,1.177979%,1.177979%);stroke-opacity:1;stroke-miterlimit:4;" d="M 958.632812 1972.578125 C 958.632812 1913.632812 910.859375 1865.898438 851.953125 1865.898438 C 793.046875 1865.898438 745.273438 1913.632812 745.273438 1972.578125 C 745.273438 2031.484375 793.046875 2079.21875 851.953125 2079.21875 C 910.859375 2079.21875 958.632812 2031.484375 958.632812 1972.578125 Z M 958.632812 1972.578125 " transform="matrix(0.1,0,0,-0.1,0,479)"/>
<path style="fill:none;stroke-width:40;stroke-linecap:butt;stroke-linejoin:miter;stroke:rgb(1.177979%,1.177979%,1.177979%);stroke-opacity:1;stroke-miterlimit:4;" d="M 958.632812 1545.898438 C 958.632812 1486.992188 910.859375 1439.21875 851.953125 1439.21875 C 793.046875 1439.21875 745.273438 1486.992188 745.273438 1545.898438 C 745.273438 1604.804688 793.046875 1652.578125 851.953125 1652.578125 C 910.859375 1652.578125 958.632812 1604.804688 958.632812 1545.898438 Z M 958.632812 1545.898438 " transform="matrix(0.1,0,0,-0.1,0,479)"/>
<path style="fill:none;stroke-width:40;stroke-linecap:butt;stroke-linejoin:miter;stroke:rgb(1.177979%,1.177979%,1.177979%);stroke-opacity:1;stroke-miterlimit:4;" d="M 958.632812 1119.21875 C 958.632812 1060.3125 910.859375 1012.578125 851.953125 1012.578125 C 793.046875 1012.578125 745.273438 1060.3125 745.273438 1119.21875 C 745.273438 1178.125 793.046875 1225.898438 851.953125 1225.898438 C 910.859375 1225.898438 958.632812 1178.125 958.632812 1119.21875 Z M 958.632812 1119.21875 " transform="matrix(0.1,0,0,-0.1,0,479)"/>
<path style="fill:none;stroke-width:40;stroke-linecap:butt;stroke-linejoin:miter;stroke:rgb(1.177979%,1.177979%,1.177979%);stroke-opacity:1;stroke-miterlimit:4;" d="M 958.632812 692.578125 C 958.632812 633.632812 910.859375 585.898438 851.953125 585.898438 C 793.046875 585.898438 745.273438 633.632812 745.273438 692.578125 C 745.273438 751.484375 793.046875 799.21875 851.953125 799.21875 C 910.859375 799.21875 958.632812 751.484375 958.632812 692.578125 Z M 958.632812 692.578125 " transform="matrix(0.1,0,0,-0.1,0,479)"/>
<path style="fill:none;stroke-width:40;stroke-linecap:butt;stroke-linejoin:miter;stroke:rgb(1.177979%,1.177979%,1.177979%);stroke-opacity:1;stroke-miterlimit:4;" d="M 2238.632812 1545.898438 C 2238.632812 1486.992188 2190.859375 1439.21875 2131.953125 1439.21875 C 2073.046875 1439.21875 2025.273438 1486.992188 2025.273438 1545.898438 C 2025.273438 1604.804688 2073.046875 1652.578125 2131.953125 1652.578125 C 2190.859375 1652.578125 2238.632812 1604.804688 2238.632812 1545.898438 Z M 2238.632812 1545.898438 " transform="matrix(0.1,0,0,-0.1,0,479)"/>
<path style="fill:none;stroke-width:40;stroke-linecap:butt;stroke-linejoin:miter;stroke:rgb(1.177979%,1.177979%,1.177979%);stroke-opacity:1;stroke-miterlimit:4;" d="M 2238.632812 1119.21875 C 2238.632812 1060.3125 2190.859375 1012.578125 2131.953125 1012.578125 C 2073.046875 1012.578125 2025.273438 1060.3125 2025.273438 1119.21875 C 2025.273438 1178.125 2073.046875 1225.898438 2131.953125 1225.898438 C 2190.859375 1225.898438 2238.632812 1178.125 2238.632812 1119.21875 Z M 2238.632812 1119.21875 " transform="matrix(0.1,0,0,-0.1,0,479)"/>
<path style="fill:none;stroke-width:40;stroke-linecap:butt;stroke-linejoin:miter;stroke:rgb(1.177979%,1.177979%,1.177979%);stroke-opacity:1;stroke-miterlimit:4;" d="M 2238.632812 692.578125 C 2238.632812 633.632812 2190.859375 585.898438 2131.953125 585.898438 C 2073.046875 585.898438 2025.273438 633.632812 2025.273438 692.578125 C 2025.273438 751.484375 2073.046875 799.21875 2131.953125 799.21875 C 2190.859375 799.21875 2238.632812 751.484375 2238.632812 692.578125 Z M 2238.632812 692.578125 " transform="matrix(0.1,0,0,-0.1,0,479)"/>
<g clip-path="url(#clip3)" clip-rule="nonzero">
<path style="fill:none;stroke-width:40;stroke-linecap:butt;stroke-linejoin:miter;stroke:rgb(1.177979%,1.177979%,1.177979%);stroke-opacity:1;stroke-miterlimit:4;" d="M 4280.546875 4654.453125 C 4280.546875 4595.546875 4232.773438 4547.8125 4173.867188 4547.8125 C 4114.960938 4547.8125 4067.1875 4595.546875 4067.1875 4654.453125 C 4067.1875 4713.359375 4114.960938 4761.132812 4173.867188 4761.132812 C 4232.773438 4761.132812 4280.546875 4713.359375 4280.546875 4654.453125 Z M 4280.546875 4654.453125 " transform="matrix(0.1,0,0,-0.1,0,479)"/>
</g>
<path style="fill:none;stroke-width:40;stroke-linecap:butt;stroke-linejoin:miter;stroke:rgb(1.177979%,1.177979%,1.177979%);stroke-opacity:1;stroke-miterlimit:4;" d="M 4280.546875 4227.8125 C 4280.546875 4168.90625 4232.773438 4121.132812 4173.867188 4121.132812 C 4114.960938 4121.132812 4067.1875 4168.90625 4067.1875 4227.8125 C 4067.1875 4286.71875 4114.960938 4334.453125 4173.867188 4334.453125 C 4232.773438 4334.453125 4280.546875 4286.71875 4280.546875 4227.8125 Z M 4280.546875 4227.8125 " transform="matrix(0.1,0,0,-0.1,0,479)"/>
<path style="fill:none;stroke-width:40;stroke-linecap:butt;stroke-linejoin:miter;stroke:rgb(1.177979%,1.177979%,1.177979%);stroke-opacity:1;stroke-miterlimit:4;" d="M 4280.546875 3801.132812 C 4280.546875 3742.226562 4232.773438 3694.453125 4173.867188 3694.453125 C 4114.960938 3694.453125 4067.1875 3742.226562 4067.1875 3801.132812 C 4067.1875 3860.039062 4114.960938 3907.8125 4173.867188 3907.8125 C 4232.773438 3907.8125 4280.546875 3860.039062 4280.546875 3801.132812 Z M 4280.546875 3801.132812 " transform="matrix(0.1,0,0,-0.1,0,479)"/>
<g clip-path="url(#clip4)" clip-rule="nonzero">
<path style="fill:none;stroke-width:40;stroke-linecap:butt;stroke-linejoin:miter;stroke:rgb(1.177979%,1.177979%,1.177979%);stroke-opacity:1;stroke-miterlimit:4;" d="M 5560.546875 4654.453125 C 5560.546875 4595.546875 5512.773438 4547.8125 5453.867188 4547.8125 C 5394.960938 4547.8125 5347.1875 4595.546875 5347.1875 4654.453125 C 5347.1875 4713.359375 5394.960938 4761.132812 5453.867188 4761.132812 C 5512.773438 4761.132812 5560.546875 4713.359375 5560.546875 4654.453125 Z M 5560.546875 4654.453125 " transform="matrix(0.1,0,0,-0.1,0,479)"/>
</g>
<path style="fill:none;stroke-width:40;stroke-linecap:butt;stroke-linejoin:miter;stroke:rgb(1.177979%,1.177979%,1.177979%);stroke-opacity:1;stroke-miterlimit:4;" d="M 5560.546875 4227.8125 C 5560.546875 4168.90625 5512.773438 4121.132812 5453.867188 4121.132812 C 5394.960938 4121.132812 5347.1875 4168.90625 5347.1875 4227.8125 C 5347.1875 4286.71875 5394.960938 4334.453125 5453.867188 4334.453125 C 5512.773438 4334.453125 5560.546875 4286.71875 5560.546875 4227.8125 Z M 5560.546875 4227.8125 " transform="matrix(0.1,0,0,-0.1,0,479)"/>
<path style="fill:none;stroke-width:40;stroke-linecap:butt;stroke-linejoin:miter;stroke:rgb(1.177979%,1.177979%,1.177979%);stroke-opacity:1;stroke-miterlimit:4;" d="M 5560.546875 3801.132812 C 5560.546875 3742.226562 5512.773438 3694.453125 5453.867188 3694.453125 C 5394.960938 3694.453125 5347.1875 3742.226562 5347.1875 3801.132812 C 5347.1875 3860.039062 5394.960938 3907.8125 5453.867188 3907.8125 C 5512.773438 3907.8125 5560.546875 3860.039062 5560.546875 3801.132812 Z M 5560.546875 3801.132812 " transform="matrix(0.1,0,0,-0.1,0,479)"/>
<path style="fill:none;stroke-width:40;stroke-linecap:butt;stroke-linejoin:miter;stroke:rgb(1.177979%,1.177979%,1.177979%);stroke-opacity:1;stroke-miterlimit:4;" d="M 5560.546875 3374.453125 C 5560.546875 3315.546875 5512.773438 3267.8125 5453.867188 3267.8125 C 5394.960938 3267.8125 5347.1875 3315.546875 5347.1875 3374.453125 C 5347.1875 3433.359375 5394.960938 3481.132812 5453.867188 3481.132812 C 5512.773438 3481.132812 5560.546875 3433.359375 5560.546875 3374.453125 Z M 5560.546875 3374.453125 " transform="matrix(0.1,0,0,-0.1,0,479)"/>
<path style="fill:none;stroke-width:40;stroke-linecap:butt;stroke-linejoin:miter;stroke:rgb(1.177979%,1.177979%,1.177979%);stroke-opacity:1;stroke-miterlimit:4;" d="M 4356.71875 2003.046875 C 4356.71875 1944.140625 4308.984375 1896.367188 4250.039062 1896.367188 C 4191.132812 1896.367188 4143.398438 1944.140625 4143.398438 2003.046875 C 4143.398438 2061.953125 4191.132812 2109.6875 4250.039062 2109.6875 C 4308.984375 2109.6875 4356.71875 2061.953125 4356.71875 2003.046875 Z M 4356.71875 2003.046875 " transform="matrix(0.1,0,0,-0.1,0,479)"/>
<path style="fill:none;stroke-width:40;stroke-linecap:butt;stroke-linejoin:miter;stroke:rgb(1.177979%,1.177979%,1.177979%);stroke-opacity:1;stroke-miterlimit:4;" d="M 4356.71875 1576.367188 C 4356.71875 1517.460938 4308.984375 1469.6875 4250.039062 1469.6875 C 4191.132812 1469.6875 4143.398438 1517.460938 4143.398438 1576.367188 C 4143.398438 1635.273438 4191.132812 1683.046875 4250.039062 1683.046875 C 4308.984375 1683.046875 4356.71875 1635.273438 4356.71875 1576.367188 Z M 4356.71875 1576.367188 " transform="matrix(0.1,0,0,-0.1,0,479)"/>
<path style="fill:none;stroke-width:40;stroke-linecap:butt;stroke-linejoin:miter;stroke:rgb(1.177979%,1.177979%,1.177979%);stroke-opacity:1;stroke-miterlimit:4;" d="M 4356.71875 1149.6875 C 4356.71875 1090.78125 4308.984375 1043.046875 4250.039062 1043.046875 C 4191.132812 1043.046875 4143.398438 1090.78125 4143.398438 1149.6875 C 4143.398438 1208.632812 4191.132812 1256.367188 4250.039062 1256.367188 C 4308.984375 1256.367188 4356.71875 1208.632812 4356.71875 1149.6875 Z M 4356.71875 1149.6875 " transform="matrix(0.1,0,0,-0.1,0,479)"/>
<path style="fill:none;stroke-width:40;stroke-linecap:butt;stroke-linejoin:miter;stroke:rgb(1.177979%,1.177979%,1.177979%);stroke-opacity:1;stroke-miterlimit:4;" d="M 4356.71875 723.046875 C 4356.71875 664.140625 4308.984375 616.367188 4250.039062 616.367188 C 4191.132812 616.367188 4143.398438 664.140625 4143.398438 723.046875 C 4143.398438 781.953125 4191.132812 829.6875 4250.039062 829.6875 C 4308.984375 829.6875 4356.71875 781.953125 4356.71875 723.046875 Z M 4356.71875 723.046875 " transform="matrix(0.1,0,0,-0.1,0,479)"/>
<path style="fill:none;stroke-width:40;stroke-linecap:butt;stroke-linejoin:miter;stroke:rgb(1.177979%,1.177979%,1.177979%);stroke-opacity:1;stroke-miterlimit:4;" d="M 5636.71875 2003.046875 C 5636.71875 1944.140625 5588.984375 1896.367188 5530.039062 1896.367188 C 5471.132812 1896.367188 5423.398438 1944.140625 5423.398438 2003.046875 C 5423.398438 2061.953125 5471.132812 2109.6875 5530.039062 2109.6875 C 5588.984375 2109.6875 5636.71875 2061.953125 5636.71875 2003.046875 Z M 5636.71875 2003.046875 " transform="matrix(0.1,0,0,-0.1,0,479)"/>
<path style="fill:none;stroke-width:40;stroke-linecap:butt;stroke-linejoin:miter;stroke:rgb(1.177979%,1.177979%,1.177979%);stroke-opacity:1;stroke-miterlimit:4;" d="M 5636.71875 1576.367188 C 5636.71875 1517.460938 5588.984375 1469.6875 5530.039062 1469.6875 C 5471.132812 1469.6875 5423.398438 1517.460938 5423.398438 1576.367188 C 5423.398438 1635.273438 5471.132812 1683.046875 5530.039062 1683.046875 C 5588.984375 1683.046875 5636.71875 1635.273438 5636.71875 1576.367188 Z M 5636.71875 1576.367188 " transform="matrix(0.1,0,0,-0.1,0,479)"/>
<path style="fill:none;stroke-width:40;stroke-linecap:butt;stroke-linejoin:miter;stroke:rgb(1.177979%,1.177979%,1.177979%);stroke-opacity:1;stroke-miterlimit:4;" d="M 5636.71875 1149.6875 C 5636.71875 1090.78125 5588.984375 1043.046875 5530.039062 1043.046875 C 5471.132812 1043.046875 5423.398438 1090.78125 5423.398438 1149.6875 C 5423.398438 1208.632812 5471.132812 1256.367188 5530.039062 1256.367188 C 5588.984375 1256.367188 5636.71875 1208.632812 5636.71875 1149.6875 Z M 5636.71875 1149.6875 " transform="matrix(0.1,0,0,-0.1,0,479)"/>
<path style="fill:none;stroke-width:40;stroke-linecap:butt;stroke-linejoin:miter;stroke:rgb(1.177979%,1.177979%,1.177979%);stroke-opacity:1;stroke-miterlimit:4;" d="M 5636.71875 723.046875 C 5636.71875 664.140625 5588.984375 616.367188 5530.039062 616.367188 C 5471.132812 616.367188 5423.398438 664.140625 5423.398438 723.046875 C 5423.398438 781.953125 5471.132812 829.6875 5530.039062 829.6875 C 5588.984375 829.6875 5636.71875 781.953125 5636.71875 723.046875 Z M 5636.71875 723.046875 " transform="matrix(0.1,0,0,-0.1,0,479)"/>
<path style="fill:none;stroke-width:20;stroke-linecap:butt;stroke-linejoin:round;stroke:rgb(0%,0%,0%);stroke-opacity:1;stroke-miterlimit:4;" d="M 985.273438 4612.578125 L 1985.273438 4612.578125 " transform="matrix(0.1,0,0,-0.1,0,479)"/>
<path style="fill-rule:evenodd;fill:rgb(0%,0%,0%);fill-opacity:1;stroke-width:10;stroke-linecap:butt;stroke-linejoin:miter;stroke:rgb(0%,0%,0%);stroke-opacity:1;stroke-miterlimit:4;" d="M 1905.273438 4612.578125 L 1865.273438 4572.578125 L 2005.273438 4612.578125 L 1865.273438 4652.578125 Z M 1905.273438 4612.578125 " transform="matrix(0.1,0,0,-0.1,0,479)"/>
<path style="fill:none;stroke-width:20;stroke-linecap:butt;stroke-linejoin:round;stroke:rgb(0%,0%,0%);stroke-opacity:1;stroke-miterlimit:4;" d="M 985.273438 3312.578125 L 1985.273438 3712.578125 " transform="matrix(0.1,0,0,-0.1,0,479)"/>
<path style="fill-rule:evenodd;fill:rgb(0%,0%,0%);fill-opacity:1;stroke-width:10;stroke-linecap:butt;stroke-linejoin:miter;stroke:rgb(0%,0%,0%);stroke-opacity:1;stroke-miterlimit:4;" d="M 1911.015625 3682.851562 L 1888.75 3630.859375 L 2003.867188 3720 L 1859.023438 3705.117188 Z M 1911.015625 3682.851562 " transform="matrix(0.1,0,0,-0.1,0,479)"/>
<path style="fill:none;stroke-width:20;stroke-linecap:butt;stroke-linejoin:round;stroke:rgb(0%,0%,0%);stroke-opacity:1;stroke-miterlimit:4;" d="M 985.273438 4212.578125 L 1985.273438 3812.578125 " transform="matrix(0.1,0,0,-0.1,0,479)"/>
<path style="fill-rule:evenodd;fill:rgb(0%,0%,0%);fill-opacity:1;stroke-width:10;stroke-linecap:butt;stroke-linejoin:miter;stroke:rgb(0%,0%,0%);stroke-opacity:1;stroke-miterlimit:4;" d="M 1911.015625 3842.265625 L 1859.023438 3820 L 2003.867188 3805.117188 L 1888.75 3894.257812 Z M 1911.015625 3842.265625 " transform="matrix(0.1,0,0,-0.1,0,479)"/>
<path style="fill:none;stroke-width:20;stroke-linecap:butt;stroke-linejoin:round;stroke:rgb(0%,0%,0%);stroke-opacity:1;stroke-miterlimit:4;" d="M 4285.273438 4612.578125 L 5285.273438 4312.578125 " transform="matrix(0.1,0,0,-0.1,0,479)"/>
<path style="fill-rule:evenodd;fill:rgb(0%,0%,0%);fill-opacity:1;stroke-width:10;stroke-linecap:butt;stroke-linejoin:miter;stroke:rgb(0%,0%,0%);stroke-opacity:1;stroke-miterlimit:4;" d="M 5208.671875 4335.546875 L 5158.867188 4308.710938 L 5304.453125 4306.796875 L 5181.835938 4385.351562 Z M 5208.671875 4335.546875 " transform="matrix(0.1,0,0,-0.1,0,479)"/>
<path style="fill:none;stroke-width:20;stroke-linecap:butt;stroke-linejoin:round;stroke:rgb(0%,0%,0%);stroke-opacity:1;stroke-miterlimit:4;" d="M 4285.273438 4212.578125 L 5285.273438 4612.578125 " transform="matrix(0.1,0,0,-0.1,0,479)"/>
<path style="fill-rule:evenodd;fill:rgb(0%,0%,0%);fill-opacity:1;stroke-width:10;stroke-linecap:butt;stroke-linejoin:miter;stroke:rgb(0%,0%,0%);stroke-opacity:1;stroke-miterlimit:4;" d="M 5211.015625 4582.851562 L 5188.75 4530.859375 L 5303.867188 4620 L 5159.023438 4605.117188 Z M 5211.015625 4582.851562 " transform="matrix(0.1,0,0,-0.1,0,479)"/>
<path style="fill:none;stroke-width:20;stroke-linecap:butt;stroke-linejoin:round;stroke:rgb(0%,0%,0%);stroke-opacity:1;stroke-miterlimit:4;" d="M 4285.273438 3812.578125 L 5285.273438 3812.578125 " transform="matrix(0.1,0,0,-0.1,0,479)"/>
<path style="fill-rule:evenodd;fill:rgb(0%,0%,0%);fill-opacity:1;stroke-width:10;stroke-linecap:butt;stroke-linejoin:miter;stroke:rgb(0%,0%,0%);stroke-opacity:1;stroke-miterlimit:4;" d="M 5205.273438 3812.578125 L 5165.273438 3772.578125 L 5305.273438 3812.578125 L 5165.273438 3852.578125 Z M 5205.273438 3812.578125 " transform="matrix(0.1,0,0,-0.1,0,479)"/>
<path style="fill:none;stroke-width:20;stroke-linecap:butt;stroke-linejoin:round;stroke:rgb(0%,0%,0%);stroke-opacity:1;stroke-miterlimit:4;" d="M 985.273438 2012.578125 L 1985.273438 1612.578125 " transform="matrix(0.1,0,0,-0.1,0,479)"/>
<path style="fill-rule:evenodd;fill:rgb(0%,0%,0%);fill-opacity:1;stroke-width:10;stroke-linecap:butt;stroke-linejoin:miter;stroke:rgb(0%,0%,0%);stroke-opacity:1;stroke-miterlimit:4;" d="M 1911.015625 1642.265625 L 1859.023438 1620 L 2003.867188 1605.117188 L 1888.75 1694.257812 Z M 1911.015625 1642.265625 " transform="matrix(0.1,0,0,-0.1,0,479)"/>
<path style="fill:none;stroke-width:20;stroke-linecap:butt;stroke-linejoin:round;stroke:rgb(0%,0%,0%);stroke-opacity:1;stroke-miterlimit:4;" d="M 985.273438 1512.578125 L 1985.273438 1512.578125 " transform="matrix(0.1,0,0,-0.1,0,479)"/>
<path style="fill-rule:evenodd;fill:rgb(0%,0%,0%);fill-opacity:1;stroke-width:10;stroke-linecap:butt;stroke-linejoin:miter;stroke:rgb(0%,0%,0%);stroke-opacity:1;stroke-miterlimit:4;" d="M 1905.273438 1512.578125 L 1865.273438 1472.578125 L 2005.273438 1512.578125 L 1865.273438 1552.578125 Z M 1905.273438 1512.578125 " transform="matrix(0.1,0,0,-0.1,0,479)"/>
<path style="fill:none;stroke-width:20;stroke-linecap:butt;stroke-linejoin:round;stroke:rgb(0%,0%,0%);stroke-opacity:1;stroke-miterlimit:4;" d="M 985.273438 1112.578125 L 1985.273438 712.578125 " transform="matrix(0.1,0,0,-0.1,0,479)"/>
<path style="fill-rule:evenodd;fill:rgb(0%,0%,0%);fill-opacity:1;stroke-width:10;stroke-linecap:butt;stroke-linejoin:miter;stroke:rgb(0%,0%,0%);stroke-opacity:1;stroke-miterlimit:4;" d="M 1911.015625 742.265625 L 1859.023438 720 L 2003.867188 705.117188 L 1888.75 794.257812 Z M 1911.015625 742.265625 " transform="matrix(0.1,0,0,-0.1,0,479)"/>
<path style="fill:none;stroke-width:20;stroke-linecap:butt;stroke-linejoin:round;stroke:rgb(0%,0%,0%);stroke-opacity:1;stroke-miterlimit:4;" d="M 985.273438 712.578125 L 1985.273438 1112.578125 " transform="matrix(0.1,0,0,-0.1,0,479)"/>
<path style="fill-rule:evenodd;fill:rgb(0%,0%,0%);fill-opacity:1;stroke-width:10;stroke-linecap:butt;stroke-linejoin:miter;stroke:rgb(0%,0%,0%);stroke-opacity:1;stroke-miterlimit:4;" d="M 1911.015625 1082.851562 L 1888.75 1030.859375 L 2003.867188 1120 L 1859.023438 1105.117188 Z M 1911.015625 1082.851562 " transform="matrix(0.1,0,0,-0.1,0,479)"/>
<path style="fill:none;stroke-width:20;stroke-linecap:butt;stroke-linejoin:round;stroke:rgb(0%,0%,0%);stroke-opacity:1;stroke-miterlimit:4;" d="M 4385.273438 712.578125 L 5385.273438 1512.578125 " transform="matrix(0.1,0,0,-0.1,0,479)"/>
<path style="fill-rule:evenodd;fill:rgb(0%,0%,0%);fill-opacity:1;stroke-width:10;stroke-linecap:butt;stroke-linejoin:miter;stroke:rgb(0%,0%,0%);stroke-opacity:1;stroke-miterlimit:4;" d="M 5322.8125 1462.578125 L 5316.5625 1406.367188 L 5400.898438 1525.039062 L 5266.601562 1468.828125 Z M 5322.8125 1462.578125 " transform="matrix(0.1,0,0,-0.1,0,479)"/>
<path style="fill:none;stroke-width:20;stroke-linecap:butt;stroke-linejoin:round;stroke:rgb(0%,0%,0%);stroke-opacity:1;stroke-miterlimit:4;" d="M 4385.273438 2012.578125 L 5385.273438 1112.578125 " transform="matrix(0.1,0,0,-0.1,0,479)"/>
<path style="fill-rule:evenodd;fill:rgb(0%,0%,0%);fill-opacity:1;stroke-width:10;stroke-linecap:butt;stroke-linejoin:miter;stroke:rgb(0%,0%,0%);stroke-opacity:1;stroke-miterlimit:4;" d="M 5325.820312 1166.09375 L 5269.335938 1163.085938 L 5400.15625 1099.179688 L 5322.851562 1222.578125 Z M 5325.820312 1166.09375 " transform="matrix(0.1,0,0,-0.1,0,479)"/>
<path style="fill:none;stroke-width:20;stroke-linecap:butt;stroke-linejoin:round;stroke:rgb(0%,0%,0%);stroke-opacity:1;stroke-miterlimit:4;" d="M 4385.273438 1612.578125 L 5385.273438 2012.578125 " transform="matrix(0.1,0,0,-0.1,0,479)"/>
<path style=" stroke:none;fill-rule:evenodd;fill:rgb(0%,0%,0%);fill-opacity:1;" d="M 531.101562 280.714844 L 528.875 285.914062 L 540.386719 277 L 525.902344 278.488281 Z M 531.101562 280.714844 "/>
<path style="fill:none;stroke-width:10;stroke-linecap:butt;stroke-linejoin:miter;stroke:rgb(0%,0%,0%);stroke-opacity:1;stroke-miterlimit:4;" d="M 5311.015625 1982.851562 L 5288.75 1930.898438 L 5403.867188 2020 L 5259.023438 2005.117188 Z M 5311.015625 1982.851562 " transform="matrix(0.1,0,0,-0.1,0,479)"/>
<path style="fill:none;stroke-width:20;stroke-linecap:butt;stroke-linejoin:round;stroke:rgb(0%,0%,0%);stroke-opacity:1;stroke-miterlimit:4;" d="M 4385.273438 1112.578125 L 5385.273438 712.578125 " transform="matrix(0.1,0,0,-0.1,0,479)"/>
<path style="fill-rule:evenodd;fill:rgb(0%,0%,0%);fill-opacity:1;stroke-width:10;stroke-linecap:butt;stroke-linejoin:miter;stroke:rgb(0%,0%,0%);stroke-opacity:1;stroke-miterlimit:4;" d="M 5311.015625 742.265625 L 5259.023438 720 L 5403.867188 705.117188 L 5288.75 794.257812 Z M 5311.015625 742.265625 " transform="matrix(0.1,0,0,-0.1,0,479)"/>
<path style=" stroke:none;fill-rule:nonzero;fill:rgb(0%,0%,0%);fill-opacity:1;" d="M 85.328125 198.769531 L 92.605469 198.769531 L 88.945312 191.085938 L 85.328125 198.769531 M 84.230469 201.082031 L 81.457031 207.714844 L 78.90625 207.714844 L 88.914062 185.113281 L 98.925781 207.714844 L 96.359375 207.714844 L 93.535156 201.082031 L 84.230469 201.082031 "/>
<path style=" stroke:none;fill-rule:nonzero;fill:rgb(0%,0%,0%);fill-opacity:1;" d="M 103.53125 204.351562 C 104.03125 204.351562 104.457031 204.527344 104.808594 204.878906 C 105.15625 205.226562 105.332031 205.648438 105.332031 206.136719 C 105.332031 206.617188 105.152344 207.035156 104.792969 207.382812 C 104.441406 207.734375 104.023438 207.910156 103.53125 207.910156 C 103.050781 207.910156 102.636719 207.734375 102.285156 207.382812 C 101.9375 207.035156 101.761719 206.617188 101.761719 206.136719 C 101.761719 205.648438 101.9375 205.226562 102.285156 204.878906 C 102.636719 204.527344 103.050781 204.351562 103.53125 204.351562 "/>
<path style=" stroke:none;fill-rule:nonzero;fill:rgb(0%,0%,0%);fill-opacity:1;" d="M 120.957031 207.742188 L 120.957031 185.335938 L 129.285156 185.335938 C 131.003906 185.335938 132.464844 185.949219 133.667969 187.167969 C 134.867188 188.378906 135.46875 189.839844 135.46875 191.550781 C 135.46875 192.910156 135.074219 194.132812 134.28125 195.210938 C 133.5 196.28125 132.484375 197.023438 131.234375 197.433594 L 137.042969 207.742188 L 134.328125 207.742188 L 128.683594 197.703125 L 123.339844 197.703125 L 123.339844 207.742188 L 120.957031 207.742188 M 123.339844 195.378906 L 129.359375 195.378906 C 130.371094 195.378906 131.242188 195.007812 131.972656 194.265625 C 132.710938 193.515625 133.082031 192.609375 133.082031 191.550781 C 133.082031 190.46875 132.710938 189.550781 131.972656 188.789062 C 131.230469 188.027344 130.335938 187.648438 129.285156 187.648438 L 123.339844 187.648438 L 123.339844 195.378906 "/>
<path style=" stroke:none;fill-rule:nonzero;fill:rgb(0%,0%,0%);fill-opacity:1;" d="M 141.394531 198.410156 L 150.925781 198.410156 C 150.605469 197.269531 150 196.34375 149.109375 195.632812 C 148.230469 194.921875 147.25 194.566406 146.167969 194.566406 C 145.109375 194.566406 144.132812 194.921875 143.242188 195.632812 C 142.359375 196.34375 141.746094 197.269531 141.394531 198.410156 M 141.125 200.628906 C 141.246094 202.070312 141.789062 203.273438 142.761719 204.230469 C 143.730469 205.183594 144.847656 205.65625 146.109375 205.65625 C 147.097656 205.65625 148.019531 205.40625 148.871094 204.90625 C 149.71875 204.398438 150.433594 203.652344 151.015625 202.671875 L 153.054688 203.765625 C 152.667969 204.457031 152.210938 205.066406 151.691406 205.597656 C 151.171875 206.117188 150.664062 206.523438 150.175781 206.8125 C 149.683594 207.105469 149.167969 207.339844 148.628906 207.519531 C 148.089844 207.699219 147.625 207.8125 147.234375 207.863281 C 146.851562 207.914062 146.476562 207.9375 146.109375 207.9375 C 144.746094 207.9375 143.5 207.582031 142.371094 206.875 C 141.242188 206.164062 140.355469 205.210938 139.714844 204.023438 C 139.085938 202.820312 138.769531 201.519531 138.769531 200.121094 C 138.769531 198.730469 139.09375 197.4375 139.746094 196.25 C 140.394531 195.046875 141.289062 194.085938 142.429688 193.367188 C 143.570312 192.644531 144.816406 192.285156 146.167969 192.285156 C 147.457031 192.285156 148.648438 192.609375 149.738281 193.261719 C 150.832031 193.910156 151.707031 194.789062 152.367188 195.886719 C 153.027344 196.976562 153.410156 198.175781 153.523438 199.476562 L 153.582031 200.628906 L 141.125 200.628906 "/>
<path style=" stroke:none;fill-rule:nonzero;fill:rgb(0%,0%,0%);fill-opacity:1;" d="M 168.875 194.882812 C 168.875 194.183594 169.007812 193.398438 169.28125 192.527344 L 171.9375 192.527344 C 171.484375 193.355469 171.261719 194.859375 171.261719 197.027344 L 171.261719 207.261719 C 171.261719 208.644531 170.933594 209.933594 170.285156 211.136719 C 169.636719 212.347656 168.734375 213.3125 167.582031 214.03125 C 166.441406 214.753906 165.199219 215.113281 163.847656 215.113281 C 162.707031 215.113281 161.730469 214.898438 160.921875 214.46875 C 160.121094 214.046875 159.335938 213.472656 158.5625 212.742188 L 160.261719 211.164062 C 160.609375 211.496094 160.914062 211.761719 161.175781 211.960938 C 161.445312 212.160156 161.824219 212.355469 162.316406 212.546875 C 162.816406 212.746094 163.335938 212.847656 163.875 212.847656 C 165.21875 212.847656 166.382812 212.304688 167.375 211.226562 C 168.375 210.144531 168.875 208.824219 168.875 207.261719 L 168.875 205.492188 C 168.253906 206.234375 167.484375 206.832031 166.5625 207.292969 C 165.652344 207.742188 164.757812 207.96875 163.875 207.96875 C 162.515625 207.96875 161.269531 207.613281 160.140625 206.902344 C 159.007812 206.183594 158.125 205.226562 157.484375 204.035156 C 156.851562 202.835938 156.539062 201.539062 156.539062 200.148438 C 156.539062 198.757812 156.851562 197.46875 157.484375 196.277344 C 158.125 195.078125 159.007812 194.121094 160.140625 193.410156 C 161.269531 192.691406 162.515625 192.332031 163.875 192.332031 C 164.746094 192.332031 165.636719 192.570312 166.546875 193.050781 C 167.457031 193.523438 168.234375 194.132812 168.875 194.882812 M 167.296875 204.113281 C 168.308594 203.023438 168.8125 201.699219 168.8125 200.148438 C 168.8125 198.597656 168.308594 197.285156 167.296875 196.203125 C 166.296875 195.113281 165.128906 194.566406 163.785156 194.566406 C 162.445312 194.566406 161.277344 195.113281 160.273438 196.203125 C 159.285156 197.285156 158.789062 198.597656 158.789062 200.148438 C 158.789062 201.710938 159.285156 203.03125 160.273438 204.113281 C 161.277344 205.191406 162.445312 205.734375 163.785156 205.734375 C 165.128906 205.734375 166.296875 205.191406 167.296875 204.113281 "/>
<path style=" stroke:none;fill-rule:nonzero;fill:rgb(0%,0%,0%);fill-opacity:1;" d="M 175.460938 192.527344 L 177.847656 192.527344 L 177.847656 201.800781 C 177.847656 202.910156 178.1875 203.835938 178.871094 204.578125 C 179.550781 205.316406 180.371094 205.6875 181.332031 205.6875 C 182.3125 205.6875 183.15625 205.316406 183.867188 204.578125 C 184.585938 203.828125 184.949219 202.902344 184.949219 201.800781 L 184.949219 192.527344 L 187.320312 192.527344 L 187.320312 201.800781 C 187.320312 203.492188 186.742188 204.941406 185.59375 206.152344 C 184.453125 207.363281 183.050781 207.96875 181.390625 207.96875 C 179.730469 207.96875 178.324219 207.363281 177.171875 206.152344 C 176.03125 204.941406 175.460938 203.492188 175.460938 201.800781 L 175.460938 192.527344 "/>
<path style=" stroke:none;fill-rule:nonzero;fill:rgb(0%,0%,0%);fill-opacity:1;" d="M 191.550781 207.742188 L 193.9375 207.742188 L 193.9375 185.335938 L 191.550781 185.335938 Z M 191.550781 207.742188 "/>
<path style=" stroke:none;fill-rule:nonzero;fill:rgb(0%,0%,0%);fill-opacity:1;" d="M 210.984375 207.742188 L 208.375 207.742188 C 208.035156 206.984375 207.890625 206.289062 207.9375 205.65625 C 206.378906 207.21875 204.667969 208 202.804688 208 C 201.925781 208 201.140625 207.863281 200.449219 207.59375 C 199.761719 207.324219 199.210938 206.96875 198.800781 206.527344 C 198.398438 206.089844 198.09375 205.617188 197.882812 205.117188 C 197.683594 204.605469 197.582031 204.09375 197.582031 203.570312 C 197.582031 203.03125 197.667969 202.542969 197.839844 202.101562 C 198.007812 201.652344 198.222656 201.265625 198.484375 200.945312 C 198.746094 200.617188 199.089844 200.324219 199.519531 200.074219 C 199.949219 199.816406 200.359375 199.605469 200.75 199.445312 C 201.152344 199.285156 201.636719 199.144531 202.207031 199.023438 C 202.785156 198.90625 203.28125 198.820312 203.691406 198.769531 C 204.113281 198.710938 204.628906 198.664062 205.238281 198.632812 C 205.847656 198.605469 206.3125 198.589844 206.632812 198.589844 C 206.953125 198.578125 207.375 198.574219 207.894531 198.574219 C 207.753906 197.324219 207.292969 196.332031 206.511719 195.601562 C 205.742188 194.871094 204.871094 194.507812 203.902344 194.507812 C 203.660156 194.507812 203.433594 194.527344 203.210938 194.566406 C 202.992188 194.605469 202.785156 194.667969 202.597656 194.746094 C 202.40625 194.828125 202.230469 194.90625 202.070312 194.988281 C 201.910156 195.066406 201.75 195.171875 201.589844 195.300781 C 201.441406 195.433594 201.3125 195.542969 201.199219 195.632812 C 201.101562 195.714844 200.992188 195.828125 200.871094 195.976562 C 200.75 196.117188 200.664062 196.222656 200.617188 196.292969 C 200.566406 196.351562 200.496094 196.441406 200.40625 196.5625 C 200.316406 196.683594 200.269531 196.75 200.269531 196.757812 L 198.320312 195.558594 C 198.5 195.289062 198.648438 195.074219 198.769531 194.914062 C 198.898438 194.753906 199.148438 194.480469 199.519531 194.101562 C 199.898438 193.722656 200.269531 193.417969 200.628906 193.1875 C 201 192.957031 201.480469 192.746094 202.070312 192.554688 C 202.660156 192.355469 203.273438 192.257812 203.902344 192.257812 C 204.710938 192.257812 205.492188 192.410156 206.242188 192.722656 C 207.003906 193.03125 207.679688 193.472656 208.269531 194.042969 C 208.871094 194.601562 209.355469 195.324219 209.726562 196.203125 C 210.09375 197.074219 210.289062 198.035156 210.308594 199.085938 L 210.308594 204.113281 C 210.308594 204.792969 210.375 205.476562 210.503906 206.167969 C 210.636719 206.847656 210.796875 207.375 210.984375 207.742188 M 202.804688 205.734375 C 203.785156 205.734375 204.757812 205.417969 205.71875 204.789062 C 206.679688 204.15625 207.417969 203.410156 207.9375 202.550781 L 207.9375 200.523438 C 207.097656 200.535156 206.34375 200.566406 205.671875 200.617188 C 205.011719 200.664062 204.308594 200.753906 203.558594 200.886719 C 202.804688 201.015625 202.179688 201.1875 201.679688 201.394531 C 201.179688 201.605469 200.765625 201.894531 200.433594 202.265625 C 200.105469 202.636719 199.941406 203.070312 199.941406 203.570312 C 199.941406 204.09375 200.179688 204.582031 200.660156 205.042969 C 201.140625 205.503906 201.855469 205.734375 202.804688 205.734375 "/>
<path style=" stroke:none;fill-rule:nonzero;fill:rgb(0%,0%,0%);fill-opacity:1;" d="M 216.945312 194.761719 C 218.015625 193.5625 219.238281 192.714844 220.621094 192.226562 L 223.605469 194.3125 C 222.746094 194.3125 221.964844 194.402344 221.265625 194.582031 C 220.566406 194.753906 219.988281 194.972656 219.539062 195.242188 C 219.089844 195.503906 218.695312 195.816406 218.355469 196.1875 C 218.015625 196.558594 217.757812 196.914062 217.589844 197.253906 C 217.417969 197.59375 217.277344 197.960938 217.167969 198.347656 C 217.070312 198.730469 217.003906 199.035156 216.972656 199.265625 C 216.953125 199.496094 216.945312 199.714844 216.945312 199.925781 L 216.945312 207.742188 L 214.601562 207.742188 L 214.601562 197 C 214.601562 196.25 214.53125 195.398438 214.390625 194.445312 C 214.261719 193.496094 214.105469 192.847656 213.925781 192.496094 L 216.554688 192.496094 C 216.8125 193.214844 216.945312 193.972656 216.945312 194.761719 "/>
<path style=" stroke:none;fill-rule:nonzero;fill:rgb(0%,0%,0%);fill-opacity:1;" d="M 423.0625 209.003906 L 428.945312 209.003906 C 430.414062 209.003906 431.652344 208.558594 432.652344 207.667969 C 433.652344 206.777344 434.152344 205.726562 434.152344 204.515625 C 434.152344 203.308594 433.652344 202.261719 432.652344 201.378906 C 431.652344 200.5 430.414062 200.058594 428.945312 200.058594 L 423.0625 200.058594 L 423.0625 209.003906 M 432.472656 194.550781 L 432.472656 194.523438 C 432.472656 193.652344 432.101562 192.886719 431.359375 192.226562 C 430.628906 191.554688 429.730469 191.21875 428.660156 191.21875 L 423.0625 191.21875 L 423.0625 197.777344 L 428.660156 197.777344 C 429.75 197.777344 430.65625 197.457031 431.375 196.820312 C 432.105469 196.167969 432.472656 195.414062 432.472656 194.550781 M 428.75 188.910156 C 430.429688 188.910156 431.871094 189.464844 433.070312 190.574219 C 434.28125 191.675781 434.886719 193 434.886719 194.550781 C 434.886719 195.371094 434.703125 196.148438 434.332031 196.878906 C 433.960938 197.597656 433.453125 198.214844 432.800781 198.722656 C 433.941406 199.304688 434.847656 200.109375 435.519531 201.140625 C 436.199219 202.160156 436.539062 203.285156 436.539062 204.515625 C 436.539062 205.769531 436.1875 206.917969 435.488281 207.96875 C 434.796875 209.019531 433.871094 209.839844 432.710938 210.429688 C 431.550781 211.019531 430.296875 211.316406 428.945312 211.316406 L 420.675781 211.316406 L 420.675781 188.910156 L 428.75 188.910156 "/>
<path style=" stroke:none;fill-rule:nonzero;fill:rgb(0%,0%,0%);fill-opacity:1;" d="M 442.210938 207.925781 C 442.710938 207.925781 443.136719 208.097656 443.488281 208.449219 C 443.835938 208.800781 444.011719 209.21875 444.011719 209.710938 C 444.011719 210.191406 443.832031 210.605469 443.472656 210.957031 C 443.121094 211.304688 442.703125 211.480469 442.210938 211.480469 C 441.730469 211.480469 441.316406 211.304688 440.964844 210.957031 C 440.617188 210.605469 440.441406 210.191406 440.441406 209.710938 C 440.441406 209.21875 440.617188 208.800781 440.964844 208.449219 C 441.316406 208.097656 441.730469 207.925781 442.210938 207.925781 "/>
<path style=" stroke:none;fill-rule:nonzero;fill:rgb(0%,0%,0%);fill-opacity:1;" d="M 465.1875 192.8125 L 463.160156 193.980469 L 461.945312 191.984375 L 467.589844 188.714844 L 467.589844 211.316406 L 465.1875 211.316406 L 465.1875 192.8125 "/>
<path style=" stroke:none;fill-rule:nonzero;fill:rgb(0%,0%,0%);fill-opacity:1;" d="M 476.742188 203.558594 L 487.070312 203.558594 L 487.070312 201.125 L 476.742188 201.125 Z M 476.742188 203.558594 "/>
<path style=" stroke:none;fill-rule:nonzero;fill:rgb(0%,0%,0%);fill-opacity:1;" d="M 493.175781 211.285156 L 490.789062 211.285156 L 490.789062 198.335938 L 489.484375 198.335938 L 489.484375 196.097656 L 490.789062 196.097656 L 490.789062 192.738281 L 493.175781 192.738281 L 493.175781 196.097656 L 497.515625 196.097656 L 496.71875 198.335938 L 493.175781 198.335938 L 493.175781 211.285156 "/>
<path style=" stroke:none;fill-rule:nonzero;fill:rgb(0%,0%,0%);fill-opacity:1;" d="M 514.113281 199.761719 C 514.84375 200.960938 515.207031 202.269531 515.207031 203.691406 C 515.207031 205.113281 514.84375 206.421875 514.113281 207.625 C 513.382812 208.824219 512.390625 209.773438 511.140625 210.476562 C 509.890625 211.164062 508.527344 211.511719 507.058594 211.511719 C 505.578125 211.511719 504.207031 211.164062 502.945312 210.476562 C 501.695312 209.773438 500.707031 208.824219 499.976562 207.625 C 499.246094 206.421875 498.878906 205.113281 498.878906 203.691406 C 498.878906 202.269531 499.246094 200.960938 499.976562 199.761719 C 500.707031 198.550781 501.695312 197.597656 502.945312 196.910156 C 504.207031 196.207031 505.578125 195.859375 507.058594 195.859375 C 508.527344 195.859375 509.890625 196.207031 511.140625 196.910156 C 512.390625 197.597656 513.382812 198.550781 514.113281 199.761719 M 501.28125 203.691406 C 501.28125 205.242188 501.847656 206.558594 502.976562 207.640625 C 504.105469 208.71875 505.476562 209.257812 507.089844 209.257812 C 508.699219 209.257812 510.074219 208.71875 511.214844 207.640625 C 512.355469 206.546875 512.925781 205.234375 512.925781 203.691406 C 512.925781 202.160156 512.355469 200.855469 511.214844 199.773438 C 510.074219 198.683594 508.699219 198.140625 507.089844 198.140625 C 505.476562 198.140625 504.105469 198.683594 502.976562 199.773438 C 501.847656 200.855469 501.28125 202.160156 501.28125 203.691406 "/>
<path style=" stroke:none;fill-rule:nonzero;fill:rgb(0%,0%,0%);fill-opacity:1;" d="M 518.285156 203.558594 L 528.609375 203.558594 L 528.609375 201.125 L 518.285156 201.125 Z M 518.285156 203.558594 "/>
<path style=" stroke:none;fill-rule:nonzero;fill:rgb(0%,0%,0%);fill-opacity:1;" d="M 537.882812 192.8125 L 535.859375 193.980469 L 534.640625 191.984375 L 540.285156 188.714844 L 540.285156 211.316406 L 537.882812 211.316406 L 537.882812 192.8125 "/>
<path style=" stroke:none;fill-rule:nonzero;fill:rgb(0%,0%,0%);fill-opacity:1;" d="M 19.464844 471.621094 L 21.386719 472.867188 C 18.835938 476.25 15.609375 477.9375 11.707031 477.9375 C 10.125 477.9375 8.609375 477.640625 7.160156 477.039062 C 5.71875 476.4375 4.472656 475.632812 3.421875 474.621094 C 2.382812 473.613281 1.550781 472.40625 0.929688 471.003906 C 0.308594 469.59375 0 468.113281 0 466.5625 C 0 465.011719 0.308594 463.53125 0.929688 462.121094 C 1.550781 460.710938 2.382812 459.496094 3.421875 458.472656 C 4.472656 457.453125 5.71875 456.644531 7.160156 456.042969 C 8.609375 455.441406 10.125 455.144531 11.707031 455.140625 C 12.507812 455.144531 13.28125 455.21875 14.03125 455.367188 C 14.78125 455.519531 15.441406 455.707031 16.011719 455.9375 C 16.582031 456.15625 17.136719 456.433594 17.679688 456.761719 C 18.21875 457.09375 18.667969 457.410156 19.03125 457.707031 C 19.390625 458 19.746094 458.328125 20.09375 458.699219 C 20.445312 459.058594 20.707031 459.34375 20.875 459.554688 C 21.046875 459.753906 21.214844 459.976562 21.386719 460.214844 L 19.496094 461.582031 C 19.222656 461.242188 19.003906 460.96875 18.835938 460.769531 C 18.664062 460.570312 18.3125 460.234375 17.785156 459.765625 C 17.261719 459.292969 16.75 458.917969 16.238281 458.640625 C 15.726562 458.347656 15.0625 458.085938 14.242188 457.84375 C 13.433594 457.605469 12.585938 457.484375 11.707031 457.484375 C 10.433594 457.484375 9.222656 457.722656 8.074219 458.203125 C 6.921875 458.683594 5.933594 459.328125 5.101562 460.140625 C 4.273438 460.949219 3.613281 461.921875 3.121094 463.050781 C 2.640625 464.171875 2.402344 465.351562 2.402344 466.59375 C 2.402344 467.824219 2.640625 469 3.121094 470.121094 C 3.613281 471.242188 4.265625 472.210938 5.085938 473.03125 C 5.917969 473.84375 6.910156 474.488281 8.058594 474.96875 C 9.21875 475.449219 10.433594 475.6875 11.707031 475.6875 C 12.578125 475.6875 13.410156 475.574219 14.210938 475.34375 C 15.023438 475.113281 15.691406 474.847656 16.222656 474.546875 C 16.753906 474.246094 17.261719 473.882812 17.753906 473.453125 C 18.253906 473.023438 18.609375 472.679688 18.820312 472.429688 C 19.039062 472.179688 19.253906 471.910156 19.464844 471.621094 "/>
<path style=" stroke:none;fill-rule:nonzero;fill:rgb(0%,0%,0%);fill-opacity:1;" d="M 27.074219 474.351562 C 27.574219 474.351562 28 474.527344 28.347656 474.878906 C 28.699219 475.226562 28.875 475.648438 28.875 476.136719 C 28.875 476.617188 28.695312 477.035156 28.335938 477.382812 C 27.984375 477.734375 27.5625 477.910156 27.074219 477.910156 C 26.59375 477.910156 26.179688 477.734375 25.828125 477.382812 C 25.476562 477.035156 25.300781 476.617188 25.300781 476.136719 C 25.300781 475.648438 25.476562 475.226562 25.828125 474.878906 C 26.179688 474.527344 26.59375 474.351562 27.074219 474.351562 "/>
<path style=" stroke:none;fill-rule:nonzero;fill:rgb(0%,0%,0%);fill-opacity:1;" d="M 66.242188 462.121094 C 66.863281 463.53125 67.171875 465.011719 67.171875 466.5625 C 67.171875 468.113281 66.863281 469.59375 66.242188 471.003906 C 65.632812 472.40625 64.800781 473.613281 63.75 474.621094 C 62.710938 475.632812 61.472656 476.4375 60.03125 477.039062 C 58.597656 477.640625 57.097656 477.9375 55.527344 477.9375 C 53.945312 477.9375 52.429688 477.640625 50.980469 477.039062 C 49.539062 476.4375 48.292969 475.632812 47.242188 474.621094 C 46.203125 473.613281 45.371094 472.40625 44.753906 471.003906 C 44.132812 469.59375 43.820312 468.113281 43.820312 466.5625 C 43.820312 465.011719 44.132812 463.53125 44.753906 462.121094 C 45.371094 460.710938 46.203125 459.496094 47.242188 458.472656 C 48.292969 457.453125 49.539062 456.644531 50.980469 456.042969 C 52.429688 455.441406 53.945312 455.144531 55.527344 455.140625 C 57.097656 455.144531 58.597656 455.441406 60.03125 456.042969 C 61.472656 456.644531 62.710938 457.453125 63.75 458.472656 C 64.800781 459.496094 65.632812 460.710938 66.242188 462.121094 M 46.222656 466.5625 C 46.222656 467.792969 46.464844 468.96875 46.945312 470.089844 C 47.433594 471.210938 48.089844 472.179688 48.910156 473 C 49.738281 473.8125 50.730469 474.457031 51.882812 474.9375 C 53.042969 475.417969 54.257812 475.65625 55.527344 475.65625 C 57.207031 475.65625 58.757812 475.253906 60.179688 474.441406 C 61.609375 473.621094 62.742188 472.515625 63.570312 471.125 C 64.402344 469.726562 64.816406 468.203125 64.816406 466.5625 C 64.816406 464.914062 64.402344 463.386719 63.570312 461.984375 C 62.742188 460.585938 61.609375 459.480469 60.179688 458.667969 C 58.757812 457.859375 57.207031 457.453125 55.527344 457.453125 C 54.257812 457.453125 53.046875 457.695312 51.894531 458.175781 C 50.746094 458.65625 49.753906 459.300781 48.925781 460.109375 C 48.09375 460.921875 47.433594 461.890625 46.945312 463.023438 C 46.464844 464.140625 46.222656 465.324219 46.222656 466.5625 "/>
<path style=" stroke:none;fill-rule:nonzero;fill:rgb(0%,0%,0%);fill-opacity:1;" d="M 72.679688 462.496094 C 72.851562 463.046875 72.957031 463.488281 72.996094 463.816406 C 73.046875 464.148438 73.070312 464.6875 73.070312 465.4375 C 73.640625 464.578125 74.347656 463.835938 75.1875 463.214844 C 76.027344 462.597656 76.839844 462.285156 77.617188 462.285156 C 78.460938 462.285156 79.210938 462.457031 79.871094 462.796875 C 80.53125 463.125 81.058594 463.582031 81.460938 464.160156 C 81.859375 464.742188 82.160156 465.398438 82.359375 466.128906 C 82.5625 466.847656 82.660156 467.617188 82.660156 468.4375 L 82.660156 477.742188 L 80.273438 477.742188 L 80.273438 468.4375 C 80.273438 467.980469 80.230469 467.539062 80.140625 467.117188 C 80.058594 466.699219 79.925781 466.289062 79.734375 465.886719 C 79.542969 465.476562 79.265625 465.152344 78.894531 464.914062 C 78.523438 464.664062 78.078125 464.539062 77.558594 464.539062 C 76.910156 464.539062 76.222656 464.878906 75.503906 465.558594 C 74.78125 466.226562 74.195312 467.003906 73.746094 467.882812 C 73.296875 468.753906 73.070312 469.5 73.070312 470.121094 L 73.070312 477.742188 L 70.699219 477.742188 L 70.699219 467 C 70.699219 466.226562 70.636719 465.371094 70.503906 464.433594 C 70.386719 463.480469 70.226562 462.835938 70.023438 462.496094 L 72.679688 462.496094 "/>
<path style=" stroke:none;fill-rule:nonzero;fill:rgb(0%,0%,0%);fill-opacity:1;" d="M 89.324219 477.714844 L 86.9375 477.714844 L 86.9375 464.761719 L 85.632812 464.761719 L 85.632812 462.527344 L 86.9375 462.527344 L 86.9375 459.164062 L 89.324219 459.164062 L 89.324219 462.527344 L 93.660156 462.527344 L 92.867188 464.761719 L 89.324219 464.761719 L 89.324219 477.714844 "/>
<path style=" stroke:none;fill-rule:nonzero;fill:rgb(0%,0%,0%);fill-opacity:1;" d="M 110.261719 466.1875 C 110.992188 467.390625 111.355469 468.699219 111.355469 470.121094 C 111.355469 471.539062 110.992188 472.851562 110.261719 474.050781 C 109.53125 475.253906 108.539062 476.203125 107.289062 476.902344 C 106.039062 477.59375 104.675781 477.9375 103.207031 477.9375 C 101.726562 477.9375 100.355469 477.59375 99.09375 476.902344 C 97.84375 476.203125 96.851562 475.253906 96.125 474.050781 C 95.394531 472.851562 95.027344 471.539062 95.027344 470.121094 C 95.027344 468.699219 95.394531 467.390625 96.125 466.1875 C 96.851562 464.976562 97.84375 464.027344 99.09375 463.335938 C 100.355469 462.636719 101.726562 462.285156 103.207031 462.285156 C 104.675781 462.285156 106.039062 462.636719 107.289062 463.335938 C 108.539062 464.027344 109.53125 464.976562 110.261719 466.1875 M 97.429688 470.121094 C 97.429688 471.671875 97.992188 472.988281 99.125 474.066406 C 100.253906 475.148438 101.625 475.6875 103.238281 475.6875 C 104.847656 475.6875 106.222656 475.148438 107.363281 474.066406 C 108.503906 472.976562 109.074219 471.660156 109.074219 470.121094 C 109.074219 468.589844 108.503906 467.285156 107.363281 466.203125 C 106.222656 465.113281 104.847656 464.566406 103.238281 464.566406 C 101.625 464.566406 100.253906 465.113281 99.125 466.203125 C 97.992188 467.285156 97.429688 468.589844 97.429688 470.121094 "/>
<path style=" stroke:none;fill-rule:nonzero;fill:rgb(0%,0%,0%);fill-opacity:1;" d="M 128.34375 475.433594 C 128.34375 476.101562 128.210938 476.875 127.9375 477.742188 L 125.28125 477.742188 C 125.734375 476.933594 125.957031 475.449219 125.957031 473.285156 L 125.957031 455.367188 L 128.34375 455.367188 L 128.34375 464.761719 C 128.972656 464.03125 129.746094 463.4375 130.65625 462.976562 C 131.574219 462.515625 132.476562 462.285156 133.355469 462.285156 C 134.71875 462.285156 135.957031 462.644531 137.078125 463.367188 C 138.210938 464.085938 139.089844 465.046875 139.71875 466.25 C 140.359375 467.4375 140.679688 468.730469 140.679688 470.121094 C 140.679688 471.519531 140.359375 472.820312 139.71875 474.023438 C 139.089844 475.210938 138.210938 476.164062 137.078125 476.875 C 135.957031 477.582031 134.71875 477.9375 133.355469 477.9375 C 132.464844 477.9375 131.566406 477.707031 130.65625 477.25 C 129.753906 476.777344 128.984375 476.171875 128.34375 475.433594 M 128.34375 470.121094 C 128.34375 471.679688 128.839844 473 129.828125 474.082031 C 130.832031 475.152344 132.007812 475.6875 133.355469 475.6875 C 134.6875 475.6875 135.851562 475.148438 136.851562 474.066406 C 137.855469 472.988281 138.355469 471.671875 138.355469 470.121094 C 138.355469 468.570312 137.855469 467.253906 136.851562 466.171875 C 135.851562 465.082031 134.6875 464.539062 133.355469 464.539062 C 132.007812 464.539062 130.832031 465.082031 129.828125 466.171875 C 128.839844 467.253906 128.34375 468.570312 128.34375 470.121094 "/>
<path style=" stroke:none;fill-rule:nonzero;fill:rgb(0%,0%,0%);fill-opacity:1;" d="M 144.265625 462.527344 L 146.652344 462.527344 L 146.652344 471.800781 C 146.652344 472.910156 146.992188 473.835938 147.675781 474.578125 C 148.355469 475.316406 149.175781 475.6875 150.136719 475.6875 C 151.117188 475.6875 151.960938 475.316406 152.671875 474.578125 C 153.390625 473.828125 153.75 472.902344 153.75 471.800781 L 153.75 462.527344 L 156.125 462.527344 L 156.125 471.800781 C 156.121094 473.492188 155.546875 474.941406 154.398438 476.152344 C 153.257812 477.363281 151.855469 477.96875 150.195312 477.96875 C 148.535156 477.96875 147.128906 477.363281 145.976562 476.152344 C 144.835938 474.941406 144.265625 473.492188 144.265625 471.800781 L 144.265625 462.527344 "/>
<path style=" stroke:none;fill-rule:nonzero;fill:rgb(0%,0%,0%);fill-opacity:1;" d="M 162.742188 477.714844 L 160.355469 477.714844 L 160.355469 464.761719 L 159.050781 464.761719 L 159.050781 462.527344 L 160.355469 462.527344 L 160.355469 459.164062 L 162.742188 459.164062 L 162.742188 462.527344 L 167.078125 462.527344 L 166.28125 464.761719 L 162.742188 464.761719 L 162.742188 477.714844 "/>
<path style=" stroke:none;fill-rule:nonzero;fill:rgb(0%,0%,0%);fill-opacity:1;" d="M 182.054688 462.496094 C 182.226562 463.046875 182.332031 463.488281 182.371094 463.816406 C 182.421875 464.148438 182.445312 464.6875 182.445312 465.4375 C 183.015625 464.578125 183.722656 463.835938 184.5625 463.214844 C 185.402344 462.597656 186.214844 462.285156 186.992188 462.285156 C 187.832031 462.285156 188.585938 462.457031 189.246094 462.796875 C 189.90625 463.125 190.433594 463.582031 190.835938 464.160156 C 191.234375 464.742188 191.535156 465.398438 191.734375 466.128906 C 191.9375 466.847656 192.035156 467.617188 192.035156 468.4375 L 192.035156 477.742188 L 189.648438 477.742188 L 189.648438 468.4375 C 189.648438 467.980469 189.605469 467.539062 189.515625 467.117188 C 189.433594 466.699219 189.300781 466.289062 189.109375 465.886719 C 188.917969 465.476562 188.640625 465.152344 188.269531 464.914062 C 187.898438 464.664062 187.453125 464.539062 186.933594 464.539062 C 186.28125 464.539062 185.597656 464.878906 184.878906 465.558594 C 184.15625 466.226562 183.570312 467.003906 183.121094 467.882812 C 182.671875 468.753906 182.445312 469.5 182.445312 470.121094 L 182.445312 477.742188 L 180.074219 477.742188 L 180.074219 467 C 180.074219 466.226562 180.011719 465.371094 179.878906 464.433594 C 179.761719 463.480469 179.601562 462.835938 179.398438 462.496094 L 182.054688 462.496094 "/>
<path style=" stroke:none;fill-rule:nonzero;fill:rgb(0%,0%,0%);fill-opacity:1;" d="M 210.871094 466.1875 C 211.601562 467.390625 211.964844 468.699219 211.964844 470.121094 C 211.964844 471.539062 211.601562 472.851562 210.871094 474.050781 C 210.140625 475.253906 209.148438 476.203125 207.898438 476.902344 C 206.648438 477.59375 205.289062 477.9375 203.816406 477.9375 C 202.335938 477.9375 200.964844 477.59375 199.703125 476.902344 C 198.453125 476.203125 197.464844 475.253906 196.734375 474.050781 C 196.003906 472.851562 195.636719 471.539062 195.636719 470.121094 C 195.636719 468.699219 196.003906 467.390625 196.734375 466.1875 C 197.464844 464.976562 198.453125 464.027344 199.703125 463.335938 C 200.964844 462.636719 202.335938 462.285156 203.816406 462.285156 C 205.289062 462.285156 206.648438 462.636719 207.898438 463.335938 C 209.148438 464.027344 210.140625 464.976562 210.871094 466.1875 M 198.039062 470.121094 C 198.039062 471.671875 198.605469 472.988281 199.734375 474.066406 C 200.867188 475.148438 202.234375 475.6875 203.847656 475.6875 C 205.457031 475.6875 206.832031 475.148438 207.972656 474.066406 C 209.113281 472.976562 209.683594 471.660156 209.683594 470.121094 C 209.683594 468.589844 209.113281 467.285156 207.972656 466.203125 C 206.832031 465.113281 205.457031 464.566406 203.847656 464.566406 C 202.234375 464.566406 200.867188 465.113281 199.734375 466.203125 C 198.605469 467.285156 198.039062 468.589844 198.039062 470.121094 "/>
<path style=" stroke:none;fill-rule:nonzero;fill:rgb(0%,0%,0%);fill-opacity:1;" d="M 217.96875 477.714844 L 215.582031 477.714844 L 215.582031 464.761719 L 214.277344 464.761719 L 214.277344 462.527344 L 215.582031 462.527344 L 215.582031 459.164062 L 217.96875 459.164062 L 217.96875 462.527344 L 222.304688 462.527344 L 221.511719 464.761719 L 217.96875 464.761719 L 217.96875 477.714844 "/>
<path style=" stroke:none;fill-rule:nonzero;fill:rgb(0%,0%,0%);fill-opacity:1;" d="M 240.886719 459.238281 L 238.859375 460.410156 L 237.644531 458.414062 L 243.285156 455.140625 L 243.285156 477.742188 L 240.886719 477.742188 L 240.886719 459.238281 "/>
<path style=" stroke:none;fill-rule:nonzero;fill:rgb(0%,0%,0%);fill-opacity:1;" d="M 252.441406 469.984375 L 262.765625 469.984375 L 262.765625 467.554688 L 252.441406 467.554688 Z M 252.441406 469.984375 "/>
<path style=" stroke:none;fill-rule:nonzero;fill:rgb(0%,0%,0%);fill-opacity:1;" d="M 268.875 477.714844 L 266.488281 477.714844 L 266.488281 464.761719 L 265.183594 464.761719 L 265.183594 462.527344 L 266.488281 462.527344 L 266.488281 459.164062 L 268.875 459.164062 L 268.875 462.527344 L 273.210938 462.527344 L 272.417969 464.761719 L 268.875 464.761719 L 268.875 477.714844 "/>
<path style=" stroke:none;fill-rule:nonzero;fill:rgb(0%,0%,0%);fill-opacity:1;" d="M 289.808594 466.1875 C 290.539062 467.390625 290.90625 468.699219 290.90625 470.121094 C 290.90625 471.539062 290.539062 472.851562 289.808594 474.050781 C 289.078125 475.253906 288.089844 476.203125 286.839844 476.902344 C 285.585938 477.59375 284.226562 477.9375 282.757812 477.9375 C 281.277344 477.9375 279.90625 477.59375 278.644531 476.902344 C 277.394531 476.203125 276.402344 475.253906 275.671875 474.050781 C 274.941406 472.851562 274.578125 471.539062 274.578125 470.121094 C 274.578125 468.699219 274.941406 467.390625 275.671875 466.1875 C 276.402344 464.976562 277.394531 464.027344 278.644531 463.335938 C 279.90625 462.636719 281.277344 462.285156 282.757812 462.285156 C 284.226562 462.285156 285.585938 462.636719 286.839844 463.335938 C 288.089844 464.027344 289.078125 464.976562 289.808594 466.1875 M 276.976562 470.121094 C 276.976562 471.671875 277.542969 472.988281 278.675781 474.066406 C 279.804688 475.148438 281.175781 475.6875 282.785156 475.6875 C 284.398438 475.6875 285.773438 475.148438 286.914062 474.066406 C 288.054688 472.976562 288.625 471.660156 288.625 470.121094 C 288.625 468.589844 288.054688 467.285156 286.914062 466.203125 C 285.773438 465.113281 284.398438 464.566406 282.785156 464.566406 C 281.175781 464.566406 279.804688 465.113281 278.675781 466.203125 C 277.542969 467.285156 276.976562 468.589844 276.976562 470.121094 "/>
<path style=" stroke:none;fill-rule:nonzero;fill:rgb(0%,0%,0%);fill-opacity:1;" d="M 293.980469 469.984375 L 304.308594 469.984375 L 304.308594 467.554688 L 293.980469 467.554688 Z M 293.980469 469.984375 "/>
<path style=" stroke:none;fill-rule:nonzero;fill:rgb(0%,0%,0%);fill-opacity:1;" d="M 313.582031 459.238281 L 311.554688 460.410156 L 310.339844 458.414062 L 315.984375 455.140625 L 315.984375 477.742188 L 313.582031 477.742188 L 313.582031 459.238281 "/>
<path style=" stroke:none;fill-rule:nonzero;fill:rgb(0%,0%,0%);fill-opacity:1;" d="M 423.0625 475.433594 L 425.644531 475.433594 C 427.34375 475.433594 428.90625 475.046875 430.324219 474.277344 C 431.746094 473.496094 432.871094 472.425781 433.703125 471.066406 C 434.53125 469.703125 434.949219 468.203125 434.949219 466.5625 C 434.949219 464.914062 434.53125 463.40625 433.703125 462.046875 C 432.871094 460.675781 431.746094 459.601562 430.324219 458.820312 C 428.90625 458.039062 427.34375 457.648438 425.644531 457.648438 L 423.0625 457.648438 L 423.0625 475.433594 M 420.675781 477.742188 L 420.675781 455.335938 L 425.644531 455.335938 C 427.753906 455.335938 429.699219 455.832031 431.480469 456.824219 C 433.273438 457.804688 434.6875 459.15625 435.726562 460.875 C 436.777344 462.597656 437.304688 464.492188 437.304688 466.5625 C 437.304688 468.625 436.777344 470.515625 435.726562 472.234375 C 434.6875 473.945312 433.273438 475.292969 431.480469 476.273438 C 429.699219 477.253906 427.753906 477.742188 425.644531 477.742188 L 420.675781 477.742188 "/>
<path style=" stroke:none;fill-rule:nonzero;fill:rgb(0%,0%,0%);fill-opacity:1;" d="M 443.050781 474.351562 C 443.550781 474.351562 443.976562 474.527344 444.328125 474.878906 C 444.675781 475.226562 444.851562 475.648438 444.851562 476.136719 C 444.851562 476.617188 444.671875 477.035156 444.3125 477.382812 C 443.960938 477.734375 443.542969 477.910156 443.050781 477.910156 C 442.570312 477.910156 442.15625 477.734375 441.804688 477.382812 C 441.457031 477.035156 441.28125 476.617188 441.28125 476.136719 C 441.28125 475.648438 441.457031 475.226562 441.804688 474.878906 C 442.15625 474.527344 442.570312 474.351562 443.050781 474.351562 "/>
<path style=" stroke:none;fill-rule:nonzero;fill:rgb(0%,0%,0%);fill-opacity:1;" d="M 482.222656 462.121094 C 482.839844 463.53125 483.152344 465.011719 483.152344 466.5625 C 483.152344 468.113281 482.839844 469.59375 482.222656 471.003906 C 481.609375 472.40625 480.78125 473.613281 479.730469 474.621094 C 478.6875 475.632812 477.449219 476.4375 476.007812 477.039062 C 474.578125 477.640625 473.078125 477.9375 471.503906 477.9375 C 469.925781 477.9375 468.410156 477.640625 466.957031 477.039062 C 465.519531 476.4375 464.273438 475.632812 463.222656 474.621094 C 462.179688 473.613281 461.351562 472.40625 460.730469 471.003906 C 460.109375 469.59375 459.800781 468.113281 459.800781 466.5625 C 459.800781 465.011719 460.109375 463.53125 460.730469 462.121094 C 461.351562 460.710938 462.179688 459.496094 463.222656 458.472656 C 464.273438 457.453125 465.519531 456.644531 466.957031 456.042969 C 468.410156 455.441406 469.925781 455.144531 471.503906 455.140625 C 473.078125 455.144531 474.578125 455.441406 476.007812 456.042969 C 477.449219 456.644531 478.6875 457.453125 479.730469 458.472656 C 480.78125 459.496094 481.609375 460.710938 482.222656 462.121094 M 462.199219 466.5625 C 462.199219 467.792969 462.441406 468.96875 462.921875 470.089844 C 463.410156 471.210938 464.066406 472.179688 464.886719 473 C 465.71875 473.8125 466.707031 474.457031 467.859375 474.9375 C 469.019531 475.417969 470.234375 475.65625 471.503906 475.65625 C 473.1875 475.65625 474.738281 475.253906 476.15625 474.441406 C 477.589844 473.621094 478.71875 472.515625 479.550781 471.125 C 480.378906 469.726562 480.796875 468.203125 480.796875 466.5625 C 480.796875 464.914062 480.378906 463.386719 479.550781 461.984375 C 478.71875 460.585938 477.589844 459.480469 476.15625 458.667969 C 474.738281 457.859375 473.1875 457.453125 471.503906 457.453125 C 470.234375 457.453125 469.023438 457.695312 467.875 458.175781 C 466.722656 458.65625 465.734375 459.300781 464.902344 460.109375 C 464.070312 460.921875 463.410156 461.890625 462.921875 463.023438 C 462.441406 464.140625 462.199219 465.324219 462.199219 466.5625 "/>
<path style=" stroke:none;fill-rule:nonzero;fill:rgb(0%,0%,0%);fill-opacity:1;" d="M 488.660156 462.496094 C 488.828125 463.046875 488.933594 463.488281 488.972656 463.816406 C 489.023438 464.148438 489.050781 464.6875 489.050781 465.4375 C 489.621094 464.578125 490.324219 463.835938 491.164062 463.214844 C 492.007812 462.597656 492.816406 462.285156 493.597656 462.285156 C 494.4375 462.285156 495.1875 462.457031 495.847656 462.796875 C 496.507812 463.125 497.039062 463.582031 497.4375 464.160156 C 497.839844 464.742188 498.140625 465.398438 498.339844 466.128906 C 498.539062 466.847656 498.640625 467.617188 498.640625 468.4375 L 498.640625 477.742188 L 496.253906 477.742188 L 496.253906 468.4375 C 496.253906 467.980469 496.207031 467.539062 496.117188 467.117188 C 496.039062 466.699219 495.902344 466.289062 495.710938 465.886719 C 495.523438 465.476562 495.242188 465.152344 494.871094 464.914062 C 494.503906 464.664062 494.058594 464.539062 493.535156 464.539062 C 492.886719 464.539062 492.199219 464.878906 491.480469 465.558594 C 490.761719 466.226562 490.175781 467.003906 489.726562 467.882812 C 489.273438 468.753906 489.050781 469.5 489.050781 470.121094 L 489.050781 477.742188 L 486.679688 477.742188 L 486.679688 467 C 486.679688 466.226562 486.613281 465.371094 486.484375 464.433594 C 486.363281 463.480469 486.203125 462.835938 486.003906 462.496094 L 488.660156 462.496094 "/>
<path style=" stroke:none;fill-rule:nonzero;fill:rgb(0%,0%,0%);fill-opacity:1;" d="M 505.300781 477.714844 L 502.917969 477.714844 L 502.917969 464.761719 L 501.609375 464.761719 L 501.609375 462.527344 L 502.917969 462.527344 L 502.917969 459.164062 L 505.300781 459.164062 L 505.300781 462.527344 L 509.640625 462.527344 L 508.84375 464.761719 L 505.300781 464.761719 L 505.300781 477.714844 "/>
<path style=" stroke:none;fill-rule:nonzero;fill:rgb(0%,0%,0%);fill-opacity:1;" d="M 526.238281 466.1875 C 526.96875 467.390625 527.332031 468.699219 527.332031 470.121094 C 527.332031 471.539062 526.96875 472.851562 526.238281 474.050781 C 525.507812 475.253906 524.515625 476.203125 523.265625 476.902344 C 522.015625 477.59375 520.65625 477.9375 519.183594 477.9375 C 517.703125 477.9375 516.332031 477.59375 515.074219 476.902344 C 513.820312 476.203125 512.832031 475.253906 512.101562 474.050781 C 511.371094 472.851562 511.003906 471.539062 511.003906 470.121094 C 511.003906 468.699219 511.371094 467.390625 512.101562 466.1875 C 512.832031 464.976562 513.820312 464.027344 515.074219 463.335938 C 516.332031 462.636719 517.703125 462.285156 519.183594 462.285156 C 520.65625 462.285156 522.015625 462.636719 523.265625 463.335938 C 524.515625 464.027344 525.507812 464.976562 526.238281 466.1875 M 513.40625 470.121094 C 513.40625 471.671875 513.972656 472.988281 515.101562 474.066406 C 516.234375 475.148438 517.605469 475.6875 519.214844 475.6875 C 520.824219 475.6875 522.199219 475.148438 523.339844 474.066406 C 524.480469 472.976562 525.050781 471.660156 525.050781 470.121094 C 525.050781 468.589844 524.480469 467.285156 523.339844 466.203125 C 522.199219 465.113281 520.824219 464.566406 519.214844 464.566406 C 517.605469 464.566406 516.234375 465.113281 515.101562 466.203125 C 513.972656 467.285156 513.40625 468.589844 513.40625 470.121094 "/>
<path style=" stroke:none;fill-rule:nonzero;fill:rgb(0%,0%,0%);fill-opacity:1;" d="M 556.6875 469.113281 L 559.148438 469.113281 L 559.148438 469.609375 C 559.148438 471.160156 558.71875 472.621094 557.859375 473.992188 L 560.648438 477.742188 L 557.738281 477.742188 L 556.296875 475.792969 C 554.605469 477.261719 552.621094 478 550.339844 478 C 548.75 478 547.273438 477.625 545.914062 476.875 C 544.5625 476.125 543.488281 475.101562 542.6875 473.8125 C 541.894531 472.519531 541.5 471.109375 541.5 469.578125 C 541.5 467.949219 541.945312 466.457031 542.835938 465.109375 C 543.738281 463.757812 544.921875 462.730469 546.394531 462.03125 C 546.074219 461.191406 545.914062 460.40625 545.914062 459.675781 C 545.914062 458.324219 546.386719 457.230469 547.339844 456.386719 C 548.289062 455.539062 549.480469 455.113281 550.910156 455.113281 C 551.820312 455.113281 552.65625 455.296875 553.417969 455.667969 C 554.175781 456.027344 554.800781 456.601562 555.292969 457.394531 C 555.792969 458.183594 556.042969 459.125 556.042969 460.214844 L 556.042969 460.753906 L 553.671875 460.753906 L 553.671875 460.214844 C 553.671875 459.683594 553.585938 459.226562 553.417969 458.835938 C 553.246094 458.445312 553.015625 458.152344 552.726562 457.964844 C 552.4375 457.765625 552.140625 457.617188 551.839844 457.527344 C 551.550781 457.4375 551.242188 457.394531 550.910156 457.394531 C 550.101562 457.394531 549.453125 457.605469 548.972656 458.023438 C 548.496094 458.433594 548.253906 458.984375 548.253906 459.675781 C 548.253906 460.414062 548.542969 461.210938 549.125 462.0625 L 556.296875 471.875 C 556.558594 471.253906 556.6875 470.5 556.6875 469.609375 L 556.6875 469.113281 M 554.917969 473.960938 L 547.652344 464.027344 C 546.511719 464.527344 545.597656 465.28125 544.90625 466.292969 C 544.226562 467.292969 543.886719 468.398438 543.886719 469.609375 C 543.886719 471.300781 544.511719 472.746094 545.761719 473.945312 C 547.023438 475.136719 548.550781 475.734375 550.339844 475.734375 C 551.210938 475.734375 552.039062 475.578125 552.832031 475.269531 C 553.632812 474.949219 554.328125 474.511719 554.917969 473.960938 "/>
<path style=" stroke:none;fill-rule:nonzero;fill:rgb(0%,0%,0%);fill-opacity:1;" d="M 580.984375 459.238281 L 578.960938 460.410156 L 577.742188 458.414062 L 583.386719 455.140625 L 583.386719 477.742188 L 580.984375 477.742188 L 580.984375 459.238281 "/>
<path style=" stroke:none;fill-rule:nonzero;fill:rgb(0%,0%,0%);fill-opacity:1;" d="M 592.542969 469.984375 L 602.867188 469.984375 L 602.867188 467.554688 L 592.542969 467.554688 Z M 592.542969 469.984375 "/>
<path style=" stroke:none;fill-rule:nonzero;fill:rgb(0%,0%,0%);fill-opacity:1;" d="M 608.972656 477.714844 L 606.589844 477.714844 L 606.589844 464.761719 L 605.28125 464.761719 L 605.28125 462.527344 L 606.589844 462.527344 L 606.589844 459.164062 L 608.972656 459.164062 L 608.972656 462.527344 L 613.3125 462.527344 L 612.515625 464.761719 L 608.972656 464.761719 L 608.972656 477.714844 "/>
<path style=" stroke:none;fill-rule:nonzero;fill:rgb(0%,0%,0%);fill-opacity:1;" d="M 629.910156 466.1875 C 630.640625 467.390625 631.003906 468.699219 631.003906 470.121094 C 631.003906 471.539062 630.640625 472.851562 629.910156 474.050781 C 629.179688 475.253906 628.1875 476.203125 626.9375 476.902344 C 625.6875 477.59375 624.328125 477.9375 622.855469 477.9375 C 621.375 477.9375 620.003906 477.59375 618.746094 476.902344 C 617.492188 476.203125 616.503906 475.253906 615.773438 474.050781 C 615.042969 472.851562 614.675781 471.539062 614.675781 470.121094 C 614.675781 468.699219 615.042969 467.390625 615.773438 466.1875 C 616.503906 464.976562 617.492188 464.027344 618.746094 463.335938 C 620.003906 462.636719 621.375 462.285156 622.855469 462.285156 C 624.328125 462.285156 625.6875 462.636719 626.9375 463.335938 C 628.1875 464.027344 629.179688 464.976562 629.910156 466.1875 M 617.078125 470.121094 C 617.078125 471.671875 617.644531 472.988281 618.773438 474.066406 C 619.90625 475.148438 621.277344 475.6875 622.886719 475.6875 C 624.496094 475.6875 625.871094 475.148438 627.011719 474.066406 C 628.152344 472.976562 628.722656 471.660156 628.722656 470.121094 C 628.722656 468.589844 628.152344 467.285156 627.011719 466.203125 C 625.871094 465.113281 624.496094 464.566406 622.886719 464.566406 C 621.277344 464.566406 619.90625 465.113281 618.773438 466.203125 C 617.644531 467.285156 617.078125 468.589844 617.078125 470.121094 "/>
<path style=" stroke:none;fill-rule:nonzero;fill:rgb(0%,0%,0%);fill-opacity:1;" d="M 634.082031 469.984375 L 644.40625 469.984375 L 644.40625 467.554688 L 634.082031 467.554688 Z M 634.082031 469.984375 "/>
<path style=" stroke:none;fill-rule:nonzero;fill:rgb(0%,0%,0%);fill-opacity:1;" d="M 653.683594 459.238281 L 651.65625 460.410156 L 650.441406 458.414062 L 656.082031 455.140625 L 656.082031 477.742188 L 653.683594 477.742188 L 653.683594 459.238281 "/>
</g>
</svg>
