<?xml version="1.0" encoding="UTF-8"?>
<svg xmlns="http://www.w3.org/2000/svg" xmlns:xlink="http://www.w3.org/1999/xlink" width="100pt" height="57pt" viewBox="0 0 100 57" version="1.1">
<defs>
<clipPath id="clip1">
  <path d="M 83 0.078125 L 89 0.078125 L 89 11 L 83 11 Z M 83 0.078125 "/>
</clipPath>
<clipPath id="clip2">
  <path d="M 97 0.078125 L 100 0.078125 L 100 10 L 97 10 Z M 97 0.078125 "/>
</clipPath>
</defs>
<g id="surface1">
<g clip-path="url(#clip1)" clip-rule="nonzero">
<path style=" stroke:none;fill-rule:nonzero;fill:rgb(0%,0%,0%);fill-opacity:1;" d="M 86.59375 2.285156 L 86.519531 4.472656 L 85.078125 4.953125 C 83.398438 5.507812 83.351562 5.527344 83.6875 5.863281 C 83.855469 6.03125 84.214844 6.011719 84.839844 5.742188 C 86.425781 5.070312 86.472656 5.117188 86.351562 7.328125 C 86.28125 8.433594 86.136719 9.515625 86.039062 9.726562 C 85.945312 9.988281 85.96875 10.15625 86.136719 10.15625 C 86.566406 10.15625 86.855469 9.082031 87.023438 6.917969 C 87.191406 4.953125 87.214844 4.902344 87.863281 4.761719 C 88.945312 4.519531 89.039062 4.0625 87.960938 4.257812 L 87.046875 4.421875 L 87.191406 2.910156 C 87.289062 2.070312 87.40625 1.109375 87.503906 0.726562 C 87.625 0.179688 87.574219 0.0820312 87.167969 0.0820312 C 86.6875 0.0820312 86.664062 0.226562 86.59375 2.285156 Z M 86.59375 2.285156 "/>
</g>
<g clip-path="url(#clip2)" clip-rule="nonzero">
<path style=" stroke:none;fill-rule:nonzero;fill:rgb(0%,0%,0%);fill-opacity:1;" d="M 97.199219 0.292969 C 97.199219 0.414062 97.464844 0.683594 97.800781 0.894531 C 98.59375 1.421875 98.953125 2.789062 98.855469 5.023438 C 98.761719 6.796875 98.6875 7.039062 97.847656 8.21875 C 97.34375 8.910156 96.984375 9.535156 97.03125 9.585938 C 97.296875 9.851562 99.070312 7.421875 99.359375 6.4375 C 100.03125 4.019531 99.070312 0.0820312 97.777344 0.0820312 C 97.464844 0.0820312 97.199219 0.179688 97.199219 0.292969 Z M 97.199219 0.292969 "/>
</g>
<path style=" stroke:none;fill-rule:nonzero;fill:rgb(0%,0%,0%);fill-opacity:1;" d="M 89.617188 2.117188 C 89.519531 2.339844 89.519531 3.292969 89.566406 4.257812 C 89.710938 6.414062 90.335938 7.855469 91.199219 7.953125 L 91.800781 8.046875 L 91.296875 7.472656 C 91.007812 7.183594 90.648438 6.652344 90.480469 6.316406 C 90.191406 5.789062 90.097656 3.851562 90.289062 2.507812 C 90.382812 1.835938 89.832031 1.519531 89.617188 2.117188 Z M 89.617188 2.117188 "/>
<path style=" stroke:none;fill-rule:nonzero;fill:rgb(0%,0%,0%);fill-opacity:1;" d="M 80.257812 3.683594 C 79.585938 4.664062 77.328125 8.339844 75.238281 11.84375 C 73.152344 15.347656 70.871094 19.136719 70.175781 20.265625 C 68.734375 22.566406 68.472656 23.117188 68.832031 23.117188 C 69.121094 23.117188 70.992188 20.238281 72.695312 17.117188 C 75.335938 12.269531 80.304688 4.519531 80.6875 4.59375 C 81.144531 4.664062 81.671875 3.292969 81.550781 2.433594 C 81.480469 1.976562 81.265625 2.191406 80.257812 3.683594 Z M 80.257812 3.683594 "/>
<path style=" stroke:none;fill-rule:nonzero;fill:rgb(0%,0%,0%);fill-opacity:1;" d="M 93.121094 2.359375 C 93.121094 2.601562 93.3125 3.011719 93.527344 3.246094 C 93.910156 3.683594 93.910156 3.773438 93.527344 4.855469 C 93.3125 5.507812 93.121094 6.148438 93.121094 6.316406 C 93.121094 6.796875 93.742188 6.179688 94.078125 5.339844 L 94.390625 4.613281 L 95.304688 5.507812 C 96.433594 6.605469 96.480469 6.394531 95.472656 4.808594 C 94.726562 3.632812 94.703125 3.605469 95.183594 3.226562 C 95.6875 2.8125 95.6875 2.003906 95.160156 2.003906 C 94.992188 2.003906 94.800781 2.167969 94.703125 2.359375 C 94.535156 2.84375 94.105469 2.8125 93.550781 2.308594 C 93.144531 1.953125 93.121094 1.953125 93.121094 2.359375 Z M 93.121094 2.359375 "/>
<path style=" stroke:none;fill-rule:nonzero;fill:rgb(0%,0%,0%);fill-opacity:1;" d="M 0 4.277344 C 0 4.761719 1.054688 7.0625 1.441406 7.398438 C 1.921875 7.835938 1.945312 7.835938 2.28125 7.378906 C 2.59375 6.988281 2.664062 6.96875 2.878906 7.277344 C 3.3125 7.929688 3.144531 8.863281 2.496094 9.464844 C 2.136719 9.773438 1.65625 10.492188 1.390625 11.046875 C 1.007812 11.910156 0.984375 12.226562 1.222656 13.136719 C 1.558594 14.476562 2.710938 15.652344 3.3125 15.292969 C 3.648438 15.082031 3.71875 14.554688 3.792969 11.933594 L 3.839844 8.84375 L 4.992188 7.808594 C 6 6.894531 6.023438 6.820312 5.351562 7.136719 C 4.945312 7.351562 4.511719 7.613281 4.441406 7.761719 C 4.105469 8.285156 3.648438 7.953125 3.503906 7.089844 C 3.238281 5.644531 2.855469 4.613281 2.617188 4.761719 C 2.496094 4.855469 2.398438 5.144531 2.398438 5.433594 C 2.375 5.722656 2.230469 6.226562 2.0625 6.535156 C 1.753906 7.109375 1.726562 7.089844 1.199219 5.644531 C 0.886719 4.808594 0.503906 4.15625 0.335938 4.15625 C 0.144531 4.15625 0 4.210938 0 4.277344 Z M 3.238281 10.230469 C 3.480469 11.191406 3.265625 14.308594 2.953125 14.40625 C 2.542969 14.554688 1.679688 13.0625 1.679688 12.246094 C 1.679688 11.507812 2.519531 9.683594 2.878906 9.683594 C 3 9.683594 3.167969 9.917969 3.238281 10.230469 Z M 3.238281 10.230469 "/>
<path style=" stroke:none;fill-rule:nonzero;fill:rgb(0%,0%,0%);fill-opacity:1;" d="M 12.742188 6.820312 C 11.761719 9.011719 11.566406 9.917969 12.070312 9.917969 C 12.742188 9.917969 12.742188 9.632812 12 20.960938 C 11.617188 27.226562 11.207031 42.484375 11.351562 46.019531 L 11.496094 49.351562 L 6.480469 49.230469 C 1.871094 49.136719 0.527344 49.230469 1.992188 49.59375 C 2.28125 49.6875 4.535156 49.808594 7.007812 49.902344 C 12.191406 50.097656 11.761719 49.78125 11.761719 53.167969 C 11.761719 55.277344 11.878906 56 12.265625 56 C 12.382812 56 12.480469 54.726562 12.480469 53.144531 L 12.480469 50.308594 L 24.070312 50.144531 C 30.433594 50.070312 45.359375 49.929688 57.238281 49.855469 C 78.886719 49.710938 89.039062 49.902344 89.566406 50.433594 C 89.785156 50.644531 89.785156 50.933594 89.542969 51.582031 C 89.375 52.042969 89.28125 52.472656 89.328125 52.519531 C 89.375 52.59375 90.382812 51.707031 91.535156 50.574219 C 92.734375 49.425781 93.574219 48.4375 93.457031 48.316406 C 93.335938 48.226562 92.664062 48.011719 91.945312 47.863281 C 91.246094 47.722656 90.335938 47.359375 89.953125 47.097656 C 89.566406 46.808594 89.183594 46.664062 89.113281 46.734375 C 89.015625 46.835938 89.0625 47.433594 89.183594 48.101562 C 89.351562 48.851562 89.351562 49.351562 89.207031 49.445312 C 89.089844 49.519531 84.121094 49.492188 78.144531 49.425781 C 72.191406 49.324219 55.273438 49.351562 40.558594 49.492188 C 25.847656 49.613281 13.414062 49.667969 12.960938 49.566406 L 12.121094 49.375 L 12.046875 41.003906 C 12 33.394531 12.433594 21.179688 13.105469 11.695312 L 13.273438 9.484375 L 14.183594 9.347656 C 14.6875 9.269531 15.167969 9.082031 15.238281 8.933594 C 15.433594 8.671875 13.96875 5.117188 13.679688 5.117188 C 13.585938 5.117188 13.152344 5.890625 12.742188 6.820312 Z M 14.28125 7.78125 C 14.496094 8.769531 14.039062 9.269531 13.703125 8.433594 C 13.464844 7.761719 13.609375 6.726562 13.921875 6.917969 C 14.039062 6.988281 14.207031 7.378906 14.28125 7.78125 Z M 91.390625 48.4375 C 92.089844 48.75 92.207031 48.875 91.921875 49.042969 C 91.441406 49.351562 90.3125 49.324219 90.121094 49.042969 C 89.953125 48.773438 90.121094 48.082031 90.359375 48.082031 C 90.433594 48.082031 90.886719 48.25 91.390625 48.4375 Z M 91.390625 48.4375 "/>
<path style=" stroke:none;fill-rule:nonzero;fill:rgb(0%,0%,0%);fill-opacity:1;" d="M 23.542969 20.191406 C 23.328125 20.601562 22.320312 25.15625 22.320312 25.734375 C 22.320312 26.285156 22.824219 25.976562 23.089844 25.277344 C 23.207031 24.871094 23.542969 24.4375 23.785156 24.292969 C 24.167969 24.101562 24.289062 24.179688 24.480469 24.683594 C 24.625 25.039062 24.71875 25.398438 24.71875 25.519531 C 24.71875 25.640625 24.839844 25.808594 24.984375 25.902344 C 25.175781 26.023438 25.199219 25.761719 25.078125 25.0625 C 24.9375 24.179688 24.984375 24.058594 25.464844 23.890625 L 26.015625 23.671875 L 25.390625 23.527344 C 24.886719 23.386719 24.71875 23.167969 24.601562 22.398438 C 24.503906 21.894531 24.503906 21.226562 24.601562 20.960938 C 24.742188 20.476562 24.382812 19.761719 23.976562 19.761719 C 23.855469 19.761719 23.664062 19.953125 23.542969 20.191406 Z M 24.070312 23.308594 C 24 23.601562 23.855469 23.769531 23.734375 23.695312 C 23.472656 23.554688 23.449219 22.542969 23.6875 22.304688 C 23.953125 22.039062 24.238281 22.734375 24.070312 23.308594 Z M 24.070312 23.308594 "/>
<path style=" stroke:none;fill-rule:nonzero;fill:rgb(0%,0%,0%);fill-opacity:1;" d="M 72.648438 23.191406 C 72.574219 23.359375 72.574219 24.683594 72.648438 26.097656 L 72.792969 28.6875 L 74.039062 28.542969 C 74.710938 28.472656 75.625 28.277344 76.078125 28.109375 L 76.894531 27.851562 L 75.742188 26.84375 L 74.59375 25.835938 L 75.359375 25.277344 L 76.105469 24.753906 L 75.574219 24.179688 C 75.289062 23.863281 74.710938 23.507812 74.304688 23.386719 C 73.894531 23.265625 73.390625 23.097656 73.175781 23.023438 C 72.9375 22.929688 72.71875 22.976562 72.648438 23.191406 Z M 74.664062 24.082031 C 75.289062 24.414062 75.238281 24.683594 74.519531 24.988281 C 73.726562 25.351562 73.753906 25.902344 74.640625 26.722656 C 75.046875 27.082031 75.359375 27.484375 75.359375 27.632812 C 75.359375 27.894531 73.390625 28.210938 73.175781 27.96875 C 72.960938 27.726562 73.414062 24.515625 73.726562 24.148438 C 74.039062 23.769531 74.0625 23.769531 74.664062 24.082031 Z M 74.664062 24.082031 "/>
<path style=" stroke:none;fill-rule:nonzero;fill:rgb(0%,0%,0%);fill-opacity:1;" d="M 58.078125 24.101562 C 55.632812 24.179688 49.105469 24.347656 43.558594 24.414062 C 38.015625 24.515625 33.023438 24.632812 32.449219 24.707031 L 31.441406 24.820312 L 27.695312 32.265625 C 25.65625 36.347656 23.59375 40.183594 23.136719 40.761719 C 22.390625 41.742188 22.03125 43.039062 22.511719 43.039062 C 22.777344 43.039062 23.113281 42.4375 27.167969 34.566406 C 29.257812 30.484375 31.175781 26.84375 31.441406 26.476562 C 31.703125 26.097656 32.230469 25.734375 32.59375 25.664062 C 33.984375 25.378906 43.007812 25.019531 63.191406 24.414062 C 66.046875 24.347656 68.398438 24.179688 68.398438 24.058594 C 68.398438 23.8125 65.039062 23.84375 58.078125 24.101562 Z M 58.078125 24.101562 "/>
<path style=" stroke:none;fill-rule:nonzero;fill:rgb(0%,0%,0%);fill-opacity:1;" d="M 78.769531 28.640625 C 78.769531 28.976562 78.816406 29.097656 78.886719 28.929688 C 78.9375 28.78125 78.9375 28.492188 78.886719 28.328125 C 78.816406 28.183594 78.769531 28.304688 78.769531 28.640625 Z M 78.769531 28.640625 "/>
<path style=" stroke:none;fill-rule:nonzero;fill:rgb(0%,0%,0%);fill-opacity:1;" d="M 96.816406 49.445312 C 96.910156 49.832031 97.03125 50.359375 97.128906 50.644531 C 97.199219 50.980469 96.960938 51.800781 96.503906 52.78125 C 96.097656 53.644531 95.761719 54.417969 95.761719 54.484375 C 95.761719 54.820312 96.289062 54.148438 96.9375 53 C 97.34375 52.277344 97.777344 51.683594 97.871094 51.683594 C 97.96875 51.683594 98.375 52.183594 98.761719 52.761719 C 99.167969 53.359375 99.574219 53.84375 99.671875 53.84375 C 99.863281 53.84375 99.503906 53.167969 98.304688 51.125 C 98.089844 50.769531 98.160156 50.601562 98.734375 50.144531 C 99.503906 49.519531 99.214844 49.085938 98.351562 49.542969 C 97.894531 49.78125 97.777344 49.761719 97.488281 49.304688 C 97.007812 48.582031 96.625 48.652344 96.816406 49.445312 Z M 96.816406 49.445312 "/>
</g>
</svg>
