<?xml version="1.0" encoding="UTF-8"?>
<svg xmlns="http://www.w3.org/2000/svg" xmlns:xlink="http://www.w3.org/1999/xlink" width="88pt" height="103pt" viewBox="0 0 88 103" version="1.1">
<defs>
<clipPath id="clip1">
  <path d="M 20 0.628906 L 63 0.628906 L 63 55 L 20 55 Z M 20 0.628906 "/>
</clipPath>
<clipPath id="clip2">
  <path d="M 24 0.628906 L 37 0.628906 L 37 2 L 24 2 Z M 24 0.628906 "/>
</clipPath>
</defs>
<g id="surface1">
<g clip-path="url(#clip1)" clip-rule="nonzero">
<path style=" stroke:none;fill-rule:nonzero;fill:rgb(0%,0%,0%);fill-opacity:1;" d="M 23.28125 2.035156 C 23.019531 8.175781 22.25 16.625 21.890625 17.175781 C 21.816406 17.296875 21.625 17.394531 21.433594 17.394531 C 20.882812 17.394531 20.761719 17.875 21.21875 18.210938 C 21.578125 18.472656 21.601562 18.785156 21.457031 20.65625 C 21.074219 26.007812 21.003906 27.714844 21.242188 27.714844 C 21.363281 27.714844 21.601562 25.914062 21.746094 23.585938 C 22.058594 18.882812 22.152344 18.6875 23.835938 18.953125 C 25.273438 19.144531 31.058594 22.074219 31.5625 22.816406 C 31.898438 23.320312 31.96875 23.921875 31.921875 25.769531 C 31.875 27.042969 31.777344 28.144531 31.65625 28.265625 C 31.5625 28.363281 29.808594 28.554688 27.769531 28.699219 C 23.617188 28.960938 23.304688 29.007812 22.65625 29.511719 C 22.058594 29.96875 22.226562 30.136719 25.058594 32.417969 C 29.496094 35.945312 30.746094 37.21875 30.816406 38.25 C 30.890625 39.378906 30.914062 39.472656 31.152344 39.472656 C 31.296875 39.472656 31.394531 39.210938 31.394531 38.875 C 31.394531 38.058594 31.707031 38.105469 32.808594 39.113281 C 33.792969 40.023438 34.035156 40.121094 34.035156 39.640625 C 34.035156 39.496094 33.480469 38.847656 32.785156 38.25 L 31.539062 37.144531 L 31.851562 33.570312 C 32.257812 28.554688 32.042969 28.984375 34.347656 28.816406 C 35.425781 28.746094 39.195312 28.601562 42.722656 28.53125 L 49.128906 28.363281 L 49.851562 29.175781 C 50.257812 29.609375 50.59375 29.875 50.59375 29.753906 C 50.59375 29.609375 50.691406 29.371094 50.808594 29.175781 C 50.976562 28.914062 51.144531 28.9375 51.699219 29.34375 C 53.328125 30.496094 60.050781 34.433594 60.410156 34.433594 C 61.011719 34.410156 59.929688 33.617188 56.714844 31.722656 C 53.785156 30.015625 50.953125 28.050781 50.761719 27.59375 C 50.691406 27.449219 50.714844 26.320312 50.785156 25.097656 L 50.90625 22.867188 L 56.449219 23.035156 C 59.496094 23.128906 62.089844 23.296875 62.210938 23.417969 C 62.355469 23.539062 62.328125 25.746094 62.136719 29.082031 C 61.707031 37.242188 61.632812 38.058594 61.179688 38.226562 C 60.960938 38.320312 60.792969 38.5625 60.792969 38.753906 C 60.792969 38.96875 60.601562 39.089844 60.3125 39.042969 C 59.355469 38.921875 51.144531 39.257812 46.585938 39.59375 L 44.160156 39.785156 L 43.992188 38.394531 C 43.898438 37.648438 43.875 36.113281 43.96875 35.035156 C 44.113281 33.183594 44.089844 32.992188 43.65625 32.777344 C 42.84375 32.320312 42.265625 32.464844 41.953125 33.210938 C 41.523438 34.265625 41.714844 35.25 42.386719 35.34375 C 43.105469 35.464844 43.296875 35.921875 43.515625 37.9375 L 43.683594 39.640625 L 41.667969 39.785156 C 40.585938 39.882812 38.667969 39.953125 37.464844 39.953125 C 35.976562 39.953125 35.234375 40.050781 35.234375 40.21875 C 35.234375 40.410156 36.457031 40.457031 39.433594 40.386719 L 43.632812 40.3125 L 43.585938 44.25 C 43.515625 47.65625 43.464844 48.210938 43.105469 48.449219 C 42.792969 48.640625 42.480469 48.617188 41.953125 48.425781 C 41.355469 48.210938 41.160156 48.210938 40.851562 48.519531 C 40.515625 48.855469 40.5625 48.976562 41.304688 49.648438 C 41.859375 50.152344 42.171875 50.679688 42.265625 51.351562 C 42.363281 51.90625 42.601562 52.433594 42.867188 52.601562 C 43.273438 52.839844 43.296875 52.792969 43.226562 52.242188 L 43.128906 51.59375 L 43.609375 52.167969 C 43.898438 52.480469 44.113281 53.035156 44.113281 53.417969 C 44.113281 53.875 44.234375 54.113281 44.472656 54.113281 C 44.667969 54.113281 44.835938 53.945312 44.835938 53.753906 C 44.835938 53.539062 45.050781 53.394531 45.433594 53.394531 C 46.035156 53.394531 46.226562 53.058594 45.792969 52.792969 C 45.21875 52.433594 45.769531 50.035156 46.585938 49.363281 C 46.800781 49.167969 46.898438 48.882812 46.824219 48.664062 C 46.707031 48.378906 46.417969 48.351562 45.339844 48.472656 L 43.96875 48.617188 L 44.136719 46.746094 C 44.234375 45.714844 44.328125 43.890625 44.328125 42.664062 C 44.355469 41.464844 44.449219 40.410156 44.59375 40.3125 C 44.714844 40.242188 48.507812 40.050781 53.019531 39.90625 L 61.203125 39.617188 L 61.632812 40.191406 C 62.066406 40.746094 62.066406 40.746094 62.210938 38.488281 C 62.808594 28.480469 63.050781 20.632812 62.835938 17.753906 C 62.523438 13.335938 62.714844 13.648438 60.144531 13.457031 C 58.945312 13.386719 56.523438 13.3125 54.746094 13.3125 C 52.011719 13.3125 51.554688 13.265625 51.554688 12.929688 C 51.554688 12.136719 52.273438 3.304688 52.394531 2.5625 C 52.464844 2.152344 52.65625 1.792969 52.800781 1.792969 C 53.257812 1.792969 54.699219 3.015625 58.347656 6.519531 C 60.289062 8.417969 62.019531 9.953125 62.136719 9.953125 C 62.859375 9.953125 55.488281 2.777344 53.1875 1.191406 C 52.394531 0.664062 52.082031 0.59375 50.304688 0.640625 C 48.648438 0.664062 48.554688 0.6875 49.707031 0.761719 C 50.859375 0.832031 51.144531 0.953125 51.480469 1.480469 C 51.867188 2.035156 51.867188 2.417969 51.480469 7.386719 C 51.265625 10.289062 50.976562 12.785156 50.835938 12.929688 C 50.691406 13.074219 49.632812 13.191406 48.480469 13.21875 C 47.328125 13.21875 44.328125 13.3125 41.808594 13.433594 L 37.25 13.625 L 36.289062 13 C 34.5625 11.875 32.90625 10.335938 31.082031 8.152344 C 28.875 5.464844 26.523438 3.234375 25.945312 3.234375 C 25.65625 3.234375 26.066406 3.738281 27.21875 4.792969 C 28.179688 5.65625 29.546875 7.121094 30.3125 8.082031 C 31.058594 9.042969 32.546875 10.671875 33.625 11.707031 L 35.59375 13.578125 L 34.65625 13.410156 C 33.9375 13.289062 33.746094 13.3125 33.84375 13.578125 C 33.9375 13.867188 35.402344 13.914062 42.339844 13.914062 L 50.714844 13.914062 L 50.667969 14.632812 C 50.640625 15.015625 50.546875 16.074219 50.472656 16.960938 L 50.304688 18.59375 L 43.296875 18.59375 C 39.433594 18.59375 35.449219 18.519531 34.441406 18.449219 L 32.59375 18.28125 L 32.59375 16.386719 C 32.59375 15.183594 32.496094 14.539062 32.355469 14.632812 C 32.234375 14.707031 32.113281 15.59375 32.113281 16.578125 L 32.113281 18.351562 L 28.777344 18.351562 C 25.488281 18.351562 23.089844 18.066406 22.65625 17.632812 C 22.515625 17.488281 22.632812 15.59375 22.96875 12.425781 C 23.355469 8.875 23.472656 6.425781 23.425781 3.953125 C 23.378906 2.035156 23.304688 1.167969 23.28125 2.035156 Z M 61.105469 14.25 C 61.945312 14.679688 62.136719 15.304688 62.378906 18.378906 C 62.617188 21.472656 62.546875 22.191406 61.945312 22.191406 C 61.730469 22.191406 59.90625 21.640625 57.867188 20.992188 C 55.824219 20.320312 54.003906 19.792969 53.808594 19.792969 C 53.617188 19.792969 53.328125 19.53125 53.1875 19.191406 C 52.96875 18.6875 52.753906 18.59375 51.84375 18.59375 L 50.785156 18.59375 L 50.929688 17.203125 C 51.027344 16.457031 51.144531 15.351562 51.242188 14.777344 L 51.386719 13.722656 L 55.96875 13.839844 C 58.824219 13.914062 60.769531 14.058594 61.105469 14.25 Z M 32.113281 20.273438 C 32.113281 20.921875 32.019531 21.496094 31.898438 21.570312 C 31.65625 21.714844 26.355469 19.335938 26.355469 19.097656 C 26.355469 19.023438 27.648438 18.976562 29.234375 19.023438 L 32.113281 19.097656 Z M 50.066406 20.945312 L 50.136719 22.699219 L 41.714844 22.625 C 32.066406 22.554688 32.59375 22.671875 32.59375 20.34375 L 32.59375 19.074219 L 41.304688 19.121094 L 49.992188 19.191406 Z M 56.042969 21.015625 C 57.914062 21.546875 59.496094 21.953125 59.570312 21.953125 C 59.640625 21.953125 59.714844 22.050781 59.714844 22.191406 C 59.714844 22.335938 58.082031 22.433594 55.273438 22.433594 L 50.835938 22.433594 L 50.835938 21.28125 C 50.835938 20.632812 50.90625 20.035156 51.003906 19.9375 C 51.21875 19.746094 51.769531 19.867188 56.042969 21.015625 Z M 49.96875 23.539062 C 50.042969 23.753906 50.113281 24.714844 50.113281 25.722656 C 50.113281 27.304688 50.066406 27.496094 49.707031 27.378906 C 49.488281 27.28125 49.226562 27.351562 49.128906 27.496094 C 49.011719 27.714844 47.355469 27.855469 43.707031 27.976562 C 40.824219 28.074219 37.105469 28.21875 35.425781 28.3125 L 32.355469 28.457031 L 32.355469 27.425781 C 32.355469 26.847656 32.425781 25.671875 32.523438 24.761719 L 32.667969 23.152344 L 41.234375 23.152344 C 48.84375 23.152344 49.851562 23.203125 49.96875 23.539062 Z M 31.539062 31.480469 C 31.296875 35.007812 31.128906 36.113281 30.792969 36.113281 C 30.433594 36.113281 23.234375 30.160156 23.234375 29.847656 C 23.234375 29.730469 23.378906 29.632812 23.546875 29.609375 C 23.691406 29.609375 25.347656 29.441406 27.195312 29.273438 C 29.042969 29.105469 30.816406 28.960938 31.128906 28.9375 L 31.707031 28.914062 Z M 45.074219 49.648438 C 45.074219 50.128906 44.546875 50.992188 44.234375 50.992188 C 43.800781 50.992188 43.753906 50.25 44.160156 49.839844 C 44.425781 49.578125 45.074219 49.433594 45.074219 49.648438 Z M 45.074219 49.648438 "/>
</g>
<g clip-path="url(#clip2)" clip-rule="nonzero">
<path style=" stroke:none;fill-rule:nonzero;fill:rgb(0%,0%,0%);fill-opacity:1;" d="M 24.195312 0.785156 C 24.195312 1.265625 24.746094 1.53125 25.25 1.265625 C 25.539062 1.121094 28.011719 0.929688 31.152344 0.832031 L 36.554688 0.664062 L 30.386719 0.640625 C 26.976562 0.617188 24.195312 0.6875 24.195312 0.785156 Z M 24.195312 0.785156 "/>
</g>
<path style=" stroke:none;fill-rule:nonzero;fill:rgb(0%,0%,0%);fill-opacity:1;" d="M 1.539062 18.28125 C 1.441406 18.496094 1.105469 19.984375 0.769531 21.59375 C 0.433594 23.175781 0.121094 24.664062 0.0507812 24.882812 C -0.214844 25.792969 0.625 25.265625 1.179688 24.210938 C 2.089844 22.386719 3.289062 22.21875 3.3125 23.875 C 3.3125 24.210938 3.433594 24.640625 3.554688 24.832031 C 3.746094 25.144531 3.890625 25.144531 4.609375 24.738281 C 5.570312 24.210938 6.339844 23.464844 6.121094 23.25 C 6.050781 23.152344 5.617188 23.320312 5.1875 23.585938 L 4.394531 24.089844 L 3.914062 23.082031 C 3.507812 22.242188 3.3125 22.050781 2.640625 22 C 2.210938 21.953125 1.800781 21.785156 1.730469 21.617188 C 1.65625 21.425781 1.707031 20.585938 1.824219 19.699219 C 2.019531 18.160156 1.875 17.417969 1.539062 18.28125 Z M 1.539062 18.28125 "/>
<path style=" stroke:none;fill-rule:nonzero;fill:rgb(0%,0%,0%);fill-opacity:1;" d="M 15.171875 18.378906 C 14.785156 18.832031 13.875 20.679688 13.875 20.96875 C 13.875 21.089844 14.113281 21.234375 14.425781 21.28125 C 14.90625 21.351562 14.953125 21.496094 15.027344 23.152344 C 15.074219 24.136719 15.027344 25.648438 14.953125 26.488281 L 14.785156 28 L 14.089844 27.328125 C 12.578125 25.890625 13.203125 27.378906 15.171875 29.921875 C 15.601562 30.519531 15.699219 30.472656 16.417969 29.394531 C 17.160156 28.289062 17.019531 27.855469 16.203125 28.625 C 15.890625 28.914062 15.601562 29.152344 15.53125 29.152344 C 15.265625 29.152344 15.792969 21.640625 16.105469 20.992188 C 16.417969 20.371094 16.417969 20.203125 15.9375 19.167969 C 15.53125 18.28125 15.363281 18.113281 15.171875 18.378906 Z M 15.171875 18.378906 "/>
<path style=" stroke:none;fill-rule:nonzero;fill:rgb(0%,0%,0%);fill-opacity:1;" d="M 78.050781 20.203125 C 78.480469 21.640625 78.675781 23.082031 78.675781 25.191406 C 78.675781 27.570312 78.960938 28.769531 79.273438 27.90625 C 79.515625 27.304688 79.011719 20.898438 78.699219 20.296875 C 78.363281 19.699219 77.882812 19.625 78.050781 20.203125 Z M 78.050781 20.203125 "/>
<path style=" stroke:none;fill-rule:nonzero;fill:rgb(0%,0%,0%);fill-opacity:1;" d="M 68.640625 22.191406 C 68.449219 22.648438 68.257812 24.160156 68.1875 25.53125 L 68.042969 28.023438 L 68.859375 27.882812 C 70.226562 27.664062 71.808594 27.210938 72.074219 26.96875 C 72.410156 26.632812 70.777344 26.730469 69.746094 27.089844 C 69.242188 27.257812 68.785156 27.351562 68.714844 27.28125 C 68.523438 27.066406 68.570312 25.839844 68.859375 24.761719 C 68.976562 24.183594 69.074219 23.203125 69.027344 22.554688 L 68.953125 21.351562 Z M 68.640625 22.191406 "/>
<path style=" stroke:none;fill-rule:nonzero;fill:rgb(0%,0%,0%);fill-opacity:1;" d="M 81.21875 23.441406 C 81.003906 23.730469 80.835938 24.351562 80.835938 24.808594 C 80.835938 25.722656 81.074219 25.648438 81.433594 24.570312 C 81.769531 23.609375 82.128906 23.679688 82.320312 24.761719 C 82.65625 26.464844 82.753906 26.753906 82.992188 26.753906 C 83.113281 26.753906 83.355469 26.296875 83.496094 25.722656 C 83.929688 24.257812 84.097656 24.183594 84.410156 25.410156 C 84.554688 26.007812 84.769531 26.511719 84.890625 26.511719 C 85.011719 26.511719 85.441406 26.105469 85.824219 25.601562 C 86.234375 25.121094 86.617188 24.785156 86.691406 24.855469 C 86.785156 24.953125 86.90625 25.554688 87.003906 26.25 C 87.21875 28.050781 87.625 27.785156 87.507812 25.914062 C 87.433594 24.855469 87.265625 24.210938 87.003906 23.921875 C 86.59375 23.539062 86.546875 23.5625 85.753906 24.472656 C 85.152344 25.167969 84.9375 25.3125 84.914062 25 C 84.914062 24.761719 84.746094 24.234375 84.53125 23.824219 L 84.144531 23.082031 L 83.691406 23.65625 C 83.234375 24.234375 83.210938 24.234375 82.875 23.777344 C 82.683594 23.511719 82.515625 23.226562 82.515625 23.105469 C 82.515625 22.699219 81.554688 22.9375 81.21875 23.441406 Z M 81.21875 23.441406 "/>
<path style=" stroke:none;fill-rule:nonzero;fill:rgb(0%,0%,0%);fill-opacity:1;" d="M 73.96875 23.875 C 73.683594 23.96875 73.394531 24.234375 73.320312 24.449219 C 73.128906 24.90625 73.320312 24.929688 74.113281 24.472656 C 74.449219 24.28125 75.097656 24.113281 75.554688 24.113281 C 76.179688 24.113281 76.296875 24.042969 76.035156 23.875 C 75.601562 23.585938 74.667969 23.585938 73.96875 23.875 Z M 73.96875 23.875 "/>
<path style=" stroke:none;fill-rule:nonzero;fill:rgb(0%,0%,0%);fill-opacity:1;" d="M 74.859375 25.289062 C 74.523438 25.386719 74.210938 25.601562 74.160156 25.769531 C 74.089844 25.984375 74.160156 26.058594 74.402344 25.960938 C 74.617188 25.890625 75.265625 25.746094 75.890625 25.671875 C 76.488281 25.578125 76.992188 25.410156 76.992188 25.289062 C 76.992188 25.050781 75.722656 25.050781 74.859375 25.289062 Z M 74.859375 25.289062 "/>
<path style=" stroke:none;fill-rule:nonzero;fill:rgb(0%,0%,0%);fill-opacity:1;" d="M 39.554688 59.539062 C 33.289062 60.113281 29.523438 60.90625 27.050781 62.152344 C 25.273438 63.066406 25.296875 62.945312 25.609375 67.386719 C 25.992188 73.074219 25.96875 76.769531 25.539062 76.601562 C 24.960938 76.363281 24.890625 76.746094 25.417969 77.296875 C 25.992188 77.898438 26.160156 79.265625 26.472656 85.363281 C 26.59375 87.351562 26.761719 88.671875 26.90625 88.671875 C 27.144531 88.671875 27.074219 86.488281 26.691406 80.371094 C 26.570312 78.761719 26.617188 77.898438 26.785156 77.777344 C 26.90625 77.707031 27.9375 77.847656 29.042969 78.089844 C 31.753906 78.738281 34.609375 79.050781 39.363281 79.289062 C 41.59375 79.386719 43.441406 79.53125 43.515625 79.601562 C 43.609375 79.671875 43.730469 80.847656 43.800781 82.21875 C 43.921875 84.28125 43.875 84.761719 43.585938 85.023438 C 43.371094 85.191406 41.570312 85.457031 39.242188 85.671875 C 34.707031 86.082031 31.417969 86.730469 29.761719 87.546875 C 28.5625 88.144531 28.273438 88.722656 28.730469 89.609375 C 29.136719 90.351562 31.296875 91.265625 33.675781 91.699219 C 38.066406 92.488281 53.355469 92.394531 58.753906 91.53125 C 60.601562 91.242188 61.992188 90.496094 62.304688 89.65625 C 63.003906 87.738281 63.097656 87.089844 62.859375 86.035156 C 62.523438 84.59375 62.523438 78.210938 62.859375 77.609375 C 63.050781 77.226562 63.027344 76.890625 62.738281 76.167969 C 62.425781 75.425781 62.355469 74.226562 62.355469 70.363281 C 62.355469 65.585938 62.355469 65.488281 61.753906 64.625 C 61.417969 64.144531 61.152344 63.6875 61.152344 63.617188 C 61.152344 63.519531 62.136719 63.472656 63.3125 63.472656 C 64.585938 63.472656 65.472656 63.378906 65.472656 63.234375 C 65.472656 63.089844 64.394531 62.992188 62.691406 62.992188 C 59.90625 62.992188 59.90625 62.992188 58.777344 62.203125 C 58.179688 61.746094 56.714844 60.976562 55.539062 60.472656 C 53.738281 59.707031 52.992188 59.539062 50.859375 59.371094 C 47.328125 59.105469 43.632812 59.152344 39.554688 59.539062 Z M 52.632812 60.210938 C 53.570312 60.425781 54.363281 60.714844 54.386719 60.832031 C 54.433594 60.976562 54.792969 61.074219 55.179688 61.074219 C 56.019531 61.074219 58.5625 62.273438 58.441406 62.632812 C 58.296875 63.066406 54.746094 63.257812 49.273438 63.136719 C 46.371094 63.089844 43.777344 62.992188 43.515625 62.945312 C 43.058594 62.875 43.035156 62.992188 43.128906 65.082031 L 43.203125 67.3125 L 40.730469 67.3125 C 34.320312 67.289062 29.472656 66.617188 27.074219 65.394531 C 24.195312 63.929688 27.097656 61.839844 33.578125 60.714844 C 39.816406 59.609375 48.890625 59.394531 52.632812 60.210938 Z M 60.914062 64.433594 C 61.65625 65.394531 61.683594 65.417969 61.320312 66.304688 L 60.960938 67.191406 L 52.417969 67.265625 L 43.875 67.3125 L 43.875 63.714844 L 48.386719 63.640625 C 50.859375 63.617188 54.507812 63.570312 56.523438 63.519531 L 60.144531 63.472656 Z M 28.082031 66.378906 C 29.953125 67.121094 33.171875 67.578125 37.394531 67.699219 C 39.578125 67.769531 41.808594 67.867188 42.386719 67.9375 L 43.394531 68.058594 L 43.394531 74.753906 L 40.777344 74.753906 C 37.394531 74.753906 32.714844 75.136719 29.355469 75.714844 C 27.914062 75.953125 26.691406 76.121094 26.640625 76.097656 C 26.546875 75.976562 26.136719 68.898438 26.113281 67.097656 C 26.113281 65.753906 26.160156 65.609375 26.546875 65.753906 C 26.761719 65.847656 27.457031 66.136719 28.082031 66.378906 Z M 60.984375 68.175781 C 61.539062 68.371094 61.585938 68.65625 61.777344 72.519531 L 61.921875 75.90625 L 61.011719 76.191406 C 60.242188 76.410156 59.355469 76.386719 56.234375 75.953125 C 50.1875 75.136719 46.730469 74.753906 45.410156 74.753906 L 44.1875 74.753906 L 44.019531 72.546875 C 43.945312 71.34375 43.875 69.761719 43.875 69.042969 L 43.875 67.722656 L 52.226562 67.867188 C 56.835938 67.9375 60.769531 68.082031 60.984375 68.175781 Z M 43.394531 75.449219 C 43.515625 75.714844 43.632812 76.578125 43.632812 77.371094 L 43.632812 78.832031 L 40.945312 78.832031 C 36.339844 78.832031 29.738281 78.042969 27.960938 77.296875 L 27.195312 76.960938 L 28.035156 76.601562 C 29.496094 75.976562 36.746094 75.089844 41.160156 75.015625 C 42.890625 74.992188 43.179688 75.042969 43.394531 75.449219 Z M 54.363281 76.191406 C 57.074219 76.601562 59.761719 77.035156 60.289062 77.175781 C 61.152344 77.417969 61.226562 77.464844 60.84375 77.753906 C 60.074219 78.304688 54.144531 78.808594 48.144531 78.832031 L 44.113281 78.832031 L 44.113281 75.160156 L 46.753906 75.328125 C 48.21875 75.402344 51.625 75.808594 54.363281 76.191406 Z M 61.921875 82.242188 C 61.96875 84.304688 61.921875 86.058594 61.824219 86.152344 C 61.730469 86.25 61.25 86.007812 60.746094 85.601562 C 59.496094 84.617188 58.515625 84.328125 55.992188 84.234375 L 53.835938 84.136719 L 55.632812 84.351562 C 58.179688 84.640625 59.976562 85.363281 61.011719 86.511719 C 61.777344 87.378906 62.160156 88.144531 61.707031 87.90625 C 59.761719 86.921875 58.515625 86.488281 56.835938 86.175781 C 53.929688 85.648438 50.234375 85.3125 47.355469 85.3125 C 45.675781 85.3125 44.808594 85.21875 44.667969 85 C 44.328125 84.59375 44.042969 79.867188 44.355469 79.671875 C 44.472656 79.601562 46.992188 79.433594 49.921875 79.3125 C 55.707031 79.050781 60.195312 78.664062 61.011719 78.351562 C 61.296875 78.257812 61.585938 78.234375 61.683594 78.328125 C 61.777344 78.402344 61.898438 80.175781 61.921875 82.242188 Z M 49.824219 85.792969 C 53.714844 86.035156 57.816406 86.632812 59.28125 87.210938 C 59.835938 87.425781 60.339844 87.882812 60.144531 88 C 60.097656 88.023438 56.304688 88.097656 51.675781 88.167969 C 46.203125 88.265625 43.320312 88.386719 43.394531 88.554688 C 43.464844 88.699219 46.800781 88.792969 52.683594 88.792969 C 57.722656 88.792969 61.898438 88.867188 61.992188 88.960938 C 62.28125 89.25 61.65625 90.042969 60.84375 90.425781 C 60.410156 90.640625 59.355469 90.929688 58.515625 91.050781 C 54.242188 91.722656 40.585938 92.035156 36.3125 91.554688 C 31.898438 91.050781 28.683594 89.753906 29.113281 88.625 C 29.472656 87.714844 32.761719 86.730469 37.035156 86.296875 C 42.265625 85.769531 43.082031 85.746094 43.515625 86.175781 C 43.875 86.539062 43.921875 86.539062 44.378906 86.058594 C 44.640625 85.792969 45.027344 85.554688 45.265625 85.554688 C 45.480469 85.554688 47.546875 85.671875 49.824219 85.792969 Z M 49.824219 85.792969 "/>
<path style=" stroke:none;fill-rule:nonzero;fill:rgb(0%,0%,0%);fill-opacity:1;" d="M 19.707031 77.203125 C 19.035156 77.921875 18.171875 79.578125 18.339844 79.839844 C 18.410156 79.9375 18.84375 80.035156 19.296875 80.035156 L 20.113281 80.035156 L 20.113281 83.035156 C 20.113281 84.6875 20.019531 86.035156 19.898438 86.035156 C 19.777344 86.035156 19.5625 85.867188 19.394531 85.671875 C 19.128906 85.335938 18.433594 85.167969 18.433594 85.410156 C 18.433594 85.722656 19.96875 87.761719 20.378906 87.953125 C 20.808594 88.191406 20.835938 88.121094 20.835938 86.992188 C 20.835938 86.34375 20.953125 85.792969 21.074219 85.792969 C 21.433594 85.792969 21.363281 84.90625 20.976562 84.761719 C 20.714844 84.664062 20.667969 84.160156 20.761719 82.386719 C 20.859375 80.394531 20.953125 80.105469 21.457031 79.671875 C 21.769531 79.386719 22.035156 79.074219 22.035156 78.953125 C 22.035156 78.808594 21.625 78.257812 21.121094 77.679688 L 20.234375 76.648438 Z M 20.113281 78.953125 C 20.113281 79.21875 19.632812 79.554688 19.25 79.554688 C 19.035156 79.554688 19.179688 78.90625 19.441406 78.640625 C 19.753906 78.328125 20.113281 78.472656 20.113281 78.953125 Z M 20.113281 78.953125 "/>
<path style=" stroke:none;fill-rule:nonzero;fill:rgb(0%,0%,0%);fill-opacity:1;" d="M 10.128906 81.546875 C 10.226562 82.722656 10.394531 83.898438 10.488281 84.183594 C 10.683594 84.664062 10.730469 84.617188 10.875 83.800781 C 10.992188 83.152344 11.234375 82.792969 11.738281 82.554688 C 12.816406 81.976562 12.914062 82.074219 12.9375 83.679688 C 12.960938 86.609375 13.320312 86.25 13.515625 83.105469 C 13.609375 81.449219 13.609375 79.960938 13.539062 79.816406 C 13.226562 79.335938 12.960938 79.554688 12.816406 80.371094 C 12.722656 80.800781 12.457031 81.351562 12.21875 81.59375 C 11.472656 82.242188 10.921875 81.953125 10.585938 80.777344 C 10.105469 79.074219 9.960938 79.289062 10.128906 81.546875 Z M 10.128906 81.546875 "/>
<path style=" stroke:none;fill-rule:nonzero;fill:rgb(0%,0%,0%);fill-opacity:1;" d="M 43.058594 94.480469 C 42.792969 95.777344 42.675781 98.273438 42.890625 98.273438 C 43.152344 98.273438 43.320312 97.578125 43.539062 95.5625 C 43.65625 94.433594 43.609375 93.953125 43.441406 93.953125 C 43.273438 93.953125 43.105469 94.191406 43.058594 94.480469 Z M 43.058594 94.480469 "/>
<path style=" stroke:none;fill-rule:nonzero;fill:rgb(0%,0%,0%);fill-opacity:1;" d="M 59.328125 95.539062 C 59.402344 96.066406 59.546875 97.433594 59.617188 98.632812 C 59.835938 101.707031 60.171875 101.992188 60.171875 99.113281 C 60.171875 96.257812 59.953125 94.867188 59.496094 94.722656 C 59.234375 94.625 59.1875 94.792969 59.328125 95.539062 Z M 59.328125 95.539062 "/>
<path style=" stroke:none;fill-rule:nonzero;fill:rgb(0%,0%,0%);fill-opacity:1;" d="M 47.714844 99.015625 C 47.714844 101.035156 47.808594 102.089844 47.953125 101.992188 C 48.097656 101.921875 48.195312 101.203125 48.195312 100.410156 C 48.195312 99.640625 48.242188 98.992188 48.3125 98.992188 C 48.769531 98.992188 50.402344 100.050781 51.027344 100.769531 C 51.433594 101.25 51.84375 101.511719 51.914062 101.394531 C 52.128906 101.035156 51.648438 100.335938 50.714844 99.59375 L 49.824219 98.945312 L 50.449219 98.296875 C 51.675781 97 50.929688 95.875 48.867188 95.875 L 47.714844 95.875 Z M 50.355469 97.023438 C 50.355469 97.503906 49.777344 98.105469 49.082031 98.34375 C 48.53125 98.5625 48.289062 97.9375 48.625 97.167969 C 48.984375 96.425781 50.355469 96.328125 50.355469 97.023438 Z M 50.355469 97.023438 "/>
<path style=" stroke:none;fill-rule:nonzero;fill:rgb(0%,0%,0%);fill-opacity:1;" d="M 64.371094 96.855469 C 64.273438 97 63.890625 97.050781 63.433594 96.976562 C 62.738281 96.832031 62.570312 96.90625 62.136719 97.53125 C 61.609375 98.25 61.464844 98.992188 61.851562 98.992188 C 61.96875 98.992188 62.1875 98.65625 62.355469 98.273438 C 62.761719 97.265625 63.242188 97.363281 63.554688 98.511719 C 63.699219 99.042969 63.914062 99.472656 64.011719 99.472656 C 64.128906 99.472656 64.273438 99.042969 64.371094 98.511719 C 64.441406 97.984375 64.609375 97.554688 64.730469 97.554688 C 64.851562 97.554688 65.136719 98.058594 65.402344 98.679688 L 65.882812 99.832031 L 66.433594 98.753906 L 67.011719 97.671875 L 67.226562 98.730469 C 67.488281 100.097656 67.992188 99.6875 67.753906 98.273438 C 67.5625 97.121094 67.105469 96.832031 66.386719 97.457031 C 66.027344 97.792969 65.859375 97.839844 65.785156 97.601562 C 65.640625 97.21875 65.019531 96.59375 64.753906 96.59375 C 64.632812 96.59375 64.464844 96.714844 64.371094 96.855469 Z M 64.371094 96.855469 "/>
<path style=" stroke:none;fill-rule:nonzero;fill:rgb(0%,0%,0%);fill-opacity:1;" d="M 53.667969 97.960938 C 53.425781 98.007812 53.234375 98.226562 53.234375 98.441406 C 53.234375 98.730469 53.378906 98.777344 53.90625 98.65625 C 54.265625 98.5625 55.203125 98.417969 55.992188 98.34375 C 57.121094 98.226562 57.3125 98.152344 56.835938 98.007812 C 56.160156 97.816406 54.3125 97.792969 53.667969 97.960938 Z M 53.667969 97.960938 "/>
<path style=" stroke:none;fill-rule:nonzero;fill:rgb(0%,0%,0%);fill-opacity:1;" d="M 54.746094 98.992188 C 54.433594 99.113281 54.195312 99.304688 54.195312 99.425781 C 54.195312 99.664062 56.976562 99.160156 57.242188 98.898438 C 57.480469 98.679688 55.347656 98.753906 54.746094 98.992188 Z M 54.746094 98.992188 "/>
</g>
</svg>
