<?xml version="1.0" encoding="UTF-8"?>
<svg xmlns="http://www.w3.org/2000/svg" xmlns:xlink="http://www.w3.org/1999/xlink" width="120pt" height="78pt" viewBox="0 0 120 78" version="1.1">
<defs>
<clipPath id="clip1">
  <path d="M 0 0.75 L 114 0.75 L 114 77 L 0 77 Z M 0 0.75 "/>
</clipPath>
</defs>
<g id="surface1">
<g clip-path="url(#clip1)" clip-rule="nonzero">
<path style=" stroke:none;fill-rule:nonzero;fill:rgb(0%,0%,0%);fill-opacity:1;" d="M 104.929688 1.636719 C 104.738281 2.117188 104.308594 3.101562 103.972656 3.847656 C 103.660156 4.589844 102.964844 6.269531 102.457031 7.589844 C 98.546875 17.503906 97.25 20.285156 94.996094 23.671875 C 94.179688 24.847656 93.457031 26.214844 93.386719 26.671875 C 93.195312 27.847656 89.425781 35.429688 88.300781 36.871094 C 87.796875 37.542969 87.195312 38.046875 86.980469 38.046875 C 86.667969 38.023438 86.570312 38.214844 86.570312 38.957031 C 86.570312 39.847656 86.402344 40.085938 84.84375 41.644531 C 81.171875 45.292969 77.257812 47.140625 75.601562 45.988281 C 75.121094 45.652344 75.074219 45.652344 74.929688 46.109375 C 74.738281 46.6875 74.332031 46.710938 72.628906 46.207031 C 69.457031 45.269531 64.492188 42.246094 61.898438 39.679688 C 59.90625 37.710938 57.148438 34.398438 55.300781 31.78125 L 53.929688 29.839844 L 53.980469 21.847656 L 54.050781 13.855469 L 54.84375 13.660156 C 55.25 13.542969 55.609375 13.300781 55.609375 13.132812 C 55.609375 12.964844 55.058594 11.980469 54.410156 10.949219 C 53.066406 8.933594 52.660156 8.839844 52.347656 10.542969 C 52.25 10.996094 51.867188 11.980469 51.507812 12.703125 C 50.449219 14.671875 50.59375 14.980469 52.25 14.40625 C 52.875 14.191406 53.066406 14.191406 53.234375 14.453125 C 53.476562 14.839844 53.523438 20.476562 53.28125 24.796875 C 53.164062 27.199219 53.066406 27.796875 52.804688 27.703125 C 52.636719 27.628906 51.914062 26.695312 51.195312 25.613281 C 47.570312 20.070312 44.425781 12.703125 42.769531 5.839844 C 42.484375 4.636719 42.242188 4.109375 42.003906 4.109375 C 41.761719 4.109375 41.691406 4.253906 41.761719 4.519531 C 41.835938 4.757812 42.386719 6.582031 42.988281 8.550781 C 44.257812 12.847656 44.617188 13.757812 46.660156 18.148438 C 48.675781 22.492188 50.617188 25.972656 51.9375 27.582031 L 52.972656 28.878906 L 52.972656 31.996094 C 52.972656 35.285156 52.5625 45.054688 52.347656 46.710938 L 52.226562 47.695312 L 44.738281 47.980469 C 26.644531 48.726562 18.097656 48.988281 11.785156 48.988281 L 5.042969 48.988281 L 4.875 48.078125 C 4.804688 47.550781 4.515625 46.855469 4.226562 46.492188 L 3.722656 45.871094 L 2.332031 46.855469 C 0.675781 48.007812 -0.164062 48.871094 0.0273438 49.183594 C 0.0976562 49.324219 1.082031 49.855469 2.164062 50.382812 C 3.363281 50.957031 4.371094 51.628906 4.683594 52.015625 C 5.355469 52.949219 5.59375 52.589844 5.28125 51.078125 C 5.140625 50.40625 5.066406 49.78125 5.113281 49.710938 C 5.1875 49.660156 9.410156 49.542969 14.523438 49.445312 C 19.636719 49.351562 27.867188 49.085938 32.8125 48.894531 C 37.753906 48.703125 44.164062 48.460938 47.042969 48.390625 L 52.25 48.222656 L 52.25 49.277344 C 52.25 49.855469 52.082031 51.175781 51.890625 52.230469 C 51.652344 53.644531 51.554688 56.261719 51.53125 62.070312 L 51.53125 69.988281 L 50.257812 70.46875 C 48.53125 71.140625 48.53125 71.527344 50.308594 73.855469 C 52.132812 76.277344 53.066406 77.164062 53.570312 76.972656 C 53.882812 76.878906 53.90625 76.636719 53.785156 75.941406 C 53.691406 75.4375 53.59375 73.878906 53.59375 72.460938 L 53.570312 69.871094 L 52.921875 69.871094 C 52.300781 69.871094 52.300781 69.871094 52.105469 67.519531 C 51.84375 63.75 52.441406 48.75 52.898438 48.269531 C 52.972656 48.199219 56.210938 48.078125 60.121094 48.007812 C 64.035156 47.910156 68.980469 47.8125 71.089844 47.765625 C 74.761719 47.671875 74.929688 47.695312 75.003906 48.148438 C 75.289062 49.996094 75.652344 50.238281 75.890625 48.75 C 76.011719 48.03125 76.179688 47.765625 76.5625 47.671875 C 76.851562 47.597656 79.347656 47.503906 82.082031 47.476562 C 86.59375 47.429688 87.121094 47.476562 87.386719 47.839844 C 87.796875 48.390625 88.011719 48.390625 88.011719 47.8125 C 88.011719 47.574219 88.15625 47.308594 88.347656 47.238281 C 88.921875 47.023438 105.339844 46.757812 107.5 46.925781 L 109.609375 47.117188 L 109.898438 49.421875 L 111.195312 48.511719 C 111.890625 48.007812 112.804688 47.476562 113.210938 47.308594 C 113.617188 47.140625 113.90625 46.878906 113.859375 46.734375 C 113.8125 46.589844 112.996094 46.039062 112.035156 45.511719 C 111.074219 44.980469 109.875 44.191406 109.347656 43.734375 C 108.820312 43.300781 108.339844 42.964844 108.289062 43.015625 C 108.21875 43.109375 108.746094 44.71875 109.25 45.917969 C 109.417969 46.324219 109.179688 46.351562 106.300781 46.351562 L 103.179688 46.351562 L 103.011719 41.597656 C 102.746094 34.757812 103.035156 12.871094 103.394531 11.742188 C 103.660156 10.949219 103.636719 10.78125 103.25 10.351562 C 102.53125 9.558594 102.9375 8.09375 105.652344 1.636719 C 105.964844 0.847656 105.964844 0.75 105.652344 0.75 C 105.457031 0.75 105.121094 1.132812 104.929688 1.636719 Z M 53.210938 11.910156 C 53.210938 13.039062 53.140625 13.277344 52.609375 13.613281 C 51.652344 14.238281 51.578125 13.828125 52.347656 12.175781 C 52.753906 11.308594 53.113281 10.589844 53.164062 10.589844 C 53.1875 10.589844 53.210938 11.191406 53.210938 11.910156 Z M 102.433594 28.757812 C 102.363281 38.285156 102.242188 46.109375 102.171875 46.183594 C 102.097656 46.253906 100.203125 46.375 97.945312 46.46875 L 93.84375 46.636719 L 93.699219 45.511719 C 93.601562 44.886719 93.53125 40.902344 93.53125 36.703125 L 93.53125 29.023438 L 94.851562 26.765625 C 95.59375 25.519531 96.242188 24.511719 96.339844 24.511719 C 96.410156 24.511719 96.410156 29.140625 96.316406 34.828125 C 96.195312 42.148438 96.21875 45.148438 96.386719 45.148438 C 96.578125 45.148438 96.652344 43.519531 96.675781 40.039062 C 96.675781 37.253906 96.769531 32.453125 96.867188 29.40625 C 96.988281 24.75 97.082031 23.765625 97.441406 23.238281 C 97.660156 22.902344 97.851562 22.351562 97.851562 22.015625 C 97.851562 21.679688 97.972656 21.34375 98.089844 21.269531 C 98.234375 21.199219 98.332031 20.839844 98.332031 20.476562 C 98.355469 19.542969 99.195312 17.789062 99.652344 17.789062 C 100.082031 17.789062 100.132812 17.40625 99.722656 17.164062 C 99.53125 17.046875 99.554688 16.925781 99.820312 16.734375 C 100.300781 16.375 100.828125 15.292969 101.28125 13.710938 C 101.644531 12.511719 102.339844 11.164062 102.53125 11.359375 C 102.578125 11.40625 102.53125 19.230469 102.433594 28.757812 Z M 54.652344 12.246094 C 55.035156 12.964844 54.9375 13.277344 54.363281 13.183594 C 53.953125 13.132812 53.785156 12.917969 53.738281 12.4375 C 53.644531 11.671875 54.242188 11.527344 54.652344 12.246094 Z M 95.308594 25.207031 C 94.683594 26.285156 94.082031 27.222656 93.964844 27.292969 C 93.484375 27.582031 93.84375 26.550781 94.636719 25.277344 C 96.457031 22.398438 96.964844 22.351562 95.308594 25.207031 Z M 55.132812 32.476562 C 56.980469 35.164062 58.875 37.324219 61.441406 39.773438 C 64.273438 42.484375 66.964844 44.382812 70.226562 45.964844 C 71.449219 46.566406 72.316406 47.117188 72.148438 47.164062 C 71.761719 47.308594 52.898438 47.789062 52.777344 47.671875 C 52.730469 47.621094 52.804688 46.542969 52.945312 45.246094 C 53.066406 43.925781 53.257812 40.492188 53.332031 37.589844 C 53.476562 32.238281 53.59375 30.988281 53.90625 30.988281 C 54.003906 30.988281 54.554688 31.660156 55.132812 32.476562 Z M 93.003906 38.886719 C 92.953125 42.964844 92.859375 46.375 92.785156 46.46875 C 92.691406 46.542969 91.5625 46.660156 90.242188 46.757812 L 87.84375 46.902344 L 87.699219 43.804688 C 87.601562 42.101562 87.457031 40.492188 87.386719 40.230469 C 87.316406 39.917969 87.722656 39.054688 88.636719 37.636719 C 89.402344 36.484375 90.097656 35.550781 90.171875 35.550781 C 90.433594 35.550781 90.652344 38.261719 90.652344 41.742188 C 90.652344 46.878906 90.988281 45.175781 91.15625 39.316406 C 91.25 35.023438 91.371094 33.796875 91.683594 33.054688 C 92.164062 31.972656 92.523438 31.46875 92.859375 31.46875 C 92.980469 31.46875 93.050781 34.421875 93.003906 38.886719 Z M 87.097656 42.988281 C 87.121094 44.164062 87.148438 45.511719 87.148438 45.917969 C 87.171875 46.6875 87.121094 46.710938 86.164062 46.78125 L 85.132812 46.855469 L 85.132812 45.34375 C 85.15625 42.847656 85.851562 40.828125 86.691406 40.828125 C 86.980469 40.828125 87.050781 41.261719 87.097656 42.988281 Z M 84.652344 44.597656 C 84.652344 46.855469 84.53125 47.070312 83.308594 47.070312 C 82.371094 47.070312 82.25 46.996094 82.25 46.519531 C 82.25 45.511719 82.707031 44.429688 83.378906 43.828125 C 84.433594 42.917969 84.652344 43.039062 84.652344 44.597656 Z M 81.652344 46.253906 L 81.652344 46.949219 L 79.851562 47.023438 L 78.050781 47.070312 L 79.609375 46.277344 C 80.476562 45.820312 81.289062 45.484375 81.410156 45.511719 C 81.554688 45.535156 81.652344 45.871094 81.652344 46.253906 Z M 111.84375 45.988281 C 112.324219 46.183594 112.753906 46.445312 112.851562 46.589844 C 113.113281 47.023438 112.25 47.140625 111.796875 46.734375 C 111.554688 46.519531 111.148438 46.351562 110.859375 46.351562 C 110.332031 46.351562 110.1875 46.109375 110.5 45.796875 C 110.714844 45.558594 110.882812 45.582031 111.84375 45.988281 Z M 4.082031 48.054688 L 4.132812 48.871094 L 2.761719 48.871094 C 1.996094 48.871094 1.347656 48.75 1.324219 48.628906 C 1.226562 48.269531 3.578125 46.78125 3.84375 47.046875 C 3.964844 47.164062 4.082031 47.621094 4.082031 48.054688 Z M 111.195312 47.671875 C 110.738281 48.007812 110.332031 47.957031 110.332031 47.527344 C 110.332031 47.40625 110.617188 47.308594 111.003906 47.308594 C 111.628906 47.335938 111.628906 47.335938 111.195312 47.671875 Z M 4.492188 49.804688 C 4.660156 50.023438 4.683594 50.308594 4.5625 50.527344 C 4.371094 50.863281 4.25 50.839844 3.410156 50.40625 C 1.921875 49.636719 1.875 49.46875 3.097656 49.46875 C 3.769531 49.46875 4.300781 49.613281 4.492188 49.804688 Z M 53.089844 74.09375 C 53.1875 75.246094 53.164062 75.871094 52.996094 75.871094 C 52.753906 75.871094 50.164062 73.039062 49.777344 72.34375 C 49.539062 71.957031 50.1875 71.070312 50.714844 71.070312 C 50.882812 71.070312 51.148438 71.527344 51.289062 72.078125 C 51.746094 73.855469 51.796875 73.949219 52.15625 73.949219 C 52.417969 73.949219 52.492188 73.566406 52.515625 72.316406 C 52.539062 70.996094 52.5625 70.855469 52.730469 71.503906 C 52.828125 71.957031 52.996094 73.109375 53.089844 74.09375 Z M 53.089844 74.09375 "/>
</g>
<path style=" stroke:none;fill-rule:nonzero;fill:rgb(0%,0%,0%);fill-opacity:1;" d="M 100.273438 20.382812 C 100.011719 20.886719 99.84375 25.421875 99.652344 37.828125 C 99.554688 44.140625 99.601562 45.652344 99.820312 45.269531 C 100.035156 44.910156 100.15625 41.742188 100.25 33.390625 C 100.371094 24.773438 100.46875 21.796875 100.707031 21.199219 C 101.089844 20.261719 100.707031 19.566406 100.273438 20.382812 Z M 100.273438 20.382812 "/>
<path style=" stroke:none;fill-rule:nonzero;fill:rgb(0%,0%,0%);fill-opacity:1;" d="M 101.476562 39.007812 C 101.449219 39.269531 101.523438 39.414062 101.59375 39.316406 C 101.667969 39.246094 101.691406 39.03125 101.617188 38.863281 C 101.546875 38.671875 101.476562 38.742188 101.476562 39.007812 Z M 101.476562 39.007812 "/>
<path style=" stroke:none;fill-rule:nonzero;fill:rgb(0%,0%,0%);fill-opacity:1;" d="M 58.492188 7.277344 C 58.492188 7.589844 58.707031 8.308594 58.972656 8.886719 C 59.425781 9.871094 59.5 9.917969 60.265625 9.796875 C 61.273438 9.628906 61.441406 9.941406 61.226562 11.597656 C 61.035156 13.039062 60.410156 13.804688 59.089844 14.308594 L 58.132812 14.671875 L 59.164062 14.574219 C 60.457031 14.453125 61.058594 13.925781 61.394531 12.652344 C 61.683594 11.574219 61.515625 8.40625 61.132812 7.757812 C 60.988281 7.492188 60.890625 7.46875 60.890625 7.660156 C 60.890625 7.828125 60.722656 8.359375 60.507812 8.863281 L 60.148438 9.75 L 59.714844 9.222656 C 59.476562 8.933594 59.210938 8.261719 59.113281 7.734375 C 58.945312 6.703125 58.492188 6.367188 58.492188 7.277344 Z M 58.492188 7.277344 "/>
<path style=" stroke:none;fill-rule:nonzero;fill:rgb(0%,0%,0%);fill-opacity:1;" d="M 116.332031 45.796875 C 116.355469 46.300781 117.027344 47.574219 117.050781 47.117188 C 117.050781 46.972656 117.21875 46.828125 117.410156 46.828125 C 117.769531 46.828125 117.867188 47.117188 117.769531 47.789062 C 117.746094 47.980469 117.289062 48.847656 116.785156 49.734375 C 115.324219 52.207031 115.660156 52.351562 117.289062 49.925781 C 117.84375 49.15625 118.371094 48.511719 118.46875 48.511719 C 118.585938 48.511719 118.898438 48.871094 119.1875 49.277344 C 119.859375 50.335938 119.859375 49.542969 119.1875 48.414062 L 118.707031 47.574219 L 119.1875 47.261719 C 119.476562 47.09375 119.691406 46.710938 119.691406 46.375 L 119.691406 45.796875 L 119.089844 46.351562 L 118.515625 46.902344 L 117.652344 46.132812 C 116.691406 45.292969 116.332031 45.199219 116.332031 45.796875 Z M 116.332031 45.796875 "/>
<path style=" stroke:none;fill-rule:nonzero;fill:rgb(0%,0%,0%);fill-opacity:1;" d="M 100.730469 51.390625 C 100.730469 52.277344 100.515625 52.300781 99.769531 51.511719 C 99.457031 51.175781 99.121094 50.910156 99.003906 50.910156 C 98.570312 50.910156 98.859375 51.582031 99.554688 52.207031 C 100.273438 52.855469 100.273438 52.878906 100.105469 54.484375 C 100.011719 55.589844 100.035156 56.191406 100.226562 56.285156 C 100.394531 56.40625 100.492188 56.164062 100.492188 55.613281 C 100.492188 55.15625 100.585938 54.726562 100.730469 54.628906 C 100.921875 54.511719 101.667969 55.183594 102.53125 56.335938 C 103.179688 57.199219 102.890625 56.308594 102.050781 54.917969 C 100.996094 53.164062 100.804688 52.46875 101.332031 52.183594 C 101.644531 51.988281 101.667969 51.820312 101.476562 51.316406 C 101.140625 50.453125 100.730469 50.503906 100.730469 51.390625 Z M 100.730469 51.390625 "/>
<path style=" stroke:none;fill-rule:nonzero;fill:rgb(0%,0%,0%);fill-opacity:1;" d="M 107.476562 52.375 C 107.332031 52.804688 107.210938 53.574219 107.210938 54.078125 C 107.210938 54.871094 107.332031 55.085938 107.929688 55.421875 C 108.914062 55.972656 108.84375 56.476562 107.644531 57.175781 C 106.730469 57.679688 106.683594 57.75 107.164062 57.820312 C 107.5 57.871094 108.050781 57.652344 108.554688 57.269531 C 109.660156 56.429688 109.660156 55.6875 108.507812 55.015625 C 107.785156 54.582031 107.667969 54.390625 107.785156 53.957031 C 108.363281 52.0625 108.074219 50.644531 107.476562 52.375 Z M 107.476562 52.375 "/>
<path style=" stroke:none;fill-rule:nonzero;fill:rgb(0%,0%,0%);fill-opacity:1;" d="M 104.570312 52.421875 C 104.113281 52.636719 103.945312 52.949219 103.898438 53.644531 L 103.828125 54.582031 L 104.929688 54.4375 C 106.804688 54.175781 107.066406 53.8125 105.410156 53.789062 L 103.972656 53.765625 L 104.617188 53.191406 C 105.148438 52.734375 105.457031 52.636719 106.132812 52.757812 C 106.636719 52.828125 106.972656 52.804688 106.972656 52.636719 C 106.972656 52.085938 105.53125 51.941406 104.570312 52.421875 Z M 104.570312 52.421875 "/>
<path style=" stroke:none;fill-rule:nonzero;fill:rgb(0%,0%,0%);fill-opacity:1;" d="M 71.929688 52.855469 C 71.929688 52.996094 72.21875 53.644531 72.578125 54.316406 L 73.226562 55.492188 L 72.699219 56.574219 C 72.050781 57.871094 72.027344 58.421875 72.578125 58.300781 C 72.84375 58.253906 73.058594 57.941406 73.132812 57.535156 C 73.324219 56.476562 73.660156 56.550781 74.402344 57.773438 C 75.289062 59.238281 75.457031 58.996094 74.691406 57.367188 C 73.996094 55.878906 73.945312 55.421875 74.449219 54.679688 C 74.929688 53.910156 74.523438 53.308594 74.019531 54.03125 C 73.5625 54.679688 73.203125 54.484375 72.746094 53.40625 C 72.410156 52.613281 71.929688 52.300781 71.929688 52.855469 Z M 71.929688 52.855469 "/>
<path style=" stroke:none;fill-rule:nonzero;fill:rgb(0%,0%,0%);fill-opacity:1;" d="M 81.796875 56.117188 C 81.820312 58.589844 81.890625 59.164062 82.035156 58.351562 C 82.300781 56.789062 82.300781 53.117188 82.011719 52.949219 C 81.84375 52.855469 81.769531 53.957031 81.796875 56.117188 Z M 81.796875 56.117188 "/>
<path style=" stroke:none;fill-rule:nonzero;fill:rgb(0%,0%,0%);fill-opacity:1;" d="M 108.84375 53.09375 C 108.601562 53.214844 108.410156 53.476562 108.410156 53.671875 C 108.410156 53.933594 108.601562 53.933594 109.371094 53.574219 C 109.898438 53.335938 110.402344 53.070312 110.5 52.996094 C 110.738281 52.734375 109.300781 52.828125 108.84375 53.09375 Z M 108.84375 53.09375 "/>
<path style=" stroke:none;fill-rule:nonzero;fill:rgb(0%,0%,0%);fill-opacity:1;" d="M 77.59375 54.726562 C 76.324219 54.988281 76.921875 55.351562 78.484375 55.253906 C 80.140625 55.183594 80.546875 55.039062 80.066406 54.726562 C 79.683594 54.484375 78.652344 54.484375 77.59375 54.726562 Z M 77.59375 54.726562 "/>
<path style=" stroke:none;fill-rule:nonzero;fill:rgb(0%,0%,0%);fill-opacity:1;" d="M 78.289062 55.972656 C 77.761719 56.09375 77.234375 56.335938 77.089844 56.476562 C 76.753906 56.839844 79.058594 56.574219 80.113281 56.09375 L 80.929688 55.757812 L 80.089844 55.757812 C 79.636719 55.757812 78.820312 55.855469 78.289062 55.972656 Z M 78.289062 55.972656 "/>
</g>
</svg>
