<?xml version="1.0" encoding="UTF-8"?>
<svg xmlns="http://www.w3.org/2000/svg" xmlns:xlink="http://www.w3.org/1999/xlink" width="121pt" height="83pt" viewBox="0 0 121 83" version="1.1">
<defs>
<clipPath id="clip1">
  <path d="M 0 0.414062 L 117 0.414062 L 117 82 L 0 82 Z M 0 0.414062 "/>
</clipPath>
</defs>
<g id="surface1">
<g clip-path="url(#clip1)" clip-rule="nonzero">
<path style=" stroke:none;fill-rule:nonzero;fill:rgb(0%,0%,0%);fill-opacity:1;" d="M 80.617188 3.125 C 78.625 9.222656 77.230469 12.820312 75.167969 17 C 72.71875 22.015625 71.160156 24.652344 66.742188 31.207031 C 63.289062 36.34375 61.511719 38.527344 59.398438 40.277344 C 56.976562 42.269531 52.96875 44.09375 50.976562 44.09375 L 50.230469 44.09375 L 50.0625 41.980469 C 49.847656 39.175781 49.441406 26.285156 49.441406 22.351562 L 49.441406 19.183594 L 50.183594 19.039062 C 50.59375 18.964844 51.238281 18.894531 51.625 18.894531 C 52.609375 18.894531 52.679688 18.511719 51.910156 17.453125 C 50.328125 15.222656 50.160156 14.957031 50.257812 14.671875 C 50.398438 14.308594 49.921875 13.855469 49.390625 13.855469 C 48.527344 13.855469 46.558594 17.453125 46.558594 19.039062 C 46.558594 19.636719 46.585938 19.660156 47.761719 19.492188 L 48.960938 19.328125 L 48.960938 22.421875 C 48.960938 24.101562 49.078125 29.578125 49.222656 34.566406 C 49.558594 45.367188 49.753906 44.621094 46.871094 43.972656 C 41.089844 42.679688 36.167969 39.871094 32.257812 35.621094 C 28.945312 32 23.039062 21.390625 20.542969 14.578125 C 19.945312 12.917969 18.960938 9.871094 18.335938 7.78125 C 17.6875 5.578125 17.113281 4.085938 16.992188 4.207031 C 16.871094 4.328125 17.257812 5.910156 17.878906 8 C 20.953125 17.8125 23.855469 24.246094 28.65625 31.78125 C 31.992188 36.988281 36.910156 41.140625 42.144531 43.183594 C 44.207031 43.972656 48.191406 45.054688 49.105469 45.054688 C 49.609375 45.054688 49.679688 45.175781 49.679688 45.871094 C 49.679688 46.328125 49.800781 48.894531 49.945312 51.558594 C 50.089844 54.484375 50.113281 56.476562 49.96875 56.621094 C 49.847656 56.742188 47.375 56.933594 44.449219 57.054688 C 41.542969 57.175781 34.726562 57.558594 29.351562 57.917969 C 22.871094 58.351562 17.230469 58.566406 12.71875 58.589844 L 5.878906 58.613281 L 5.6875 56.933594 C 5.566406 56 5.398438 55.15625 5.304688 55.0625 C 5.183594 54.964844 4.632812 55.230469 4.054688 55.660156 C 3.480469 56.117188 2.328125 56.933594 1.511719 57.484375 C 0.671875 58.0625 0 58.589844 0 58.710938 C 0 58.804688 1.054688 59.621094 2.351562 60.484375 C 3.625 61.351562 4.96875 62.308594 5.328125 62.578125 C 5.710938 62.863281 6 62.980469 6 62.863281 C 6 62.550781 4.367188 61.085938 3.097656 60.246094 C 2.257812 59.695312 2.183594 59.578125 2.542969 59.429688 C 3.695312 58.972656 5.28125 59.359375 5.28125 60.101562 C 5.28125 60.390625 5.398438 60.34375 5.832031 59.886719 L 6.382812 59.285156 L 13.585938 59.140625 C 19.894531 59 23.6875 58.804688 38.640625 57.796875 C 40.558594 57.652344 43.921875 57.484375 46.128906 57.390625 L 50.113281 57.246094 L 50.257812 59 C 50.328125 59.980469 50.449219 62.285156 50.542969 64.132812 C 50.617188 65.980469 50.832031 68.789062 51.023438 70.375 C 51.191406 71.957031 51.359375 73.804688 51.359375 74.476562 L 51.359375 75.726562 L 50.351562 75.871094 C 48.480469 76.15625 48.480469 76.183594 50.351562 79.039062 C 51.289062 80.453125 52.128906 81.726562 52.175781 81.871094 C 52.367188 82.351562 52.777344 81.460938 53.160156 79.613281 C 53.398438 78.628906 53.761719 77.335938 54.023438 76.757812 C 54.265625 76.183594 54.480469 75.679688 54.480469 75.628906 C 54.480469 75.582031 53.953125 75.535156 53.304688 75.535156 C 52.199219 75.535156 52.105469 75.484375 51.984375 74.886719 C 51.480469 72.367188 50.542969 57.773438 50.855469 57.460938 C 50.953125 57.367188 57.144531 57.125 64.585938 56.933594 C 72.023438 56.742188 83.207031 56.429688 89.398438 56.238281 C 113.640625 55.46875 111.359375 55.492188 111.359375 56.070312 C 111.359375 56.71875 111.863281 56.71875 112.273438 56.09375 C 112.585938 55.566406 113.039062 55.445312 113.039062 55.878906 C 113.039062 56.023438 112.703125 56.621094 112.273438 57.203125 C 111.097656 58.828125 111.625 58.6875 113.160156 56.933594 C 114.457031 55.46875 114.601562 55.375 115.585938 55.375 C 116.160156 55.375 116.640625 55.253906 116.640625 55.132812 C 116.640625 54.988281 116.304688 54.894531 115.921875 54.894531 C 115.390625 54.894531 115.128906 54.75 114.984375 54.34375 C 114.769531 53.839844 112.054688 51.292969 111.695312 51.292969 C 111.625 51.292969 111.601562 51.75 111.671875 52.300781 L 111.792969 53.335938 L 110.878906 51.414062 L 110.953125 53.167969 C 111 54.75 110.976562 54.917969 110.519531 55.015625 C 110.257812 55.0625 105.839844 55.230469 100.679688 55.375 C 95.542969 55.519531 89.0625 55.734375 86.304688 55.878906 C 83.542969 56 81.265625 56.070312 81.214844 56.023438 C 81.167969 56 80.566406 49.972656 79.894531 42.652344 C 78.671875 29.789062 78.648438 29.023438 78.574219 20.359375 L 78.503906 11.382812 L 80.160156 6.292969 C 81.070312 3.511719 81.886719 1.039062 81.984375 0.820312 C 82.078125 0.558594 82.007812 0.414062 81.816406 0.414062 C 81.601562 0.414062 81.144531 1.445312 80.617188 3.125 Z M 78 16.253906 L 78 19.132812 L 77.328125 19.132812 C 76.96875 19.132812 76.152344 19.445312 75.527344 19.855469 C 74.855469 20.261719 74.398438 20.453125 74.398438 20.261719 C 74.398438 19.828125 77.59375 13.375 77.808594 13.375 C 77.902344 13.375 78 14.671875 78 16.253906 Z M 48.671875 18.125 C 48.265625 18.988281 47.28125 19.15625 47.28125 18.367188 C 47.28125 17.789062 48.070312 15.917969 48.550781 15.316406 C 48.984375 14.8125 49.078125 17.261719 48.671875 18.125 Z M 50.566406 16.542969 C 50.832031 16.855469 51.167969 17.335938 51.335938 17.621094 C 51.625 18.203125 51.3125 18.414062 50.136719 18.414062 C 49.558594 18.414062 49.441406 18.316406 49.441406 17.839844 C 49.441406 17.503906 49.558594 17.167969 49.679688 17.09375 C 49.824219 17 49.871094 16.734375 49.800781 16.46875 C 49.609375 15.847656 49.96875 15.894531 50.566406 16.542969 Z M 78 20.191406 C 78 20.644531 77.425781 21.125 75.121094 22.710938 C 73.535156 23.765625 72.167969 24.652344 72.121094 24.652344 C 72.046875 24.652344 72 24.511719 72 24.316406 C 72 23.8125 73.894531 21.796875 75.457031 20.644531 C 77.0625 19.46875 78 19.300781 78 20.191406 Z M 77.878906 22.542969 C 77.953125 22.855469 77.976562 24.535156 77.953125 26.308594 L 77.878906 29.550781 L 72.359375 32.335938 C 69.335938 33.847656 66.265625 35.453125 65.542969 35.886719 C 64.847656 36.316406 64.199219 36.628906 64.128906 36.558594 C 63.984375 36.390625 64.585938 35.453125 66.023438 33.628906 C 67.921875 31.230469 73.535156 27.222656 76.511719 26.167969 C 77.304688 25.878906 77.566406 25.375 76.921875 25.375 C 76.246094 25.375 73.847656 26.71875 71.183594 28.589844 C 69.742188 29.597656 68.519531 30.367188 68.449219 30.316406 C 68.398438 30.246094 68.878906 29.335938 69.550781 28.253906 C 70.609375 26.550781 70.992188 26.140625 72.863281 24.847656 C 74.953125 23.429688 77.230469 22.0625 77.566406 22.039062 C 77.664062 22.015625 77.808594 22.253906 77.878906 22.542969 Z M 78.238281 30.628906 C 78.238281 30.75 78.335938 31.660156 78.480469 32.621094 C 78.886719 35.765625 79.945312 48.75 79.824219 49.253906 C 79.753906 49.566406 79.105469 50.023438 78.070312 50.527344 C 74.785156 52.132812 71.160156 54.292969 71.59375 54.367188 C 71.808594 54.414062 72.839844 53.980469 73.871094 53.429688 C 76.703125 51.847656 79.777344 50.382812 79.992188 50.503906 C 80.375 50.742188 80.113281 51.535156 79.511719 51.964844 C 79.128906 52.207031 77.617188 53.09375 76.152344 53.933594 C 73.65625 55.351562 73.007812 55.855469 73.726562 55.855469 C 73.894531 55.855469 74.976562 55.300781 76.152344 54.628906 C 77.328125 53.957031 78.433594 53.476562 78.601562 53.550781 C 78.792969 53.621094 79.054688 53.503906 79.199219 53.308594 C 79.609375 52.828125 80.160156 52.878906 80.160156 53.40625 C 80.160156 53.644531 79.679688 54.175781 79.054688 54.628906 C 78.382812 55.085938 78 55.519531 78.070312 55.734375 C 78.238281 56.140625 76.414062 56.285156 68.136719 56.429688 C 63.121094 56.550781 61.921875 56.503906 61.535156 56.238281 C 61.152344 55.953125 61.054688 55.519531 60.984375 53.839844 C 60.960938 52.6875 61.007812 51.773438 61.128906 51.773438 C 61.246094 51.773438 62.734375 50.910156 64.464844 49.828125 C 68.398438 47.382812 73.414062 44.621094 74.089844 44.503906 C 75.070312 44.359375 77.878906 42.175781 77.089844 42.175781 C 76.703125 42.175781 72.671875 44.359375 67.800781 47.214844 C 61.464844 50.910156 61.246094 51.03125 60.960938 50.578125 C 60.816406 50.382812 60.71875 49.613281 60.71875 48.894531 L 60.71875 47.550781 L 64.632812 45.246094 C 69.71875 42.222656 74.183594 39.773438 74.640625 39.773438 C 75.167969 39.75 78.3125 37.972656 78.433594 37.613281 C 78.503906 37.421875 78.359375 37.375 77.976562 37.46875 C 77.039062 37.734375 71.902344 40.421875 67.679688 42.871094 C 65.496094 44.117188 63.046875 45.511719 62.230469 45.964844 L 60.742188 46.757812 L 60.625 46.207031 C 60.3125 44.621094 60.3125 43.878906 60.625 43.421875 C 61.464844 42.222656 73.273438 35.359375 75.574219 34.734375 C 76.078125 34.613281 76.679688 34.277344 76.945312 33.988281 C 77.375 33.511719 77.375 33.511719 76.679688 33.652344 C 74.878906 34.085938 69.816406 36.773438 63.433594 40.734375 C 60.769531 42.367188 60.121094 42.484375 60.480469 41.191406 C 60.601562 40.78125 60.863281 40.183594 61.078125 39.871094 C 61.992188 38.476562 71.089844 33.175781 76.320312 30.988281 C 77.761719 30.390625 78.238281 30.292969 78.238281 30.628906 Z M 60.121094 47.980469 C 60.3125 51.316406 60.527344 54.605469 60.601562 55.277344 L 60.71875 56.503906 L 56.089844 56.671875 C 53.519531 56.765625 51.265625 56.765625 51.070312 56.695312 C 50.617188 56.527344 50.449219 54.582031 50.351562 48.796875 L 50.28125 44.980469 L 52.175781 44.527344 C 53.976562 44.117188 57.886719 42.414062 58.921875 41.621094 C 59.328125 41.308594 59.425781 41.308594 59.59375 41.578125 C 59.6875 41.765625 59.929688 44.644531 60.121094 47.980469 Z M 113.878906 53.933594 C 114.335938 54.460938 114.335938 54.460938 113.878906 54.796875 C 112.992188 55.46875 111.910156 54.964844 112.222656 54.03125 C 112.296875 53.765625 112.414062 53.429688 112.464844 53.261719 C 112.585938 52.878906 113.183594 53.167969 113.878906 53.933594 Z M 80.351562 55.421875 C 80.304688 55.878906 80.113281 56 79.390625 56.046875 C 78.3125 56.140625 78.238281 55.878906 79.152344 55.328125 C 80.0625 54.75 80.449219 54.773438 80.351562 55.421875 Z M 4.65625 56.765625 C 4.703125 56.863281 4.824219 57.34375 4.921875 57.847656 L 5.089844 58.734375 L 3.144531 58.734375 C 2.089844 58.734375 1.199219 58.660156 1.199219 58.542969 C 1.199219 58.445312 1.777344 57.964844 2.472656 57.484375 C 3.671875 56.621094 4.414062 56.382812 4.65625 56.765625 Z M 53.160156 76.300781 C 53.304688 76.757812 52.488281 80.117188 52.199219 80.167969 C 51.886719 80.238281 49.945312 77.429688 49.921875 76.902344 C 49.921875 76.15625 50.496094 76.566406 51.121094 77.765625 C 51.457031 78.390625 51.792969 78.894531 51.910156 78.894531 C 52.007812 78.894531 52.078125 78.316406 52.078125 77.621094 C 52.078125 76.902344 52.152344 76.253906 52.246094 76.183594 C 52.511719 75.917969 53.039062 75.988281 53.160156 76.300781 Z M 53.160156 76.300781 "/>
</g>
<path style=" stroke:none;fill-rule:nonzero;fill:rgb(0%,0%,0%);fill-opacity:1;" d="M 73.558594 48.726562 C 66.886719 51.988281 61.921875 54.847656 61.921875 55.398438 C 61.921875 55.828125 62.855469 55.375 65.351562 53.742188 C 68.113281 51.941406 74.902344 48.414062 75.648438 48.414062 C 76.105469 48.414062 78.71875 47.070312 78.71875 46.828125 C 78.71875 46.421875 77.0625 47.023438 73.558594 48.726562 Z M 73.558594 48.726562 "/>
<path style=" stroke:none;fill-rule:nonzero;fill:rgb(0%,0%,0%);fill-opacity:1;" d="M 44.902344 5.191406 C 44.734375 5.839844 44.398438 6.558594 44.160156 6.773438 C 43.726562 7.15625 43.703125 7.15625 43.535156 6.511719 C 43.296875 5.550781 42.742188 4.492188 42.480469 4.492188 C 42.070312 4.492188 42.214844 5.167969 42.839844 6.414062 C 43.511719 7.734375 44.039062 7.925781 44.761719 7.132812 C 45.3125 6.535156 45.601562 6.726562 45.601562 7.6875 C 45.601562 8.285156 45.40625 8.621094 44.761719 9.125 C 43.367188 10.230469 43.105469 10.78125 43.511719 11.742188 C 44.089844 13.109375 45.480469 13.953125 46.128906 13.300781 C 46.753906 12.679688 46.128906 5 45.382812 4.183594 C 45.289062 4.085938 45.070312 4.542969 44.902344 5.191406 Z M 45.695312 9.820312 C 45.9375 10.757812 45.863281 12.894531 45.574219 12.894531 C 45.433594 12.894531 45 12.679688 44.617188 12.390625 C 43.726562 11.765625 43.703125 10.804688 44.519531 9.917969 C 45.238281 9.148438 45.503906 9.125 45.695312 9.820312 Z M 45.695312 9.820312 "/>
<path style=" stroke:none;fill-rule:nonzero;fill:rgb(0%,0%,0%);fill-opacity:1;" d="M 116.878906 57.894531 C 116.878906 58.253906 117.144531 58.757812 117.480469 59.070312 C 117.816406 59.382812 118.078125 59.789062 118.078125 59.980469 C 118.078125 60.175781 117.648438 61.277344 117.097656 62.429688 C 116.566406 63.582031 116.183594 64.589844 116.230469 64.660156 C 116.304688 64.734375 116.808594 63.964844 117.359375 62.957031 C 117.910156 61.953125 118.464844 61.0625 118.609375 60.988281 C 118.753906 60.894531 119.398438 61.398438 120.046875 62.117188 C 121.246094 63.4375 121.222656 63.054688 119.976562 61.207031 C 119.136719 60.007812 119.089844 59.597656 119.785156 59.8125 C 120.265625 59.980469 120.289062 59.933594 120.144531 59.308594 C 119.902344 58.398438 119.832031 58.351562 119.28125 58.6875 C 118.585938 59.117188 118.414062 59.046875 117.839844 58.132812 C 117.214844 57.148438 116.878906 57.054688 116.878906 57.894531 Z M 116.878906 57.894531 "/>
<path style=" stroke:none;fill-rule:nonzero;fill:rgb(0%,0%,0%);fill-opacity:1;" d="M 88.558594 60.414062 C 88.199219 62.117188 88.296875 62.453125 89.257812 62.644531 C 90.457031 62.886719 90.121094 64.015625 88.679688 64.613281 C 88.222656 64.804688 88.222656 64.828125 88.753906 64.925781 C 89.375 65.023438 90.433594 64.421875 90.648438 63.871094 C 90.863281 63.316406 90.3125 62.359375 89.640625 62.09375 C 88.535156 61.6875 89.0625 60.558594 90.550781 60.148438 L 91.558594 59.863281 L 90.601562 59.644531 C 90.070312 59.527344 89.542969 59.335938 89.425781 59.214844 C 88.992188 58.78125 88.871094 58.953125 88.558594 60.414062 Z M 88.558594 60.414062 "/>
<path style=" stroke:none;fill-rule:nonzero;fill:rgb(0%,0%,0%);fill-opacity:1;" d="M 44.0625 59.71875 C 43.511719 60.148438 43.441406 60.390625 43.441406 61.566406 C 43.441406 62.382812 43.609375 63.269531 43.871094 63.773438 C 44.207031 64.46875 44.425781 64.636719 45.144531 64.6875 C 46.414062 64.78125 47.28125 63.988281 47.449219 62.527344 C 47.519531 61.902344 47.519531 61.132812 47.425781 60.796875 C 47.0625 59.308594 45.289062 58.734375 44.0625 59.71875 Z M 46.535156 60.316406 C 47.734375 61.828125 46.488281 64.636719 44.878906 64.132812 C 44.398438 63.988281 43.824219 62.644531 44.015625 62.070312 C 44.0625 61.878906 44.183594 61.445312 44.257812 61.0625 C 44.351562 60.628906 44.566406 60.414062 44.855469 60.414062 C 45.097656 60.414062 45.359375 60.246094 45.457031 60.054688 C 45.648438 59.527344 45.984375 59.621094 46.535156 60.316406 Z M 46.535156 60.316406 "/>
<path style=" stroke:none;fill-rule:nonzero;fill:rgb(0%,0%,0%);fill-opacity:1;" d="M 82.105469 59.957031 L 81.839844 60.703125 L 81.097656 60.078125 C 80.449219 59.527344 79.679688 59.261719 79.679688 59.578125 C 79.679688 59.644531 80.089844 60.125 80.566406 60.679688 L 81.433594 61.636719 L 81.121094 63.203125 C 80.929688 64.277344 80.902344 64.855469 81.070312 65.023438 C 81.238281 65.191406 81.359375 65.046875 81.433594 64.566406 C 81.503906 64.207031 81.648438 63.535156 81.71875 63.101562 C 81.816406 62.695312 82.007812 62.335938 82.152344 62.335938 C 82.296875 62.335938 82.824219 62.742188 83.328125 63.222656 C 84.480469 64.351562 84.527344 63.847656 83.398438 62.597656 C 82.558594 61.6875 82.320312 60.75 82.800781 60.269531 C 83.0625 60.007812 82.871094 59.214844 82.558594 59.214844 C 82.464844 59.214844 82.246094 59.550781 82.105469 59.957031 Z M 82.105469 59.957031 "/>
<path style=" stroke:none;fill-rule:nonzero;fill:rgb(0%,0%,0%);fill-opacity:1;" d="M 85.296875 60.292969 C 84.863281 60.605469 84.886719 60.628906 85.703125 60.652344 C 86.929688 60.652344 88.105469 60.390625 87.9375 60.148438 C 87.71875 59.789062 85.800781 59.910156 85.296875 60.292969 Z M 85.296875 60.292969 "/>
<path style=" stroke:none;fill-rule:nonzero;fill:rgb(0%,0%,0%);fill-opacity:1;" d="M 55.871094 60.316406 C 55.679688 60.511719 55.894531 61.085938 56.449219 61.855469 C 56.855469 62.429688 56.855469 62.503906 56.257812 63.988281 C 55.847656 64.972656 55.726562 65.597656 55.871094 65.742188 C 56.015625 65.886719 56.207031 65.695312 56.375 65.140625 C 56.542969 64.6875 56.878906 64.109375 57.144531 63.871094 C 57.648438 63.4375 57.648438 63.4375 58.585938 64.492188 C 59.6875 65.789062 59.785156 65.503906 58.777344 63.894531 C 58.175781 62.933594 58.078125 62.621094 58.296875 62.285156 C 58.441406 62.046875 58.558594 61.6875 58.558594 61.492188 C 58.558594 61.085938 58.175781 61.015625 57.960938 61.375 C 57.671875 61.855469 56.929688 61.589844 56.472656 60.894531 C 56.207031 60.484375 55.945312 60.222656 55.871094 60.316406 Z M 55.871094 60.316406 "/>
<path style=" stroke:none;fill-rule:nonzero;fill:rgb(0%,0%,0%);fill-opacity:1;" d="M 64.632812 61.636719 C 64.703125 62.09375 64.921875 63.367188 65.089844 64.492188 L 65.398438 66.535156 L 65.472656 65.09375 C 65.566406 63.148438 65.230469 61.085938 64.824219 60.941406 C 64.558594 60.847656 64.535156 61.015625 64.632812 61.636719 Z M 64.632812 61.636719 "/>
<path style=" stroke:none;fill-rule:nonzero;fill:rgb(0%,0%,0%);fill-opacity:1;" d="M 85.65625 61.589844 C 85.222656 61.953125 85.152344 62.140625 85.34375 62.335938 C 85.535156 62.527344 85.847656 62.453125 86.542969 61.972656 C 87.792969 61.132812 87.792969 61.132812 86.953125 61.132812 C 86.542969 61.132812 85.96875 61.351562 85.65625 61.589844 Z M 85.65625 61.589844 "/>
<path style=" stroke:none;fill-rule:nonzero;fill:rgb(0%,0%,0%);fill-opacity:1;" d="M 61.246094 62.71875 C 60.769531 63.054688 60.457031 64.492188 60.886719 64.492188 C 61.296875 64.492188 64.320312 63.414062 64.320312 63.269531 C 64.320312 63.175781 64.054688 63.03125 63.71875 62.957031 C 63.382812 62.863281 63.121094 62.695312 63.121094 62.578125 C 63.121094 62.191406 61.847656 62.285156 61.246094 62.71875 Z M 61.246094 62.71875 "/>
</g>
</svg>
