<?xml version="1.0" encoding="UTF-8"?>
<svg xmlns="http://www.w3.org/2000/svg" xmlns:xlink="http://www.w3.org/1999/xlink" width="90pt" height="62pt" viewBox="0 0 90 62" version="1.1">
<defs>
<clipPath id="clip1">
  <path d="M 59 0.351562 L 64 0.351562 L 64 6 L 59 6 Z M 59 0.351562 "/>
</clipPath>
</defs>
<g id="surface1">
<g clip-path="url(#clip1)" clip-rule="nonzero">
<path style=" stroke:none;fill-rule:nonzero;fill:rgb(0%,0%,0%);fill-opacity:1;" d="M 59.777344 0.832031 C 59.777344 1.238281 59.894531 1.289062 60.566406 1.144531 C 62.128906 0.832031 62.273438 0.878906 62.464844 1.910156 C 62.558594 2.441406 62.632812 3.496094 62.632812 4.238281 C 62.65625 5.007812 62.75 5.632812 62.871094 5.632812 C 63.28125 5.632812 63.589844 4.238281 63.375 3.421875 C 63.28125 2.992188 63.113281 2.128906 63.015625 1.480469 L 62.871094 0.351562 L 61.3125 0.351562 C 59.945312 0.351562 59.777344 0.398438 59.777344 0.832031 Z M 59.777344 0.832031 "/>
</g>
<path style=" stroke:none;fill-rule:nonzero;fill:rgb(0%,0%,0%);fill-opacity:1;" d="M 66.015625 3.328125 C 66.015625 4.167969 66.542969 6.953125 66.757812 7.191406 C 66.902344 7.335938 67.121094 7.289062 67.335938 7.046875 C 67.648438 6.734375 67.648438 6.589844 67.214844 5.75 C 66.953125 5.222656 66.734375 4.574219 66.734375 4.3125 C 66.734375 4.023438 66.566406 3.589844 66.375 3.328125 C 66.039062 2.871094 66.039062 2.871094 66.015625 3.328125 Z M 66.015625 3.328125 "/>
<path style=" stroke:none;fill-rule:nonzero;fill:rgb(0%,0%,0%);fill-opacity:1;" d="M 21.0625 3.832031 C 20.679688 4.214844 20.320312 7.046875 20.464844 8.511719 L 20.535156 9.351562 L 21.0625 8.441406 C 21.6875 7.40625 22.671875 7.191406 22.933594 8.054688 C 23.128906 8.609375 23.441406 8.414062 23.582031 7.695312 C 23.632812 7.429688 24.015625 7.121094 24.496094 6.925781 L 25.335938 6.640625 L 24.113281 6.617188 L 22.886719 6.589844 L 22.359375 5.152344 C 21.757812 3.519531 21.566406 3.328125 21.0625 3.832031 Z M 22.214844 5.96875 C 22.382812 6.472656 22.359375 6.664062 22.09375 6.832031 C 21.496094 7.214844 21.375 7.09375 21.375 6.085938 C 21.375 4.960938 21.832031 4.886719 22.214844 5.96875 Z M 22.214844 5.96875 "/>
<path style=" stroke:none;fill-rule:nonzero;fill:rgb(0%,0%,0%);fill-opacity:1;" d="M 41.65625 6.0625 C 41.582031 6.136719 41.535156 6.496094 41.535156 6.855469 L 41.535156 7.503906 L 36.925781 7.648438 C 30.113281 7.863281 27.136719 8.054688 27.136719 8.273438 C 27.136719 8.65625 27.902344 8.703125 30.902344 8.511719 C 32.582031 8.390625 35.75 8.273438 37.933594 8.222656 L 41.894531 8.152344 L 41.96875 8.75 C 42.160156 10 42.449219 9.976562 44.078125 8.679688 C 44.917969 8.007812 45.617188 7.382812 45.617188 7.3125 C 45.617188 7.121094 41.800781 5.917969 41.65625 6.0625 Z M 43.335938 8.273438 C 43.261719 8.390625 43.023438 8.511719 42.832031 8.511719 C 42.640625 8.511719 42.542969 8.390625 42.617188 8.273438 C 42.6875 8.128906 42.925781 8.03125 43.121094 8.03125 C 43.3125 8.03125 43.40625 8.128906 43.335938 8.273438 Z M 43.335938 8.273438 "/>
<path style=" stroke:none;fill-rule:nonzero;fill:rgb(0%,0%,0%);fill-opacity:1;" d="M 58.503906 7.597656 C 58.457031 7.765625 58.457031 9.28125 58.527344 10.9375 C 58.597656 12.589844 58.574219 14.464844 58.480469 15.085938 C 58.3125 16.167969 58.261719 16.214844 57.664062 16.09375 C 56.894531 15.953125 43.933594 15.542969 32.894531 15.328125 L 25.070312 15.183594 L 24.6875 14.488281 C 24.160156 13.597656 23.464844 13.597656 22.457031 14.488281 C 21.734375 15.113281 21.496094 15.183594 19.070312 15.304688 C 17.632812 15.398438 12.976562 15.542969 8.703125 15.617188 C 4.457031 15.710938 0.617188 15.855469 0.183594 15.953125 C -0.96875 16.238281 3.617188 16.214844 13.457031 15.925781 L 21.976562 15.6875 L 22.503906 16.359375 C 22.984375 16.960938 23.199219 17.03125 24.421875 17.03125 C 25.597656 17.03125 26.609375 17.367188 31.070312 19.144531 C 36.757812 21.421875 39.6875 22.765625 49.457031 27.519531 L 55.816406 30.589844 L 55.816406 32.847656 L 49.816406 36.472656 C 46.527344 38.464844 42.085938 41.199219 40 42.542969 C 37.886719 43.910156 35.917969 45.0625 35.632812 45.136719 C 35.273438 45.230469 34.765625 45.085938 34.238281 44.777344 L 33.421875 44.273438 L 32.441406 45.183594 L 31.429688 46.121094 L 23.34375 46.261719 C 18.902344 46.359375 11.75 46.429688 7.457031 46.429688 C 2.320312 46.429688 -0.222656 46.527344 0.015625 46.671875 C 0.230469 46.816406 6.351562 46.910156 16.09375 46.910156 L 31.816406 46.910156 L 32.222656 47.632812 C 32.75 48.566406 33.375 48.542969 34.457031 47.609375 L 35.296875 46.863281 L 42.449219 47.128906 C 50.246094 47.441406 55.597656 47.777344 55.960938 47.992188 C 56.273438 48.183594 56.222656 52.574219 55.886719 56.558594 C 55.695312 59.078125 55.695312 60.015625 55.886719 60.496094 C 56.511719 61.839844 56.65625 60.734375 56.65625 54.304688 L 56.65625 47.800781 L 58.070312 47.945312 C 58.863281 48.039062 61.527344 48.253906 64.023438 48.472656 C 70.816406 49.023438 76.792969 49.550781 78.085938 49.695312 C 79.121094 49.816406 79.214844 49.792969 79.214844 49.335938 C 79.214844 48.710938 78.617188 48.421875 78.136719 48.832031 C 77.871094 49.046875 77.296875 49.09375 76.144531 48.976562 C 75.253906 48.878906 71.992188 48.589844 68.894531 48.351562 C 57.617188 47.414062 57.519531 47.414062 57.183594 46.960938 C 56.511719 46.09375 57.640625 34.742188 58.597656 32.609375 C 58.984375 31.71875 59.007812 31.527344 58.695312 30.519531 C 58.429688 29.609375 58.40625 28.574219 58.597656 24.902344 C 58.742188 22.40625 58.910156 19.625 59.007812 18.710938 L 59.175781 17.03125 L 62.296875 16.886719 C 64.023438 16.792969 66.328125 16.625 67.457031 16.480469 C 68.582031 16.335938 70.480469 16.214844 71.65625 16.191406 C 72.855469 16.167969 74.03125 16.046875 74.296875 15.925781 C 74.800781 15.6875 67.503906 15.808594 62.152344 16.09375 L 59.367188 16.261719 L 59.175781 11.777344 C 59.03125 7.765625 58.839844 6.6875 58.503906 7.597656 Z M 48.253906 16.191406 C 51.496094 16.335938 55.144531 16.550781 56.367188 16.71875 L 58.574219 17.007812 L 58.457031 18.472656 C 58.382812 19.261719 58.214844 22.046875 58.09375 24.664062 C 57.976562 27.253906 57.757812 29.609375 57.617188 29.894531 C 57.230469 30.589844 56.894531 30.472656 51.015625 27.664062 C 39.015625 21.925781 36.855469 20.945312 32.65625 19.238281 C 27.0625 16.984375 25.550781 16.289062 25.3125 15.925781 C 25.121094 15.617188 36.398438 15.757812 48.253906 16.191406 Z M 57.328125 34.597656 C 57.207031 36.351562 56.464844 44.65625 56.273438 46.382812 C 56.175781 47.199219 56.054688 47.390625 55.742188 47.296875 C 55.527344 47.222656 51.0625 47.007812 45.855469 46.792969 C 40.648438 46.574219 36.183594 46.359375 35.945312 46.289062 C 35.511719 46.144531 37.023438 45.085938 44.34375 40.40625 C 48.878906 37.503906 56.703125 32.992188 57.207031 32.992188 C 57.328125 32.992188 57.375 33.710938 57.328125 34.597656 Z M 57.328125 34.597656 "/>
<path style=" stroke:none;fill-rule:nonzero;fill:rgb(0%,0%,0%);fill-opacity:1;" d="M 76.167969 13.71875 C 75.757812 13.863281 75.757812 14.390625 76.167969 14.703125 C 76.40625 14.894531 76.550781 14.847656 76.765625 14.488281 C 77.128906 13.910156 78.589844 13.863281 79.863281 14.390625 C 80.847656 14.800781 81.136719 14.847656 81.136719 14.535156 C 81.136719 13.886719 77.296875 13.238281 76.167969 13.71875 Z M 76.167969 13.71875 "/>
<path style=" stroke:none;fill-rule:nonzero;fill:rgb(0%,0%,0%);fill-opacity:1;" d="M 78.640625 15.039062 C 78.449219 15.617188 78.328125 20.75 78.519531 20.75 C 78.832031 20.75 79 19.886719 79.144531 17.488281 C 79.238281 15.785156 79.191406 15.015625 79 14.894531 C 78.855469 14.800781 78.6875 14.871094 78.640625 15.039062 Z M 78.640625 15.039062 "/>
<path style=" stroke:none;fill-rule:nonzero;fill:rgb(0%,0%,0%);fill-opacity:1;" d="M 60.878906 19.191406 C 60.808594 19.40625 60.734375 20.246094 60.734375 21.039062 C 60.734375 22.261719 60.785156 22.457031 61.070312 22.214844 C 61.261719 22.046875 61.480469 21.664062 61.550781 21.328125 C 61.71875 20.65625 62.105469 20.777344 62.414062 21.617188 C 62.75 22.457031 63.28125 22.3125 64.023438 21.183594 L 64.695312 20.175781 L 64.863281 22.023438 C 65.007812 23.65625 65.414062 25.023438 65.65625 24.785156 C 65.777344 24.6875 65.128906 20.175781 64.910156 19.480469 C 64.71875 18.878906 64.457031 18.976562 64.121094 19.71875 C 63.953125 20.105469 63.664062 20.65625 63.449219 20.96875 L 63.085938 21.519531 L 62.320312 20.246094 C 61.503906 18.878906 61.121094 18.589844 60.878906 19.191406 Z M 60.878906 19.191406 "/>
<path style=" stroke:none;fill-rule:nonzero;fill:rgb(0%,0%,0%);fill-opacity:1;" d="M 81.519531 19.144531 C 81.183594 19.382812 81.136719 19.625 81.253906 20.054688 L 81.449219 20.632812 L 81.640625 20.078125 C 81.785156 19.71875 82.046875 19.550781 82.457031 19.550781 C 83.34375 19.550781 83.273438 20.609375 82.335938 21.421875 C 81.953125 21.785156 81.617188 22.144531 81.617188 22.238281 C 81.617188 22.359375 82.671875 22.429688 83.96875 22.429688 C 86.414062 22.429688 86.632812 22.121094 84.421875 21.832031 C 83.535156 21.6875 83.296875 21.589844 83.390625 21.304688 C 83.992188 19.792969 83.679688 18.832031 82.625 18.832031 C 82.238281 18.832031 81.757812 18.976562 81.519531 19.144531 Z M 81.519531 19.144531 "/>
<path style=" stroke:none;fill-rule:nonzero;fill:rgb(0%,0%,0%);fill-opacity:1;" d="M 70.574219 31.550781 L 70.574219 35.152344 L 69.6875 35.175781 C 69.183594 35.175781 68.558594 35.273438 68.296875 35.367188 C 67.863281 35.535156 67.933594 35.632812 68.777344 36.160156 C 69.304688 36.496094 70 37.214844 70.335938 37.765625 C 70.671875 38.320312 71.03125 38.726562 71.128906 38.679688 C 71.246094 38.65625 71.632812 37.863281 71.992188 36.953125 L 72.664062 35.273438 L 71.871094 35.199219 L 71.054688 35.128906 L 71.054688 31.527344 C 71.054688 29.296875 70.960938 27.953125 70.816406 27.953125 C 70.671875 27.953125 70.574219 29.320312 70.574219 31.550781 Z M 71.535156 36.113281 C 71.535156 36.230469 71.441406 36.351562 71.296875 36.351562 C 71.175781 36.351562 71.054688 36.230469 71.054688 36.113281 C 71.054688 35.96875 71.175781 35.871094 71.296875 35.871094 C 71.441406 35.871094 71.535156 35.96875 71.535156 36.113281 Z M 71.535156 36.113281 "/>
<path style=" stroke:none;fill-rule:nonzero;fill:rgb(0%,0%,0%);fill-opacity:1;" d="M 61.792969 31.167969 C 61.597656 31.671875 61.863281 34.671875 62.199219 35.945312 L 62.441406 36.855469 L 63.566406 36.6875 C 65.078125 36.472656 66.328125 35.945312 66.207031 35.582031 C 66.160156 35.414062 65.488281 35.078125 64.742188 34.816406 L 63.398438 34.382812 L 64.121094 33.472656 C 65.105469 32.246094 64.984375 31.695312 63.734375 31.597656 C 63.207031 31.550781 62.582031 31.335938 62.367188 31.144531 C 61.984375 30.808594 61.933594 30.808594 61.792969 31.167969 Z M 64.167969 32.199219 C 64.382812 32.414062 63.136719 33.710938 62.726562 33.710938 C 62.296875 33.710938 62.34375 32.871094 62.800781 32.414062 C 63.183594 32.007812 63.902344 31.910156 64.167969 32.199219 Z M 64.429688 35.296875 C 65.078125 35.464844 65.105469 35.488281 64.695312 35.777344 C 64.09375 36.207031 63.28125 36.207031 62.894531 35.75 C 62.535156 35.320312 62.800781 34.863281 63.328125 35.007812 C 63.566406 35.078125 64.046875 35.199219 64.429688 35.296875 Z M 64.429688 35.296875 "/>
<path style=" stroke:none;fill-rule:nonzero;fill:rgb(0%,0%,0%);fill-opacity:1;" d="M 9.496094 31.3125 C 9.421875 31.429688 9.449219 31.550781 9.589844 31.550781 C 9.710938 31.550781 9.902344 31.429688 9.976562 31.3125 C 10.046875 31.167969 10.023438 31.070312 9.878906 31.070312 C 9.757812 31.070312 9.566406 31.167969 9.496094 31.3125 Z M 9.496094 31.3125 "/>
<path style=" stroke:none;fill-rule:nonzero;fill:rgb(0%,0%,0%);fill-opacity:1;" d="M 81.015625 47.390625 C 80.75 47.824219 81.183594 48.136719 81.925781 48.0625 C 82.863281 47.96875 83.007812 48.375 83.03125 51.398438 C 83.054688 53.582031 83.367188 54.304688 83.679688 53.007812 C 83.847656 52.382812 83.65625 49.503906 83.390625 48.421875 C 83.246094 47.894531 83.296875 47.871094 84.640625 47.847656 C 86.582031 47.824219 85.648438 47.511719 83.128906 47.320312 C 81.953125 47.222656 81.085938 47.273438 81.015625 47.390625 Z M 81.015625 47.390625 "/>
<path style=" stroke:none;fill-rule:nonzero;fill:rgb(0%,0%,0%);fill-opacity:1;" d="M 32.007812 51.253906 C 31.046875 51.855469 30.253906 53.105469 30.253906 53.96875 C 30.253906 54.351562 30.519531 54.878906 30.878906 55.238281 C 31.457031 55.816406 31.597656 55.839844 33.328125 55.742188 C 34.984375 55.625 37.40625 54.953125 37.121094 54.664062 C 37.070312 54.589844 36.253906 54.710938 35.320312 54.925781 C 33.015625 55.457031 31.816406 55.429688 31.214844 54.832031 C 30.953125 54.566406 30.734375 54.183594 30.734375 53.96875 C 30.734375 53.296875 31.527344 52.238281 32.34375 51.785156 C 33.160156 51.351562 33.160156 51.351562 33.589844 51.925781 C 34.167969 52.671875 34.527344 52.167969 34 51.351562 C 33.519531 50.632812 33.015625 50.609375 32.007812 51.253906 Z M 32.007812 51.253906 "/>
<path style=" stroke:none;fill-rule:nonzero;fill:rgb(0%,0%,0%);fill-opacity:1;" d="M 62.894531 52.3125 C 62.894531 53.175781 62.824219 53.871094 62.75 53.871094 C 62.65625 53.871094 62.199219 53.535156 61.71875 53.128906 C 60.015625 51.6875 59.726562 51.472656 59.65625 51.472656 C 59.464844 51.472656 59.03125 54.160156 59.105469 54.878906 C 59.199219 55.648438 59.199219 55.648438 59.558594 54.472656 C 60.039062 52.960938 60.542969 52.839844 61.863281 53.992188 C 62.414062 54.449219 62.96875 54.832031 63.085938 54.832031 C 63.519531 54.832031 63.785156 52.457031 63.472656 51.28125 C 63.183594 50.246094 62.894531 50.777344 62.894531 52.3125 Z M 62.894531 52.3125 "/>
<path style=" stroke:none;fill-rule:nonzero;fill:rgb(0%,0%,0%);fill-opacity:1;" d="M 86.75 51.808594 C 86.03125 52.121094 85.574219 52.71875 85.863281 53.007812 C 85.933594 53.078125 86.273438 52.910156 86.609375 52.671875 C 87.207031 52.191406 88.09375 52.023438 88.09375 52.382812 C 88.09375 52.480469 87.902344 52.816406 87.6875 53.128906 C 87.304688 53.703125 87.304688 53.726562 88.046875 54.351562 C 88.480469 54.710938 88.816406 55.070312 88.816406 55.144531 C 88.816406 55.238281 88.214844 55.3125 87.496094 55.3125 C 86.777344 55.3125 86.175781 55.40625 86.175781 55.550781 C 86.175781 55.910156 89.128906 55.839844 89.632812 55.480469 C 90.039062 55.167969 90.015625 55.09375 89.152344 54.398438 C 88.261719 53.65625 88.238281 53.609375 88.527344 52.863281 C 88.792969 52.167969 88.765625 52.023438 88.40625 51.757812 C 87.902344 51.398438 87.6875 51.398438 86.75 51.808594 Z M 86.75 51.808594 "/>
<path style=" stroke:none;fill-rule:nonzero;fill:rgb(0%,0%,0%);fill-opacity:1;" d="M 11.777344 53.078125 C 10.359375 53.632812 8.894531 54.449219 8.894531 54.6875 C 8.894531 54.855469 9.566406 55.191406 10.429688 55.40625 C 11.273438 55.648438 12.253906 55.984375 12.617188 56.175781 C 13.335938 56.558594 13.597656 56.441406 13.742188 55.671875 C 13.816406 55.238281 14.128906 55.167969 17.175781 54.925781 C 22.191406 54.519531 25.527344 54.085938 25.289062 53.847656 C 25.144531 53.703125 23.777344 53.777344 21.953125 53.96875 C 20.246094 54.160156 17.65625 54.398438 16.167969 54.496094 L 13.480469 54.640625 L 13.40625 53.847656 C 13.359375 53.175781 13.238281 53.03125 12.734375 52.984375 C 12.398438 52.960938 11.96875 53.007812 11.777344 53.078125 Z M 11.441406 54.230469 C 10.984375 54.566406 10.09375 54.734375 10.09375 54.472656 C 10.09375 54.304688 11.078125 53.894531 11.535156 53.894531 C 11.800781 53.894531 11.777344 53.96875 11.441406 54.230469 Z M 11.441406 54.230469 "/>
</g>
</svg>
