<?xml version="1.0" encoding="UTF-8"?>
<svg xmlns="http://www.w3.org/2000/svg" xmlns:xlink="http://www.w3.org/1999/xlink" width="102pt" height="68pt" viewBox="0 0 102 68" version="1.1">
<defs>
<clipPath id="clip1">
  <path d="M 74 0.992188 L 76 0.992188 L 76 2 L 74 2 Z M 74 0.992188 "/>
</clipPath>
<clipPath id="clip2">
  <path d="M 76 0.992188 L 78 0.992188 L 78 5 L 76 5 Z M 76 0.992188 "/>
</clipPath>
</defs>
<g id="surface1">
<g clip-path="url(#clip1)" clip-rule="nonzero">
<path style=" stroke:none;fill-rule:nonzero;fill:rgb(0%,0%,0%);fill-opacity:1;" d="M 74.609375 1.230469 C 74.535156 1.351562 74.5625 1.617188 74.65625 1.808594 C 74.800781 2.070312 74.945312 2.023438 75.28125 1.566406 C 75.6875 1.015625 75.6875 0.992188 75.234375 0.992188 C 74.96875 0.992188 74.679688 1.089844 74.609375 1.230469 Z M 74.609375 1.230469 "/>
</g>
<g clip-path="url(#clip2)" clip-rule="nonzero">
<path style=" stroke:none;fill-rule:nonzero;fill:rgb(0%,0%,0%);fill-opacity:1;" d="M 76.746094 1.375 C 76.816406 1.59375 76.914062 2.480469 76.914062 3.34375 C 76.9375 4.832031 76.960938 4.878906 77.152344 3.992188 C 77.488281 2.3125 77.417969 0.992188 76.984375 0.992188 C 76.71875 0.992188 76.648438 1.113281 76.746094 1.375 Z M 76.746094 1.375 "/>
</g>
<path style=" stroke:none;fill-rule:nonzero;fill:rgb(0%,0%,0%);fill-opacity:1;" d="M 71.992188 2.863281 C 71.921875 3.753906 71.847656 5.433594 71.847656 6.632812 C 71.847656 8.792969 71.488281 13.785156 71.25 14.914062 L 71.105469 15.511719 L 54.136719 15.441406 C 38.65625 15.367188 37.121094 15.320312 36.570312 14.960938 C 36.234375 14.71875 35.65625 14.382812 35.273438 14.191406 C 34.625 13.855469 34.578125 13.855469 33.953125 14.625 L 33.304688 15.390625 L 20.585938 15.632812 C 3.039062 15.96875 -0.65625 16.113281 0.0898438 16.398438 C 0.710938 16.640625 4.3125 16.59375 23.222656 16.0625 L 33.304688 15.800781 L 34.046875 16.640625 L 34.769531 17.503906 L 35.679688 17.046875 L 36.570312 16.59375 L 40.695312 18.488281 C 42.976562 19.519531 45.878906 20.816406 47.128906 21.367188 C 48.375 21.921875 53.65625 24.464844 58.839844 27.007812 C 68.222656 31.664062 68.25 31.6875 68.25 32.433594 C 68.25 32.839844 68.367188 33.390625 68.511719 33.679688 C 68.921875 34.472656 67.984375 35.238281 60.6875 40.0625 C 53.921875 44.527344 49.097656 47.960938 47.679688 49.28125 C 47.007812 49.929688 46.839844 49.976562 46.191406 49.761719 C 45.542969 49.542969 45.351562 49.566406 44.777344 50.070312 L 44.082031 50.648438 L 28.984375 50.9375 C 20.679688 51.082031 11.222656 51.152344 7.9375 51.105469 C 4.046875 51.054688 2.03125 51.105469 2.082031 51.273438 C 2.175781 51.558594 14.703125 51.585938 31.792969 51.320312 L 43.960938 51.128906 L 44.464844 51.992188 C 45.183594 53.214844 46.359375 53.121094 47.03125 51.800781 L 47.417969 51.082031 L 54.425781 51.25 C 61.214844 51.390625 69.207031 51.800781 69.402344 51.992188 C 69.472656 52.039062 69.375 53.984375 69.234375 56.3125 C 69.066406 58.953125 69.039062 60.703125 69.183594 60.945312 C 69.375 61.28125 69.425781 61.257812 69.542969 60.753906 C 69.59375 60.417969 69.710938 58.375 69.785156 56.214844 C 69.855469 54.054688 70 52.183594 70.097656 52.089844 C 70.191406 51.992188 73 52.039062 76.289062 52.230469 C 87.351562 52.878906 93.640625 53.121094 94.046875 52.902344 C 94.382812 52.710938 94.382812 52.617188 93.929688 52.039062 C 93.402344 51.367188 92.871094 51.34375 93.136719 51.992188 C 93.234375 52.304688 92.753906 52.351562 89.921875 52.351562 C 86.730469 52.351562 75.375 51.824219 71.65625 51.488281 L 69.90625 51.34375 L 70.023438 48.535156 C 70.097656 47 70.242188 43.304688 70.3125 40.28125 C 70.433594 35.601562 70.527344 34.710938 70.914062 33.945312 C 71.464844 32.863281 71.464844 32.601562 71.007812 31.6875 C 70.671875 31.0625 70.648438 30.417969 70.886719 26.480469 C 71.222656 20.503906 71.585938 16.519531 71.800781 16.304688 C 71.898438 16.230469 74.703125 16.257812 78.039062 16.351562 C 81.375 16.472656 84.328125 16.496094 84.617188 16.375 C 85.121094 16.183594 85.121094 16.183594 84.542969 15.800781 C 83.847656 15.296875 82.9375 15.273438 82.433594 15.726562 C 82.097656 16.015625 81.28125 16.039062 77.007812 15.847656 C 74.25 15.703125 71.945312 15.558594 71.871094 15.511719 C 71.824219 15.441406 71.945312 13.257812 72.183594 10.664062 C 72.617188 5.480469 72.6875 1.566406 72.351562 1.375 C 72.257812 1.304688 72.089844 1.976562 71.992188 2.863281 Z M 68.800781 16.039062 L 71.175781 16.183594 L 71.03125 17.648438 C 70.863281 19.257812 70.167969 29.816406 70.167969 30.679688 C 70.167969 31.855469 68.921875 31.398438 59.367188 26.695312 C 54.28125 24.199219 48.738281 21.535156 47.007812 20.792969 C 42.832031 18.96875 37.046875 16.183594 37.046875 16.015625 C 37.046875 15.824219 65.898438 15.847656 68.800781 16.039062 Z M 69.832031 39.679688 C 69.761719 42.632812 69.617188 46.472656 69.519531 48.25 L 69.375 51.441406 L 68.273438 51.296875 C 67.671875 51.222656 62.679688 51.03125 57.207031 50.886719 C 51.738281 50.746094 47.199219 50.550781 47.128906 50.503906 C 47.007812 50.382812 47.128906 50.289062 51.351562 47.070312 C 54.402344 44.769531 56.464844 43.375 64.167969 38.335938 C 66.160156 37.039062 68.128906 35.625 68.5625 35.191406 C 70 33.726562 70.023438 33.777344 69.832031 39.679688 Z M 69.832031 39.679688 "/>
<path style=" stroke:none;fill-rule:nonzero;fill:rgb(0%,0%,0%);fill-opacity:1;" d="M 79.550781 5.433594 C 79.550781 6.609375 79.648438 7.808594 79.769531 8.070312 C 79.914062 8.382812 79.984375 7.808594 79.984375 6.390625 C 79.984375 5.191406 79.886719 4.015625 79.769531 3.753906 C 79.625 3.441406 79.550781 4.015625 79.550781 5.433594 Z M 79.550781 5.433594 "/>
<path style=" stroke:none;fill-rule:nonzero;fill:rgb(0%,0%,0%);fill-opacity:1;" d="M 29.25 5.601562 C 28.769531 7.808594 28.671875 8.480469 28.671875 9.753906 L 28.671875 11.191406 L 29.054688 10.351562 C 29.703125 8.914062 29.777344 8.792969 30.113281 8.792969 C 30.304688 8.792969 30.59375 9.152344 30.785156 9.558594 C 30.976562 9.992188 31.214844 10.351562 31.3125 10.351562 C 31.410156 10.351562 31.382812 9.992188 31.265625 9.558594 C 31.097656 8.960938 31.121094 8.746094 31.410156 8.527344 C 31.914062 8.167969 31.863281 8 31.242188 7.902344 C 30.808594 7.855469 30.59375 7.542969 30.257812 6.441406 C 29.800781 5 29.464844 4.710938 29.25 5.601562 Z M 29.25 5.601562 "/>
<path style=" stroke:none;fill-rule:nonzero;fill:rgb(0%,0%,0%);fill-opacity:1;" d="M 8.609375 8.167969 C 7.578125 8.792969 6.664062 9.441406 6.617188 9.585938 C 6.570312 9.726562 7.335938 10.0625 8.296875 10.351562 C 9.257812 10.617188 10.550781 11 11.175781 11.191406 C 12.785156 11.695312 12.976562 11.648438 12.234375 10.855469 C 11.273438 9.871094 11.535156 9.464844 13.214844 9.273438 C 13.984375 9.175781 15.664062 8.960938 16.9375 8.769531 C 18.234375 8.578125 19.9375 8.433594 20.703125 8.433594 C 22.121094 8.433594 22.816406 8.097656 22.023438 7.785156 C 21.808594 7.710938 19.625 7.929688 17.152344 8.265625 C 11.222656 9.128906 11.464844 9.128906 11.273438 7.953125 C 11.199219 7.425781 10.984375 6.992188 10.816406 6.992188 C 10.671875 6.992188 9.664062 7.519531 8.609375 8.167969 Z M 10.359375 8.359375 C 10.289062 8.816406 9.207031 9.128906 9.207031 8.695312 C 9.207031 8.457031 9.878906 7.976562 10.242188 7.953125 C 10.359375 7.953125 10.410156 8.144531 10.359375 8.359375 Z M 10.886719 9.992188 C 10.886719 10.449219 10 10.449219 9.207031 9.992188 C 8.632812 9.65625 8.632812 9.65625 9.761719 9.632812 C 10.601562 9.632812 10.886719 9.726562 10.886719 9.992188 Z M 10.886719 9.992188 "/>
<path style=" stroke:none;fill-rule:nonzero;fill:rgb(0%,0%,0%);fill-opacity:1;" d="M 88 13.640625 C 86.609375 13.785156 86.703125 14.191406 88.121094 14.191406 L 89.25 14.191406 L 89.152344 17.121094 C 89.128906 18.753906 89.152344 20 89.25 19.902344 C 89.34375 19.832031 89.511719 18.585938 89.632812 17.167969 C 89.753906 15.753906 89.96875 14.457031 90.136719 14.265625 C 90.375 13.976562 90.6875 14 91.71875 14.359375 C 91.863281 14.433594 92.007812 14.3125 92.007812 14.097656 C 92.007812 13.878906 91.816406 13.710938 91.550781 13.710938 C 91.3125 13.710938 90.640625 13.664062 90.066406 13.617188 C 89.488281 13.566406 88.550781 13.566406 88 13.640625 Z M 88 13.640625 "/>
<path style=" stroke:none;fill-rule:nonzero;fill:rgb(0%,0%,0%);fill-opacity:1;" d="M 91.578125 17.839844 C 91.214844 18.199219 91.191406 18.992188 91.527344 18.992188 C 91.671875 18.992188 91.839844 18.824219 91.914062 18.632812 C 92.105469 18.128906 92.730469 18.175781 92.730469 18.703125 C 92.730469 18.945312 92.394531 19.566406 92.007812 20.121094 L 91.289062 21.105469 L 91.816406 21.25 C 92.632812 21.464844 94.71875 21.417969 95.082031 21.175781 C 95.488281 20.914062 94.671875 20.671875 93.375 20.671875 L 92.488281 20.671875 L 92.96875 19.785156 C 93.710938 18.390625 93.496094 17.550781 92.367188 17.550781 C 92.082031 17.550781 91.746094 17.671875 91.578125 17.839844 Z M 91.578125 17.839844 "/>
<path style=" stroke:none;fill-rule:nonzero;fill:rgb(0%,0%,0%);fill-opacity:1;" d="M 77.273438 19.039062 C 77.082031 19.351562 76.792969 19.878906 76.625 20.238281 C 76.214844 21.175781 75.976562 21.082031 75.449219 19.808594 C 74.65625 18.007812 74.082031 18.726562 74.03125 21.585938 C 74.007812 23.382812 74.394531 23.382812 74.632812 21.609375 L 74.800781 20.382812 L 75.328125 21.054688 C 75.976562 21.871094 76.503906 21.726562 77.054688 20.550781 C 77.273438 20.097656 77.535156 19.710938 77.632812 19.710938 C 77.730469 19.710938 77.96875 20.648438 78.183594 21.800781 C 78.402344 22.929688 78.617188 23.9375 78.6875 23.984375 C 78.90625 24.199219 78.761719 21.824219 78.472656 20.214844 C 78.183594 18.511719 77.824219 18.175781 77.273438 19.039062 Z M 77.273438 19.039062 "/>
<path style=" stroke:none;fill-rule:nonzero;fill:rgb(0%,0%,0%);fill-opacity:1;" d="M 83.199219 31.039062 C 82.382812 31.976562 81.207031 33.824219 81.207031 34.207031 C 81.207031 34.519531 81.402344 34.542969 82.242188 34.449219 L 83.296875 34.304688 L 83.441406 37.761719 C 83.609375 41.480469 83.945312 43.664062 84.351562 44.070312 C 84.542969 44.238281 84.570312 44 84.472656 43.230469 C 84.375 42.632812 84.257812 40.472656 84.183594 38.382812 C 84.039062 34.6875 84.039062 34.640625 84.570312 34.351562 C 85.046875 34.089844 85.097656 33.945312 84.953125 33.007812 C 84.808594 31.902344 84.207031 30.511719 83.871094 30.511719 C 83.777344 30.511719 83.464844 30.753906 83.199219 31.039062 Z M 83.367188 33.007812 C 83.367188 33.390625 83.199219 33.65625 82.863281 33.753906 C 82.121094 33.992188 82.023438 33.703125 82.648438 33.03125 C 83.34375 32.289062 83.367188 32.289062 83.367188 33.007812 Z M 84.234375 33.320312 C 84.160156 33.417969 84.089844 33.273438 84.113281 33.007812 C 84.113281 32.746094 84.183594 32.671875 84.257812 32.863281 C 84.328125 33.03125 84.304688 33.25 84.234375 33.320312 Z M 84.234375 33.320312 "/>
<path style=" stroke:none;fill-rule:nonzero;fill:rgb(0%,0%,0%);fill-opacity:1;" d="M 75.710938 32.457031 C 75.402344 32.578125 74.945312 32.625 74.703125 32.550781 C 74.273438 32.40625 74.25 32.578125 74.273438 34.761719 C 74.296875 38.097656 74.394531 38.335938 75.664062 38.238281 C 76.914062 38.167969 77.96875 37.640625 78.351562 36.945312 C 78.59375 36.488281 78.542969 36.34375 77.992188 35.914062 C 77.367188 35.40625 77.367188 35.382812 77.730469 34.472656 C 78.472656 32.71875 77.511719 31.734375 75.710938 32.457031 Z M 77.296875 33.320312 C 77.394531 33.535156 77.222656 34.113281 76.9375 34.617188 C 76.648438 35.121094 76.410156 35.578125 76.410156 35.648438 C 76.410156 35.71875 76.746094 35.9375 77.128906 36.152344 C 77.535156 36.367188 77.847656 36.632812 77.847656 36.753906 C 77.847656 37.113281 76.503906 37.710938 75.6875 37.710938 L 74.96875 37.710938 L 74.96875 35.457031 C 74.96875 32.984375 74.96875 33.007812 76.480469 32.9375 C 76.886719 32.914062 77.199219 33.054688 77.296875 33.320312 Z M 77.296875 33.320312 "/>
<path style=" stroke:none;fill-rule:nonzero;fill:rgb(0%,0%,0%);fill-opacity:1;" d="M 95.921875 50.359375 C 95.394531 50.433594 95.128906 50.601562 95.128906 50.839844 C 95.128906 51.128906 95.296875 51.175781 95.96875 51.082031 L 96.785156 50.9375 L 96.6875 54.222656 C 96.570312 57.894531 96.855469 57.632812 97.242188 53.746094 C 97.480469 50.984375 97.746094 50.578125 99.015625 50.769531 C 100 50.9375 100.289062 50.578125 99.402344 50.335938 C 98.824219 50.191406 97.242188 50.191406 95.921875 50.359375 Z M 95.921875 50.359375 "/>
<path style=" stroke:none;fill-rule:nonzero;fill:rgb(0%,0%,0%);fill-opacity:1;" d="M 41.25 54.535156 C 40.167969 54.847656 38.5625 56.3125 38.25 57.296875 C 37.886719 58.375 38.367188 59.191406 39.640625 59.578125 C 40.648438 59.863281 42.664062 59.601562 44.03125 58.976562 L 44.847656 58.59375 L 44.007812 58.710938 C 43.550781 58.785156 42.402344 58.902344 41.464844 58.976562 C 39.351562 59.167969 38.730469 58.902344 38.730469 57.800781 C 38.730469 56.121094 42.113281 54.03125 42.496094 55.472656 C 42.640625 55.976562 43.074219 56.023438 43.242188 55.519531 C 43.3125 55.257812 42.449219 54.25 42.160156 54.296875 C 42.039062 54.296875 41.632812 54.417969 41.25 54.535156 Z M 41.25 54.535156 "/>
<path style=" stroke:none;fill-rule:nonzero;fill:rgb(0%,0%,0%);fill-opacity:1;" d="M 77.367188 55.785156 C 77.367188 56.671875 77.296875 57.390625 77.199219 57.367188 C 77.082031 57.367188 76.3125 56.792969 75.449219 56.070312 C 73.625 54.558594 73.695312 54.511719 73.410156 57.921875 C 73.214844 60.320312 73.625 60.296875 74.03125 57.847656 C 74.199219 57.007812 74.34375 56.265625 74.394531 56.214844 C 74.441406 56.167969 75.207031 56.695312 76.121094 57.367188 C 77.03125 58.039062 77.871094 58.59375 77.96875 58.59375 C 78.257812 58.59375 77.992188 54.800781 77.65625 54.464844 C 77.441406 54.25 77.367188 54.511719 77.367188 55.785156 Z M 77.367188 55.785156 "/>
<path style=" stroke:none;fill-rule:nonzero;fill:rgb(0%,0%,0%);fill-opacity:1;" d="M 98.871094 55.734375 C 97.71875 56.648438 98.25 57.054688 99.425781 56.167969 C 100.097656 55.664062 100.648438 55.710938 100.648438 56.238281 C 100.648438 56.382812 100.382812 56.863281 100.046875 57.296875 C 99.28125 58.304688 99.28125 58.496094 100.191406 58.976562 C 101.03125 59.40625 100.9375 59.601562 99.570312 60.054688 C 98.777344 60.320312 98.703125 60.390625 99.160156 60.464844 C 99.953125 60.585938 101.34375 60.054688 101.632812 59.527344 C 101.847656 59.121094 101.753906 59 101.03125 58.710938 C 100.046875 58.304688 99.976562 58.113281 100.625 57.535156 C 101.222656 56.984375 101.464844 56 101.105469 55.566406 C 100.695312 55.089844 99.617188 55.160156 98.871094 55.734375 Z M 98.871094 55.734375 "/>
<path style=" stroke:none;fill-rule:nonzero;fill:rgb(0%,0%,0%);fill-opacity:1;" d="M 53.128906 63.488281 L 53.128906 64.832031 L 46.71875 64.855469 C 43.167969 64.855469 39.808594 64.953125 39.207031 65.046875 L 38.128906 65.238281 L 39.089844 65.433594 C 39.59375 65.527344 43.023438 65.550781 46.695312 65.457031 L 53.367188 65.289062 L 53.367188 65.960938 C 53.367188 67.304688 53.632812 67.328125 55.71875 66.128906 C 56.800781 65.527344 57.6875 64.929688 57.6875 64.808594 C 57.6875 64.710938 56.898438 64.230469 55.960938 63.753906 C 55 63.296875 53.96875 62.746094 53.679688 62.527344 L 53.128906 62.144531 Z M 56.199219 64.664062 C 56.367188 64.785156 56.464844 64.953125 56.394531 65 C 56.273438 65.121094 54.808594 64.398438 54.808594 64.207031 C 54.808594 64.039062 55.816406 64.351562 56.199219 64.664062 Z M 55.289062 65.503906 C 55.289062 65.792969 54.738281 66.273438 54.402344 66.273438 C 54.234375 66.273438 54.089844 66.054688 54.089844 65.792969 C 54.089844 65.433594 54.257812 65.3125 54.6875 65.3125 C 55.023438 65.3125 55.289062 65.40625 55.289062 65.503906 Z M 55.289062 65.503906 "/>
</g>
</svg>
