<?xml version="1.0" encoding="UTF-8"?>
<svg xmlns="http://www.w3.org/2000/svg" xmlns:xlink="http://www.w3.org/1999/xlink" width="91pt" height="62pt" viewBox="0 0 91 62" version="1.1">
<defs>
<clipPath id="clip1">
  <path d="M 59 0.371094 L 62 0.371094 L 62 1 L 59 1 Z M 59 0.371094 "/>
</clipPath>
<clipPath id="clip2">
  <path d="M 61 0.371094 L 64 0.371094 L 64 6 L 61 6 Z M 61 0.371094 "/>
</clipPath>
</defs>
<g id="surface1">
<g clip-path="url(#clip1)" clip-rule="nonzero">
<path style=" stroke:none;fill-rule:nonzero;fill:rgb(0%,0%,0%);fill-opacity:1;" d="M 59.761719 0.605469 C 59.761719 0.871094 60.097656 0.871094 60.960938 0.605469 C 61.488281 0.4375 61.464844 0.414062 60.671875 0.390625 C 60.167969 0.367188 59.761719 0.464844 59.761719 0.605469 Z M 59.761719 0.605469 "/>
</g>
<g clip-path="url(#clip2)" clip-rule="nonzero">
<path style=" stroke:none;fill-rule:nonzero;fill:rgb(0%,0%,0%);fill-opacity:1;" d="M 61.847656 0.558594 C 62.234375 0.800781 62.617188 2.625 62.640625 4.253906 C 62.640625 5.023438 62.761719 5.648438 62.882812 5.648438 C 63.167969 5.648438 63.191406 4.757812 62.976562 2.214844 C 62.808594 0.414062 62.785156 0.367188 62.183594 0.367188 C 61.800781 0.367188 61.679688 0.4375 61.847656 0.558594 Z M 61.847656 0.558594 "/>
</g>
<path style=" stroke:none;fill-rule:nonzero;fill:rgb(0%,0%,0%);fill-opacity:1;" d="M 65.761719 3.175781 C 65.785156 3.296875 65.976562 4.183594 66.242188 5.167969 L 66.695312 6.96875 L 66.695312 5.597656 C 66.722656 4.160156 66.410156 3.007812 66 3.007812 C 65.882812 3.007812 65.761719 3.082031 65.761719 3.175781 Z M 65.761719 3.175781 "/>
<path style=" stroke:none;fill-rule:nonzero;fill:rgb(0%,0%,0%);fill-opacity:1;" d="M 20.785156 4.253906 C 20.714844 4.566406 20.570312 5.816406 20.472656 7.0625 C 20.351562 8.742188 20.402344 9.269531 20.59375 9.152344 C 20.761719 9.054688 20.882812 8.839844 20.882812 8.671875 C 20.882812 8.238281 21.671875 7.566406 22.152344 7.566406 C 22.367188 7.566406 22.679688 7.78125 22.847656 8.046875 C 23.28125 8.71875 23.496094 8.648438 23.449219 7.878906 C 23.402344 7.332031 23.519531 7.183594 24 7.136719 C 25.175781 6.96875 25.128906 6.582031 23.953125 6.632812 C 23.328125 6.679688 22.777344 6.65625 22.730469 6.582031 C 22.679688 6.535156 22.441406 5.886719 22.175781 5.167969 C 21.671875 3.75 21.050781 3.320312 20.785156 4.253906 Z M 21.984375 5.910156 C 22.25 6.414062 22.273438 6.75 22.128906 6.894531 C 21.746094 7.277344 21.050781 6.917969 21.21875 6.464844 C 21.289062 6.246094 21.359375 5.886719 21.359375 5.625 C 21.359375 4.976562 21.527344 5.046875 21.984375 5.910156 Z M 21.984375 5.910156 "/>
<path style=" stroke:none;fill-rule:nonzero;fill:rgb(0%,0%,0%);fill-opacity:1;" d="M 58.488281 7.375 C 58.441406 7.542969 58.441406 9.558594 58.511719 11.863281 L 58.632812 16.039062 L 56.738281 15.894531 C 55.707031 15.800781 48.191406 15.605469 40.082031 15.464844 L 25.320312 15.203125 L 24.769531 14.503906 C 24.023438 13.589844 23.210938 13.589844 22.535156 14.503906 C 22.226562 14.910156 21.722656 15.246094 21.265625 15.34375 C 20.855469 15.414062 16.082031 15.582031 10.632812 15.726562 C 5.183594 15.894531 0.433594 16.085938 0.0742188 16.207031 C -1.199219 16.589844 14.472656 16.304688 20.351562 15.847656 C 22.03125 15.707031 22.082031 15.726562 22.320312 16.304688 C 22.5625 16.976562 22.945312 17.09375 25.082031 17.238281 C 26.425781 17.335938 30.625 18.894531 37.5625 21.894531 C 40.464844 23.144531 55.34375 30.414062 55.753906 30.800781 C 55.96875 30.992188 56.160156 31.496094 56.160156 31.925781 C 56.160156 32.359375 55.96875 32.863281 55.753906 33.054688 C 55.511719 33.246094 53.113281 34.757812 50.402344 36.367188 C 47.6875 38 43.847656 40.375 41.855469 41.671875 C 39.890625 42.941406 37.632812 44.335938 36.890625 44.742188 L 35.546875 45.511719 L 34.5625 44.960938 L 33.601562 44.40625 L 32.640625 45.390625 L 31.707031 46.398438 L 24.671875 46.566406 C 20.808594 46.664062 13.679688 46.6875 8.808594 46.640625 C 2.328125 46.589844 0 46.640625 0 46.832031 C 0 47 0.167969 47.191406 0.359375 47.261719 C 0.578125 47.335938 6.21875 47.289062 12.914062 47.167969 C 19.609375 47.046875 26.664062 46.925781 28.585938 46.925781 L 32.113281 46.925781 L 32.402344 47.648438 C 32.832031 48.707031 33.527344 48.707031 34.777344 47.597656 L 35.59375 46.878906 L 38.617188 47.023438 C 40.273438 47.121094 44.785156 47.289062 48.601562 47.429688 C 52.441406 47.550781 55.753906 47.71875 55.992188 47.792969 C 56.402344 47.910156 56.402344 48.269531 56.304688 52.757812 C 56.234375 55.421875 56.136719 58.207031 56.113281 58.957031 C 56.066406 59.863281 56.160156 60.4375 56.402344 60.726562 C 56.738281 61.136719 56.761719 61.109375 56.90625 60.464844 C 57 60.082031 57.074219 57.082031 57.097656 53.792969 L 57.121094 47.816406 L 59.234375 47.960938 C 60.386719 48.054688 64.777344 48.390625 68.976562 48.726562 C 79.105469 49.519531 79.992188 49.519531 79.464844 48.632812 C 79.296875 48.390625 79.007812 48.367188 78.144531 48.558594 C 77.402344 48.707031 76.03125 48.707031 74.089844 48.558594 C 72.480469 48.4375 68.042969 48.082031 64.199219 47.816406 L 57.242188 47.289062 L 57.289062 44.839844 C 57.3125 43.472656 57.503906 40.398438 57.722656 38 C 58.03125 34.519531 58.226562 33.414062 58.632812 32.71875 C 59.089844 31.878906 59.089844 31.710938 58.800781 30.511719 C 58.535156 29.429688 58.535156 28.109375 58.800781 23.121094 C 58.96875 19.78125 59.136719 16.976562 59.210938 16.855469 C 59.257812 16.757812 60.578125 16.6875 62.113281 16.6875 C 63.648438 16.6875 65.351562 16.566406 65.882812 16.445312 C 66.410156 16.332031 68.257812 16.160156 69.960938 16.085938 C 73.875 15.894531 74.785156 15.773438 74.449219 15.4375 C 74.257812 15.246094 72.480469 15.296875 68.351562 15.582031 C 65.136719 15.800781 61.800781 15.96875 60.9375 15.96875 L 59.351562 15.96875 L 59.183594 15.054688 C 59.113281 14.578125 59.042969 12.582031 59.042969 10.613281 C 59.042969 8.648438 58.945312 7.085938 58.824219 7.085938 C 58.707031 7.085938 58.5625 7.230469 58.488281 7.375 Z M 50.28125 16.207031 C 53.183594 16.332031 56.257812 16.496094 57.097656 16.589844 L 58.632812 16.757812 L 58.464844 18.894531 C 58.394531 20.046875 58.25 23 58.175781 25.421875 C 58.082031 27.871094 57.914062 30.007812 57.816406 30.175781 C 57.457031 30.726562 55.535156 29.960938 47.761719 26.167969 C 41.160156 22.957031 34.175781 19.878906 27.410156 17.191406 C 26.328125 16.734375 25.367188 16.304688 25.296875 16.183594 C 25.128906 15.894531 43.464844 15.917969 50.28125 16.207031 Z M 57.601562 33.773438 C 57.601562 34.085938 57.433594 35.792969 57.242188 37.566406 C 57.050781 39.34375 56.832031 42.203125 56.738281 43.878906 C 56.640625 45.558594 56.496094 47 56.402344 47.046875 C 56.160156 47.191406 36.191406 46.496094 36.050781 46.332031 C 35.882812 46.160156 35.59375 46.375 41.402344 42.582031 C 47.472656 38.625 56.570312 33.246094 57.191406 33.246094 C 57.457031 33.246094 57.601562 33.4375 57.601562 33.773438 Z M 57.601562 33.773438 "/>
<path style=" stroke:none;fill-rule:nonzero;fill:rgb(0%,0%,0%);fill-opacity:1;" d="M 76.511719 13.332031 C 76.058594 13.613281 75.9375 14.40625 76.296875 14.648438 C 76.417969 14.71875 76.609375 14.550781 76.679688 14.261719 C 76.847656 13.78125 76.96875 13.757812 78.527344 13.855469 C 79.441406 13.925781 80.328125 14.121094 80.472656 14.261719 C 80.808594 14.597656 81.121094 14.597656 81.121094 14.261719 C 81.121094 13.613281 77.304688 12.847656 76.511719 13.332031 Z M 76.511719 13.332031 "/>
<path style=" stroke:none;fill-rule:nonzero;fill:rgb(0%,0%,0%);fill-opacity:1;" d="M 78.625 16.566406 C 78.527344 17.886719 78.433594 19.332031 78.359375 19.734375 C 78.289062 20.480469 78.527344 20.792969 78.816406 20.3125 C 78.890625 20.191406 79.058594 19.0625 79.199219 17.816406 C 79.417969 15.894531 79.417969 15.390625 79.128906 14.839844 C 78.792969 14.214844 78.769531 14.3125 78.625 16.566406 Z M 78.625 16.566406 "/>
<path style=" stroke:none;fill-rule:nonzero;fill:rgb(0%,0%,0%);fill-opacity:1;" d="M 60.863281 19.496094 C 60.625 21.03125 60.695312 22.253906 61.007812 22.160156 C 61.175781 22.085938 61.367188 21.800781 61.441406 21.488281 C 61.632812 20.648438 62.089844 20.648438 62.519531 21.464844 C 62.714844 21.871094 62.976562 22.207031 63.097656 22.207031 C 63.433594 22.207031 64.320312 21.101562 64.320312 20.695312 C 64.320312 20.480469 64.417969 20.289062 64.511719 20.289062 C 64.609375 20.289062 64.824219 21.222656 64.96875 22.375 C 65.234375 24.222656 65.570312 25.136719 65.855469 24.828125 C 66.023438 24.65625 65.042969 19.230469 64.800781 18.992188 C 64.65625 18.847656 64.320312 19.304688 63.960938 20.144531 C 63.625 20.910156 63.265625 21.464844 63.167969 21.390625 C 63.074219 21.296875 62.664062 20.671875 62.28125 20 C 61.875 19.304688 61.441406 18.726562 61.296875 18.679688 C 61.152344 18.632812 60.960938 18.992188 60.863281 19.496094 Z M 60.863281 19.496094 "/>
<path style=" stroke:none;fill-rule:nonzero;fill:rgb(0%,0%,0%);fill-opacity:1;" d="M 81.410156 19.015625 C 81.289062 19.253906 81.242188 19.589844 81.289062 19.757812 C 81.386719 20 81.503906 20 81.839844 19.6875 C 82.082031 19.472656 82.488281 19.332031 82.730469 19.375 C 83.472656 19.519531 83.378906 20.261719 82.464844 21.128906 C 81.984375 21.558594 81.601562 21.992188 81.601562 22.0625 C 81.601562 22.136719 82.632812 22.207031 83.90625 22.207031 C 85.367188 22.207031 86.136719 22.109375 86.042969 21.96875 C 85.96875 21.828125 85.585938 21.726562 85.199219 21.726562 C 84.121094 21.726562 83.136719 21.296875 83.472656 20.960938 C 83.855469 20.578125 83.832031 19.253906 83.472656 18.894531 C 83.015625 18.4375 81.648438 18.535156 81.410156 19.015625 Z M 81.410156 19.015625 "/>
<path style=" stroke:none;fill-rule:nonzero;fill:rgb(0%,0%,0%);fill-opacity:1;" d="M 61.777344 31.976562 C 61.847656 32.480469 61.96875 33.582031 62.042969 34.445312 C 62.28125 36.992188 62.257812 36.917969 63.769531 36.75 C 65.257812 36.582031 66.554688 36.007812 66.410156 35.578125 C 66.359375 35.40625 65.855469 35.144531 65.257812 34.976562 C 64.679688 34.78125 64.058594 34.589844 63.890625 34.542969 C 63.648438 34.472656 63.792969 34.183594 64.296875 33.558594 C 65.496094 32.09375 65.257812 31.566406 63.335938 31.566406 C 62.832031 31.566406 62.402344 31.445312 62.402344 31.332031 C 62.402344 31.183594 62.234375 31.085938 62.015625 31.085938 C 61.707031 31.085938 61.65625 31.277344 61.777344 31.976562 Z M 64.226562 32.3125 C 64.296875 32.457031 64.082031 32.886719 63.695312 33.269531 C 63.21875 33.773438 62.976562 33.894531 62.832031 33.679688 C 62.546875 33.222656 62.59375 33.054688 63.121094 32.527344 C 63.648438 32 63.984375 31.925781 64.226562 32.3125 Z M 65.042969 35.480469 L 65.640625 35.71875 L 64.921875 35.886719 C 63.769531 36.175781 63.410156 36.152344 63.023438 35.742188 C 62.183594 34.925781 63.335938 34.757812 65.042969 35.480469 Z M 65.042969 35.480469 "/>
<path style=" stroke:none;fill-rule:nonzero;fill:rgb(0%,0%,0%);fill-opacity:1;" d="M 9.601562 31.808594 C 9.601562 31.925781 9.722656 32.046875 9.839844 32.046875 C 9.984375 32.046875 10.082031 31.925781 10.082031 31.808594 C 10.082031 31.664062 9.984375 31.566406 9.839844 31.566406 C 9.722656 31.566406 9.601562 31.664062 9.601562 31.808594 Z M 9.601562 31.808594 "/>
<path style=" stroke:none;fill-rule:nonzero;fill:rgb(0%,0%,0%);fill-opacity:1;" d="M 81.769531 47.09375 C 80.953125 47.214844 81.023438 47.742188 81.863281 47.816406 C 82.175781 47.816406 82.5625 47.839844 82.730469 47.863281 C 83.160156 47.910156 83.59375 50.429688 83.402344 51.847656 C 83.304688 52.613281 83.351562 53.191406 83.496094 53.261719 C 83.90625 53.527344 84.050781 52.472656 83.976562 50.070312 L 83.882812 47.765625 L 84.792969 47.695312 C 85.96875 47.597656 85.945312 47.167969 84.746094 47.167969 C 84.242188 47.167969 83.519531 47.121094 83.136719 47.070312 C 82.753906 47.023438 82.128906 47.023438 81.769531 47.09375 Z M 81.769531 47.09375 "/>
<path style=" stroke:none;fill-rule:nonzero;fill:rgb(0%,0%,0%);fill-opacity:1;" d="M 63.121094 52.0625 L 63.121094 53.625 L 61.875 52.78125 C 61.175781 52.332031 60.480469 51.773438 60.3125 51.558594 C 60.050781 51.222656 60 51.246094 59.785156 51.773438 C 59.402344 52.78125 59.183594 55.085938 59.496094 55.085938 C 59.738281 55.085938 59.808594 54.847656 60.144531 53.214844 C 60.191406 52.925781 60.359375 52.6875 60.480469 52.6875 C 60.601562 52.6875 61.320312 53.191406 62.042969 53.792969 C 62.785156 54.390625 63.457031 54.824219 63.527344 54.75 C 63.769531 54.511719 63.914062 52.277344 63.746094 51.390625 C 63.480469 50 63.121094 50.40625 63.121094 52.0625 Z M 63.121094 52.0625 "/>
<path style=" stroke:none;fill-rule:nonzero;fill:rgb(0%,0%,0%);fill-opacity:1;" d="M 32.042969 51.511719 C 29.929688 53.382812 30.050781 55.472656 32.28125 55.878906 C 33.167969 56.023438 35.546875 55.664062 36.671875 55.183594 C 37.945312 54.65625 37.441406 54.539062 35.808594 54.941406 C 35.015625 55.164062 33.769531 55.332031 33.023438 55.332031 C 31.875 55.332031 31.632812 55.253906 31.320312 54.75 C 30.984375 54.246094 30.984375 54.082031 31.273438 53.359375 C 31.921875 51.828125 33.3125 51.101562 33.9375 51.992188 C 34.273438 52.472656 34.320312 52.496094 34.464844 52.109375 C 34.65625 51.605469 33.9375 50.765625 33.335938 50.765625 C 33.097656 50.765625 32.519531 51.101562 32.042969 51.511719 Z M 32.042969 51.511719 "/>
<path style=" stroke:none;fill-rule:nonzero;fill:rgb(0%,0%,0%);fill-opacity:1;" d="M 86.6875 51.632812 C 86.402344 51.828125 86.160156 52.207031 86.160156 52.472656 C 86.160156 53.023438 86.59375 53.070312 86.808594 52.542969 C 86.976562 52.109375 88.007812 51.65625 88.34375 51.871094 C 88.464844 51.941406 88.417969 52.230469 88.199219 52.519531 C 87.671875 53.289062 87.746094 53.574219 88.707031 54.222656 L 89.59375 54.824219 L 88.945312 54.992188 C 88.585938 55.0625 87.863281 55.085938 87.335938 55.015625 C 86.28125 54.871094 86.066406 55.207031 87 55.566406 C 87.386719 55.710938 88.058594 55.710938 88.824219 55.566406 C 89.519531 55.421875 90.097656 55.332031 90.144531 55.332031 C 90.191406 55.332031 90.242188 55.164062 90.242188 54.96875 C 90.242188 54.773438 89.90625 54.367188 89.496094 54.082031 C 88.847656 53.597656 88.777344 53.429688 88.898438 52.710938 C 88.96875 52.253906 88.898438 51.726562 88.753906 51.558594 C 88.417969 51.128906 87.335938 51.175781 86.6875 51.632812 Z M 86.6875 51.632812 "/>
</g>
</svg>
