<?xml version="1.0" encoding="UTF-8"?>
<svg xmlns="http://www.w3.org/2000/svg" xmlns:xlink="http://www.w3.org/1999/xlink" width="450pt" height="406pt" viewBox="0 0 450 406" version="1.1">
<defs>
<clipPath id="clip1">
  <path d="M 201 0.160156 L 221 0.160156 L 221 28 L 201 28 Z M 201 0.160156 "/>
</clipPath>
</defs>
<g id="surface1">
<path style="fill:none;stroke-width:30.9146;stroke-linecap:round;stroke-linejoin:round;stroke:rgb(16.088867%,7.835388%,7.835388%);stroke-opacity:1;stroke-miterlimit:4;" d="M 4156.523438 2010.15625 C 4156.523438 2029.21875 4155.3125 2048.320312 4152.890625 2067.34375 C 4150.46875 2086.40625 4146.835938 2105.429688 4142.03125 2124.335938 C 4137.1875 2143.28125 4131.132812 2162.109375 4123.945312 2180.859375 C 4116.71875 2199.609375 4108.28125 2218.242188 4098.710938 2236.71875 C 4089.140625 2255.15625 4078.359375 2273.476562 4066.445312 2291.640625 C 4054.53125 2309.765625 4041.484375 2327.695312 4027.304688 2345.429688 C 4013.125 2363.125 3997.8125 2380.625 3981.40625 2397.851562 C 3965 2415.078125 3947.5 2432.070312 3928.945312 2448.710938 C 3910.390625 2465.390625 3890.78125 2481.796875 3870.117188 2497.851562 C 3849.492188 2513.90625 3827.851562 2529.609375 3805.195312 2545 C 3782.578125 2560.351562 3758.984375 2575.351562 3734.453125 2590 C 3709.921875 2604.609375 3684.453125 2618.828125 3658.125 2632.65625 C 3631.757812 2646.445312 3604.570312 2659.84375 3576.523438 2672.8125 C 3548.476562 2685.742188 3519.609375 2698.242188 3490 2710.273438 C 3460.390625 2722.304688 3430 2733.867188 3398.90625 2744.960938 C 3367.8125 2756.015625 3336.015625 2766.601562 3303.59375 2776.640625 C 3271.171875 2786.71875 3238.085938 2796.25 3204.453125 2805.273438 C 3170.78125 2814.296875 3136.5625 2822.773438 3101.875 2830.703125 C 3067.148438 2838.632812 3031.914062 2846.015625 2996.289062 2852.8125 C 2960.625 2859.609375 2924.53125 2865.859375 2888.085938 2871.523438 C 2851.640625 2877.1875 2814.84375 2882.304688 2777.734375 2886.796875 C 2740.664062 2891.289062 2703.28125 2895.195312 2665.703125 2898.515625 C 2628.085938 2901.835938 2590.3125 2904.53125 2552.382812 2906.640625 C 2514.453125 2908.789062 2476.367188 2910.273438 2438.242188 2911.210938 C 2400.117188 2912.109375 2361.953125 2912.382812 2323.789062 2912.109375 C 2285.625 2911.796875 2247.460938 2910.898438 2209.414062 2909.375 C 2171.367188 2907.851562 2133.4375 2905.742188 2095.664062 2903.046875 C 2057.851562 2900.3125 2020.273438 2896.992188 1982.890625 2893.085938 C 1945.546875 2889.179688 1908.4375 2884.6875 1871.640625 2879.609375 C 1834.84375 2874.53125 1798.398438 2868.828125 1762.34375 2862.617188 C 1726.25 2856.367188 1690.585938 2849.53125 1655.390625 2842.1875 C 1620.195312 2834.804688 1585.429688 2826.875 1551.25 2818.398438 C 1517.03125 2809.921875 1483.398438 2800.898438 1450.351562 2791.367188 C 1417.265625 2781.835938 1384.84375 2771.757812 1353.046875 2761.171875 C 1321.289062 2750.625 1290.15625 2739.53125 1259.804688 2727.96875 C 1229.414062 2716.40625 1199.804688 2704.375 1170.9375 2691.875 C 1142.109375 2679.375 1114.0625 2666.445312 1086.835938 2653.046875 C 1059.648438 2639.648438 1033.28125 2625.820312 1007.851562 2611.601562 C 982.382812 2597.382812 957.851562 2582.773438 934.257812 2567.773438 C 910.664062 2552.773438 888.007812 2537.382812 866.367188 2521.679688 C 844.726562 2505.9375 824.101562 2489.882812 804.492188 2473.515625 C 784.882812 2457.148438 766.328125 2440.46875 748.828125 2423.515625 C 731.328125 2406.523438 714.921875 2389.296875 699.609375 2371.796875 C 684.335938 2354.335938 670.117188 2336.601562 657.070312 2318.671875 C 644.023438 2300.742188 632.109375 2282.617188 621.367188 2264.296875 C 610.585938 2245.976562 601.015625 2227.5 592.617188 2208.867188 C 584.179688 2190.273438 576.953125 2171.523438 570.9375 2152.695312 C 564.882812 2133.828125 560.078125 2114.882812 556.445312 2095.898438 C 552.8125 2076.914062 550.390625 2057.851562 549.179688 2038.75 C 547.96875 2019.6875 547.96875 2000.585938 549.179688 1981.523438 C 550.390625 1962.460938 552.8125 1943.398438 556.445312 1924.414062 C 560.078125 1905.390625 564.921875 1886.484375 570.9375 1867.617188 C 576.953125 1848.789062 584.179688 1830.039062 592.617188 1811.40625 C 601.015625 1792.8125 610.585938 1774.335938 621.367188 1756.015625 C 632.109375 1737.695312 644.023438 1719.570312 657.070312 1701.640625 C 670.117188 1683.710938 684.335938 1665.976562 699.609375 1648.476562 C 714.921875 1631.015625 731.328125 1613.75 748.828125 1596.796875 C 766.328125 1579.84375 784.882812 1563.164062 804.492188 1546.796875 C 824.101562 1530.390625 844.726562 1514.335938 866.367188 1498.632812 C 888.007812 1482.890625 910.664062 1467.539062 934.257812 1452.539062 C 957.851562 1437.539062 982.382812 1422.890625 1007.851562 1408.671875 C 1033.28125 1394.453125 1059.648438 1380.625 1086.835938 1367.265625 C 1114.0625 1353.867188 1142.109375 1340.898438 1170.9375 1328.398438 C 1199.804688 1315.898438 1229.414062 1303.867188 1259.804688 1292.304688 C 1290.15625 1280.78125 1321.289062 1269.6875 1353.046875 1259.101562 C 1384.84375 1248.554688 1417.265625 1238.476562 1450.351562 1228.945312 C 1483.398438 1219.414062 1517.03125 1210.390625 1551.25 1201.914062 C 1585.429688 1193.4375 1620.195312 1185.507812 1655.390625 1178.125 C 1690.585938 1170.742188 1726.25 1163.945312 1762.34375 1157.695312 C 1798.398438 1151.445312 1834.84375 1145.78125 1871.640625 1140.703125 C 1908.4375 1135.625 1945.546875 1131.132812 1982.890625 1127.1875 C 2020.273438 1123.28125 2057.851562 1120 2095.664062 1117.265625 C 2133.4375 1114.53125 2171.367188 1112.421875 2209.414062 1110.9375 C 2247.460938 1109.414062 2285.625 1108.515625 2323.789062 1108.203125 C 2361.953125 1107.890625 2400.117188 1108.203125 2438.242188 1109.101562 C 2476.367188 1110 2514.453125 1111.523438 2552.382812 1113.632812 C 2590.3125 1115.742188 2628.085938 1118.476562 2665.703125 1121.796875 C 2703.28125 1125.117188 2740.664062 1129.023438 2777.734375 1133.515625 C 2814.84375 1138.007812 2851.640625 1143.085938 2888.085938 1148.75 C 2924.53125 1154.414062 2960.625 1160.664062 2996.289062 1167.5 C 3031.914062 1174.296875 3067.148438 1181.679688 3101.875 1189.609375 C 3136.601562 1197.539062 3170.78125 1206.015625 3204.453125 1215.039062 C 3238.085938 1224.023438 3271.132812 1233.59375 3303.59375 1243.632812 C 3336.015625 1253.710938 3367.8125 1264.296875 3398.90625 1275.351562 C 3430 1286.40625 3460.390625 1297.96875 3490 1310 C 3519.609375 1322.03125 3548.476562 1334.570312 3576.523438 1347.5 C 3604.570312 1360.429688 3631.757812 1373.828125 3658.125 1387.65625 C 3684.453125 1401.445312 3709.921875 1415.703125 3734.453125 1430.3125 C 3758.984375 1444.921875 3782.578125 1459.921875 3805.195312 1475.3125 C 3827.851562 1490.664062 3849.492188 1506.40625 3870.117188 1522.460938 C 3890.78125 1538.515625 3910.390625 1554.882812 3928.945312 1571.5625 C 3947.5 1588.242188 3965 1605.234375 3981.40625 1622.460938 C 3997.8125 1639.6875 4013.125 1657.1875 4027.304688 1674.882812 C 4041.484375 1692.617188 4054.53125 1710.546875 4066.445312 1728.671875 C 4078.359375 1746.796875 4089.101562 1765.117188 4098.710938 1783.59375 C 4108.28125 1802.070312 4116.71875 1820.703125 4123.945312 1839.414062 C 4131.132812 1858.164062 4137.1875 1877.03125 4142.03125 1895.9375 C 4146.835938 1914.882812 4150.46875 1933.90625 4152.890625 1952.929688 C 4155.3125 1971.992188 4156.523438 1991.054688 4156.523438 2010.15625 " transform="matrix(0.1,0,0,-0.1,0,406)"/>
<path style="fill:none;stroke-width:30.9146;stroke-linecap:round;stroke-linejoin:round;stroke:rgb(16.088867%,7.835388%,7.835388%);stroke-opacity:1;stroke-miterlimit:4;" d="M 367.851562 2010.15625 L 4336.953125 2010.15625 M 2352.382812 25.625 L 2352.382812 3994.6875 M 3254.453125 2010.15625 C 3254.453125 2029.21875 3253.867188 2048.320312 3252.65625 2067.34375 C 3251.445312 2086.40625 3249.609375 2105.429688 3247.226562 2124.335938 C 3244.804688 2143.28125 3241.757812 2162.109375 3238.164062 2180.859375 C 3234.570312 2199.609375 3230.351562 2218.242188 3225.546875 2236.71875 C 3220.742188 2255.15625 3215.390625 2273.476562 3209.414062 2291.640625 C 3203.476562 2309.765625 3196.953125 2327.695312 3189.84375 2345.429688 C 3182.773438 2363.125 3175.117188 2380.625 3166.914062 2397.851562 C 3158.710938 2415.078125 3149.960938 2432.070312 3140.664062 2448.710938 C 3131.40625 2465.390625 3121.601562 2481.796875 3111.25 2497.851562 C 3100.9375 2513.90625 3090.117188 2529.609375 3078.789062 2545 C 3067.5 2560.351562 3055.703125 2575.351562 3043.4375 2590 C 3031.171875 2604.609375 3018.4375 2618.828125 3005.273438 2632.65625 C 2992.070312 2646.445312 2978.476562 2659.84375 2964.453125 2672.8125 C 2950.429688 2685.742188 2936.015625 2698.242188 2921.210938 2710.273438 C 2906.40625 2722.304688 2891.210938 2733.867188 2875.664062 2744.960938 C 2860.117188 2756.015625 2844.21875 2766.601562 2828.007812 2776.640625 C 2811.757812 2786.71875 2795.234375 2796.25 2778.4375 2805.273438 C 2761.601562 2814.296875 2744.492188 2822.773438 2727.148438 2830.703125 C 2709.765625 2838.632812 2692.148438 2846.015625 2674.335938 2852.8125 C 2656.523438 2859.609375 2638.476562 2865.859375 2620.234375 2871.523438 C 2602.03125 2877.1875 2583.632812 2882.304688 2565.078125 2886.796875 C 2546.523438 2891.289062 2527.851562 2895.195312 2509.0625 2898.515625 C 2490.234375 2901.835938 2471.367188 2904.53125 2452.382812 2906.640625 C 2433.4375 2908.789062 2414.375 2910.273438 2395.3125 2911.210938 C 2376.25 2912.109375 2357.1875 2912.382812 2338.085938 2912.109375 C 2319.023438 2911.796875 2299.921875 2910.898438 2280.898438 2909.375 C 2261.875 2907.851562 2242.929688 2905.742188 2224.023438 2903.046875 C 2205.117188 2900.3125 2186.328125 2896.992188 2167.65625 2893.085938 C 2148.984375 2889.179688 2130.429688 2884.6875 2112.03125 2879.609375 C 2093.632812 2874.53125 2075.390625 2868.828125 2057.382812 2862.617188 C 2039.335938 2856.367188 2021.484375 2849.53125 2003.90625 2842.1875 C 1986.289062 2834.804688 1968.90625 2826.875 1951.835938 2818.398438 C 1934.726562 2809.921875 1917.890625 2800.898438 1901.367188 2791.367188 C 1884.84375 2781.835938 1868.632812 2771.757812 1852.734375 2761.171875 C 1836.835938 2750.625 1821.289062 2739.53125 1806.09375 2727.96875 C 1790.898438 2716.40625 1776.09375 2704.375 1761.679688 2691.875 C 1747.265625 2679.375 1733.242188 2666.445312 1719.609375 2653.046875 C 1706.015625 2639.648438 1692.851562 2625.820312 1680.117188 2611.601562 C 1667.382812 2597.382812 1655.117188 2582.773438 1643.320312 2567.773438 C 1631.523438 2552.773438 1620.195312 2537.382812 1609.375 2521.679688 C 1598.554688 2505.9375 1588.242188 2489.882812 1578.4375 2473.515625 C 1568.632812 2457.148438 1559.375 2440.46875 1550.625 2423.515625 C 1541.875 2406.523438 1533.671875 2389.296875 1526.015625 2371.796875 C 1518.359375 2354.335938 1511.25 2336.601562 1504.726562 2318.671875 C 1498.203125 2300.742188 1492.265625 2282.617188 1486.875 2264.296875 C 1481.484375 2245.976562 1476.71875 2227.5 1472.5 2208.867188 C 1468.28125 2190.273438 1464.6875 2171.523438 1461.679688 2152.695312 C 1458.632812 2133.828125 1456.25 2114.882812 1454.414062 2095.898438 C 1452.617188 2076.914062 1451.40625 2057.851562 1450.78125 2038.75 C 1450.195312 2019.6875 1450.195312 2000.585938 1450.78125 1981.523438 C 1451.40625 1962.460938 1452.617188 1943.398438 1454.414062 1924.414062 C 1456.25 1905.390625 1458.671875 1886.484375 1461.679688 1867.617188 C 1464.6875 1848.789062 1468.28125 1830.039062 1472.5 1811.40625 C 1476.71875 1792.8125 1481.484375 1774.335938 1486.875 1756.015625 C 1492.265625 1737.695312 1498.203125 1719.570312 1504.726562 1701.640625 C 1511.25 1683.710938 1518.359375 1665.976562 1526.015625 1648.476562 C 1533.671875 1631.015625 1541.875 1613.75 1550.625 1596.796875 C 1559.375 1579.84375 1568.632812 1563.164062 1578.4375 1546.796875 C 1588.242188 1530.390625 1598.554688 1514.335938 1609.375 1498.632812 C 1620.195312 1482.890625 1631.523438 1467.539062 1643.320312 1452.539062 C 1655.117188 1437.539062 1667.382812 1422.890625 1680.117188 1408.671875 C 1692.851562 1394.453125 1706.015625 1380.625 1719.609375 1367.265625 C 1733.242188 1353.867188 1747.265625 1340.898438 1761.679688 1328.398438 C 1776.09375 1315.898438 1790.898438 1303.867188 1806.09375 1292.304688 C 1821.289062 1280.78125 1836.835938 1269.6875 1852.734375 1259.101562 C 1868.632812 1248.554688 1884.84375 1238.476562 1901.367188 1228.945312 C 1917.890625 1219.414062 1934.726562 1210.390625 1951.835938 1201.914062 C 1968.90625 1193.4375 1986.289062 1185.507812 2003.90625 1178.125 C 2021.484375 1170.742188 2039.335938 1163.945312 2057.382812 1157.695312 C 2075.390625 1151.445312 2093.632812 1145.78125 2112.03125 1140.703125 C 2130.429688 1135.625 2148.984375 1131.132812 2167.65625 1127.1875 C 2186.328125 1123.28125 2205.117188 1120 2224.023438 1117.265625 C 2242.929688 1114.53125 2261.875 1112.421875 2280.898438 1110.9375 C 2299.921875 1109.414062 2319.023438 1108.515625 2338.085938 1108.203125 C 2357.1875 1107.890625 2376.25 1108.203125 2395.3125 1109.101562 C 2414.375 1110 2433.4375 1111.523438 2452.382812 1113.632812 C 2471.367188 1115.742188 2490.234375 1118.476562 2509.0625 1121.796875 C 2527.851562 1125.117188 2546.523438 1129.023438 2565.078125 1133.515625 C 2583.632812 1138.007812 2602.03125 1143.085938 2620.234375 1148.75 C 2638.476562 1154.414062 2656.523438 1160.664062 2674.335938 1167.5 C 2692.148438 1174.296875 2709.765625 1181.679688 2727.148438 1189.609375 C 2744.492188 1197.539062 2761.601562 1206.015625 2778.4375 1215.039062 C 2795.234375 1224.023438 2811.757812 1233.59375 2828.007812 1243.632812 C 2844.21875 1253.710938 2860.117188 1264.296875 2875.664062 1275.351562 C 2891.210938 1286.40625 2906.40625 1297.96875 2921.210938 1310 C 2936.015625 1322.03125 2950.429688 1334.570312 2964.453125 1347.5 C 2978.476562 1360.429688 2992.070312 1373.828125 3005.273438 1387.65625 C 3018.4375 1401.445312 3031.171875 1415.703125 3043.4375 1430.3125 C 3055.703125 1444.921875 3067.5 1459.921875 3078.789062 1475.3125 C 3090.117188 1490.664062 3100.9375 1506.40625 3111.25 1522.460938 C 3121.601562 1538.515625 3131.40625 1554.882812 3140.664062 1571.5625 C 3149.960938 1588.242188 3158.710938 1605.234375 3166.914062 1622.460938 C 3175.117188 1639.6875 3182.773438 1657.1875 3189.84375 1674.882812 C 3196.953125 1692.617188 3203.476562 1710.546875 3209.414062 1728.671875 C 3215.390625 1746.796875 3220.742188 1765.117188 3225.546875 1783.59375 C 3230.351562 1802.070312 3234.570312 1820.703125 3238.164062 1839.414062 C 3241.757812 1858.164062 3244.804688 1877.03125 3247.226562 1895.9375 C 3249.609375 1914.882812 3251.445312 1933.90625 3252.65625 1952.929688 C 3253.867188 1971.992188 3254.453125 1991.054688 3254.453125 2010.15625 " transform="matrix(0.1,0,0,-0.1,0,406)"/>
<path style=" stroke:none;fill-rule:nonzero;fill:rgb(80.076599%,80.076599%,80.076599%);fill-opacity:1;" d="M 328.042969 200.300781 C 327.558594 198.726562 326.667969 193.140625 326.066406 187.882812 C 323.605469 166.347656 306.578125 140.757812 285.640625 127.117188 L 275.355469 120.417969 L 289.046875 122.019531 C 323.082031 126.003906 369.136719 144.441406 389.226562 162.128906 C 400.429688 171.988281 409.765625 186.066406 412.269531 196.871094 L 413.726562 203.15625 L 371.328125 203.15625 C 339.398438 203.15625 328.707031 202.449219 328.042969 200.300781 Z M 328.042969 200.300781 "/>
<path style=" stroke:none;fill-rule:nonzero;fill:rgb(0%,0%,0%);fill-opacity:1;" d="M 249.410156 91.945312 L 249.273438 92.160156 L 249.144531 92.371094 L 249.007812 92.574219 L 248.871094 92.761719 L 248.738281 92.941406 L 248.601562 93.109375 L 248.464844 93.269531 L 248.335938 93.417969 L 248.199219 93.5625 L 248.058594 93.695312 L 247.929688 93.816406 L 247.792969 93.933594 L 247.65625 94.039062 L 247.523438 94.140625 L 247.386719 94.234375 L 247.25 94.324219 L 247.113281 94.402344 L 246.976562 94.472656 L 246.703125 94.605469 L 246.5625 94.65625 L 246.417969 94.707031 L 246.28125 94.757812 L 246.136719 94.792969 L 246 94.828125 L 245.855469 94.859375 L 245.710938 94.886719 L 245.574219 94.90625 L 245.277344 94.945312 L 244.988281 94.964844 C 244.546875 95.003906 244.230469 95.003906 244.230469 95.6875 C 244.230469 95.90625 244.410156 96.085938 244.691406 96.085938 C 245.660156 96.085938 246.78125 95.96875 247.785156 95.96875 C 248.96875 95.96875 250.234375 96.085938 251.390625 96.085938 C 251.601562 96.085938 252.078125 96.085938 252.078125 95.398438 C 252.078125 95.003906 251.753906 94.964844 251.5 94.964844 C 250.667969 94.902344 249.808594 94.605469 249.808594 93.714844 C 249.808594 93.273438 250.027344 92.878906 250.308594 92.386719 L 253.046875 87.769531 L 262.082031 87.769531 L 261.980469 86.65625 L 253.726562 86.65625 L 260.828125 74.765625 L 261.980469 86.65625 L 262.082031 87.769531 C 262.160156 88.519531 262.660156 93.417969 262.660156 93.78125 C 262.660156 94.863281 260.785156 94.964844 260.070312 94.964844 C 259.566406 94.964844 259.203125 94.964844 259.203125 95.6875 C 259.203125 96.085938 259.628906 96.085938 259.710938 96.085938 C 261.175781 96.085938 262.738281 95.96875 264.203125 95.96875 C 265.109375 95.96875 267.378906 96.085938 268.28125 96.085938 C 268.496094 96.085938 268.925781 96.085938 268.925781 95.363281 C 268.925781 94.964844 268.5625 94.964844 268.101562 94.964844 C 265.867188 94.964844 265.867188 94.71875 265.75 93.671875 L 263.5625 71.175781 C 263.480469 70.453125 263.480469 70.308594 262.875 70.308594 C 262.296875 70.308594 262.160156 70.554688 261.9375 70.914062 Z M 249.410156 91.945312 "/>
<path style=" stroke:none;fill-rule:nonzero;fill:rgb(0%,0%,0%);fill-opacity:1;" d="M 333.992188 237.046875 L 333.953125 237.179688 L 333.925781 237.300781 L 333.890625 237.417969 L 333.859375 237.527344 L 333.832031 237.632812 L 333.796875 237.726562 L 333.757812 237.820312 L 333.722656 237.910156 L 333.6875 237.988281 L 333.644531 238.066406 L 333.59375 238.140625 L 333.542969 238.203125 L 333.492188 238.269531 L 333.425781 238.320312 L 333.363281 238.378906 L 333.28125 238.421875 L 333.203125 238.472656 L 333.015625 238.542969 L 332.90625 238.582031 L 332.792969 238.609375 L 332.726562 238.625 L 332.660156 238.632812 L 332.597656 238.644531 L 332.523438 238.660156 L 332.453125 238.667969 L 332.378906 238.675781 L 332.300781 238.683594 L 332.214844 238.695312 L 332.132812 238.703125 L 332.039062 238.710938 L 331.953125 238.710938 L 331.859375 238.71875 L 331.757812 238.726562 L 331.65625 238.726562 L 331.554688 238.734375 L 331.445312 238.734375 L 331.332031 238.738281 L 330.71875 238.738281 C 330.101562 238.738281 329.742188 238.738281 329.742188 239.460938 C 329.742188 239.859375 330.074219 239.859375 330.71875 239.859375 L 343.566406 239.859375 C 349.253906 239.859375 353.503906 235.617188 353.503906 232.082031 C 353.503906 229.496094 351.414062 227.40625 347.925781 227.011719 C 351.675781 226.324219 355.453125 223.65625 355.453125 220.230469 C 355.453125 217.570312 353.070312 215.265625 348.746094 215.265625 L 348.25 216.386719 C 351.414062 216.386719 352.167969 218.503906 352.167969 220.085938 C 352.167969 223.261719 349.074219 226.683594 344.6875 226.683594 L 339.433594 226.683594 L 339.214844 227.472656 L 346.015625 227.472656 C 349.472656 227.472656 350.15625 230.140625 350.15625 231.6875 C 350.15625 235.257812 346.957031 238.738281 342.707031 238.738281 L 337.804688 238.738281 C 337.308594 238.738281 337.226562 238.738281 337.019531 238.710938 C 336.65625 238.675781 336.554688 238.636719 336.554688 238.347656 C 336.554688 238.25 336.554688 238.167969 336.738281 237.527344 L 339.214844 227.472656 L 339.433594 226.683594 L 341.660156 217.753906 C 341.984375 216.496094 342.046875 216.386719 343.609375 216.386719 L 348.25 216.386719 L 348.746094 215.265625 L 336.65625 215.265625 C 335.976562 215.265625 335.617188 215.265625 335.617188 215.988281 C 335.617188 216.386719 335.933594 216.386719 336.621094 216.386719 C 336.6875 216.386719 337.378906 216.386719 337.988281 216.453125 C 338.628906 216.53125 338.957031 216.566406 338.957031 217.03125 C 338.957031 217.175781 338.925781 217.289062 338.8125 217.714844 Z M 333.992188 237.046875 "/>
<path style=" stroke:none;fill-rule:nonzero;fill:rgb(0%,0%,0%);fill-opacity:1;" d="M 449.875 215.746094 L 449.875 215.710938 L 449.867188 215.695312 L 449.867188 215.664062 L 449.859375 215.652344 L 449.859375 215.636719 L 449.855469 215.621094 L 449.847656 215.609375 L 449.839844 215.59375 L 449.839844 215.578125 L 449.824219 215.566406 L 449.816406 215.550781 L 449.8125 215.535156 L 449.804688 215.519531 L 449.789062 215.507812 L 449.773438 215.492188 L 449.761719 215.476562 L 449.746094 215.464844 L 449.730469 215.457031 L 449.714844 215.441406 L 449.695312 215.433594 L 449.679688 215.421875 L 449.660156 215.414062 L 449.652344 215.40625 L 449.636719 215.40625 L 449.628906 215.398438 L 449.617188 215.398438 L 449.601562 215.390625 L 449.578125 215.390625 L 449.566406 215.382812 L 449.476562 215.382812 C 449.378906 215.382812 449.332031 215.414062 448.9375 215.808594 L 446.421875 218.585938 C 446.101562 218.078125 444.441406 215.382812 440.445312 215.382812 C 432.414062 215.382812 424.308594 223.339844 424.308594 231.6875 C 424.308594 237.636719 428.5625 241.550781 434.078125 241.550781 C 437.207031 241.550781 439.9375 240.121094 441.847656 238.460938 C 445.199219 235.503906 445.808594 232.230469 445.808594 232.128906 C 445.808594 231.765625 445.445312 231.765625 445.378906 231.765625 C 445.164062 231.765625 444.984375 231.832031 444.902344 232.128906 C 444.59375 233.167969 443.753906 235.726562 441.269531 237.816406 C 438.789062 239.824219 436.511719 240.441406 434.65625 240.441406 C 431.410156 240.441406 427.59375 238.5625 427.59375 232.953125 C 427.59375 230.894531 428.355469 225.066406 431.945312 220.855469 C 434.144531 218.296875 437.53125 216.496094 440.726562 216.496094 C 444.414062 216.496094 446.53125 219.265625 446.53125 223.441406 C 446.53125 224.886719 446.421875 224.921875 446.421875 225.285156 C 446.421875 225.644531 446.8125 225.644531 446.964844 225.644531 C 447.425781 225.644531 447.425781 225.566406 447.605469 224.921875 Z M 449.875 215.746094 "/>
<path style=" stroke:none;fill-rule:nonzero;fill:rgb(0%,0%,0%);fill-opacity:1;" d="M 226.523438 222.78125 L 226.519531 222.246094 L 226.480469 221.71875 L 226.429688 221.207031 L 226.351562 220.699219 L 226.257812 220.210938 L 226.140625 219.734375 L 226.003906 219.269531 L 225.847656 218.820312 L 225.671875 218.386719 L 225.476562 217.960938 L 225.269531 217.558594 L 225.035156 217.167969 L 224.789062 216.792969 L 224.523438 216.429688 L 224.25 216.089844 L 223.945312 215.765625 L 223.632812 215.453125 L 223.308594 215.15625 L 222.960938 214.882812 L 222.609375 214.628906 L 222.234375 214.390625 L 221.847656 214.175781 L 221.453125 213.972656 L 221.039062 213.792969 L 220.613281 213.632812 L 220.179688 213.488281 L 219.730469 213.371094 L 219.277344 213.273438 L 218.808594 213.199219 L 218.324219 213.140625 L 217.839844 213.105469 L 217.339844 213.097656 L 217.125 214 C 220.078125 214 223.324219 216.011719 223.324219 221.375 C 223.324219 223.96875 222.347656 229.582031 218.785156 234.019531 C 217.058594 236.210938 214.09375 238.335938 211.082031 238.335938 C 207.511719 238.335938 204.996094 235.421875 204.996094 230.667969 C 204.996094 229.085938 205.496094 223.824219 208.269531 219.609375 C 210.757812 215.875 214.277344 214 217.125 214 L 217.339844 213.097656 C 209.570312 213.097656 201.644531 221.273438 201.644531 229.664062 C 201.644531 235.632812 205.675781 239.265625 210.863281 239.265625 C 218.488281 239.265625 226.523438 231.390625 226.523438 222.78125 Z M 226.523438 222.78125 "/>
<path style=" stroke:none;fill-rule:nonzero;fill:rgb(0%,0%,0%);fill-opacity:1;" d="M 12.972656 200.398438 L 12.996094 200.289062 L 13.03125 200.160156 L 13.066406 200.023438 L 13.097656 199.871094 L 13.148438 199.710938 L 13.203125 199.53125 L 13.253906 199.34375 L 13.3125 199.15625 L 13.378906 198.960938 L 13.457031 198.757812 L 13.542969 198.542969 L 13.625 198.339844 L 13.71875 198.128906 L 13.820312 197.914062 L 13.933594 197.703125 L 14.050781 197.492188 L 14.179688 197.285156 L 14.308594 197.082031 L 14.453125 196.886719 L 14.757812 196.511719 L 14.925781 196.34375 L 15.105469 196.179688 L 15.292969 196.027344 L 15.488281 195.890625 L 15.703125 195.773438 L 15.804688 195.714844 L 15.914062 195.660156 L 16.03125 195.621094 L 16.144531 195.578125 L 16.261719 195.535156 L 16.382812 195.5 L 16.507812 195.476562 L 16.636719 195.449219 L 16.765625 195.433594 L 16.902344 195.414062 L 17.035156 195.40625 L 17.171875 195.40625 C 17.386719 195.40625 18.398438 195.40625 19.28125 195.949219 C 18.097656 196.164062 17.25 197.226562 17.25 198.238281 C 17.25 198.910156 17.71875 199.726562 18.855469 199.726562 C 19.792969 199.726562 21.144531 198.96875 21.144531 197.269531 C 21.144531 195.058594 18.644531 194.480469 17.207031 194.480469 C 14.75 194.480469 13.261719 196.726562 12.757812 197.695312 C 11.695312 194.90625 9.410156 194.480469 8.191406 194.480469 C 3.777344 194.480469 1.355469 199.9375 1.355469 201.003906 C 1.355469 201.425781 1.78125 201.425781 1.875 201.425781 C 2.207031 201.425781 2.339844 201.335938 2.417969 200.960938 C 3.855469 196.46875 6.660156 195.40625 8.097656 195.40625 C 8.90625 195.40625 10.378906 195.78125 10.378906 198.238281 C 10.378906 199.546875 9.664062 202.398438 8.097656 208.324219 C 7.417969 210.953125 5.9375 212.730469 4.066406 212.730469 C 3.8125 212.730469 2.84375 212.730469 1.960938 212.175781 C 3.023438 211.972656 3.949219 211.089844 3.949219 209.890625 C 3.949219 208.75 3.023438 208.417969 2.382812 208.417969 C 1.109375 208.417969 0.046875 209.515625 0.046875 210.875 C 0.046875 212.8125 2.171875 213.664062 4.027344 213.664062 C 6.832031 213.664062 8.34375 210.695312 8.480469 210.449219 C 8.984375 212.015625 10.515625 213.664062 13.046875 213.664062 C 17.417969 213.664062 19.84375 208.207031 19.84375 207.140625 C 19.84375 206.71875 19.460938 206.71875 19.324219 206.71875 C 18.949219 206.71875 18.855469 206.886719 18.78125 207.175781 C 17.386719 211.707031 14.503906 212.730469 13.140625 212.730469 C 11.484375 212.730469 10.804688 211.378906 10.804688 209.929688 C 10.804688 208.996094 11.058594 208.070312 11.535156 206.207031 Z M 12.972656 200.398438 "/>
<g clip-path="url(#clip1)" clip-rule="nonzero">
<path style=" stroke:none;fill-rule:nonzero;fill:rgb(0%,0%,0%);fill-opacity:1;" d="M 220.558594 2.769531 L 220.570312 2.738281 L 220.578125 2.710938 L 220.585938 2.660156 L 220.601562 2.617188 L 220.613281 2.566406 L 220.621094 2.523438 L 220.636719 2.488281 L 220.644531 2.449219 L 220.652344 2.414062 L 220.664062 2.378906 L 220.664062 2.34375 L 220.671875 2.3125 L 220.679688 2.277344 L 220.6875 2.253906 L 220.6875 2.226562 L 220.695312 2.199219 L 220.695312 2.175781 L 220.707031 2.148438 L 220.707031 2.125 L 220.714844 2.082031 L 220.714844 1.945312 L 220.722656 1.902344 L 220.722656 1.800781 C 220.722656 1.027344 220.136719 0.652344 219.496094 0.652344 C 219.074219 0.652344 218.390625 0.910156 218.007812 1.546875 C 217.925781 1.757812 217.585938 3.058594 217.421875 3.832031 C 217.117188 4.929688 216.828125 6.078125 216.570312 7.21875 L 214.660156 14.847656 C 214.496094 15.484375 212.675781 18.445312 209.878906 18.445312 C 207.71875 18.445312 207.242188 16.589844 207.242188 15.015625 C 207.242188 13.070312 207.976562 10.433594 209.410156 6.714844 C 210.09375 4.972656 210.261719 4.503906 210.261719 3.65625 C 210.261719 1.757812 208.910156 0.195312 206.785156 0.195312 C 202.753906 0.195312 201.1875 6.324219 201.1875 6.714844 C 201.1875 7.140625 201.613281 7.140625 201.707031 7.140625 C 202.132812 7.140625 202.167969 7.046875 202.378906 6.367188 C 203.527344 2.378906 205.210938 1.121094 206.65625 1.121094 C 206.996094 1.121094 207.71875 1.121094 207.71875 2.472656 C 207.71875 3.535156 207.292969 4.625 206.996094 5.441406 C 205.304688 9.929688 204.53125 12.347656 204.53125 14.34375 C 204.53125 18.101562 207.210938 19.378906 209.699219 19.378906 C 211.367188 19.378906 212.796875 18.65625 213.976562 17.472656 C 213.433594 19.667969 212.933594 21.75 211.230469 24.003906 C 210.125 25.433594 208.519531 26.675781 206.570312 26.675781 C 205.984375 26.675781 204.070312 26.539062 203.347656 24.890625 C 204.027344 24.890625 204.589844 24.890625 205.167969 24.371094 C 205.59375 24.003906 206.019531 23.445312 206.019531 22.644531 C 206.019531 21.328125 204.878906 21.15625 204.453125 21.15625 C 203.484375 21.15625 202.074219 21.835938 202.074219 23.910156 C 202.074219 26.039062 203.953125 27.601562 206.570312 27.601562 C 210.941406 27.601562 215.296875 23.734375 216.496094 18.953125 Z M 220.558594 2.769531 "/>
</g>
</g>
</svg>
