<?xml version="1.0" encoding="UTF-8"?>
<svg xmlns="http://www.w3.org/2000/svg" xmlns:xlink="http://www.w3.org/1999/xlink" width="123pt" height="67pt" viewBox="0 0 123 67" version="1.1">
<defs>
<clipPath id="clip1">
  <path d="M 59 0.730469 L 64 0.730469 L 64 7 L 59 7 Z M 59 0.730469 "/>
</clipPath>
<clipPath id="clip2">
  <path d="M 44 55 L 48 55 L 48 66.730469 L 44 66.730469 Z M 44 55 "/>
</clipPath>
</defs>
<g id="surface1">
<g clip-path="url(#clip1)" clip-rule="nonzero">
<path style=" stroke:none;fill-rule:nonzero;fill:rgb(0%,0%,0%);fill-opacity:1;" d="M 59.804688 1.617188 C 60.066406 3.035156 61.003906 4.570312 61.628906 4.570312 C 61.746094 4.570312 61.988281 4.304688 62.132812 3.96875 C 62.277344 3.632812 62.492188 3.371094 62.585938 3.371094 C 62.753906 3.371094 63.285156 4.667969 63.285156 5.046875 C 63.285156 5.265625 61.242188 6.15625 60.234375 6.371094 C 59.804688 6.441406 59.394531 6.632812 59.324219 6.753906 C 59.011719 7.257812 61.773438 6.777344 63.234375 6.082031 C 63.980469 5.722656 64.050781 5.625 63.933594 4.835938 C 63.765625 3.539062 62.417969 0.730469 61.988281 0.730469 C 61.699219 0.730469 61.605469 0.996094 61.605469 1.929688 C 61.605469 3.273438 61.242188 3.539062 61.003906 2.339844 C 60.714844 0.917969 60.621094 0.730469 60.117188 0.730469 C 59.683594 0.730469 59.660156 0.828125 59.804688 1.617188 Z M 59.804688 1.617188 "/>
</g>
<path style=" stroke:none;fill-rule:nonzero;fill:rgb(0%,0%,0%);fill-opacity:1;" d="M 89.492188 6.796875 C 88.867188 7.378906 87.019531 8.914062 85.363281 10.210938 C 82.53125 12.441406 77.179688 17.003906 69.285156 23.914062 C 67.363281 25.59375 63.546875 28.835938 60.789062 31.136719 C 55.988281 35.144531 55.746094 35.316406 55.53125 34.761719 C 55.292969 34.1875 55.507812 14.433594 55.773438 11.960938 C 55.890625 10.617188 55.914062 10.570312 56.730469 10.421875 C 57.1875 10.332031 57.621094 10.113281 57.691406 9.945312 C 57.789062 9.660156 55.867188 7.257812 55.339844 7.019531 C 55.125 6.917969 53.179688 9.464844 52.605469 10.542969 L 52.195312 11.363281 L 53.585938 11.195312 L 54.957031 11.027344 L 54.789062 23.578125 C 54.667969 32.167969 54.523438 36.203125 54.355469 36.441406 C 53.949219 36.917969 49.242188 40.523438 48.234375 41.121094 C 47.730469 41.410156 46.84375 42.105469 46.242188 42.683594 C 44.996094 43.90625 38.179688 49.421875 37.722656 49.59375 C 37.53125 49.667969 37.171875 49.59375 36.882812 49.449219 C 36.042969 48.996094 34.484375 47.507812 34.484375 47.144531 C 34.484375 46.953125 34.242188 46.714844 33.957031 46.59375 C 33.644531 46.472656 32.011719 45.15625 30.285156 43.667969 C 28.578125 42.15625 25.050781 39.203125 22.484375 37.113281 C 13.941406 30.128906 8.203125 25.042969 4.578125 21.273438 C 2.613281 19.210938 0.8125 17.53125 0.597656 17.53125 C -0.605469 17.53125 0.0898438 19.089844 1.941406 20.507812 C 3.933594 22.042969 8.730469 26.386719 8.898438 26.792969 C 8.972656 26.960938 9.570312 27.515625 10.21875 27.996094 C 11.132812 28.617188 11.492188 29.074219 11.660156 29.722656 C 12.019531 31.113281 13.675781 52.304688 13.4375 52.570312 C 13.363281 52.640625 12.019531 52.714844 10.410156 52.761719 C 6.933594 52.835938 6.210938 52.953125 6.621094 53.363281 C 6.8125 53.554688 7.964844 53.652344 10.195312 53.652344 C 13.410156 53.652344 13.484375 53.652344 13.554688 54.179688 C 13.675781 54.945312 14.515625 54.917969 14.707031 54.15625 C 14.78125 53.820312 15.066406 53.507812 15.378906 53.433594 C 15.667969 53.363281 19.722656 53.097656 24.402344 52.808594 C 29.082031 52.542969 34.652344 52.234375 36.765625 52.089844 C 42.332031 51.730469 50.921875 51.15625 52.746094 51.011719 C 54.402344 50.890625 54.8125 51.082031 55.195312 52.164062 C 55.292969 52.378906 55.363281 55.257812 55.386719 58.523438 C 55.410156 62.074219 55.507812 64.570312 55.652344 64.738281 C 55.796875 64.90625 56.058594 65.050781 56.277344 65.050781 C 56.585938 65.050781 56.613281 64.761719 56.46875 63.058594 C 56.109375 58.375 55.867188 51.796875 56.058594 51.292969 C 56.277344 50.722656 56.109375 50.746094 76.125 49.332031 C 78.644531 49.136719 82.316406 48.875 84.285156 48.730469 C 86.277344 48.609375 91.605469 48.324219 96.164062 48.128906 C 100.722656 47.9375 105.859375 47.699219 107.585938 47.625 C 111.140625 47.433594 112.003906 47.554688 112.003906 48.226562 C 112.003906 49.449219 112.84375 49.929688 113.109375 48.875 C 113.179688 48.5625 113.660156 47.890625 114.1875 47.386719 C 114.691406 46.882812 115.125 46.402344 115.125 46.304688 C 115.125 46.210938 114.667969 45.875 114.089844 45.539062 C 113.539062 45.203125 112.867188 44.722656 112.628906 44.433594 C 111.835938 43.542969 111.570312 43.785156 111.835938 45.128906 C 111.957031 45.796875 112.003906 46.402344 111.933594 46.472656 C 111.691406 46.714844 106.84375 47.027344 97.605469 47.410156 C 87.667969 47.820312 80.707031 48.226562 71.5625 48.96875 C 57.378906 50.121094 56.804688 50.097656 56.324219 48.851562 C 56.203125 48.515625 55.988281 45.585938 55.84375 42.324219 L 55.578125 36.394531 L 56.707031 35.433594 C 57.332031 34.882812 58.964844 33.539062 60.332031 32.410156 C 64.101562 29.289062 69.257812 24.898438 75.285156 19.691406 C 81.332031 14.457031 85.628906 10.929688 88.722656 8.699219 C 91.410156 6.777344 91.628906 6.5625 91.460938 6.128906 C 91.21875 5.53125 90.691406 5.722656 89.492188 6.796875 Z M 56.277344 9.632812 C 55.890625 9.875 55.484375 9.515625 55.722656 9.128906 C 55.84375 8.9375 55.988281 8.9375 56.226562 9.15625 C 56.515625 9.394531 56.515625 9.492188 56.277344 9.632812 Z M 54.835938 9.539062 C 54.789062 9.777344 54.570312 9.996094 54.332031 10.042969 C 53.949219 10.113281 53.921875 10.066406 54.164062 9.632812 C 54.476562 9.035156 54.957031 8.960938 54.835938 9.539062 Z M 16.125 32.792969 C 17.707031 34.042969 19.21875 35.289062 19.460938 35.53125 C 19.914062 35.960938 19.867188 36.035156 16.84375 39.25 C 13.460938 42.828125 13.410156 42.851562 13.386719 40.472656 C 13.363281 39.347656 13.410156 39.273438 15.402344 37.164062 C 16.53125 35.988281 17.445312 34.859375 17.445312 34.667969 C 17.445312 34.136719 16.820312 34.570312 15.164062 36.226562 C 14.371094 37.042969 13.605469 37.691406 13.460938 37.691406 C 13.195312 37.691406 13.125 37.113281 12.8125 31.738281 C 12.738281 30.917969 12.8125 30.492188 13.003906 30.492188 C 13.148438 30.492188 14.5625 31.523438 16.125 32.792969 Z M 21.738281 37.378906 C 22.21875 37.738281 23.15625 38.507812 23.851562 39.082031 L 25.101562 40.136719 L 22.410156 43.136719 C 19.890625 45.945312 18.835938 47.167969 16.460938 49.976562 C 15.570312 51.035156 15.257812 51.851562 15.738281 51.851562 C 15.859375 51.851562 16.773438 50.84375 17.78125 49.59375 C 19.507812 47.410156 24.621094 41.769531 25.4375 41.074219 C 25.773438 40.808594 25.964844 40.859375 26.804688 41.53125 C 27.332031 41.9375 27.765625 42.347656 27.765625 42.394531 C 27.765625 42.464844 26.15625 44.410156 24.164062 46.714844 C 22.027344 49.210938 20.5625 51.105469 20.5625 51.417969 C 20.5625 51.851562 20.613281 51.875 20.972656 51.585938 C 21.1875 51.394531 22.410156 50.003906 23.707031 48.441406 C 26.347656 45.347656 28.339844 43.210938 28.652344 43.210938 C 28.773438 43.210938 29.226562 43.59375 29.683594 44.046875 L 30.5 44.890625 L 29.539062 45.898438 C 29.035156 46.472656 27.714844 47.867188 26.636719 48.996094 C 25.53125 50.144531 24.644531 51.203125 24.644531 51.347656 C 24.644531 52.042969 25.460938 51.394531 28.148438 48.585938 C 31.316406 45.324219 31.339844 45.292969 32.394531 46.714844 L 32.828125 47.316406 L 31.4375 48.917969 C 30.667969 49.808594 29.828125 50.84375 29.5625 51.203125 L 29.082031 51.851562 L 23.082031 52.210938 C 16.292969 52.617188 15.042969 52.640625 14.636719 52.378906 C 14.492188 52.28125 14.25 51.058594 14.109375 49.570312 C 13.964844 48.105469 13.796875 46.28125 13.722656 45.492188 L 13.554688 44.046875 L 16.074219 41.167969 C 18.425781 38.433594 20.179688 36.753906 20.660156 36.730469 C 20.78125 36.730469 21.257812 37.019531 21.738281 37.378906 Z M 54.980469 37.953125 C 55.292969 39.585938 55.101562 40.738281 54.089844 43.332031 C 53.515625 44.769531 52.746094 46.859375 52.386719 47.9375 C 52.027344 49.019531 51.570312 50.027344 51.378906 50.195312 C 51.1875 50.339844 50.46875 50.53125 49.796875 50.601562 L 48.570312 50.722656 L 48.738281 49.691406 C 48.957031 48.371094 51.066406 41.9375 51.882812 40.164062 C 52.292969 39.25 52.84375 38.507812 53.515625 38.003906 C 54.066406 37.570312 54.597656 37.210938 54.667969 37.210938 C 54.765625 37.210938 54.882812 37.542969 54.980469 37.953125 Z M 50.683594 40.738281 C 50.613281 40.976562 49.941406 43.042969 49.21875 45.347656 C 48.5 47.652344 47.804688 49.714844 47.660156 49.953125 C 47.371094 50.507812 46.675781 50.890625 46.027344 50.890625 C 45.378906 50.890625 45.378906 50.265625 46.003906 47.457031 C 46.652344 44.507812 47.226562 43.378906 48.882812 41.746094 C 50.347656 40.332031 50.996094 39.96875 50.683594 40.738281 Z M 55.339844 46.953125 C 55.363281 49.953125 55.269531 50.144531 53.78125 50.242188 C 52.507812 50.316406 52.484375 49.859375 53.585938 46.90625 C 55.050781 42.96875 54.90625 43.257812 55.125 43.808594 C 55.242188 44.074219 55.339844 45.492188 55.339844 46.953125 Z M 46.003906 44.339844 C 45.980469 44.457031 45.644531 45.917969 45.210938 47.652344 C 44.445312 50.722656 44.445312 50.746094 43.652344 50.988281 C 42.425781 51.324219 42.285156 50.988281 42.882812 48.945312 C 43.171875 47.960938 43.628906 46.785156 43.914062 46.332031 C 44.730469 44.914062 46.027344 43.691406 46.003906 44.339844 Z M 113.875 46.5 C 113.996094 46.929688 113.324219 46.882812 112.941406 46.421875 C 112.675781 46.089844 112.699219 46.066406 113.203125 46.136719 C 113.515625 46.164062 113.804688 46.355469 113.875 46.5 Z M 42.308594 47.890625 C 42.210938 48.226562 41.898438 49.089844 41.585938 49.808594 L 41.011719 51.082031 L 39.644531 51.25 C 38.898438 51.347656 38.226562 51.347656 38.132812 51.25 C 37.941406 51.058594 41.78125 47.289062 42.1875 47.289062 C 42.355469 47.289062 42.402344 47.507812 42.308594 47.890625 Z M 34.171875 48.394531 C 34.21875 48.515625 33.859375 49.210938 33.402344 49.929688 C 32.949219 50.625 32.539062 51.292969 32.515625 51.371094 C 32.417969 51.609375 30.164062 51.875 30.164062 51.632812 C 30.164062 51.539062 30.90625 50.652344 31.84375 49.691406 C 33.355469 48.105469 33.957031 47.769531 34.171875 48.394531 Z M 35.730469 49.859375 C 36.933594 51.011719 36.5 51.609375 34.4375 51.609375 C 33.933594 51.609375 33.523438 51.539062 33.523438 51.441406 C 33.523438 51.179688 34.722656 49.210938 34.890625 49.210938 C 34.988281 49.210938 35.371094 49.5 35.730469 49.859375 Z M 35.730469 49.859375 "/>
<path style=" stroke:none;fill-rule:nonzero;fill:rgb(0%,0%,0%);fill-opacity:1;" d="M 20.753906 39.777344 C 19.050781 41.53125 14.347656 47.363281 14.46875 47.578125 C 14.730469 48.011719 15.089844 47.671875 16.988281 45.292969 C 18.089844 43.953125 19.699219 42.058594 20.613281 41.097656 C 22.074219 39.5625 22.605469 38.652344 22.050781 38.652344 C 21.957031 38.652344 21.355469 39.15625 20.753906 39.777344 Z M 20.753906 39.777344 "/>
<path style=" stroke:none;fill-rule:nonzero;fill:rgb(0%,0%,0%);fill-opacity:1;" d="M 107.347656 12.292969 C 107.132812 13.164062 107.179688 20.121094 107.417969 20.265625 C 107.921875 20.578125 108.257812 12.492188 107.78125 12.011719 C 107.585938 11.820312 107.46875 11.890625 107.347656 12.292969 Z M 107.347656 12.292969 "/>
<path style=" stroke:none;fill-rule:nonzero;fill:rgb(0%,0%,0%);fill-opacity:1;" d="M 101.636719 13.28125 C 101.035156 13.542969 100.988281 13.617188 101.277344 14.144531 C 101.660156 14.914062 102.066406 15.035156 102.234375 14.410156 C 102.378906 13.859375 103.171875 13.761719 103.578125 14.242188 C 103.773438 14.484375 103.675781 14.722656 103.125 15.25 C 102.210938 16.113281 102.210938 16.402344 103.171875 17.144531 C 104.132812 17.890625 103.941406 18.15625 102.285156 18.417969 C 101.46875 18.5625 101.082031 18.730469 101.082031 18.96875 C 101.082031 19.421875 102.835938 19.332031 104.15625 18.796875 C 105.257812 18.347656 105.308594 17.792969 104.300781 16.929688 L 103.53125 16.304688 L 104.058594 15.609375 C 104.324219 15.226562 104.5625 14.699219 104.5625 14.457031 C 104.5625 13.421875 102.835938 12.730469 101.636719 13.28125 Z M 101.636719 13.28125 "/>
<path style=" stroke:none;fill-rule:nonzero;fill:rgb(0%,0%,0%);fill-opacity:1;" d="M 86.492188 16.113281 C 86.277344 20.144531 86.277344 21.851562 86.539062 21.851562 C 87.019531 21.851562 87.355469 13.90625 86.898438 13.449219 C 86.707031 13.257812 86.585938 14.003906 86.492188 16.113281 Z M 86.492188 16.113281 "/>
<path style=" stroke:none;fill-rule:nonzero;fill:rgb(0%,0%,0%);fill-opacity:1;" d="M 96.644531 15.058594 C 96.644531 16.042969 96.621094 16.066406 95.753906 16.210938 C 94.003906 16.5 93.765625 16.59375 93.765625 16.953125 C 93.765625 17.289062 93.980469 17.339844 95.203125 17.195312 L 96.644531 17.027344 L 96.644531 18.105469 C 96.644531 19.667969 97.050781 19.667969 97.363281 18.128906 C 97.605469 17.003906 97.722656 16.785156 98.277344 16.667969 C 99.378906 16.421875 99.546875 16.332031 99.402344 16.089844 C 99.332031 15.96875 98.875 15.851562 98.417969 15.851562 C 97.890625 15.851562 97.605469 15.730469 97.605469 15.515625 C 97.605469 15.324219 97.386719 14.9375 97.125 14.625 L 96.667969 14.046875 Z M 96.644531 15.058594 "/>
<path style=" stroke:none;fill-rule:nonzero;fill:rgb(0%,0%,0%);fill-opacity:1;" d="M 89.921875 15.324219 C 89.921875 15.5625 90.257812 16.066406 90.644531 16.449219 C 91.269531 17.046875 91.363281 17.316406 91.363281 18.417969 C 91.363281 19.378906 91.460938 19.691406 91.722656 19.691406 C 91.914062 19.691406 92.082031 19.472656 92.082031 19.210938 C 92.082031 18.945312 92.179688 18.730469 92.277344 18.730469 C 92.394531 18.730469 92.683594 18.945312 92.921875 19.210938 C 93.882812 20.265625 94.074219 19.523438 93.140625 18.324219 C 92.515625 17.507812 92.515625 17.484375 92.921875 16.691406 C 93.1875 16.210938 93.285156 15.730469 93.1875 15.464844 C 93.019531 15.035156 92.972656 15.058594 92.445312 15.660156 L 91.890625 16.304688 L 90.980469 15.609375 C 89.949219 14.769531 89.921875 14.769531 89.921875 15.324219 Z M 89.921875 15.324219 "/>
<path style=" stroke:none;fill-rule:nonzero;fill:rgb(0%,0%,0%);fill-opacity:1;" d="M 120.597656 44.578125 C 120.402344 44.820312 120.164062 45.203125 120.089844 45.441406 C 119.949219 45.851562 119.875 45.851562 118.988281 45.371094 C 118.460938 45.105469 117.980469 44.988281 117.90625 45.082031 C 117.738281 45.347656 118.027344 45.730469 118.675781 46.066406 C 119.394531 46.449219 119.347656 47.144531 118.484375 49.332031 C 117.667969 51.371094 117.667969 51.371094 118.003906 51.371094 C 118.125 51.371094 118.628906 50.578125 119.109375 49.617188 C 119.585938 48.683594 120.019531 47.84375 120.042969 47.820312 C 120.089844 47.769531 120.523438 48.179688 121.027344 48.707031 C 121.507812 49.257812 121.964844 49.640625 122.011719 49.59375 C 122.082031 49.523438 121.796875 48.898438 121.386719 48.179688 C 120.523438 46.640625 120.453125 46.019531 121.148438 45.539062 C 121.554688 45.226562 121.605469 45.082031 121.386719 44.671875 C 121.050781 44.074219 121.050781 44.074219 120.597656 44.578125 Z M 120.597656 44.578125 "/>
<path style=" stroke:none;fill-rule:nonzero;fill:rgb(0%,0%,0%);fill-opacity:1;" d="M 58.484375 53.339844 C 57.980469 54.15625 57.835938 55.210938 58.21875 55.210938 C 58.339844 55.210938 58.507812 55.667969 58.605469 56.21875 C 58.820312 57.417969 59.851562 58.570312 60.714844 58.570312 C 61.363281 58.570312 62.660156 57.632812 63.066406 56.84375 C 63.257812 56.484375 63.1875 56.097656 62.660156 55.042969 C 62.15625 53.960938 61.84375 53.625 61.027344 53.289062 C 59.132812 52.472656 59.011719 52.472656 58.484375 53.339844 Z M 61.148438 54.011719 C 61.675781 54.324219 62.324219 55.472656 62.324219 56.167969 C 62.324219 56.820312 61.292969 57.851562 60.667969 57.851562 C 60.019531 57.851562 59.492188 56.988281 59.300781 55.617188 C 59.058594 53.988281 59.828125 53.316406 61.148438 54.011719 Z M 61.148438 54.011719 "/>
<g clip-path="url(#clip2)" clip-rule="nonzero">
<path style=" stroke:none;fill-rule:nonzero;fill:rgb(0%,0%,0%);fill-opacity:1;" d="M 45.425781 55.1875 C 45.308594 55.355469 45.5 55.882812 45.859375 56.433594 C 46.53125 57.441406 47.203125 59.652344 47.203125 60.851562 C 47.203125 62.097656 46.746094 63.292969 45.765625 64.59375 C 45.234375 65.289062 44.875 65.914062 44.921875 65.988281 C 45.140625 66.179688 46.746094 64.472656 47.277344 63.492188 C 48.257812 61.640625 47.707031 57.25 46.269531 55.640625 C 45.8125 55.113281 45.546875 54.96875 45.425781 55.1875 Z M 45.425781 55.1875 "/>
</g>
<path style=" stroke:none;fill-rule:nonzero;fill:rgb(0%,0%,0%);fill-opacity:1;" d="M 35.753906 56.046875 C 34.964844 56.386719 34.746094 57.011719 35.109375 57.945312 C 35.300781 58.472656 35.683594 58.425781 35.683594 57.898438 C 35.683594 57.203125 36.285156 56.554688 36.738281 56.722656 C 37.101562 56.867188 37.101562 56.9375 36.765625 57.585938 C 36.234375 58.640625 36.308594 59.144531 37.125 59.601562 C 37.796875 60.011719 38.082031 60.492188 37.675781 60.492188 C 37.554688 60.492188 37.125 60.707031 36.667969 60.996094 C 35.445312 61.738281 36.042969 62.121094 37.460938 61.472656 C 38.921875 60.828125 39.066406 60.417969 38.082031 59.410156 C 37.363281 58.667969 37.316406 58.523438 37.554688 57.96875 C 38.035156 56.914062 37.914062 56.195312 37.21875 55.929688 C 36.882812 55.785156 36.597656 55.691406 36.570312 55.691406 C 36.546875 55.714844 36.164062 55.859375 35.753906 56.046875 Z M 35.753906 56.046875 "/>
<path style=" stroke:none;fill-rule:nonzero;fill:rgb(0%,0%,0%);fill-opacity:1;" d="M 28.050781 56.53125 C 26.804688 58.085938 27.355469 62.027344 29.011719 63.515625 C 29.300781 63.800781 29.804688 64.113281 30.089844 64.1875 C 30.789062 64.402344 31.050781 63.898438 30.355469 63.632812 C 29.035156 63.125 28.242188 61.425781 28.242188 59.167969 C 28.242188 57.585938 28.554688 56.53125 28.964844 56.769531 C 29.058594 56.84375 29.109375 56.671875 29.035156 56.410156 C 28.867188 55.785156 28.628906 55.808594 28.050781 56.53125 Z M 28.050781 56.53125 "/>
<path style=" stroke:none;fill-rule:nonzero;fill:rgb(0%,0%,0%);fill-opacity:1;" d="M 42.453125 56.21875 C 41.753906 56.554688 41.585938 57.273438 41.804688 59 C 42.019531 60.800781 42.257812 61.210938 43.101562 61.210938 C 44.394531 61.210938 45.042969 59.699219 44.539062 57.75 C 44.394531 57.125 44.035156 56.484375 43.773438 56.289062 C 43.171875 55.882812 43.171875 55.882812 42.453125 56.21875 Z M 43.941406 57.828125 C 44.347656 59.242188 43.269531 61.375 42.789062 60.105469 C 42.570312 59.554688 42.621094 58.859375 42.933594 57.800781 C 43.242188 56.722656 43.628906 56.722656 43.941406 57.828125 Z M 43.941406 57.828125 "/>
<path style=" stroke:none;fill-rule:nonzero;fill:rgb(0%,0%,0%);fill-opacity:1;" d="M 31.003906 59.289062 C 30.933594 59.410156 30.933594 59.625 31.003906 59.769531 C 31.171875 60.058594 33.1875 60.058594 33.882812 59.769531 C 34.339844 59.601562 34.316406 59.554688 33.691406 59.316406 C 32.851562 58.976562 31.195312 58.976562 31.003906 59.289062 Z M 31.003906 59.289062 "/>
<path style=" stroke:none;fill-rule:nonzero;fill:rgb(0%,0%,0%);fill-opacity:1;" d="M 39.667969 59.457031 C 39.378906 60.515625 38.996094 62.867188 39.089844 63.15625 C 39.164062 63.371094 39.355469 63.25 39.621094 62.84375 C 40.125 62.074219 40.4375 59.433594 40.050781 59.195312 C 39.90625 59.121094 39.738281 59.242188 39.667969 59.457031 Z M 39.667969 59.457031 "/>
</g>
</svg>
