<?xml version="1.0" encoding="UTF-8"?>
<svg xmlns="http://www.w3.org/2000/svg" xmlns:xlink="http://www.w3.org/1999/xlink" width="106pt" height="105pt" viewBox="0 0 106 105" version="1.1">
<defs>
<clipPath id="clip1">
  <path d="M 52 0.578125 L 59 0.578125 L 59 12 L 52 12 Z M 52 0.578125 "/>
</clipPath>
</defs>
<g id="surface1">
<g clip-path="url(#clip1)" clip-rule="nonzero">
<path style=" stroke:none;fill-rule:nonzero;fill:rgb(0%,0%,0%);fill-opacity:1;" d="M 52.824219 1.230469 C 53.28125 2.429688 54.023438 3.003906 54.960938 2.933594 C 55.800781 2.859375 55.800781 2.859375 55.871094 3.917969 C 55.945312 4.949219 55.894531 5.019531 54.503906 6.363281 C 53.230469 7.566406 53.039062 7.875 53.039062 8.621094 C 53.039062 9.726562 53.566406 10.972656 54.238281 11.453125 C 54.71875 11.789062 54.863281 11.789062 55.441406 11.5 C 56.304688 11.046875 56.425781 10.734375 56.566406 8.046875 L 56.710938 5.8125 L 57.695312 5.09375 L 58.679688 4.371094 L 57.792969 4.539062 C 56.808594 4.734375 56.832031 4.78125 56.375 2.1875 C 56.089844 0.4375 55.679688 0.125 55.320312 1.347656 C 55.007812 2.382812 54.289062 2.40625 53.640625 1.371094 C 53.015625 0.390625 52.464844 0.292969 52.824219 1.230469 Z M 55.921875 7.46875 C 55.921875 10.253906 55.078125 11.476562 54.144531 10.132812 C 53.472656 9.195312 53.664062 7.925781 54.574219 6.964844 C 55.703125 5.765625 55.921875 5.859375 55.921875 7.46875 Z M 55.921875 7.46875 "/>
</g>
<path style=" stroke:none;fill-rule:nonzero;fill:rgb(0%,0%,0%);fill-opacity:1;" d="M 46.753906 6.292969 C 46.105469 6.964844 45.359375 8.285156 45.359375 8.742188 C 45.359375 9.292969 46.34375 9.941406 47.160156 9.941406 L 48 9.941406 L 47.976562 13.347656 C 47.953125 18.195312 48.046875 17.980469 45.601562 18.003906 C 43.367188 18.027344 41.617188 18.4375 38.160156 19.707031 C 30.792969 22.445312 26.183594 26.214844 23.519531 31.660156 C 21.960938 34.851562 21.359375 37.324219 21.191406 41.429688 C 21.121094 43.230469 21 44.789062 20.902344 44.910156 C 20.832031 45.027344 17.425781 45.054688 13.199219 44.980469 L 5.640625 44.859375 L 5.640625 43.636719 C 5.640625 42.171875 5.089844 41.382812 4.054688 41.382812 C 2.832031 41.382812 0 44.117188 0 45.292969 C 0 45.53125 0.335938 45.773438 0.960938 45.941406 C 1.488281 46.0625 2.375 46.300781 2.953125 46.445312 C 3.503906 46.589844 4.222656 46.851562 4.535156 47.070312 C 5.160156 47.476562 5.449219 47.308594 5.566406 46.421875 L 5.640625 45.820312 L 12.71875 45.75 C 16.609375 45.726562 20.136719 45.75 20.542969 45.820312 C 21.191406 45.941406 21.335938 46.085938 21.480469 46.851562 C 21.769531 48.390625 22.945312 51.125 24.121094 53.019531 C 27.574219 58.566406 35.113281 63.027344 43.03125 64.179688 L 45.121094 64.492188 L 45.070312 70.875 L 45 77.261719 L 43.753906 77.332031 C 42.625 77.40625 42.480469 77.476562 42.480469 77.933594 C 42.480469 78.222656 42.71875 78.941406 42.984375 79.539062 C 43.585938 80.859375 45.839844 84.339844 46.078125 84.339844 C 46.199219 84.339844 46.488281 83.382812 46.777344 82.203125 C 47.183594 80.382812 47.59375 79.132812 48.359375 77.308594 C 48.503906 76.949219 48.382812 76.902344 47.230469 76.902344 L 45.910156 76.902344 L 45.769531 73.109375 C 45.671875 71.046875 45.601562 68.261719 45.601562 66.917969 L 45.601562 64.492188 L 48.671875 64.347656 C 56.351562 64.011719 65.640625 61.230469 70.800781 57.699219 C 74.425781 55.230469 76.800781 51.054688 76.800781 47.164062 L 76.800781 45.941406 L 81.792969 45.941406 C 84.527344 45.941406 88.128906 45.867188 89.832031 45.773438 L 92.878906 45.628906 L 92.878906 46.203125 C 92.902344 47.957031 93.625 48.390625 93.839844 46.757812 L 93.960938 45.820312 L 95.28125 45.75 L 96.601562 45.699219 L 95.039062 47.117188 C 94.175781 47.910156 93.527344 48.605469 93.601562 48.675781 C 93.769531 48.820312 97.585938 46.011719 98.375 45.148438 C 99.046875 44.40625 98.929688 44.164062 97.609375 43.589844 C 97.054688 43.324219 96.046875 42.675781 95.351562 42.125 C 93.960938 41.019531 93.601562 40.925781 93.601562 41.597656 C 93.601562 41.859375 93.359375 42.246094 93.097656 42.4375 C 92.664062 42.726562 92.59375 42.964844 92.710938 43.613281 C 92.785156 44.09375 92.734375 44.550781 92.566406 44.71875 C 92.375 44.910156 89.953125 44.980469 84.550781 44.980469 L 76.800781 44.980469 L 76.65625 44.308594 C 75 36.558594 72.550781 31.902344 67.511719 26.8125 C 66.40625 25.707031 65.519531 24.605469 65.519531 24.363281 C 65.519531 24.027344 65.28125 23.886719 64.558594 23.789062 C 64.03125 23.71875 62.328125 23.070312 60.792969 22.347656 C 57.121094 20.621094 55.246094 20.070312 51.742188 19.660156 C 50.183594 19.492188 48.792969 19.230469 48.648438 19.085938 C 48.382812 18.820312 48.40625 13.707031 48.671875 11.261719 C 48.816406 10.085938 48.910156 9.820312 49.320312 9.75 C 50.472656 9.582031 50.878906 9.4375 50.878906 9.195312 C 50.878906 8.910156 48.289062 6.148438 47.734375 5.835938 C 47.449219 5.691406 47.183594 5.8125 46.753906 6.292969 Z M 49.679688 8.742188 C 49.679688 9.125 49.007812 9.003906 48.71875 8.550781 C 48.480469 8.164062 48.433594 8.1875 48.097656 8.667969 C 47.425781 9.628906 45.839844 9.171875 46.222656 8.140625 C 46.34375 7.875 46.558594 7.78125 46.945312 7.851562 C 47.398438 7.925781 47.519531 7.851562 47.519531 7.421875 C 47.519531 7.132812 47.59375 6.820312 47.6875 6.726562 C 47.902344 6.53125 49.679688 8.332031 49.679688 8.742188 Z M 47.304688 18.84375 C 47.6875 19.035156 47.734375 19.15625 47.496094 19.445312 C 47.351562 19.636719 46.992188 19.78125 46.703125 19.804688 C 46.441406 19.804688 45.601562 20.019531 44.878906 20.261719 C 43.894531 20.621094 43.777344 20.691406 44.398438 20.597656 C 47.136719 20.1875 47.28125 20.1875 47.398438 20.550781 C 47.472656 20.742188 47.160156 24.292969 46.703125 28.445312 C 46.246094 32.597656 45.742188 37.972656 45.601562 40.421875 C 45.433594 42.867188 45.214844 44.957031 45.097656 45.101562 C 44.808594 45.390625 22.199219 45.414062 21.910156 45.125 C 21.625 44.835938 21.742188 39.558594 22.054688 37.902344 C 23.761719 29.382812 29.039062 23.742188 38.640625 20.1875 C 42.40625 18.773438 46.128906 18.195312 47.304688 18.84375 Z M 52.871094 20.382812 C 54.214844 20.597656 55.96875 20.980469 56.761719 21.246094 C 58.726562 21.917969 61.703125 23.429688 61.921875 23.859375 C 62.015625 24.054688 62.207031 24.4375 62.328125 24.726562 C 62.519531 25.0625 62.519531 25.347656 62.328125 25.683594 C 61.921875 26.429688 54.433594 35.429688 50.902344 39.4375 C 49.105469 41.453125 47.375 43.445312 47.039062 43.875 L 46.441406 44.621094 L 46.296875 43.421875 C 46.105469 41.933594 46.414062 36.53125 47.039062 30.339844 C 47.6875 24.246094 48.144531 21.339844 48.625 20.597656 C 49.078125 19.902344 49.488281 19.875 52.871094 20.382812 Z M 65.496094 25.875 C 68.113281 27.796875 71.257812 31.734375 73.078125 35.355469 C 74.664062 38.5 76.320312 43.996094 75.984375 44.886719 C 75.886719 45.148438 73.03125 45.222656 61.199219 45.222656 L 46.558594 45.222656 L 47.496094 44.214844 C 49.96875 41.5 55.847656 34.683594 58.078125 31.925781 C 60.457031 28.996094 63.984375 25.0625 64.246094 25.0625 C 64.320312 25.0625 64.871094 25.421875 65.496094 25.875 Z M 4.632812 43.132812 C 4.992188 44.574219 4.753906 44.8125 3.289062 44.644531 C 2.28125 44.5 1.945312 44.550781 1.679688 44.835938 C 1.34375 45.269531 0.71875 45.339844 0.71875 44.980469 C 0.71875 44.382812 3.671875 42.003906 4.199219 42.171875 C 4.320312 42.222656 4.535156 42.652344 4.632812 43.132812 Z M 96.289062 43.757812 C 97.199219 44.261719 97.847656 44.742188 97.753906 44.8125 C 97.558594 45.027344 95.808594 45.027344 94.824219 44.835938 C 94.175781 44.691406 94.078125 44.574219 94.078125 43.902344 C 94.078125 43.179688 94.246094 42.820312 94.535156 42.820312 C 94.609375 42.84375 95.398438 43.253906 96.289062 43.757812 Z M 4.679688 45.941406 C 4.753906 46.0625 4.609375 46.179688 4.34375 46.179688 C 4.054688 46.179688 3.839844 46.0625 3.839844 45.941406 C 3.839844 45.796875 3.984375 45.699219 4.175781 45.699219 C 4.367188 45.699219 4.609375 45.796875 4.679688 45.941406 Z M 43.871094 46.300781 C 43.96875 46.398438 43.894531 46.539062 43.753906 46.589844 C 43.585938 46.660156 43.441406 46.875 43.441406 47.070312 C 43.441406 47.453125 43.992188 47.429688 44.976562 47.019531 C 45.433594 46.828125 45.433594 46.925781 45.289062 49.566406 C 45.191406 51.078125 45.121094 54.867188 45.121094 58.011719 L 45.121094 63.726562 L 43.871094 63.582031 C 37.96875 62.886719 31.535156 60.054688 27.648438 56.40625 C 26.566406 55.398438 24.984375 53.308594 24.070312 51.699219 C 23.304688 50.355469 22.078125 47.019531 22.078125 46.277344 C 22.078125 45.894531 22.753906 45.867188 32.902344 45.988281 C 38.855469 46.085938 43.777344 46.203125 43.871094 46.300781 Z M 76.128906 47.5 C 75.910156 51.414062 73.464844 55.253906 69.769531 57.558594 C 64.367188 60.894531 54.335938 63.699219 47.734375 63.699219 C 46.128906 63.699219 46.054688 63.675781 45.816406 63.027344 C 45.550781 62.382812 45.695312 49.132812 45.984375 46.949219 L 46.128906 45.941406 L 61.175781 45.988281 L 76.199219 46.0625 Z M 47.160156 78.027344 C 46.871094 78.796875 46.078125 82.011719 46.078125 82.46875 C 46.078125 83.332031 45.671875 82.875 44.617188 80.886719 C 43.726562 79.15625 43.609375 78.820312 43.894531 78.484375 C 44.519531 77.742188 44.855469 78.027344 44.929688 79.347656 C 45.023438 81.003906 45.433594 80.980469 45.601562 79.347656 C 45.742188 78.054688 46.054688 77.621094 46.894531 77.621094 C 47.207031 77.621094 47.28125 77.742188 47.160156 78.027344 Z M 47.160156 78.027344 "/>
<path style=" stroke:none;fill-rule:nonzero;fill:rgb(0%,0%,0%);fill-opacity:1;" d="M 60.839844 32.1875 C 60.574219 32.261719 60.289062 32.429688 60.191406 32.597656 C 60.097656 32.742188 60 34.253906 60 35.957031 C 60 38.382812 60.070312 39.003906 60.289062 38.789062 C 60.457031 38.621094 60.601562 37.828125 60.625 37.011719 C 60.648438 36.101562 60.769531 35.476562 60.9375 35.429688 C 61.105469 35.382812 62.089844 36.148438 63.121094 37.15625 C 64.152344 38.164062 65.0625 38.980469 65.136719 38.980469 C 65.472656 38.980469 64.414062 37.46875 63.070312 36.003906 L 61.703125 34.492188 L 62.183594 33.796875 C 62.425781 33.414062 62.640625 32.859375 62.640625 32.550781 C 62.640625 32.117188 62.519531 32.019531 61.992188 32.046875 C 61.609375 32.070312 61.105469 32.140625 60.839844 32.1875 Z M 61.921875 32.933594 C 61.921875 33.054688 61.703125 33.339844 61.441406 33.582031 C 60.910156 34.0625 60.816406 33.917969 61.199219 33.195312 C 61.464844 32.742188 61.921875 32.574219 61.921875 32.933594 Z M 61.921875 32.933594 "/>
<path style=" stroke:none;fill-rule:nonzero;fill:rgb(0%,0%,0%);fill-opacity:1;" d="M 49.921875 48.652344 C 48.144531 49.539062 48.023438 53.382812 49.753906 54.675781 C 50.328125 55.109375 50.449219 55.109375 51.289062 54.796875 C 52.632812 54.269531 53.28125 53.164062 53.28125 51.414062 C 53.28125 50.09375 53.207031 49.902344 52.464844 49.15625 C 51.601562 48.292969 50.902344 48.148438 49.921875 48.652344 Z M 51.960938 49.371094 C 52.800781 50.070312 53.039062 51.75 52.464844 52.851562 C 51.625 54.484375 50.015625 54.773438 49.441406 53.382812 C 49.054688 52.492188 49.246094 50.285156 49.726562 49.925781 C 49.921875 49.78125 50.136719 49.46875 50.230469 49.230469 C 50.449219 48.652344 51.214844 48.726562 51.960938 49.371094 Z M 51.960938 49.371094 "/>
<path style=" stroke:none;fill-rule:nonzero;fill:rgb(0%,0%,0%);fill-opacity:1;" d="M 104.28125 44.980469 C 103.585938 46.109375 103.246094 46.15625 102.480469 45.339844 C 102.167969 45.003906 101.832031 44.742188 101.710938 44.742188 C 101.304688 44.742188 101.542969 45.246094 102.359375 46.15625 L 103.199219 47.070312 L 102.480469 48.652344 C 101.304688 51.246094 101.664062 51.53125 102.984375 49.0625 L 103.726562 47.644531 L 104.785156 48.246094 C 106.007812 48.964844 106.152344 48.726562 105.121094 47.742188 C 104.328125 46.996094 104.257812 46.660156 104.664062 45.894531 C 104.929688 45.390625 104.953125 45.390625 105.265625 45.820312 C 105.574219 46.253906 105.601562 46.253906 105.601562 45.675781 C 105.601562 44.859375 105.335938 44.019531 105.097656 44.019531 C 104.976562 44.019531 104.617188 44.453125 104.28125 44.980469 Z M 104.28125 44.980469 "/>
<path style=" stroke:none;fill-rule:nonzero;fill:rgb(0%,0%,0%);fill-opacity:1;" d="M 21 89.019531 C 20.398438 89.597656 20.207031 90.773438 20.542969 91.636719 C 20.710938 92.070312 21.574219 92.117188 23.6875 91.875 C 25.246094 91.683594 25.105469 91.300781 23.472656 91.300781 C 22.320312 91.300781 22.273438 91.277344 22.441406 90.75 C 22.824219 89.523438 22.847656 89.117188 22.558594 88.78125 C 22.128906 88.277344 21.671875 88.324219 21 89.019531 Z M 22.078125 89.523438 C 22.078125 89.910156 21.023438 91.347656 20.929688 91.085938 C 20.785156 90.628906 21.382812 89.382812 21.742188 89.382812 C 21.9375 89.382812 22.078125 89.453125 22.078125 89.523438 Z M 22.078125 89.523438 "/>
<path style=" stroke:none;fill-rule:nonzero;fill:rgb(0%,0%,0%);fill-opacity:1;" d="M 60.527344 89.429688 C 60.191406 89.765625 60.144531 91.300781 60.480469 91.300781 C 60.625 91.300781 60.71875 91.085938 60.71875 90.820312 C 60.71875 90.125 61.441406 89.910156 61.824219 90.460938 C 62.015625 90.699219 62.160156 91.011719 62.160156 91.109375 C 62.160156 91.371094 61.199219 92.332031 60.601562 92.667969 C 60.214844 92.886719 60.191406 92.980469 60.457031 93.316406 C 60.695312 93.605469 61.246094 93.699219 62.808594 93.699219 C 64.992188 93.699219 65.351562 93.363281 63.359375 93.171875 C 62.6875 93.101562 62.089844 93.003906 62.015625 92.933594 C 61.96875 92.859375 62.136719 92.40625 62.425781 91.925781 C 62.878906 91.15625 62.902344 90.964844 62.640625 90.316406 C 62.183594 89.261719 61.152344 88.804688 60.527344 89.429688 Z M 60.527344 89.429688 "/>
<path style=" stroke:none;fill-rule:nonzero;fill:rgb(0%,0%,0%);fill-opacity:1;" d="M 38.28125 90.484375 C 38.0625 90.699219 37.921875 91.035156 37.96875 91.253906 C 38.0625 91.757812 38.640625 91.925781 38.640625 91.445312 C 38.640625 90.941406 39.265625 90.941406 39.457031 91.46875 C 39.550781 91.707031 39.40625 92.070312 39.097656 92.40625 C 38.785156 92.742188 38.640625 93.101562 38.734375 93.363281 C 38.855469 93.699219 39.097656 93.75 40.367188 93.605469 C 42 93.414062 43.078125 93.003906 42 92.980469 C 40.800781 92.957031 40.320312 92.71875 40.320312 92.09375 C 40.320312 91.78125 40.199219 91.277344 40.054688 90.988281 C 39.550781 90.027344 38.929688 89.859375 38.28125 90.484375 Z M 38.28125 90.484375 "/>
<path style=" stroke:none;fill-rule:nonzero;fill:rgb(0%,0%,0%);fill-opacity:1;" d="M 17.28125 93.222656 C 16.679688 94.0625 16.414062 94.109375 15.601562 93.460938 C 14.566406 92.644531 14.160156 92.8125 14.160156 94.0625 C 14.160156 95.117188 14.519531 95.5 14.785156 94.78125 C 14.878906 94.589844 15.070312 94.421875 15.238281 94.421875 C 15.910156 94.421875 15.816406 95.238281 15.023438 96.675781 C 13.414062 99.558594 13.65625 100.179688 15.359375 97.539062 C 15.960938 96.628906 16.488281 95.859375 16.558594 95.859375 C 16.632812 95.859375 17.328125 96.628906 18.097656 97.566406 C 20.136719 100.0625 20.230469 99.363281 18.214844 96.652344 C 17.160156 95.238281 17.113281 95.019531 17.761719 94.179688 C 18.238281 93.558594 18.40625 92.5 18.023438 92.5 C 17.902344 92.5 17.566406 92.8125 17.28125 93.222656 Z M 17.28125 93.222656 "/>
<path style=" stroke:none;fill-rule:nonzero;fill:rgb(0%,0%,0%);fill-opacity:1;" d="M 54.289062 93.507812 L 53.519531 94.0625 L 53.566406 97.179688 C 53.617188 99.054688 53.734375 100.300781 53.878906 100.300781 C 54.023438 100.300781 54.167969 99.820312 54.238281 99.246094 C 54.3125 98.644531 54.480469 98.140625 54.625 98.09375 C 54.769531 98.046875 55.296875 98.355469 55.824219 98.765625 C 56.953125 99.675781 58.03125 100.230469 58.367188 100.132812 C 58.511719 100.085938 57.910156 99.507812 57.023438 98.859375 C 56.160156 98.1875 55.441406 97.589844 55.441406 97.492188 C 55.441406 97.398438 55.726562 97.011719 56.0625 96.652344 C 56.566406 96.101562 56.664062 95.8125 56.566406 95.070312 C 56.449219 94.253906 55.632812 92.980469 55.222656 92.980469 C 55.128906 92.980469 54.71875 93.222656 54.289062 93.507812 Z M 55.609375 94.539062 C 55.921875 95.214844 55.945312 95.476562 55.726562 95.980469 C 55.367188 96.75 54.625 96.699219 54.527344 95.886719 C 54.40625 95.09375 54.695312 93.699219 54.984375 93.699219 C 55.105469 93.699219 55.390625 94.085938 55.609375 94.539062 Z M 55.609375 94.539062 "/>
<path style=" stroke:none;fill-rule:nonzero;fill:rgb(0%,0%,0%);fill-opacity:1;" d="M 26.640625 93.75 C 26.640625 93.917969 26.808594 94.277344 27 94.515625 C 27.40625 95.046875 27.097656 95.621094 26.425781 95.621094 C 25.992188 95.621094 25.441406 96.054688 25.441406 96.390625 C 25.441406 96.507812 25.96875 96.53125 26.617188 96.4375 L 27.816406 96.292969 L 27.960938 97.15625 C 28.199219 98.429688 28.558594 98.453125 28.558594 97.203125 C 28.558594 96.222656 28.609375 96.101562 29.113281 96.101562 C 29.398438 96.101562 29.785156 96.003906 29.976562 95.886719 C 30.214844 95.742188 30.023438 95.621094 29.375 95.523438 C 28.609375 95.382812 28.34375 95.1875 27.886719 94.421875 C 27.382812 93.507812 26.640625 93.125 26.640625 93.75 Z M 26.640625 93.75 "/>
<path style=" stroke:none;fill-rule:nonzero;fill:rgb(0%,0%,0%);fill-opacity:1;" d="M 31.777344 94.277344 C 31.585938 94.804688 32.328125 96.917969 32.878906 97.421875 C 33.289062 97.78125 33.457031 97.804688 33.984375 97.589844 C 34.296875 97.421875 34.703125 97.300781 34.847656 97.300781 C 35.375 97.300781 34.34375 102.292969 33.695312 102.84375 C 33.359375 103.109375 31.703125 103.035156 30.839844 102.726562 C 30.503906 102.605469 30.601562 102.773438 31.152344 103.277344 C 32.6875 104.742188 34.390625 103.925781 35.160156 101.355469 C 35.664062 99.652344 35.902344 95.71875 35.542969 94.804688 C 35.207031 93.988281 35.039062 94.132812 34.464844 95.667969 C 33.910156 97.132812 33.335938 97.203125 32.785156 95.859375 C 32.566406 95.332031 32.398438 94.734375 32.398438 94.539062 C 32.398438 94.0625 31.945312 93.84375 31.777344 94.277344 Z M 31.777344 94.277344 "/>
<path style=" stroke:none;fill-rule:nonzero;fill:rgb(0%,0%,0%);fill-opacity:1;" d="M 42 97.421875 C 42 97.707031 42.335938 97.78125 43.511719 97.804688 C 44.953125 97.828125 44.976562 97.828125 44.113281 98.070312 C 43.246094 98.285156 42.984375 98.574219 43.390625 98.8125 C 43.65625 98.980469 49.34375 98.523438 49.96875 98.285156 C 50.398438 98.140625 50.257812 98.070312 49.246094 97.925781 C 48.480469 97.828125 48.023438 97.660156 48.070312 97.46875 C 48.097656 97.253906 47.304688 97.15625 45.070312 97.109375 C 42.457031 97.0625 42 97.109375 42 97.421875 Z M 42 97.421875 "/>
</g>
</svg>
