<?xml version="1.0" encoding="UTF-8"?>
<svg xmlns="http://www.w3.org/2000/svg" xmlns:xlink="http://www.w3.org/1999/xlink" width="500pt" height="502pt" viewBox="0 0 500 502" version="1.1">
<defs>
<clipPath id="clip1">
  <path d="M 0 0.765625 L 500 0.765625 L 500 501 L 0 501 Z M 0 0.765625 "/>
</clipPath>
</defs>
<g id="surface1">
<path style="fill:none;stroke-width:43.3286;stroke-linecap:round;stroke-linejoin:round;stroke:rgb(15.696716%,6.665039%,6.665039%);stroke-opacity:1;stroke-miterlimit:4;" d="M 4152.109375 2512.03125 C 4152.109375 2529.492188 4151.5625 2546.992188 4150.429688 2564.414062 C 4149.335938 2581.875 4147.65625 2599.257812 4145.46875 2616.601562 C 4143.242188 2633.945312 4140.46875 2651.210938 4137.1875 2668.359375 C 4133.867188 2685.546875 4130 2702.578125 4125.625 2719.492188 C 4121.25 2736.40625 4116.328125 2753.203125 4110.859375 2769.804688 C 4105.390625 2786.40625 4099.414062 2802.851562 4092.929688 2819.0625 C 4086.445312 2835.273438 4079.414062 2851.328125 4071.914062 2867.109375 C 4064.414062 2882.851562 4056.40625 2898.398438 4047.890625 2913.671875 C 4039.414062 2928.945312 4030.429688 2943.945312 4020.976562 2958.671875 C 4011.523438 2973.359375 4001.601562 2987.773438 3991.25 3001.835938 C 3980.859375 3015.898438 3970.078125 3029.648438 3958.828125 3043.046875 C 3947.617188 3056.445312 3935.9375 3069.453125 3923.867188 3082.109375 C 3911.835938 3094.765625 3899.375 3107.03125 3886.523438 3118.867188 C 3873.671875 3130.742188 3860.46875 3142.1875 3846.914062 3153.203125 C 3833.320312 3164.21875 3819.414062 3174.804688 3805.195312 3184.960938 C 3790.9375 3195.117188 3776.40625 3204.765625 3761.523438 3213.984375 C 3746.679688 3223.203125 3731.5625 3231.953125 3716.132812 3240.195312 C 3700.742188 3248.476562 3685.078125 3256.210938 3669.179688 3263.476562 C 3653.28125 3270.742188 3637.148438 3277.5 3620.820312 3283.75 C 3604.492188 3289.960938 3587.96875 3295.703125 3571.289062 3300.898438 C 3554.609375 3306.09375 3537.734375 3310.742188 3520.742188 3314.84375 C 3503.789062 3318.984375 3486.640625 3322.539062 3469.453125 3325.585938 C 3452.226562 3328.632812 3434.921875 3331.132812 3417.578125 3333.046875 C 3400.195312 3335 3382.773438 3336.367188 3365.3125 3337.226562 C 3347.851562 3338.046875 3330.351562 3338.320312 3312.890625 3338.046875 C 3295.429688 3337.773438 3277.929688 3336.914062 3260.507812 3335.546875 C 3243.085938 3334.179688 3225.742188 3332.226562 3208.4375 3329.726562 C 3191.132812 3327.265625 3173.90625 3324.21875 3156.796875 3320.625 C 3139.6875 3317.070312 3122.695312 3312.929688 3105.859375 3308.28125 C 3089.023438 3303.632812 3072.304688 3298.4375 3055.78125 3292.695312 C 3039.296875 3286.992188 3022.96875 3280.742188 3006.835938 3273.984375 C 2990.703125 3267.265625 2974.804688 3260 2959.140625 3252.226562 C 2943.476562 3244.453125 2928.085938 3236.210938 2912.929688 3227.460938 C 2897.8125 3218.710938 2882.929688 3209.492188 2868.398438 3199.84375 C 2853.828125 3190.15625 2839.609375 3180 2825.703125 3169.414062 C 2811.796875 3158.828125 2798.203125 3147.8125 2785 3136.367188 C 2771.796875 3124.921875 2758.945312 3113.046875 2746.484375 3100.78125 C 2734.023438 3088.554688 2721.992188 3075.898438 2710.3125 3062.851562 C 2698.671875 3049.84375 2687.421875 3036.445312 2676.640625 3022.695312 C 2665.820312 3008.945312 2655.46875 2994.882812 2645.546875 2980.46875 C 2635.625 2966.09375 2626.171875 2951.367188 2617.1875 2936.367188 C 2608.242188 2921.40625 2599.726562 2906.09375 2591.71875 2890.585938 C 2583.710938 2875.039062 2576.210938 2859.257812 2569.179688 2843.242188 C 2562.1875 2827.226562 2555.664062 2811.015625 2549.6875 2794.570312 C 2543.710938 2778.164062 2538.28125 2761.523438 2533.359375 2744.765625 C 2528.4375 2728.007812 2524.023438 2711.09375 2520.195312 2694.023438 C 2516.328125 2676.992188 2513.007812 2659.804688 2510.273438 2642.539062 C 2507.5 2625.3125 2505.273438 2607.96875 2503.632812 2590.546875 C 2501.953125 2573.164062 2500.859375 2555.703125 2500.3125 2538.242188 C 2499.726562 2520.78125 2499.726562 2503.28125 2500.3125 2485.820312 C 2500.859375 2468.359375 2501.953125 2450.898438 2503.632812 2433.515625 C 2505.273438 2416.09375 2507.5 2398.75 2510.273438 2381.523438 C 2513.007812 2364.257812 2516.328125 2347.070312 2520.195312 2330.039062 C 2524.023438 2312.96875 2528.4375 2296.054688 2533.359375 2279.296875 C 2538.28125 2262.539062 2543.710938 2245.898438 2549.6875 2229.492188 C 2555.664062 2213.046875 2562.1875 2196.835938 2569.179688 2180.820312 C 2576.210938 2164.804688 2583.710938 2149.023438 2591.71875 2133.476562 C 2599.726562 2117.96875 2608.242188 2102.65625 2617.1875 2087.695312 C 2626.171875 2072.695312 2635.625 2057.96875 2645.546875 2043.59375 C 2655.46875 2029.179688 2665.820312 2015.117188 2676.640625 2001.367188 C 2687.421875 1987.617188 2698.671875 1974.21875 2710.3125 1961.210938 C 2721.992188 1948.164062 2734.023438 1935.507812 2746.484375 1923.28125 C 2758.945312 1911.015625 2771.796875 1899.140625 2785 1887.695312 C 2798.203125 1876.25 2811.796875 1865.234375 2825.703125 1854.648438 C 2839.609375 1844.0625 2853.828125 1833.90625 2868.398438 1824.21875 C 2882.929688 1814.570312 2897.8125 1805.351562 2912.929688 1796.601562 C 2928.085938 1787.851562 2943.476562 1779.609375 2959.140625 1771.835938 C 2974.804688 1764.0625 2990.703125 1756.796875 3006.835938 1750.078125 C 3022.96875 1743.320312 3039.296875 1737.070312 3055.78125 1731.367188 C 3072.304688 1725.625 3089.023438 1720.429688 3105.859375 1715.78125 C 3122.695312 1711.132812 3139.6875 1706.992188 3156.796875 1703.4375 C 3173.90625 1699.84375 3191.132812 1696.796875 3208.4375 1694.335938 C 3225.742188 1691.835938 3243.085938 1689.921875 3260.507812 1688.515625 C 3277.929688 1687.148438 3295.429688 1686.289062 3312.890625 1686.015625 C 3330.351562 1685.742188 3347.851562 1686.015625 3365.3125 1686.835938 C 3382.773438 1687.695312 3400.195312 1689.0625 3417.578125 1691.015625 C 3434.921875 1692.929688 3452.226562 1695.429688 3469.453125 1698.476562 C 3486.640625 1701.523438 3503.789062 1705.078125 3520.742188 1709.21875 C 3537.734375 1713.320312 3554.609375 1717.96875 3571.289062 1723.164062 C 3587.96875 1728.359375 3604.492188 1734.101562 3620.820312 1740.3125 C 3637.148438 1746.5625 3653.28125 1753.320312 3669.179688 1760.585938 C 3685.078125 1767.851562 3700.742188 1775.585938 3716.132812 1783.867188 C 3731.5625 1792.109375 3746.679688 1800.859375 3761.523438 1810.078125 C 3776.40625 1819.257812 3790.9375 1828.945312 3805.195312 1839.101562 C 3819.414062 1849.21875 3833.320312 1859.84375 3846.914062 1870.859375 C 3860.46875 1881.875 3873.671875 1893.320312 3886.523438 1905.195312 C 3899.375 1917.03125 3911.835938 1929.296875 3923.867188 1941.953125 C 3935.9375 1954.609375 3947.617188 1967.617188 3958.828125 1981.015625 C 3970.078125 1994.414062 3980.859375 2008.164062 3991.25 2022.226562 C 4001.601562 2036.289062 4011.523438 2050.703125 4020.976562 2065.390625 C 4030.429688 2080.117188 4039.375 2095.117188 4047.890625 2110.390625 C 4056.40625 2125.664062 4064.414062 2141.210938 4071.914062 2156.953125 C 4079.414062 2172.734375 4086.445312 2188.789062 4092.929688 2205 C 4099.414062 2221.210938 4105.390625 2237.65625 4110.859375 2254.257812 C 4116.328125 2270.859375 4121.25 2287.65625 4125.625 2304.570312 C 4130 2321.484375 4133.867188 2338.515625 4137.1875 2355.703125 C 4140.46875 2372.851562 4143.242188 2390.117188 4145.46875 2407.460938 C 4147.65625 2424.804688 4149.335938 2442.1875 4150.429688 2459.648438 C 4151.5625 2477.070312 4152.109375 2494.570312 4152.109375 2512.03125 " transform="matrix(0.1,0,0,-0.1,0,502)"/>
<g clip-path="url(#clip1)" clip-rule="nonzero">
<path style="fill:none;stroke-width:43.3286;stroke-linecap:round;stroke-linejoin:round;stroke:rgb(15.696716%,6.665039%,6.665039%);stroke-opacity:1;stroke-miterlimit:4;" d="M 21.5625 2512.03125 L 4978.203125 2512.03125 M 2499.882812 33.710938 L 2499.882812 4990.351562 M 4152.109375 2512.03125 C 4152.109375 2546.992188 4150.976562 2581.953125 4148.789062 2616.835938 C 4146.5625 2651.71875 4143.242188 2686.523438 4138.828125 2721.171875 C 4134.375 2755.859375 4128.867188 2790.390625 4122.265625 2824.726562 C 4115.625 2859.023438 4107.929688 2893.164062 4099.140625 2926.992188 C 4090.390625 2960.820312 4080.507812 2994.375 4069.609375 3027.578125 C 4058.710938 3060.78125 4046.757812 3093.632812 4033.75 3126.09375 C 4020.78125 3158.554688 4006.757812 3190.585938 3991.71875 3222.148438 C 3976.679688 3253.710938 3960.664062 3284.804688 3943.671875 3315.351562 C 3926.679688 3345.898438 3908.710938 3375.898438 3889.804688 3405.273438 C 3870.9375 3434.6875 3851.09375 3463.515625 3830.351562 3491.640625 C 3809.648438 3519.804688 3788.007812 3547.265625 3765.546875 3574.0625 C 3743.085938 3600.820312 3719.765625 3626.914062 3695.664062 3652.1875 C 3671.523438 3677.5 3646.601562 3702.03125 3620.9375 3725.742188 C 3595.273438 3749.453125 3568.828125 3772.34375 3541.679688 3794.414062 C 3514.570312 3816.445312 3486.757812 3837.617188 3458.28125 3857.890625 C 3429.804688 3878.164062 3400.664062 3897.539062 3370.976562 3915.976562 C 3341.289062 3934.414062 3310.976562 3951.875 3280.195312 3968.398438 C 3249.375 3984.882812 3218.046875 4000.429688 3186.25 4014.960938 C 3154.453125 4029.453125 3122.1875 4042.96875 3089.53125 4055.46875 C 3056.875 4067.929688 3023.828125 4079.375 2990.46875 4089.726562 C 2957.070312 4100.117188 2923.359375 4109.453125 2889.414062 4117.695312 C 2855.429688 4125.9375 2821.210938 4133.085938 2786.796875 4139.140625 C 2752.382812 4145.234375 2717.734375 4150.195312 2683.007812 4154.0625 C 2648.28125 4157.96875 2613.398438 4160.703125 2578.515625 4162.382812 C 2543.59375 4164.0625 2508.632812 4164.609375 2473.671875 4164.0625 C 2438.710938 4163.476562 2403.789062 4161.835938 2368.945312 4159.0625 C 2334.101562 4156.289062 2299.335938 4152.421875 2264.765625 4147.421875 C 2230.15625 4142.460938 2195.703125 4136.40625 2161.484375 4129.21875 C 2127.265625 4122.070312 2093.28125 4113.828125 2059.609375 4104.53125 C 2025.9375 4095.195312 1992.539062 4084.804688 1959.492188 4073.398438 C 1926.445312 4061.953125 1893.789062 4049.453125 1861.5625 4035.976562 C 1829.296875 4022.460938 1797.5 4007.929688 1766.171875 3992.421875 C 1734.882812 3976.875 1704.023438 3960.390625 1673.789062 3942.890625 C 1643.515625 3925.429688 1613.789062 3906.992188 1584.6875 3887.617188 C 1555.585938 3868.28125 1527.109375 3847.96875 1499.296875 3826.796875 C 1471.445312 3805.625 1444.335938 3783.59375 1417.890625 3760.703125 C 1391.484375 3737.8125 1365.820312 3714.0625 1340.898438 3689.570312 C 1315.976562 3665.039062 1291.835938 3639.726562 1268.554688 3613.671875 C 1245.234375 3587.617188 1222.773438 3560.859375 1201.132812 3533.359375 C 1179.53125 3505.898438 1158.789062 3477.734375 1138.984375 3448.945312 C 1119.179688 3420.15625 1100.273438 3390.742188 1082.304688 3360.742188 C 1064.335938 3330.742188 1047.34375 3300.195312 1031.328125 3269.140625 C 1015.3125 3238.046875 1000.273438 3206.484375 986.25 3174.453125 C 972.265625 3142.421875 959.257812 3109.960938 947.304688 3077.109375 C 935.351562 3044.296875 924.453125 3011.054688 914.570312 2977.5 C 904.726562 2943.984375 895.9375 2910.117188 888.242188 2876.015625 C 880.546875 2841.953125 873.945312 2807.617188 868.398438 2773.085938 C 862.890625 2738.554688 858.476562 2703.867188 855.15625 2669.101562 C 851.835938 2634.296875 849.609375 2599.375 848.476562 2564.453125 C 847.382812 2529.53125 847.382812 2494.53125 848.476562 2459.609375 C 849.609375 2424.6875 851.835938 2389.765625 855.15625 2354.960938 C 858.476562 2320.195312 862.890625 2285.507812 868.398438 2250.976562 C 873.945312 2216.445312 880.546875 2182.109375 888.242188 2148.046875 C 895.9375 2113.945312 904.726562 2080.078125 914.570312 2046.5625 C 924.414062 2013.007812 935.351562 1979.765625 947.304688 1946.953125 C 959.257812 1914.101562 972.265625 1881.640625 986.25 1849.609375 C 1000.273438 1817.578125 1015.3125 1786.015625 1031.328125 1754.921875 C 1047.34375 1723.867188 1064.335938 1693.320312 1082.304688 1663.320312 C 1100.273438 1633.320312 1119.179688 1603.90625 1138.984375 1575.117188 C 1158.789062 1546.328125 1179.53125 1518.164062 1201.132812 1490.703125 C 1222.734375 1463.203125 1245.234375 1436.445312 1268.554688 1410.390625 C 1291.835938 1384.335938 1315.976562 1359.023438 1340.898438 1334.492188 C 1365.78125 1310 1391.484375 1286.25 1417.890625 1263.359375 C 1444.335938 1240.46875 1471.484375 1218.4375 1499.296875 1197.265625 C 1527.109375 1176.09375 1555.585938 1155.820312 1584.6875 1136.445312 C 1613.789062 1117.070312 1643.515625 1098.632812 1673.789062 1081.171875 C 1704.023438 1063.671875 1734.882812 1047.1875 1766.171875 1031.640625 C 1797.5 1016.132812 1829.296875 1001.601562 1861.5625 988.085938 C 1893.789062 974.609375 1926.445312 962.109375 1959.492188 950.664062 C 1992.539062 939.257812 2025.9375 928.867188 2059.609375 919.53125 C 2093.28125 910.234375 2127.265625 902.03125 2161.484375 894.84375 C 2195.703125 887.65625 2230.15625 881.601562 2264.765625 876.640625 C 2299.335938 871.640625 2334.101562 867.773438 2368.945312 865 C 2403.789062 862.226562 2438.710938 860.585938 2473.671875 860 C 2508.632812 859.453125 2543.59375 860 2578.515625 861.679688 C 2613.398438 863.359375 2648.28125 866.132812 2683.007812 870 C 2717.734375 873.867188 2752.382812 878.828125 2786.796875 884.921875 C 2821.210938 890.976562 2855.429688 898.125 2889.414062 906.367188 C 2923.359375 914.609375 2957.070312 923.945312 2990.46875 934.335938 C 3023.828125 944.6875 3056.875 956.132812 3089.53125 968.59375 C 3122.1875 981.09375 3154.453125 994.609375 3186.25 1009.101562 C 3218.046875 1023.632812 3249.375 1039.179688 3280.195312 1055.664062 C 3310.976562 1072.1875 3341.289062 1089.648438 3370.976562 1108.085938 C 3400.664062 1126.523438 3429.804688 1145.898438 3458.28125 1166.171875 C 3486.757812 1186.445312 3514.570312 1207.617188 3541.679688 1229.648438 C 3568.828125 1251.71875 3595.273438 1274.609375 3620.9375 1298.320312 C 3646.601562 1322.03125 3671.523438 1346.5625 3695.664062 1371.875 C 3719.765625 1397.148438 3743.085938 1423.242188 3765.546875 1450 C 3788.046875 1476.796875 3809.648438 1504.257812 3830.351562 1532.421875 C 3851.09375 1560.546875 3870.9375 1589.375 3889.804688 1618.789062 C 3908.710938 1648.164062 3926.679688 1678.164062 3943.671875 1708.710938 C 3960.664062 1739.257812 3976.679688 1770.351562 3991.71875 1801.914062 C 4006.757812 1833.476562 4020.78125 1865.507812 4033.75 1897.96875 C 4046.757812 1930.429688 4058.710938 1963.28125 4069.609375 1996.484375 C 4080.507812 2029.6875 4090.351562 2063.242188 4099.140625 2097.070312 C 4107.929688 2130.898438 4115.625 2165.039062 4122.265625 2199.335938 C 4128.867188 2233.671875 4134.375 2268.203125 4138.828125 2302.890625 C 4143.242188 2337.539062 4146.5625 2372.34375 4148.789062 2407.226562 C 4151.015625 2442.109375 4152.109375 2477.070312 4152.109375 2512.03125 " transform="matrix(0.1,0,0,-0.1,0,502)"/>
</g>
<path style=" stroke:none;fill-rule:nonzero;fill:rgb(0%,0%,0%);fill-opacity:1;" d="M 389.175781 66.957031 L 389.175781 66.90625 L 389.164062 66.882812 L 389.164062 66.839844 L 389.152344 66.820312 L 389.152344 66.800781 L 389.144531 66.777344 L 389.132812 66.757812 L 389.121094 66.734375 L 389.121094 66.714844 L 389.101562 66.691406 L 389.089844 66.671875 L 389.078125 66.648438 L 389.070312 66.628906 L 389.046875 66.609375 L 389.027344 66.585938 L 389.003906 66.566406 L 388.984375 66.542969 L 388.960938 66.53125 L 388.941406 66.511719 L 388.910156 66.5 L 388.886719 66.480469 L 388.855469 66.46875 L 388.847656 66.457031 L 388.824219 66.457031 L 388.8125 66.449219 L 388.792969 66.449219 L 388.769531 66.4375 L 388.738281 66.4375 L 388.71875 66.425781 L 388.589844 66.425781 C 388.441406 66.425781 388.378906 66.46875 387.792969 67.054688 L 384.09375 71.136719 C 383.625 70.390625 381.179688 66.425781 375.304688 66.425781 C 363.492188 66.425781 351.566406 78.128906 351.566406 90.40625 C 351.566406 99.15625 357.828125 104.917969 365.9375 104.917969 C 370.539062 104.917969 374.558594 102.8125 377.367188 100.367188 C 382.296875 96.019531 383.191406 91.207031 383.191406 91.054688 C 383.191406 90.523438 382.660156 90.523438 382.5625 90.523438 C 382.246094 90.523438 381.980469 90.621094 381.863281 91.054688 C 381.40625 92.585938 380.171875 96.351562 376.515625 99.421875 C 372.867188 102.378906 369.519531 103.28125 366.789062 103.28125 C 362.015625 103.28125 356.402344 100.515625 356.402344 92.269531 C 356.402344 89.238281 357.519531 80.671875 362.800781 74.472656 C 366.035156 70.710938 371.019531 68.0625 375.71875 68.0625 C 381.140625 68.0625 384.253906 72.136719 384.253906 78.277344 C 384.253906 80.40625 384.09375 80.457031 384.09375 80.988281 C 384.09375 81.519531 384.667969 81.519531 384.890625 81.519531 C 385.570312 81.519531 385.570312 81.40625 385.835938 80.457031 Z M 389.175781 66.957031 "/>
<path style=" stroke:none;fill-rule:nonzero;fill:rgb(0%,0%,0%);fill-opacity:1;" d="M 399.21875 88.113281 L 399.21875 87.738281 L 399.210938 87.707031 L 399.210938 87.613281 L 399.199219 87.582031 L 399.199219 87.527344 L 399.1875 87.496094 L 399.1875 87.472656 L 399.179688 87.441406 L 399.179688 87.421875 L 399.167969 87.378906 L 399.144531 87.335938 L 399.105469 87.273438 L 399.082031 87.238281 L 399.0625 87.207031 L 399.027344 87.1875 L 398.996094 87.164062 L 398.964844 87.144531 L 398.921875 87.132812 L 398.878906 87.125 L 398.828125 87.101562 L 398.785156 87.101562 L 398.753906 87.089844 L 398.722656 87.089844 L 398.699219 87.082031 L 398.570312 87.082031 L 398.53125 87.070312 L 398.113281 87.070312 C 395.734375 89.410156 392.375 89.441406 390.855469 89.441406 L 390.855469 90.769531 C 391.746094 90.769531 394.191406 90.769531 396.210938 89.738281 L 396.210938 108.628906 C 396.210938 109.859375 396.210938 110.339844 392.511719 110.339844 L 391.121094 110.339844 L 391.121094 111.667969 C 391.78125 111.636719 396.328125 111.519531 397.710938 111.519531 C 398.859375 111.519531 403.527344 111.636719 404.332031 111.667969 L 404.332031 110.339844 L 402.929688 110.339844 C 399.21875 110.339844 399.21875 109.859375 399.21875 108.628906 Z M 399.21875 88.113281 "/>
<path style=" stroke:none;fill-rule:nonzero;fill:rgb(0%,0%,0%);fill-opacity:1;" d="M 349.140625 269.996094 L 349.140625 269.941406 L 349.128906 269.921875 L 349.128906 269.878906 L 349.117188 269.855469 L 349.117188 269.835938 L 349.109375 269.816406 L 349.097656 269.792969 L 349.085938 269.773438 L 349.085938 269.75 L 349.066406 269.730469 L 349.054688 269.707031 L 349.042969 269.6875 L 349.035156 269.667969 L 348.949219 269.582031 L 348.925781 269.570312 L 348.90625 269.550781 L 348.875 269.539062 L 348.851562 269.515625 L 348.820312 269.507812 L 348.808594 269.496094 L 348.789062 269.496094 L 348.777344 269.484375 L 348.757812 269.484375 L 348.734375 269.476562 L 348.703125 269.476562 L 348.683594 269.464844 L 348.554688 269.464844 C 348.40625 269.464844 348.34375 269.507812 347.757812 270.089844 L 344.058594 274.171875 C 343.589844 273.429688 341.144531 269.464844 335.269531 269.464844 C 323.457031 269.464844 311.53125 281.167969 311.53125 293.445312 C 311.53125 302.195312 317.792969 307.953125 325.902344 307.953125 C 330.503906 307.953125 334.523438 305.851562 337.328125 303.40625 C 342.261719 299.058594 343.15625 294.242188 343.15625 294.09375 C 343.15625 293.5625 342.625 293.5625 342.527344 293.5625 C 342.210938 293.5625 341.941406 293.65625 341.828125 294.09375 C 341.371094 295.625 340.136719 299.386719 336.480469 302.460938 C 332.832031 305.414062 329.484375 306.316406 326.753906 306.316406 C 321.980469 306.316406 316.367188 303.554688 316.367188 295.304688 C 316.367188 292.277344 317.484375 283.707031 322.765625 277.511719 C 326 273.746094 330.984375 271.101562 335.683594 271.101562 C 341.101562 271.101562 344.21875 275.171875 344.21875 281.316406 C 344.21875 283.441406 344.058594 283.496094 344.058594 284.027344 C 344.058594 284.558594 344.632812 284.558594 344.855469 284.558594 C 345.535156 284.558594 345.535156 284.441406 345.800781 283.496094 Z M 349.140625 269.996094 "/>
<path style=" stroke:none;fill-rule:nonzero;fill:rgb(0%,0%,0%);fill-opacity:1;" d="M 365.476562 307.953125 L 364.222656 307.953125 C 364.117188 308.773438 363.734375 310.964844 363.257812 311.335938 C 362.96875 311.546875 360.121094 311.546875 359.597656 311.546875 L 352.773438 311.546875 C 356.664062 308.113281 357.960938 307.082031 360.183594 305.339844 C 362.925781 303.140625 365.476562 300.855469 365.476562 297.324219 C 365.476562 292.851562 361.566406 290.105469 356.816406 290.105469 C 352.234375 290.105469 349.109375 293.328125 349.109375 296.730469 C 349.109375 298.621094 350.703125 298.8125 351.085938 298.8125 C 351.96875 298.8125 353.039062 298.175781 353.039062 296.847656 C 353.039062 296.1875 352.773438 294.890625 350.851562 294.890625 C 352 292.265625 354.519531 291.445312 356.261719 291.445312 C 359.972656 291.445312 361.894531 294.328125 361.894531 297.324219 C 361.894531 300.554688 359.597656 303.109375 358.410156 304.4375 L 349.492188 313.257812 C 349.109375 313.589844 349.109375 313.675781 349.109375 314.703125 L 364.371094 314.703125 Z M 365.476562 307.953125 "/>
<path style="fill-rule:nonzero;fill:rgb(80.076599%,80.076599%,80.076599%);fill-opacity:1;stroke-width:10;stroke-linecap:round;stroke-linejoin:round;stroke:rgb(15.696716%,6.665039%,6.665039%);stroke-opacity:1;stroke-miterlimit:4;" d="M 2529.21875 3502.5 L 2529.21875 4135.976562 L 2665.039062 4118.867188 C 2872.65625 4092.734375 3203.28125 3975.195312 3367.890625 3868.984375 C 3575.15625 3735.273438 3822.304688 3464.804688 3927.304688 3256.796875 C 3976.25 3159.921875 4016.25 3072.734375 4016.25 3063.085938 C 4016.25 3053.4375 3957.617188 3097.148438 3885.976562 3160.195312 C 3726.171875 3300.898438 3546.09375 3365.351562 3317.695312 3363.710938 C 3018.4375 3361.523438 2770 3232.5 2615.234375 2998.867188 L 2529.21875 2869.023438 Z M 2529.21875 3502.5 " transform="matrix(0.1,0,0,-0.1,0,502)"/>
</g>
</svg>
