<?xml version="1.0" encoding="UTF-8"?>
<svg xmlns="http://www.w3.org/2000/svg" xmlns:xlink="http://www.w3.org/1999/xlink" width="434pt" height="404pt" viewBox="0 0 434 404" version="1.1">
<g id="surface1">
<path style="fill:none;stroke-width:32.52;stroke-linecap:round;stroke-linejoin:round;stroke:rgb(16.088867%,7.835388%,7.835388%);stroke-opacity:1;stroke-miterlimit:4;" d="M 16.992188 1339.375 L 3984.492188 1339.375 M 2000.742188 16.914062 L 2000.742188 3984.375 M 16.992188 3323.125 C 30.351562 3283.046875 43.710938 3322.304688 57.070312 3283.046875 C 70.429688 3243.789062 83.789062 3281.445312 97.148438 3242.96875 C 110.507812 3204.53125 123.867188 3240.546875 137.226562 3202.890625 C 150.585938 3165.273438 163.945312 3199.648438 177.304688 3162.8125 C 190.664062 3125.976562 204.023438 3158.789062 217.382812 3122.734375 C 230.742188 3086.71875 244.101562 3117.890625 257.460938 3082.695312 C 270.820312 3047.460938 284.179688 3076.992188 297.539062 3042.617188 C 310.898438 3008.203125 324.257812 3036.132812 337.617188 3002.539062 C 350.976562 2968.945312 364.335938 2995.234375 377.65625 2962.460938 C 391.015625 2929.648438 404.375 2954.335938 417.734375 2922.382812 C 431.09375 2890.390625 444.453125 2913.476562 457.8125 2882.304688 C 471.171875 2851.132812 484.53125 2872.578125 497.890625 2842.226562 C 511.25 2811.875 524.609375 2831.679688 537.96875 2802.148438 C 551.328125 2772.578125 564.6875 2790.820312 578.046875 2762.070312 C 591.40625 2733.320312 604.765625 2749.921875 618.125 2721.992188 C 631.484375 2694.0625 644.84375 2709.0625 658.203125 2681.914062 C 671.5625 2654.804688 684.921875 2668.164062 698.28125 2641.835938 C 711.640625 2615.546875 725 2627.265625 738.359375 2601.757812 C 751.71875 2576.25 765.078125 2586.40625 778.4375 2561.679688 C 791.796875 2536.992188 805.15625 2545.507812 818.515625 2521.601562 C 831.875 2497.734375 845.234375 2504.609375 858.59375 2481.5625 C 871.953125 2458.476562 885.3125 2463.75 898.671875 2441.484375 C 912.03125 2419.21875 925.390625 2422.851562 938.75 2401.40625 C 952.109375 2379.921875 965.46875 2381.953125 978.828125 2361.328125 C 992.148438 2340.664062 1005.507812 2341.09375 1018.867188 2321.25 C 1032.226562 2301.40625 1045.585938 2300.195312 1058.945312 2281.171875 C 1072.304688 2262.148438 1085.664062 2259.296875 1099.023438 2241.09375 C 1112.382812 2222.890625 1125.742188 2218.4375 1139.101562 2201.015625 C 1152.460938 2183.59375 1165.820312 2177.539062 1179.179688 2160.9375 C 1192.539062 2144.335938 1205.898438 2136.640625 1219.257812 2120.859375 C 1232.617188 2105.078125 1245.976562 2095.78125 1259.335938 2080.78125 C 1272.695312 2065.820312 1286.054688 2054.882812 1299.414062 2040.703125 C 1312.773438 2026.5625 1326.132812 2013.984375 1339.492188 2000.625 C 1352.851562 1987.265625 1366.210938 1973.125 1379.570312 1960.546875 C 1392.929688 1948.007812 1406.289062 1932.226562 1419.648438 1920.46875 C 1433.007812 1908.75 1446.367188 1891.328125 1459.726562 1880.429688 C 1473.085938 1869.492188 1486.445312 1850.46875 1499.804688 1840.351562 C 1513.164062 1830.195312 1526.523438 1809.570312 1539.882812 1800.273438 C 1553.242188 1790.9375 1566.601562 1768.671875 1579.960938 1760.195312 C 1593.28125 1751.679688 1606.640625 1727.8125 1620 1720.117188 C 1633.359375 1712.421875 1646.71875 1686.914062 1660.078125 1680.039062 C 1673.4375 1673.164062 1686.796875 1646.015625 1700.15625 1639.960938 C 1713.515625 1633.867188 1726.875 1605.15625 1740.234375 1599.882812 C 1753.59375 1594.609375 1766.953125 1564.257812 1780.3125 1559.804688 C 1793.671875 1555.351562 1807.03125 1523.359375 1820.390625 1519.726562 C 1833.75 1516.09375 1847.109375 1482.5 1860.46875 1479.648438 C 1873.828125 1476.835938 1887.1875 1441.601562 1900.546875 1439.570312 C 1913.90625 1437.539062 1927.265625 1400.703125 1940.625 1399.492188 C 1953.984375 1398.28125 1967.34375 1359.84375 1980.703125 1359.414062 C 1994.0625 1359.023438 2007.421875 1318.945312 2020.78125 1319.335938 C 2034.140625 1319.765625 2047.5 1278.046875 2060.859375 1279.257812 C 2074.21875 1280.507812 2087.578125 1237.1875 2100.9375 1239.21875 C 2114.296875 1241.210938 2127.65625 1196.289062 2141.015625 1199.140625 C 2154.375 1201.953125 2167.734375 1155.390625 2181.09375 1159.0625 C 2194.453125 1162.695312 2207.773438 1114.53125 2221.132812 1118.984375 C 2234.492188 1123.4375 2247.851562 1073.632812 2261.210938 1078.90625 C 2274.570312 1084.179688 2287.929688 1032.734375 2301.289062 1038.828125 C 2314.648438 1044.882812 2328.007812 991.875 2341.367188 998.75 C 2354.726562 1005.625 2368.085938 950.976562 2381.445312 958.671875 C 2394.804688 966.367188 2408.164062 910.078125 2421.523438 918.59375 C 2434.882812 927.109375 2448.242188 869.21875 2461.601562 878.515625 C 2474.960938 887.851562 2488.320312 828.320312 2501.679688 838.4375 C 2515.039062 848.554688 2528.398438 787.421875 2541.757812 798.359375 C 2555.117188 809.296875 2568.476562 746.5625 2581.835938 758.28125 C 2595.195312 770.039062 2608.554688 705.664062 2621.914062 718.203125 C 2635.273438 730.78125 2648.632812 664.804688 2661.992188 678.125 C 2675.351562 691.484375 2688.710938 704.0625 2702.070312 718.203125 C 2715.429688 732.382812 2728.789062 743.320312 2742.148438 758.28125 C 2755.507812 773.28125 2768.867188 782.578125 2782.226562 798.359375 C 2795.585938 814.140625 2808.90625 821.835938 2822.265625 838.4375 C 2835.625 855.039062 2848.984375 861.132812 2862.34375 878.515625 C 2875.703125 895.9375 2889.0625 900.390625 2902.421875 918.59375 C 2915.78125 936.796875 2929.140625 939.648438 2942.5 958.671875 C 2955.859375 977.695312 2969.21875 978.90625 2982.578125 998.75 C 2995.9375 1018.59375 3009.296875 1018.164062 3022.65625 1038.828125 C 3036.015625 1059.453125 3049.375 1057.460938 3062.734375 1078.90625 C 3076.09375 1100.351562 3089.453125 1096.71875 3102.8125 1118.984375 C 3116.171875 1141.25 3129.53125 1135.976562 3142.890625 1159.0625 C 3156.25 1182.109375 3169.609375 1175.234375 3182.96875 1199.140625 C 3196.328125 1223.007812 3209.6875 1214.492188 3223.046875 1239.21875 C 3236.40625 1263.90625 3249.765625 1253.789062 3263.125 1279.257812 C 3276.484375 1304.765625 3289.84375 1293.046875 3303.203125 1319.335938 C 3316.5625 1345.664062 3329.921875 1332.304688 3343.28125 1359.414062 C 3356.640625 1386.5625 3370 1371.5625 3383.359375 1399.492188 C 3396.71875 1427.421875 3410.078125 1410.820312 3423.398438 1439.570312 C 3436.757812 1468.320312 3450.117188 1450.117188 3463.476562 1479.648438 C 3476.835938 1509.21875 3490.195312 1489.375 3503.554688 1519.726562 C 3516.914062 1550.078125 3530.273438 1528.632812 3543.632812 1559.804688 C 3556.992188 1590.976562 3570.351562 1567.890625 3583.710938 1599.882812 C 3597.070312 1631.875 3610.429688 1607.1875 3623.789062 1639.960938 C 3637.148438 1672.734375 3650.507812 1646.445312 3663.867188 1680.039062 C 3677.226562 1713.632812 3690.585938 1685.703125 3703.945312 1720.117188 C 3717.304688 1754.53125 3730.664062 1724.960938 3744.023438 1760.195312 C 3757.382812 1795.390625 3770.742188 1764.21875 3784.101562 1800.273438 C 3797.460938 1836.289062 3810.820312 1803.515625 3824.179688 1840.351562 C 3837.539062 1877.1875 3850.898438 1842.773438 3864.257812 1880.429688 C 3877.617188 1918.046875 3890.976562 1882.03125 3904.335938 1920.46875 C 3917.695312 1958.945312 3931.054688 1921.289062 3944.414062 1960.546875 C 3957.773438 1999.84375 3971.132812 1960.546875 3984.492188 2000.625 " transform="matrix(0.1,0,0,-0.1,0,404)"/>
<path style=" stroke:none;fill-rule:nonzero;fill:rgb(0%,0%,0%);fill-opacity:1;" d="M 238.667969 3.503906 L 238.675781 3.472656 L 238.683594 3.445312 L 238.691406 3.394531 L 238.710938 3.351562 L 238.71875 3.300781 L 238.726562 3.257812 L 238.742188 3.222656 L 238.753906 3.183594 L 238.769531 3.113281 L 238.769531 3.078125 L 238.777344 3.046875 L 238.785156 3.011719 L 238.796875 2.988281 L 238.796875 2.960938 L 238.804688 2.933594 L 238.804688 2.910156 L 238.8125 2.882812 L 238.8125 2.859375 L 238.820312 2.816406 L 238.820312 2.679688 L 238.828125 2.636719 L 238.828125 2.535156 C 238.828125 1.761719 238.242188 1.386719 237.605469 1.386719 C 237.179688 1.386719 236.5 1.644531 236.117188 2.28125 C 236.03125 2.492188 235.691406 3.792969 235.53125 4.566406 C 235.222656 5.664062 234.933594 6.8125 234.679688 7.953125 L 232.765625 15.582031 C 232.605469 16.21875 230.785156 19.179688 227.988281 19.179688 C 225.828125 19.179688 225.351562 17.324219 225.351562 15.75 C 225.351562 13.804688 226.082031 11.167969 227.519531 7.449219 C 228.199219 5.707031 228.371094 5.238281 228.371094 4.390625 C 228.371094 2.492188 227.015625 0.929688 224.890625 0.929688 C 220.859375 0.929688 219.296875 7.058594 219.296875 7.449219 C 219.296875 7.875 219.722656 7.875 219.8125 7.875 C 220.238281 7.875 220.273438 7.78125 220.484375 7.101562 C 221.632812 3.113281 223.316406 1.855469 224.761719 1.855469 C 225.105469 1.855469 225.828125 1.855469 225.828125 3.207031 C 225.828125 4.269531 225.402344 5.359375 225.105469 6.175781 C 223.410156 10.664062 222.636719 13.082031 222.636719 15.078125 C 222.636719 18.835938 225.316406 20.113281 227.808594 20.113281 C 229.476562 20.113281 230.902344 19.390625 232.085938 18.207031 C 231.542969 20.402344 231.039062 22.484375 229.339844 24.738281 C 228.234375 26.167969 226.625 27.410156 224.679688 27.410156 C 224.089844 27.410156 222.179688 27.273438 221.457031 25.625 C 222.136719 25.625 222.695312 25.625 223.273438 25.105469 C 223.699219 24.738281 224.125 24.179688 224.125 23.378906 C 224.125 22.0625 222.984375 21.890625 222.5625 21.890625 C 221.589844 21.890625 220.179688 22.570312 220.179688 24.644531 C 220.179688 26.773438 222.058594 28.335938 224.679688 28.335938 C 229.050781 28.335938 233.402344 24.46875 234.601562 19.6875 Z M 238.667969 3.503906 "/>
<path style=" stroke:none;fill-rule:nonzero;fill:rgb(0%,0%,0%);fill-opacity:1;" d="M 425.574219 266.664062 L 425.601562 266.554688 L 425.632812 266.425781 L 425.667969 266.289062 L 425.703125 266.136719 L 425.753906 265.976562 L 425.804688 265.796875 L 425.855469 265.609375 L 425.914062 265.421875 L 425.980469 265.226562 L 426.058594 265.023438 L 426.144531 264.8125 L 426.230469 264.605469 L 426.324219 264.394531 L 426.425781 264.183594 L 426.535156 263.96875 L 426.652344 263.757812 L 426.78125 263.550781 L 426.910156 263.347656 L 427.054688 263.152344 L 427.359375 262.777344 L 427.53125 262.609375 L 427.707031 262.445312 L 427.894531 262.292969 L 428.089844 262.15625 L 428.304688 262.039062 L 428.40625 261.980469 L 428.515625 261.929688 L 428.636719 261.886719 L 428.746094 261.84375 L 428.863281 261.800781 L 428.984375 261.765625 L 429.113281 261.742188 L 429.238281 261.714844 L 429.367188 261.699219 L 429.503906 261.679688 L 429.640625 261.671875 L 429.773438 261.671875 C 429.988281 261.671875 431 261.671875 431.882812 262.21875 C 430.703125 262.429688 429.851562 263.492188 429.851562 264.503906 C 429.851562 265.175781 430.320312 265.992188 431.457031 265.992188 C 432.394531 265.992188 433.746094 265.234375 433.746094 263.535156 C 433.746094 261.324219 431.246094 260.746094 429.808594 260.746094 C 427.351562 260.746094 425.863281 262.992188 425.363281 263.960938 C 424.296875 261.171875 422.011719 260.746094 420.796875 260.746094 C 416.382812 260.746094 413.957031 266.207031 413.957031 267.269531 C 413.957031 267.695312 414.382812 267.695312 414.476562 267.695312 C 414.808594 267.695312 414.945312 267.601562 415.019531 267.226562 C 416.457031 262.734375 419.265625 261.671875 420.703125 261.671875 C 421.507812 261.671875 422.980469 262.046875 422.980469 264.503906 C 422.980469 265.816406 422.265625 268.664062 420.703125 274.589844 C 420.019531 277.21875 418.542969 278.996094 416.671875 278.996094 C 416.414062 278.996094 415.445312 278.996094 414.5625 278.441406 C 415.625 278.238281 416.550781 277.355469 416.550781 276.15625 C 416.550781 275.015625 415.625 274.683594 414.988281 274.683594 C 413.710938 274.683594 412.648438 275.78125 412.648438 277.140625 C 412.648438 279.082031 414.773438 279.929688 416.628906 279.929688 C 419.433594 279.929688 420.949219 276.964844 421.085938 276.714844 C 421.585938 278.28125 423.117188 279.929688 425.652344 279.929688 C 430.023438 279.929688 432.445312 274.472656 432.445312 273.410156 C 432.445312 272.984375 432.0625 272.984375 431.925781 272.984375 C 431.550781 272.984375 431.457031 273.152344 431.382812 273.441406 C 429.988281 277.976562 427.105469 278.996094 425.746094 278.996094 C 424.085938 278.996094 423.40625 277.644531 423.40625 276.199219 C 423.40625 275.261719 423.660156 274.335938 424.136719 272.472656 Z M 425.574219 266.664062 "/>
<path style=" stroke:none;fill-rule:nonzero;fill:rgb(0%,0%,0%);fill-opacity:1;" d="M 22.273438 32.066406 L 24.109375 34.007812 C 24.535156 34.460938 24.75 34.6875 25.203125 34.261719 C 25.453125 34.023438 25.238281 33.796875 24.878906 33.414062 L 23.105469 31.539062 L 26.132812 29.570312 C 26.695312 29.21875 28.597656 28.023438 28.996094 27.902344 C 29.621094 27.699219 30.320312 27.757812 30.769531 28.234375 C 30.851562 28.320312 31.410156 28.910156 31.40625 29.730469 C 30.382812 28.816406 29.375 29.339844 29.035156 29.660156 C 28.519531 30.148438 28.628906 30.808594 29.039062 31.246094 C 29.59375 31.832031 30.707031 32.011719 31.566406 31.203125 C 32.605469 30.222656 32.136719 28.6875 31.265625 27.765625 C 30.539062 26.996094 28.785156 25.953125 25.910156 27.390625 C 25.308594 27.710938 25.015625 27.851562 21.65625 30.003906 L 20.183594 28.449219 C 19.773438 28.011719 19.542969 27.765625 19.113281 28.167969 C 18.839844 28.429688 19.03125 28.636719 19.433594 29.0625 L 20.84375 30.554688 L 10.3125 37.289062 C 7.738281 38.953125 5.3125 40.523438 4.199219 39.34375 C 4.113281 39.253906 3.585938 38.695312 3.585938 37.871094 C 4.636719 38.851562 5.640625 38.28125 5.980469 37.960938 C 6.5 37.472656 6.394531 36.804688 5.984375 36.371094 C 5.429688 35.785156 4.3125 35.601562 3.453125 36.417969 C 2.433594 37.378906 2.828125 38.886719 3.703125 39.8125 C 4.878906 41.054688 7.070312 40.703125 8.3125 40.292969 C 10.421875 39.667969 13.648438 37.609375 13.835938 37.480469 Z M 22.273438 32.066406 "/>
<path style=" stroke:none;fill-rule:nonzero;fill:rgb(0%,0%,0%);fill-opacity:1;" d="M 19.804688 58.421875 L 19.8125 58.414062 L 19.824219 58.394531 L 19.839844 58.378906 L 19.84375 58.367188 L 19.851562 58.363281 L 19.855469 58.347656 L 19.859375 58.335938 L 19.863281 58.320312 L 19.867188 58.308594 L 19.878906 58.292969 L 19.878906 58.273438 L 19.882812 58.253906 L 19.890625 58.230469 L 19.894531 58.207031 L 19.894531 58.183594 L 19.898438 58.152344 L 19.902344 58.132812 L 19.90625 58.121094 L 19.90625 58.066406 L 19.914062 58.027344 L 19.914062 58.011719 L 19.917969 57.988281 L 19.914062 57.964844 L 19.917969 57.945312 L 19.917969 57.917969 L 19.925781 57.894531 L 19.925781 57.816406 L 19.929688 57.789062 L 19.929688 57.703125 L 19.9375 57.671875 L 19.933594 57.640625 L 19.933594 57.570312 C 20.117188 52.054688 23.703125 47.296875 27.164062 44.03125 C 31.097656 40.3125 35.84375 37.449219 41.289062 37.5625 C 41.84375 37.597656 41.886719 37.554688 41.957031 37.488281 C 42.113281 37.339844 42.097656 37.191406 41.96875 37.058594 C 41.753906 36.832031 38.300781 36.246094 34.171875 37.621094 C 30.585938 38.820312 27.824219 40.921875 25.921875 42.71875 C 24.15625 44.386719 21.667969 47.214844 20.277344 50.871094 C 18.773438 54.851562 19.152344 58.1875 19.367188 58.414062 C 19.496094 58.550781 19.640625 58.578125 19.804688 58.421875 Z M 19.804688 58.421875 "/>
<path style=" stroke:none;fill-rule:nonzero;fill:rgb(0%,0%,0%);fill-opacity:1;" d="M 40.402344 55.679688 L 40.476562 55.636719 L 40.554688 55.585938 L 40.648438 55.542969 L 40.75 55.480469 L 40.855469 55.421875 L 40.976562 55.359375 L 41.109375 55.296875 L 41.238281 55.234375 L 41.375 55.171875 L 41.523438 55.109375 L 41.675781 55.042969 L 41.832031 54.992188 L 41.992188 54.933594 L 42.15625 54.882812 L 42.328125 54.832031 L 42.5 54.789062 L 42.667969 54.75 L 42.847656 54.71875 L 43.023438 54.699219 L 43.195312 54.679688 L 43.378906 54.671875 L 43.554688 54.679688 L 43.730469 54.691406 L 43.90625 54.714844 L 44.078125 54.75 L 44.25 54.804688 L 44.332031 54.828125 L 44.414062 54.863281 L 44.496094 54.902344 L 44.574219 54.941406 L 44.65625 54.984375 L 44.734375 55.03125 L 44.890625 55.140625 L 45.039062 55.257812 L 45.113281 55.328125 L 45.183594 55.40625 C 45.292969 55.519531 45.796875 56.054688 45.957031 56.804688 C 45.25 56.28125 44.253906 56.363281 43.710938 56.875 C 43.355469 57.210938 43.15625 57.875 43.730469 58.480469 C 44.195312 58.976562 45.285156 59.320312 46.195312 58.460938 C 47.375 57.347656 46.421875 55.722656 45.695312 54.957031 C 44.457031 53.644531 42.507812 53.980469 41.738281 54.203125 C 42.691406 52.230469 41.765625 50.792969 41.148438 50.140625 C 38.925781 47.789062 34.792969 49.25 34.222656 49.785156 C 33.996094 50 34.210938 50.226562 34.257812 50.277344 C 34.425781 50.453125 34.542969 50.480469 34.78125 50.332031 C 37.902344 48.835938 39.886719 49.796875 40.605469 50.558594 C 41.015625 50.992188 41.558594 51.96875 40.25 53.207031 C 39.550781 53.867188 37.667969 54.921875 33.714844 57.070312 C 31.972656 58.039062 30.277344 58.144531 29.335938 57.144531 C 29.207031 57.011719 28.71875 56.492188 28.566406 55.742188 C 29.210938 56.207031 30.152344 56.253906 30.789062 55.652344 C 31.398438 55.074219 31.109375 54.414062 30.785156 54.074219 C 30.144531 53.394531 29.023438 53.378906 28.296875 54.066406 C 27.261719 55.042969 27.878906 56.605469 28.8125 57.59375 C 30.230469 59.09375 32.574219 58.402344 32.777344 58.351562 C 32.195312 59.410156 32.085938 61.058594 33.363281 62.410156 C 35.566406 64.742188 39.703125 63.28125 40.269531 62.746094 C 40.496094 62.53125 40.300781 62.324219 40.234375 62.253906 C 40.046875 62.054688 39.910156 62.089844 39.714844 62.195312 C 36.59375 63.738281 34.589844 62.710938 33.910156 61.988281 C 33.074219 61.101562 33.453125 60.058594 34.222656 59.328125 C 34.722656 58.859375 35.347656 58.527344 36.578125 57.839844 Z M 40.402344 55.679688 "/>
<path style=" stroke:none;fill-rule:nonzero;fill:rgb(0%,0%,0%);fill-opacity:1;" d="M 50.453125 68.679688 L 50.617188 68.515625 L 50.792969 68.347656 L 50.964844 68.175781 L 51.148438 67.996094 L 51.511719 67.617188 L 51.886719 67.214844 L 52.269531 66.78125 L 52.652344 66.324219 L 53.03125 65.84375 L 53.421875 65.339844 L 53.800781 64.8125 L 54.167969 64.265625 L 54.535156 63.699219 L 54.882812 63.101562 L 55.214844 62.484375 L 55.535156 61.847656 L 55.683594 61.527344 L 55.828125 61.195312 L 56.101562 60.523438 C 57.597656 56.542969 57.234375 53.210938 57.019531 52.984375 C 56.890625 52.847656 56.71875 52.839844 56.582031 52.96875 C 56.511719 53.03125 56.46875 53.074219 56.460938 53.886719 C 56.328125 58.214844 53.945312 62.902344 49.21875 67.371094 C 45.355469 71.019531 40.589844 73.945312 35.085938 73.828125 C 34.542969 73.792969 34.492188 73.839844 34.429688 73.898438 C 34.292969 74.027344 34.289062 74.203125 34.417969 74.339844 C 34.632812 74.566406 38.085938 75.140625 42.21875 73.769531 C 45.785156 72.574219 48.550781 70.476562 50.453125 68.679688 Z M 50.453125 68.679688 "/>
<path style=" stroke:none;fill-rule:nonzero;fill:rgb(0%,0%,0%);fill-opacity:1;" d="M 75.007812 91.164062 L 75.066406 91.226562 L 75.191406 91.359375 L 75.230469 91.390625 L 75.257812 91.421875 L 75.433594 91.558594 L 75.472656 91.582031 L 75.507812 91.601562 L 75.539062 91.621094 L 75.574219 91.636719 L 75.652344 91.667969 L 75.695312 91.671875 L 75.730469 91.683594 L 75.808594 91.683594 L 75.847656 91.679688 L 75.871094 91.675781 L 75.890625 91.671875 L 75.90625 91.667969 L 75.929688 91.664062 L 75.945312 91.65625 L 75.972656 91.648438 L 75.992188 91.640625 L 76.011719 91.628906 L 76.03125 91.621094 L 76.054688 91.605469 L 76.074219 91.59375 L 76.09375 91.578125 L 76.117188 91.566406 L 76.132812 91.546875 L 76.152344 91.53125 L 76.175781 91.507812 C 76.628906 91.082031 76.222656 90.648438 75.925781 90.335938 L 63.132812 76.796875 C 62.828125 76.472656 62.429688 76.050781 61.976562 76.480469 C 61.53125 76.902344 61.929688 77.324219 62.253906 77.667969 Z M 75.007812 91.164062 "/>
<path style=" stroke:none;fill-rule:nonzero;fill:rgb(0%,0%,0%);fill-opacity:1;" d="M 70.636719 95.335938 L 70.664062 95.367188 L 70.691406 95.394531 L 70.753906 95.453125 L 70.816406 95.515625 L 70.84375 95.550781 L 70.914062 95.605469 L 70.945312 95.636719 L 70.980469 95.664062 L 71.015625 95.683594 L 71.046875 95.710938 L 71.082031 95.726562 L 71.121094 95.75 L 71.191406 95.789062 L 71.230469 95.804688 L 71.265625 95.8125 L 71.304688 95.820312 L 71.347656 95.824219 L 71.386719 95.828125 L 71.441406 95.828125 L 71.464844 95.824219 L 71.484375 95.824219 L 71.503906 95.820312 L 71.523438 95.8125 L 71.542969 95.808594 L 71.5625 95.800781 L 71.585938 95.796875 L 71.609375 95.78125 L 71.671875 95.75 L 71.691406 95.738281 L 71.710938 95.71875 L 71.734375 95.707031 L 71.773438 95.667969 L 71.792969 95.652344 C 72.246094 95.222656 71.839844 94.792969 71.519531 94.457031 L 58.769531 80.960938 C 58.445312 80.617188 58.046875 80.195312 57.589844 80.621094 C 57.136719 81.050781 57.535156 81.472656 57.839844 81.796875 Z M 70.636719 95.335938 "/>
<path style=" stroke:none;fill-rule:nonzero;fill:rgb(0%,0%,0%);fill-opacity:1;" d="M 95.007812 94.808594 L 95.082031 94.738281 L 95.160156 94.664062 L 95.226562 94.59375 L 95.265625 94.558594 L 95.300781 94.523438 L 95.363281 94.445312 L 95.417969 94.375 L 95.441406 94.335938 L 95.46875 94.304688 L 95.492188 94.265625 L 95.511719 94.230469 L 95.527344 94.191406 L 95.539062 94.152344 L 95.554688 94.113281 L 95.566406 94.078125 L 95.570312 94.035156 L 95.574219 93.996094 L 95.574219 93.957031 L 95.570312 93.917969 L 95.5625 93.898438 L 95.558594 93.878906 L 95.554688 93.855469 L 95.542969 93.835938 L 95.535156 93.820312 L 95.53125 93.796875 L 95.523438 93.777344 L 95.511719 93.757812 L 95.5 93.734375 L 95.492188 93.714844 L 95.472656 93.699219 L 95.460938 93.675781 L 95.445312 93.65625 L 95.425781 93.628906 L 95.386719 93.589844 C 94.960938 93.136719 94.554688 93.519531 94.152344 93.898438 L 73.171875 113.726562 C 72.761719 114.113281 72.359375 114.492188 72.789062 114.945312 C 73.214844 115.402344 73.621094 115.019531 74.027344 114.632812 Z M 95.007812 94.808594 "/>
<path style=" stroke:none;fill-rule:nonzero;fill:rgb(0%,0%,0%);fill-opacity:1;" d="M 95.351562 113.828125 L 95.421875 113.785156 L 95.503906 113.734375 L 95.59375 113.683594 L 95.695312 113.628906 L 95.804688 113.570312 L 95.925781 113.507812 L 96.183594 113.382812 L 96.324219 113.320312 L 96.46875 113.257812 L 96.621094 113.191406 L 96.777344 113.140625 L 96.9375 113.082031 L 97.273438 112.980469 L 97.441406 112.933594 L 97.617188 112.898438 L 97.792969 112.867188 L 98.144531 112.828125 L 98.324219 112.820312 L 98.5 112.828125 L 98.675781 112.839844 L 98.851562 112.863281 L 99.023438 112.898438 L 99.191406 112.949219 L 99.277344 112.976562 L 99.359375 113.007812 L 99.523438 113.089844 L 99.605469 113.132812 L 99.683594 113.179688 L 99.839844 113.289062 L 99.914062 113.347656 L 99.984375 113.40625 L 100.058594 113.476562 L 100.128906 113.546875 C 100.234375 113.660156 100.746094 114.203125 100.90625 114.953125 C 100.195312 114.429688 99.199219 114.511719 98.660156 115.019531 C 98.300781 115.359375 98.101562 116.019531 98.675781 116.628906 C 99.144531 117.125 100.234375 117.46875 101.140625 116.609375 C 102.320312 115.496094 101.367188 113.871094 100.644531 113.101562 C 99.402344 111.792969 97.457031 112.128906 96.6875 112.351562 C 97.636719 110.378906 96.710938 108.941406 96.09375 108.289062 C 93.867188 105.933594 89.738281 107.398438 89.171875 107.933594 C 88.945312 108.148438 89.160156 108.375 89.207031 108.425781 C 89.371094 108.601562 89.492188 108.628906 89.730469 108.480469 C 92.851562 106.984375 94.832031 107.945312 95.550781 108.707031 C 95.960938 109.136719 96.507812 110.117188 95.195312 111.355469 C 94.496094 112.015625 92.617188 113.070312 88.660156 115.21875 C 86.914062 116.179688 85.226562 116.292969 84.28125 115.292969 C 84.152344 115.160156 83.664062 114.640625 83.507812 113.886719 C 84.152344 114.351562 85.097656 114.402344 85.738281 113.796875 C 86.34375 113.222656 86.050781 112.558594 85.730469 112.21875 C 85.085938 111.535156 83.964844 111.523438 83.238281 112.207031 C 82.203125 113.1875 82.820312 114.75 83.761719 115.742188 C 85.175781 117.242188 87.523438 116.550781 87.71875 116.496094 C 87.140625 117.558594 87.03125 119.207031 88.308594 120.558594 C 90.515625 122.890625 94.648438 121.429688 95.214844 120.894531 C 95.441406 120.679688 95.246094 120.472656 95.175781 120.398438 C 94.992188 120.203125 94.855469 120.238281 94.660156 120.34375 C 91.535156 121.882812 89.539062 120.855469 88.855469 120.136719 C 88.019531 119.25 88.398438 118.207031 89.171875 117.476562 C 89.667969 117.003906 90.292969 116.675781 91.527344 115.988281 Z M 95.351562 113.828125 "/>
<path style=" stroke:none;fill-rule:nonzero;fill:rgb(0%,0%,0%);fill-opacity:1;" d="M 117.632812 140.683594 L 117.703125 140.753906 L 117.769531 140.828125 L 117.84375 140.894531 L 117.875 140.925781 L 117.914062 140.960938 L 117.945312 140.996094 L 117.980469 141.023438 L 118.019531 141.054688 L 118.054688 141.082031 L 118.09375 141.105469 L 118.128906 141.125 L 118.167969 141.148438 L 118.203125 141.164062 L 118.238281 141.183594 L 118.316406 141.214844 L 118.355469 141.21875 L 118.390625 141.230469 L 118.46875 141.230469 L 118.511719 141.226562 L 118.53125 141.222656 L 118.550781 141.214844 L 118.570312 141.210938 L 118.589844 141.203125 L 118.613281 141.199219 L 118.652344 141.179688 L 118.671875 141.171875 L 118.691406 141.15625 L 118.738281 141.132812 L 118.753906 141.117188 L 118.777344 141.101562 L 118.796875 141.085938 L 118.835938 141.046875 C 119.289062 140.617188 118.90625 140.210938 118.539062 139.824219 L 106.984375 127.59375 C 106.625 127.214844 106.238281 126.804688 105.785156 127.234375 C 105.332031 127.664062 105.71875 128.070312 106.078125 128.453125 Z M 117.632812 140.683594 "/>
<path style=" stroke:none;fill-rule:nonzero;fill:rgb(0%,0%,0%);fill-opacity:1;" d="M 140.460938 146.261719 L 140.484375 146.238281 L 140.511719 146.214844 L 140.578125 146.148438 L 140.601562 146.128906 L 140.621094 146.109375 L 140.644531 146.089844 L 140.660156 146.070312 L 140.679688 146.054688 L 140.695312 146.039062 L 140.710938 146.015625 L 140.730469 146 L 140.742188 145.984375 L 140.761719 145.96875 L 140.769531 145.953125 L 140.800781 145.921875 L 140.824219 145.890625 L 140.839844 145.859375 L 140.859375 145.835938 L 140.871094 145.804688 L 140.886719 145.78125 L 140.890625 145.75 L 140.894531 145.730469 L 140.898438 145.703125 L 140.898438 145.675781 L 140.894531 145.644531 L 140.886719 145.621094 L 140.878906 145.59375 L 140.875 145.578125 L 140.851562 145.546875 L 140.847656 145.535156 L 140.839844 145.515625 L 140.828125 145.503906 L 140.820312 145.484375 L 140.804688 145.472656 L 140.792969 145.449219 L 140.78125 145.433594 L 140.761719 145.417969 L 140.753906 145.398438 L 140.71875 145.363281 L 140.703125 145.34375 L 140.683594 145.320312 L 140.664062 145.304688 L 140.648438 145.277344 L 140.625 145.253906 L 140.605469 145.230469 L 140.5625 145.1875 C 137.789062 145.152344 135.910156 143.164062 135.230469 142.441406 L 134.527344 143.109375 C 134.957031 143.5625 136.214844 144.894531 137.90625 145.503906 L 126.195312 156.570312 C 125.378906 157.34375 125.050781 157.53125 123.132812 155.5 L 122.449219 154.777344 L 121.746094 155.441406 C 122.566406 156.164062 124.421875 158.128906 125.273438 159.03125 C 126.132812 159.9375 127.988281 161.902344 128.667969 162.765625 L 129.371094 162.101562 L 128.683594 161.375 C 126.761719 159.34375 126.9375 159.039062 127.777344 158.246094 Z M 140.460938 146.261719 "/>
<path style=" stroke:none;fill-rule:nonzero;fill:rgb(0%,0%,0%);fill-opacity:1;" d="M 149.957031 152.953125 L 150.027344 152.886719 L 150.105469 152.8125 L 150.210938 152.707031 L 150.242188 152.667969 L 150.277344 152.632812 L 150.3125 152.59375 L 150.367188 152.523438 L 150.390625 152.484375 L 150.417969 152.453125 L 150.441406 152.414062 L 150.457031 152.378906 L 150.472656 152.339844 L 150.488281 152.296875 L 150.5 152.257812 L 150.511719 152.222656 L 150.515625 152.183594 L 150.523438 152.144531 L 150.515625 152.066406 L 150.507812 152.046875 L 150.503906 152.027344 L 150.5 152.003906 L 150.492188 151.984375 L 150.484375 151.96875 L 150.480469 151.945312 L 150.472656 151.925781 L 150.457031 151.90625 L 150.445312 151.882812 L 150.4375 151.863281 L 150.421875 151.847656 L 150.40625 151.824219 L 150.386719 151.800781 L 150.375 151.777344 L 150.355469 151.761719 L 150.335938 151.738281 C 149.90625 151.285156 149.503906 151.664062 149.097656 152.046875 L 128.117188 171.875 C 127.707031 172.257812 127.304688 172.640625 127.734375 173.09375 C 128.164062 173.546875 128.566406 173.167969 128.976562 172.78125 Z M 149.957031 152.953125 "/>
<path style=" stroke:none;fill-rule:nonzero;fill:rgb(0%,0%,0%);fill-opacity:1;" d="M 160.335938 185.871094 L 160.402344 185.941406 L 160.472656 186.015625 L 160.574219 186.117188 L 160.613281 186.148438 L 160.648438 186.183594 L 160.683594 186.210938 L 160.714844 186.238281 L 160.753906 186.269531 L 160.792969 186.292969 L 160.828125 186.3125 L 160.867188 186.335938 L 160.9375 186.375 L 160.976562 186.386719 L 161.015625 186.402344 L 161.054688 186.40625 L 161.089844 186.417969 L 161.210938 186.417969 L 161.234375 186.414062 L 161.25 186.40625 L 161.273438 186.402344 L 161.289062 186.390625 L 161.3125 186.386719 L 161.332031 186.378906 L 161.351562 186.367188 L 161.371094 186.359375 L 161.417969 186.335938 L 161.457031 186.304688 L 161.480469 186.292969 L 161.496094 186.273438 L 161.519531 186.253906 L 161.539062 186.234375 C 161.992188 185.808594 161.601562 185.394531 161.242188 185.011719 L 149.6875 172.785156 C 149.328125 172.402344 148.941406 171.996094 148.488281 172.425781 C 148.03125 172.851562 148.417969 173.261719 148.777344 173.640625 Z M 160.335938 185.871094 "/>
<path style=" stroke:none;fill-rule:nonzero;fill:rgb(0%,0%,0%);fill-opacity:1;" d="M 183.164062 191.449219 L 183.210938 191.402344 L 183.234375 191.382812 L 183.257812 191.359375 L 183.28125 191.339844 L 183.34375 191.277344 L 183.363281 191.261719 L 183.378906 191.242188 L 183.398438 191.226562 L 183.410156 191.203125 L 183.429688 191.1875 L 183.445312 191.175781 L 183.460938 191.15625 L 183.472656 191.140625 L 183.503906 191.109375 L 183.527344 191.082031 L 183.539062 191.050781 L 183.558594 191.023438 L 183.574219 190.992188 L 183.585938 190.972656 L 183.589844 190.941406 L 183.597656 190.917969 L 183.597656 190.867188 L 183.59375 190.835938 L 183.578125 190.78125 L 183.570312 190.761719 L 183.566406 190.75 L 183.554688 190.738281 L 183.550781 190.722656 L 183.527344 190.691406 L 183.519531 190.671875 L 183.507812 190.660156 L 183.496094 190.636719 L 183.480469 190.625 L 183.464844 190.605469 L 183.457031 190.589844 L 183.4375 190.570312 L 183.421875 190.550781 L 183.382812 190.511719 L 183.367188 190.492188 L 183.347656 190.464844 L 183.328125 190.441406 L 183.304688 190.421875 L 183.285156 190.398438 L 183.261719 190.375 C 180.492188 190.339844 178.613281 188.351562 177.929688 187.632812 L 177.226562 188.296875 C 177.65625 188.75 178.914062 190.078125 180.609375 190.691406 L 168.898438 201.757812 C 168.082031 202.53125 167.753906 202.71875 165.832031 200.6875 L 165.152344 199.964844 L 164.449219 200.632812 C 165.269531 201.355469 167.121094 203.316406 167.976562 204.21875 C 168.832031 205.128906 170.6875 207.085938 171.363281 207.949219 L 172.066406 207.285156 L 171.386719 206.5625 C 169.464844 204.53125 169.640625 204.226562 170.480469 203.433594 Z M 183.164062 191.449219 "/>
<path style=" stroke:none;fill-rule:nonzero;fill:rgb(0%,0%,0%);fill-opacity:1;" d="M 257.117188 369.457031 L 256.976562 369.675781 L 256.847656 369.886719 L 256.707031 370.089844 L 256.570312 370.28125 L 256.4375 370.464844 L 256.300781 370.628906 L 256.160156 370.789062 L 256.03125 370.945312 L 255.890625 371.089844 L 255.753906 371.21875 L 255.621094 371.34375 L 255.484375 371.460938 L 255.34375 371.570312 L 255.214844 371.671875 L 255.074219 371.765625 L 254.9375 371.855469 L 254.800781 371.933594 L 254.660156 372.007812 L 254.523438 372.074219 L 254.382812 372.136719 L 254.246094 372.1875 L 254.101562 372.238281 L 253.960938 372.292969 L 253.816406 372.328125 L 253.675781 372.363281 L 253.53125 372.394531 L 253.386719 372.421875 L 253.246094 372.445312 L 252.949219 372.480469 L 252.65625 372.503906 C 252.214844 372.539062 251.894531 372.539062 251.894531 373.230469 C 251.894531 373.449219 252.074219 373.632812 252.359375 373.632812 C 253.335938 373.632812 254.464844 373.515625 255.476562 373.515625 C 256.671875 373.515625 257.945312 373.632812 259.109375 373.632812 C 259.320312 373.632812 259.804688 373.632812 259.804688 372.9375 C 259.804688 372.539062 259.476562 372.503906 259.21875 372.503906 C 258.382812 372.4375 257.515625 372.136719 257.515625 371.242188 C 257.515625 370.796875 257.734375 370.398438 258.019531 369.902344 L 260.777344 365.25 L 269.882812 365.25 L 269.78125 364.125 L 261.464844 364.125 L 268.621094 352.144531 L 269.78125 364.125 L 269.882812 365.25 C 269.964844 366.003906 270.464844 370.945312 270.464844 371.308594 C 270.464844 372.398438 268.578125 372.503906 267.859375 372.503906 C 267.347656 372.503906 266.984375 372.503906 266.984375 373.230469 C 266.984375 373.632812 267.414062 373.632812 267.492188 373.632812 C 268.972656 373.632812 270.546875 373.515625 272.023438 373.515625 C 272.933594 373.515625 275.222656 373.632812 276.132812 373.632812 C 276.351562 373.632812 276.78125 373.632812 276.78125 372.902344 C 276.78125 372.503906 276.417969 372.503906 275.949219 372.503906 C 273.699219 372.503906 273.699219 372.253906 273.582031 371.199219 L 271.375 348.527344 C 271.296875 347.796875 271.296875 347.652344 270.683594 347.652344 C 270.101562 347.652344 269.964844 347.898438 269.738281 348.261719 Z M 257.117188 369.457031 "/>
<path style=" stroke:none;fill-rule:nonzero;fill:rgb(0%,0%,0%);fill-opacity:1;" d="M 186.839844 293.359375 L 186.832031 292.820312 L 186.792969 292.289062 L 186.742188 291.773438 L 186.664062 291.261719 L 186.570312 290.769531 L 186.453125 290.289062 L 186.3125 289.820312 L 186.152344 289.371094 L 185.980469 288.933594 L 185.78125 288.503906 L 185.570312 288.09375 L 185.335938 287.703125 L 185.089844 287.324219 L 184.820312 286.957031 L 184.542969 286.617188 L 184.238281 286.289062 L 183.925781 285.976562 L 183.597656 285.675781 L 183.246094 285.398438 L 182.890625 285.144531 L 182.511719 284.90625 L 182.125 284.6875 L 181.726562 284.484375 L 181.308594 284.300781 L 180.878906 284.140625 L 180.445312 283.996094 L 179.992188 283.878906 L 179.53125 283.777344 L 179.058594 283.703125 L 178.570312 283.644531 L 178.082031 283.609375 L 177.582031 283.601562 L 177.363281 284.511719 C 180.339844 284.511719 183.613281 286.535156 183.613281 291.941406 C 183.613281 294.554688 182.628906 300.214844 179.039062 304.6875 C 177.296875 306.894531 174.3125 309.035156 171.273438 309.035156 C 167.675781 309.035156 165.140625 306.097656 165.140625 301.308594 C 165.140625 299.710938 165.644531 294.410156 168.441406 290.164062 C 170.945312 286.398438 174.492188 284.511719 177.363281 284.511719 L 177.582031 283.601562 C 169.75 283.601562 161.761719 291.839844 161.761719 300.292969 C 161.761719 306.3125 165.824219 309.972656 171.054688 309.972656 C 178.738281 309.972656 186.839844 302.035156 186.839844 293.359375 Z M 186.839844 293.359375 "/>
</g>
</svg>
