<?xml version="1.0" encoding="UTF-8"?>
<svg xmlns="http://www.w3.org/2000/svg" xmlns:xlink="http://www.w3.org/1999/xlink" width="438pt" height="405pt" viewBox="0 0 438 405" version="1.1">
<defs>
<clipPath id="clip1">
  <path d="M 0 0.75 L 404 0.75 L 404 404 L 0 404 Z M 0 0.75 "/>
</clipPath>
</defs>
<g id="surface1">
<path style="fill:none;stroke-width:32;stroke-linecap:round;stroke-linejoin:round;stroke:rgb(0%,0%,0%);stroke-opacity:1;stroke-miterlimit:4;" d="M 16.289062 1192.8125 L 56.679688 1209.648438 L 97.109375 1226.445312 L 177.890625 1260.15625 L 218.320312 1276.953125 L 299.101562 1310.625 L 339.53125 1327.460938 L 420.3125 1361.132812 L 460.742188 1378.007812 L 541.523438 1411.640625 L 581.953125 1428.515625 L 662.734375 1462.1875 L 703.164062 1478.984375 L 743.554688 1495.859375 L 783.984375 1512.695312 L 864.765625 1546.367188 L 905.195312 1563.164062 L 985.976562 1596.875 L 1026.40625 1613.671875 L 1107.1875 1647.34375 L 1147.617188 1664.21875 L 1228.398438 1697.851562 L 1268.828125 1714.726562 L 1349.609375 1748.398438 L 1390.039062 1765.195312 L 1470.820312 1798.90625 L 1511.25 1815.703125 L 1592.03125 1849.375 L 1632.460938 1866.210938 L 1713.242188 1899.882812 L 1753.671875 1916.757812 L 1794.0625 1933.515625 L 1834.453125 1950.351562 L 1874.882812 1967.226562 L 1955.664062 2000.898438 L 1996.09375 2017.695312 L 2036.484375 2034.53125 L 2076.914062 2051.40625 L 2157.695312 2085.078125 L 2198.125 2101.875 L 2278.90625 2135.585938 L 2319.335938 2152.382812 L 2400.117188 2186.054688 L 2440.546875 2202.890625 L 2521.328125 2236.5625 L 2561.757812 2253.4375 L 2642.539062 2287.109375 L 2682.96875 2303.945312 L 2763.75 2337.617188 L 2804.179688 2354.414062 L 2884.960938 2388.085938 L 2925.390625 2404.921875 L 3006.171875 2438.59375 L 3046.601562 2455.46875 L 3127.382812 2489.101562 L 3167.8125 2505.976562 L 3248.59375 2539.648438 L 3289.023438 2556.445312 L 3369.804688 2590.15625 L 3410.234375 2606.953125 L 3450.625 2623.828125 L 3491.054688 2640.585938 L 3571.835938 2674.296875 L 3612.265625 2691.09375 L 3693.046875 2724.765625 L 3733.476562 2741.601562 L 3814.257812 2775.273438 L 3854.6875 2792.148438 L 3935.46875 2825.78125 L 3975.898438 2842.65625 L 4016.289062 2859.453125 " transform="matrix(0.1,0,0,-0.1,0,405)"/>
<g clip-path="url(#clip1)" clip-rule="nonzero">
<path style="fill:none;stroke-width:32;stroke-linecap:round;stroke-linejoin:round;stroke:rgb(0%,0%,0%);stroke-opacity:1;stroke-miterlimit:4;" d="M 16.289062 826.132812 L 4016.289062 826.132812 M 2016.289062 26.132812 L 2016.289062 4026.132812 M 16.289062 3326.132812 C 29.765625 3292.460938 43.242188 3259.140625 56.679688 3226.132812 C 70.15625 3193.164062 83.632812 3160.546875 97.109375 3128.203125 C 110.546875 3095.898438 124.023438 3063.945312 137.5 3032.265625 C 150.976562 3000.664062 164.453125 2969.375 177.890625 2938.4375 C 191.367188 2907.460938 204.84375 2876.875 218.320312 2846.601562 C 231.757812 2816.367188 245.234375 2786.40625 258.710938 2756.835938 C 272.1875 2727.265625 285.664062 2698.007812 299.101562 2669.0625 C 312.578125 2640.195312 326.054688 2611.5625 339.53125 2583.398438 C 353.007812 2555.15625 366.445312 2527.265625 379.921875 2499.726562 C 393.398438 2472.1875 406.875 2444.921875 420.3125 2418.085938 C 433.789062 2391.171875 447.265625 2364.6875 460.742188 2338.515625 C 474.21875 2312.265625 487.65625 2286.445312 501.132812 2260.976562 C 514.609375 2235.46875 528.085938 2210.273438 541.523438 2185.46875 C 555 2160.585938 568.476562 2136.09375 581.953125 2111.953125 C 595.429688 2087.8125 608.867188 2064.023438 622.34375 2040.585938 C 635.820312 2017.109375 649.296875 1993.945312 662.734375 1971.171875 C 676.210938 1948.398438 689.6875 1925.976562 703.164062 1903.867188 C 716.640625 1881.757812 730.078125 1859.960938 743.554688 1838.515625 C 757.03125 1817.148438 770.507812 1796.015625 783.984375 1775.273438 C 797.421875 1754.53125 810.898438 1734.101562 824.375 1714.0625 C 837.851562 1693.984375 851.289062 1674.296875 864.765625 1654.882812 C 878.242188 1635.507812 891.71875 1616.445312 905.195312 1597.734375 C 918.632812 1579.023438 932.109375 1560.664062 945.585938 1542.65625 C 959.0625 1524.648438 972.5 1506.914062 985.976562 1489.609375 C 999.453125 1472.265625 1012.929688 1455.234375 1026.40625 1438.554688 C 1039.84375 1421.914062 1053.320312 1405.585938 1066.796875 1389.648438 C 1080.273438 1373.59375 1093.710938 1358.007812 1107.1875 1342.695312 C 1120.664062 1327.34375 1134.140625 1312.382812 1147.617188 1297.773438 C 1161.054688 1283.125 1174.53125 1268.90625 1188.007812 1254.921875 C 1201.484375 1241.015625 1214.960938 1227.34375 1228.398438 1214.101562 C 1241.875 1200.859375 1255.351562 1187.96875 1268.828125 1175.3125 C 1282.265625 1162.734375 1295.742188 1150.546875 1309.21875 1138.59375 C 1322.695312 1126.71875 1336.171875 1115.15625 1349.609375 1103.945312 C 1363.085938 1092.695312 1376.5625 1081.835938 1390.039062 1071.289062 C 1403.476562 1060.703125 1416.953125 1050.546875 1430.429688 1040.664062 C 1443.90625 1030.78125 1457.382812 1021.289062 1470.820312 1012.109375 C 1484.296875 1002.890625 1497.773438 994.0625 1511.25 985.585938 C 1524.6875 977.070312 1538.164062 968.90625 1551.640625 961.054688 C 1565.117188 953.28125 1578.59375 945.78125 1592.03125 938.632812 C 1605.507812 931.484375 1618.984375 924.726562 1632.460938 918.203125 C 1645.9375 911.796875 1659.375 905.625 1672.851562 899.84375 C 1686.328125 894.0625 1699.804688 888.632812 1713.242188 883.515625 C 1726.71875 878.4375 1740.195312 873.671875 1753.671875 869.21875 C 1767.148438 864.804688 1780.585938 860.78125 1794.0625 857.03125 C 1807.539062 853.28125 1821.015625 849.84375 1834.453125 846.835938 C 1847.929688 843.710938 1861.40625 841.015625 1874.882812 838.632812 C 1888.359375 836.289062 1901.796875 834.21875 1915.273438 832.539062 C 1928.75 830.859375 1942.226562 829.453125 1955.664062 828.476562 C 1969.140625 827.382812 1982.617188 826.71875 1996.09375 826.40625 C 2009.570312 826.054688 2023.007812 826.054688 2036.484375 826.40625 C 2049.960938 826.71875 2063.4375 827.421875 2076.914062 828.476562 C 2090.351562 829.453125 2103.828125 830.859375 2117.304688 832.539062 C 2130.78125 834.21875 2144.21875 836.289062 2157.695312 838.632812 C 2171.171875 841.015625 2184.648438 843.710938 2198.125 846.835938 C 2211.5625 849.84375 2225.039062 853.28125 2238.515625 857.03125 C 2251.992188 860.78125 2265.429688 864.804688 2278.90625 869.21875 C 2292.382812 873.671875 2305.859375 878.4375 2319.335938 883.515625 C 2332.773438 888.632812 2346.25 894.0625 2359.726562 899.84375 C 2373.203125 905.625 2386.640625 911.796875 2400.117188 918.203125 C 2413.59375 924.726562 2427.070312 931.484375 2440.546875 938.632812 C 2453.984375 945.78125 2467.460938 953.28125 2480.9375 961.054688 C 2494.414062 968.90625 2507.890625 977.070312 2521.328125 985.585938 C 2534.804688 994.0625 2548.28125 1002.890625 2561.757812 1012.109375 C 2575.195312 1021.289062 2588.671875 1030.78125 2602.148438 1040.664062 C 2615.625 1050.546875 2629.101562 1060.703125 2642.539062 1071.289062 C 2656.015625 1081.835938 2669.492188 1092.695312 2682.96875 1103.945312 C 2696.40625 1115.15625 2709.882812 1126.71875 2723.359375 1138.59375 C 2736.835938 1150.546875 2750.3125 1162.734375 2763.75 1175.3125 C 2777.226562 1187.890625 2790.703125 1200.859375 2804.179688 1214.101562 C 2817.617188 1227.34375 2831.09375 1241.015625 2844.570312 1254.921875 C 2858.046875 1268.90625 2871.523438 1283.125 2884.960938 1297.773438 C 2898.4375 1312.382812 2911.914062 1327.34375 2925.390625 1342.695312 C 2938.867188 1358.007812 2952.304688 1373.59375 2965.78125 1389.648438 C 2979.257812 1405.585938 2992.734375 1421.914062 3006.171875 1438.554688 C 3019.648438 1455.234375 3033.125 1472.265625 3046.601562 1489.609375 C 3060.078125 1506.914062 3073.515625 1524.648438 3086.992188 1542.65625 C 3100.46875 1560.664062 3113.945312 1579.023438 3127.382812 1597.734375 C 3140.859375 1616.445312 3154.335938 1635.507812 3167.8125 1654.882812 C 3181.289062 1674.296875 3194.726562 1693.984375 3208.203125 1714.0625 C 3221.679688 1734.101562 3235.15625 1754.53125 3248.59375 1775.273438 C 3262.070312 1796.015625 3275.546875 1817.148438 3289.023438 1838.515625 C 3302.5 1859.960938 3315.9375 1881.757812 3329.414062 1903.867188 C 3342.890625 1925.976562 3356.367188 1948.398438 3369.804688 1971.171875 C 3383.28125 1993.945312 3396.757812 2017.109375 3410.234375 2040.585938 C 3423.710938 2064.023438 3437.148438 2087.8125 3450.625 2111.953125 C 3464.101562 2136.09375 3477.578125 2160.585938 3491.054688 2185.46875 C 3504.492188 2210.273438 3517.96875 2235.46875 3531.445312 2260.976562 C 3544.921875 2286.445312 3558.359375 2312.304688 3571.835938 2338.515625 C 3585.3125 2364.6875 3598.789062 2391.171875 3612.265625 2418.085938 C 3625.703125 2444.921875 3639.179688 2472.1875 3652.65625 2499.726562 C 3666.132812 2527.265625 3679.570312 2555.15625 3693.046875 2583.398438 C 3706.523438 2611.5625 3720 2640.195312 3733.476562 2669.0625 C 3746.914062 2698.007812 3760.390625 2727.265625 3773.867188 2756.835938 C 3787.34375 2786.40625 3800.78125 2816.367188 3814.257812 2846.601562 C 3827.734375 2876.875 3841.210938 2907.460938 3854.6875 2938.4375 C 3868.125 2969.375 3881.601562 3000.664062 3895.078125 3032.265625 C 3908.554688 3063.945312 3922.03125 3095.898438 3935.46875 3128.203125 C 3948.945312 3160.546875 3962.421875 3193.164062 3975.898438 3226.132812 C 3989.335938 3259.140625 4002.8125 3292.460938 4016.289062 3326.132812 " transform="matrix(0.1,0,0,-0.1,0,405)"/>
</g>
<path style=" stroke:none;fill-rule:nonzero;fill:rgb(90.234375%,90.234375%,90.234375%);fill-opacity:1;" d="M 204.582031 262.070312 L 204.582031 204.492188 L 214.757812 200.144531 C 246.566406 186.53125 369.742188 135.414062 370.730469 135.414062 C 373.691406 135.414062 336.550781 203.664062 319.949219 228.722656 C 288.6875 275.902344 257.53125 304.761719 226.605469 315.164062 C 202.519531 323.273438 204.582031 328.238281 204.582031 262.070312 Z M 204.582031 262.070312 "/>
<path style=" stroke:none;fill-rule:nonzero;fill:rgb(90.234375%,90.234375%,90.234375%);fill-opacity:1;" d="M 182.613281 317.320312 C 170.40625 314.441406 153.609375 305.292969 138.414062 293.242188 C 123.09375 281.097656 96.480469 251.117188 99.03125 248.882812 C 101.03125 247.128906 194.378906 208.253906 196.59375 208.253906 C 197.453125 208.253906 198.152344 233.316406 198.152344 263.949219 C 198.152344 326.160156 199.566406 321.316406 182.613281 317.320312 Z M 182.613281 317.320312 "/>
<path style=" stroke:none;fill-rule:nonzero;fill:rgb(0%,0%,0%);fill-opacity:1;" d="M 429.664062 321.011719 L 429.691406 320.898438 L 429.726562 320.773438 L 429.757812 320.636719 L 429.792969 320.480469 L 429.84375 320.316406 L 429.894531 320.144531 L 429.945312 319.957031 L 430.074219 319.570312 L 430.152344 319.367188 L 430.234375 319.152344 L 430.320312 318.953125 L 430.414062 318.734375 L 430.515625 318.523438 L 430.625 318.316406 L 430.746094 318.101562 L 430.875 317.898438 L 431 317.691406 L 431.144531 317.496094 L 431.296875 317.3125 L 431.453125 317.121094 L 431.621094 316.953125 L 431.800781 316.789062 L 431.988281 316.640625 L 432.183594 316.503906 L 432.394531 316.382812 L 432.496094 316.320312 L 432.609375 316.273438 L 432.726562 316.230469 L 432.839844 316.1875 L 432.957031 316.144531 L 433.074219 316.109375 L 433.332031 316.0625 L 433.457031 316.039062 L 433.59375 316.023438 L 433.730469 316.019531 L 433.867188 316.019531 C 434.078125 316.019531 435.089844 316.019531 435.976562 316.5625 C 434.792969 316.773438 433.945312 317.839844 433.945312 318.851562 C 433.945312 319.523438 434.410156 320.339844 435.550781 320.339844 C 436.484375 320.339844 437.839844 319.582031 437.839844 317.882812 C 437.839844 315.667969 435.339844 315.089844 433.902344 315.089844 C 431.441406 315.089844 429.957031 317.335938 429.453125 318.304688 C 428.390625 315.515625 426.101562 315.089844 424.886719 315.089844 C 420.472656 315.089844 418.050781 320.546875 418.050781 321.609375 C 418.050781 322.035156 418.476562 322.035156 418.566406 322.035156 C 418.898438 322.035156 419.035156 321.941406 419.113281 321.566406 C 420.550781 317.082031 423.355469 316.019531 424.792969 316.019531 C 425.601562 316.019531 427.074219 316.394531 427.074219 318.851562 C 427.074219 320.15625 426.359375 323.007812 424.792969 328.9375 C 424.113281 331.5625 422.632812 333.339844 420.761719 333.339844 C 420.507812 333.339844 419.539062 333.339844 418.652344 332.785156 C 419.714844 332.585938 420.644531 331.695312 420.644531 330.496094 C 420.644531 329.355469 419.714844 329.027344 419.078125 329.027344 C 417.804688 329.027344 416.738281 330.121094 416.738281 331.484375 C 416.738281 333.421875 418.867188 334.273438 420.71875 334.273438 C 423.527344 334.273438 425.039062 331.308594 425.175781 331.0625 C 425.675781 332.621094 427.207031 334.273438 429.742188 334.273438 C 434.113281 334.273438 436.539062 328.816406 436.539062 327.753906 C 436.539062 327.328125 436.15625 327.328125 436.019531 327.328125 C 435.644531 327.328125 435.550781 327.496094 435.472656 327.785156 C 434.078125 332.316406 431.195312 333.339844 429.835938 333.339844 C 428.179688 333.339844 427.496094 331.984375 427.496094 330.539062 C 427.496094 329.605469 427.753906 328.679688 428.230469 326.816406 Z M 429.664062 321.011719 "/>
<path style=" stroke:none;fill-rule:nonzero;fill:rgb(0%,0%,0%);fill-opacity:1;" d="M 190.167969 13.070312 L 190.175781 13.035156 L 190.183594 13.015625 L 190.191406 12.964844 L 190.210938 12.921875 L 190.21875 12.867188 L 190.226562 12.824219 L 190.242188 12.789062 L 190.25 12.746094 L 190.261719 12.71875 L 190.269531 12.683594 L 190.269531 12.648438 L 190.285156 12.578125 L 190.292969 12.554688 L 190.292969 12.527344 L 190.300781 12.503906 L 190.300781 12.480469 L 190.3125 12.449219 L 190.3125 12.429688 L 190.320312 12.386719 L 190.320312 12.246094 L 190.328125 12.203125 L 190.328125 12.105469 C 190.328125 11.328125 189.742188 10.953125 189.105469 10.953125 C 188.679688 10.953125 188 11.210938 187.617188 11.851562 C 187.53125 12.0625 187.191406 13.359375 187.027344 14.136719 C 186.722656 15.230469 186.433594 16.382812 186.179688 17.523438 L 184.265625 25.148438 C 184.101562 25.785156 182.285156 28.742188 179.484375 28.742188 C 177.324219 28.742188 176.847656 26.894531 176.847656 25.316406 C 176.847656 23.367188 177.582031 20.734375 179.019531 17.019531 C 179.699219 15.273438 179.867188 14.808594 179.867188 13.960938 C 179.867188 12.0625 178.515625 10.492188 176.390625 10.492188 C 172.359375 10.492188 170.792969 16.628906 170.792969 17.019531 C 170.792969 17.441406 171.21875 17.441406 171.3125 17.441406 C 171.738281 17.441406 171.773438 17.351562 171.984375 16.671875 C 173.132812 12.683594 174.816406 11.425781 176.261719 11.425781 C 176.601562 11.425781 177.324219 11.425781 177.324219 12.773438 C 177.324219 13.839844 176.902344 14.929688 176.601562 15.742188 C 174.910156 20.230469 174.136719 22.648438 174.136719 24.648438 C 174.136719 28.402344 176.816406 29.683594 179.308594 29.683594 C 180.972656 29.683594 182.402344 28.960938 183.585938 27.773438 C 183.039062 29.972656 182.539062 32.054688 180.835938 34.308594 C 179.730469 35.734375 178.125 36.980469 176.175781 36.980469 C 175.589844 36.980469 173.675781 36.84375 172.953125 35.191406 C 173.636719 35.191406 174.195312 35.191406 174.773438 34.675781 C 175.199219 34.308594 175.625 33.742188 175.625 32.945312 C 175.625 31.628906 174.484375 31.460938 174.058594 31.460938 C 173.089844 31.460938 171.679688 32.140625 171.679688 34.214844 C 171.679688 36.339844 173.558594 37.902344 176.175781 37.902344 C 180.546875 37.902344 184.902344 34.03125 186.101562 29.257812 Z M 190.167969 13.070312 "/>
<path style=" stroke:none;fill-rule:nonzero;fill:rgb(0%,0%,0%);fill-opacity:1;" d="M 302.910156 37.226562 L 302.933594 37.113281 L 302.96875 36.984375 L 303.003906 36.851562 L 303.039062 36.695312 L 303.089844 36.535156 L 303.140625 36.355469 L 303.191406 36.171875 L 303.25 35.980469 L 303.316406 35.785156 L 303.394531 35.585938 L 303.480469 35.371094 L 303.5625 35.164062 L 303.65625 34.953125 L 303.761719 34.742188 L 303.871094 34.527344 L 303.988281 34.316406 L 304.117188 34.109375 L 304.246094 33.90625 L 304.390625 33.714844 L 304.695312 33.339844 L 304.867188 33.171875 L 305.042969 33.007812 L 305.230469 32.855469 L 305.425781 32.71875 L 305.640625 32.601562 L 305.742188 32.539062 L 305.851562 32.488281 L 305.972656 32.445312 L 306.082031 32.402344 L 306.199219 32.359375 L 306.320312 32.324219 L 306.445312 32.304688 L 306.574219 32.273438 L 306.703125 32.261719 L 306.839844 32.238281 L 306.972656 32.230469 L 307.109375 32.230469 C 307.324219 32.230469 308.335938 32.230469 309.21875 32.777344 C 308.039062 32.988281 307.1875 34.054688 307.1875 35.066406 C 307.1875 35.734375 307.65625 36.554688 308.792969 36.554688 C 309.730469 36.554688 311.082031 35.796875 311.082031 34.097656 C 311.082031 31.886719 308.582031 31.308594 307.144531 31.308594 C 304.6875 31.308594 303.199219 33.554688 302.695312 34.523438 C 301.632812 31.730469 299.347656 31.308594 298.128906 31.308594 C 293.71875 31.308594 291.292969 36.769531 291.292969 37.828125 C 291.292969 38.257812 291.71875 38.257812 291.8125 38.257812 C 292.144531 38.257812 292.28125 38.160156 292.355469 37.785156 C 293.792969 33.296875 296.601562 32.230469 298.035156 32.230469 C 298.84375 32.230469 300.316406 32.605469 300.316406 35.066406 C 300.316406 36.378906 299.601562 39.226562 298.035156 45.148438 C 297.355469 47.777344 295.875 49.558594 294.007812 49.558594 C 293.75 49.558594 292.78125 49.558594 291.898438 49.003906 C 292.960938 48.800781 293.886719 47.914062 293.886719 46.71875 C 293.886719 45.574219 292.960938 45.242188 292.320312 45.242188 C 291.046875 45.242188 289.984375 46.34375 289.984375 47.699219 C 289.984375 49.644531 292.109375 50.488281 293.964844 50.488281 C 296.769531 50.488281 298.285156 47.523438 298.417969 47.273438 C 298.921875 48.84375 300.453125 50.488281 302.984375 50.488281 C 307.355469 50.488281 309.78125 45.03125 309.78125 43.972656 C 309.78125 43.546875 309.398438 43.546875 309.261719 43.546875 C 308.886719 43.546875 308.792969 43.714844 308.71875 44.003906 C 307.324219 48.535156 304.441406 49.558594 303.078125 49.558594 C 301.421875 49.558594 300.742188 48.203125 300.742188 46.761719 C 300.742188 45.820312 300.996094 44.898438 301.472656 43.03125 Z M 302.910156 37.226562 "/>
<path style=" stroke:none;fill-rule:nonzero;fill:rgb(0%,0%,0%);fill-opacity:1;" d="M 327.902344 29.324219 L 326.898438 29.324219 C 326.8125 29.972656 326.507812 31.730469 326.125 32.023438 C 325.902344 32.191406 323.617188 32.191406 323.199219 32.191406 L 317.742188 32.191406 C 320.851562 29.441406 321.890625 28.617188 323.667969 27.226562 C 325.863281 25.476562 327.902344 23.636719 327.902344 20.820312 C 327.902344 17.230469 324.773438 15.035156 320.972656 15.035156 C 317.308594 15.035156 314.804688 17.613281 314.804688 20.339844 C 314.804688 21.855469 316.082031 22.003906 316.386719 22.003906 C 317.09375 22.003906 317.953125 21.492188 317.953125 20.433594 C 317.953125 19.902344 317.742188 18.863281 316.203125 18.863281 C 317.121094 16.765625 319.136719 16.117188 320.53125 16.117188 C 323.496094 16.117188 325.035156 18.414062 325.035156 20.820312 C 325.035156 23.398438 323.199219 25.441406 322.246094 26.503906 L 315.113281 33.5625 C 314.804688 33.820312 314.804688 33.894531 314.804688 34.71875 L 327.019531 34.71875 Z M 327.902344 29.324219 "/>
<path style=" stroke:none;fill-rule:nonzero;fill:rgb(0%,0%,0%);fill-opacity:1;" d="M 372.871094 36.160156 L 373.238281 36.160156 L 373.296875 36.152344 L 373.363281 36.152344 L 373.425781 36.148438 L 373.484375 36.140625 L 373.601562 36.117188 L 373.664062 36.109375 L 373.714844 36.097656 L 373.773438 36.074219 L 373.875 36.046875 L 373.976562 35.992188 L 374.019531 35.960938 L 374.0625 35.933594 L 374.136719 35.855469 L 374.171875 35.816406 L 374.191406 35.785156 L 374.207031 35.765625 L 374.214844 35.742188 L 374.230469 35.722656 L 374.242188 35.691406 L 374.257812 35.660156 L 374.265625 35.636719 L 374.273438 35.601562 L 374.292969 35.539062 L 374.292969 35.507812 L 374.300781 35.476562 L 374.300781 35.441406 L 374.308594 35.402344 L 374.308594 35.328125 C 374.308594 34.480469 373.5 34.480469 372.914062 34.480469 L 347.539062 34.480469 C 346.933594 34.480469 346.144531 34.480469 346.144531 35.328125 C 346.144531 36.160156 346.933594 36.160156 347.570312 36.160156 Z M 372.871094 36.160156 "/>
<path style=" stroke:none;fill-rule:nonzero;fill:rgb(0%,0%,0%);fill-opacity:1;" d="M 372.914062 44.394531 L 373.023438 44.394531 L 373.144531 44.386719 L 373.320312 44.386719 L 373.382812 44.378906 L 373.441406 44.367188 L 373.5 44.367188 L 373.550781 44.359375 L 373.609375 44.34375 L 373.671875 44.335938 L 373.722656 44.316406 L 373.78125 44.300781 L 373.882812 44.269531 L 373.933594 44.238281 L 373.976562 44.21875 L 374.105469 44.113281 L 374.136719 44.070312 L 374.15625 44.054688 L 374.171875 44.027344 L 374.191406 44.011719 L 374.207031 43.984375 L 374.214844 43.960938 L 374.230469 43.9375 L 374.242188 43.90625 L 374.257812 43.886719 L 374.265625 43.851562 L 374.273438 43.824219 L 374.28125 43.789062 L 374.292969 43.757812 L 374.292969 43.722656 L 374.300781 43.691406 L 374.300781 43.652344 L 374.308594 43.617188 L 374.308594 43.546875 C 374.308594 42.691406 373.5 42.691406 372.871094 42.691406 L 347.570312 42.691406 C 346.933594 42.691406 346.144531 42.691406 346.144531 43.546875 C 346.144531 44.394531 346.933594 44.394531 347.539062 44.394531 Z M 372.914062 44.394531 "/>
<path style=" stroke:none;fill-rule:nonzero;fill:rgb(0%,0%,0%);fill-opacity:1;" d="M 400.910156 43.03125 L 400.910156 46.71875 C 400.910156 48.246094 400.824219 48.703125 397.695312 48.703125 L 396.800781 48.703125 L 396.800781 50.023438 C 398.542969 49.890625 400.746094 49.890625 402.523438 49.890625 C 404.308594 49.890625 406.554688 49.890625 408.28125 50.023438 L 408.28125 48.703125 L 407.390625 48.703125 C 404.257812 48.703125 404.175781 48.246094 404.175781 46.71875 L 404.175781 43.03125 L 408.417969 43.03125 L 408.417969 41.726562 L 404.175781 41.726562 L 404.175781 22.4375 C 404.175781 21.589844 404.175781 21.34375 403.503906 21.34375 C 403.113281 21.34375 402.992188 21.34375 402.652344 21.855469 L 389.640625 41.726562 L 390.832031 41.726562 L 401.171875 25.925781 L 401.171875 41.726562 L 389.640625 41.726562 L 389.640625 43.03125 Z M 400.910156 43.03125 "/>
<path style=" stroke:none;fill-rule:nonzero;fill:rgb(0%,0%,0%);fill-opacity:1;" d="M 430.273438 33.886719 L 430.28125 33.851562 L 430.289062 33.820312 L 430.308594 33.773438 L 430.316406 33.730469 L 430.332031 33.679688 L 430.339844 33.640625 L 430.347656 33.605469 L 430.359375 33.5625 L 430.367188 33.523438 L 430.375 33.492188 L 430.390625 33.425781 L 430.402344 33.390625 L 430.402344 33.363281 L 430.410156 33.339844 L 430.410156 33.316406 L 430.417969 33.285156 L 430.417969 33.265625 L 430.425781 33.234375 L 430.425781 33.191406 L 430.433594 33.144531 L 430.433594 32.910156 C 430.433594 32.140625 429.847656 31.769531 429.210938 31.769531 C 428.785156 31.769531 428.113281 32.023438 427.722656 32.65625 C 427.644531 32.871094 427.296875 34.175781 427.144531 34.945312 C 426.835938 36.046875 426.539062 37.191406 426.292969 38.328125 L 424.378906 45.960938 C 424.21875 46.597656 422.398438 49.558594 419.59375 49.558594 C 417.441406 49.558594 416.964844 47.699219 416.964844 46.132812 C 416.964844 44.183594 417.695312 41.546875 419.125 37.828125 C 419.804688 36.085938 419.976562 35.617188 419.976562 34.769531 C 419.976562 32.871094 418.621094 31.308594 416.496094 31.308594 C 412.472656 31.308594 410.902344 37.441406 410.902344 37.828125 C 410.902344 38.257812 411.328125 38.257812 411.417969 38.257812 C 411.84375 38.257812 411.886719 38.160156 412.101562 37.480469 C 413.238281 33.492188 414.933594 32.230469 416.378906 32.230469 C 416.710938 32.230469 417.441406 32.230469 417.441406 33.585938 C 417.441406 34.648438 417.015625 35.734375 416.710938 36.554688 C 415.027344 41.046875 414.25 43.460938 414.25 45.460938 C 414.25 49.21875 416.921875 50.488281 419.421875 50.488281 C 421.082031 50.488281 422.515625 49.769531 423.699219 48.589844 C 423.15625 50.777344 422.652344 52.863281 420.953125 55.117188 C 419.847656 56.546875 418.238281 57.785156 416.285156 57.785156 C 415.695312 57.785156 413.785156 57.648438 413.070312 56.003906 C 413.75 56.003906 414.300781 56.003906 414.890625 55.480469 C 415.316406 55.117188 415.738281 54.558594 415.738281 53.757812 C 415.738281 52.441406 414.601562 52.269531 414.175781 52.269531 C 413.195312 52.269531 411.792969 52.949219 411.792969 55.023438 C 411.792969 57.148438 413.664062 58.71875 416.285156 58.71875 C 420.65625 58.71875 425.019531 54.847656 426.207031 50.066406 Z M 430.273438 33.886719 "/>
<path style=" stroke:none;fill-rule:nonzero;fill:rgb(0%,0%,0%);fill-opacity:1;" d="M 150.296875 186.226562 L 150.28125 186.113281 L 150.269531 185.980469 L 150.253906 185.84375 L 150.230469 185.691406 L 150.222656 185.519531 L 150.207031 185.335938 L 150.1875 185.140625 L 150.179688 184.941406 L 150.171875 184.734375 L 150.171875 184.519531 L 150.175781 184.289062 L 150.183594 184.066406 L 150.195312 183.839844 L 150.21875 183.605469 L 150.246094 183.363281 L 150.28125 183.121094 L 150.328125 182.890625 L 150.375 182.648438 L 150.441406 182.414062 L 150.519531 182.191406 L 150.597656 181.960938 L 150.695312 181.738281 L 150.804688 181.523438 L 150.925781 181.316406 L 151.0625 181.117188 L 151.21875 180.9375 L 151.292969 180.84375 L 151.378906 180.757812 L 151.476562 180.675781 L 151.5625 180.597656 L 151.660156 180.515625 L 151.757812 180.441406 L 151.871094 180.367188 L 151.980469 180.304688 L 152.09375 180.238281 L 152.214844 180.179688 L 152.339844 180.117188 L 152.464844 180.070312 C 152.664062 179.996094 153.613281 179.640625 154.632812 179.839844 C 153.601562 180.453125 153.179688 181.746094 153.539062 182.691406 C 153.773438 183.320312 154.5 183.925781 155.566406 183.523438 C 156.441406 183.191406 157.441406 182.007812 156.839844 180.410156 C 156.058594 178.347656 153.515625 178.6875 152.171875 179.191406 C 149.871094 180.0625 149.273438 182.6875 149.144531 183.773438 C 147.164062 181.535156 144.875 181.945312 143.738281 182.378906 C 139.609375 183.9375 139.265625 189.898438 139.644531 190.894531 C 139.792969 191.289062 140.191406 191.140625 140.277344 191.105469 C 140.589844 190.988281 140.683594 190.855469 140.621094 190.480469 C 140.382812 185.769531 142.632812 183.78125 143.976562 183.273438 C 144.734375 182.988281 146.242188 182.820312 147.109375 185.117188 C 147.570312 186.347656 147.910156 189.265625 148.535156 195.359375 C 148.828125 198.0625 148.070312 200.242188 146.320312 200.902344 C 146.082031 200.992188 145.175781 201.339844 144.152344 201.136719 C 145.074219 200.566406 145.628906 199.410156 145.207031 198.289062 C 144.804688 197.226562 143.820312 197.238281 143.222656 197.46875 C 142.03125 197.914062 141.421875 199.316406 141.902344 200.59375 C 142.585938 202.402344 144.875 202.449219 146.613281 201.796875 C 149.238281 200.808594 149.605469 197.492188 149.644531 197.21875 C 150.667969 198.503906 152.683594 199.507812 155.054688 198.609375 C 159.144531 197.066406 159.484375 191.105469 159.109375 190.109375 C 158.957031 189.714844 158.597656 189.847656 158.472656 189.898438 C 158.121094 190.023438 158.09375 190.222656 158.125 190.519531 C 158.421875 195.246094 156.082031 197.222656 154.808594 197.699219 C 153.257812 198.285156 152.144531 197.265625 151.632812 195.910156 C 151.304688 195.035156 151.214844 194.078125 151.003906 192.164062 Z M 150.296875 186.226562 "/>
<path style=" stroke:none;fill-rule:nonzero;fill:rgb(0%,0%,0%);fill-opacity:1;" d="M 197.621094 167.230469 L 197.734375 167.191406 L 197.851562 167.148438 L 197.964844 167.105469 L 198.015625 167.074219 L 198.078125 167.054688 L 198.132812 167.023438 L 198.183594 166.992188 L 198.238281 166.964844 L 198.289062 166.9375 L 198.34375 166.90625 L 198.386719 166.871094 L 198.433594 166.835938 L 198.476562 166.804688 L 198.519531 166.769531 L 198.558594 166.726562 L 198.59375 166.6875 L 198.625 166.640625 L 198.652344 166.601562 L 198.679688 166.546875 L 198.699219 166.496094 L 198.714844 166.445312 L 198.722656 166.421875 L 198.730469 166.390625 L 198.730469 166.367188 L 198.738281 166.339844 L 198.738281 166.316406 L 198.742188 166.273438 L 198.738281 166.246094 L 198.734375 166.214844 L 198.734375 166.1875 L 198.730469 166.148438 L 198.71875 166.117188 L 198.714844 166.085938 L 198.703125 166.054688 L 198.699219 166.019531 L 198.6875 165.984375 L 198.671875 165.945312 C 198.371094 165.148438 197.617188 165.4375 197.066406 165.644531 L 173.324219 174.605469 C 172.761719 174.816406 172.019531 175.097656 172.320312 175.890625 C 172.613281 176.671875 173.355469 176.390625 173.949219 176.164062 Z M 197.621094 167.230469 "/>
<path style=" stroke:none;fill-rule:nonzero;fill:rgb(0%,0%,0%);fill-opacity:1;" d="M 200.566406 174.921875 L 200.621094 174.898438 L 200.671875 174.882812 L 200.777344 174.828125 L 200.890625 174.789062 L 200.945312 174.769531 L 201 174.738281 L 201.050781 174.710938 L 201.105469 174.691406 L 201.152344 174.660156 L 201.253906 174.597656 L 201.296875 174.566406 L 201.347656 174.523438 L 201.386719 174.492188 L 201.429688 174.460938 L 201.46875 174.414062 L 201.5 174.378906 L 201.582031 174.234375 L 201.597656 174.1875 L 201.609375 174.160156 L 201.617188 174.136719 L 201.625 174.109375 L 201.632812 174.085938 L 201.632812 174.058594 L 201.636719 174.023438 L 201.636719 173.996094 L 201.644531 173.96875 L 201.640625 173.9375 L 201.640625 173.90625 L 201.632812 173.839844 L 201.617188 173.808594 L 201.613281 173.773438 L 201.601562 173.738281 L 201.597656 173.703125 L 201.582031 173.664062 L 201.570312 173.632812 C 201.273438 172.839844 200.515625 173.121094 199.925781 173.347656 L 176.257812 182.273438 C 175.660156 182.503906 174.921875 182.777344 175.21875 183.574219 C 175.519531 184.371094 176.261719 184.09375 176.824219 183.878906 Z M 200.566406 174.921875 "/>
<path style=" stroke:none;fill-rule:nonzero;fill:rgb(0%,0%,0%);fill-opacity:1;" d="M 226.269531 163.769531 L 227.570312 167.214844 C 228.113281 168.644531 228.203125 169.101562 225.265625 170.210938 L 224.4375 170.523438 L 224.902344 171.757812 C 226.480469 171.015625 228.546875 170.230469 230.210938 169.605469 C 231.875 168.980469 233.980469 168.1875 235.644531 167.699219 L 235.179688 166.46875 L 234.34375 166.78125 C 231.410156 167.894531 231.175781 167.488281 230.632812 166.058594 L 229.335938 162.609375 L 233.296875 161.113281 L 232.835938 159.894531 L 228.871094 161.386719 L 222.0625 143.34375 C 221.761719 142.546875 221.675781 142.316406 221.039062 142.558594 C 220.679688 142.691406 220.570312 142.730469 220.425781 143.34375 L 215.265625 166.523438 L 216.386719 166.097656 L 220.484375 147.660156 L 226.0625 162.445312 L 216.386719 166.097656 L 215.265625 166.523438 L 215.730469 167.742188 Z M 226.269531 163.769531 "/>
<path style=" stroke:none;fill-rule:nonzero;fill:rgb(0%,0%,0%);fill-opacity:1;" d="M 250.523438 144.839844 L 250.519531 144.804688 L 250.515625 144.773438 L 250.507812 144.726562 L 250.507812 144.679688 L 250.496094 144.628906 L 250.492188 144.585938 L 250.496094 144.550781 L 250.488281 144.507812 L 250.476562 144.398438 L 250.464844 144.367188 L 250.460938 144.335938 L 250.457031 144.308594 L 250.449219 144.28125 L 250.449219 144.257812 L 250.441406 144.230469 L 250.4375 144.203125 L 250.429688 144.183594 L 250.421875 144.140625 L 250.40625 144.09375 L 250.390625 144.050781 L 250.382812 144.011719 L 250.367188 143.96875 L 250.359375 143.941406 L 250.347656 143.921875 L 250.332031 143.871094 C 250.058594 143.148438 249.378906 143.007812 248.78125 143.230469 C 248.382812 143.382812 247.835938 143.859375 247.703125 144.59375 C 247.707031 144.816406 247.839844 146.15625 247.960938 146.941406 C 248.0625 148.070312 248.199219 149.246094 248.359375 150.402344 L 249.261719 158.21875 C 249.335938 158.871094 248.679688 162.28125 246.0625 163.273438 C 244.050781 164.027344 242.941406 162.46875 242.386719 160.992188 C 241.699219 159.175781 241.453125 156.445312 241.484375 152.464844 C 241.503906 150.59375 241.5 150.097656 241.199219 149.300781 C 240.53125 147.523438 238.710938 146.535156 236.722656 147.289062 C 232.953125 148.714844 233.652344 155.003906 233.789062 155.367188 C 233.941406 155.765625 234.339844 155.613281 234.425781 155.585938 C 234.824219 155.433594 234.824219 155.335938 234.78125 154.617188 C 234.449219 150.480469 235.578125 148.714844 236.9375 148.195312 C 237.25 148.078125 237.933594 147.820312 238.410156 149.089844 C 238.785156 150.085938 238.773438 151.253906 238.773438 152.121094 C 238.777344 156.921875 238.914062 159.449219 239.617188 161.320312 C 240.945312 164.839844 243.894531 165.089844 246.226562 164.210938 C 247.785156 163.617188 248.867188 162.441406 249.5625 160.910156 C 249.820312 163.160156 250.085938 165.285156 249.289062 167.996094 C 248.761719 169.726562 247.695312 171.453125 245.875 172.144531 C 245.324219 172.351562 243.484375 172.898438 242.234375 171.605469 C 242.863281 171.367188 243.390625 171.171875 243.753906 170.480469 C 244.023438 169.984375 244.222656 169.3125 243.941406 168.5625 C 243.476562 167.328125 242.339844 167.574219 241.945312 167.726562 C 241.035156 168.066406 239.964844 169.195312 240.695312 171.140625 C 241.445312 173.132812 243.75 173.933594 246.199219 173.011719 C 250.289062 171.464844 252.996094 166.308594 252.433594 161.410156 Z M 250.523438 144.839844 "/>
<path style=" stroke:none;fill-rule:nonzero;fill:rgb(0%,0%,0%);fill-opacity:1;" d="M 289.230469 137.074219 L 289.359375 137.023438 L 289.484375 136.980469 L 289.601562 136.929688 L 289.726562 136.867188 L 289.78125 136.851562 L 289.84375 136.816406 L 289.894531 136.785156 L 289.949219 136.761719 L 289.996094 136.722656 L 290.046875 136.6875 L 290.097656 136.648438 L 290.140625 136.613281 L 290.179688 136.578125 L 290.21875 136.535156 L 290.25 136.496094 L 290.285156 136.449219 L 290.316406 136.410156 L 290.332031 136.355469 L 290.351562 136.316406 L 290.371094 136.265625 L 290.378906 136.230469 L 290.382812 136.203125 L 290.382812 136.179688 L 290.390625 136.148438 L 290.390625 136.117188 L 290.394531 136.09375 L 290.390625 136.058594 L 290.390625 136.027344 L 290.386719 135.992188 L 290.375 135.964844 L 290.367188 135.894531 L 290.355469 135.859375 L 290.351562 135.824219 L 290.335938 135.785156 L 290.324219 135.757812 C 290.023438 134.960938 289.300781 135.230469 288.628906 135.480469 L 267.1875 143.574219 C 266.511719 143.828125 265.804688 144.097656 266.105469 144.894531 C 266.402344 145.691406 267.113281 145.421875 267.789062 145.164062 Z M 289.230469 137.074219 "/>
<path style=" stroke:none;fill-rule:nonzero;fill:rgb(0%,0%,0%);fill-opacity:1;" d="M 310.054688 136.136719 L 312.714844 130.46875 C 316.828125 122.675781 318.40625 119.632812 316.910156 115.671875 C 315.203125 111.144531 310.441406 109.3125 305.601562 111.140625 C 301.117188 112.828125 299.5625 117.601562 300.890625 121.121094 C 301.726562 123.34375 303.71875 122.59375 303.828125 122.550781 C 304.511719 122.289062 305.710938 121.296875 305.097656 119.675781 C 304.707031 118.640625 303.617188 117.867188 302.222656 118.394531 C 301.90625 118.515625 301.824219 118.546875 301.722656 118.628906 C 301.664062 115.703125 303.242188 113.4375 305.542969 112.566406 C 309.148438 111.210938 312.082031 113.78125 313.308594 117.027344 C 314.5 120.195312 313.695312 124.078125 312.449219 127.355469 L 308.035156 138.714844 C 307.753906 139.3125 307.785156 139.394531 308.144531 140.347656 L 322.847656 134.800781 L 321.367188 127.476562 L 320.371094 127.855469 C 320.621094 129.117188 321.011719 130.964844 320.835938 131.714844 C 320.667969 132.132812 318.058594 133.113281 317.183594 133.441406 Z M 310.054688 136.136719 "/>
<path style=" stroke:none;fill-rule:nonzero;fill:rgb(0%,0%,0%);fill-opacity:1;" d="M 191.464844 345.605469 L 191.457031 344.980469 L 191.414062 344.355469 L 191.355469 343.753906 L 191.261719 343.15625 L 191.148438 342.582031 L 191.015625 342.019531 L 190.851562 341.476562 L 190.664062 340.945312 L 190.460938 340.4375 L 190.230469 339.9375 L 189.984375 339.460938 L 189.710938 338.996094 L 189.421875 338.558594 L 189.109375 338.132812 L 188.785156 337.730469 L 188.429688 337.351562 L 188.0625 336.980469 L 187.679688 336.636719 L 187.273438 336.3125 L 186.855469 336.015625 L 186.414062 335.730469 L 185.960938 335.480469 L 185.496094 335.238281 L 185.011719 335.027344 L 184.507812 334.84375 L 184 334.667969 L 183.472656 334.53125 L 182.933594 334.414062 L 182.382812 334.332031 L 181.8125 334.265625 L 181.242188 334.222656 L 180.65625 334.214844 L 180.402344 335.273438 C 183.878906 335.273438 187.699219 337.640625 187.699219 343.945312 C 187.699219 347.003906 186.550781 353.605469 182.355469 358.832031 C 180.324219 361.40625 176.839844 363.90625 173.292969 363.90625 C 169.089844 363.90625 166.132812 360.480469 166.132812 354.886719 C 166.132812 353.023438 166.71875 346.832031 169.984375 341.871094 C 172.910156 337.480469 177.050781 335.273438 180.402344 335.273438 L 180.65625 334.214844 C 171.515625 334.214844 162.1875 343.832031 162.1875 353.703125 C 162.1875 360.730469 166.929688 365.007812 173.035156 365.007812 C 182.007812 365.007812 191.464844 355.734375 191.464844 345.605469 Z M 191.464844 345.605469 "/>
<path style=" stroke:none;fill-rule:nonzero;fill:rgb(0%,0%,0%);fill-opacity:1;" d="M 226.34375 251.363281 L 226.183594 251.621094 L 226.03125 251.867188 L 225.867188 252.105469 L 225.707031 252.324219 L 225.554688 252.539062 L 225.390625 252.734375 L 225.230469 252.925781 L 225.078125 253.105469 L 224.917969 253.273438 L 224.753906 253.425781 L 224.601562 253.566406 L 224.441406 253.703125 L 224.277344 253.835938 L 224.125 253.949219 L 223.964844 254.066406 L 223.800781 254.164062 L 223.640625 254.261719 L 223.480469 254.34375 L 223.316406 254.421875 L 223.15625 254.496094 L 222.992188 254.558594 L 222.824219 254.613281 L 222.664062 254.675781 L 222.492188 254.71875 L 222.332031 254.761719 L 222.160156 254.796875 L 221.992188 254.824219 L 221.828125 254.855469 L 221.480469 254.898438 L 221.140625 254.921875 C 220.621094 254.964844 220.246094 254.964844 220.246094 255.773438 C 220.246094 256.023438 220.460938 256.238281 220.792969 256.238281 C 221.929688 256.238281 223.25 256.105469 224.429688 256.105469 C 225.824219 256.105469 227.3125 256.238281 228.675781 256.238281 C 228.921875 256.238281 229.484375 256.238281 229.484375 255.433594 C 229.484375 254.964844 229.101562 254.921875 228.800781 254.921875 C 227.824219 254.847656 226.8125 254.496094 226.8125 253.449219 C 226.8125 252.933594 227.066406 252.464844 227.398438 251.886719 L 230.621094 246.449219 L 241.253906 246.449219 L 241.132812 245.144531 L 231.421875 245.144531 L 239.78125 231.152344 L 241.132812 245.144531 L 241.253906 246.449219 C 241.34375 247.335938 241.933594 253.105469 241.933594 253.523438 C 241.933594 254.804688 239.730469 254.921875 238.886719 254.921875 C 238.292969 254.921875 237.867188 254.921875 237.867188 255.773438 C 237.867188 256.238281 238.371094 256.238281 238.460938 256.238281 C 240.1875 256.238281 242.027344 256.105469 243.753906 256.105469 C 244.816406 256.105469 247.484375 256.238281 248.546875 256.238281 C 248.804688 256.238281 249.304688 256.238281 249.304688 255.390625 C 249.304688 254.921875 248.878906 254.921875 248.335938 254.921875 C 245.707031 254.921875 245.707031 254.632812 245.570312 253.398438 L 242.996094 226.929688 C 242.902344 226.074219 242.902344 225.902344 242.1875 225.902344 C 241.507812 225.902344 241.34375 226.191406 241.082031 226.617188 Z M 226.34375 251.363281 "/>
<path style=" stroke:none;fill-rule:nonzero;fill:rgb(0%,0%,0%);fill-opacity:1;" d="M 398.132812 163.28125 L 398.746094 163.035156 L 399.359375 162.757812 L 399.960938 162.460938 L 400.566406 162.113281 L 401.160156 161.761719 L 401.746094 161.378906 L 402.324219 160.972656 L 402.90625 160.535156 L 403.457031 160.074219 L 404.011719 159.601562 L 404.546875 159.101562 L 405.0625 158.578125 L 405.574219 158.03125 L 406.058594 157.476562 L 406.535156 156.898438 L 406.996094 156.300781 L 407.429688 155.691406 L 407.84375 155.066406 L 408.238281 154.421875 L 408.609375 153.769531 L 408.960938 153.097656 L 409.28125 152.410156 L 409.578125 151.71875 L 409.851562 151.011719 L 410.097656 150.296875 L 410.3125 149.570312 L 410.488281 148.835938 L 410.644531 148.097656 L 410.769531 147.347656 L 410.855469 146.589844 L 410.90625 145.828125 L 410.921875 145.066406 C 410.921875 138.234375 406.433594 133.671875 400.113281 133.671875 L 399.859375 134.730469 C 404.09375 134.730469 407.191406 138.023438 407.191406 143.714844 C 407.191406 147.949219 405.03125 157.863281 397.921875 161.839844 C 397.707031 160.363281 397.285156 157.273438 394.1875 157.273438 L 394.1875 158.195312 C 395.964844 158.195312 396.773438 159.21875 396.773438 161.796875 C 396.773438 162.433594 396.722656 162.476562 396.296875 162.644531 C 395.207031 163.109375 393.933594 163.398438 392.75 163.398438 C 392.15625 163.398438 390.792969 163.398438 390.792969 161.578125 C 390.792969 159.898438 392.402344 158.195312 394.1875 158.195312 L 394.1875 157.273438 C 391.941406 157.273438 389.867188 159.398438 389.867188 161.578125 C 389.867188 162.433594 390.121094 162.898438 390.121094 162.941406 C 386.816406 161.644531 385.378906 158.335938 385.378906 154.515625 C 385.378906 151.589844 386.476562 145.574219 389.699219 141.003906 C 392.792969 136.675781 396.773438 134.730469 399.859375 134.730469 L 400.113281 133.671875 C 390.972656 133.671875 381.644531 143.289062 381.644531 153.160156 C 381.644531 160.1875 386.390625 164.464844 392.496094 164.464844 C 393.550781 164.464844 394.996094 164.296875 396.644531 163.824219 C 396.46875 166.464844 396.46875 166.535156 396.46875 167.101562 C 396.46875 168.449219 396.46875 171.761719 399.996094 171.761719 C 405.03125 171.761719 407.0625 164.007812 407.0625 163.535156 C 407.0625 163.246094 406.765625 163.109375 406.59375 163.109375 C 406.261719 163.109375 406.167969 163.324219 406.09375 163.578125 C 405.082031 166.59375 402.625 167.644531 401.136719 167.644531 C 399.179688 167.644531 398.542969 166.507812 398.132812 163.28125 Z M 398.132812 163.28125 "/>
<path style=" stroke:none;fill-rule:nonzero;fill:rgb(0%,0%,0%);fill-opacity:1;" d="M 78.347656 278.789062 L 78.527344 277.703125 L 81.410156 266.171875 C 81.777344 264.691406 81.871094 264.566406 83.6875 264.566406 L 87.761719 264.566406 C 91.285156 264.566406 93.527344 265.703125 93.527344 268.632812 C 93.527344 270.285156 92.679688 273.929688 91.027344 275.460938 C 88.902344 277.355469 86.367188 277.703125 84.488281 277.703125 L 78.527344 277.703125 L 78.347656 278.789062 L 85.550781 278.789062 C 91.574219 278.789062 97.457031 274.398438 97.457031 269.648438 C 97.457031 266.386719 94.667969 263.246094 89.113281 263.246094 L 75.390625 263.246094 C 74.582031 263.246094 74.113281 263.246094 74.113281 264.054688 C 74.113281 264.566406 74.496094 264.566406 75.347656 264.566406 C 75.890625 264.566406 76.664062 264.601562 77.167969 264.644531 C 77.847656 264.734375 78.101562 264.855469 78.101562 265.320312 C 78.101562 265.488281 78.058594 265.628906 77.921875 266.132812 L 72.25 288.878906 C 71.828125 290.535156 71.75 290.867188 68.398438 290.867188 C 67.683594 290.867188 67.21875 290.867188 67.21875 291.6875 C 67.21875 292.1875 67.71875 292.1875 67.839844 292.1875 C 69.035156 292.1875 72.039062 292.050781 73.222656 292.050781 C 74.113281 292.050781 75.039062 292.105469 75.933594 292.105469 C 76.878906 292.105469 77.804688 292.1875 78.699219 292.1875 C 78.988281 292.1875 79.53125 292.1875 79.53125 291.335938 C 79.53125 290.867188 79.164062 290.867188 78.347656 290.867188 C 76.785156 290.867188 75.601562 290.867188 75.601562 290.109375 C 75.601562 289.863281 75.679688 289.648438 75.722656 289.398438 Z M 78.347656 278.789062 "/>
</g>
</svg>
