<?xml version="1.0" encoding="UTF-8"?>
<svg xmlns="http://www.w3.org/2000/svg" xmlns:xlink="http://www.w3.org/1999/xlink" width="87pt" height="69pt" viewBox="0 0 87 69" version="1.1">
<defs>
<clipPath id="clip1">
  <path d="M 8 0.0742188 L 9 0.0742188 L 9 7 L 8 7 Z M 8 0.0742188 "/>
</clipPath>
<clipPath id="clip2">
  <path d="M 27 0.0742188 L 32 0.0742188 L 32 6 L 27 6 Z M 27 0.0742188 "/>
</clipPath>
<clipPath id="clip3">
  <path d="M 48 0.0742188 L 53 0.0742188 L 53 7 L 48 7 Z M 48 0.0742188 "/>
</clipPath>
<clipPath id="clip4">
  <path d="M 74 0.0742188 L 80 0.0742188 L 80 7 L 74 7 Z M 74 0.0742188 "/>
</clipPath>
</defs>
<g id="surface1">
<g clip-path="url(#clip1)" clip-rule="nonzero">
<path style=" stroke:none;fill-rule:nonzero;fill:rgb(0%,0%,0%);fill-opacity:1;" d="M 8.277344 1.515625 C 8.371094 2.355469 8.445312 3.792969 8.46875 4.730469 C 8.492188 6.339844 8.515625 6.386719 8.707031 5.472656 C 9.066406 4.011719 8.875 0.265625 8.46875 0.121094 C 8.179688 0.0273438 8.15625 0.289062 8.277344 1.515625 Z M 8.277344 1.515625 "/>
</g>
<g clip-path="url(#clip2)" clip-rule="nonzero">
<path style=" stroke:none;fill-rule:nonzero;fill:rgb(0%,0%,0%);fill-opacity:1;" d="M 27.570312 0.507812 C 27.066406 1.058594 27.066406 1.371094 27.523438 1.753906 C 27.835938 1.996094 27.882812 1.96875 27.882812 1.5625 C 27.882812 1.058594 28.699219 0.3125 29.25 0.3125 C 29.417969 0.3125 29.660156 0.53125 29.804688 0.792969 C 30.164062 1.464844 29.5625 2.761719 28.21875 4.203125 C 27.621094 4.828125 27.210938 5.472656 27.285156 5.59375 C 27.476562 5.90625 30.761719 5.90625 31.242188 5.59375 C 31.507812 5.425781 31.125 5.355469 29.996094 5.355469 C 29.082031 5.355469 28.363281 5.304688 28.363281 5.234375 C 28.363281 5.164062 28.722656 4.632812 29.179688 4.058594 C 30.140625 2.785156 30.621094 1.464844 30.425781 0.648438 C 30.285156 0.144531 30.140625 0.0742188 29.109375 0.0742188 C 28.292969 0.0742188 27.835938 0.195312 27.570312 0.507812 Z M 27.570312 0.507812 "/>
</g>
<g clip-path="url(#clip3)" clip-rule="nonzero">
<path style=" stroke:none;fill-rule:nonzero;fill:rgb(0%,0%,0%);fill-opacity:1;" d="M 48.644531 0.410156 C 48.210938 0.722656 48.210938 0.746094 48.644531 1.417969 C 49.050781 2.042969 49.125 2.066406 49.195312 1.632812 C 49.339844 0.914062 49.628906 0.722656 50.300781 0.890625 C 51.089844 1.082031 51.089844 1.632812 50.277344 2.808594 L 49.652344 3.746094 L 50.371094 4.417969 C 50.78125 4.777344 51.308594 5.164062 51.546875 5.304688 C 52.242188 5.691406 51.789062 5.882812 50.082031 5.929688 C 49.171875 5.929688 48.546875 6.050781 48.59375 6.195312 C 48.8125 6.867188 52.363281 6.386719 52.363281 5.714844 C 52.363281 5.378906 51.859375 4.828125 50.828125 4.082031 C 50.371094 3.746094 50.371094 3.722656 50.875 2.90625 C 51.164062 2.425781 51.402344 1.777344 51.402344 1.441406 C 51.402344 0.289062 49.675781 -0.359375 48.644531 0.410156 Z M 48.644531 0.410156 "/>
</g>
<g clip-path="url(#clip4)" clip-rule="nonzero">
<path style=" stroke:none;fill-rule:nonzero;fill:rgb(0%,0%,0%);fill-opacity:1;" d="M 75.882812 1.320312 C 75.570312 2.019531 75.1875 2.953125 74.996094 3.410156 L 74.660156 4.203125 L 75.738281 4.058594 C 76.652344 3.914062 76.84375 3.960938 77.058594 4.371094 C 77.203125 4.632812 77.324219 5.210938 77.324219 5.640625 C 77.324219 6.074219 77.445312 6.601562 77.5625 6.792969 C 77.730469 7.058594 77.804688 6.675781 77.804688 5.546875 L 77.804688 3.9375 L 78.714844 3.867188 L 79.601562 3.769531 L 78.882812 3.578125 C 77.78125 3.265625 77.585938 3.027344 77.277344 1.488281 C 77.109375 0.722656 76.867188 0.0742188 76.699219 0.0742188 C 76.554688 0.0742188 76.171875 0.648438 75.882812 1.320312 Z M 76.941406 2.257812 C 77.109375 3.097656 76.964844 3.433594 76.484375 3.433594 C 75.980469 3.433594 75.859375 3.074219 76.148438 2.257812 C 76.484375 1.320312 76.746094 1.320312 76.941406 2.257812 Z M 76.941406 2.257812 "/>
</g>
<path style=" stroke:none;fill-rule:nonzero;fill:rgb(0%,0%,0%);fill-opacity:1;" d="M 2.949219 9.457031 C 1.433594 9.554688 0.140625 9.746094 0.0664062 9.84375 C -0.00390625 9.9375 -0.0273438 13.152344 0.0429688 16.996094 C 0.1875 24.9375 0.453125 24.84375 0.621094 16.777344 C 0.761719 10.609375 0.835938 10.320312 2.371094 10.082031 C 3.691406 9.84375 14.753906 9.890625 15.117188 10.105469 C 15.332031 10.25 15.476562 12.003906 15.644531 16.417969 C 15.90625 22.875 15.859375 23.835938 15.210938 23.835938 C 14.875 23.859375 14.921875 23.953125 15.378906 24.3125 C 15.667969 24.578125 16.027344 24.722656 16.148438 24.648438 C 16.265625 24.578125 16.363281 23.617188 16.363281 22.515625 C 16.363281 20.617188 15.882812 9.578125 15.8125 9.53125 C 15.570312 9.363281 5.011719 9.289062 2.949219 9.457031 Z M 2.949219 9.457031 "/>
<path style=" stroke:none;fill-rule:nonzero;fill:rgb(0%,0%,0%);fill-opacity:1;" d="M 32.5625 9.457031 C 25.578125 10.152344 23.828125 10.347656 23.585938 10.488281 C 23.445312 10.585938 23.324219 11.402344 23.324219 12.507812 C 23.324219 15.242188 23.828125 22.203125 24.066406 22.753906 C 24.285156 23.234375 24.1875 18.84375 23.898438 13.585938 L 23.753906 11.164062 L 25.050781 10.898438 C 26.949219 10.488281 31.941406 9.9375 35.109375 9.769531 L 37.890625 9.601562 L 38.035156 10.753906 C 38.277344 12.339844 38.226562 20.808594 37.988281 22.25 C 37.84375 23.042969 37.601562 23.570312 37.21875 23.859375 L 36.644531 24.3125 L 38.371094 24.3125 L 38.515625 22.320312 C 38.730469 19.777344 38.730469 11.738281 38.539062 10.296875 L 38.371094 9.195312 L 36.425781 9.21875 C 35.371094 9.242188 33.621094 9.339844 32.5625 9.457031 Z M 32.5625 9.457031 "/>
<path style=" stroke:none;fill-rule:nonzero;fill:rgb(0%,0%,0%);fill-opacity:1;" d="M 45.667969 9.890625 C 45.402344 10.058594 45.378906 11.257812 45.523438 16.777344 C 45.691406 23.667969 45.859375 25.128906 46.507812 25.371094 C 47.109375 25.609375 59.035156 25.515625 58.484375 25.273438 C 58.21875 25.152344 55.964844 25.058594 53.445312 25.035156 C 50.949219 25.011719 48.285156 24.914062 47.5625 24.84375 L 46.242188 24.675781 L 46.074219 18.433594 C 45.90625 11.667969 46.027344 10.464844 46.914062 10.296875 C 49.148438 9.816406 60.285156 10.082031 60.835938 10.609375 C 61.050781 10.828125 61.601562 16.730469 61.867188 21.363281 L 62.035156 24.554688 L 61.21875 24.554688 C 60.1875 24.554688 60.570312 24.984375 61.769531 25.203125 L 62.636719 25.320312 L 62.539062 23.332031 C 62.324219 19.875 61.699219 11.761719 61.578125 10.851562 L 61.433594 9.984375 L 58.027344 9.84375 C 53.203125 9.601562 46.050781 9.648438 45.667969 9.890625 Z M 45.667969 9.890625 "/>
<path style=" stroke:none;fill-rule:nonzero;fill:rgb(0%,0%,0%);fill-opacity:1;" d="M 71.875 9.867188 C 69.789062 10.035156 69.453125 10.179688 69.957031 10.585938 C 70.148438 10.753906 70.578125 10.777344 71.203125 10.632812 C 71.730469 10.515625 74.660156 10.394531 77.730469 10.394531 C 83.058594 10.394531 85.53125 10.632812 85.867188 11.164062 C 86.058594 11.449219 85.988281 24.195312 85.820312 24.675781 C 85.746094 24.867188 85.53125 24.9375 85.339844 24.867188 C 84.738281 24.648438 84.980469 25.417969 85.578125 25.707031 C 86.035156 25.898438 86.179688 25.898438 86.300781 25.632812 C 86.394531 25.347656 86.492188 18.003906 86.46875 12.289062 L 86.445312 10.441406 L 84.59375 10.179688 C 82.242188 9.867188 74.492188 9.675781 71.875 9.867188 Z M 71.875 9.867188 "/>
<path style=" stroke:none;fill-rule:nonzero;fill:rgb(0%,0%,0%);fill-opacity:1;" d="M 68.5625 11.5 C 68.660156 11.761719 68.875 14.882812 69.019531 18.480469 C 69.164062 22.058594 69.378906 25.082031 69.5 25.203125 C 69.738281 25.417969 69.476562 13.707031 69.210938 12.21875 C 69.117188 11.691406 68.898438 11.234375 68.707031 11.164062 C 68.445312 11.066406 68.417969 11.164062 68.5625 11.5 Z M 68.5625 11.5 "/>
<path style=" stroke:none;fill-rule:nonzero;fill:rgb(0%,0%,0%);fill-opacity:1;" d="M 4.003906 13.347656 C 3.546875 14.066406 3.714844 14.570312 4.53125 14.929688 C 5.324219 15.289062 5.613281 15.027344 5.660156 13.828125 C 5.683594 13.011719 5.613281 12.914062 5.035156 12.84375 C 4.578125 12.792969 4.292969 12.914062 4.003906 13.347656 Z M 4.003906 13.347656 "/>
<path style=" stroke:none;fill-rule:nonzero;fill:rgb(0%,0%,0%);fill-opacity:1;" d="M 56.707031 13.660156 C 56.082031 14.449219 56.132812 15.289062 56.828125 15.386719 C 57.5 15.480469 58.171875 14.667969 58.074219 13.828125 C 57.980469 12.9375 57.355469 12.84375 56.707031 13.660156 Z M 56.707031 13.660156 "/>
<path style=" stroke:none;fill-rule:nonzero;fill:rgb(0%,0%,0%);fill-opacity:1;" d="M 73.148438 13.5625 C 72.570312 14.378906 72.644531 15.410156 73.316406 15.648438 C 74.109375 15.9375 74.417969 15.722656 74.585938 14.761719 C 74.851562 13.320312 73.890625 12.507812 73.148438 13.5625 Z M 73.148438 13.5625 "/>
<path style=" stroke:none;fill-rule:nonzero;fill:rgb(0%,0%,0%);fill-opacity:1;" d="M 49.171875 13.441406 C 49.074219 13.515625 49.003906 14.019531 49.003906 14.523438 C 49.003906 15.3125 49.074219 15.433594 49.554688 15.433594 C 50.15625 15.433594 50.921875 14.761719 50.921875 14.28125 C 50.921875 14.136719 50.613281 13.851562 50.203125 13.632812 C 49.410156 13.226562 49.386719 13.226562 49.171875 13.441406 Z M 49.171875 13.441406 "/>
<path style=" stroke:none;fill-rule:nonzero;fill:rgb(0%,0%,0%);fill-opacity:1;" d="M 7.386719 16.296875 C 6.90625 16.777344 6.90625 17.332031 7.386719 18.027344 C 7.820312 18.675781 8.25 18.699219 8.753906 18.121094 C 9.835938 16.945312 8.492188 15.171875 7.386719 16.296875 Z M 7.386719 16.296875 "/>
<path style=" stroke:none;fill-rule:nonzero;fill:rgb(0%,0%,0%);fill-opacity:1;" d="M 29.753906 16.753906 C 29.417969 17.472656 29.707031 18.480469 30.332031 18.890625 C 30.667969 19.105469 30.882812 19.035156 31.410156 18.507812 C 32.058594 17.859375 32.058594 17.835938 31.652344 16.996094 C 31.148438 15.9375 30.1875 15.816406 29.753906 16.753906 Z M 29.753906 16.753906 "/>
<path style=" stroke:none;fill-rule:nonzero;fill:rgb(0%,0%,0%);fill-opacity:1;" d="M 49.484375 17.570312 C 49.195312 18.144531 49.171875 18.960938 49.460938 19.128906 C 50.132812 19.5625 51.1875 18.074219 50.660156 17.449219 C 50.277344 16.96875 49.796875 17.042969 49.484375 17.570312 Z M 49.484375 17.570312 "/>
<path style=" stroke:none;fill-rule:nonzero;fill:rgb(0%,0%,0%);fill-opacity:1;" d="M 56.613281 17.59375 C 55.796875 18.242188 55.769531 18.984375 56.5625 19.179688 C 57.402344 19.394531 57.929688 18.890625 57.835938 18.003906 C 57.738281 17.066406 57.402344 16.96875 56.613281 17.59375 Z M 56.613281 17.59375 "/>
<path style=" stroke:none;fill-rule:nonzero;fill:rgb(0%,0%,0%);fill-opacity:1;" d="M 80.707031 19.488281 C 79.867188 20.332031 80.179688 21.675781 81.164062 21.675781 C 81.835938 21.675781 82.652344 20.59375 82.554688 19.851562 C 82.460938 18.9375 81.425781 18.769531 80.707031 19.488281 Z M 80.707031 19.488281 "/>
<path style=" stroke:none;fill-rule:nonzero;fill:rgb(0%,0%,0%);fill-opacity:1;" d="M 9.929688 20.042969 C 9.570312 20.402344 9.546875 21.242188 9.929688 21.625 C 10.675781 22.371094 12.355469 21.578125 12.234375 20.523438 C 12.164062 19.945312 12.042969 19.875 11.203125 19.800781 C 10.652344 19.753906 10.097656 19.875 9.929688 20.042969 Z M 9.929688 20.042969 "/>
<path style=" stroke:none;fill-rule:nonzero;fill:rgb(0%,0%,0%);fill-opacity:1;" d="M 49.628906 20.859375 C 49.148438 21.339844 49.148438 22.011719 49.601562 22.394531 C 49.890625 22.632812 50.082031 22.609375 50.5625 22.296875 C 51.234375 21.867188 51.285156 21.625 50.921875 20.929688 C 50.613281 20.378906 50.132812 20.355469 49.628906 20.859375 Z M 49.628906 20.859375 "/>
<path style=" stroke:none;fill-rule:nonzero;fill:rgb(0%,0%,0%);fill-opacity:1;" d="M 56.347656 21.339844 C 55.601562 22.058594 56.035156 23.113281 57.042969 23.113281 C 57.621094 23.113281 58.363281 22.417969 58.363281 21.890625 C 58.363281 21.003906 57.042969 20.640625 56.347656 21.339844 Z M 56.347656 21.339844 "/>
<path style=" stroke:none;fill-rule:nonzero;fill:rgb(0%,0%,0%);fill-opacity:1;" d="M 2.636719 24.480469 C 1.003906 24.578125 0.5 24.890625 1.578125 25.179688 C 1.890625 25.25 3.523438 25.203125 5.179688 25.058594 C 6.859375 24.914062 9.546875 24.792969 11.15625 24.769531 C 13.003906 24.746094 13.867188 24.675781 13.484375 24.554688 C 12.90625 24.363281 5.828125 24.3125 2.636719 24.480469 Z M 2.636719 24.480469 "/>
<path style=" stroke:none;fill-rule:nonzero;fill:rgb(0%,0%,0%);fill-opacity:1;" d="M 70.914062 24.625 C 70.53125 25.25 72.140625 25.371094 78.691406 25.128906 L 84.402344 24.9375 L 81.523438 24.769531 C 76.675781 24.480469 71.058594 24.410156 70.914062 24.625 Z M 70.914062 24.625 "/>
<path style=" stroke:none;fill-rule:nonzero;fill:rgb(0%,0%,0%);fill-opacity:1;" d="M 27.59375 25.011719 C 26.058594 25.082031 24.714844 25.25 24.621094 25.347656 C 24.308594 25.660156 25.074219 26.019531 25.722656 25.875 C 26.058594 25.800781 28.460938 25.632812 31.050781 25.464844 C 33.644531 25.320312 35.730469 25.105469 35.660156 24.984375 C 35.515625 24.769531 32.179688 24.792969 27.59375 25.011719 Z M 27.59375 25.011719 "/>
<path style=" stroke:none;fill-rule:nonzero;fill:rgb(0%,0%,0%);fill-opacity:1;" d="M 30.644531 40.394531 C 29.730469 40.515625 27.90625 40.753906 26.636719 40.898438 C 24.8125 41.113281 24.285156 41.257812 24.285156 41.523438 C 24.285156 41.785156 24.453125 41.859375 24.957031 41.738281 C 26.613281 41.402344 30.378906 40.898438 32.445312 40.753906 C 34.746094 40.585938 39.621094 40.945312 40.699219 41.355469 C 41.445312 41.617188 41.515625 42.171875 41.707031 49.320312 L 41.875 55.035156 L 41.203125 55.035156 C 40.652344 55.035156 40.601562 55.082031 40.84375 55.394531 C 40.988281 55.585938 41.058594 55.851562 40.964844 55.996094 C 40.867188 56.136719 38.109375 56.234375 32.851562 56.257812 C 25.171875 56.257812 22.890625 56.425781 24.761719 56.808594 C 25.21875 56.882812 27.476562 56.835938 29.804688 56.691406 C 32.109375 56.546875 35.636719 56.472656 37.601562 56.546875 C 39.59375 56.617188 41.492188 56.617188 41.875 56.546875 C 42.453125 56.425781 42.523438 56.332031 42.425781 55.660156 C 42.355469 55.25 42.234375 51.722656 42.140625 47.808594 L 41.996094 40.707031 L 39.425781 40.539062 C 34.125 40.226562 32.277344 40.203125 30.644531 40.394531 Z M 30.644531 40.394531 "/>
<path style=" stroke:none;fill-rule:nonzero;fill:rgb(0%,0%,0%);fill-opacity:1;" d="M 52.316406 40.296875 C 52.003906 40.585938 52.097656 41.113281 52.460938 41.113281 C 52.652344 41.113281 52.867188 41.28125 52.941406 41.5 C 53.15625 42.074219 53.109375 46.394531 52.84375 47.472656 C 52.722656 48.003906 52.554688 50.164062 52.460938 52.273438 C 52.316406 55.777344 52.265625 56.136719 51.8125 56.523438 L 51.285156 56.90625 L 51.929688 57.074219 C 52.265625 57.171875 54.667969 57.121094 57.234375 56.976562 C 59.828125 56.835938 63.90625 56.691406 66.332031 56.691406 C 68.730469 56.667969 70.433594 56.59375 70.097656 56.546875 C 69.621094 56.472656 69.425781 56.28125 69.332031 55.777344 C 69.257812 55.394531 69.117188 51.914062 69.019531 48.027344 L 68.851562 40.945312 L 65.585938 40.683594 C 61.148438 40.296875 52.53125 40.058594 52.316406 40.296875 Z M 67.003906 41.304688 L 68.324219 41.472656 L 68.394531 48.289062 C 68.445312 53.59375 68.371094 55.152344 68.15625 55.296875 C 67.988281 55.417969 67.84375 55.632812 67.84375 55.800781 C 67.84375 56.234375 65.417969 56.402344 58.914062 56.449219 C 53.753906 56.472656 53.5625 56.449219 53.324219 55.96875 C 53.011719 55.417969 53.371094 46.539062 53.851562 42.9375 L 54.117188 40.800781 L 59.898438 40.96875 C 63.089844 41.066406 66.285156 41.210938 67.003906 41.304688 Z M 67.003906 41.304688 "/>
<path style=" stroke:none;fill-rule:nonzero;fill:rgb(0%,0%,0%);fill-opacity:1;" d="M 56.371094 43.921875 C 56.109375 44.1875 56.179688 45.074219 56.492188 45.386719 C 56.875 45.769531 57.453125 45.746094 58.003906 45.339844 C 58.433594 45.027344 58.433594 44.976562 58.050781 44.378906 C 57.644531 43.777344 56.753906 43.539062 56.371094 43.921875 Z M 56.371094 43.921875 "/>
<path style=" stroke:none;fill-rule:nonzero;fill:rgb(0%,0%,0%);fill-opacity:1;" d="M 62.804688 44.355469 C 61.867188 45.265625 62.132812 46.394531 63.285156 46.394531 C 64.339844 46.394531 65.035156 44.761719 64.316406 44.042969 C 63.882812 43.609375 63.453125 43.683594 62.804688 44.355469 Z M 62.804688 44.355469 "/>
<path style=" stroke:none;fill-rule:nonzero;fill:rgb(0%,0%,0%);fill-opacity:1;" d="M 57.066406 48.53125 C 56.539062 49.128906 56.636719 50.332031 57.234375 50.425781 C 58.265625 50.617188 59.179688 48.578125 58.21875 48.21875 C 57.644531 48.003906 57.523438 48.027344 57.066406 48.53125 Z M 57.066406 48.53125 "/>
<path style=" stroke:none;fill-rule:nonzero;fill:rgb(0%,0%,0%);fill-opacity:1;" d="M 63.089844 48.625 C 62.851562 48.769531 62.636719 49.25 62.613281 49.632812 C 62.5625 50.234375 62.660156 50.378906 63.140625 50.425781 C 63.957031 50.546875 64.84375 50.019531 64.84375 49.394531 C 64.84375 48.410156 63.90625 48.003906 63.089844 48.625 Z M 63.089844 48.625 "/>
<path style=" stroke:none;fill-rule:nonzero;fill:rgb(0%,0%,0%);fill-opacity:1;" d="M 57.761719 52.730469 C 57.285156 53.449219 57.453125 53.835938 58.21875 53.835938 C 59.347656 53.835938 59.753906 52.347656 58.675781 52.203125 C 58.339844 52.152344 58.027344 52.320312 57.761719 52.730469 Z M 57.761719 52.730469 "/>
<path style=" stroke:none;fill-rule:nonzero;fill:rgb(0%,0%,0%);fill-opacity:1;" d="M 63.691406 52.777344 C 62.996094 53.257812 63.066406 54.171875 63.789062 54.265625 C 64.460938 54.363281 65.132812 53.691406 65.035156 53.019531 C 64.941406 52.371094 64.386719 52.273438 63.691406 52.777344 Z M 63.691406 52.777344 "/>
<path style=" stroke:none;fill-rule:nonzero;fill:rgb(0%,0%,0%);fill-opacity:1;" d="M 25.988281 42.3125 C 25.914062 42.410156 25.601562 46.394531 25.097656 53.113281 C 25.003906 54.648438 25.027344 55.320312 25.195312 55.152344 C 25.507812 54.84375 26.277344 45.53125 26.15625 43.632812 C 26.109375 42.84375 26.011719 42.242188 25.988281 42.3125 Z M 25.988281 42.3125 "/>
<path style=" stroke:none;fill-rule:nonzero;fill:rgb(0%,0%,0%);fill-opacity:1;" d="M 36.089844 44.136719 C 35.707031 44.402344 35.5625 44.714844 35.613281 45.144531 C 35.707031 45.984375 36.714844 46.152344 37.363281 45.433594 C 37.722656 45.027344 37.746094 44.859375 37.53125 44.355469 C 37.21875 43.660156 36.835938 43.609375 36.089844 44.136719 Z M 36.089844 44.136719 "/>
<path style=" stroke:none;fill-rule:nonzero;fill:rgb(0%,0%,0%);fill-opacity:1;" d="M 29.730469 44.402344 C 29.132812 44.976562 30.066406 46.5625 30.859375 46.25 C 31.292969 46.082031 31.601562 45.144531 31.386719 44.59375 C 31.265625 44.234375 30.019531 44.089844 29.730469 44.402344 Z M 29.730469 44.402344 "/>
<path style=" stroke:none;fill-rule:nonzero;fill:rgb(0%,0%,0%);fill-opacity:1;" d="M 30.425781 48.363281 C 29.949219 49.035156 29.949219 49.371094 30.402344 49.753906 C 30.980469 50.234375 32.011719 49.441406 31.914062 48.601562 C 31.820312 47.738281 30.957031 47.59375 30.425781 48.363281 Z M 30.425781 48.363281 "/>
<path style=" stroke:none;fill-rule:nonzero;fill:rgb(0%,0%,0%);fill-opacity:1;" d="M 36.425781 48.289062 C 35.921875 48.84375 35.996094 49.464844 36.59375 49.851562 C 37.460938 50.402344 38.394531 49.011719 37.722656 48.171875 C 37.316406 47.714844 36.90625 47.738281 36.425781 48.289062 Z M 36.425781 48.289062 "/>
<path style=" stroke:none;fill-rule:nonzero;fill:rgb(0%,0%,0%);fill-opacity:1;" d="M 30.117188 51.960938 C 29.851562 52.273438 29.730469 52.753906 29.78125 53.28125 C 29.828125 53.761719 30.882812 53.640625 31.386719 53.089844 C 31.722656 52.730469 31.769531 52.515625 31.578125 52.203125 C 31.242188 51.675781 30.453125 51.554688 30.117188 51.960938 Z M 30.117188 51.960938 "/>
<path style=" stroke:none;fill-rule:nonzero;fill:rgb(0%,0%,0%);fill-opacity:1;" d="M 36.042969 52.347656 C 35.011719 53.1875 36.019531 54.21875 37.148438 53.472656 C 37.554688 53.210938 37.722656 52.898438 37.675781 52.5625 C 37.578125 51.867188 36.761719 51.769531 36.042969 52.347656 Z M 36.042969 52.347656 "/>
<path style=" stroke:none;fill-rule:nonzero;fill:rgb(0%,0%,0%);fill-opacity:1;" d="M 61.242188 59.882812 C 60.835938 60.84375 59.804688 66.050781 59.949219 66.433594 C 60.019531 66.625 60.5 66.914062 61.027344 67.058594 C 61.796875 67.296875 62.035156 67.273438 62.515625 66.960938 C 63.210938 66.507812 63.523438 65.523438 63.164062 64.875 C 62.972656 64.515625 62.660156 64.394531 61.820312 64.394531 L 60.738281 64.394531 L 60.90625 63.480469 C 60.980469 63.003906 61.265625 61.898438 61.507812 61.058594 C 62.035156 59.28125 62.035156 59.355469 61.722656 59.355469 C 61.578125 59.355469 61.363281 59.59375 61.242188 59.882812 Z M 62.636719 65.5 C 62.683594 65.761719 62.492188 66.171875 62.226562 66.410156 C 61.820312 66.769531 61.675781 66.792969 61.363281 66.554688 C 60.980469 66.242188 60.882812 65.332031 61.171875 65.019531 C 61.53125 64.660156 62.5625 64.996094 62.636719 65.5 Z M 62.636719 65.5 "/>
<path style=" stroke:none;fill-rule:nonzero;fill:rgb(0%,0%,0%);fill-opacity:1;" d="M 32.300781 62.640625 C 31.796875 63.816406 32.058594 64.632812 33.042969 64.945312 C 33.980469 65.234375 34.601562 65.808594 34.601562 66.3125 C 34.601562 66.867188 33.835938 67.515625 33.1875 67.515625 C 32.898438 67.515625 32.730469 67.609375 32.804688 67.753906 C 33.285156 68.523438 35.324219 67.347656 35.324219 66.3125 C 35.324219 65.808594 34.21875 64.730469 33.355469 64.417969 C 32.492188 64.105469 32.394531 62.835938 33.1875 62.59375 C 33.738281 62.402344 33.691406 61.921875 33.066406 61.800781 C 32.804688 61.730469 32.5625 61.996094 32.300781 62.640625 Z M 32.300781 62.640625 "/>
<path style=" stroke:none;fill-rule:nonzero;fill:rgb(0%,0%,0%);fill-opacity:1;" d="M 34.410156 62.691406 C 33.714844 62.929688 33.066406 63.195312 32.996094 63.289062 C 32.636719 63.648438 33.1875 63.648438 34.386719 63.289062 C 35.109375 63.074219 36.546875 62.761719 37.601562 62.59375 L 39.523438 62.28125 L 37.601562 62.28125 C 36.355469 62.28125 35.226562 62.425781 34.410156 62.691406 Z M 34.410156 62.691406 "/>
<path style=" stroke:none;fill-rule:nonzero;fill:rgb(0%,0%,0%);fill-opacity:1;" d="M 67.242188 66.9375 C 67.242188 67.152344 67.363281 67.273438 67.53125 67.226562 C 67.964844 67.082031 68.035156 66.554688 67.628906 66.554688 C 67.410156 66.554688 67.242188 66.722656 67.242188 66.9375 Z M 67.242188 66.9375 "/>
</g>
</svg>
