<?xml version="1.0" encoding="UTF-8"?>
<svg xmlns="http://www.w3.org/2000/svg" xmlns:xlink="http://www.w3.org/1999/xlink" width="105pt" height="77pt" viewBox="0 0 105 77" version="1.1">
<defs>
<clipPath id="clip1">
  <path d="M 10 0.941406 L 12 0.941406 L 12 6 L 10 6 Z M 10 0.941406 "/>
</clipPath>
</defs>
<g id="surface1">
<g clip-path="url(#clip1)" clip-rule="nonzero">
<path style=" stroke:none;fill-rule:nonzero;fill:rgb(0%,0%,0%);fill-opacity:1;" d="M 10.449219 1.46875 C 10.542969 1.996094 11.046875 5.621094 11.046875 5.933594 C 11.046875 6.003906 11.167969 5.957031 11.3125 5.8125 C 11.71875 5.40625 11.121094 0.941406 10.664062 0.941406 C 10.421875 0.941406 10.351562 1.132812 10.449219 1.46875 Z M 10.449219 1.46875 "/>
</g>
<path style=" stroke:none;fill-rule:nonzero;fill:rgb(0%,0%,0%);fill-opacity:1;" d="M 94.085938 2.910156 C 93.535156 3.582031 92.9375 4.445312 92.742188 4.828125 L 92.382812 5.550781 L 93.777344 5.476562 L 95.167969 5.40625 L 95.359375 6.484375 C 95.695312 8.355469 95.769531 8.621094 96.007812 8.621094 C 96.152344 8.621094 96.199219 8.382812 96.152344 8.070312 C 96.078125 7.78125 95.960938 7.039062 95.886719 6.390625 L 95.742188 5.261719 L 97.136719 5.382812 L 98.527344 5.5 L 97.207031 5.070312 L 95.886719 4.636719 L 95.671875 3.148438 C 95.550781 2.332031 95.359375 1.660156 95.265625 1.660156 C 95.144531 1.660156 94.617188 2.214844 94.085938 2.910156 Z M 95.191406 3.703125 C 95.382812 4.445312 94.953125 5.019531 94.183594 5.019531 C 93.464844 5.019531 93.464844 4.734375 94.136719 3.820312 C 94.785156 2.933594 95 2.933594 95.191406 3.703125 Z M 95.191406 3.703125 "/>
<path style=" stroke:none;fill-rule:nonzero;fill:rgb(0%,0%,0%);fill-opacity:1;" d="M 67.304688 2.382812 C 66.726562 2.621094 66.441406 3.171875 66.632812 3.703125 C 66.847656 4.230469 67.207031 4.132812 67.207031 3.582031 C 67.207031 3.078125 67.855469 2.621094 68.625 2.621094 C 69.464844 2.621094 69.441406 3.125 68.527344 4.0625 L 67.640625 4.972656 L 68.648438 5.933594 C 69.199219 6.460938 69.582031 7.011719 69.511719 7.132812 C 69.273438 7.515625 66.871094 7.757812 66.296875 7.445312 C 65.984375 7.277344 65.742188 7.277344 65.648438 7.398438 C 65.574219 7.542969 65.742188 7.757812 66.03125 7.925781 C 66.917969 8.382812 70.328125 7.734375 70.328125 7.085938 C 70.328125 6.917969 69.894531 6.390625 69.390625 5.886719 L 68.433594 4.949219 L 69.152344 4.277344 C 69.535156 3.917969 69.847656 3.414062 69.847656 3.125 C 69.847656 2.285156 68.503906 1.878906 67.304688 2.382812 Z M 67.304688 2.382812 "/>
<path style=" stroke:none;fill-rule:nonzero;fill:rgb(0%,0%,0%);fill-opacity:1;" d="M 38.265625 2.886719 C 37.855469 3.003906 37.351562 3.292969 37.136719 3.535156 C 36.777344 3.917969 36.777344 4.039062 37.085938 4.445312 C 37.421875 4.878906 37.421875 4.878906 37.449219 4.375 C 37.449219 3.75 38.09375 3.339844 39.105469 3.339844 C 40.640625 3.339844 40.183594 4.324219 37.808594 6.101562 C 36.945312 6.75 36.246094 7.421875 36.246094 7.566406 C 36.246094 7.734375 36.96875 7.828125 38.480469 7.804688 C 39.679688 7.78125 41 7.878906 41.359375 7.972656 C 41.9375 8.140625 42.03125 8.09375 41.960938 7.734375 C 41.886719 7.375 41.574219 7.300781 39.777344 7.230469 C 38.625 7.207031 37.6875 7.0625 37.6875 6.941406 C 37.6875 6.796875 37.808594 6.703125 37.925781 6.703125 C 38.480469 6.703125 40.566406 4.324219 40.566406 3.726562 C 40.566406 2.765625 39.726562 2.453125 38.265625 2.886719 Z M 38.265625 2.886719 "/>
<path style=" stroke:none;fill-rule:nonzero;fill:rgb(0%,0%,0%);fill-opacity:1;" d="M 89.289062 11.019531 C 88.976562 11.214844 88.925781 12.460938 88.855469 19.230469 C 88.808594 23.621094 88.832031 27.148438 88.925781 27.078125 C 89 26.980469 89.167969 23.644531 89.289062 19.636719 C 89.382812 15.628906 89.550781 12.148438 89.671875 11.886719 C 89.839844 11.453125 90.152344 11.453125 96.464844 11.550781 C 100.113281 11.621094 103.253906 11.742188 103.472656 11.835938 C 103.925781 12.03125 104.070312 14.09375 104.335938 23.238281 L 104.480469 29.09375 L 103.953125 28.949219 C 103.449219 28.828125 103.421875 28.851562 103.757812 29.332031 C 103.953125 29.621094 104.289062 29.910156 104.527344 29.933594 C 104.9375 30.03125 104.9375 29.644531 104.792969 23.453125 C 104.71875 19.851562 104.574219 15.628906 104.503906 14.09375 L 104.359375 11.285156 L 103.113281 11.164062 C 100.589844 10.902344 89.648438 10.804688 89.289062 11.019531 Z M 89.289062 11.019531 "/>
<path style=" stroke:none;fill-rule:nonzero;fill:rgb(0%,0%,0%);fill-opacity:1;" d="M 1.566406 11.5 C 1.832031 11.621094 5.480469 11.71875 9.65625 11.71875 L 17.289062 11.742188 L 17.625 12.269531 C 18.199219 13.15625 18.582031 16.851562 18.609375 21.460938 C 18.609375 26.070312 18.464844 27.222656 17.886719 27.003906 C 17.433594 26.835938 17.433594 26.933594 18.007812 28.0625 L 18.488281 29.019531 L 9.679688 29.046875 C 4.328125 29.070312 1.230469 29.164062 1.808594 29.285156 C 2.910156 29.5 17.382812 29.574219 18.199219 29.355469 C 18.511719 29.261719 18.800781 28.925781 18.917969 28.566406 C 19.375 26.910156 18.945312 14.355469 18.320312 11.789062 L 18.199219 11.261719 L 9.632812 11.285156 C 4.640625 11.285156 1.28125 11.382812 1.566406 11.5 Z M 1.566406 11.5 "/>
<path style=" stroke:none;fill-rule:nonzero;fill:rgb(0%,0%,0%);fill-opacity:1;" d="M 0.175781 12.390625 C -0.113281 12.652344 -0.015625 27.339844 0.246094 27.339844 C 0.390625 27.339844 0.488281 24.652344 0.488281 19.78125 C 0.488281 15.628906 0.464844 12.222656 0.414062 12.222656 C 0.367188 12.222656 0.246094 12.292969 0.175781 12.390625 Z M 0.175781 12.390625 "/>
<path style=" stroke:none;fill-rule:nonzero;fill:rgb(0%,0%,0%);fill-opacity:1;" d="M 60.800781 12.367188 C 60.582031 12.460938 60.582031 12.652344 60.894531 13.085938 C 61.230469 13.613281 61.253906 14.527344 61.136719 21.054688 C 60.96875 29.71875 61.28125 29.597656 61.664062 20.863281 C 62 13.398438 62.070312 12.964844 62.816406 12.796875 C 63.679688 12.558594 75.847656 12.871094 76.6875 13.132812 C 77.144531 13.277344 77.382812 13.492188 77.359375 13.757812 C 77.359375 13.996094 77.480469 15.964844 77.671875 18.171875 C 77.839844 20.382812 78.007812 23.285156 78.007812 24.628906 C 78.007812 26.980469 77.984375 27.078125 77.480469 27.148438 L 76.925781 27.222656 L 77.527344 27.75 C 77.839844 28.0625 78.199219 28.300781 78.320312 28.300781 C 78.535156 28.300781 78.464844 24.03125 78.105469 16.132812 L 77.9375 12.75 L 77.070312 12.605469 C 75.945312 12.390625 61.183594 12.199219 60.800781 12.367188 Z M 60.800781 12.367188 "/>
<path style=" stroke:none;fill-rule:nonzero;fill:rgb(0%,0%,0%);fill-opacity:1;" d="M 32.886719 12.726562 C 32.886719 12.964844 35.09375 13.132812 40.519531 13.277344 C 43.0625 13.347656 45.34375 13.515625 45.558594 13.636719 C 45.894531 13.828125 46.015625 14.527344 46.253906 17.429688 C 46.855469 24.84375 46.878906 25.828125 46.589844 25.996094 C 46.253906 26.214844 46.664062 26.863281 47.121094 26.863281 C 47.382812 26.863281 47.238281 22.636719 46.734375 16.542969 L 46.449219 13.0625 L 44.289062 12.917969 C 40.6875 12.652344 32.886719 12.507812 32.886719 12.726562 Z M 32.886719 12.726562 "/>
<path style=" stroke:none;fill-rule:nonzero;fill:rgb(0%,0%,0%);fill-opacity:1;" d="M 31.113281 17.621094 C 31.472656 28.347656 31.640625 29.71875 31.589844 21.390625 C 31.542969 15.414062 31.472656 13.347656 31.230469 13.109375 C 30.992188 12.871094 30.96875 13.804688 31.113281 17.621094 Z M 31.113281 17.621094 "/>
<path style=" stroke:none;fill-rule:nonzero;fill:rgb(0%,0%,0%);fill-opacity:1;" d="M 65.71875 15.003906 C 65.359375 15.199219 64.976562 15.628906 64.902344 15.988281 C 64.757812 16.492188 64.855469 16.734375 65.433594 17.1875 C 65.816406 17.476562 66.367188 17.742188 66.679688 17.742188 C 67.160156 17.742188 67.207031 17.621094 67.207031 16.46875 C 67.207031 15.367188 66.917969 14.597656 66.511719 14.621094 C 66.414062 14.644531 66.078125 14.789062 65.71875 15.003906 Z M 65.71875 15.003906 "/>
<path style=" stroke:none;fill-rule:nonzero;fill:rgb(0%,0%,0%);fill-opacity:1;" d="M 3.824219 15.4375 C 3.390625 16.347656 4.085938 17.308594 5.09375 17.214844 C 6.105469 17.117188 6.414062 16.589844 5.984375 15.675781 C 5.503906 14.695312 4.207031 14.550781 3.824219 15.4375 Z M 3.824219 15.4375 "/>
<path style=" stroke:none;fill-rule:nonzero;fill:rgb(0%,0%,0%);fill-opacity:1;" d="M 72.34375 15.726562 C 71.863281 16.878906 72.078125 17.742188 72.847656 17.742188 C 73.976562 17.742188 74.574219 16.039062 73.734375 15.269531 C 73.0625 14.667969 72.75 14.765625 72.34375 15.726562 Z M 72.34375 15.726562 "/>
<path style=" stroke:none;fill-rule:nonzero;fill:rgb(0%,0%,0%);fill-opacity:1;" d="M 41.71875 16.566406 C 41.238281 16.828125 41.167969 17.765625 41.527344 18.484375 C 41.695312 18.773438 42.03125 18.941406 42.511719 18.941406 C 43.253906 18.941406 43.253906 18.917969 43.085938 18.054688 C 42.894531 17.046875 42.558594 16.300781 42.296875 16.300781 C 42.199219 16.300781 41.9375 16.421875 41.71875 16.566406 Z M 41.71875 16.566406 "/>
<path style=" stroke:none;fill-rule:nonzero;fill:rgb(0%,0%,0%);fill-opacity:1;" d="M 35 17.070312 C 34.808594 18.222656 35.289062 18.871094 36.152344 18.535156 C 36.390625 18.4375 36.488281 18.148438 36.441406 17.527344 C 36.367188 16.804688 36.273438 16.660156 35.742188 16.589844 C 35.238281 16.542969 35.09375 16.636719 35 17.070312 Z M 35 17.070312 "/>
<path style=" stroke:none;fill-rule:nonzero;fill:rgb(0%,0%,0%);fill-opacity:1;" d="M 95.359375 19.132812 C 94.925781 19.398438 94.519531 20.667969 94.6875 21.269531 C 94.832031 21.894531 95.695312 22.179688 96.609375 21.964844 C 97.136719 21.820312 97.207031 21.675781 97.207031 20.742188 C 97.207031 19.925781 97.085938 19.613281 96.679688 19.324219 C 96.078125 18.894531 95.792969 18.871094 95.359375 19.132812 Z M 95.359375 19.132812 "/>
<path style=" stroke:none;fill-rule:nonzero;fill:rgb(0%,0%,0%);fill-opacity:1;" d="M 64.902344 19.78125 C 64.542969 20.332031 64.542969 20.429688 64.902344 20.980469 C 65.335938 21.652344 65.574219 21.703125 66.320312 21.316406 C 67.28125 20.8125 67.449219 20.1875 66.824219 19.566406 C 66.246094 18.988281 65.359375 19.085938 64.902344 19.78125 Z M 64.902344 19.78125 "/>
<path style=" stroke:none;fill-rule:nonzero;fill:rgb(0%,0%,0%);fill-opacity:1;" d="M 72.390625 20.355469 C 72.175781 20.597656 71.960938 21.101562 71.9375 21.484375 C 71.886719 22.039062 71.984375 22.207031 72.441406 22.253906 C 73.542969 22.421875 74.382812 20.933594 73.640625 20.1875 C 73.230469 19.78125 72.871094 19.828125 72.390625 20.355469 Z M 72.390625 20.355469 "/>
<path style=" stroke:none;fill-rule:nonzero;fill:rgb(0%,0%,0%);fill-opacity:1;" d="M 35.40625 21.246094 C 35.191406 21.460938 35.046875 21.917969 35.09375 22.277344 C 35.238281 23.429688 36.96875 23.140625 36.96875 21.964844 C 36.96875 20.957031 36.105469 20.550781 35.40625 21.246094 Z M 35.40625 21.246094 "/>
<path style=" stroke:none;fill-rule:nonzero;fill:rgb(0%,0%,0%);fill-opacity:1;" d="M 41.960938 21.605469 C 40.925781 22.207031 40.953125 23.742188 41.984375 23.742188 C 42.632812 23.742188 43.015625 23.164062 42.917969 22.277344 C 42.847656 21.414062 42.582031 21.246094 41.960938 21.605469 Z M 41.960938 21.605469 "/>
<path style=" stroke:none;fill-rule:nonzero;fill:rgb(0%,0%,0%);fill-opacity:1;" d="M 11.9375 22.347656 C 11.382812 22.757812 11.046875 24.03125 11.335938 24.535156 C 11.625 25.0625 12.558594 25.0625 13.039062 24.507812 C 13.617188 23.886719 13.566406 22.613281 12.992188 22.300781 C 12.414062 21.988281 12.414062 21.988281 11.9375 22.347656 Z M 11.9375 22.347656 "/>
<path style=" stroke:none;fill-rule:nonzero;fill:rgb(0%,0%,0%);fill-opacity:1;" d="M 65.144531 24.339844 C 64.398438 25.46875 65.265625 26.332031 66.464844 25.660156 C 67.113281 25.324219 67.113281 24.316406 66.511719 23.980469 C 65.816406 23.621094 65.574219 23.667969 65.144531 24.339844 Z M 65.144531 24.339844 "/>
<path style=" stroke:none;fill-rule:nonzero;fill:rgb(0%,0%,0%);fill-opacity:1;" d="M 72.34375 24.796875 C 71.769531 25.277344 71.695312 25.46875 71.910156 25.828125 C 72.273438 26.40625 73.519531 26.527344 74.023438 25.996094 C 74.265625 25.78125 74.40625 25.324219 74.359375 24.964844 C 74.265625 24.078125 73.253906 24.003906 72.34375 24.796875 Z M 72.34375 24.796875 "/>
<path style=" stroke:none;fill-rule:nonzero;fill:rgb(0%,0%,0%);fill-opacity:1;" d="M 35.671875 25.636719 C 35.191406 26.164062 35.335938 27.101562 35.910156 27.101562 C 36.96875 27.101562 37.566406 26.117188 36.917969 25.46875 C 36.511719 25.0625 36.152344 25.109375 35.671875 25.636719 Z M 35.671875 25.636719 "/>
<path style=" stroke:none;fill-rule:nonzero;fill:rgb(0%,0%,0%);fill-opacity:1;" d="M 41.71875 25.683594 C 40.878906 26.164062 41.433594 27.964844 42.367188 27.773438 C 42.96875 27.675781 43.398438 26.5 43.0625 25.949219 C 42.726562 25.445312 42.273438 25.347656 41.71875 25.683594 Z M 41.71875 25.683594 "/>
<path style=" stroke:none;fill-rule:nonzero;fill:rgb(0%,0%,0%);fill-opacity:1;" d="M 62.214844 29.453125 C 61.589844 29.886719 62.960938 29.980469 70.085938 29.980469 C 75.007812 29.980469 77.070312 29.910156 76.902344 29.742188 C 76.566406 29.40625 62.648438 29.140625 62.214844 29.453125 Z M 62.214844 29.453125 "/>
<path style=" stroke:none;fill-rule:nonzero;fill:rgb(0%,0%,0%);fill-opacity:1;" d="M 88.566406 29.835938 C 88.566406 30.269531 89.792969 30.460938 92.769531 30.460938 C 94.976562 30.484375 97.496094 30.628906 102.96875 31.085938 C 104.574219 31.207031 104.960938 31.179688 104.742188 30.941406 C 104.359375 30.558594 101.839844 30.292969 95.238281 29.980469 C 92.167969 29.835938 89.40625 29.667969 89.121094 29.597656 C 88.757812 29.527344 88.566406 29.597656 88.566406 29.835938 Z M 88.566406 29.835938 "/>
<path style=" stroke:none;fill-rule:nonzero;fill:rgb(0%,0%,0%);fill-opacity:1;" d="M 32.40625 29.957031 C 32.863281 30.222656 48.726562 30.484375 48.726562 30.222656 C 48.726562 30.125 48.488281 29.980469 48.199219 29.886719 C 47.335938 29.667969 32 29.742188 32.40625 29.957031 Z M 32.40625 29.957031 "/>
<path style=" stroke:none;fill-rule:nonzero;fill:rgb(0%,0%,0%);fill-opacity:1;" d="M 27.847656 47.527344 C 28.207031 48.199219 28.039062 59.046875 27.609375 61.757812 C 27.390625 63.269531 27.414062 63.84375 27.726562 63.558594 C 28.0625 63.222656 28.398438 59.214844 28.542969 53.980469 L 28.6875 48.101562 L 35.167969 48.125 C 38.742188 48.125 42.246094 48.199219 42.992188 48.316406 C 45.390625 48.628906 45.246094 48.171875 45.246094 55.902344 C 45.246094 62.261719 45.222656 62.667969 44.792969 62.980469 C 44.40625 63.269531 44.382812 63.390625 44.648438 63.703125 C 45.175781 64.347656 45.535156 64.109375 45.703125 62.957031 C 45.894531 61.492188 45.847656 50.332031 45.65625 48.941406 L 45.488281 47.863281 L 43.566406 47.8125 C 38.40625 47.667969 28.617188 47.214844 28.113281 47.09375 C 27.582031 46.972656 27.582031 46.996094 27.847656 47.527344 Z M 27.847656 47.527344 "/>
<path style=" stroke:none;fill-rule:nonzero;fill:rgb(0%,0%,0%);fill-opacity:1;" d="M 68.40625 47.5 C 67.015625 47.597656 65.359375 47.695312 64.6875 47.71875 L 63.488281 47.742188 L 64.160156 48.339844 L 64.808594 48.964844 L 64.808594 56.382812 C 64.808594 60.605469 64.902344 63.84375 65.023438 63.917969 C 65.167969 64.011719 65.289062 60.941406 65.335938 56.40625 C 65.382812 50.527344 65.480469 48.652344 65.71875 48.414062 C 66.246094 47.886719 74.792969 47.863281 78.679688 48.339844 C 80.433594 48.582031 81.917969 48.871094 81.992188 48.988281 C 82.183594 49.300781 82.496094 53.40625 82.710938 58.683594 C 82.878906 62.8125 82.855469 62.933594 82.421875 62.765625 C 81.34375 62.332031 81.296875 62.382812 82.039062 63.078125 C 82.472656 63.484375 82.925781 63.820312 83.046875 63.820312 C 83.71875 63.820312 82.902344 48.292969 82.230469 48.101562 C 81.96875 48.03125 75.367188 47.550781 72.488281 47.40625 C 71.625 47.355469 69.800781 47.40625 68.40625 47.5 Z M 68.40625 47.5 "/>
<path style=" stroke:none;fill-rule:nonzero;fill:rgb(0%,0%,0%);fill-opacity:1;" d="M 33.222656 51.222656 C 32.648438 52.109375 33.105469 53.09375 34.039062 52.972656 C 34.589844 52.925781 34.710938 52.78125 34.757812 52.109375 C 34.902344 50.695312 33.945312 50.140625 33.222656 51.222656 Z M 33.222656 51.222656 "/>
<path style=" stroke:none;fill-rule:nonzero;fill:rgb(0%,0%,0%);fill-opacity:1;" d="M 40.351562 50.957031 C 39.945312 51.4375 40.113281 52.804688 40.640625 53.117188 C 41.238281 53.5 41.863281 53.019531 41.960938 52.039062 C 42.078125 50.886719 41 50.164062 40.351562 50.957031 Z M 40.351562 50.957031 "/>
<path style=" stroke:none;fill-rule:nonzero;fill:rgb(0%,0%,0%);fill-opacity:1;" d="M 69.609375 51.582031 C 68.625 52.566406 69.246094 53.71875 70.734375 53.742188 C 72.152344 53.742188 72.800781 52.230469 71.71875 51.484375 C 70.976562 50.957031 70.183594 51.003906 69.609375 51.582031 Z M 71.671875 52.710938 C 71.601562 52.804688 71.527344 52.660156 71.550781 52.398438 C 71.550781 52.132812 71.625 52.0625 71.695312 52.253906 C 71.769531 52.421875 71.742188 52.636719 71.671875 52.710938 Z M 71.671875 52.710938 "/>
<path style=" stroke:none;fill-rule:nonzero;fill:rgb(0%,0%,0%);fill-opacity:1;" d="M 33.222656 56.742188 C 33.007812 57.078125 32.910156 57.507812 33.007812 57.820312 C 33.296875 58.710938 35.046875 58.253906 35.046875 57.269531 C 35.046875 56.09375 33.871094 55.757812 33.222656 56.742188 Z M 34.230469 57.507812 C 34.160156 57.605469 34.085938 57.460938 34.113281 57.199219 C 34.113281 56.933594 34.183594 56.863281 34.253906 57.054688 C 34.328125 57.222656 34.304688 57.4375 34.230469 57.507812 Z M 34.230469 57.507812 "/>
<path style=" stroke:none;fill-rule:nonzero;fill:rgb(0%,0%,0%);fill-opacity:1;" d="M 39.945312 56.980469 C 39.367188 57.871094 39.703125 58.589844 40.640625 58.492188 C 41.3125 58.421875 41.40625 58.324219 41.480469 57.605469 C 41.601562 56.332031 40.640625 55.925781 39.945312 56.980469 Z M 39.945312 56.980469 "/>
<path style=" stroke:none;fill-rule:nonzero;fill:rgb(0%,0%,0%);fill-opacity:1;" d="M 77.191406 57.941406 C 76.6875 58.445312 76.472656 59.8125 76.785156 60.4375 C 77.144531 61.085938 78.488281 61.132812 79.039062 60.507812 C 80.289062 59.140625 78.488281 56.667969 77.191406 57.941406 Z M 78.007812 58.398438 C 78.007812 58.445312 77.839844 58.613281 77.648438 58.78125 C 77.359375 59.019531 77.289062 59.019531 77.289062 58.683594 C 77.289062 58.46875 77.457031 58.300781 77.648438 58.300781 C 77.839844 58.300781 78.007812 58.347656 78.007812 58.398438 Z M 78.007812 58.398438 "/>
<path style=" stroke:none;fill-rule:nonzero;fill:rgb(0%,0%,0%);fill-opacity:1;" d="M 33.320312 61.085938 C 32.527344 61.492188 32.503906 61.660156 33.105469 62.40625 C 33.558594 62.957031 33.609375 62.957031 34.253906 62.621094 C 35 62.1875 35.238281 61.566406 34.808594 61.0625 C 34.449219 60.605469 34.160156 60.628906 33.320312 61.085938 Z M 33.320312 61.085938 "/>
<path style=" stroke:none;fill-rule:nonzero;fill:rgb(0%,0%,0%);fill-opacity:1;" d="M 39.65625 61.085938 C 38.9375 61.589844 38.960938 62.574219 39.679688 62.742188 C 40.375 62.933594 41.503906 62.5 41.671875 62.019531 C 41.863281 61.566406 41.121094 60.703125 40.589844 60.703125 C 40.375 60.703125 39.945312 60.871094 39.65625 61.085938 Z M 40.925781 61.902344 C 40.855469 62.019531 40.6875 62.140625 40.542969 62.140625 C 40.421875 62.140625 40.328125 62.019531 40.328125 61.902344 C 40.328125 61.757812 40.496094 61.660156 40.710938 61.660156 C 40.902344 61.660156 41 61.757812 40.925781 61.902344 Z M 40.925781 61.902344 "/>
<path style=" stroke:none;fill-rule:nonzero;fill:rgb(0%,0%,0%);fill-opacity:1;" d="M 66.007812 64.542969 C 66.007812 64.925781 82.421875 65.429688 82.664062 65.046875 C 82.757812 64.902344 82.589844 64.734375 82.28125 64.683594 C 81.246094 64.46875 66.007812 64.324219 66.007812 64.542969 Z M 66.007812 64.542969 "/>
<path style=" stroke:none;fill-rule:nonzero;fill:rgb(0%,0%,0%);fill-opacity:1;" d="M 26.886719 65.574219 C 26.886719 66.125 27.96875 66.222656 33.464844 66.199219 C 43.0625 66.148438 44.144531 65.886719 35.648438 65.667969 C 31.421875 65.550781 27.726562 65.40625 27.441406 65.332031 C 27.054688 65.238281 26.886719 65.308594 26.886719 65.574219 Z M 26.886719 65.574219 "/>
<path style=" stroke:none;fill-rule:nonzero;fill:rgb(0%,0%,0%);fill-opacity:1;" d="M 74.167969 68.019531 C 73.757812 69.078125 73.398438 72.003906 73.519531 73.109375 C 73.734375 75.003906 75.03125 75.675781 76.207031 74.527344 C 77 73.734375 77.214844 72.773438 76.710938 72.269531 C 76.398438 71.933594 76.183594 71.933594 75.320312 72.148438 C 74.742188 72.292969 74.238281 72.390625 74.191406 72.316406 C 73.953125 72.078125 74.214844 69.941406 74.550781 69.484375 C 74.9375 68.910156 75.007812 67.757812 74.648438 67.542969 C 74.503906 67.46875 74.289062 67.683594 74.167969 68.019531 Z M 76.328125 73.132812 C 76.328125 73.734375 75.246094 74.71875 74.792969 74.550781 C 74.335938 74.382812 74.289062 73.398438 74.695312 72.988281 C 75.175781 72.507812 76.328125 72.628906 76.328125 73.132812 Z M 76.328125 73.132812 "/>
<path style=" stroke:none;fill-rule:nonzero;fill:rgb(0%,0%,0%);fill-opacity:1;" d="M 36.75 70.636719 C 35.601562 70.878906 35.382812 71.019531 35.121094 71.71875 C 34.734375 72.652344 34.878906 72.917969 36.246094 73.542969 C 37.878906 74.285156 37.6875 75.582031 35.9375 75.582031 C 35.503906 75.582031 35.3125 75.675781 35.433594 75.84375 C 35.625 76.15625 37.085938 75.964844 37.589844 75.558594 C 38.144531 75.101562 38 73.996094 37.304688 73.445312 C 36.945312 73.15625 36.511719 72.941406 36.34375 72.941406 C 35.457031 72.941406 36.464844 71.453125 37.640625 70.996094 C 37.953125 70.878906 38.816406 70.78125 39.558594 70.757812 C 40.617188 70.734375 40.785156 70.683594 40.328125 70.542969 C 39.511719 70.277344 38.289062 70.324219 36.75 70.636719 Z M 36.75 70.636719 "/>
<path style=" stroke:none;fill-rule:nonzero;fill:rgb(0%,0%,0%);fill-opacity:1;" d="M 80.3125 74.332031 C 80.238281 74.476562 80.289062 74.667969 80.433594 74.742188 C 80.792969 74.980469 81.03125 74.667969 80.71875 74.355469 C 80.550781 74.1875 80.40625 74.1875 80.3125 74.332031 Z M 80.3125 74.332031 "/>
</g>
</svg>
