<?xml version="1.0" encoding="UTF-8"?>
<svg xmlns="http://www.w3.org/2000/svg" xmlns:xlink="http://www.w3.org/1999/xlink" width="123pt" height="106pt" viewBox="0 0 123 106" version="1.1">
<defs>
<clipPath id="clip1">
  <path d="M 49 0.585938 L 55 0.585938 L 55 6 L 49 6 Z M 49 0.585938 "/>
</clipPath>
<clipPath id="clip2">
  <path d="M 60 0.585938 L 65 0.585938 L 65 5 L 60 5 Z M 60 0.585938 "/>
</clipPath>
</defs>
<g id="surface1">
<g clip-path="url(#clip1)" clip-rule="nonzero">
<path style=" stroke:none;fill-rule:nonzero;fill:rgb(0%,0%,0%);fill-opacity:1;" d="M 50.039062 1.007812 C 50.136719 1.246094 50.28125 1.632812 50.328125 1.847656 C 50.398438 2.085938 50.542969 2.28125 50.664062 2.28125 C 50.785156 2.28125 50.808594 2.113281 50.734375 1.917969 C 50.496094 1.34375 51 1.511719 51.335938 2.136719 C 51.601562 2.617188 51.550781 2.855469 51.023438 3.910156 C 50.375 5.183594 50.257812 5.640625 50.59375 5.640625 C 50.6875 5.640625 51 5.085938 51.289062 4.441406 C 51.574219 3.769531 51.910156 3.238281 52.054688 3.238281 C 52.175781 3.238281 52.632812 3.71875 53.039062 4.296875 C 54.167969 5.976562 54.359375 5.855469 53.425781 4.078125 C 52.488281 2.328125 52.390625 1.777344 52.871094 1.34375 C 53.113281 1.152344 53.28125 1.175781 53.472656 1.367188 C 53.6875 1.582031 53.761719 1.535156 53.761719 1.128906 C 53.761719 0.71875 53.617188 0.601562 53.089844 0.601562 C 52.558594 0.601562 52.367188 0.742188 52.175781 1.246094 L 51.9375 1.917969 L 51.359375 1.246094 C 50.710938 0.503906 49.753906 0.335938 50.039062 1.007812 Z M 50.039062 1.007812 "/>
</g>
<g clip-path="url(#clip2)" clip-rule="nonzero">
<path style=" stroke:none;fill-rule:nonzero;fill:rgb(0%,0%,0%);fill-opacity:1;" d="M 61.847656 0.863281 C 62.230469 1.246094 61.992188 1.726562 60.910156 2.976562 C 60.40625 3.550781 60.023438 4.078125 60.070312 4.105469 C 60.121094 4.152344 61.222656 3.984375 62.542969 3.71875 L 64.921875 3.238281 L 63.144531 3.359375 C 61.441406 3.457031 61.390625 3.433594 61.800781 3 C 62.015625 2.761719 62.257812 2.113281 62.328125 1.582031 C 62.449219 0.742188 62.398438 0.601562 62.015625 0.601562 C 61.703125 0.601562 61.65625 0.671875 61.847656 0.863281 Z M 61.847656 0.863281 "/>
</g>
<path style=" stroke:none;fill-rule:nonzero;fill:rgb(0%,0%,0%);fill-opacity:1;" d="M 55.054688 1.511719 C 55.152344 1.679688 55.703125 1.800781 56.304688 1.800781 C 57.625 1.800781 57.695312 2.183594 56.398438 2.398438 C 55.871094 2.496094 55.390625 2.664062 55.296875 2.785156 C 55.128906 3.070312 55.390625 3.070312 57.503906 2.59375 C 59.28125 2.207031 59.304688 2.183594 58.703125 1.871094 C 57.863281 1.414062 54.816406 1.128906 55.054688 1.511719 Z M 55.054688 1.511719 "/>
<path style=" stroke:none;fill-rule:nonzero;fill:rgb(0%,0%,0%);fill-opacity:1;" d="M 55.199219 8.734375 C 55.199219 8.855469 55.34375 9 55.511719 9.046875 C 55.726562 9.144531 55.847656 11.542969 55.945312 19.464844 C 56.089844 28.777344 56.0625 29.808594 55.726562 30.191406 C 55.296875 30.695312 51.191406 34.105469 49.992188 34.96875 C 49.585938 35.28125 48 36.625 46.511719 37.96875 C 45.023438 39.3125 43.488281 40.65625 43.105469 40.945312 L 42.40625 41.496094 L 42.527344 40.847656 C 42.695312 40.007812 42.335938 40.246094 41.734375 41.425781 C 41.015625 42.839844 32.089844 51.144531 31.632812 50.855469 C 31.34375 50.664062 31.414062 46.871094 31.800781 41.28125 C 31.96875 38.496094 32.207031 34.609375 32.28125 32.640625 C 32.351562 30.648438 32.472656 28.824219 32.519531 28.535156 C 32.59375 28.222656 33 27.863281 33.601562 27.601562 C 34.414062 27.238281 34.558594 27.046875 34.558594 26.449219 C 34.558594 25.320312 33.671875 23.976562 32.617188 23.566406 L 31.703125 23.207031 L 31.535156 23.929688 C 31.464844 24.335938 31.078125 25.320312 30.695312 26.136719 C 29.785156 28.054688 29.808594 28.199219 30.960938 28.199219 L 31.921875 28.199219 L 31.921875 30.527344 C 31.921875 31.824219 31.703125 36.433594 31.441406 40.800781 C 31.175781 45.144531 30.960938 49.175781 30.960938 49.726562 C 30.960938 50.472656 30.863281 50.761719 30.601562 50.761719 C 30.40625 50.761719 27.550781 48.097656 24.238281 44.808594 C 20.929688 41.542969 18.238281 38.953125 18.238281 39.046875 C 18.238281 39.527344 21.601562 43.03125 26.039062 47.207031 L 30.9375 51.816406 L 30.046875 52.558594 C 26.207031 55.703125 22.175781 59.398438 11.761719 69.382812 C 4.152344 76.65625 1.535156 79.078125 0.527344 79.726562 C 0.238281 79.945312 0 80.183594 0 80.304688 C 0 81.191406 1.679688 79.703125 11.519531 70.078125 C 19.222656 62.566406 29.855469 52.917969 30.457031 52.917969 C 30.648438 52.917969 30.71875 56.351562 30.71875 64.441406 L 30.71875 75.960938 L 22.824219 75.960938 C 16.320312 75.960938 14.785156 75.886719 14.0625 75.601562 C 13.105469 75.191406 11.039062 75.382812 10.871094 75.863281 C 10.726562 76.320312 16.414062 76.511719 23.878906 76.320312 C 29.785156 76.152344 30.71875 76.175781 30.839844 76.488281 C 30.910156 76.679688 30.863281 78.71875 30.742188 81 C 30.601562 83.496094 30.601562 85.320312 30.71875 85.558594 C 30.839844 85.75 30.960938 85.871094 30.984375 85.800781 C 31.007812 85.726562 31.078125 83.664062 31.175781 81.191406 C 31.273438 78.695312 31.414062 76.632812 31.488281 76.535156 C 31.703125 76.34375 54.335938 75.886719 55.800781 76.078125 C 57.839844 76.320312 57.839844 76.320312 58.320312 81.601562 C 58.511719 83.855469 59.28125 95.398438 59.28125 96.289062 C 59.28125 96.457031 59.398438 96.601562 59.519531 96.601562 C 59.878906 96.601562 59.808594 94.128906 59.28125 88.679688 C 59.015625 85.96875 58.726562 82.34375 58.65625 80.640625 L 58.511719 77.519531 L 60.503906 79.441406 C 61.609375 80.496094 65.0625 83.878906 68.160156 86.929688 C 73.199219 91.894531 74.425781 92.976562 74.375 92.328125 C 74.375 92.230469 73.726562 91.632812 72.9375 90.960938 C 70.558594 88.96875 58.199219 76.464844 58.414062 76.273438 C 58.511719 76.175781 69.574219 76.054688 82.992188 76.054688 C 96.433594 76.03125 108 75.984375 108.71875 75.9375 C 109.945312 75.839844 110.039062 75.886719 110.113281 76.367188 C 110.230469 77.113281 110.542969 77.0625 110.832031 76.246094 C 111.046875 75.648438 111.265625 75.503906 112.511719 75.238281 C 114.601562 74.808594 114.792969 75.046875 113.113281 75.9375 C 112.296875 76.367188 111.382812 77.015625 111.070312 77.351562 L 110.519531 77.976562 L 111.238281 77.519531 C 112.511719 76.703125 114.527344 75.71875 114.960938 75.71875 C 115.367188 75.71875 116.089844 75.070312 115.894531 74.902344 C 115.847656 74.878906 114.886719 74.472656 113.785156 74.039062 C 112.679688 73.609375 111.480469 72.984375 111.121094 72.671875 L 110.449219 72.121094 L 110.28125 73.558594 C 110.113281 75 110.113281 75 109.128906 75.289062 C 107.664062 75.742188 59.039062 75.742188 58.511719 75.289062 C 58.222656 75.070312 58.105469 74.113281 57.9375 71.085938 C 57.742188 67.054688 57.769531 66 58.078125 65.425781 C 58.175781 65.230469 58.078125 64.917969 57.816406 64.65625 C 57.289062 64.128906 57.191406 62.398438 57.671875 62.207031 C 57.886719 62.113281 57.886719 62.015625 57.695312 61.871094 C 57.527344 61.75 57.433594 61.03125 57.433594 60.121094 C 57.433594 59.257812 57.3125 57.214844 57.167969 55.558594 C 57.023438 53.902344 56.808594 47.519531 56.734375 41.375 L 56.566406 30.214844 L 60.742188 26.375 C 65.015625 22.464844 73.824219 14.113281 74.855469 12.984375 C 75.191406 12.648438 75.382812 12.3125 75.3125 12.238281 C 75.265625 12.167969 72.9375 14.304688 70.175781 16.945312 C 64.777344 22.128906 57.121094 29.160156 56.855469 29.160156 C 56.542969 29.160156 56.425781 26.59375 56.28125 18 C 56.183594 13.246094 56.0625 9.167969 56.015625 8.929688 C 55.894531 8.519531 55.199219 8.351562 55.199219 8.734375 Z M 33.648438 25.105469 C 34.246094 26.304688 34.199219 26.976562 33.457031 27.238281 C 32.566406 27.601562 32.398438 27.382812 32.398438 25.824219 C 32.398438 23.855469 32.878906 23.566406 33.648438 25.105469 Z M 31.992188 26.28125 C 32.207031 27.121094 31.921875 27.71875 31.296875 27.71875 C 30.625 27.71875 30.527344 27.144531 31.105469 26.328125 C 31.558594 25.679688 31.824219 25.65625 31.992188 26.28125 Z M 56.28125 40.800781 L 56.449219 48.960938 L 53.929688 54.238281 C 49.585938 63.382812 48.070312 66.359375 47.710938 66.359375 C 47.617188 66.359375 46.921875 65.785156 46.175781 65.085938 L 44.785156 63.792969 L 47.449219 58.296875 C 50.929688 51.121094 54.214844 44.785156 54.238281 45.238281 C 54.265625 45.648438 55.414062 42.792969 55.609375 41.878906 C 55.777344 40.992188 52.753906 46.75 48.433594 55.488281 C 46.34375 59.761719 44.496094 63.238281 44.375 63.238281 C 44.230469 63.238281 43.511719 62.664062 42.769531 61.945312 L 41.449219 60.671875 L 47.328125 48.695312 C 52.992188 37.222656 54.480469 34.054688 54.480469 33.480469 C 54.480469 32.953125 54.023438 33.503906 53.734375 34.390625 C 53.449219 35.257812 49.199219 44.160156 43.945312 54.910156 C 41.929688 58.96875 41.160156 60.3125 40.921875 60.191406 C 40.753906 60.070312 40.054688 59.472656 39.382812 58.847656 L 38.136719 57.671875 L 42.742188 48.648438 C 45.265625 43.679688 47.472656 39.433594 47.640625 39.238281 C 47.808594 39.046875 48.214844 38.328125 48.550781 37.65625 C 49.03125 36.71875 49.894531 35.832031 52.296875 33.742188 C 54.023438 32.28125 55.511719 30.9375 55.609375 30.769531 C 55.96875 30.214844 56.113281 32.617188 56.28125 40.800781 Z M 47.472656 38.472656 C 46.558594 40.511719 38.542969 56.257812 38.183594 56.734375 L 37.753906 57.3125 L 36.648438 56.398438 C 36.023438 55.894531 35.496094 55.367188 35.449219 55.222656 C 35.328125 54.886719 41.015625 43.824219 41.808594 42.863281 C 42.3125 42.214844 47.425781 37.800781 47.664062 37.800781 C 47.710938 37.800781 47.617188 38.113281 47.472656 38.472656 Z M 38.089844 48.9375 C 36.960938 51.238281 35.734375 53.449219 35.375 53.855469 L 34.753906 54.601562 L 33.574219 53.617188 C 31.921875 52.222656 31.726562 51.816406 32.449219 51.070312 C 33.433594 49.96875 39.910156 44.496094 40.03125 44.640625 C 40.105469 44.710938 39.238281 46.65625 38.089844 48.9375 Z M 56.640625 55.917969 L 56.6875 59.761719 L 54.40625 65.015625 C 53.136719 67.894531 52.03125 70.320312 51.960938 70.390625 C 51.886719 70.464844 51.023438 69.742188 50.0625 68.761719 L 48.289062 66.960938 L 51.265625 60.625 C 52.921875 57.121094 54.574219 53.808594 54.9375 53.257812 C 55.320312 52.703125 55.753906 51.839844 55.945312 51.335938 L 56.257812 50.398438 L 56.425781 51.238281 C 56.519531 51.695312 56.617188 53.808594 56.640625 55.917969 Z M 34.273438 54.742188 C 35.6875 56.015625 36.960938 57.265625 37.078125 57.503906 C 37.222656 57.742188 37.824219 58.273438 38.425781 58.65625 C 39.503906 59.328125 40.800781 60.742188 40.800781 61.246094 C 40.800781 61.390625 41.039062 61.558594 41.351562 61.65625 C 42 61.800781 45.742188 65.113281 49.65625 68.953125 C 51.214844 70.488281 53.28125 72.433594 54.214844 73.273438 C 55.152344 74.113281 55.921875 74.929688 55.921875 75.097656 C 55.921875 75.574219 53.902344 75.695312 42.097656 75.863281 L 31.511719 76.03125 L 31.367188 75.457031 C 31.078125 74.425781 31.175781 52.441406 31.464844 52.441406 C 31.585938 52.441406 32.855469 53.472656 34.273438 54.742188 Z M 57.046875 65.519531 C 56.976562 67.320312 56.832031 68.039062 56.089844 69.863281 C 55.128906 72.265625 55.105469 72.359375 55.414062 72.359375 C 55.558594 72.359375 55.945312 71.449219 56.304688 70.320312 C 56.6875 69.191406 57.046875 68.28125 57.144531 68.28125 C 57.238281 68.28125 57.382812 68.953125 57.457031 69.769531 C 57.960938 75.574219 57.910156 75.886719 56.617188 74.855469 C 55.390625 73.871094 52.800781 71.328125 52.535156 70.871094 C 52.390625 70.582031 52.753906 69.527344 53.902344 66.910156 C 54.769531 64.96875 55.753906 62.878906 56.113281 62.28125 L 56.734375 61.199219 L 56.953125 62.28125 C 57.046875 62.878906 57.097656 64.320312 57.046875 65.519531 Z M 112.679688 74.257812 C 112.753906 74.398438 112.609375 74.617188 112.34375 74.734375 C 111.695312 75.097656 111.601562 75.070312 111.601562 74.519531 C 111.601562 74.015625 112.390625 73.824219 112.679688 74.257812 Z M 112.679688 74.257812 "/>
<path style=" stroke:none;fill-rule:nonzero;fill:rgb(0%,0%,0%);fill-opacity:1;" d="M 80.28125 12.816406 C 79.871094 14.113281 79.34375 14.710938 79.078125 14.28125 C 79.007812 14.136719 78.984375 13.726562 79.078125 13.367188 C 79.152344 12.960938 79.078125 12.527344 78.863281 12.238281 C 78.527344 11.808594 78.503906 11.878906 78.480469 13.320312 C 78.480469 14.183594 78.574219 15.023438 78.695312 15.214844 C 79.03125 15.742188 79.632812 15.335938 80.207031 14.160156 C 80.496094 13.558594 80.808594 13.078125 80.902344 13.078125 C 81.097656 13.078125 81.457031 16.007812 81.3125 16.441406 C 81.265625 16.582031 80.59375 16.96875 79.824219 17.28125 C 79.03125 17.59375 78.3125 18 78.214844 18.167969 C 77.832031 18.742188 78 20.59375 78.503906 21.671875 C 79.464844 23.640625 80.785156 23.519531 81.40625 21.382812 C 82.03125 19.273438 81.625 11.640625 80.878906 11.640625 C 80.785156 11.640625 80.496094 12.167969 80.28125 12.816406 Z M 81.121094 19.007812 C 81.121094 20.902344 80.761719 22.441406 80.304688 22.441406 C 79.703125 22.441406 78.238281 20.351562 78.238281 19.464844 C 78.238281 18.863281 79.871094 17.398438 80.519531 17.398438 C 81.097656 17.398438 81.121094 17.449219 81.121094 19.007812 Z M 81.121094 19.007812 "/>
<path style=" stroke:none;fill-rule:nonzero;fill:rgb(0%,0%,0%);fill-opacity:1;" d="M 99.359375 12.695312 C 99.359375 13.800781 99.144531 14.039062 98.015625 14.039062 C 97.703125 14.039062 97.441406 14.160156 97.441406 14.304688 C 97.441406 14.496094 97.726562 14.542969 98.28125 14.449219 C 99.070312 14.328125 99.121094 14.351562 99.238281 15.191406 C 99.503906 16.824219 99.71875 17.472656 100.054688 17.59375 C 100.320312 17.6875 100.34375 17.59375 100.199219 17.257812 C 100.078125 16.992188 99.9375 16.222656 99.886719 15.527344 L 99.792969 14.28125 L 100.726562 14.257812 C 101.59375 14.230469 101.617188 14.207031 100.921875 14.0625 C 100.246094 13.917969 100.199219 13.824219 100.128906 12.769531 C 100.078125 11.976562 99.960938 11.640625 99.695312 11.640625 C 99.457031 11.640625 99.359375 11.929688 99.359375 12.695312 Z M 99.359375 12.695312 "/>
<path style=" stroke:none;fill-rule:nonzero;fill:rgb(0%,0%,0%);fill-opacity:1;" d="M 95.425781 12.480469 C 95.207031 12.792969 95.039062 13.175781 95.039062 13.296875 C 95.039062 13.871094 94.558594 13.75 94.175781 13.078125 C 93.9375 12.695312 93.648438 12.359375 93.550781 12.359375 C 93.191406 12.359375 93.359375 13.007812 93.863281 13.65625 C 94.320312 14.230469 94.367188 14.519531 94.246094 15.816406 C 94.078125 17.664062 94.414062 18.433594 94.632812 16.65625 C 94.726562 15.984375 94.847656 15.359375 94.894531 15.289062 C 94.96875 15.238281 95.425781 15.527344 95.929688 15.9375 C 97.105469 16.917969 97.488281 16.894531 96.550781 15.886719 C 95.375 14.640625 95.207031 14.160156 95.640625 13.296875 C 95.878906 12.839844 96.167969 12.601562 96.382812 12.695312 C 96.769531 12.839844 96.792969 12.792969 96.574219 12.265625 C 96.359375 11.710938 95.878906 11.785156 95.425781 12.480469 Z M 95.425781 12.480469 "/>
<path style=" stroke:none;fill-rule:nonzero;fill:rgb(0%,0%,0%);fill-opacity:1;" d="M 102.742188 12.527344 C 102.359375 12.839844 102.214844 13.175781 102.289062 13.558594 C 102.359375 14.136719 102.382812 14.136719 102.792969 13.367188 C 103.800781 11.496094 104.664062 13.558594 103.679688 15.480469 C 103.390625 16.03125 103.222656 16.535156 103.273438 16.582031 C 103.320312 16.65625 104.59375 16.609375 106.078125 16.535156 C 108.023438 16.414062 108.648438 16.296875 108.335938 16.128906 C 108.121094 16.007812 107.136719 15.960938 106.175781 16.03125 C 105.214844 16.105469 104.398438 16.105469 104.328125 16.054688 C 104.257812 15.984375 104.375 15.40625 104.566406 14.785156 C 104.902344 13.800781 104.902344 13.535156 104.617188 12.9375 C 104.207031 12.097656 103.488281 11.929688 102.742188 12.527344 Z M 102.742188 12.527344 "/>
<path style=" stroke:none;fill-rule:nonzero;fill:rgb(0%,0%,0%);fill-opacity:1;" d="M 85.800781 14.519531 C 85.632812 14.808594 87.3125 14.808594 88.679688 14.542969 C 89.519531 14.351562 89.425781 14.328125 87.792969 14.304688 C 86.785156 14.304688 85.871094 14.375 85.800781 14.519531 Z M 85.800781 14.519531 "/>
<path style=" stroke:none;fill-rule:nonzero;fill:rgb(0%,0%,0%);fill-opacity:1;" d="M 87.070312 15.40625 C 86.832031 15.457031 86.640625 15.625 86.640625 15.742188 C 86.640625 16.007812 86.640625 16.007812 88.441406 15.601562 L 89.878906 15.289062 L 88.679688 15.289062 C 88.03125 15.289062 87.289062 15.335938 87.070312 15.40625 Z M 87.070312 15.40625 "/>
<path style=" stroke:none;fill-rule:nonzero;fill:rgb(0%,0%,0%);fill-opacity:1;" d="M 22.703125 18.046875 C 22.199219 19.054688 21.648438 19.199219 20.953125 18.574219 L 20.398438 18.046875 L 20.398438 18.574219 C 20.398438 19.296875 20.808594 20.039062 21.214844 20.039062 C 21.382812 20.039062 21.839844 19.800781 22.199219 19.535156 C 22.726562 19.105469 22.894531 19.054688 23.0625 19.34375 C 23.519531 20.0625 23.28125 20.953125 22.320312 22.105469 C 20.902344 23.832031 20.039062 25.558594 20.257812 26.351562 C 20.472656 27.214844 21.335938 27.625 22.367188 27.335938 C 23.496094 27 23.761719 26.304688 23.761719 23.519531 C 23.761719 21.648438 23.855469 20.976562 24.167969 20.542969 C 24.382812 20.207031 24.433594 20.039062 24.265625 20.160156 C 23.832031 20.398438 23.519531 19.871094 23.519531 18.839844 C 23.519531 17.519531 23.160156 17.183594 22.703125 18.046875 Z M 23.304688 24.382812 C 23.136719 25.871094 22.96875 26.449219 22.632812 26.6875 C 22.054688 27.121094 21.023438 26.976562 20.929688 26.472656 C 20.664062 25.105469 22.824219 21.144531 23.328125 22.03125 C 23.425781 22.246094 23.425781 23.28125 23.304688 24.382812 Z M 23.304688 24.382812 "/>
<path style=" stroke:none;fill-rule:nonzero;fill:rgb(0%,0%,0%);fill-opacity:1;" d="M 59.425781 31.128906 C 59.257812 33.503906 59.425781 34.609375 60.023438 34.992188 C 60.574219 35.328125 61.921875 35.015625 62.761719 34.34375 C 63.625 33.625 63.457031 33.121094 62.0625 32.425781 L 61.152344 31.992188 L 61.945312 31.175781 C 62.425781 30.671875 62.640625 30.265625 62.542969 30 C 62.375 29.542969 60.984375 28.917969 60.167969 28.917969 C 59.59375 28.917969 59.566406 28.992188 59.425781 31.128906 Z M 61.871094 30.238281 C 61.921875 30.550781 61.703125 30.863281 61.199219 31.128906 C 60.214844 31.703125 60.289062 32.085938 61.558594 32.710938 C 62.160156 33 62.640625 33.382812 62.640625 33.601562 C 62.640625 34.273438 60.480469 35.015625 60.144531 34.464844 C 60.046875 34.34375 59.929688 33.601562 59.855469 32.832031 C 59.664062 30.910156 60.214844 29.566406 61.152344 29.6875 C 61.585938 29.734375 61.824219 29.929688 61.871094 30.238281 Z M 61.871094 30.238281 "/>
<path style=" stroke:none;fill-rule:nonzero;fill:rgb(0%,0%,0%);fill-opacity:1;" d="M 22.128906 49.246094 C 21.816406 49.824219 21.046875 53.878906 21.191406 54.046875 C 21.265625 54.121094 21.503906 53.832031 21.71875 53.425781 C 22.175781 52.535156 22.703125 52.464844 23.089844 53.28125 C 23.449219 54.097656 23.832031 54.046875 23.640625 53.183594 C 23.519531 52.582031 23.566406 52.464844 24.167969 52.246094 L 24.839844 52.007812 L 24.214844 51.984375 C 23.398438 51.960938 23.136719 51.601562 22.96875 50.304688 C 22.800781 49.03125 22.464844 48.601562 22.128906 49.246094 Z M 22.128906 49.246094 "/>
<path style=" stroke:none;fill-rule:nonzero;fill:rgb(0%,0%,0%);fill-opacity:1;" d="M 120.601562 72.574219 C 120.144531 73.488281 119.929688 73.511719 119.398438 72.695312 C 118.847656 71.855469 118.726562 72.097656 119.0625 73.367188 C 119.351562 74.398438 119.328125 74.496094 118.34375 76.296875 C 117.769531 77.304688 117.359375 78.191406 117.433594 78.265625 C 117.480469 78.335938 117.984375 77.664062 118.511719 76.800781 C 119.0625 75.9375 119.59375 75.238281 119.6875 75.238281 C 119.785156 75.238281 120.335938 75.960938 120.910156 76.824219 C 121.488281 77.6875 122.015625 78.359375 122.0625 78.289062 C 122.136719 78.214844 121.753906 77.328125 121.175781 76.320312 C 120.3125 74.710938 120.214844 74.398438 120.457031 73.894531 C 120.648438 73.441406 120.839844 73.320312 121.222656 73.441406 C 121.65625 73.582031 121.703125 73.511719 121.632812 72.816406 C 121.535156 71.785156 121.078125 71.6875 120.601562 72.574219 Z M 120.601562 72.574219 "/>
<path style=" stroke:none;fill-rule:nonzero;fill:rgb(0%,0%,0%);fill-opacity:1;" d="M 54.335938 78.839844 C 52.945312 79.390625 51.839844 81.625 52.609375 82.390625 C 52.945312 82.726562 56.257812 82.75 57 82.441406 C 57.3125 82.296875 56.808594 82.273438 55.65625 82.367188 C 53.59375 82.511719 52.800781 82.246094 52.800781 81.40625 C 52.800781 80.664062 54 79.558594 54.984375 79.34375 C 55.894531 79.152344 56.230469 78.601562 55.390625 78.625 C 55.105469 78.625 54.625 78.71875 54.335938 78.839844 Z M 54.335938 78.839844 "/>
<path style=" stroke:none;fill-rule:nonzero;fill:rgb(0%,0%,0%);fill-opacity:1;" d="M 77.28125 93.574219 C 77.28125 94.488281 78 96.097656 78.527344 96.382812 C 78.863281 96.574219 79.078125 96.550781 79.34375 96.335938 C 79.65625 96.097656 79.753906 96.097656 79.945312 96.382812 C 80.0625 96.574219 80.160156 96.792969 80.160156 96.863281 C 80.160156 97.175781 79.488281 97.847656 78.71875 98.257812 C 77.039062 99.121094 75.792969 101.449219 76.175781 102.9375 C 76.390625 103.824219 77.496094 105 78.097656 105 C 78.886719 105 79.847656 103.847656 80.183594 102.480469 C 80.519531 100.992188 80.542969 95.257812 80.207031 94.441406 C 79.96875 93.863281 79.96875 93.863281 79.464844 94.992188 C 79.199219 95.640625 78.863281 96.097656 78.71875 96 C 78.601562 95.929688 78.3125 95.28125 78.097656 94.558594 C 77.6875 93.121094 77.28125 92.640625 77.28125 93.574219 Z M 79.96875 99.863281 C 79.871094 102.023438 79.511719 103.679688 78.984375 104.136719 C 78.625 104.472656 78.503906 104.472656 77.761719 104.085938 C 76.921875 103.679688 76.921875 103.65625 76.921875 102.121094 C 76.921875 100.847656 77.015625 100.414062 77.472656 99.863281 C 78.144531 99 79.464844 98.015625 79.800781 98.113281 C 79.945312 98.160156 80.015625 98.855469 79.96875 99.863281 Z M 79.96875 99.863281 "/>
<path style=" stroke:none;fill-rule:nonzero;fill:rgb(0%,0%,0%);fill-opacity:1;" d="M 105.433594 93.769531 C 105.097656 93.9375 104.878906 94.246094 104.878906 94.609375 C 104.878906 95.28125 105.144531 95.328125 105.550781 94.679688 C 105.910156 94.105469 107.160156 94.03125 107.375 94.582031 C 107.6875 95.398438 107.496094 96.121094 106.679688 97.078125 C 106.199219 97.65625 105.863281 98.136719 105.910156 98.183594 C 105.984375 98.28125 109.847656 97.894531 112.320312 97.558594 C 113.566406 97.390625 113.183594 97.367188 110.566406 97.441406 L 107.28125 97.535156 L 107.640625 96.839844 C 108.191406 95.785156 108.097656 94.75 107.398438 94.078125 C 106.777344 93.433594 106.273438 93.359375 105.433594 93.769531 Z M 105.433594 93.769531 "/>
<path style=" stroke:none;fill-rule:nonzero;fill:rgb(0%,0%,0%);fill-opacity:1;" d="M 101.039062 94.535156 C 101.039062 95.207031 100.945312 95.375 100.441406 95.496094 C 99.648438 95.6875 99.671875 96.070312 100.511719 96.167969 C 101.0625 96.238281 101.207031 96.40625 101.449219 97.320312 L 101.710938 98.398438 L 101.734375 97.128906 L 101.761719 95.878906 L 103.152344 95.855469 L 104.519531 95.832031 L 103.222656 95.542969 C 102.070312 95.304688 101.878906 95.183594 101.59375 94.488281 C 101.183594 93.503906 101.039062 93.503906 101.039062 94.535156 Z M 101.039062 94.535156 "/>
<path style=" stroke:none;fill-rule:nonzero;fill:rgb(0%,0%,0%);fill-opacity:1;" d="M 94.609375 94.726562 C 94.65625 95.085938 94.871094 95.304688 95.257812 95.351562 C 95.761719 95.425781 95.808594 95.519531 95.664062 96.3125 C 95.257812 98.519531 95.230469 99 95.496094 99 C 95.640625 99 95.761719 98.734375 95.761719 98.425781 C 95.761719 98.136719 95.878906 97.511719 96.023438 97.078125 L 96.3125 96.289062 L 97.390625 97.464844 C 98.449219 98.640625 98.351562 98.304688 97.054688 96.382812 C 96.742188 95.929688 96.550781 95.472656 96.625 95.351562 C 96.816406 95.0625 97.390625 95.113281 97.535156 95.449219 C 97.609375 95.617188 97.609375 95.496094 97.535156 95.160156 C 97.296875 94.222656 97.03125 94.054688 96.503906 94.535156 C 96.070312 94.945312 95.976562 94.945312 95.472656 94.582031 C 94.726562 94.054688 94.511719 94.105469 94.609375 94.726562 Z M 94.609375 94.726562 "/>
<path style=" stroke:none;fill-rule:nonzero;fill:rgb(0%,0%,0%);fill-opacity:1;" d="M 83.039062 96.265625 C 83.039062 96.601562 83.207031 96.625 83.953125 96.503906 C 84.433594 96.433594 85.222656 96.359375 85.679688 96.335938 C 87.023438 96.3125 85.824219 95.929688 84.3125 95.902344 C 83.28125 95.878906 83.039062 95.953125 83.039062 96.265625 Z M 83.039062 96.265625 "/>
<path style=" stroke:none;fill-rule:nonzero;fill:rgb(0%,0%,0%);fill-opacity:1;" d="M 89.953125 96.769531 C 89.710938 96.816406 89.519531 96.984375 89.519531 97.105469 C 89.519531 97.367188 92.449219 97.128906 93.238281 96.816406 C 93.742188 96.625 90.695312 96.574219 89.953125 96.769531 Z M 89.953125 96.769531 "/>
<path style=" stroke:none;fill-rule:nonzero;fill:rgb(0%,0%,0%);fill-opacity:1;" d="M 84.433594 97.726562 C 84.839844 97.777344 85.558594 97.777344 85.992188 97.726562 C 86.398438 97.679688 86.0625 97.632812 85.199219 97.632812 C 84.335938 97.632812 84 97.679688 84.433594 97.726562 Z M 84.433594 97.726562 "/>
</g>
</svg>
