<?xml version="1.0" encoding="UTF-8"?>
<svg xmlns="http://www.w3.org/2000/svg" xmlns:xlink="http://www.w3.org/1999/xlink" width="121pt" height="75pt" viewBox="0 0 121 75" version="1.1">
<defs>
<clipPath id="clip1">
  <path d="M 55 0.894531 L 61 0.894531 L 61 8 L 55 8 Z M 55 0.894531 "/>
</clipPath>
<clipPath id="clip2">
  <path d="M 66 0.894531 L 68 0.894531 L 68 7 L 66 7 Z M 66 0.894531 "/>
</clipPath>
</defs>
<g id="surface1">
<g clip-path="url(#clip1)" clip-rule="nonzero">
<path style=" stroke:none;fill-rule:nonzero;fill:rgb(0%,0%,0%);fill-opacity:1;" d="M 55.503906 1.0625 C 55.503906 1.375 56.128906 2.3125 56.871094 3.078125 C 57.785156 4.039062 57.757812 3.917969 57.304688 5.238281 C 57.113281 5.789062 56.945312 6.535156 56.96875 6.894531 C 56.96875 7.398438 57.085938 7.300781 57.566406 6.246094 C 57.878906 5.578125 58.191406 5 58.289062 5 C 58.359375 5 58.742188 5.261719 59.152344 5.597656 C 59.535156 5.933594 60.039062 6.203125 60.253906 6.203125 C 60.566406 6.203125 60.519531 6.078125 60.0625 5.71875 C 59.726562 5.453125 59.390625 5.238281 59.296875 5.238281 C 59.199219 5.238281 58.960938 4.953125 58.765625 4.589844 C 58.480469 4.039062 58.480469 3.796875 58.765625 3.007812 C 59.269531 1.613281 59.199219 1.132812 58.625 1.855469 C 58.359375 2.167969 58.144531 2.550781 58.144531 2.742188 C 58.144531 3.414062 57.496094 3.054688 56.726562 2 C 56.054688 1.0625 55.503906 0.628906 55.503906 1.0625 Z M 55.503906 1.0625 "/>
</g>
<g clip-path="url(#clip2)" clip-rule="nonzero">
<path style=" stroke:none;fill-rule:nonzero;fill:rgb(0%,0%,0%);fill-opacity:1;" d="M 66.640625 1.6875 C 66.710938 2.117188 66.855469 3.414062 66.925781 4.589844 C 67.023438 5.742188 67.191406 6.75 67.335938 6.847656 C 67.574219 6.992188 67.40625 2.957031 67.121094 1.566406 C 66.902344 0.628906 66.449219 0.75 66.640625 1.6875 Z M 66.640625 1.6875 "/>
</g>
<path style=" stroke:none;fill-rule:nonzero;fill:rgb(0%,0%,0%);fill-opacity:1;" d="M 39.183594 2.695312 C 39.183594 3.679688 38.605469 5.238281 38.269531 5.238281 C 37.886719 5.238281 37.527344 4.664062 37.289062 3.582031 C 37 2.261719 36.542969 1.734375 36.542969 2.71875 C 36.542969 3.582031 37.261719 5.238281 37.816406 5.695312 C 38.320312 6.101562 38.773438 5.765625 39.398438 4.542969 L 39.832031 3.703125 L 40.144531 4.613281 C 40.359375 5.3125 40.359375 5.648438 40.144531 6.222656 C 39.757812 7.085938 39.734375 8.765625 40.09375 9.125 C 40.238281 9.269531 40.625 9.320312 40.984375 9.222656 C 41.605469 9.054688 41.605469 9.054688 41.535156 7.085938 C 41.488281 5.597656 41.367188 5.09375 41.101562 4.976562 C 40.910156 4.902344 40.527344 4.207031 40.261719 3.4375 C 39.6875 1.78125 39.183594 1.421875 39.183594 2.695312 Z M 41.101562 7.613281 C 41.34375 8.453125 41.054688 8.816406 40.503906 8.359375 C 40.070312 8 40.046875 7.351562 40.429688 6.964844 C 40.765625 6.628906 40.816406 6.65625 41.101562 7.613281 Z M 41.101562 7.613281 "/>
<path style=" stroke:none;fill-rule:nonzero;fill:rgb(0%,0%,0%);fill-opacity:1;" d="M 62.175781 2.40625 C 61.792969 2.527344 61.503906 2.789062 61.503906 2.984375 C 61.503906 3.488281 62.199219 3.679688 62.535156 3.269531 C 62.917969 2.765625 63.519531 2.597656 63.925781 2.863281 C 64.359375 3.125 64.023438 3.414062 62.894531 3.796875 C 62.007812 4.0625 61.574219 4.421875 61.816406 4.6875 C 61.984375 4.832031 64.792969 3.894531 65.582031 3.414062 C 66.136719 3.078125 66.136719 3.054688 65.65625 3.152344 C 65.320312 3.222656 64.984375 3.078125 64.648438 2.695312 C 64.121094 2.070312 63.304688 1.976562 62.175781 2.40625 Z M 62.175781 2.40625 "/>
<path style=" stroke:none;fill-rule:nonzero;fill:rgb(0%,0%,0%);fill-opacity:1;" d="M 31.09375 6.964844 C 30.785156 7.375 29.582031 11 29.582031 11.550781 C 29.582031 11.933594 29.75 11.984375 30.617188 11.910156 L 31.625 11.839844 L 31.695312 26.09375 L 31.742188 40.351562 L 23.054688 40.183594 C 18.253906 40.109375 12.113281 39.964844 9.351562 39.894531 L 4.382812 39.726562 L 4.238281 38.789062 C 4.144531 38.261719 3.902344 37.613281 3.664062 37.351562 L 3.253906 36.847656 L 1.71875 38 C 0.878906 38.648438 0.113281 39.292969 0.015625 39.414062 C -0.0820312 39.558594 0.28125 39.796875 0.902344 39.964844 C 1.550781 40.160156 2.34375 40.6875 3.015625 41.359375 L 4.070312 42.414062 L 4.214844 41.453125 C 4.289062 40.925781 4.382812 40.445312 4.429688 40.421875 C 4.457031 40.398438 10.625 40.421875 18.113281 40.46875 L 31.695312 40.566406 L 31.839844 43.253906 C 32.246094 50.765625 32.945312 65.40625 32.945312 66.558594 C 32.945312 68.167969 32.320312 69.03125 31.480469 68.574219 C 31.214844 68.429688 30.925781 68.382812 30.855469 68.429688 C 30.6875 68.597656 31.71875 72.175781 32.222656 73.164062 L 32.65625 74 L 33.039062 73.164062 C 33.230469 72.703125 33.785156 71.3125 34.214844 70.085938 C 35.078125 67.734375 35.101562 67.757812 33.785156 67.855469 C 33.304688 67.902344 33.28125 67.710938 32.96875 60.152344 C 32.800781 55.878906 32.632812 50.453125 32.558594 48.078125 L 32.4375 43.757812 L 33.304688 45.871094 C 33.808594 47.117188 34.09375 48.203125 34.023438 48.460938 C 33.902344 48.796875 33.976562 48.917969 34.335938 48.917969 C 34.597656 48.917969 35.703125 49.6875 36.808594 50.621094 C 37.910156 51.535156 39.28125 52.589844 39.832031 52.953125 L 40.863281 53.597656 L 40.863281 55.109375 C 40.863281 56.238281 40.933594 56.597656 41.175781 56.527344 C 41.34375 56.480469 41.4375 56.046875 41.414062 55.421875 C 41.367188 54.078125 41.65625 54.101562 45.421875 55.878906 C 47.128906 56.671875 49.191406 57.558594 50.03125 57.871094 C 51.421875 58.351562 51.542969 58.445312 51.617188 59.191406 C 51.710938 60.054688 52.023438 60.203125 52.261719 59.480469 C 52.429688 58.925781 53.101562 58.855469 54.28125 59.261719 L 55.023438 59.527344 L 55.023438 65.046875 C 55.023438 68.648438 55.09375 70.496094 55.261719 70.398438 C 55.40625 70.300781 55.503906 68.40625 55.503906 65.527344 C 55.503906 62.933594 55.574219 60.558594 55.648438 60.292969 C 55.792969 59.765625 55.792969 59.765625 57.015625 60.203125 C 60.542969 61.421875 75.496094 64.78125 75.832031 64.421875 C 76.09375 64.160156 74.65625 63.773438 70.382812 62.957031 C 65.96875 62.144531 60.328125 60.726562 57.253906 59.648438 L 55.625 59.09375 L 55.648438 50.429688 C 55.671875 45.65625 55.742188 41.503906 55.839844 41.167969 L 55.984375 40.589844 L 62.03125 40.421875 C 72.351562 40.160156 105.664062 39.964844 108.136719 40.132812 C 110.414062 40.328125 110.464844 40.328125 110.464844 40.925781 C 110.464844 41.238281 110.34375 41.71875 110.199219 42.007812 C 109.71875 42.871094 110.175781 42.75 112.238281 41.359375 C 113.945312 40.230469 114.878906 39.269531 114.496094 38.984375 C 114.472656 38.933594 113.65625 38.429688 112.71875 37.832031 C 111.757812 37.207031 110.917969 36.582031 110.800781 36.414062 C 110.535156 35.957031 110.269531 36.796875 110.246094 38.144531 C 110.222656 38.933594 110.101562 39.320312 109.839844 39.414062 C 109.625 39.488281 105.902344 39.558594 101.558594 39.558594 C 97.191406 39.558594 85.261719 39.679688 75.015625 39.828125 C 61.167969 40.015625 56.34375 40.015625 56.128906 39.796875 C 55.816406 39.488281 55.863281 32.285156 56.246094 26 C 56.582031 19.925781 56.128906 20.695312 60.28125 19.085938 C 64.574219 17.40625 66.160156 16.902344 68.75 16.375 C 71.222656 15.894531 71.824219 15.4375 69.785156 15.628906 C 68.488281 15.726562 63.785156 17.191406 58.816406 19.039062 C 57.785156 19.421875 56.871094 19.636719 56.773438 19.566406 C 56.703125 19.46875 56.558594 17.578125 56.511719 15.367188 C 56.414062 11.578125 56.296875 11.023438 55.695312 11 C 55.574219 11 55.503906 11.863281 55.503906 12.941406 C 55.503906 14.167969 55.597656 14.816406 55.742188 14.71875 C 56.128906 14.480469 56.054688 20 55.695312 20.285156 C 55.121094 20.742188 49.214844 22.757812 48.519531 22.757812 C 48.039062 22.757812 47.558594 23.023438 46.984375 23.578125 C 46.046875 24.511719 43.335938 26.117188 42.640625 26.117188 C 42.375 26.144531 41.945312 26.550781 41.558594 27.175781 C 41.03125 28.039062 38.03125 30.894531 37.359375 31.183594 C 37.238281 31.230469 36.878906 31.664062 36.542969 32.117188 C 34.289062 35.335938 33.617188 36.4375 33.253906 37.566406 C 33.039062 38.261719 32.773438 38.839844 32.703125 38.839844 C 32.511719 38.839844 32.222656 26.527344 32.222656 17.839844 L 32.222656 11.3125 L 33.710938 10.734375 C 34.527344 10.421875 35.222656 10.039062 35.269531 9.894531 C 35.320312 9.75 34.839844 9.4375 34.214844 9.203125 C 32.75 8.648438 32.511719 8.453125 32.101562 7.46875 C 31.742188 6.628906 31.480469 6.488281 31.09375 6.964844 Z M 31.503906 9.796875 C 31.503906 10.757812 31.40625 11.023438 31 11.238281 C 30.734375 11.40625 30.449219 11.453125 30.351562 11.382812 C 30.160156 11.167969 31 8.597656 31.289062 8.597656 C 31.40625 8.597656 31.503906 9.125 31.503906 9.796875 Z M 33.617188 9.65625 C 33.878906 9.847656 33.878906 9.941406 33.519531 10.207031 C 32.824219 10.710938 32.222656 10.589844 32.222656 9.964844 C 32.222656 9.65625 32.296875 9.34375 32.367188 9.246094 C 32.535156 9.078125 33.160156 9.269531 33.617188 9.65625 Z M 55.886719 22.976562 C 55.742188 24.488281 55.023438 38.742188 55.023438 39.726562 C 55.023438 40.085938 52.960938 40.160156 52.765625 39.828125 C 52.695312 39.703125 53.007812 37.46875 53.488281 34.855469 C 54.832031 27.460938 54.855469 27.320312 54.6875 27.152344 C 54.617188 27.078125 54.472656 27.078125 54.375 27.152344 C 54.183594 27.367188 53.535156 30.75 52.71875 35.742188 L 52.09375 39.75 L 51.015625 39.894531 C 49.289062 40.132812 48.542969 40.0625 48.398438 39.679688 C 48.328125 39.488281 48.757812 36.992188 49.382812 34.109375 C 51.0625 26.214844 51.375 25.160156 52.167969 24.152344 C 52.984375 23.09375 53.007812 23 52.382812 23 C 51.398438 23 50.773438 24.992188 48.902344 34.039062 C 48.136719 37.710938 47.65625 39.535156 47.390625 39.726562 C 47.054688 40.015625 43.742188 40.183594 43.742188 39.941406 C 43.742188 39.203125 47.703125 24.628906 48.015625 24.203125 C 48.328125 23.789062 49.503906 23.214844 52.046875 22.253906 C 54.015625 21.511719 55.71875 20.957031 55.816406 21.03125 C 55.933594 21.078125 55.960938 21.964844 55.886719 22.976562 Z M 46.960938 25.328125 C 45.328125 32.3125 43.3125 39.390625 42.855469 39.726562 C 42.398438 40.085938 39.902344 40.160156 39.902344 39.828125 C 39.902344 38.117188 42.085938 28.519531 42.6875 27.628906 C 43.09375 26.984375 46.3125 24.679688 46.792969 24.679688 C 47.03125 24.679688 47.078125 24.871094 46.960938 25.328125 Z M 41.078125 30.726562 C 40.839844 31.832031 40.335938 34.277344 40 36.203125 C 39.640625 38.117188 39.253906 39.828125 39.113281 39.964844 C 38.871094 40.277344 37.335938 40.398438 36.6875 40.132812 C 36.160156 39.917969 36.207031 38.933594 36.902344 35.3125 L 37.527344 32.238281 L 39.253906 30.488281 C 40.191406 29.550781 41.101562 28.757812 41.246094 28.757812 C 41.4375 28.757812 41.390625 29.335938 41.078125 30.726562 Z M 36.542969 34.109375 C 36.542969 35.09375 35.511719 39.941406 35.269531 40.085938 C 35.101562 40.183594 34.625 40.277344 34.167969 40.277344 L 33.351562 40.277344 L 33.496094 39.203125 C 33.785156 37.183594 36.542969 32.550781 36.542969 34.109375 Z M 3.375 38.648438 C 3.304688 39.34375 3.230469 39.4375 2.703125 39.367188 C 1.765625 39.222656 1.597656 38.910156 2.246094 38.382812 C 3.113281 37.664062 3.472656 37.734375 3.375 38.648438 Z M 113.703125 39.320312 C 113.4375 39.773438 111.925781 39.582031 111.664062 39.101562 C 111.085938 38 111.351562 37.832031 112.625 38.480469 C 113.296875 38.816406 113.773438 39.203125 113.703125 39.320312 Z M 3.449219 40.421875 C 3.734375 40.757812 3.710938 40.808594 3.328125 40.734375 C 3.0625 40.6875 2.824219 40.496094 2.75 40.328125 C 2.632812 39.917969 3.0625 39.964844 3.449219 40.421875 Z M 112.527344 40.398438 C 112 40.808594 111.421875 40.878906 111.421875 40.542969 C 111.421875 40.277344 111.855469 40.085938 112.503906 40.0625 C 112.984375 40.0625 112.984375 40.0625 112.527344 40.398438 Z M 35.34375 40.566406 C 35.34375 41.144531 34.3125 45.726562 34.144531 45.894531 C 34.023438 46.015625 33.785156 45.558594 33.566406 44.816406 C 33.113281 43.277344 33.0625 40.855469 33.496094 40.6875 C 33.785156 40.542969 35.34375 40.46875 35.34375 40.566406 Z M 39.015625 40.6875 C 39.0625 40.808594 38.800781 42.75 38.414062 45.03125 C 37.742188 49.0625 37.695312 49.878906 38.199219 49.878906 C 38.464844 49.878906 39.015625 48.941406 39.304688 47.957031 C 39.472656 47.429688 39.449219 47.40625 39.085938 47.695312 C 38.871094 47.886719 38.632812 47.957031 38.558594 47.886719 C 38.320312 47.671875 39.640625 40.925781 39.953125 40.710938 C 40.121094 40.613281 40.886719 40.519531 41.679688 40.519531 L 43.070312 40.519531 L 42.925781 41.167969 C 42.855469 41.550781 42.398438 44.046875 41.945312 46.757812 C 40.984375 52.328125 40.933594 52.519531 40.550781 52.519531 C 39.976562 52.519531 38.558594 51.460938 36.734375 49.664062 C 34.550781 47.527344 34.597656 47.695312 35.34375 43.398438 C 35.605469 41.886719 35.824219 40.613281 35.824219 40.566406 C 35.824219 40.421875 38.917969 40.542969 39.015625 40.6875 Z M 47.101562 40.757812 C 47.390625 40.953125 47.320312 41.671875 46.527344 46.085938 C 45.304688 52.925781 45.085938 54.4375 45.28125 54.628906 C 45.589844 54.917969 45.855469 54.152344 46.144531 52.183594 C 46.574219 49.085938 47.605469 42.894531 47.871094 41.648438 L 48.113281 40.519531 L 49.695312 40.519531 C 50.582031 40.519531 51.421875 40.613281 51.566406 40.710938 C 51.757812 40.832031 51.617188 41.886719 51.0625 44.40625 C 49.71875 50.40625 48.953125 56.117188 49.480469 56.117188 C 49.765625 56.117188 49.910156 55.375 50.222656 52.277344 C 50.464844 49.953125 50.96875 47.238281 52.046875 42.367188 L 52.480469 40.496094 L 53.679688 40.566406 L 54.902344 40.636719 L 54.976562 49.808594 L 55.023438 58.976562 L 54.253906 58.710938 C 53.03125 58.300781 52.816406 58.0625 53.007812 57.246094 C 53.101562 56.765625 53.078125 56.597656 52.886719 56.695312 C 52.457031 56.984375 52.574219 55.953125 53.464844 52.0625 C 54.304688 48.390625 54.519531 46.519531 54.0625 46.519531 C 53.945312 46.519531 53.824219 46.78125 53.824219 47.117188 C 53.824219 47.933594 51.925781 56.816406 51.640625 57.367188 C 51.421875 57.773438 51.351562 57.75 50.03125 57.292969 C 48.085938 56.578125 43.023438 54.101562 42.230469 53.480469 C 41.679688 53.046875 41.605469 52.832031 41.703125 52.085938 C 42.113281 49.085938 43.09375 42.871094 43.289062 41.910156 C 43.503906 40.878906 43.597656 40.78125 44.296875 40.6875 C 45.757812 40.519531 46.742188 40.519531 47.101562 40.757812 Z M 33.640625 69.246094 C 33.640625 69.488281 33.542969 69.894531 33.421875 70.164062 C 33.253906 70.542969 33.207031 70.46875 33.207031 69.726562 C 33.183594 69.246094 33.304688 68.839844 33.421875 68.839844 C 33.566406 68.839844 33.664062 69.03125 33.640625 69.246094 Z M 32.703125 70.015625 C 32.703125 70.832031 32.488281 71.070312 32.054688 70.734375 C 31.671875 70.398438 31.648438 69.75 32.03125 69.367188 C 32.414062 68.984375 32.703125 69.246094 32.703125 70.015625 Z M 32.945312 71.863281 C 32.945312 72.054688 32.847656 72.199219 32.703125 72.199219 C 32.582031 72.199219 32.464844 71.984375 32.464844 71.695312 C 32.464844 71.429688 32.582031 71.289062 32.703125 71.359375 C 32.847656 71.429688 32.945312 71.671875 32.945312 71.863281 Z M 32.945312 71.863281 "/>
<path style=" stroke:none;fill-rule:nonzero;fill:rgb(0%,0%,0%);fill-opacity:1;" d="M 53.96875 55.277344 C 54.0625 55.46875 54.160156 55.636719 54.207031 55.636719 C 54.253906 55.636719 54.304688 55.46875 54.304688 55.277344 C 54.304688 55.085938 54.207031 54.917969 54.0625 54.917969 C 53.945312 54.917969 53.894531 55.085938 53.96875 55.277344 Z M 53.96875 55.277344 "/>
<path style=" stroke:none;fill-rule:nonzero;fill:rgb(0%,0%,0%);fill-opacity:1;" d="M 117.589844 37.0625 C 117.253906 37.421875 117.449219 38.070312 118 38.453125 C 118.933594 39.054688 118.960938 39.605469 118.023438 41.863281 C 117.566406 43.015625 117.183594 44.023438 117.183594 44.09375 C 117.207031 44.40625 118 43.183594 118.503906 42.007812 C 118.816406 41.335938 119.199219 40.757812 119.320312 40.757812 C 119.464844 40.757812 119.824219 41.144531 120.113281 41.597656 C 121 42.941406 121.09375 42.558594 120.304688 41 C 119.535156 39.488281 119.582031 38.886719 120.472656 38.40625 C 120.734375 38.238281 120.808594 38 120.6875 37.542969 C 120.472656 36.65625 120.207031 36.75 119.679688 37.902344 L 119.246094 38.910156 L 118.863281 38.335938 C 118.167969 37.277344 117.785156 36.894531 117.589844 37.0625 Z M 117.589844 37.0625 "/>
</g>
</svg>
