<?xml version="1.0" encoding="UTF-8"?>
<svg xmlns="http://www.w3.org/2000/svg" xmlns:xlink="http://www.w3.org/1999/xlink" width="100pt" height="73pt" viewBox="0 0 100 73" version="1.1">
<defs>
<clipPath id="clip1">
  <path d="M 47 0.523438 L 52 0.523438 L 52 9 L 47 9 Z M 47 0.523438 "/>
</clipPath>
<clipPath id="clip2">
  <path d="M 90 0.523438 L 95 0.523438 L 95 8 L 90 8 Z M 90 0.523438 "/>
</clipPath>
<clipPath id="clip3">
  <path d="M 94 0.523438 L 96 0.523438 L 96 2 L 94 2 Z M 94 0.523438 "/>
</clipPath>
</defs>
<g id="surface1">
<g clip-path="url(#clip1)" clip-rule="nonzero">
<path style=" stroke:none;fill-rule:nonzero;fill:rgb(0%,0%,0%);fill-opacity:1;" d="M 47.332031 1.722656 C 47.429688 2.445312 47.597656 3.234375 47.742188 3.457031 C 48.054688 4.078125 48.773438 3.980469 49.253906 3.234375 C 49.660156 2.613281 49.710938 2.613281 49.878906 3.042969 C 50.238281 4.007812 50.070312 5.132812 49.375 6.523438 C 48.246094 8.757812 48.484375 9.621094 49.855469 8.253906 C 50.332031 7.746094 50.574219 7.21875 50.695312 6.382812 C 50.835938 5.277344 51.003906 4.601562 51.4375 3.523438 C 51.605469 3.042969 51.605469 3.042969 51.101562 3.503906 C 50.597656 3.929688 50.597656 3.929688 50.453125 3.382812 C 50.382812 3.066406 50.238281 2.328125 50.140625 1.746094 C 49.972656 0.667969 49.375 0.0664062 49.375 0.980469 C 49.375 1.746094 48.628906 3.425781 48.316406 3.335938 C 48.171875 3.285156 47.980469 2.710938 47.863281 2.058594 C 47.574219 0.355469 47.117188 0.0429688 47.332031 1.722656 Z M 50.09375 7.050781 C 50.09375 7.507812 49.660156 8.085938 49.492188 7.914062 C 49.277344 7.703125 49.589844 6.761719 49.878906 6.761719 C 49.996094 6.761719 50.09375 6.90625 50.09375 7.050781 Z M 50.09375 7.050781 "/>
</g>
<g clip-path="url(#clip2)" clip-rule="nonzero">
<path style=" stroke:none;fill-rule:nonzero;fill:rgb(0%,0%,0%);fill-opacity:1;" d="M 93.199219 2.613281 C 92.980469 3.789062 92.8125 4.96875 92.8125 5.253906 C 92.8125 6.066406 92.476562 5.921875 91.757812 4.84375 C 91.421875 4.316406 91.011719 3.882812 90.871094 3.882812 C 90.558594 3.882812 90.582031 3.90625 91.613281 5.636719 C 92.910156 7.769531 93.054688 7.652344 93.558594 3.761719 C 93.703125 2.5625 93.917969 1.363281 94.039062 1.050781 C 94.179688 0.667969 94.15625 0.523438 93.917969 0.523438 C 93.675781 0.523438 93.460938 1.195312 93.199219 2.613281 Z M 93.199219 2.613281 "/>
</g>
<g clip-path="url(#clip3)" clip-rule="nonzero">
<path style=" stroke:none;fill-rule:nonzero;fill:rgb(0%,0%,0%);fill-opacity:1;" d="M 94.613281 0.761719 C 94.6875 0.882812 94.878906 1.007812 94.996094 1.007812 C 95.140625 1.007812 95.164062 0.882812 95.09375 0.761719 C 95.023438 0.621094 94.828125 0.523438 94.710938 0.523438 C 94.566406 0.523438 94.542969 0.621094 94.613281 0.761719 Z M 94.613281 0.761719 "/>
</g>
<path style=" stroke:none;fill-rule:nonzero;fill:rgb(0%,0%,0%);fill-opacity:1;" d="M 98.382812 2.851562 C 97.925781 3.476562 97.902344 3.476562 97.0625 3.09375 C 96.003906 2.589844 95.597656 2.5625 95.789062 3.066406 C 95.863281 3.285156 95.933594 3.570312 95.933594 3.738281 C 95.933594 3.882812 96.222656 4.027344 96.605469 4.007812 C 97.492188 4.007812 97.542969 4.675781 96.796875 6.402344 C 96.101562 7.96875 96.078125 8.058594 96.414062 7.84375 C 96.558594 7.746094 96.941406 7.148438 97.253906 6.503906 C 97.589844 5.851562 97.949219 5.328125 98.070312 5.328125 C 98.191406 5.328125 98.5 5.613281 98.765625 5.972656 C 99.507812 6.980469 99.605469 6.523438 98.910156 5.253906 C 98.359375 4.171875 98.308594 3.644531 98.835938 3.644531 C 98.957031 3.644531 99.054688 3.839844 99.078125 4.050781 C 99.078125 4.292969 99.199219 4.148438 99.316406 3.761719 C 99.535156 3.019531 99.414062 2.207031 99.054688 2.207031 C 98.933594 2.207031 98.644531 2.492188 98.382812 2.851562 Z M 98.382812 2.851562 "/>
<path style=" stroke:none;fill-rule:nonzero;fill:rgb(0%,0%,0%);fill-opacity:1;" d="M 86.40625 2.636719 C 86.023438 2.878906 85.710938 4.363281 86.023438 4.363281 C 86.140625 4.363281 86.382812 4.097656 86.527344 3.761719 C 86.863281 3.019531 87.414062 2.78125 87.894531 3.164062 C 88.492188 3.667969 88.324219 4.675781 87.414062 5.730469 C 86.957031 6.285156 86.574219 6.839844 86.574219 6.980469 C 86.574219 7.34375 87.339844 7.316406 89.046875 6.90625 C 90.917969 6.476562 91.109375 6.1875 89.40625 6.382812 C 88.636719 6.457031 88.011719 6.425781 88.011719 6.308594 C 88.011719 6.214844 88.230469 5.589844 88.515625 4.96875 C 89.023438 3.839844 89.023438 3.8125 88.566406 3.1875 C 88.085938 2.539062 86.957031 2.253906 86.40625 2.636719 Z M 86.40625 2.636719 "/>
<path style=" stroke:none;fill-rule:nonzero;fill:rgb(0%,0%,0%);fill-opacity:1;" d="M 76.421875 3.8125 C 76.324219 3.882812 76.253906 4.292969 76.253906 4.722656 C 76.253906 5.589844 75.726562 6.425781 75.339844 6.1875 C 75.199219 6.09375 74.863281 5.539062 74.597656 4.96875 C 74.140625 3.960938 73.613281 3.523438 73.613281 4.171875 C 73.613281 4.722656 75.054688 7.007812 75.390625 7.007812 C 75.582031 7.007812 75.964844 6.71875 76.230469 6.355469 C 76.515625 6.019531 76.804688 5.804688 76.878906 5.878906 C 77.09375 6.09375 77.429688 9.308594 77.453125 11.347656 C 77.453125 13.554688 77.238281 13.820312 75.460938 13.84375 C 74.453125 13.84375 74.214844 13.769531 74.140625 13.410156 C 73.996094 12.691406 74.285156 11.953125 75.199219 10.582031 L 76.085938 9.285156 L 75.199219 10.128906 C 74.71875 10.582031 74.070312 11.46875 73.734375 12.117188 C 73.011719 13.554688 73.207031 14.058594 74.574219 14.46875 C 75.84375 14.851562 77.621094 14.226562 77.835938 13.34375 C 78.101562 12.308594 77.789062 7.195312 77.359375 5.371094 C 76.949219 3.738281 76.78125 3.425781 76.421875 3.8125 Z M 76.421875 3.8125 "/>
<path style=" stroke:none;fill-rule:nonzero;fill:rgb(0%,0%,0%);fill-opacity:1;" d="M 79.492188 4.890625 C 79.589844 5.109375 80.238281 5.207031 81.535156 5.207031 C 83.5 5.226562 84.03125 5.011719 82.710938 4.746094 C 81.339844 4.484375 79.375 4.582031 79.492188 4.890625 Z M 79.492188 4.890625 "/>
<path style=" stroke:none;fill-rule:nonzero;fill:rgb(0%,0%,0%);fill-opacity:1;" d="M 80.261719 5.972656 C 79.78125 6.457031 80.214844 6.570312 81.796875 6.425781 C 84.507812 6.140625 84.871094 5.832031 82.46875 5.832031 C 81.339844 5.804688 80.332031 5.878906 80.261719 5.972656 Z M 80.261719 5.972656 "/>
<path style=" stroke:none;fill-rule:nonzero;fill:rgb(0%,0%,0%);fill-opacity:1;" d="M 43.375 6.402344 C 43.375 6.476562 43.542969 6.929688 43.734375 7.410156 C 44.164062 8.417969 44.191406 8.683594 43.828125 8.683594 C 43.6875 8.683594 43.515625 8.46875 43.445312 8.207031 C 43.347656 7.84375 43.230469 7.796875 42.917969 7.9375 C 42.390625 8.253906 40.902344 10.769531 41.09375 11.058594 C 41.164062 11.207031 41.667969 11.417969 42.222656 11.5625 L 43.207031 11.851562 L 43.0625 13.675781 C 42.125 25.652344 41.429688 35.085938 41.191406 38.921875 C 41.046875 41.492188 40.828125 43.703125 40.710938 43.820312 C 40.589844 43.96875 39.605469 43.601562 38.238281 42.929688 C 35.476562 41.539062 33.820312 39.980469 31.445312 36.476562 C 29.140625 33.066406 24.75 25.507812 23.886719 23.445312 C 22.566406 20.277344 20.863281 15.71875 19.972656 12.980469 C 19.109375 10.265625 18.652344 9.335938 18.652344 10.265625 C 18.652344 10.796875 20.667969 16.484375 22.375 20.804688 C 23.8125 24.476562 24.917969 26.636719 27.507812 31.007812 C 28.636719 32.921875 29.71875 34.746094 29.886719 35.085938 C 30.652344 36.570312 34.253906 41.035156 35.308594 41.851562 C 35.980469 42.335938 37.347656 43.148438 38.359375 43.652344 C 40.039062 44.46875 40.15625 44.589844 39.628906 44.730469 C 39.292969 44.804688 31.277344 44.972656 21.773438 45.066406 L 4.515625 45.234375 L 4.109375 44.371094 C 3.796875 43.746094 3.535156 43.484375 3.148438 43.484375 C 2.550781 43.484375 -0.136719 45.8125 0.00390625 46.21875 C 0.0546875 46.363281 0.84375 46.746094 1.757812 47.109375 C 2.835938 47.515625 3.484375 47.898438 3.652344 48.234375 C 4.085938 49.21875 4.398438 48.738281 4.542969 46.84375 C 4.613281 46.050781 4.660156 46.007812 5.695312 45.839844 C 6.675781 45.667969 40.515625 45.140625 40.6875 45.285156 C 40.710938 45.308594 40.636719 47.492188 40.492188 50.109375 C 40.375 52.722656 40.253906 57.503906 40.253906 60.691406 L 40.253906 66.5 L 39.292969 66.761719 C 38.140625 67.074219 37.925781 67.363281 38.597656 67.722656 C 39.003906 67.9375 39.171875 67.917969 39.558594 67.582031 C 39.988281 67.195312 40.011719 67.195312 40.277344 67.917969 C 40.613281 68.925781 40.972656 68.898438 40.972656 67.867188 C 40.972656 67.027344 41.285156 66.550781 41.550781 66.980469 C 41.621094 67.097656 41.574219 67.769531 41.429688 68.492188 C 41.285156 69.1875 41.117188 70.027344 41.046875 70.363281 C 40.925781 70.9375 40.855469 70.867188 39.414062 69.289062 C 38.574219 68.375 37.804688 67.675781 37.710938 67.769531 C 37.542969 67.9375 39.75 70.800781 40.734375 71.683594 C 41.164062 72.066406 41.285156 72.09375 41.453125 71.804688 C 41.597656 71.613281 41.695312 71.109375 41.695312 70.722656 C 41.695312 70.074219 42.101562 68.25 42.535156 66.835938 C 42.675781 66.382812 42.605469 66.308594 41.765625 66.234375 L 40.855469 66.167969 L 40.78125 60.164062 C 40.710938 54.59375 41.046875 45.71875 41.332031 45.425781 C 41.574219 45.214844 61.566406 44.328125 61.78125 44.539062 C 61.828125 44.5625 61.925781 47.46875 62.023438 50.953125 C 62.164062 57.164062 62.285156 58.363281 62.835938 58.363281 C 63.003906 58.363281 63.054688 58.007812 62.933594 57.214844 C 62.71875 55.464844 62.359375 44.832031 62.550781 44.636719 C 62.621094 44.539062 64.902344 44.347656 67.613281 44.226562 C 70.324219 44.085938 73.996094 43.84375 75.773438 43.722656 C 77.550781 43.582031 80.863281 43.386719 83.09375 43.265625 C 86.742188 43.050781 87.199219 43.078125 87.484375 43.433594 C 87.628906 43.652344 87.773438 44.058594 87.773438 44.347656 C 87.773438 44.636719 87.917969 44.996094 88.085938 45.140625 C 88.347656 45.335938 88.46875 45.257812 88.6875 44.832031 C 88.828125 44.515625 89.40625 44.011719 89.980469 43.703125 C 91.375 42.929688 91.445312 42.285156 90.246094 41.539062 C 89.742188 41.253906 88.855469 40.632812 88.277344 40.195312 C 87.199219 39.382812 86.644531 39.355469 87.054688 40.128906 C 87.171875 40.363281 87.292969 40.96875 87.292969 41.417969 C 87.292969 42.1875 87.222656 42.285156 86.40625 42.503906 C 85.902344 42.621094 81.652344 42.960938 76.972656 43.242188 C 72.292969 43.507812 67.109375 43.84375 65.453125 43.9375 C 63.796875 44.058594 62.429688 44.132812 62.429688 44.109375 C 62.40625 44.109375 62.476562 40.507812 62.597656 36.164062 C 62.886719 25.796875 63.101562 23.277344 63.988281 21.066406 C 64.375 20.132812 65.8125 16.53125 67.230469 13.078125 C 68.621094 9.621094 69.773438 6.667969 69.773438 6.523438 C 69.773438 5.898438 69.292969 6.402344 68.910156 7.410156 C 68.695312 8.058594 67.78125 10.34375 66.894531 12.523438 C 66.003906 14.710938 65.09375 16.988281 64.878906 17.613281 C 64.636719 18.234375 64.253906 19.007812 64.011719 19.292969 C 63.558594 19.84375 63.558594 19.796875 63.535156 16.128906 C 63.535156 14.085938 63.4375 12.257812 63.316406 12.09375 C 63.054688 11.660156 62.8125 14.921875 62.8125 18.960938 L 62.8125 22.148438 L 61.492188 24.789062 C 60.773438 26.226562 59.765625 28.027344 59.285156 28.769531 C 58.78125 29.515625 58.0625 30.691406 57.652344 31.410156 C 56.644531 33.234375 55.710938 34.316406 55.085938 34.410156 C 54.675781 34.464844 54.484375 34.722656 54.339844 35.394531 C 54.101562 36.355469 53.023438 37.582031 49.253906 41.058594 C 46.324219 43.796875 44.140625 44.851562 42.988281 44.085938 C 42.652344 43.867188 42.199219 43.769531 41.933594 43.84375 C 41.332031 44.035156 41.332031 44.300781 41.933594 34.675781 C 42.773438 21.425781 43.542969 13.148438 43.996094 12.214844 C 44.238281 11.78125 44.527344 11.5625 44.933594 11.5625 C 45.367188 11.5625 45.535156 11.417969 45.535156 11.132812 C 45.535156 10.632812 44.527344 7.582031 44.117188 6.789062 C 43.878906 6.335938 43.375 6.09375 43.375 6.402344 Z M 43.230469 9.929688 C 43.375 10.746094 43.347656 10.84375 42.796875 10.988281 C 41.621094 11.277344 41.527344 10.582031 42.605469 9.335938 C 43.039062 8.832031 43.039062 8.832031 43.230469 9.929688 Z M 44.695312 10.796875 C 44.453125 11.417969 44.09375 10.820312 44.09375 9.8125 L 44.117188 8.804688 L 44.476562 9.621094 C 44.667969 10.078125 44.765625 10.601562 44.695312 10.796875 Z M 62.5 26.253906 C 62.40625 27.214844 62.261719 29.5625 62.191406 31.484375 C 62.070312 33.929688 61.925781 35.085938 61.6875 35.347656 C 61.398438 35.683594 60.964844 37.433594 59.957031 42.285156 C 59.621094 43.9375 59.40625 44.277344 58.878906 44.058594 C 58.515625 43.914062 58.46875 43.703125 58.566406 42.90625 C 58.734375 41.539062 60.339844 32.996094 60.894531 30.523438 C 61.132812 29.394531 61.398438 27.960938 61.46875 27.285156 C 61.636719 25.890625 62.09375 24.523438 62.40625 24.523438 C 62.550781 24.523438 62.574219 25.242188 62.5 26.253906 Z M 60.054688 31.914062 C 59.382812 36.214844 57.773438 43.582031 57.4375 43.9375 C 56.550781 44.804688 56.359375 43.464844 56.933594 40.722656 C 57.148438 39.789062 57.628906 37.21875 58.011719 35.011719 C 58.710938 31.097656 59.070312 29.921875 59.910156 28.988281 C 60.246094 28.601562 60.292969 28.601562 60.367188 28.9375 C 60.414062 29.15625 60.269531 30.503906 60.054688 31.914062 Z M 56.933594 38.085938 C 56.453125 40.601562 55.996094 42.980469 55.925781 43.410156 C 55.828125 44.035156 55.660156 44.179688 54.988281 44.328125 C 53.910156 44.515625 53.695312 44.347656 53.695312 43.363281 C 53.695312 42.066406 54.628906 37.050781 54.988281 36.308594 C 55.613281 35.132812 57.652344 32.78125 57.726562 33.1875 C 57.75 33.382812 57.390625 35.589844 56.933594 38.085938 Z M 61.660156 44.011719 C 61.347656 44.328125 60.652344 43.96875 60.535156 43.386719 C 60.390625 42.859375 60.894531 39.90625 61.421875 38.179688 C 61.710938 37.171875 61.734375 37.265625 61.804688 40.464844 C 61.828125 42.308594 61.78125 43.890625 61.660156 44.011719 Z M 53.933594 38.132812 C 53.933594 38.253906 53.71875 39.621094 53.453125 41.207031 C 53.191406 42.789062 52.972656 44.179688 52.972656 44.277344 C 52.972656 44.371094 52.347656 44.445312 51.605469 44.394531 L 50.214844 44.328125 L 50.261719 43.171875 C 50.285156 41.953125 51.246094 39.691406 51.652344 39.882812 C 51.773438 39.960938 51.84375 40.84375 51.796875 41.898438 C 51.726562 44.15625 52.109375 44.207031 52.347656 41.972656 C 52.566406 39.859375 53.140625 37.96875 53.574219 37.96875 C 53.765625 37.96875 53.933594 38.035156 53.933594 38.132812 Z M 90.148438 42.1875 C 90.582031 42.570312 90.339844 42.90625 89.191406 43.484375 C 88.207031 44.011719 87.941406 43.746094 88.636719 42.980469 C 88.972656 42.59375 88.972656 42.546875 88.515625 42.285156 C 88.207031 42.140625 88.011719 41.78125 88.011719 41.417969 L 88.011719 40.796875 L 88.925781 41.347656 C 89.40625 41.636719 89.957031 42.019531 90.148438 42.1875 Z M 49.542969 43.027344 C 49.445312 43.722656 49.347656 44.300781 49.300781 44.347656 C 49.277344 44.394531 48.484375 44.492188 47.574219 44.5625 L 45.894531 44.710938 L 46.710938 44.035156 C 47.164062 43.675781 47.910156 43.007812 48.390625 42.59375 C 48.871094 42.164062 49.347656 41.804688 49.46875 41.804688 C 49.589844 41.804688 49.613281 42.355469 49.542969 43.027344 Z M 3.390625 44.5625 C 3.414062 44.683594 3.125 44.832031 2.765625 44.878906 C 2.382812 44.921875 2.09375 44.851562 2.09375 44.710938 C 2.09375 44.226562 3.367188 44.085938 3.390625 44.5625 Z M 3.535156 46.007812 C 3.820312 46.171875 3.871094 47.085938 3.605469 47.085938 C 3.054688 47.085938 1.039062 46.195312 0.941406 45.90625 C 0.84375 45.644531 1.085938 45.59375 2.070312 45.71875 C 2.742188 45.789062 3.414062 45.929688 3.535156 46.007812 Z M 3.535156 46.007812 "/>
<path style=" stroke:none;fill-rule:nonzero;fill:rgb(0%,0%,0%);fill-opacity:1;" d="M 97.375 41.085938 C 97.0625 41.660156 96.535156 41.710938 96.316406 41.207031 C 96.171875 40.820312 95.453125 40.703125 95.453125 41.035156 C 95.453125 41.15625 95.667969 41.445312 95.933594 41.683594 C 96.628906 42.335938 96.535156 43.484375 95.574219 45.71875 C 94.636719 47.851562 94.636719 47.898438 94.972656 47.683594 C 95.117188 47.589844 95.644531 46.675781 96.171875 45.621094 C 96.703125 44.589844 97.253906 43.722656 97.398438 43.722656 C 97.542969 43.722656 97.878906 43.988281 98.140625 44.328125 C 98.40625 44.660156 98.765625 44.921875 98.980469 44.921875 C 99.246094 44.921875 99.101562 44.613281 98.476562 43.867188 C 97.613281 42.789062 97.421875 42.1875 97.855469 41.921875 C 98.164062 41.730469 98.164062 40.601562 97.855469 40.601562 C 97.734375 40.601562 97.515625 40.820312 97.375 41.085938 Z M 97.375 41.085938 "/>
<path style=" stroke:none;fill-rule:nonzero;fill:rgb(0%,0%,0%);fill-opacity:1;" d="M 73.613281 62.207031 C 73.613281 63.1875 73.566406 64.601562 73.492188 65.324219 L 73.375 66.644531 L 73.710938 65.683594 C 74.117188 64.582031 74.191406 61.292969 73.855469 60.761719 C 73.6875 60.523438 73.613281 60.960938 73.613281 62.207031 Z M 73.613281 62.207031 "/>
<path style=" stroke:none;fill-rule:nonzero;fill:rgb(0%,0%,0%);fill-opacity:1;" d="M 63.917969 62.109375 L 63.507812 62.996094 L 62.8125 62.253906 C 62.429688 61.820312 61.996094 61.484375 61.878906 61.484375 C 61.445312 61.484375 61.589844 62.109375 62.117188 62.589844 C 63.078125 63.457031 63.101562 63.761719 62.332031 65.683594 C 61.566406 67.632812 61.46875 68.058594 61.878906 67.917969 C 61.996094 67.867188 62.382812 67.195312 62.695312 66.425781 C 63.484375 64.507812 63.582031 64.433594 64.445312 65.347656 C 65.453125 66.425781 65.667969 66.09375 64.757812 64.820312 C 63.871094 63.625 63.84375 63.332031 64.515625 62.710938 C 65.023438 62.253906 65.070312 61.484375 64.589844 61.316406 C 64.46875 61.265625 64.15625 61.632812 63.917969 62.109375 Z M 63.917969 62.109375 "/>
<path style=" stroke:none;fill-rule:nonzero;fill:rgb(0%,0%,0%);fill-opacity:1;" d="M 67.804688 62.109375 C 67.300781 62.589844 67.710938 62.804688 69.101562 62.804688 C 69.941406 62.804688 70.636719 62.898438 70.6875 63.042969 C 70.710938 63.167969 69.941406 63.476562 69.003906 63.71875 C 67.179688 64.175781 66.628906 64.460938 67.179688 64.652344 C 67.636719 64.820312 71.453125 63.59375 71.453125 63.289062 C 71.453125 62.539062 70.757812 62.109375 69.390625 62.011719 C 68.597656 61.96875 67.902344 62.011719 67.804688 62.109375 Z M 67.804688 62.109375 "/>
</g>
</svg>
