<?xml version="1.0" encoding="UTF-8"?>
<svg xmlns="http://www.w3.org/2000/svg" xmlns:xlink="http://www.w3.org/1999/xlink" width="79pt" height="67pt" viewBox="0 0 79 67" version="1.1">
<defs>
<clipPath id="clip1">
  <path d="M 2 0.078125 L 70 0.078125 L 70 38 L 2 38 Z M 2 0.078125 "/>
</clipPath>
<clipPath id="clip2">
  <path d="M 71 0.078125 L 73 0.078125 L 73 1 L 71 1 Z M 71 0.078125 "/>
</clipPath>
<clipPath id="clip3">
  <path d="M 0 0.078125 L 79 0.078125 L 79 51 L 0 51 Z M 0 0.078125 "/>
</clipPath>
</defs>
<g id="surface1">
<g clip-path="url(#clip1)" clip-rule="nonzero">
<path style=" stroke:none;fill-rule:nonzero;fill:rgb(0%,0%,0%);fill-opacity:1;" d="M 44.152344 0.246094 C 41.320312 0.292969 34.359375 0.484375 28.671875 0.707031 C 23.007812 0.917969 14.992188 1.15625 10.863281 1.257812 C 6.761719 1.328125 3.328125 1.472656 3.234375 1.566406 C 2.847656 1.929688 2.632812 8.769531 2.511719 23.003906 C 2.441406 31.691406 2.488281 37.640625 2.609375 37.277344 C 2.730469 36.941406 2.847656 33.011719 2.847656 28.523438 C 2.871094 19.929688 3.234375 6.273438 3.496094 3.753906 C 3.640625 2.285156 3.664062 2.238281 4.410156 2.144531 C 4.816406 2.070312 8.175781 1.902344 11.871094 1.761719 C 15.570312 1.613281 21.089844 1.378906 24.113281 1.234375 C 27.160156 1.109375 38.535156 0.917969 49.410156 0.820312 C 64.914062 0.707031 69.207031 0.609375 69.304688 0.367188 C 69.402344 0.0820312 61.527344 0.0585938 44.152344 0.246094 Z M 44.152344 0.246094 "/>
</g>
<g clip-path="url(#clip2)" clip-rule="nonzero">
<path style=" stroke:none;fill-rule:nonzero;fill:rgb(0%,0%,0%);fill-opacity:1;" d="M 71.753906 0.316406 C 71.753906 0.441406 71.847656 0.5625 71.96875 0.5625 C 72.113281 0.5625 72.28125 0.441406 72.351562 0.316406 C 72.425781 0.179688 72.328125 0.0820312 72.136719 0.0820312 C 71.921875 0.0820312 71.753906 0.179688 71.753906 0.316406 Z M 71.753906 0.316406 "/>
</g>
<g clip-path="url(#clip3)" clip-rule="nonzero">
<path style=" stroke:none;fill-rule:nonzero;fill:rgb(0%,0%,0%);fill-opacity:1;" d="M 76.457031 2.769531 C 76.121094 8.265625 75.570312 14.9375 75.207031 17.960938 C 74.898438 20.601562 74.5625 30.753906 74.417969 42.484375 C 74.367188 45.316406 76.289062 45.058594 56.152344 44.890625 C 38.128906 44.722656 31.433594 44.527344 30.929688 44.21875 C 30.664062 44.070312 30.664062 43.664062 30.929688 42.179688 C 31.265625 40.109375 32.394531 35.359375 33.136719 32.910156 L 33.59375 31.304688 L 34.984375 30.796875 C 37.265625 29.9375 37.578125 29.9375 39.929688 31.019531 C 43.671875 32.742188 44.152344 32.84375 49.792969 32.84375 C 54.570312 32.84375 54.953125 32.816406 57.207031 32.167969 C 61.960938 30.851562 65.320312 28.761719 66.472656 26.386719 C 67.695312 23.84375 66.617188 19.355469 63.929688 15.777344 C 61.960938 13.1875 59.175781 11.339844 54.929688 9.871094 C 52.671875 9.105469 52.671875 9.105469 48.113281 9.105469 C 45.542969 9.128906 43.242188 9.246094 42.832031 9.394531 C 42.234375 9.609375 42.351562 9.632812 43.550781 9.515625 C 45.328125 9.347656 45.113281 9.707031 43.097656 10.277344 C 42.304688 10.492188 40.9375 11.046875 40.046875 11.507812 L 38.417969 12.316406 L 36.90625 11.621094 C 33.136719 9.941406 32.394531 9.796875 27.710938 9.796875 C 23.800781 9.796875 23.25 9.851562 21.761719 10.378906 C 19.601562 11.097656 16.769531 13.039062 15.542969 14.578125 C 14.273438 16.15625 13.265625 18.292969 12.832031 20.386719 C 12.375 22.472656 12.402344 22.929688 12.832031 24.683594 C 13.671875 27.941406 15.855469 30.203125 19.214844 31.304688 C 20.824219 31.835938 21.402344 31.882812 25.191406 31.882812 C 27.496094 31.882812 30.183594 31.734375 31.167969 31.566406 C 32.128906 31.402344 32.96875 31.304688 33.015625 31.355469 C 33.066406 31.402344 32.777344 32.554688 32.367188 33.941406 C 31.984375 35.3125 31.265625 38.238281 30.785156 40.421875 L 29.898438 44.433594 L 26.898438 44.578125 C 25.214844 44.648438 19.648438 44.789062 14.488281 44.863281 C 5.296875 45.011719 2.199219 44.910156 3.234375 44.457031 C 3.542969 44.3125 3.136719 44.265625 1.984375 44.3125 C 0.183594 44.386719 -0.367188 44.578125 0.234375 44.960938 C 0.640625 45.226562 1.023438 45.246094 17.273438 45.292969 L 29.632812 45.316406 L 29.703125 46.039062 C 29.730469 46.421875 29.65625 46.929688 29.535156 47.117188 C 29.34375 47.40625 29.226562 47.40625 28.816406 47.003906 C 28.527344 46.761719 28.242188 46.613281 28.167969 46.714844 C 27.976562 46.902344 28.457031 48.273438 29.058594 49.277344 L 29.585938 50.117188 L 30.449219 49.109375 C 30.929688 48.585938 31.695312 47.910156 32.152344 47.621094 C 32.945312 47.144531 32.96875 47.117188 32.367188 47.117188 C 32.03125 47.117188 31.550781 47.285156 31.289062 47.480469 C 30.542969 48.03125 30.449219 47.910156 30.519531 46.59375 C 30.59375 45.414062 30.640625 45.316406 31.3125 45.203125 C 32.25 45.03125 62.96875 45.367188 69.160156 45.632812 C 72.113281 45.753906 74.007812 45.941406 74.199219 46.109375 C 74.464844 46.304688 74.609375 46.328125 74.824219 46.109375 C 74.96875 45.96875 75.90625 45.796875 76.890625 45.730469 C 77.898438 45.683594 78.710938 45.515625 78.710938 45.394531 C 78.710938 45.082031 77.65625 44.742188 77.417969 44.984375 C 77.273438 45.105469 76.769531 45.203125 76.265625 45.203125 C 75.496094 45.203125 75.328125 45.105469 75.207031 44.578125 C 75.113281 44.238281 75.113281 38.769531 75.183594 32.40625 C 75.304688 22.109375 75.375 20.265625 75.90625 15.5625 C 76.242188 12.652344 76.648438 8.339844 76.792969 5.960938 C 76.9375 3.585938 77.128906 1.277344 77.199219 0.851562 C 77.296875 0.273438 77.25 0.0820312 76.960938 0.0820312 C 76.695312 0.0820312 76.578125 0.632812 76.457031 2.769531 Z M 52.648438 9.820312 C 54.640625 10.066406 54.6875 9.394531 52.191406 19.210938 C 50.96875 24.082031 49.890625 28.542969 49.792969 29.167969 C 49.601562 30.535156 49.9375 30.683594 50.632812 29.527344 C 51.136719 28.714844 51.28125 28.039062 50.871094 28.277344 C 50.730469 28.355469 50.632812 28.1875 50.632812 27.871094 C 50.632812 26.507812 54.710938 11.265625 55.191406 10.78125 C 55.335938 10.640625 55.601562 10.714844 55.863281 10.953125 C 56.128906 11.191406 56.488281 11.3125 56.703125 11.238281 C 57.496094 10.929688 61 13.234375 62.96875 15.394531 C 65.847656 18.515625 67.265625 23.507812 65.992188 26.117188 C 65.511719 27.128906 63.710938 29.070312 63.472656 28.835938 C 63.351562 28.734375 63.953125 26.21875 65.175781 21.484375 C 65.273438 21.203125 65.226562 20.960938 65.105469 20.960938 C 64.695312 20.960938 64.097656 22.640625 63.59375 25.15625 C 62.777344 29.3125 62.753906 29.339844 60.664062 30.394531 C 54.953125 33.226562 46.335938 33.316406 40.265625 30.632812 C 39.496094 30.292969 38.871094 29.910156 38.871094 29.789062 C 38.871094 29.527344 42.472656 27.851562 42.664062 28.039062 C 42.738281 28.109375 42.785156 28.78125 42.738281 29.554688 L 42.6875 30.917969 L 43.167969 30.03125 C 43.457031 29.527344 43.671875 28.902344 43.671875 28.664062 C 43.671875 28.402344 44.128906 27.347656 44.65625 26.3125 L 45.640625 24.441406 L 45.496094 21.632812 C 45.328125 18.609375 45.6875 16.234375 46.960938 12.246094 C 47.535156 10.421875 47.535156 9.796875 47.007812 10.328125 C 46.890625 10.445312 46.382812 12.179688 45.929688 14.144531 C 45.449219 16.109375 44.992188 17.910156 44.921875 18.152344 C 44.777344 18.515625 44.417969 18.226562 42.953125 16.523438 C 41.96875 15.367188 40.722656 14.046875 40.144531 13.59375 C 39.570312 13.136719 39.183594 12.632812 39.257812 12.515625 C 39.472656 12.179688 42.738281 10.640625 42.953125 10.761719 C 43.046875 10.808594 43 11.386719 42.832031 12.011719 C 42.304688 14.097656 42.183594 14.960938 42.472656 14.960938 C 42.617188 14.960938 42.761719 14.816406 42.808594 14.648438 C 43.097656 13.402344 44.03125 10.929688 44.320312 10.59375 C 45.113281 9.707031 48.929688 9.347656 52.648438 9.820312 Z M 31.359375 10.257812 C 33.039062 10.613281 36.066406 11.621094 37.265625 12.246094 L 37.9375 12.585938 L 37.144531 13.472656 C 33.929688 17.027344 32.945312 20.984375 34.265625 24.851562 L 34.816406 26.457031 L 34.167969 28.277344 C 33.808594 29.285156 33.375 30.273438 33.207031 30.441406 C 32.25 31.378906 22.695312 31.761719 20.03125 30.941406 C 18.015625 30.347656 16.550781 29.527344 15.496094 28.472656 C 12.136719 25.109375 12.496094 18.707031 16.289062 14.457031 C 17.800781 12.753906 19.3125 11.789062 21.808594 10.882812 C 23.921875 10.109375 24.617188 9.988281 24.328125 10.445312 C 24.207031 10.640625 24.28125 10.664062 24.617188 10.542969 C 26.082031 9.96875 27.28125 10.089844 28.074219 10.882812 C 28.433594 11.238281 28.550781 11.265625 28.550781 11.027344 C 28.550781 10.835938 28.457031 10.59375 28.3125 10.523438 C 27.808594 10.210938 28.097656 9.917969 28.890625 9.917969 C 29.34375 9.917969 30.449219 10.066406 31.359375 10.257812 Z M 39.90625 14.003906 C 40.503906 14.554688 41.730469 15.851562 42.640625 16.929688 C 44.273438 18.871094 44.273438 18.898438 44.273438 20.339844 C 44.273438 21.152344 44.175781 22.378906 44.082031 23.070312 C 43.9375 24.105469 43.960938 24.347656 44.199219 24.273438 C 44.367188 24.203125 44.535156 23.910156 44.585938 23.578125 C 44.609375 23.265625 44.703125 22.613281 44.800781 22.15625 L 44.945312 21.316406 L 45.160156 22.039062 C 45.519531 23.265625 45.183594 24.632812 44.25 25.734375 C 43.191406 26.960938 38.753906 29.265625 37.9375 29.003906 C 37.191406 28.761719 35.753906 26.769531 35.753906 25.976562 C 35.753906 25.234375 37 23.601562 37.578125 23.601562 C 37.769531 23.601562 37.914062 23.457031 37.914062 23.265625 C 37.914062 22.445312 35.824219 23.984375 35.464844 25.066406 C 35.273438 25.640625 34.816406 25.019531 34.527344 23.742188 C 34.074219 21.632812 34.335938 18.917969 35.199219 17.097656 C 35.96875 15.484375 37.960938 13.039062 38.488281 13.039062 C 38.65625 13.039062 39.304688 13.472656 39.90625 14.003906 Z M 36.351562 28.328125 L 37.242188 29.480469 L 36.542969 29.769531 C 35.441406 30.203125 34.074219 30.414062 34.074219 30.105469 C 34.074219 29.621094 35.082031 27.203125 35.273438 27.203125 C 35.394531 27.203125 35.871094 27.707031 36.351562 28.328125 Z M 36.351562 28.328125 "/>
</g>
<path style=" stroke:none;fill-rule:nonzero;fill:rgb(0%,0%,0%);fill-opacity:1;" d="M 51.257812 11.285156 C 50.703125 12.414062 46.722656 28.019531 46.382812 30.441406 C 46.191406 31.859375 46.648438 31.882812 47.273438 30.484375 C 47.800781 29.339844 47.871094 28.714844 47.488281 28.59375 C 47.058594 28.445312 51.207031 12.367188 51.832031 11.742188 C 52.144531 11.433594 52.144531 10.640625 51.832031 10.640625 C 51.710938 10.640625 51.449219 10.929688 51.257812 11.285156 Z M 51.257812 11.285156 "/>
<path style=" stroke:none;fill-rule:nonzero;fill:rgb(0%,0%,0%);fill-opacity:1;" d="M 57.710938 12.851562 C 57.640625 13.019531 57.066406 15.535156 56.394531 18.441406 C 55.722656 21.347656 54.90625 24.753906 54.59375 26.003906 C 53.535156 30.273438 53.585938 31.355469 54.710938 29.433594 C 55.097656 28.761719 55.144531 28.523438 54.929688 28.378906 C 54.6875 28.234375 54.929688 26.863281 56.007812 22.355469 C 56.777344 19.136719 57.664062 15.820312 57.976562 14.984375 C 58.289062 14.144531 58.550781 13.257812 58.550781 13.019531 C 58.550781 12.515625 57.878906 12.394531 57.710938 12.851562 Z M 57.710938 12.851562 "/>
<path style=" stroke:none;fill-rule:nonzero;fill:rgb(0%,0%,0%);fill-opacity:1;" d="M 60.472656 14.695312 C 60.136719 15.367188 58.625 21.535156 58.074219 24.652344 C 57.328125 28.761719 57.496094 29.984375 58.550781 27.917969 C 59.105469 26.863281 59.175781 26.480469 58.746094 26.910156 C 58.578125 27.082031 58.382812 27.203125 58.3125 27.203125 C 58.074219 27.203125 58.457031 24.941406 59.296875 21.316406 C 60.136719 17.621094 60.664062 15.941406 61.097656 15.414062 C 61.527344 14.910156 61.527344 14.238281 61.074219 14.238281 C 60.878906 14.238281 60.617188 14.457031 60.472656 14.695312 Z M 60.472656 14.695312 "/>
<path style=" stroke:none;fill-rule:nonzero;fill:rgb(0%,0%,0%);fill-opacity:1;" d="M 62.152344 22.421875 C 60.808594 26.554688 60.496094 27.988281 60.90625 28.257812 C 61.046875 28.355469 61.359375 28.136719 61.578125 27.777344 C 61.9375 27.246094 61.9375 27.128906 61.648438 26.960938 C 61.382812 26.789062 61.433594 26.386719 62.007812 24.632812 C 62.367188 23.480469 62.992188 21.730469 63.375 20.769531 C 64.167969 18.753906 64.191406 18.5625 63.738281 18.5625 C 63.496094 18.5625 62.992188 19.835938 62.152344 22.421875 Z M 62.152344 22.421875 "/>
<path style=" stroke:none;fill-rule:nonzero;fill:rgb(0%,0%,0%);fill-opacity:1;" d="M 37.527344 20.84375 C 37.335938 21.609375 37.914062 22.304688 38.511719 22.066406 C 39.136719 21.820312 38.898438 20.386719 38.226562 20.285156 C 37.816406 20.21875 37.648438 20.359375 37.527344 20.84375 Z M 37.527344 20.84375 "/>
<path style=" stroke:none;fill-rule:nonzero;fill:rgb(0%,0%,0%);fill-opacity:1;" d="M 64.792969 33.796875 C 64.792969 36.707031 64.9375 37.523438 65.367188 36.820312 C 65.441406 36.730469 66.160156 36.441406 66.953125 36.226562 C 68.871094 35.671875 68.992188 35.285156 67.648438 34.136719 L 66.59375 33.246094 L 67.097656 32.671875 C 67.863281 31.835938 67.960938 31.566406 67.671875 31.039062 C 67.457031 30.652344 67.167969 30.5625 66.113281 30.5625 L 64.792969 30.5625 Z M 66.929688 31.257812 C 67.214844 31.445312 67.121094 31.640625 66.496094 32.359375 C 65.753906 33.226562 65.730469 33.273438 66.160156 33.730469 C 66.375 33.988281 66.878906 34.378906 67.242188 34.59375 C 67.625 34.808594 67.914062 35.046875 67.914062 35.144531 C 67.914062 35.386719 66.519531 35.84375 65.800781 35.84375 C 65.226562 35.84375 65.199219 35.816406 65.320312 34.066406 C 65.394531 32.960938 65.585938 32.027344 65.847656 31.664062 C 66.28125 30.988281 66.425781 30.941406 66.929688 31.257812 Z M 66.929688 31.257812 "/>
<path style=" stroke:none;fill-rule:nonzero;fill:rgb(0%,0%,0%);fill-opacity:1;" d="M 7.359375 32.480469 C 6.929688 33.441406 6.375 36.917969 6.519531 37.78125 L 6.617188 38.359375 L 6.878906 37.761719 C 7.023438 37.421875 7.265625 36.820312 7.433594 36.441406 L 7.722656 35.722656 L 8.5625 36.683594 C 9.375 37.613281 9.402344 37.59375 9.089844 36.316406 C 9.015625 36.105469 9.351562 35.863281 10.074219 35.601562 L 11.152344 35.238281 L 9.878906 35.167969 C 8.464844 35.097656 8.273438 34.859375 7.9375 32.722656 L 7.746094 31.640625 Z M 7.816406 35.285156 C 7.550781 35.554688 7.359375 35.144531 7.550781 34.714844 C 7.746094 34.304688 7.746094 34.304688 7.839844 34.714844 C 7.914062 34.953125 7.890625 35.21875 7.816406 35.285156 Z M 7.816406 35.285156 "/>
<path style=" stroke:none;fill-rule:nonzero;fill:rgb(0%,0%,0%);fill-opacity:1;" d="M 17.679688 53.359375 C 16.289062 55.019531 15.472656 59.027344 16.074219 61.257812 C 16.625 63.292969 18.449219 64.402344 20.777344 64.109375 C 21.425781 64.019531 21.425781 64.019531 20.511719 63.820312 C 19.984375 63.730469 19.3125 63.609375 19.023438 63.539062 C 18.710938 63.484375 18.113281 63.105469 17.65625 62.722656 C 16.191406 61.425781 15.953125 58.542969 17.058594 55.664062 C 17.511719 54.414062 18.402344 53.285156 18.738281 53.507812 C 18.855469 53.578125 18.953125 53.40625 18.953125 53.144531 C 18.953125 52.421875 18.375 52.523438 17.679688 53.359375 Z M 17.679688 53.359375 "/>
<path style=" stroke:none;fill-rule:nonzero;fill:rgb(0%,0%,0%);fill-opacity:1;" d="M 37.578125 53.789062 C 37.480469 53.9375 37.625 54.367188 37.914062 54.730469 C 38.175781 55.109375 38.511719 56.097656 38.65625 56.9375 C 39.160156 59.695312 38.25 63.011719 36.472656 65.050781 C 35.25 66.417969 35.703125 66.273438 37.023438 64.859375 C 37.890625 63.941406 38.417969 63.125 38.730469 62.21875 C 39.304688 60.441406 39.472656 57.851562 39.113281 56.167969 C 38.824219 54.730469 37.890625 53.285156 37.578125 53.789062 Z M 37.578125 53.789062 "/>
<path style=" stroke:none;fill-rule:nonzero;fill:rgb(0%,0%,0%);fill-opacity:1;" d="M 27.878906 54.226562 C 27.066406 54.777344 25.9375 58.882812 26.585938 58.882812 C 26.679688 58.882812 26.921875 58.207031 27.089844 57.394531 C 27.878906 53.578125 28.960938 53.695312 29.007812 57.609375 C 29.03125 58.613281 29.128906 59.359375 29.273438 59.359375 C 29.417969 59.359375 29.511719 58.523438 29.511719 57.316406 C 29.511719 54.515625 28.960938 53.457031 27.878906 54.226562 Z M 27.878906 54.226562 "/>
<path style=" stroke:none;fill-rule:nonzero;fill:rgb(0%,0%,0%);fill-opacity:1;" d="M 32.152344 54.367188 C 32.152344 54.683594 32.273438 55.089844 32.394531 55.277344 C 32.585938 55.566406 32.632812 55.542969 32.632812 55.089844 C 32.632812 54.367188 33.066406 54.414062 33.402344 55.1875 C 33.664062 55.714844 33.640625 55.859375 33.234375 56.144531 C 32.585938 56.621094 32.394531 56.578125 32.128906 55.761719 C 31.984375 55.355469 31.769531 55.039062 31.671875 55.039062 C 31.410156 55.039062 31.671875 58.929688 31.9375 59.238281 C 32.175781 59.480469 34.792969 58.304688 34.792969 57.941406 C 34.792969 57.800781 34.550781 57.539062 34.265625 57.347656 C 33.761719 56.984375 33.761719 56.910156 34.046875 56.070312 C 34.359375 55.210938 34.359375 55.1875 33.617188 54.515625 C 32.703125 53.695312 32.152344 53.648438 32.152344 54.367188 Z M 33.496094 58.136719 C 33.402344 58.277344 33.113281 58.402344 32.847656 58.402344 C 32.488281 58.402344 32.394531 58.234375 32.394531 57.515625 L 32.394531 56.601562 L 33.015625 57.25 C 33.375 57.582031 33.570312 57.988281 33.496094 58.136719 Z M 33.496094 58.136719 "/>
<path style=" stroke:none;fill-rule:nonzero;fill:rgb(0%,0%,0%);fill-opacity:1;" d="M 22.527344 55.210938 C 22.242188 55.929688 21.351562 59.3125 21.351562 59.648438 C 21.351562 60.152344 21.90625 59.742188 22.214844 58.976562 C 22.503906 58.304688 22.648438 58.1875 22.890625 58.402344 C 23.082031 58.542969 23.296875 59.027344 23.367188 59.507812 C 23.585938 60.582031 23.992188 60.316406 23.992188 59.097656 C 23.992188 58.207031 24.039062 58.136719 24.785156 57.988281 L 25.550781 57.820312 L 24.59375 57.539062 L 23.632812 57.273438 L 23.703125 55.902344 C 23.777344 54.683594 23.730469 54.5625 23.273438 54.5625 C 22.960938 54.5625 22.695312 54.796875 22.527344 55.210938 Z M 22.9375 57.367188 C 22.671875 57.632812 22.480469 57.226562 22.671875 56.789062 C 22.863281 56.386719 22.863281 56.386719 22.960938 56.789062 C 23.03125 57.03125 23.007812 57.292969 22.9375 57.367188 Z M 22.9375 57.367188 "/>
</g>
</svg>
