<?xml version="1.0" encoding="UTF-8"?>
<svg xmlns="http://www.w3.org/2000/svg" xmlns:xlink="http://www.w3.org/1999/xlink" width="117pt" height="72pt" viewBox="0 0 117 72" version="1.1">
<defs>
<clipPath id="clip1">
  <path d="M 31 0.296875 L 38 0.296875 L 38 10 L 31 10 Z M 31 0.296875 "/>
</clipPath>
</defs>
<g id="surface1">
<g clip-path="url(#clip1)" clip-rule="nonzero">
<path style=" stroke:none;fill-rule:nonzero;fill:rgb(0%,0%,0%);fill-opacity:1;" d="M 31.640625 1.261719 C 31.640625 3.253906 32.886719 4.382812 33.535156 2.992188 C 33.871094 2.222656 34.257812 2.464844 34.496094 3.664062 C 34.617188 4.191406 34.542969 4.886719 34.234375 5.773438 C 33.488281 7.933594 33.632812 9.445312 34.570312 9.757812 C 35.503906 10.046875 35.792969 9.304688 35.601562 6.832031 L 35.457031 4.648438 L 36.441406 3.421875 C 37.519531 2.03125 37.449219 1.839844 36.199219 2.894531 C 35.746094 3.304688 35.3125 3.613281 35.214844 3.613281 C 35.121094 3.613281 34.855469 3.039062 34.664062 2.320312 C 34.449219 1.625 34.136719 0.902344 33.945312 0.757812 C 33.679688 0.542969 33.585938 0.664062 33.464844 1.527344 C 33.367188 2.128906 33.152344 2.800781 32.960938 3.039062 C 32.648438 3.472656 32.625 3.472656 32.480469 2.847656 C 32.382812 2.488281 32.289062 1.792969 32.289062 1.3125 C 32.214844 -0.0078125 31.640625 -0.0585938 31.640625 1.261719 Z M 35.121094 7.960938 C 35.023438 8.605469 34.878906 9.136719 34.761719 9.136719 C 34.257812 9.136719 34.113281 7.261719 34.542969 6.445312 C 34.808594 5.992188 34.832031 5.96875 35.046875 6.351562 C 35.167969 6.589844 35.214844 7.289062 35.121094 7.960938 Z M 35.121094 7.960938 "/>
</g>
<path style=" stroke:none;fill-rule:nonzero;fill:rgb(0%,0%,0%);fill-opacity:1;" d="M 25.542969 4.910156 C 25.160156 5.511719 23.960938 8.871094 23.960938 9.351562 C 23.960938 9.496094 24.464844 9.613281 25.136719 9.613281 L 26.289062 9.613281 L 26.457031 11.679688 C 26.839844 16.238281 27.054688 27.542969 27.082031 41.222656 C 27.082031 54.039062 27.03125 55.695312 26.695312 56.03125 C 26.359375 56.367188 25.089844 56.414062 16.160156 56.414062 C 4.761719 56.414062 5.410156 56.511719 5.144531 54.613281 C 5.046875 54.015625 4.832031 53.464844 4.640625 53.390625 C 4.28125 53.246094 2.578125 54.0625 2.144531 54.589844 C 1.953125 54.808594 1.402344 55.214844 0.898438 55.503906 C -0.589844 56.34375 -0.375 56.679688 2.671875 58.167969 C 4.136719 58.886719 5.457031 59.414062 5.578125 59.34375 C 5.695312 59.296875 5.71875 58.695312 5.648438 58.070312 L 5.503906 56.894531 L 16.28125 56.894531 C 22.207031 56.894531 27.105469 56.992188 27.175781 57.085938 C 27.417969 57.472656 27.777344 63.976562 27.609375 64.816406 C 27.441406 65.605469 27.34375 65.679688 26.242188 65.871094 C 25.570312 65.992188 24.992188 66.136719 24.96875 66.160156 C 24.824219 66.253906 26.71875 68.941406 27.730469 70.070312 C 28.953125 71.464844 29.359375 71.320312 29.578125 69.445312 C 29.746094 68.199219 29.984375 66.953125 30.367188 65.679688 C 30.488281 65.269531 30.390625 65.246094 29.433594 65.390625 L 28.351562 65.558594 L 28.207031 63.808594 C 28.113281 62.847656 27.96875 60.902344 27.898438 59.488281 L 27.730469 56.941406 L 29.265625 56.800781 C 30.105469 56.726562 34.425781 56.605469 38.839844 56.535156 C 43.257812 56.464844 48.777344 56.34375 51.105469 56.269531 L 55.328125 56.101562 L 55.496094 56.992188 C 55.6875 57.953125 55.761719 58 56.265625 57.496094 C 56.527344 57.230469 57.152344 57.136719 58.375 57.136719 C 59.3125 57.136719 60.679688 56.96875 61.402344 56.75 C 63.054688 56.246094 73.234375 56.007812 75.703125 56.390625 C 76.6875 56.535156 77.433594 56.558594 77.601562 56.414062 C 77.746094 56.296875 81.898438 56.128906 86.839844 56.054688 C 95.167969 55.933594 101.839844 55.648438 104.3125 55.3125 L 105.320312 55.167969 L 105.320312 56.007812 C 105.320312 56.488281 105.199219 57.160156 105.082031 57.496094 C 104.9375 57.855469 104.886719 58.238281 104.984375 58.359375 C 105.175781 58.671875 105.992188 58.167969 106.160156 57.613281 C 106.257812 57.351562 106.953125 56.703125 107.71875 56.175781 C 108.488281 55.648438 109.28125 54.878906 109.496094 54.472656 C 109.855469 53.75 109.855469 53.65625 109.496094 53.269531 C 109.066406 52.792969 108.632812 52.863281 108.824219 53.390625 C 108.898438 53.558594 108.800781 53.773438 108.609375 53.847656 C 108.105469 54.039062 106.785156 53.296875 106.089844 52.40625 C 105.730469 51.976562 105.367188 51.613281 105.296875 51.613281 C 105.222656 51.613281 105.175781 52.289062 105.175781 53.101562 L 105.199219 54.613281 L 103.160156 54.902344 C 101.335938 55.167969 85.929688 55.671875 79.710938 55.695312 L 77.289062 55.695312 L 76.953125 53.941406 C 76.59375 51.902344 76.542969 26.824219 76.90625 16.382812 C 77.097656 10.527344 77.097656 10.09375 76.710938 10.09375 C 76.351562 10.09375 76.328125 10.289062 76.425781 11.34375 C 76.496094 12.039062 76.59375 12.808594 76.640625 13.070312 C 76.878906 14.246094 72.488281 21.136719 68.480469 25.886719 C 67.519531 27.039062 65.214844 29.464844 63.390625 31.261719 C 60.535156 34.09375 59.9375 34.574219 59.289062 34.574219 C 58.710938 34.574219 58.542969 34.695312 58.472656 35.101562 C 58.402344 35.582031 58.257812 35.65625 57.390625 35.632812 C 56.792969 35.632812 55.878906 35.34375 55.160156 34.984375 C 53.671875 34.214844 53.648438 34.214844 53.839844 34.816406 C 53.914062 35.054688 53.886719 35.488281 53.746094 35.726562 C 53.527344 36.160156 52.929688 36.183594 42.488281 36.351562 C 36.441406 36.421875 31.304688 36.445312 31.113281 36.375 C 30.921875 36.304688 30.632812 35.96875 30.488281 35.632812 C 30.320312 35.320312 30.082031 35.054688 29.9375 35.054688 C 29.648438 35.054688 28.039062 36.640625 28.039062 36.925781 C 28.039062 37.023438 28.519531 37.289062 29.097656 37.527344 C 30.105469 37.933594 30.199219 37.960938 30.800781 37.550781 C 31.6875 36.976562 36.921875 36.710938 46.402344 36.78125 L 54.082031 36.855469 L 54.007812 37.503906 C 53.9375 38.03125 54.03125 38.175781 54.390625 38.175781 C 54.703125 38.175781 54.921875 37.960938 55.015625 37.597656 C 55.160156 36.976562 55.832031 36.589844 56.191406 36.953125 C 56.3125 37.070312 56.3125 37.359375 56.144531 37.648438 C 55.496094 38.847656 47.191406 45.664062 42.488281 48.832031 C 38.71875 51.375 29.382812 55.933594 27.921875 55.933594 C 27.609375 55.933594 27.5625 54.328125 27.5625 41.582031 C 27.5625 33.710938 27.441406 23.269531 27.273438 18.398438 C 27.082031 12.207031 27.054688 9.496094 27.25 9.445312 C 27.367188 9.398438 27.679688 9.230469 27.898438 9.0625 C 28.28125 8.773438 28.257812 8.65625 27.609375 7.214844 C 27.222656 6.351562 26.792969 5.367188 26.648438 4.984375 C 26.3125 4.191406 26.046875 4.167969 25.542969 4.910156 Z M 26.3125 7.597656 C 26.242188 8.75 26.214844 8.773438 25.449219 8.847656 C 24.730469 8.917969 24.65625 8.871094 24.777344 8.4375 C 24.847656 8.152344 24.992188 7.695312 25.066406 7.382812 C 25.28125 6.640625 25.929688 5.96875 26.167969 6.207031 C 26.289062 6.328125 26.359375 6.953125 26.3125 7.597656 Z M 27.320312 8.4375 C 27.320312 8.558594 27.222656 8.605469 27.082031 8.535156 C 26.960938 8.464844 26.839844 8.34375 26.839844 8.269531 C 26.839844 8.222656 26.960938 8.175781 27.082031 8.175781 C 27.222656 8.175781 27.320312 8.296875 27.320312 8.4375 Z M 76.234375 24.253906 C 76.015625 31.816406 76.160156 52.574219 76.449219 54.710938 L 76.570312 55.765625 L 68.527344 55.648438 C 64.113281 55.574219 60.367188 55.429688 60.222656 55.335938 C 59.886719 55.144531 59.863281 43.261719 60.199219 39.496094 C 60.5625 35.296875 60.609375 35.175781 65.433594 30.039062 C 68.503906 26.773438 70.402344 24.496094 72.488281 21.542969 C 74.074219 19.3125 75.535156 17.175781 75.753906 16.816406 C 75.96875 16.429688 76.234375 16.191406 76.304688 16.289062 C 76.375 16.382812 76.351562 19.960938 76.234375 24.253906 Z M 59.71875 36.734375 C 59.71875 37.238281 59.359375 37.382812 59.121094 36.976562 C 58.953125 36.6875 59.167969 36.253906 59.503906 36.253906 C 59.625 36.253906 59.71875 36.472656 59.71875 36.734375 Z M 59.550781 37.839844 C 59.648438 37.933594 59.503906 38.390625 59.265625 38.871094 C 59 39.351562 58.472656 40.839844 58.066406 42.183594 C 57.65625 43.527344 57.199219 44.703125 57.082031 44.773438 C 56.671875 45.015625 56.816406 44.296875 57.5625 41.96875 C 58.976562 37.695312 59.097656 37.40625 59.550781 37.839844 Z M 57.847656 39.015625 C 57.800781 39.351562 57.65625 39.613281 57.5625 39.613281 C 57.464844 39.613281 57.441406 39.351562 57.511719 39.015625 C 57.5625 38.679688 57.703125 38.414062 57.800781 38.414062 C 57.898438 38.414062 57.921875 38.679688 57.847656 39.015625 Z M 56.121094 41.222656 C 56.121094 44.4375 55.59375 55.3125 55.402344 55.527344 C 55.257812 55.695312 30.65625 56.246094 30.488281 56.054688 C 30.441406 56.007812 32.457031 54.925781 35 53.65625 C 42.199219 50.054688 44.480469 48.519531 51.945312 42.253906 C 53.984375 40.527344 55.761719 39.136719 55.878906 39.136719 C 56.023438 39.136719 56.121094 40.046875 56.121094 41.222656 Z M 59.480469 41.390625 C 59.480469 41.726562 59.382812 42.0625 59.242188 42.136719 C 59.097656 42.230469 59 41.96875 59 41.558594 C 59 41.152344 59.121094 40.816406 59.242188 40.816406 C 59.382812 40.816406 59.480469 41.078125 59.480469 41.390625 Z M 59.480469 44.894531 C 59.480469 45.757812 59.359375 46.191406 59 46.527344 C 58.738281 46.765625 58.160156 47.800781 57.703125 48.832031 C 57.273438 49.839844 56.769531 50.824219 56.601562 50.96875 C 56.359375 51.207031 56.335938 51.160156 56.480469 50.773438 C 56.578125 50.511719 56.863281 49.574219 57.105469 48.6875 C 57.65625 46.742188 58.976562 43.695312 59.265625 43.695312 C 59.382812 43.695312 59.480469 44.222656 59.480469 44.894531 Z M 59.335938 48.328125 C 59.074219 49.238281 57.488281 51.976562 57.390625 51.6875 C 57.25 51.277344 59.023438 47.511719 59.289062 47.679688 C 59.410156 47.75 59.433594 48.039062 59.335938 48.328125 Z M 59.097656 52.429688 C 58.878906 53.558594 57.777344 55.429688 57.296875 55.574219 C 57.054688 55.671875 56.648438 55.625 56.433594 55.480469 C 56.023438 55.261719 56.023438 55.238281 56.480469 55.070312 C 57.34375 54.757812 58.304688 53.726562 58.015625 53.390625 C 57.847656 53.175781 57.921875 52.742188 58.304688 51.832031 C 58.808594 50.703125 58.855469 50.632812 59.046875 51.160156 C 59.167969 51.445312 59.191406 52.046875 59.097656 52.429688 Z M 106.710938 54.0625 C 106.59375 54.421875 106.207031 54.375 106.089844 54.015625 C 106.039062 53.871094 106.183594 53.773438 106.402344 53.773438 C 106.617188 53.773438 106.761719 53.917969 106.710938 54.0625 Z M 4.472656 54.925781 C 4.542969 55.648438 4.496094 55.695312 3.824219 55.695312 C 2.816406 55.695312 2.695312 56.054688 3.632812 56.4375 C 4.542969 56.800781 4.761719 57.0625 4.761719 57.832031 C 4.761719 58.261719 4.664062 58.359375 4.351562 58.214844 C 4.113281 58.121094 3.390625 57.832031 2.71875 57.566406 C 1.449219 57.0625 0.921875 56.726562 0.921875 56.390625 C 0.921875 56.078125 3.847656 53.992188 4.160156 54.085938 C 4.28125 54.136719 4.425781 54.519531 4.472656 54.925781 Z M 59.242188 55.121094 C 59.242188 55.167969 59.144531 55.214844 59 55.214844 C 58.878906 55.214844 58.761719 55.09375 58.761719 54.953125 C 58.761719 54.832031 58.878906 54.78125 59 54.855469 C 59.144531 54.925781 59.242188 55.046875 59.242188 55.121094 Z M 108.441406 54.953125 C 108.441406 55.3125 106.425781 56.414062 106.207031 56.199219 C 105.898438 55.886719 106.234375 55.023438 106.710938 54.902344 C 107.480469 54.6875 108.441406 54.734375 108.441406 54.953125 Z M 29.480469 66.304688 C 29.480469 66.953125 28.929688 69.757812 28.761719 69.925781 C 28.542969 70.167969 26.121094 67.550781 26.121094 67.070312 C 26.121094 66.519531 27.105469 66.253906 27.753906 66.640625 C 28.207031 66.953125 28.28125 66.953125 28.28125 66.640625 C 28.28125 66.304688 28.617188 66.0625 29.191406 66.039062 C 29.335938 66.015625 29.480469 66.136719 29.480469 66.304688 Z M 29.480469 66.304688 "/>
<path style=" stroke:none;fill-rule:nonzero;fill:rgb(0%,0%,0%);fill-opacity:1;" d="M 40.570312 12.421875 C 40.664062 12.976562 41.097656 12.953125 41.191406 12.421875 C 41.242188 12.183594 41.121094 12.015625 40.878906 12.015625 C 40.640625 12.015625 40.519531 12.183594 40.570312 12.421875 Z M 40.570312 12.421875 "/>
<path style=" stroke:none;fill-rule:nonzero;fill:rgb(0%,0%,0%);fill-opacity:1;" d="M 56.886719 26.992188 C 56.335938 28.625 55.878906 30.015625 55.878906 30.109375 C 55.878906 30.183594 56.046875 30.253906 56.242188 30.253906 C 56.457031 30.253906 56.839844 29.871094 57.105469 29.414062 C 57.390625 28.960938 57.730469 28.574219 57.898438 28.574219 C 58.066406 28.574219 58.449219 29.078125 58.738281 29.703125 C 59.359375 30.976562 59.648438 30.78125 59.265625 29.390625 C 58.976562 28.382812 59.074219 28.09375 59.71875 28.09375 C 60.511719 28.09375 60.464844 27.640625 59.671875 27.566406 C 58.929688 27.496094 58.878906 27.421875 58.710938 26.296875 C 58.472656 24.640625 58.304688 24.015625 58.066406 24.015625 C 57.96875 24.015625 57.417969 25.359375 56.886719 26.992188 Z M 58.28125 27.519531 C 58.28125 27.566406 58.183594 27.613281 58.039062 27.613281 C 57.921875 27.613281 57.800781 27.496094 57.800781 27.351562 C 57.800781 27.230469 57.921875 27.183594 58.039062 27.253906 C 58.183594 27.328125 58.28125 27.445312 58.28125 27.519531 Z M 58.28125 27.519531 "/>
<path style=" stroke:none;fill-rule:nonzero;fill:rgb(0%,0%,0%);fill-opacity:1;" d="M 112.039062 53.632812 C 112.039062 54.734375 112.617188 55.480469 112.808594 54.613281 C 112.855469 54.375 113.074219 54.542969 113.457031 55.09375 L 114.007812 55.933594 L 113.167969 57.734375 C 112.6875 58.71875 112.375 59.535156 112.472656 59.535156 C 112.570312 59.535156 113.046875 58.863281 113.527344 58.070312 L 114.390625 56.582031 L 114.898438 57.566406 C 115.402344 58.550781 115.878906 59.054688 115.878906 58.574219 C 115.878906 58.429688 115.664062 57.902344 115.402344 57.375 C 114.753906 56.101562 114.800781 55.671875 115.640625 54.855469 C 116.359375 54.183594 116.578125 53.535156 116.121094 53.535156 C 116 53.535156 115.542969 53.917969 115.136719 54.375 L 114.367188 55.191406 L 113.550781 54.136719 C 112.640625 52.933594 112.039062 52.742188 112.039062 53.632812 Z M 112.039062 53.632812 "/>
<path style=" stroke:none;fill-rule:nonzero;fill:rgb(0%,0%,0%);fill-opacity:1;" d="M 57.535156 60.183594 C 57.296875 60.445312 57.199219 61.261719 57.199219 62.773438 C 57.199219 64.574219 57.128906 65.101562 56.769531 65.464844 C 56.382812 65.917969 56.382812 65.96875 56.816406 66.351562 C 57.273438 66.757812 57.34375 66.757812 58.617188 66.160156 C 59.359375 65.800781 59.960938 65.390625 59.960938 65.222656 C 59.960938 65.054688 59.695312 64.503906 59.382812 63.976562 L 58.808594 63.039062 L 59.359375 62.296875 C 60.199219 61.214844 60.34375 60.351562 59.769531 60.039062 C 59.046875 59.65625 57.898438 59.726562 57.535156 60.183594 Z M 59.382812 60.496094 C 59.671875 60.496094 59.410156 61.382812 58.953125 61.863281 C 58.28125 62.582031 58.039062 62.558594 58.039062 61.792969 C 58.039062 60.925781 58.496094 60.183594 58.929688 60.351562 C 59.121094 60.421875 59.335938 60.496094 59.382812 60.496094 Z M 58.878906 64.261719 C 59.527344 65.222656 59.410156 65.632812 58.496094 65.488281 C 58.015625 65.4375 57.921875 65.246094 57.847656 64.382812 C 57.753906 63.136719 58.066406 63.085938 58.878906 64.261719 Z M 58.878906 64.261719 "/>
<path style=" stroke:none;fill-rule:nonzero;fill:rgb(0%,0%,0%);fill-opacity:1;" d="M 61.640625 66.710938 C 61.640625 67 62.335938 67.550781 62.503906 67.382812 C 62.769531 67.144531 62.382812 66.496094 62 66.496094 C 61.808594 66.496094 61.640625 66.589844 61.640625 66.710938 Z M 61.640625 66.710938 "/>
</g>
</svg>
