<?xml version="1.0" encoding="UTF-8"?>
<svg xmlns="http://www.w3.org/2000/svg" xmlns:xlink="http://www.w3.org/1999/xlink" width="108pt" height="76pt" viewBox="0 0 108 76" version="1.1">
<defs>
<clipPath id="clip1">
  <path d="M 44 0.914062 L 51 0.914062 L 51 10 L 44 10 Z M 44 0.914062 "/>
</clipPath>
</defs>
<g id="surface1">
<g clip-path="url(#clip1)" clip-rule="nonzero">
<path style=" stroke:none;fill-rule:nonzero;fill:rgb(0%,0%,0%);fill-opacity:1;" d="M 44.878906 1.546875 C 45.71875 3.730469 46.273438 4.113281 47.113281 3.105469 C 47.832031 2.265625 48 2.386719 48 3.753906 C 48 4.472656 47.785156 5.195312 47.28125 6.058594 C 46.105469 8.167969 46.464844 9.824219 48.070312 9.824219 L 48.71875 9.824219 L 48.71875 4.714844 L 49.632812 3.898438 C 50.472656 3.105469 50.257812 3.007812 49.367188 3.800781 C 48.792969 4.28125 48.550781 3.921875 48.335938 2.21875 C 48.265625 1.496094 48.070312 0.945312 47.902344 0.945312 C 47.761719 0.945312 47.425781 1.402344 47.160156 1.953125 C 46.894531 2.503906 46.535156 3.007812 46.390625 3.058594 C 46.199219 3.105469 45.886719 2.671875 45.601562 2.050781 C 45.121094 0.898438 44.472656 0.441406 44.878906 1.546875 Z M 48 7.714844 L 47.976562 9.464844 L 47.519531 8.890625 C 47.257812 8.578125 47.039062 8.167969 47.039062 8 C 47.039062 7.570312 47.6875 5.984375 47.855469 5.984375 C 47.953125 5.984375 48 6.777344 48 7.714844 Z M 48 7.714844 "/>
</g>
<path style=" stroke:none;fill-rule:nonzero;fill:rgb(0%,0%,0%);fill-opacity:1;" d="M 39.167969 4.714844 C 38.734375 4.882812 36.71875 7.785156 36.71875 8.242188 C 36.71875 8.601562 37.152344 8.769531 38.398438 8.914062 C 38.953125 8.984375 39 9.058594 38.929688 10.183594 C 38.808594 12.585938 38.136719 24.441406 37.921875 27.824219 C 37.800781 29.746094 37.585938 35.195312 37.441406 39.945312 C 37.273438 44.699219 37.078125 50.53125 37.007812 52.90625 L 36.839844 57.226562 L 34.078125 57.394531 C 32.566406 57.488281 26.832031 57.679688 21.359375 57.824219 C 15.886719 57.96875 10.03125 58.160156 8.375 58.234375 L 5.351562 58.378906 L 5.183594 57.007812 C 4.992188 55.546875 4.558594 55.113281 3.695312 55.425781 C 3.121094 55.640625 0 58.664062 0 59 C 0 59.121094 0.574219 59.363281 1.296875 59.503906 C 1.992188 59.648438 3.121094 59.984375 3.816406 60.226562 C 5.449219 60.847656 5.519531 60.847656 5.519531 59.867188 C 5.519531 59.386719 5.664062 58.976562 5.832031 58.90625 C 6.480469 58.714844 22.847656 58.066406 29.015625 58.015625 C 34.105469 57.96875 35.617188 58.015625 35.6875 58.234375 C 35.761719 58.402344 36.046875 58.546875 36.359375 58.546875 C 37.078125 58.546875 37.199219 59.195312 37.199219 63.488281 C 37.199219 66.441406 37.078125 67.6875 36.574219 69.539062 C 36.503906 69.777344 36.335938 69.753906 35.761719 69.464844 C 35.375 69.273438 35.039062 69.175781 35.039062 69.273438 C 35.039062 69.539062 37.34375 74.023438 37.777344 74.671875 C 38.207031 75.273438 38.183594 75.320312 38.761719 72.394531 C 39 71.21875 39.382812 69.875 39.625 69.394531 C 39.886719 68.914062 40.078125 68.480469 40.078125 68.457031 C 40.078125 68.265625 39.265625 68.433594 38.640625 68.746094 L 37.96875 69.105469 L 37.824219 67.351562 C 37.726562 66.417969 37.632812 63.992188 37.609375 62.023438 L 37.558594 58.425781 L 38.878906 58.234375 C 39.601562 58.136719 49.222656 57.992188 60.265625 57.921875 L 80.328125 57.777344 L 80.472656 58.519531 C 80.6875 59.53125 81.121094 59.457031 81.121094 58.425781 L 81.121094 57.609375 L 87.910156 57.539062 C 96.480469 57.441406 96.238281 57.417969 96.238281 58.402344 C 96.238281 58.929688 96.433594 59.363281 96.839844 59.746094 C 97.175781 60.058594 97.464844 60.273438 97.488281 60.203125 C 97.535156 60.152344 97.679688 59.890625 97.824219 59.625 C 97.96875 59.363281 98.664062 58.6875 99.382812 58.160156 C 100.105469 57.609375 100.679688 57.035156 100.679688 56.867188 C 100.679688 56.722656 100.078125 56.3125 99.359375 55.953125 C 98.566406 55.570312 97.847656 54.992188 97.558594 54.539062 C 97.296875 54.105469 97.007812 53.769531 96.910156 53.746094 C 96.816406 53.746094 96.671875 54.152344 96.601562 54.632812 C 96.238281 56.746094 96.265625 56.722656 94.296875 56.890625 C 93.3125 56.984375 90.144531 57.058594 87.238281 57.058594 C 82.367188 57.082031 82.007812 57.058594 82.511719 56.699219 C 83.230469 56.195312 83.183594 56 82.320312 55.808594 L 81.601562 55.664062 L 81.601562 50.578125 C 81.625 41.699219 82.054688 23.050781 82.320312 19.351562 C 82.488281 17.386719 82.726562 15.25 82.921875 14.578125 C 83.113281 13.832031 83.160156 13.089844 83.039062 12.707031 C 82.945312 12.34375 82.894531 11.3125 82.96875 10.402344 C 83.0625 9.25 83.015625 8.816406 82.847656 8.984375 C 82.703125 9.105469 82.558594 9.65625 82.511719 10.183594 C 82.464844 10.929688 82.34375 11.167969 81.9375 11.21875 C 81.550781 11.265625 81.382812 11.625 81.046875 12.96875 C 80.566406 15.082031 79.320312 17.289062 75.40625 23.144531 C 73.390625 26.144531 72.121094 27.824219 71.640625 28.066406 C 71.113281 28.378906 70.847656 28.761719 70.535156 29.816406 C 70.246094 30.753906 69.574219 31.929688 68.375 33.539062 C 66.433594 36.152344 65.902344 36.753906 61.535156 41.144531 C 58.007812 44.699219 56.328125 46.015625 55.800781 45.585938 C 55.558594 45.371094 55.320312 45.539062 54.742188 46.402344 C 54.3125 47 53.519531 47.816406 52.921875 48.226562 C 51.960938 48.875 51.839844 48.921875 51.625 48.539062 C 51.433594 48.175781 51.335938 48.226562 50.902344 48.992188 C 50.351562 49.90625 48.816406 51.105469 48.214844 51.105469 C 48 51.105469 47.640625 51.34375 47.375 51.609375 C 46.128906 53.023438 38.519531 57.296875 37.777344 57.007812 C 37.511719 56.914062 37.441406 56.097656 37.441406 53.097656 C 37.464844 48.320312 37.777344 39.753906 38.28125 30.945312 C 38.496094 27.175781 38.855469 20.648438 39.070312 16.425781 C 39.40625 9.992188 39.550781 8.746094 39.839844 8.699219 C 40.03125 8.671875 40.609375 8.601562 41.089844 8.503906 L 41.976562 8.363281 L 40.921875 6.800781 C 40.320312 5.9375 39.839844 5.074219 39.839844 4.882812 C 39.839844 4.546875 39.695312 4.496094 39.167969 4.714844 Z M 38.878906 7.714844 C 38.878906 8.289062 38.785156 8.386719 38.207031 8.386719 C 37.199219 8.386719 37.152344 8.195312 37.847656 7.257812 C 38.542969 6.371094 38.878906 6.511719 38.878906 7.714844 Z M 40.511719 7.234375 C 40.992188 7.714844 40.847656 8.144531 40.222656 8.144531 C 39.550781 8.144531 39.265625 7.808594 39.457031 7.304688 C 39.625 6.875 40.128906 6.847656 40.511719 7.234375 Z M 82.222656 15.007812 C 82.105469 15.464844 81.984375 15.585938 81.792969 15.394531 C 81.648438 15.25 81.601562 14.867188 81.695312 14.480469 C 81.816406 14.023438 81.9375 13.90625 82.128906 14.097656 C 82.273438 14.242188 82.320312 14.625 82.222656 15.007812 Z M 81.023438 26.867188 C 80.953125 32.480469 80.785156 39.273438 80.664062 41.984375 L 80.472656 46.90625 L 79.367188 49.425781 C 78.769531 50.816406 77.953125 52.785156 77.519531 53.816406 C 76.96875 55.160156 76.558594 55.761719 76.105469 56 C 75.695312 56.21875 74.113281 56.410156 71.59375 56.53125 L 67.703125 56.699219 L 68.28125 54.5625 C 69.167969 51.203125 71.257812 45.320312 74.039062 38.144531 C 75.457031 34.519531 76.824219 30.945312 77.089844 30.226562 C 78.433594 26.503906 78.816406 25.519531 79.105469 25.183594 C 79.609375 24.585938 79.800781 23.503906 79.367188 23.503906 C 79.03125 23.503906 77.761719 26.433594 77.761719 27.226562 C 77.761719 27.394531 77.640625 27.585938 77.519531 27.632812 C 77.375 27.679688 76.847656 28.976562 76.320312 30.539062 C 75.792969 32.074219 74.230469 36.34375 72.816406 39.992188 C 71.425781 43.640625 69.527344 48.847656 68.640625 51.5625 L 66.984375 56.503906 L 62.785156 56.503906 C 60.480469 56.503906 58.535156 56.433594 58.441406 56.335938 C 58.34375 56.242188 58.511719 55.449219 58.800781 54.539062 C 59.785156 51.5625 63.574219 42.128906 64.609375 40.136719 C 65.617188 38.242188 69.144531 33.777344 69.289062 34.234375 C 69.335938 34.351562 68.566406 36.753906 67.585938 39.539062 C 65.449219 45.632812 62.640625 54.539062 62.640625 55.257812 C 62.640625 56.410156 63.214844 55.089844 64.105469 51.800781 C 65.136719 48.082031 68.113281 39.105469 69.671875 35.050781 C 70.175781 33.707031 71.089844 31.90625 71.640625 31.089844 C 76.441406 24.296875 78.550781 20.890625 80.207031 17.386719 C 80.761719 16.183594 81.023438 15.847656 81.097656 16.183594 C 81.144531 16.449219 81.121094 21.25 81.023438 26.867188 Z M 76.894531 22.6875 C 76.65625 23.050781 76.414062 23.21875 76.367188 23.074219 C 76.320312 22.929688 76.488281 22.519531 76.703125 22.160156 C 76.945312 21.800781 77.183594 21.632812 77.230469 21.777344 C 77.28125 21.921875 77.113281 22.328125 76.894531 22.6875 Z M 75.695312 24.394531 C 74.113281 26.867188 73.585938 27.585938 73.390625 27.585938 C 73.105469 27.585938 73.441406 27.007812 74.734375 25.234375 C 75.839844 23.746094 76.511719 23.167969 75.695312 24.394531 Z M 63.167969 42.007812 C 62.542969 43.378906 61.273438 46.664062 58.464844 54.035156 C 57.601562 56.265625 57.527344 56.386719 56.6875 56.625 C 55.441406 56.960938 54.71875 56.9375 54.71875 56.503906 C 54.71875 55.976562 56.710938 50.9375 57.71875 48.945312 C 58.222656 47.960938 58.871094 46.832031 59.183594 46.472656 C 59.496094 46.089844 59.761719 45.65625 59.761719 45.511719 C 59.761719 44.867188 63.480469 40.113281 63.769531 40.378906 C 63.816406 40.425781 63.550781 41.167969 63.167969 42.007812 Z M 57.984375 47.074219 C 57.792969 47.503906 57.097656 49.113281 56.425781 50.625 C 54.601562 54.679688 54.046875 55.976562 53.902344 56.433594 C 53.785156 56.867188 52.296875 57.273438 51.863281 56.984375 C 51.457031 56.746094 51.550781 56.074219 52.34375 53.578125 C 53.28125 50.671875 53.734375 49.761719 54.769531 48.800781 C 55.679688 47.914062 57.863281 46.328125 58.152344 46.304688 C 58.246094 46.304688 58.175781 46.664062 57.984375 47.074219 Z M 80.136719 55.449219 C 79.824219 55.617188 77.519531 55.976562 77.375 55.855469 C 77.304688 55.761719 79.320312 50.648438 79.945312 49.304688 C 80.257812 48.65625 80.28125 48.875 80.351562 51.945312 C 80.398438 54.273438 80.328125 55.328125 80.136719 55.449219 Z M 51.769531 53.746094 L 50.734375 56.984375 L 49.726562 57.058594 C 49.054688 57.105469 48.71875 57.035156 48.71875 56.839844 C 48.71875 56.265625 49.753906 53.121094 50.207031 52.28125 C 50.664062 51.464844 52.609375 49.929688 52.726562 50.3125 C 52.777344 50.433594 52.320312 51.96875 51.769531 53.746094 Z M 49.441406 52.472656 C 49.464844 53.023438 48.046875 56.289062 47.59375 56.769531 C 47.0625 57.34375 45.984375 57.539062 45.71875 57.105469 C 45.625 56.960938 45.910156 56.097656 46.34375 55.160156 C 46.96875 53.839844 47.328125 53.363281 48.097656 52.90625 C 49.128906 52.28125 49.441406 52.183594 49.441406 52.472656 Z M 46.078125 54.273438 C 46.03125 54.65625 45.121094 56.9375 44.976562 57.105469 C 44.710938 57.34375 39.839844 57.539062 39.839844 57.296875 C 39.839844 57.082031 45.335938 54.25 45.792969 54.25 C 45.9375 54.226562 46.078125 54.25 46.078125 54.273438 Z M 4.511719 57.273438 L 4.585938 58.304688 L 3.359375 58.304688 C 2.496094 58.304688 2.113281 58.402344 2.015625 58.664062 C 1.921875 58.855469 1.726562 59.023438 1.558594 59.023438 C 0.792969 59.023438 1.007812 58.472656 2.183594 57.34375 C 3.792969 55.808594 4.414062 55.808594 4.511719 57.273438 Z M 80.28125 56.648438 C 80.542969 57.058594 80.28125 57.152344 78.648438 57.273438 C 77.015625 57.417969 76.273438 57.058594 77.328125 56.648438 C 78.097656 56.335938 80.089844 56.335938 80.28125 56.648438 Z M 81.695312 57.152344 C 81.625 57.273438 81.40625 57.25 81.214844 57.082031 C 81.046875 56.9375 80.953125 56.722656 81.023438 56.578125 C 81.097656 56.457031 81.3125 56.480469 81.503906 56.648438 C 81.671875 56.792969 81.769531 57.007812 81.695312 57.152344 Z M 99.3125 56.53125 C 99.601562 56.625 99.839844 56.792969 99.839844 56.960938 C 99.839844 57.25 97.703125 58.785156 97.273438 58.785156 C 96.886719 58.785156 97.175781 57.875 97.65625 57.511719 C 97.894531 57.34375 98.136719 57.035156 98.230469 56.792969 C 98.398438 56.335938 98.496094 56.3125 99.3125 56.53125 Z M 70.800781 57.34375 C 70.800781 57.464844 70.535156 57.585938 70.199219 57.585938 C 69.863281 57.585938 69.601562 57.464844 69.601562 57.34375 C 69.601562 57.203125 69.863281 57.105469 70.199219 57.105469 C 70.535156 57.105469 70.800781 57.203125 70.800781 57.34375 Z M 74.832031 57.273438 C 74.449219 57.320312 73.871094 57.320312 73.511719 57.273438 C 73.128906 57.226562 73.441406 57.175781 74.160156 57.175781 C 74.878906 57.175781 75.191406 57.226562 74.832031 57.273438 Z M 56.710938 57.511719 C 56.542969 57.5625 56.257812 57.5625 56.113281 57.511719 C 55.945312 57.441406 56.0625 57.394531 56.398438 57.394531 C 56.734375 57.394531 56.855469 57.441406 56.710938 57.511719 Z M 59.808594 57.511719 C 59.519531 57.5625 59.089844 57.5625 58.847656 57.511719 C 58.632812 57.441406 58.871094 57.394531 59.398438 57.417969 C 59.929688 57.417969 60.121094 57.464844 59.808594 57.511719 Z M 61.726562 57.511719 C 61.558594 57.585938 61.34375 57.5625 61.273438 57.488281 C 61.175781 57.417969 61.320312 57.34375 61.585938 57.371094 C 61.847656 57.371094 61.921875 57.441406 61.726562 57.511719 Z M 63.167969 57.511719 C 63 57.585938 62.785156 57.5625 62.710938 57.488281 C 62.617188 57.417969 62.761719 57.34375 63.023438 57.371094 C 63.289062 57.371094 63.359375 57.441406 63.167969 57.511719 Z M 4.894531 59.769531 C 4.726562 60.035156 4.535156 60.035156 4.078125 59.746094 C 3.769531 59.53125 3.769531 59.480469 4.078125 59.289062 C 4.464844 59.023438 5.113281 59.410156 4.894531 59.769531 Z M 38.640625 70.042969 C 38.640625 70.304688 38.542969 70.59375 38.398438 70.664062 C 38.257812 70.761719 38.160156 70.546875 38.160156 70.210938 C 38.160156 69.875 38.28125 69.585938 38.398438 69.585938 C 38.542969 69.585938 38.640625 69.800781 38.640625 70.042969 Z M 37.921875 71.3125 C 38.207031 71.242188 38.230469 72.707031 37.945312 73.160156 C 37.777344 73.402344 37.535156 73.160156 36.984375 72.203125 C 36.574219 71.480469 36.238281 70.785156 36.238281 70.640625 C 36.238281 70.042969 36.625 70.066406 37.152344 70.714844 C 37.441406 71.074219 37.800781 71.363281 37.921875 71.3125 Z M 37.921875 71.3125 "/>
<path style=" stroke:none;fill-rule:nonzero;fill:rgb(0%,0%,0%);fill-opacity:1;" d="M 79.054688 38.167969 C 78.910156 38.363281 78.335938 39.679688 77.761719 41.144531 C 77.207031 42.585938 75.863281 45.679688 74.832031 47.984375 C 72.742188 52.546875 71.761719 54.992188 71.761719 55.570312 C 71.761719 56.3125 72.214844 55.617188 72.910156 53.792969 C 73.871094 51.296875 78.097656 41.671875 78.863281 40.234375 C 79.464844 39.105469 79.632812 37.425781 79.054688 38.167969 Z M 79.054688 38.167969 "/>
<path style=" stroke:none;fill-rule:nonzero;fill:rgb(0%,0%,0%);fill-opacity:1;" d="M 80.160156 12.128906 C 80.160156 12.320312 80.28125 12.417969 80.398438 12.34375 C 80.542969 12.273438 80.640625 12.105469 80.640625 11.960938 C 80.640625 11.839844 80.542969 11.746094 80.398438 11.746094 C 80.28125 11.746094 80.160156 11.914062 80.160156 12.128906 Z M 80.160156 12.128906 "/>
<path style=" stroke:none;fill-rule:nonzero;fill:rgb(0%,0%,0%);fill-opacity:1;" d="M 58.222656 22.761719 C 57.601562 23.457031 57.839844 24.25 58.871094 24.921875 C 59.472656 25.328125 59.761719 25.6875 59.761719 26.074219 C 59.761719 26.386719 59.855469 26.625 60 26.625 C 60.335938 26.625 63.289062 23.769531 62.976562 23.746094 C 62.832031 23.746094 62.230469 24.175781 61.632812 24.707031 L 60.550781 25.640625 L 60.40625 24.65625 C 60.265625 23.601562 59.566406 22.472656 58.992188 22.351562 C 58.800781 22.328125 58.464844 22.496094 58.222656 22.761719 Z M 59.6875 23.746094 C 60 24.394531 59.855469 24.96875 59.425781 24.800781 C 58.96875 24.632812 58.464844 23.601562 58.679688 23.265625 C 58.921875 22.882812 59.351562 23.097656 59.6875 23.746094 Z M 59.6875 23.746094 "/>
<path style=" stroke:none;fill-rule:nonzero;fill:rgb(0%,0%,0%);fill-opacity:1;" d="M 58.078125 27.921875 C 58.078125 28.714844 58.007812 28.785156 57.433594 28.785156 C 56.640625 28.785156 55.96875 29.167969 56.230469 29.433594 C 56.328125 29.53125 56.878906 29.601562 57.433594 29.625 C 58.414062 29.625 58.464844 29.671875 59.160156 30.96875 C 60.40625 33.320312 61.246094 33.945312 60.097656 31.6875 C 59.761719 30.992188 59.542969 30.371094 59.617188 30.273438 C 59.710938 30.203125 60.238281 30.25 60.792969 30.394531 C 61.34375 30.539062 61.824219 30.632812 61.871094 30.585938 C 61.921875 30.539062 61.273438 30.152344 60.433594 29.699219 C 59.015625 28.953125 58.921875 28.855469 58.894531 28.066406 C 58.894531 27.464844 58.777344 27.203125 58.488281 27.152344 C 58.175781 27.082031 58.078125 27.25 58.078125 27.921875 Z M 58.078125 27.921875 "/>
<path style=" stroke:none;fill-rule:nonzero;fill:rgb(0%,0%,0%);fill-opacity:1;" d="M 54.9375 32.601562 C 54.550781 32.984375 54.238281 33.488281 54.238281 33.679688 C 54.238281 34.28125 54.9375 34.136719 55.199219 33.488281 C 55.296875 33.175781 55.703125 32.699219 56.0625 32.410156 C 56.6875 31.929688 56.6875 31.90625 56.183594 31.90625 C 55.871094 31.90625 55.320312 32.21875 54.9375 32.601562 Z M 54.9375 32.601562 "/>
<path style=" stroke:none;fill-rule:nonzero;fill:rgb(0%,0%,0%);fill-opacity:1;" d="M 56.039062 33.824219 C 55.296875 34.640625 54.71875 35.363281 54.816406 35.433594 C 54.984375 35.625 55.945312 34.761719 56.929688 33.511719 C 58.078125 32.050781 57.550781 32.242188 56.039062 33.824219 Z M 56.039062 33.824219 "/>
<path style=" stroke:none;fill-rule:nonzero;fill:rgb(0%,0%,0%);fill-opacity:1;" d="M 50.878906 35.097656 C 50.878906 35.144531 51.144531 35.53125 51.480469 35.984375 C 51.886719 36.539062 52.078125 37.113281 52.078125 37.761719 C 52.078125 39.417969 51.816406 39.511719 50.398438 38.289062 C 49.128906 37.210938 48.71875 36.992188 48.71875 37.378906 C 48.71875 38.023438 50.855469 39.585938 51.742188 39.585938 C 52.34375 39.585938 52.800781 38.960938 52.800781 38.167969 C 52.800781 37.882812 52.894531 37.664062 53.015625 37.664062 C 53.398438 37.664062 55.679688 40.28125 55.679688 40.761719 C 55.679688 41.746094 53.28125 42.96875 52.320312 42.464844 C 52.03125 42.296875 51.839844 42.296875 51.839844 42.441406 C 51.839844 42.921875 52.632812 43.113281 53.566406 42.898438 C 55.558594 42.464844 56.59375 41.53125 56.28125 40.519531 C 55.992188 39.65625 50.878906 34.519531 50.878906 35.097656 Z M 50.878906 35.097656 "/>
<path style=" stroke:none;fill-rule:nonzero;fill:rgb(0%,0%,0%);fill-opacity:1;" d="M 105.214844 56.53125 C 105.382812 57.65625 105.335938 57.777344 104.015625 59.816406 C 103.273438 60.96875 102.695312 61.976562 102.769531 62.023438 C 102.816406 62.097656 103.441406 61.378906 104.136719 60.464844 C 104.855469 59.53125 105.550781 58.785156 105.71875 58.785156 C 105.863281 58.785156 106.199219 59.21875 106.441406 59.746094 C 106.824219 60.585938 107.519531 61.472656 107.519531 61.113281 C 107.519531 61.042969 107.257812 60.417969 106.921875 59.699219 C 106.199219 58.136719 106.152344 57.226562 106.800781 56.816406 C 107.0625 56.648438 107.28125 56.386719 107.28125 56.21875 C 107.28125 55.664062 106.753906 55.617188 106.175781 56.167969 C 105.601562 56.699219 105.601562 56.699219 105.601562 56.195312 C 105.601562 55.929688 105.480469 55.617188 105.335938 55.519531 C 105.144531 55.402344 105.121094 55.714844 105.214844 56.53125 Z M 105.214844 56.53125 "/>
<path style=" stroke:none;fill-rule:nonzero;fill:rgb(0%,0%,0%);fill-opacity:1;" d="M 78.839844 63.394531 C 78.9375 63.707031 79.199219 64.234375 79.464844 64.59375 C 80.0625 65.433594 80.039062 65.503906 79.199219 67.183594 C 78.40625 68.769531 78.3125 69.34375 78.839844 69.34375 C 79.03125 69.34375 79.199219 69.175781 79.199219 68.984375 C 79.199219 68.457031 80.136719 66.707031 80.398438 66.707031 C 80.519531 66.707031 80.976562 67.328125 81.40625 68.074219 C 82.441406 69.921875 82.558594 69.273438 81.527344 67.328125 L 80.710938 65.769531 L 81.144531 65.023438 C 81.625 64.234375 81.839844 64.160156 82.273438 64.59375 C 82.632812 64.953125 82.632812 64.738281 82.273438 63.945312 C 81.910156 63.175781 81.769531 63.175781 81.046875 64.089844 L 80.449219 64.855469 L 79.800781 63.847656 C 79.078125 62.769531 78.601562 62.554688 78.839844 63.394531 Z M 78.839844 63.394531 "/>
<path style=" stroke:none;fill-rule:nonzero;fill:rgb(0%,0%,0%);fill-opacity:1;" d="M 89.136719 67.855469 C 89.113281 71.097656 89.160156 71.867188 89.328125 71.144531 C 89.664062 69.847656 89.710938 63.777344 89.398438 63.65625 C 89.257812 63.609375 89.160156 65.121094 89.136719 67.855469 Z M 89.136719 67.855469 "/>
<path style=" stroke:none;fill-rule:nonzero;fill:rgb(0%,0%,0%);fill-opacity:1;" d="M 84.238281 66.464844 C 84.046875 66.585938 83.953125 66.753906 84.046875 66.824219 C 84.265625 67.042969 87.839844 66.679688 87.839844 66.441406 C 87.839844 66.152344 84.695312 66.175781 84.238281 66.464844 Z M 84.238281 66.464844 "/>
<path style=" stroke:none;fill-rule:nonzero;fill:rgb(0%,0%,0%);fill-opacity:1;" d="M 85.078125 67.351562 C 84.816406 67.425781 84.503906 67.570312 84.382812 67.6875 C 84 68.023438 85.945312 67.929688 86.761719 67.546875 L 87.480469 67.234375 L 86.519531 67.234375 C 85.992188 67.234375 85.34375 67.28125 85.078125 67.351562 Z M 85.078125 67.351562 "/>
</g>
</svg>
