<?xml version="1.0" encoding="UTF-8"?>
<svg xmlns="http://www.w3.org/2000/svg" xmlns:xlink="http://www.w3.org/1999/xlink" width="82pt" height="60pt" viewBox="0 0 82 60" version="1.1">
<defs>
<clipPath id="clip1">
  <path d="M 71 0.453125 L 79 0.453125 L 79 6 L 71 6 Z M 71 0.453125 "/>
</clipPath>
<clipPath id="clip2">
  <path d="M 74 0.453125 L 76 0.453125 L 76 2 L 74 2 Z M 74 0.453125 "/>
</clipPath>
</defs>
<g id="surface1">
<g clip-path="url(#clip1)" clip-rule="nonzero">
<path style=" stroke:none;fill-rule:nonzero;fill:rgb(0%,0%,0%);fill-opacity:1;" d="M 72.46875 1.222656 C 72.179688 1.699219 71.988281 2.445312 71.988281 3.046875 C 71.988281 3.910156 72.132812 4.222656 72.710938 4.773438 C 73.117188 5.15625 73.835938 5.589844 74.316406 5.757812 C 75.277344 6.070312 77.675781 5.925781 78.398438 5.515625 C 78.734375 5.324219 78.421875 5.277344 76.980469 5.253906 C 75.972656 5.253906 74.84375 5.132812 74.460938 4.988281 C 72.589844 4.292969 72.109375 2.566406 73.40625 1.195312 L 74.101562 0.453125 L 73.523438 0.453125 C 73.117188 0.453125 72.78125 0.691406 72.46875 1.222656 Z M 72.46875 1.222656 "/>
</g>
<g clip-path="url(#clip2)" clip-rule="nonzero">
<path style=" stroke:none;fill-rule:nonzero;fill:rgb(0%,0%,0%);fill-opacity:1;" d="M 74.84375 1.269531 C 75.277344 2.179688 75.734375 2.039062 75.492188 1.078125 C 75.398438 0.691406 75.179688 0.453125 74.894531 0.453125 C 74.460938 0.453125 74.460938 0.5 74.84375 1.269531 Z M 74.84375 1.269531 "/>
</g>
<path style=" stroke:none;fill-rule:nonzero;fill:rgb(0%,0%,0%);fill-opacity:1;" d="M 67.550781 5.566406 C 66.46875 6.1875 55.09375 13.84375 51.46875 16.390625 C 50.148438 17.300781 45.734375 20.566406 41.628906 23.613281 C 21.902344 38.300781 23.460938 37.195312 22.859375 36.8125 C 22.019531 36.261719 21.757812 36.355469 21.878906 37.195312 C 21.972656 37.796875 21.851562 38.039062 21.085938 38.683594 C 19.453125 40.101562 14.507812 43.605469 12.949219 44.492188 C 10.71875 45.742188 10.574219 45.910156 11.292969 46.53125 C 11.84375 47.039062 12.011719 47.039062 17.699219 46.894531 C 23.53125 46.75 23.558594 46.75 23.390625 47.230469 C 23.171875 47.925781 23.820312 47.902344 24.277344 47.207031 C 24.734375 46.507812 26.246094 46.339844 31.910156 46.316406 C 34.355469 46.292969 38.84375 46.195312 41.867188 46.054688 C 44.917969 45.933594 52.046875 45.644531 57.710938 45.453125 C 63.398438 45.261719 68.867188 45.046875 69.878906 44.949219 C 71.339844 44.828125 71.773438 44.878906 71.84375 45.117188 C 71.894531 45.308594 72.0625 46.796875 72.203125 48.453125 C 72.371094 50.109375 72.660156 52.964844 72.828125 54.8125 C 73.019531 56.660156 73.1875 58.363281 73.1875 58.582031 C 73.1875 59.230469 73.886719 59.085938 74.054688 58.414062 C 74.125 58.078125 74.027344 56.636719 73.8125 55.222656 C 73.261719 51.429688 72.757812 47.300781 72.660156 45.933594 L 72.589844 44.734375 L 75.828125 44.566406 C 79.886719 44.347656 80.628906 44.230469 80.628906 43.75 C 80.628906 43.414062 80.363281 43.390625 78.660156 43.558594 C 77.558594 43.675781 75.710938 43.773438 74.53125 43.773438 C 71.988281 43.773438 72.230469 44.179688 71.652344 39.019531 C 70.71875 30.621094 70.214844 22.003906 70.214844 13.605469 C 70.1875 6.355469 70.140625 5.253906 69.828125 5.253906 C 69.636719 5.253906 69.253906 5.179688 68.988281 5.132812 C 68.726562 5.0625 68.078125 5.253906 67.550781 5.566406 Z M 69.347656 10.460938 C 69.347656 15.644531 69.613281 21.667969 70.214844 29.851562 C 70.429688 32.757812 70.621094 35.230469 70.644531 35.375 C 70.644531 35.515625 69.421875 35.683594 67.667969 35.804688 C 66.011719 35.925781 64.644531 36.046875 64.621094 36.070312 C 64.574219 36.09375 64.71875 37.246094 64.910156 38.636719 C 65.078125 40.003906 65.316406 41.78125 65.390625 42.550781 C 65.507812 43.53125 65.628906 43.867188 65.773438 43.628906 C 65.894531 43.4375 65.941406 41.925781 65.84375 40.027344 L 65.675781 36.765625 L 67.019531 36.621094 C 68.605469 36.453125 70.214844 36.644531 70.523438 37.027344 C 70.765625 37.292969 71.507812 42.308594 71.507812 43.507812 C 71.507812 44.039062 71.390625 44.085938 69.902344 44.230469 C 68.988281 44.300781 63.636719 44.542969 57.949219 44.734375 C 52.285156 44.925781 45.421875 45.1875 42.710938 45.332031 C 39.996094 45.453125 34.859375 45.621094 31.285156 45.71875 L 24.78125 45.886719 L 24.636719 43.628906 C 24.539062 42.382812 24.277344 40.582031 24.011719 39.644531 L 23.558594 37.894531 L 34.40625 29.804688 C 40.355469 25.363281 46.789062 20.613281 48.710938 19.246094 C 50.628906 17.878906 53.222656 16.027344 54.46875 15.117188 C 58.667969 12.09375 68.628906 5.734375 69.179688 5.734375 C 69.277344 5.734375 69.347656 7.867188 69.347656 10.460938 Z M 23.222656 39.5 C 23.628906 40.53125 23.988281 42.859375 23.988281 44.421875 C 23.988281 45.667969 23.941406 45.8125 23.460938 45.933594 C 22.308594 46.195312 12.878906 46.171875 12.78125 45.910156 C 12.734375 45.765625 13.742188 44.902344 15.035156 44.011719 C 21.230469 39.621094 22.382812 38.851562 22.667969 38.851562 C 22.835938 38.851562 23.078125 39.140625 23.222656 39.5 Z M 23.222656 39.5 "/>
<path style=" stroke:none;fill-rule:nonzero;fill:rgb(0%,0%,0%);fill-opacity:1;" d="M 31.476562 35.0625 C 31.355469 35.230469 31.117188 35.851562 30.949219 36.453125 C 30.78125 37.054688 30.566406 37.652344 30.445312 37.796875 C 30.324219 37.941406 30.347656 38.421875 30.492188 38.949219 C 30.734375 39.859375 30.613281 40.773438 30.230469 40.773438 C 29.773438 40.773438 29.246094 39.597656 29.292969 38.683594 C 29.363281 37.628906 29.171875 37.171875 28.644531 37.171875 C 28.429688 37.171875 28.308594 37.4375 28.308594 37.941406 C 28.308594 39.308594 28.765625 40.414062 29.628906 41.253906 C 30.253906 41.878906 30.46875 42.261719 30.46875 42.886719 C 30.46875 43.339844 30.566406 43.628906 30.710938 43.53125 C 30.851562 43.460938 30.949219 43.101562 30.949219 42.765625 C 30.949219 42.332031 31.332031 41.734375 32.148438 40.867188 C 32.894531 40.101562 33.347656 39.382812 33.347656 39.046875 C 33.347656 38.375 32.726562 37.414062 32.292969 37.414062 C 32.148438 37.414062 31.886719 37.292969 31.71875 37.125 C 31.40625 36.8125 31.742188 35.996094 32.316406 35.660156 C 32.582031 35.492188 32.582031 35.375 32.363281 35.109375 C 32.027344 34.699219 31.789062 34.675781 31.476562 35.0625 Z M 32.460938 39.09375 C 32.390625 39.332031 32.125 39.71875 31.886719 39.957031 C 31.453125 40.339844 31.429688 40.339844 31.429688 39.550781 C 31.429688 38.566406 31.835938 38.011719 32.292969 38.398438 C 32.4375 38.515625 32.53125 38.828125 32.460938 39.09375 Z M 32.460938 39.09375 "/>
<path style=" stroke:none;fill-rule:nonzero;fill:rgb(0%,0%,0%);fill-opacity:1;" d="M 36.035156 12.09375 C 35.605469 12.285156 34.933594 12.667969 34.550781 12.933594 L 33.878906 13.414062 L 33.734375 12.859375 C 33.589844 12.332031 33.566406 12.332031 33.230469 12.789062 C 32.867188 13.269531 32.75 15.238281 33.0625 15.71875 C 33.15625 15.859375 33.492188 16.078125 33.828125 16.171875 C 34.621094 16.414062 35.988281 17.710938 35.988281 18.261719 C 35.988281 18.835938 35.125 19.246094 33.902344 19.269531 C 32.75 19.292969 32.53125 19.558594 33.492188 19.796875 C 34.957031 20.15625 36.710938 19.390625 36.710938 18.355469 C 36.710938 17.542969 35.582031 16.101562 34.550781 15.574219 C 34.019531 15.308594 33.589844 14.996094 33.589844 14.878906 C 33.589844 14.398438 33.902344 13.894531 34.164062 13.894531 C 34.332031 13.894531 34.8125 13.628906 35.269531 13.292969 C 35.726562 12.957031 36.589844 12.621094 37.238281 12.550781 C 37.886719 12.453125 38.339844 12.308594 38.222656 12.214844 C 37.8125 11.828125 36.78125 11.78125 36.035156 12.09375 Z M 36.035156 12.09375 "/>
<path style=" stroke:none;fill-rule:nonzero;fill:rgb(0%,0%,0%);fill-opacity:1;" d="M 75.636719 21.8125 C 74.75 22.363281 74.316406 23.253906 74.53125 24.117188 C 74.726562 24.8125 75.109375 24.886719 75.109375 24.1875 C 75.109375 23.515625 75.492188 22.84375 76.070312 22.53125 C 76.429688 22.339844 76.574219 22.390625 76.765625 22.75 C 77.027344 23.207031 76.886719 23.902344 76.214844 25.460938 L 75.828125 26.375 L 76.765625 27.019531 C 77.292969 27.40625 77.726562 27.765625 77.75 27.859375 C 77.773438 28.316406 75.15625 28.75 74.222656 28.4375 C 73.765625 28.292969 73.667969 28.339844 73.667969 28.75 C 73.667969 29.207031 73.8125 29.253906 75.300781 29.253906 C 78.324219 29.253906 79.597656 27.980469 77.796875 26.78125 L 76.835938 26.15625 L 77.339844 24.523438 C 77.773438 23.0625 77.773438 22.773438 77.484375 22.171875 C 77.054688 21.285156 76.644531 21.1875 75.636719 21.8125 Z M 75.636719 21.8125 "/>
<path style=" stroke:none;fill-rule:nonzero;fill:rgb(0%,0%,0%);fill-opacity:1;" d="M 76.835938 47.15625 C 76.285156 47.542969 76.117188 48.308594 76.550781 48.574219 C 76.691406 48.644531 76.71875 49.605469 76.621094 50.949219 C 76.523438 52.484375 76.574219 53.230469 76.742188 53.347656 C 77.078125 53.542969 81.0625 52.628906 81.515625 52.246094 C 81.902344 51.933594 81.46875 51.355469 80.222656 50.589844 L 79.429688 50.085938 L 80.027344 49.605469 C 80.675781 49.101562 80.820312 48.1875 80.339844 47.804688 C 80.054688 47.589844 77.84375 46.773438 77.507812 46.773438 C 77.4375 46.773438 77.125 46.941406 76.835938 47.15625 Z M 79.910156 48.597656 C 79.910156 48.789062 79.523438 49.125 79.046875 49.316406 C 77.941406 49.773438 78.035156 50.324219 79.382812 51.046875 C 79.933594 51.355469 80.390625 51.691406 80.390625 51.789062 C 80.390625 51.980469 78.253906 52.53125 77.484375 52.53125 C 77.195312 52.53125 77.027344 52.363281 77.027344 52.101562 C 77.027344 51.355469 77.726562 48.933594 78.132812 48.332031 C 78.445312 47.828125 78.589844 47.804688 79.214844 48.019531 C 79.597656 48.140625 79.910156 48.40625 79.910156 48.597656 Z M 79.910156 48.597656 "/>
<path style=" stroke:none;fill-rule:nonzero;fill:rgb(0%,0%,0%);fill-opacity:1;" d="M 2.269531 48.5 C 2.222656 48.667969 1.933594 49.820312 1.667969 51.070312 C 1.214844 53.230469 0.972656 53.734375 0.300781 53.734375 C -0.132812 53.734375 -0.0820312 54.382812 0.347656 54.550781 C 0.566406 54.621094 0.710938 55.003906 0.710938 55.53125 C 0.710938 56.804688 1.453125 56.515625 1.789062 55.101562 C 1.957031 54.429688 2.726562 53.925781 3.253906 54.140625 C 3.421875 54.1875 3.757812 54.789062 4.019531 55.4375 C 4.332031 56.132812 4.667969 56.613281 4.886719 56.613281 C 5.339844 56.613281 5.363281 56.421875 4.910156 55.652344 C 4.382812 54.71875 4.453125 53.804688 5.078125 53.589844 C 5.558594 53.445312 5.53125 53.398438 4.789062 53.15625 C 4.046875 52.917969 3.972656 52.773438 3.683594 51.453125 C 3.398438 50.011719 2.726562 48.214844 2.507812 48.214844 C 2.4375 48.214844 2.316406 48.355469 2.269531 48.5 Z M 3.109375 52.507812 C 3.109375 53.277344 2.773438 53.683594 2.507812 53.253906 C 2.292969 52.894531 2.582031 51.8125 2.867188 51.8125 C 3.011719 51.8125 3.109375 52.125 3.109375 52.507812 Z M 3.109375 52.507812 "/>
<path style=" stroke:none;fill-rule:nonzero;fill:rgb(0%,0%,0%);fill-opacity:1;" d="M 45.230469 50.0625 C 45.15625 50.566406 44.75 51.550781 44.363281 52.269531 C 43.382812 54.117188 43.40625 54.214844 45.085938 54.214844 C 46.667969 54.214844 46.574219 54.09375 47.027344 56.421875 C 47.414062 58.414062 47.867188 58.53125 47.628906 56.589844 C 47.316406 54.046875 47.316406 53.851562 47.941406 53.78125 C 48.683594 53.660156 48.613281 53.347656 47.773438 53.0625 C 47.195312 52.867188 47.003906 52.605469 46.789062 51.765625 C 46.644531 51.1875 46.453125 50.421875 46.355469 50.011719 C 46.070312 48.933594 45.445312 48.957031 45.230469 50.0625 Z M 46.140625 52.269531 C 46.285156 52.867188 45.972656 53.347656 45.492188 53.179688 C 45.203125 53.0625 45.179688 52.894531 45.371094 52.292969 C 45.660156 51.523438 45.925781 51.5 46.140625 52.269531 Z M 46.140625 52.269531 "/>
</g>
</svg>
