<?xml version="1.0" encoding="UTF-8"?>
<svg xmlns="http://www.w3.org/2000/svg" xmlns:xlink="http://www.w3.org/1999/xlink" width="114pt" height="75pt" viewBox="0 0 114 75" version="1.1">
<defs>
<clipPath id="clip1">
  <path d="M 9 0.503906 L 14 0.503906 L 14 12 L 9 12 Z M 9 0.503906 "/>
</clipPath>
</defs>
<g id="surface1">
<g clip-path="url(#clip1)" clip-rule="nonzero">
<path style=" stroke:none;fill-rule:nonzero;fill:rgb(0%,0%,0%);fill-opacity:1;" d="M 9.707031 1.871094 C 9.898438 3.550781 10.378906 4.824219 10.832031 4.824219 C 11.191406 4.824219 11.984375 4.03125 12.394531 3.265625 C 12.632812 2.832031 12.65625 2.832031 12.824219 3.457031 C 12.96875 4.054688 12.824219 4.296875 11.890625 5.257812 C 10.6875 6.503906 10.28125 7.320312 10.28125 8.542969 C 10.28125 10.726562 12.128906 12.359375 13.210938 11.113281 C 13.6875 10.582031 14.023438 4.488281 13.664062 3.3125 C 13.546875 2.878906 13.304688 2.089844 13.160156 1.511719 C 12.847656 0.265625 12.320312 0.191406 12.082031 1.367188 C 11.914062 2.375 11.242188 3.863281 10.976562 3.863281 C 10.738281 3.863281 10.59375 3.335938 10.402344 1.75 C 10.28125 0.910156 10.136719 0.503906 9.898438 0.503906 C 9.632812 0.503906 9.585938 0.792969 9.707031 1.871094 Z M 12.96875 6.433594 C 13.089844 7.777344 12.875 10.488281 12.609375 10.726562 C 12.511719 10.847656 12.152344 10.65625 11.816406 10.320312 C 11.191406 9.671875 10.855469 8.351562 11.097656 7.367188 C 11.242188 6.742188 12.34375 5.304688 12.679688 5.304688 C 12.777344 5.304688 12.898438 5.808594 12.96875 6.433594 Z M 12.96875 6.433594 "/>
</g>
<path style=" stroke:none;fill-rule:nonzero;fill:rgb(0%,0%,0%);fill-opacity:1;" d="M 22.089844 2.257812 C 21.464844 2.902344 19.402344 7.03125 19.402344 7.609375 C 19.402344 8.015625 19.59375 8.015625 21.65625 7.558594 L 22.351562 7.390625 L 22.183594 10.128906 C 21.777344 17.039062 20.839844 37.078125 20.839844 38.953125 L 20.839844 41.0625 L 20.074219 41.0625 C 19.640625 41.0625 16.378906 40.847656 12.800781 40.582031 C 9.25 40.320312 6.25 40.105469 6.152344 40.105469 C 6.082031 40.105469 5.9375 39.433594 5.839844 38.59375 C 5.578125 36.238281 5.527344 36.214844 3.65625 37.96875 C 2.746094 38.832031 1.546875 39.792969 0.992188 40.105469 C -0.496094 40.917969 -0.398438 41.089844 1.882812 41.425781 C 3.273438 41.640625 4.066406 42.070312 4.832031 42.984375 C 5.433594 43.679688 5.480469 43.679688 5.722656 43.246094 C 5.839844 42.984375 5.960938 42.335938 5.960938 41.808594 L 5.960938 40.847656 L 8.3125 40.96875 C 19.6875 41.640625 19.6875 41.640625 19.976562 42.144531 C 20.121094 42.40625 20.335938 42.695312 20.457031 42.792969 C 20.578125 42.863281 20.601562 45.3125 20.480469 48.792969 C 20.359375 51.984375 20.289062 55.511719 20.289062 56.59375 C 20.289062 58.488281 20.289062 58.558594 19.664062 58.800781 C 19.328125 58.917969 18.777344 59.0625 18.441406 59.113281 C 17.890625 59.183594 17.839844 59.28125 17.914062 60.144531 C 18.007812 61.320312 19.257812 65.230469 19.761719 65.953125 C 20.386719 66.839844 20.769531 66.625 20.9375 65.304688 C 21.175781 63.527344 22.015625 60.9375 22.546875 60.359375 C 23.289062 59.566406 23.121094 59.160156 21.992188 58.894531 C 21.273438 58.75 20.984375 58.582031 21.058594 58.320312 C 21.105469 58.152344 21.226562 54.625 21.320312 50.496094 C 21.464844 42.9375 21.5625 42.265625 22.402344 42.265625 C 22.546875 42.265625 22.882812 42.9375 23.097656 43.75 C 23.839844 46.414062 25.066406 48.433594 27.320312 50.6875 C 29.695312 53.0625 32.074219 54.863281 35.121094 56.59375 C 38.242188 58.34375 54.898438 66.527344 57.441406 67.535156 C 61.160156 69.023438 73.472656 73.632812 74.410156 73.894531 C 75.320312 74.136719 75.800781 73.945312 75.25 73.535156 C 74.914062 73.273438 70.210938 71.449219 66.800781 70.273438 C 60.585938 68.113281 54.679688 65.542969 45.441406 60.9375 C 35.554688 56.039062 32.335938 54.167969 29.167969 51.480469 C 26.335938 49.078125 24.058594 45.503906 23.769531 43.054688 L 23.648438 41.953125 L 28.402344 42.097656 C 31.015625 42.191406 36.394531 42.265625 40.328125 42.265625 L 47.503906 42.265625 L 47.648438 42.984375 C 47.839844 44.015625 48.175781 44.113281 48.371094 43.199219 L 48.511719 42.433594 L 56.097656 42.601562 C 60.273438 42.695312 68.335938 42.984375 74 43.222656 C 79.6875 43.488281 87.34375 43.824219 91.042969 43.945312 C 94.738281 44.089844 98.21875 44.257812 98.769531 44.328125 L 99.777344 44.449219 L 99.945312 45.886719 C 100.042969 46.65625 100.183594 47.304688 100.304688 47.304688 C 100.425781 47.304688 101.023438 46.917969 101.648438 46.414062 C 102.296875 45.9375 103.351562 45.3125 104.023438 45 C 105.058594 44.542969 105.5625 44.0625 105.5625 43.582031 C 105.5625 43.535156 104.648438 43.054688 103.519531 42.527344 C 102.394531 42 101.167969 41.351562 100.785156 41.089844 C 100.402344 40.800781 100.015625 40.582031 99.921875 40.582031 C 99.824219 40.582031 99.800781 41.304688 99.847656 42.167969 L 99.945312 43.75 L 98.386719 43.609375 C 97.496094 43.511719 92.050781 43.296875 86.242188 43.105469 C 80.433594 42.910156 73.304688 42.648438 70.402344 42.503906 C 67.496094 42.382812 62.960938 42.214844 60.320312 42.144531 C 57.679688 42.070312 53.9375 41.953125 51.992188 41.878906 L 48.441406 41.734375 L 48.441406 41.0625 C 48.441406 40.703125 48.273438 40.273438 48.082031 40.105469 C 47.769531 39.839844 47.722656 39.9375 47.722656 40.824219 L 47.722656 41.855469 L 37.832031 41.664062 C 26.050781 41.449219 24.777344 41.375 24.875 40.75 C 24.921875 40.464844 24.777344 40.246094 24.464844 40.175781 C 24.175781 40.105469 23.960938 39.960938 23.960938 39.839844 C 23.960938 39.71875 24.632812 38.375 25.472656 36.816406 C 26.671875 34.558594 27.371094 33.574219 29.023438 31.824219 C 33.296875 27.382812 38.480469 24.382812 52.976562 18.023438 C 59.121094 15.335938 60.921875 14.664062 61.882812 14.664062 C 62.21875 14.664062 62.695312 14.519531 62.9375 14.351562 C 63.34375 14.039062 63.34375 14.015625 62.960938 13.632812 C 62.746094 13.414062 62.359375 13.222656 62.097656 13.222656 C 61.472656 13.222656 58.59375 14.425781 53.578125 16.777344 C 51.34375 17.808594 48.394531 19.128906 47 19.726562 C 42.730469 21.503906 37.160156 24.382812 34.402344 26.207031 C 31.351562 28.222656 27.65625 31.65625 26.3125 33.742188 C 25.808594 34.511719 24.777344 36.382812 24.058594 37.871094 C 22.714844 40.609375 21.945312 41.496094 21.632812 40.679688 C 21.175781 39.480469 22.714844 7.777344 23.265625 7.078125 C 23.386719 6.9375 23.914062 6.695312 24.464844 6.527344 L 25.449219 6.238281 L 24.226562 4.945312 C 22.953125 3.601562 22.738281 2.953125 23.359375 2.425781 C 23.671875 2.160156 23.671875 2.0625 23.433594 1.917969 C 22.929688 1.582031 22.640625 1.65625 22.089844 2.257812 Z M 22.136719 5.566406 C 22.28125 6.457031 22.28125 6.457031 21.203125 6.816406 C 20.601562 7.03125 20.121094 7.128906 20.121094 7.03125 C 20.144531 6.792969 21.824219 4.511719 21.898438 4.632812 C 21.945312 4.65625 22.042969 5.089844 22.136719 5.566406 Z M 23.671875 5.734375 C 23.722656 5.902344 23.601562 6.023438 23.386719 6.023438 C 23.167969 6.023438 23 5.855469 23 5.640625 C 23 5.230469 23.527344 5.304688 23.671875 5.734375 Z M 5.191406 39.335938 C 5.144531 39.863281 4.976562 40.007812 4.402344 40.054688 C 4.015625 40.078125 3.441406 40.246094 3.152344 40.390625 C 2.097656 40.917969 2.3125 40.367188 3.585938 39.167969 C 4.953125 37.917969 5.359375 37.945312 5.191406 39.335938 Z M 4.953125 41.519531 C 5.023438 41.710938 4.929688 41.808594 4.738281 41.734375 C 4.570312 41.6875 4.378906 41.496094 4.328125 41.328125 C 4.257812 41.136719 4.351562 41.039062 4.546875 41.113281 C 4.714844 41.160156 4.90625 41.351562 4.953125 41.519531 Z M 102.632812 42.984375 C 103.304688 43.390625 103.882812 43.777344 103.882812 43.847656 C 103.882812 43.96875 101.960938 43.777344 101.191406 43.535156 C 100.6875 43.414062 100.59375 42.265625 101.074219 42.265625 C 101.21875 42.265625 101.9375 42.601562 102.632812 42.984375 Z M 102.128906 44.808594 C 102.175781 44.976562 101.890625 45.335938 101.480469 45.625 L 100.761719 46.128906 L 100.761719 45.433594 C 100.761719 45.023438 100.90625 44.640625 101.074219 44.59375 C 101.503906 44.398438 102.035156 44.519531 102.128906 44.808594 Z M 20.074219 60.984375 C 20.121094 61.703125 20.265625 62.425781 20.410156 62.59375 C 20.695312 62.929688 20.457031 64.582031 20.121094 64.582031 C 19.882812 64.582031 18.921875 62.160156 18.753906 61.054688 C 18.609375 60.167969 19.015625 59.472656 19.617188 59.59375 C 19.90625 59.640625 20.023438 60 20.074219 60.984375 Z M 21.679688 59.785156 C 21.753906 59.902344 21.632812 60.359375 21.394531 60.792969 L 20.960938 61.582031 L 20.890625 60.910156 C 20.746094 59.808594 21.25 59.089844 21.679688 59.785156 Z M 21.679688 59.785156 "/>
<path style=" stroke:none;fill-rule:nonzero;fill:rgb(0%,0%,0%);fill-opacity:1;" d="M 74.503906 6 C 74.3125 6.289062 74.601562 7.679688 74.867188 7.847656 C 74.984375 7.917969 75.082031 7.75 75.082031 7.464844 C 75.082031 7.152344 75.203125 6.984375 75.394531 7.03125 C 75.921875 7.222656 75.824219 8.0625 75.203125 8.664062 C 74.867188 8.976562 74.601562 9.3125 74.601562 9.433594 C 74.601562 9.527344 75.539062 9.625 76.714844 9.601562 C 78.730469 9.601562 78.898438 9.40625 77.191406 9.046875 C 76.640625 8.929688 76.519531 8.761719 76.519531 8.160156 C 76.519531 6.910156 75.730469 5.785156 74.839844 5.785156 C 74.722656 5.785156 74.578125 5.878906 74.503906 6 Z M 74.503906 6 "/>
<path style=" stroke:none;fill-rule:nonzero;fill:rgb(0%,0%,0%);fill-opacity:1;" d="M 85.785156 7.03125 C 84.730469 8.472656 82.855469 12.984375 83.359375 12.984375 C 83.410156 12.984375 83.984375 12.648438 84.609375 12.265625 C 85.234375 11.855469 85.90625 11.542969 86.144531 11.542969 C 86.578125 11.542969 86.839844 12.433594 86.839844 13.96875 C 86.839844 14.472656 86.9375 14.929688 87.058594 15 C 87.320312 15.167969 87.5625 13.992188 87.5625 12.480469 C 87.5625 11.734375 87.707031 11.207031 87.96875 10.945312 C 88.351562 10.558594 88.351562 10.511719 87.96875 10.296875 C 87.730469 10.175781 87.5625 9.792969 87.5625 9.382812 C 87.5625 8.230469 87.007812 6.265625 86.695312 6.265625 C 86.527344 6.265625 86.121094 6.625 85.785156 7.03125 Z M 86.457031 8.566406 C 86.527344 8.785156 86.601562 9.3125 86.601562 9.742188 C 86.601562 10.414062 86.480469 10.582031 85.855469 10.800781 C 85.425781 10.945312 85.042969 11.0625 85.015625 11.0625 C 84.777344 11.0625 84.96875 10.128906 85.402344 9.191406 C 85.882812 8.136719 86.21875 7.917969 86.457031 8.566406 Z M 86.457031 8.566406 "/>
<path style=" stroke:none;fill-rule:nonzero;fill:rgb(0%,0%,0%);fill-opacity:1;" d="M 97.496094 8.566406 C 97.183594 9.3125 97.042969 9.40625 96.488281 9.3125 C 95.023438 9.023438 94.90625 9.023438 94.808594 9.433594 C 94.761719 9.71875 94.882812 9.863281 95.191406 9.863281 C 95.457031 9.863281 95.914062 10.054688 96.226562 10.320312 L 96.777344 10.75 L 95.867188 12.769531 C 95.359375 13.871094 94.785156 15.167969 94.59375 15.625 L 94.234375 16.464844 L 94.808594 15.9375 C 95.121094 15.648438 95.792969 14.519531 96.320312 13.464844 C 96.824219 12.40625 97.328125 11.542969 97.425781 11.542969 C 97.519531 11.542969 97.832031 11.929688 98.121094 12.382812 C 98.648438 13.222656 99.082031 13.488281 99.082031 12.910156 C 99.082031 12.769531 98.769531 12.097656 98.386719 11.449219 C 97.714844 10.320312 97.714844 10.222656 98.023438 9.3125 C 98.21875 8.785156 98.359375 8.207031 98.359375 8.039062 C 98.359375 7.390625 97.855469 7.703125 97.496094 8.566406 Z M 97.496094 8.566406 "/>
<path style=" stroke:none;fill-rule:nonzero;fill:rgb(0%,0%,0%);fill-opacity:1;" d="M 90.632812 9.910156 C 89.792969 10.800781 89.023438 12.359375 89 13.152344 C 89 13.871094 89.769531 13.871094 90.753906 13.175781 C 91.449219 12.671875 91.496094 12.671875 91.738281 13.078125 C 92.386719 14.136719 92.914062 14.664062 93.394531 14.664062 C 93.875 14.664062 93.875 14.640625 93.273438 13.992188 C 92.914062 13.632812 92.578125 13.007812 92.480469 12.625 C 92.410156 12.214844 92.289062 11.664062 92.21875 11.351562 C 92.097656 10.703125 91.496094 10.65625 91.28125 11.28125 C 91.113281 11.832031 90.25 12.625 90.035156 12.433594 C 89.960938 12.335938 90.203125 11.855469 90.609375 11.351562 C 91.304688 10.488281 91.882812 9.550781 91.882812 9.289062 C 91.882812 8.902344 91.28125 9.214844 90.632812 9.910156 Z M 90.632812 9.910156 "/>
<path style=" stroke:none;fill-rule:nonzero;fill:rgb(0%,0%,0%);fill-opacity:1;" d="M 71.023438 10.488281 C 70.761719 11.425781 69.679688 12.984375 69.296875 12.984375 C 68.960938 12.984375 68.359375 11.449219 68.359375 10.582031 C 68.359375 10.199219 68.265625 9.863281 68.121094 9.863281 C 67.738281 9.863281 67.832031 12.214844 68.242188 12.984375 C 68.480469 13.441406 68.792969 13.703125 69.105469 13.703125 C 69.585938 13.703125 71 12.433594 71 12 C 71 11.878906 71.097656 11.785156 71.21875 11.785156 C 71.503906 11.785156 71.722656 15.550781 71.554688 17.929688 L 71.410156 19.96875 L 70.496094 19.078125 C 69.25 17.878906 68.746094 16.75 69.082031 16.078125 C 69.320312 15.648438 69.296875 15.601562 68.914062 15.671875 C 68.335938 15.769531 68.21875 17.039062 68.722656 18 C 69.175781 18.9375 70.449219 20.351562 71.050781 20.6875 C 71.386719 20.855469 71.601562 20.855469 71.867188 20.640625 C 72.5625 20.0625 72.203125 9.625 71.480469 9.625 C 71.359375 9.625 71.144531 10.007812 71.023438 10.488281 Z M 71.023438 10.488281 "/>
<path style=" stroke:none;fill-rule:nonzero;fill:rgb(0%,0%,0%);fill-opacity:1;" d="M 76.714844 13.222656 C 75.824219 13.777344 76.257812 13.992188 77.839844 13.824219 C 79.519531 13.632812 80.074219 14.015625 78.5625 14.28125 C 78.007812 14.398438 77.722656 14.59375 77.722656 14.832031 C 77.722656 15.144531 77.914062 15.191406 78.753906 15.070312 C 79.328125 15 80.121094 14.785156 80.503906 14.640625 C 81.105469 14.375 81.128906 14.328125 80.722656 14.257812 C 80.457031 14.183594 80.074219 13.917969 79.855469 13.65625 C 79.402344 13.078125 77.386719 12.816406 76.714844 13.222656 Z M 76.714844 13.222656 "/>
<path style=" stroke:none;fill-rule:nonzero;fill:rgb(0%,0%,0%);fill-opacity:1;" d="M 108.441406 40.441406 C 108.441406 40.632812 108.824219 41.089844 109.28125 41.449219 C 110.289062 42.214844 110.265625 42.3125 108.777344 44.902344 C 108.203125 45.886719 107.722656 46.800781 107.722656 46.917969 C 107.722656 47.328125 108.65625 46.296875 109.664062 44.761719 C 110.21875 43.917969 110.769531 43.222656 110.914062 43.222656 C 111.035156 43.222656 111.679688 43.703125 112.304688 44.304688 C 112.929688 44.902344 113.578125 45.382812 113.722656 45.382812 C 114.082031 45.382812 113.867188 45.046875 112.496094 43.464844 L 111.371094 42.144531 L 111.945312 41.472656 C 112.519531 40.800781 112.714844 40.105469 112.304688 40.105469 C 112.183594 40.105469 111.824219 40.414062 111.488281 40.824219 L 110.890625 41.519531 L 110 40.824219 C 109.015625 40.03125 108.441406 39.910156 108.441406 40.441406 Z M 108.441406 40.441406 "/>
<path style=" stroke:none;fill-rule:nonzero;fill:rgb(0%,0%,0%);fill-opacity:1;" d="M 14.503906 44.160156 C 13.929688 44.808594 13.402344 46.679688 13.402344 48.144531 C 13.402344 49.894531 14.144531 51 15.394531 51.097656 C 16.160156 51.167969 16.425781 51.046875 17.097656 50.375 C 17.890625 49.582031 18.441406 48.238281 18.441406 47.113281 C 18.441406 46.199219 17.289062 44.183594 16.617188 43.945312 C 15.679688 43.582031 14.960938 43.65625 14.503906 44.160156 Z M 17.242188 45.457031 C 17.527344 45.9375 17.722656 46.65625 17.722656 47.351562 C 17.722656 48.335938 17.601562 48.601562 16.808594 49.464844 C 15.25 51.097656 14.121094 50.496094 14.121094 48.070312 C 14.121094 46.75 14.648438 45.144531 15.058594 45.144531 C 15.203125 45.144531 15.320312 45 15.320312 44.808594 C 15.320312 43.894531 16.546875 44.304688 17.242188 45.457031 Z M 17.242188 45.457031 "/>
<path style=" stroke:none;fill-rule:nonzero;fill:rgb(0%,0%,0%);fill-opacity:1;" d="M 56.503906 45.671875 C 54.824219 48.238281 54.753906 53.425781 56.433594 53.734375 C 56.816406 53.808594 56.816406 53.734375 56.335938 52.824219 C 55.882812 51.960938 55.832031 51.574219 55.953125 49.96875 C 56.074219 47.953125 56.410156 47.0625 56.960938 47.0625 C 57.371094 47.0625 57.441406 45.960938 57.105469 45.40625 C 56.9375 45.144531 56.816406 45.191406 56.503906 45.671875 Z M 56.503906 45.671875 "/>
<path style=" stroke:none;fill-rule:nonzero;fill:rgb(0%,0%,0%);fill-opacity:1;" d="M 49.738281 46.105469 C 49.042969 46.390625 48.945312 46.75 48.753906 49.609375 C 48.609375 52.054688 48.609375 52.105469 49.113281 52.105469 C 49.59375 52.105469 49.640625 51.960938 49.640625 50.929688 C 49.640625 50.28125 49.785156 49.65625 49.953125 49.535156 C 50.097656 49.390625 50.867188 49.175781 51.632812 49.03125 C 54.007812 48.574219 54.128906 48.214844 51.875 48.382812 C 49.882812 48.503906 49.882812 48.503906 49.882812 47.929688 C 49.882812 47.0625 50.457031 46.609375 51.800781 46.441406 C 52.449219 46.34375 52.929688 46.199219 52.855469 46.078125 C 52.6875 45.816406 50.410156 45.816406 49.738281 46.105469 Z M 49.738281 46.105469 "/>
<path style=" stroke:none;fill-rule:nonzero;fill:rgb(0%,0%,0%);fill-opacity:1;" d="M 69.679688 47.566406 C 69.777344 47.878906 70.042969 48.457031 70.257812 48.863281 C 70.832031 49.96875 70.761719 53.617188 70.089844 54.886719 C 69.824219 55.414062 69.417969 55.992188 69.226562 56.160156 C 68.746094 56.566406 68.746094 56.902344 69.203125 56.902344 C 69.753906 56.902344 70.714844 55.273438 71.144531 53.542969 C 71.648438 51.671875 71.480469 49.777344 70.6875 48.238281 C 70.089844 47.089844 69.394531 46.609375 69.679688 47.566406 Z M 69.679688 47.566406 "/>
<path style=" stroke:none;fill-rule:nonzero;fill:rgb(0%,0%,0%);fill-opacity:1;" d="M 59.410156 47.734375 C 58.855469 48.335938 58.519531 49.367188 58.519531 50.398438 C 58.519531 51.433594 58.855469 51.863281 59.695312 51.863281 C 60.035156 51.863281 60.5625 52.105469 60.875 52.390625 L 61.472656 52.945312 L 61.304688 52.105469 C 61.234375 51.648438 61.066406 50.542969 60.945312 49.632812 C 60.753906 48.144531 60.394531 47.304688 59.960938 47.304688 C 59.867188 47.304688 59.625 47.496094 59.410156 47.734375 Z M 60.203125 49.367188 C 60.203125 50.28125 59.839844 51.144531 59.480469 51.144531 C 59.144531 51.144531 59.191406 49.847656 59.527344 49.105469 C 59.914062 48.265625 60.203125 48.359375 60.203125 49.367188 Z M 60.203125 49.367188 "/>
<path style=" stroke:none;fill-rule:nonzero;fill:rgb(0%,0%,0%);fill-opacity:1;" d="M 65.960938 48.265625 C 65 49.222656 65.625 52.34375 66.777344 52.34375 C 67.929688 52.34375 68.480469 49.320312 67.546875 48.289062 C 66.96875 47.664062 66.585938 47.640625 65.960938 48.265625 Z M 67.257812 49.128906 C 67.472656 49.679688 67.425781 50.304688 67.136719 51.070312 C 66.898438 51.71875 66.875 51.71875 66.539062 51.289062 C 66.152344 50.734375 66.105469 50.207031 66.441406 49.367188 C 66.707031 48.671875 67.042969 48.550781 67.257812 49.128906 Z M 67.257812 49.128906 "/>
<path style=" stroke:none;fill-rule:nonzero;fill:rgb(0%,0%,0%);fill-opacity:1;" d="M 63.320312 51.433594 C 63.152344 52.128906 63.082031 53.089844 63.128906 53.542969 L 63.226562 54.382812 L 63.539062 53.664062 C 63.96875 52.679688 64.183594 50.183594 63.847656 50.183594 C 63.707031 50.183594 63.464844 50.761719 63.320312 51.433594 Z M 63.320312 51.433594 "/>
</g>
</svg>
