<?xml version="1.0" encoding="UTF-8"?>
<svg xmlns="http://www.w3.org/2000/svg" xmlns:xlink="http://www.w3.org/1999/xlink" width="121pt" height="82pt" viewBox="0 0 121 82" version="1.1">
<defs>
<clipPath id="clip1">
  <path d="M 54 0.839844 L 60 0.839844 L 60 9 L 54 9 Z M 54 0.839844 "/>
</clipPath>
</defs>
<g id="surface1">
<g clip-path="url(#clip1)" clip-rule="nonzero">
<path style=" stroke:none;fill-rule:nonzero;fill:rgb(0%,0%,0%);fill-opacity:1;" d="M 54.234375 1.078125 C 54.234375 1.679688 55.046875 3.289062 55.480469 3.503906 C 55.863281 3.71875 56.105469 3.671875 56.65625 3.265625 C 57.039062 2.976562 57.472656 2.808594 57.59375 2.878906 C 57.929688 3.097656 57.90625 5.808594 57.570312 6.433594 C 57.402344 6.71875 57.015625 7.273438 56.730469 7.632812 C 56.417969 8.015625 56.152344 8.425781 56.152344 8.542969 C 56.152344 8.855469 56.96875 8.808594 57.6875 8.472656 C 58.359375 8.183594 58.410156 8.0625 58.769531 6.046875 C 58.914062 5.28125 59.25 4.152344 59.511719 3.550781 C 60.136719 2.136719 60.015625 1.992188 59.296875 3.265625 C 58.984375 3.792969 58.648438 4.152344 58.550781 4.03125 C 58.433594 3.9375 58.265625 3.191406 58.144531 2.425781 C 58.046875 1.632812 57.832031 0.960938 57.664062 0.910156 C 57.519531 0.863281 57.207031 1.199219 56.992188 1.65625 C 56.367188 2.976562 55.9375 3.214844 55.410156 2.542969 C 55.144531 2.230469 54.953125 1.726562 54.953125 1.414062 C 54.953125 1.054688 54.808594 0.839844 54.59375 0.839844 C 54.402344 0.839844 54.234375 0.9375 54.234375 1.078125 Z M 57.878906 7.609375 C 57.710938 7.777344 57.59375 7.800781 57.59375 7.65625 C 57.59375 7.320312 57.878906 7.03125 58.046875 7.199219 C 58.097656 7.273438 58.023438 7.464844 57.878906 7.609375 Z M 57.878906 7.609375 "/>
</g>
<path style=" stroke:none;fill-rule:nonzero;fill:rgb(0%,0%,0%);fill-opacity:1;" d="M 49.671875 3.792969 C 49.671875 4.105469 49.457031 4.558594 49.167969 4.824219 C 48.570312 5.375 47.03125 8.0625 47.03125 8.566406 C 47.03125 9.023438 47.535156 9.238281 48.542969 9.238281 C 50.007812 9.238281 50.007812 9.238281 49.816406 13.96875 C 49.625 18.71875 49.3125 22.65625 49.074219 22.871094 C 49 22.96875 48.832031 22.871094 48.710938 22.679688 C 48.542969 22.414062 48.472656 22.488281 48.351562 22.992188 C 48.234375 23.398438 48.015625 23.640625 47.753906 23.640625 C 47.511719 23.640625 45.207031 23.28125 42.664062 22.824219 C 33.808594 21.238281 15.59375 19.488281 15.59375 20.207031 C 15.59375 20.617188 16.382812 20.710938 21.710938 21 C 30.519531 21.457031 38.082031 22.390625 45.257812 23.902344 C 46.601562 24.167969 47.824219 24.503906 48.015625 24.625 C 48.402344 24.839844 48.738281 28.945312 48.402344 29.183594 C 48.28125 29.253906 46.601562 29.398438 44.679688 29.496094 C 42.738281 29.59375 40.480469 29.710938 39.664062 29.808594 L 38.152344 29.953125 L 38.152344 29.0625 C 38.152344 28.535156 38.007812 28.128906 37.816406 28.054688 C 37.144531 27.792969 34.550781 29.542969 34.550781 30.238281 C 34.550781 30.550781 37.289062 31.800781 37.960938 31.800781 C 38.25 31.800781 38.34375 31.609375 38.320312 31.152344 C 38.273438 30.550781 38.34375 30.480469 39.472656 30.335938 C 40.144531 30.238281 42.472656 30.097656 44.65625 30.023438 L 48.664062 29.878906 L 48.832031 32.710938 C 48.929688 34.246094 49.074219 36.480469 49.191406 37.679688 C 49.359375 39.433594 49.335938 39.886719 49.046875 40.105469 C 48.855469 40.246094 48.710938 40.703125 48.710938 41.085938 L 48.710938 41.808594 L 45.183594 41.953125 C 37 42.3125 21.207031 42.625 14.511719 42.550781 L 7.3125 42.480469 L 7.097656 41.566406 C 6.90625 40.824219 6.785156 40.703125 6.375 40.824219 C 5.777344 41.015625 4.289062 41.832031 1.648438 43.441406 C -0.222656 44.59375 -0.269531 44.640625 0.375 44.808594 C 0.761719 44.878906 1.960938 45.191406 3.015625 45.457031 C 6.375 46.320312 7.191406 46.054688 7.191406 44.183594 L 7.191406 43.152344 L 21.304688 42.984375 C 29.054688 42.886719 38.535156 42.769531 42.375 42.695312 L 49.359375 42.574219 L 49.503906 43.246094 C 49.625 43.894531 49.960938 48.503906 50.34375 54.71875 C 50.441406 56.304688 50.464844 58.894531 50.394531 60.480469 L 50.273438 63.359375 L 49.433594 63.648438 C 42.953125 65.855469 40.335938 66.671875 37.3125 67.390625 C 33.039062 68.425781 25 69.886719 22.3125 70.105469 C 20.945312 70.222656 20.394531 70.367188 20.394531 70.582031 C 20.394531 71.0625 20.945312 71.015625 26.535156 70.078125 C 35.105469 68.617188 41.152344 67.128906 47.320312 64.96875 C 49.097656 64.367188 49.960938 64.152344 50.128906 64.320312 C 50.535156 64.726562 50.753906 66.863281 50.417969 67.054688 C 50.199219 67.199219 50.226562 67.609375 50.511719 68.710938 C 50.730469 69.527344 50.871094 70.847656 50.824219 71.6875 C 50.753906 72.984375 50.679688 73.199219 50.273438 73.296875 C 50.007812 73.34375 49.527344 73.464844 49.214844 73.582031 C 48.761719 73.777344 48.710938 73.871094 48.953125 74.160156 C 49.3125 74.59375 50.082031 74.640625 50.199219 74.230469 C 50.367188 73.777344 51.113281 74.207031 51.113281 74.761719 C 51.113281 75.023438 51.234375 75.238281 51.351562 75.238281 C 51.496094 75.238281 51.59375 75.046875 51.59375 74.808594 C 51.59375 74.183594 52.144531 73.535156 52.480469 73.75 C 52.671875 73.871094 52.648438 74.617188 52.382812 76.75 C 52.167969 78.289062 51.929688 79.558594 51.855469 79.535156 C 51.640625 79.535156 50.007812 76.894531 49.816406 76.296875 C 49.746094 76.03125 49.382812 75.527344 49.023438 75.214844 C 48.207031 74.472656 48.351562 74.832031 49.863281 77.519531 C 50.535156 78.71875 51.257812 79.96875 51.449219 80.328125 C 51.640625 80.710938 51.90625 81 52.046875 81 C 52.335938 81 52.695312 79.246094 53.105469 75.648438 L 53.441406 72.839844 L 52.527344 72.839844 C 51.351562 72.839844 51.304688 72.574219 51.496094 67.558594 L 51.664062 63.503906 L 55.074219 62.398438 C 58.648438 61.246094 62.96875 59.230469 65.441406 57.527344 C 66.257812 56.976562 67.046875 56.519531 67.191406 56.519531 C 67.3125 56.519531 68.753906 57.191406 70.382812 57.984375 C 73.410156 59.519531 78.425781 61.296875 82.792969 62.398438 C 84.183594 62.734375 87.59375 63.671875 90.351562 64.488281 C 96.929688 66.359375 103.191406 67.871094 107.511719 68.640625 C 111.449219 69.3125 112.144531 69.359375 112.023438 68.929688 C 111.953125 68.761719 110.585938 68.449219 108.328125 68.113281 C 104.128906 67.511719 98.824219 66.265625 90.710938 63.984375 C 87.472656 63.070312 83.007812 61.824219 80.753906 61.199219 C 76.335938 59.953125 74.535156 59.304688 71.03125 57.648438 C 67.480469 55.96875 67.550781 56.136719 69.496094 54.480469 C 70.410156 53.6875 72.257812 51.960938 73.601562 50.617188 C 76.503906 47.734375 77.511719 45.984375 77.511719 43.800781 C 77.511719 43.078125 77.609375 42.359375 77.703125 42.191406 C 78.183594 41.425781 79.382812 41.351562 93.808594 41.113281 C 109.71875 40.871094 108.738281 40.777344 109.121094 42.359375 C 109.410156 43.488281 110.199219 43.632812 110.632812 42.625 C 110.800781 42.167969 111.402344 41.59375 112.097656 41.160156 C 112.746094 40.777344 113.273438 40.390625 113.273438 40.320312 C 113.273438 40.273438 112.625 39.886719 111.832031 39.480469 C 111.039062 39.070312 109.9375 38.351562 109.410156 37.871094 C 108.878906 37.390625 108.402344 37.078125 108.304688 37.175781 C 108.234375 37.246094 108.28125 37.726562 108.425781 38.253906 C 108.59375 38.761719 108.710938 39.433594 108.710938 39.769531 L 108.710938 40.367188 L 99.304688 40.511719 C 94.144531 40.609375 87.449219 40.679688 84.449219 40.679688 L 79 40.679688 L 78.738281 39.886719 C 78.496094 39.167969 77.511719 33.960938 77.175781 31.632812 C 76.9375 30 77.03125 29.953125 81.738281 29.519531 L 83.226562 29.375 L 83.367188 30.214844 C 83.464844 30.695312 83.632812 31.128906 83.753906 31.199219 C 83.96875 31.34375 87.113281 28.96875 87.113281 28.65625 C 87.113281 28.558594 86.535156 28.273438 85.863281 27.984375 C 85.167969 27.695312 84.207031 27.265625 83.703125 27 L 82.839844 26.519531 L 82.863281 27.648438 L 82.914062 28.777344 L 81.832031 28.945312 C 81.234375 29.015625 79.914062 29.183594 78.90625 29.28125 L 77.03125 29.449219 L 77.03125 27.9375 C 77.03125 27.097656 77.152344 25.273438 77.320312 23.832031 L 77.609375 21.265625 L 79.410156 20.449219 C 86.007812 17.425781 93.351562 15.023438 97.503906 14.496094 C 98.992188 14.304688 99.542969 14.136719 99.375 13.96875 C 98.632812 13.222656 89.921875 15.433594 84.570312 17.710938 C 79.503906 19.894531 78.570312 20.160156 77.847656 19.777344 C 77.128906 19.414062 76.480469 19.824219 76.984375 20.328125 C 77.394531 20.734375 77.34375 21 76.816406 21 C 76.578125 21 76.242188 21.144531 76.097656 21.335938 C 75.6875 21.816406 73.046875 22.75 72.496094 22.609375 C 72.183594 22.535156 71.898438 22.65625 71.679688 23.015625 C 71.199219 23.761719 66.472656 26.28125 65.585938 26.28125 C 65.054688 26.28125 64.816406 26.425781 64.71875 26.734375 C 64.671875 27 64.144531 27.503906 63.59375 27.863281 L 62.585938 28.535156 L 60.738281 27.863281 C 59.730469 27.480469 57.304688 26.640625 55.3125 25.992188 C 48.976562 23.878906 49.601562 24.214844 49.746094 23.0625 C 49.816406 22.535156 50.007812 19.65625 50.152344 16.679688 C 50.296875 13.703125 50.464844 10.824219 50.535156 10.246094 C 50.65625 9.289062 50.703125 9.238281 51.496094 9.238281 C 52.433594 9.238281 52.480469 9.167969 51.855469 8.496094 C 51.28125 7.871094 50.394531 5.566406 50.394531 4.679688 C 50.394531 3.863281 50.175781 3.238281 49.886719 3.238281 C 49.769531 3.238281 49.671875 3.503906 49.671875 3.792969 Z M 49.914062 6.960938 L 49.914062 8.761719 L 49.144531 8.761719 C 48.710938 8.761719 48.183594 8.664062 47.992188 8.519531 C 47.703125 8.328125 47.703125 8.230469 47.992188 7.65625 C 48.183594 7.296875 48.59375 6.863281 48.878906 6.648438 C 49.191406 6.457031 49.433594 6.121094 49.433594 5.902344 C 49.433594 5.519531 49.625 5.160156 49.839844 5.160156 C 49.886719 5.160156 49.914062 5.976562 49.914062 6.960938 Z M 51.113281 8.664062 C 51.113281 8.710938 51.015625 8.761719 50.871094 8.761719 C 50.753906 8.761719 50.632812 8.640625 50.632812 8.496094 C 50.632812 8.375 50.753906 8.328125 50.871094 8.398438 C 51.015625 8.472656 51.113281 8.59375 51.113281 8.664062 Z M 76.074219 22.847656 C 76.074219 23.085938 75.953125 23.710938 75.785156 24.238281 C 75.640625 24.769531 75.351562 26.230469 75.136719 27.480469 C 74.777344 29.6875 74.730469 29.761719 74.105469 29.832031 C 73.289062 29.929688 73.265625 29.664062 73.792969 26.160156 C 74.105469 24.191406 74.273438 23.664062 74.800781 23.113281 C 75.519531 22.34375 76.074219 22.246094 76.074219 22.847656 Z M 73.335938 25.128906 C 73.242188 26.085938 73 27.625 72.808594 28.558594 C 72.375 30.480469 72.402344 30.289062 72.640625 32.015625 C 72.738281 32.734375 72.953125 33.359375 73.121094 33.40625 C 73.3125 33.480469 73.359375 33.214844 73.265625 32.566406 C 73.121094 31.535156 73.503906 30.601562 74.03125 30.601562 C 74.296875 30.601562 74.394531 30.863281 74.394531 31.488281 C 74.394531 33.070312 74.082031 35.640625 73.914062 35.640625 C 73.816406 35.640625 73.046875 35.015625 72.207031 34.222656 C 70.671875 32.832031 70.671875 32.808594 71.128906 32.304688 C 71.394531 32.015625 71.464844 31.800781 71.320312 31.800781 C 70.886719 31.800781 70.960938 30.984375 71.65625 27.550781 C 72.234375 24.574219 72.6875 23.398438 73.242188 23.398438 C 73.410156 23.398438 73.433594 23.929688 73.335938 25.128906 Z M 71.03125 27.625 C 70.769531 29.207031 70.433594 30.886719 70.289062 31.414062 L 70.046875 32.328125 L 69.449219 31.777344 C 68.992188 31.367188 68.871094 30.984375 68.871094 30.121094 C 68.871094 29.085938 69.207031 26.734375 69.496094 25.726562 C 69.664062 25.175781 71.082031 24.3125 71.34375 24.574219 C 71.464844 24.695312 71.320312 26.0625 71.03125 27.625 Z M 50.320312 26.398438 C 50.152344 28.078125 49.886719 28.535156 49.625 27.601562 C 49.359375 26.59375 49.648438 25.078125 50.105469 25.078125 C 50.394531 25.078125 50.441406 25.320312 50.320312 26.398438 Z M 52.074219 26.136719 C 52.074219 26.664062 51.832031 27.480469 51.113281 29.28125 C 50.730469 30.289062 50.417969 29.640625 50.65625 28.320312 C 51.039062 26.207031 52.074219 24.625 52.074219 26.136719 Z M 53.753906 26.425781 C 53.753906 26.472656 53.65625 26.519531 53.511719 26.519531 C 53.394531 26.519531 53.273438 26.398438 53.273438 26.253906 C 53.273438 26.136719 53.394531 26.085938 53.511719 26.160156 C 53.65625 26.230469 53.753906 26.351562 53.753906 26.425781 Z M 68.632812 26.566406 C 68.632812 27.457031 68.128906 30.214844 67.960938 30.40625 C 67.863281 30.503906 67.625 30.480469 67.433594 30.359375 C 66.640625 29.878906 67.382812 26.039062 68.25 26.039062 C 68.488281 26.039062 68.632812 26.253906 68.632812 26.566406 Z M 54.808594 27.863281 C 54.785156 28.511719 54.542969 29.953125 54.257812 31.078125 C 53.96875 32.183594 53.777344 33.335938 53.847656 33.601562 C 53.945312 33.984375 53.511719 34.679688 52.023438 36.433594 C 50.777344 37.894531 49.984375 38.640625 49.886719 38.449219 C 49.671875 38.015625 49.433594 34.441406 49.601562 33.671875 C 49.671875 33.238281 49.886719 33 50.25 32.953125 C 50.585938 32.902344 50.777344 32.6875 50.824219 32.28125 C 50.847656 31.945312 51.039062 31.296875 51.207031 30.839844 C 52.335938 27.910156 52.863281 26.761719 53.082031 26.761719 C 53.226562 26.761719 53.25 26.953125 53.152344 27.167969 C 52.746094 28.246094 51.089844 33.984375 50.824219 35.207031 C 50.65625 35.976562 50.609375 36.648438 50.703125 36.742188 C 50.992188 37.054688 51.59375 36.3125 51.472656 35.785156 C 51.328125 35.207031 52.550781 30.625 53.394531 28.679688 C 53.703125 27.960938 54.015625 27.167969 54.089844 26.929688 C 54.375 26.039062 54.832031 26.664062 54.808594 27.863281 Z M 66.472656 27.984375 C 66.472656 29.808594 65.488281 30.457031 65.152344 28.871094 C 65.03125 28.320312 65.105469 28.03125 65.535156 27.574219 C 66.28125 26.785156 66.472656 26.855469 66.472656 27.984375 Z M 57.207031 27.550781 C 57.617188 27.839844 57.59375 27.960938 56.777344 29.449219 C 55.960938 30.9375 55.074219 31.992188 54.855469 31.777344 C 54.785156 31.726562 55 30.695312 55.3125 29.519531 C 55.625 28.320312 55.886719 27.335938 55.914062 27.289062 C 55.9375 27.121094 56.847656 27.289062 57.207031 27.550781 Z M 76.074219 28.777344 C 76.074219 29.113281 75.976562 29.449219 75.832031 29.519531 C 75.6875 29.617188 75.59375 29.351562 75.59375 28.945312 C 75.59375 28.535156 75.710938 28.199219 75.832031 28.199219 C 75.976562 28.199219 76.074219 28.464844 76.074219 28.777344 Z M 59.03125 28.992188 C 59.03125 29.566406 58.121094 30.574219 57.183594 31.054688 C 56.511719 31.390625 56.488281 31.246094 57.089844 30.40625 C 57.328125 30.046875 57.710938 29.472656 57.929688 29.085938 C 58.410156 28.296875 59.03125 28.222656 59.03125 28.992188 Z M 64.3125 28.800781 C 64.023438 29.160156 63.59375 29.085938 63.59375 28.65625 C 63.59375 28.535156 63.832031 28.441406 64.097656 28.441406 C 64.527344 28.441406 64.550781 28.488281 64.3125 28.800781 Z M 37.191406 29.160156 C 37.191406 29.832031 36.59375 30.625 36.136719 30.550781 C 35.394531 30.457031 35.417969 29.808594 36.160156 29.351562 C 36.929688 28.871094 37.191406 28.824219 37.191406 29.160156 Z M 84.6875 29.785156 C 84.542969 29.976562 84.328125 30.121094 84.207031 30.121094 C 83.871094 30.121094 83.945312 29.449219 84.304688 29.328125 C 84.785156 29.160156 85 29.425781 84.6875 29.785156 Z M 65.03125 30.382812 C 68.96875 32.230469 73.769531 36.238281 75.402344 39 C 75.90625 39.839844 76.242188 40.582031 76.191406 40.679688 C 76.144531 40.777344 73.792969 40.917969 70.984375 40.992188 C 68.175781 41.0625 62.96875 41.253906 59.441406 41.398438 C 52.746094 41.6875 51.761719 41.640625 51.976562 41.039062 C 52.074219 40.824219 51.976562 40.679688 51.761719 40.679688 C 51.015625 40.679688 51.136719 40.246094 52.289062 38.617188 C 54.570312 35.375 58.886719 31.199219 61.023438 30.144531 C 62.394531 29.472656 63.207031 29.519531 65.03125 30.382812 Z M 50.394531 30.863281 C 50.394531 31.464844 49.984375 32.28125 49.671875 32.28125 C 49.527344 32.28125 49.433594 31.847656 49.433594 31.320312 C 49.433594 30.527344 49.503906 30.359375 49.914062 30.359375 C 50.25 30.359375 50.394531 30.527344 50.394531 30.863281 Z M 76.074219 30.527344 C 76.074219 30.648438 75.785156 31.632812 75.472656 32.761719 L 74.871094 34.800781 L 74.992188 32.976562 C 75.039062 31.96875 75.160156 30.984375 75.257812 30.742188 C 75.402344 30.359375 76.074219 30.191406 76.074219 30.527344 Z M 76.382812 34.007812 C 76.457031 34.441406 76.601562 35.832031 76.671875 37.078125 C 76.839844 39.625 76.960938 39.625 75.183594 37.222656 C 74.296875 36.023438 74.367188 35.953125 75.617188 36.457031 C 75.976562 36.601562 76 36.433594 75.878906 34.945312 C 75.808594 33.863281 75.855469 33.238281 76.023438 33.238281 C 76.144531 33.238281 76.3125 33.601562 76.382812 34.007812 Z M 51.6875 38.375 C 50.5625 39.910156 50.082031 40.320312 50.65625 39.191406 C 51.066406 38.375 52.578125 36.550781 52.71875 36.695312 C 52.792969 36.769531 52.335938 37.511719 51.6875 38.375 Z M 77.753906 38.808594 C 77.730469 39.648438 77.679688 39.769531 77.488281 39.40625 C 77.25 39 77.367188 37.800781 77.632812 37.800781 C 77.703125 37.800781 77.753906 38.253906 77.753906 38.808594 Z M 110.992188 39.648438 C 111.449219 39.863281 111.832031 40.128906 111.832031 40.222656 C 111.832031 40.464844 110.175781 41.878906 109.886719 41.878906 C 109.382812 41.878906 109.792969 40.800781 110.34375 40.726562 C 111.113281 40.609375 110.992188 40.199219 110.199219 40.199219 C 109.382812 40.199219 109.167969 40.03125 109.359375 39.574219 C 109.527344 39.144531 109.960938 39.144531 110.992188 39.648438 Z M 76.601562 42.046875 C 77.417969 44.136719 76.410156 46.945312 73.863281 49.582031 C 71.824219 51.695312 67.433594 55.320312 66.929688 55.320312 C 66.160156 55.320312 56.488281 50.375 54.113281 48.769531 C 51.953125 47.304688 51.039062 45.910156 50.777344 43.75 L 50.609375 42.40625 L 51.878906 42.265625 C 53.273438 42.121094 66.375 41.640625 74.34375 41.449219 C 76.289062 41.398438 76.335938 41.398438 76.601562 42.046875 Z M 6.257812 43.847656 C 6.351562 44.207031 6.375 44.542969 6.304688 44.59375 C 6.160156 44.734375 3.832031 43.992188 3.832031 43.800781 C 3.832031 43.511719 4.886719 43.105469 5.488281 43.152344 C 5.898438 43.175781 6.136719 43.390625 6.257812 43.847656 Z M 4.550781 44.785156 C 5.945312 45.070312 6.234375 45.574219 4.863281 45.335938 C 3.738281 45.144531 2.34375 44.566406 2.921875 44.542969 C 3.136719 44.519531 3.878906 44.640625 4.550781 44.785156 Z M 53.273438 48.886719 C 54.570312 49.894531 57.472656 51.527344 62.03125 53.832031 C 66.664062 56.160156 66.542969 56.039062 65.25 56.929688 C 63.234375 58.296875 60.160156 59.929688 57.808594 60.863281 C 54.738281 62.085938 51.855469 62.878906 51.542969 62.566406 C 51.304688 62.328125 51.039062 59.136719 50.632812 51.839844 C 50.488281 49.320312 50.320312 46.992188 50.226562 46.679688 C 50.105469 46.128906 50.175781 46.175781 51.136719 47.0625 C 51.710938 47.59375 52.671875 48.433594 53.273438 48.886719 Z M 53.273438 48.886719 "/>
<path style=" stroke:none;fill-rule:nonzero;fill:rgb(0%,0%,0%);fill-opacity:1;" d="M 61.792969 34.03125 C 61.433594 34.296875 61.335938 34.800781 61.242188 36.769531 C 61.167969 38.375 61.214844 39.238281 61.382812 39.335938 C 61.746094 39.550781 62.007812 38.472656 61.816406 37.679688 C 61.601562 36.792969 61.960938 36.9375 63.113281 38.207031 C 64.382812 39.625 64.648438 39.214844 63.472656 37.65625 L 62.609375 36.527344 L 63.207031 35.902344 C 63.976562 35.113281 64 34.582031 63.304688 34.105469 C 62.65625 33.648438 62.367188 33.625 61.792969 34.03125 Z M 63.234375 34.703125 C 63.402344 34.96875 62.488281 36.121094 62.105469 36.121094 C 61.792969 36.121094 61.886719 35.542969 62.296875 34.96875 C 62.703125 34.390625 62.992188 34.296875 63.234375 34.703125 Z M 63.234375 34.703125 "/>
<path style=" stroke:none;fill-rule:nonzero;fill:rgb(0%,0%,0%);fill-opacity:1;" d="M 104.871094 12.960938 C 104.871094 13.152344 105.039062 13.320312 105.234375 13.320312 C 105.425781 13.320312 105.59375 13.152344 105.59375 12.960938 C 105.59375 12.769531 105.425781 12.601562 105.234375 12.601562 C 105.039062 12.601562 104.871094 12.769531 104.871094 12.960938 Z M 104.871094 12.960938 "/>
<path style=" stroke:none;fill-rule:nonzero;fill:rgb(0%,0%,0%);fill-opacity:1;" d="M 91.433594 24.503906 C 90.976562 24.695312 90.570312 24.910156 90.519531 24.960938 C 90.304688 25.175781 90.519531 29.039062 90.761719 29.328125 C 91.144531 29.808594 92.128906 29.6875 93.570312 29.039062 L 94.863281 28.414062 L 95.921875 29.542969 C 96.832031 30.527344 96.953125 30.601562 96.953125 30.121094 C 96.953125 29.808594 96.59375 29.230469 96.089844 28.75 C 95.320312 28.03125 95.25 27.839844 95.367188 27.121094 C 95.800781 24.863281 93.738281 23.496094 91.433594 24.503906 Z M 94.433594 25.199219 C 94.769531 25.511719 95.03125 25.945312 95.03125 26.160156 C 95.03125 26.808594 94.550781 27.480469 94.121094 27.480469 C 93.351562 27.457031 91.671875 26.542969 91.671875 26.136719 C 91.671875 25.894531 91.792969 25.800781 92.03125 25.894531 C 92.273438 25.96875 92.394531 25.871094 92.394531 25.609375 C 92.394531 24.527344 93.542969 24.289062 94.433594 25.199219 Z M 92.730469 27.601562 C 93.207031 27.792969 93.59375 28.078125 93.59375 28.199219 C 93.59375 28.558594 92.753906 28.917969 91.9375 28.917969 C 91.242188 28.917969 91.191406 28.847656 91.191406 28.078125 C 91.191406 27.121094 91.410156 27.046875 92.730469 27.601562 Z M 92.730469 27.601562 "/>
<path style=" stroke:none;fill-rule:nonzero;fill:rgb(0%,0%,0%);fill-opacity:1;" d="M 77.992188 25.054688 C 77.992188 25.199219 78.113281 25.320312 78.234375 25.320312 C 78.375 25.320312 78.472656 25.273438 78.472656 25.222656 C 78.472656 25.152344 78.375 25.03125 78.234375 24.960938 C 78.113281 24.886719 77.992188 24.9375 77.992188 25.054688 Z M 77.992188 25.054688 "/>
<path style=" stroke:none;fill-rule:nonzero;fill:rgb(0%,0%,0%);fill-opacity:1;" d="M 25.863281 26.304688 C 25.480469 26.519531 25.433594 26.953125 25.433594 30.070312 C 25.433594 32.449219 25.503906 33.480469 25.671875 33.238281 C 25.792969 33.046875 25.914062 32.375 25.914062 31.75 C 25.914062 30.167969 26.226562 29.519531 27.328125 28.777344 C 28.625 27.9375 28.792969 27.3125 27.976562 26.59375 C 27.28125 26.015625 26.535156 25.894531 25.863281 26.304688 Z M 27.542969 27.046875 C 27.710938 27.214844 27.832031 27.457031 27.832031 27.601562 C 27.832031 27.839844 26.632812 28.679688 26.296875 28.679688 C 26.105469 28.679688 26.105469 27.121094 26.320312 26.929688 C 26.5625 26.664062 27.234375 26.734375 27.542969 27.046875 Z M 27.542969 27.046875 "/>
<path style=" stroke:none;fill-rule:nonzero;fill:rgb(0%,0%,0%);fill-opacity:1;" d="M 27.59375 31.65625 C 27.59375 31.871094 27.761719 32.039062 27.976562 32.039062 C 28.191406 32.039062 28.3125 31.917969 28.265625 31.75 C 28.121094 31.320312 27.59375 31.246094 27.59375 31.65625 Z M 27.59375 31.65625 "/>
<path style=" stroke:none;fill-rule:nonzero;fill:rgb(0%,0%,0%);fill-opacity:1;" d="M 116.632812 36.457031 C 116.632812 36.625 116.847656 37.054688 117.113281 37.390625 C 117.6875 38.113281 117.710938 38.542969 117.234375 39.480469 C 116.65625 40.582031 116.394531 41.398438 116.585938 41.398438 C 116.679688 41.398438 116.96875 41.015625 117.207031 40.558594 C 118 39.121094 118.167969 39.097656 119.03125 40.441406 C 119.464844 41.085938 119.898438 41.640625 120.015625 41.640625 C 120.304688 41.640625 120.304688 40.992188 120.015625 40.824219 C 119.898438 40.75 119.511719 40.175781 119.152344 39.574219 C 118.578125 38.617188 118.550781 38.398438 118.792969 37.777344 C 119.128906 37.007812 119.273438 36.9375 119.703125 37.367188 C 120.089844 37.75 120.113281 37.246094 119.753906 36.574219 C 119.535156 36.214844 119.394531 36.167969 119.03125 36.359375 C 118.792969 36.480469 118.503906 36.839844 118.433594 37.105469 C 118.265625 37.609375 118.242188 37.609375 117.542969 36.863281 C 116.777344 36.023438 116.632812 35.976562 116.632812 36.457031 Z M 116.632812 36.457031 "/>
<path style=" stroke:none;fill-rule:nonzero;fill:rgb(0%,0%,0%);fill-opacity:1;" d="M 80.105469 43.320312 C 78.496094 44.566406 77.777344 48.503906 78.855469 49.96875 C 79.242188 50.472656 79.578125 50.664062 80.296875 50.710938 L 81.234375 50.761719 L 80.464844 50.425781 C 79.289062 49.894531 78.878906 49.078125 79 47.449219 C 79.144531 45.671875 79.746094 44.398438 80.65625 44.039062 C 81.066406 43.847656 81.351562 43.558594 81.351562 43.296875 C 81.351562 42.695312 80.847656 42.71875 80.105469 43.320312 Z M 80.105469 43.320312 "/>
<path style=" stroke:none;fill-rule:nonzero;fill:rgb(0%,0%,0%);fill-opacity:1;" d="M 93.832031 43.679688 C 93.832031 43.894531 94.167969 44.398438 94.550781 44.761719 C 95.753906 45.886719 95.464844 47.832031 93.710938 50.398438 C 92.535156 52.105469 92.609375 52.464844 93.832031 51.070312 C 95.730469 48.9375 96.328125 45.910156 95.199219 44.253906 C 94.601562 43.367188 93.832031 43.03125 93.832031 43.679688 Z M 93.832031 43.679688 "/>
<path style=" stroke:none;fill-rule:nonzero;fill:rgb(0%,0%,0%);fill-opacity:1;" d="M 44.5625 44.230469 C 44.105469 44.734375 43.695312 46.441406 43.671875 47.878906 C 43.671875 48.648438 43.839844 49.222656 44.296875 49.871094 L 44.898438 50.785156 L 45.808594 50.28125 C 47.007812 49.582031 47.34375 48.984375 47.320312 47.496094 C 47.320312 46.128906 47.054688 45.457031 46.121094 44.449219 C 45.402344 43.679688 45.089844 43.632812 44.5625 44.230469 Z M 46.074219 45.121094 C 46.503906 45.574219 46.671875 46.078125 46.746094 47.160156 C 46.839844 48.527344 46.816406 48.625 46.074219 49.320312 C 45.328125 50.015625 45.257812 50.039062 44.847656 49.65625 C 44.488281 49.34375 44.394531 48.910156 44.394531 47.734375 C 44.394531 46.894531 44.511719 46.152344 44.632812 46.078125 C 44.777344 46.007812 44.871094 45.695312 44.871094 45.382812 C 44.871094 44.351562 45.28125 44.28125 46.074219 45.121094 Z M 46.074219 45.121094 "/>
<path style=" stroke:none;fill-rule:nonzero;fill:rgb(0%,0%,0%);fill-opacity:1;" d="M 88.839844 44.328125 C 88.503906 44.664062 88.480469 45.457031 88.769531 45.910156 C 88.914062 46.152344 89.03125 46.054688 89.226562 45.503906 C 89.367188 45.097656 89.585938 44.761719 89.730469 44.761719 C 90.257812 44.761719 90.234375 45.335938 89.65625 46.441406 C 88.863281 47.976562 88.863281 48.214844 89.703125 48.023438 C 90.90625 47.710938 92.394531 47.085938 92.394531 46.871094 C 92.394531 46.75 92.199219 46.703125 91.984375 46.777344 C 90.375 47.230469 90.160156 47.253906 90.328125 46.777344 C 90.738281 45.792969 90.785156 44.472656 90.449219 44.253906 C 89.96875 43.96875 89.175781 43.992188 88.839844 44.328125 Z M 88.839844 44.328125 "/>
<path style=" stroke:none;fill-rule:nonzero;fill:rgb(0%,0%,0%);fill-opacity:1;" d="M 83.152344 44.519531 C 82.839844 45.023438 82.746094 47.085938 83.007812 48.046875 C 83.226562 48.839844 83.417969 49.078125 83.777344 49.078125 C 84.449219 49.078125 85.433594 48.023438 85.433594 47.304688 C 85.433594 45.648438 83.730469 43.558594 83.152344 44.519531 Z M 84.640625 47.015625 C 84.496094 48.023438 84.183594 48.503906 83.777344 48.265625 C 83.441406 48.046875 83.441406 46.296875 83.777344 45.671875 C 84.039062 45.167969 84.066406 45.167969 84.402344 45.625 C 84.617188 45.910156 84.710938 46.414062 84.640625 47.015625 Z M 84.640625 47.015625 "/>
<path style=" stroke:none;fill-rule:nonzero;fill:rgb(0%,0%,0%);fill-opacity:1;" d="M 86.296875 48.238281 C 85.886719 49.894531 85.792969 51 86.105469 51 C 86.273438 51 87.113281 47.808594 87.113281 47.085938 C 87.113281 46.152344 86.65625 46.777344 86.296875 48.238281 Z M 86.296875 48.238281 "/>
</g>
</svg>
