<?xml version="1.0" encoding="UTF-8"?>
<svg xmlns="http://www.w3.org/2000/svg" xmlns:xlink="http://www.w3.org/1999/xlink" width="457pt" height="428pt" viewBox="0 0 457 428" version="1.1">
<defs>
<clipPath id="clip1">
  <path d="M 0 13 L 414 13 L 414 427.601562 L 0 427.601562 Z M 0 13 "/>
</clipPath>
<clipPath id="clip2">
  <path d="M 195 0.5 L 209 0.5 L 209 20 L 195 20 Z M 195 0.5 "/>
</clipPath>
</defs>
<g id="surface1">
<g clip-path="url(#clip1)" clip-rule="nonzero">
<path style="fill:none;stroke-width:24;stroke-linecap:butt;stroke-linejoin:miter;stroke:rgb(0%,0%,0%);stroke-opacity:1;stroke-miterlimit:4;" d="M 0.078125 2010 L 4000.078125 2010 M 2000.078125 10 L 2000.078125 4010 M 3333.398438 2010 C 3333.398438 2038.203125 3332.5 2066.40625 3330.703125 2094.570312 C 3328.945312 2122.734375 3326.25 2150.820312 3322.695312 2178.789062 C 3319.101562 2206.796875 3314.648438 2234.648438 3309.296875 2262.34375 C 3303.984375 2290.039062 3297.734375 2317.578125 3290.664062 2344.882812 C 3283.59375 2372.1875 3275.625 2399.257812 3266.835938 2426.054688 C 3258.046875 2452.851562 3248.359375 2479.375 3237.890625 2505.546875 C 3227.421875 2531.757812 3216.09375 2557.617188 3203.984375 2583.085938 C 3191.835938 2608.554688 3178.90625 2633.632812 3165.195312 2658.28125 C 3151.484375 2682.929688 3136.992188 2707.148438 3121.757812 2730.859375 C 3106.484375 2754.609375 3090.507812 2777.851562 3073.75 2800.546875 C 3057.03125 2823.28125 3039.609375 2845.46875 3021.445312 2867.070312 C 3003.320312 2888.671875 2984.53125 2909.6875 2965.039062 2930.117188 C 2945.585938 2950.546875 2925.46875 2970.3125 2904.765625 2989.453125 C 2884.023438 3008.59375 2862.695312 3027.070312 2840.820312 3044.882812 C 2818.90625 3062.65625 2796.445312 3079.765625 2773.476562 3096.09375 C 2750.507812 3112.460938 2726.992188 3128.125 2703.046875 3142.96875 C 2679.0625 3157.851562 2654.648438 3171.953125 2629.765625 3185.273438 C 2604.921875 3198.59375 2579.609375 3211.132812 2553.945312 3222.851562 C 2528.28125 3234.570312 2502.265625 3245.46875 2475.9375 3255.546875 C 2449.570312 3265.625 2422.890625 3274.84375 2395.976562 3283.203125 C 2369.023438 3291.601562 2341.835938 3299.101562 2314.414062 3305.742188 C 2286.992188 3312.421875 2259.375 3318.203125 2231.601562 3323.085938 C 2203.828125 3327.96875 2175.898438 3331.992188 2147.851562 3335.117188 C 2119.804688 3338.242188 2091.679688 3340.507812 2063.515625 3341.835938 C 2035.351562 3343.164062 2007.109375 3343.632812 1978.90625 3343.164062 C 1950.703125 3342.734375 1922.539062 3341.367188 1894.414062 3339.140625 C 1866.289062 3336.914062 1838.242188 3333.789062 1810.3125 3329.765625 C 1782.382812 3325.742188 1754.609375 3320.859375 1726.992188 3315.078125 C 1699.375 3309.296875 1671.953125 3302.65625 1644.765625 3295.117188 C 1617.578125 3287.617188 1590.625 3279.21875 1563.984375 3270 C 1537.34375 3260.78125 1510.976562 3250.703125 1484.960938 3239.804688 C 1458.945312 3228.90625 1433.242188 3217.1875 1407.96875 3204.6875 C 1382.695312 3192.148438 1357.851562 3178.828125 1333.398438 3164.726562 C 1308.984375 3150.625 1285 3135.742188 1261.523438 3120.117188 C 1238.007812 3104.492188 1215.039062 3088.125 1192.578125 3071.015625 C 1170.15625 3053.945312 1148.242188 3036.132812 1126.914062 3017.695312 C 1105.625 2999.21875 1084.882812 2980.039062 1064.765625 2960.273438 C 1044.648438 2940.46875 1025.195312 2920.039062 1006.367188 2899.023438 C 987.578125 2878.007812 969.453125 2856.40625 951.992188 2834.21875 C 934.570312 2812.070312 917.8125 2789.335938 901.835938 2766.09375 C 885.859375 2742.851562 870.585938 2719.101562 856.09375 2694.921875 C 841.601562 2670.703125 827.890625 2646.054688 814.960938 2620.976562 C 802.03125 2595.898438 789.921875 2570.429688 778.59375 2544.570312 C 767.265625 2518.75 756.796875 2492.539062 747.148438 2466.054688 C 737.5 2439.53125 728.710938 2412.734375 720.742188 2385.664062 C 712.8125 2358.59375 705.703125 2331.289062 699.492188 2303.75 C 693.28125 2276.25 687.929688 2248.515625 683.476562 2220.664062 C 679.023438 2192.8125 675.46875 2164.84375 672.773438 2136.757812 C 670.078125 2108.671875 668.320312 2080.507812 667.421875 2052.304688 C 666.523438 2024.140625 666.523438 1995.898438 667.421875 1967.695312 C 668.320312 1939.53125 670.078125 1911.367188 672.773438 1883.28125 C 675.46875 1855.195312 679.023438 1827.1875 683.476562 1799.335938 C 687.929688 1771.484375 693.28125 1743.789062 699.492188 1716.25 C 705.703125 1688.75 712.8125 1661.445312 720.742188 1634.375 C 728.710938 1607.304688 737.5 1580.507812 747.148438 1553.984375 C 756.796875 1527.460938 767.265625 1501.289062 778.59375 1475.429688 C 789.882812 1449.609375 802.03125 1424.101562 814.960938 1399.023438 C 827.890625 1373.984375 841.601562 1349.296875 856.09375 1325.117188 C 870.585938 1300.898438 885.859375 1277.148438 901.835938 1253.945312 C 917.8125 1230.703125 934.570312 1207.96875 951.992188 1185.78125 C 969.453125 1163.632812 987.578125 1141.992188 1006.367188 1120.976562 C 1025.195312 1099.960938 1044.6875 1079.53125 1064.765625 1059.765625 C 1084.882812 1039.960938 1105.625 1020.820312 1126.914062 1002.34375 C 1148.242188 983.867188 1170.15625 966.09375 1192.578125 948.984375 C 1215.039062 931.914062 1238.007812 915.546875 1261.523438 899.921875 C 1285 884.296875 1308.984375 869.414062 1333.398438 855.3125 C 1357.851562 841.210938 1382.695312 827.890625 1407.96875 815.351562 C 1433.242188 802.8125 1458.945312 791.09375 1484.960938 780.195312 C 1510.976562 769.296875 1537.34375 759.21875 1563.984375 750 C 1590.625 740.78125 1617.578125 732.421875 1644.765625 724.882812 C 1671.953125 717.382812 1699.375 710.703125 1726.992188 704.921875 C 1754.609375 699.179688 1782.382812 694.257812 1810.3125 690.234375 C 1838.242188 686.25 1866.289062 683.125 1894.414062 680.859375 C 1922.539062 678.632812 1950.703125 677.304688 1978.90625 676.835938 C 2007.109375 676.40625 2035.351562 676.835938 2063.515625 678.203125 C 2091.679688 679.53125 2119.804688 681.757812 2147.851562 684.882812 C 2175.898438 688.007812 2203.828125 692.03125 2231.601562 696.953125 C 2259.375 701.835938 2286.992188 707.617188 2314.414062 714.257812 C 2341.835938 720.898438 2369.023438 728.4375 2395.976562 736.796875 C 2422.890625 745.195312 2449.570312 754.414062 2475.9375 764.492188 C 2502.265625 774.53125 2528.28125 785.46875 2553.945312 797.1875 C 2579.609375 808.867188 2604.882812 821.40625 2629.765625 834.726562 C 2654.648438 848.046875 2679.0625 862.1875 2703.046875 877.03125 C 2726.992188 891.914062 2750.507812 907.539062 2773.476562 923.90625 C 2796.445312 940.273438 2818.90625 957.382812 2840.820312 975.15625 C 2862.695312 992.929688 2884.023438 1011.40625 2904.765625 1030.546875 C 2925.46875 1049.6875 2945.585938 1069.492188 2965.039062 1089.921875 C 2984.53125 1110.3125 3003.320312 1131.367188 3021.445312 1152.96875 C 3039.609375 1174.570312 3057.03125 1196.757812 3073.75 1219.453125 C 3090.507812 1242.1875 3106.484375 1265.429688 3121.757812 1289.140625 C 3136.992188 1312.890625 3151.484375 1337.109375 3165.195312 1361.757812 C 3178.90625 1386.40625 3191.835938 1411.484375 3203.984375 1436.953125 C 3216.09375 1462.421875 3227.421875 1488.28125 3237.890625 1514.453125 C 3248.398438 1540.664062 3258.046875 1567.148438 3266.835938 1593.984375 C 3275.625 1620.78125 3283.59375 1647.851562 3290.664062 1675.15625 C 3297.773438 1702.460938 3303.984375 1729.960938 3309.296875 1757.695312 C 3314.648438 1785.390625 3319.101562 1813.242188 3322.695312 1841.210938 C 3326.25 1869.21875 3328.945312 1897.304688 3330.703125 1925.429688 C 3332.5 1953.59375 3333.398438 1981.796875 3333.398438 2010 " transform="matrix(0.1,0,0,-0.1,0,428)"/>
</g>
<path style="fill-rule:nonzero;fill:rgb(0%,0%,100%);fill-opacity:1;stroke-width:32;stroke-linecap:butt;stroke-linejoin:round;stroke:rgb(3.921509%,7.446289%,91.796875%);stroke-opacity:1;stroke-miterlimit:4;" d="M 1666.40625 3663.59375 L 3781.484375 1589.609375 " transform="matrix(0.1,0,0,-0.1,0,428)"/>
<path style=" stroke:none;fill-rule:nonzero;fill:rgb(0%,0%,0%);fill-opacity:1;" d="M 35.164062 184.925781 L 35.109375 184.867188 L 35.042969 184.796875 L 34.976562 184.722656 L 34.898438 184.640625 L 34.824219 184.546875 L 34.734375 184.445312 L 34.644531 184.339844 L 34.554688 184.230469 L 34.464844 184.109375 L 34.375 183.984375 L 34.28125 183.847656 L 34.191406 183.714844 L 34.101562 183.574219 L 34.015625 183.429688 L 33.933594 183.277344 L 33.851562 183.121094 L 33.710938 182.808594 L 33.648438 182.644531 L 33.597656 182.476562 L 33.546875 182.3125 L 33.515625 182.140625 L 33.488281 181.972656 L 33.472656 181.796875 L 33.46875 181.625 L 33.480469 181.453125 L 33.484375 181.367188 L 33.5 181.28125 L 33.519531 181.191406 L 33.539062 181.109375 L 33.5625 181.019531 L 33.589844 180.9375 L 33.625 180.851562 L 33.660156 180.761719 L 33.699219 180.679688 L 33.742188 180.59375 L 33.792969 180.507812 L 33.847656 180.425781 C 33.929688 180.296875 34.335938 179.691406 35.011719 179.378906 C 34.667969 180.171875 34.964844 181.105469 35.574219 181.507812 C 35.972656 181.773438 36.648438 181.820312 37.101562 181.136719 C 37.472656 180.578125 37.558594 179.464844 36.542969 178.789062 C 35.21875 177.910156 33.878906 179.175781 33.304688 180.035156 C 32.328125 181.507812 33.078125 183.292969 33.460938 183.976562 C 31.367188 183.503906 30.203125 184.703125 29.71875 185.433594 C 27.964844 188.074219 30.269531 191.695312 30.902344 192.121094 C 31.160156 192.289062 31.328125 192.035156 31.363281 191.976562 C 31.496094 191.78125 31.496094 191.660156 31.300781 191.464844 C 29.1875 188.820312 29.664062 186.71875 30.238281 185.855469 C 30.558594 185.375 31.367188 184.640625 32.839844 185.621094 C 33.621094 186.140625 35.042969 187.699219 37.96875 190.996094 C 39.269531 192.449219 39.746094 194.039062 39.003906 195.160156 C 38.902344 195.3125 38.515625 195.894531 37.832031 196.203125 C 38.132812 195.484375 37.972656 194.578125 37.253906 194.101562 C 36.574219 193.648438 36.003906 194.070312 35.75 194.453125 C 35.246094 195.214844 35.476562 196.289062 36.292969 196.832031 C 37.453125 197.601562 38.808594 196.667969 39.546875 195.558594 C 40.660156 193.878906 39.488281 191.792969 39.394531 191.613281 C 40.53125 191.933594 42.125 191.675781 43.132812 190.15625 C 44.875 187.542969 42.570312 183.917969 41.933594 183.496094 C 41.679688 183.328125 41.527344 183.554688 41.472656 183.636719 C 41.324219 183.859375 41.386719 183.984375 41.53125 184.144531 C 43.6875 186.785156 43.152344 188.914062 42.613281 189.730469 C 41.953125 190.722656 40.871094 190.589844 40.007812 190.015625 C 39.445312 189.644531 38.992188 189.121094 38.070312 188.097656 Z M 35.164062 184.925781 "/>
<path style=" stroke:none;fill-rule:nonzero;fill:rgb(0%,0%,0%);fill-opacity:1;" d="M 40.378906 166.824219 L 39.976562 167.425781 C 40.332031 167.734375 41.261719 168.617188 41.285156 168.960938 C 41.296875 169.160156 40.386719 170.53125 40.222656 170.777344 L 38.050781 174.046875 C 37.644531 171.089844 37.5625 170.140625 37.433594 168.523438 C 37.257812 166.511719 36.972656 164.5625 35.285156 163.441406 C 33.140625 162.015625 30.582031 163.015625 29.070312 165.289062 C 27.609375 167.484375 28.160156 170.003906 29.789062 171.085938 C 30.699219 171.691406 31.292969 170.988281 31.414062 170.804688 C 31.695312 170.382812 31.730469 169.664062 31.09375 169.242188 C 30.78125 169.03125 30.074219 168.746094 29.460938 169.667969 C 28.570312 168.28125 28.984375 166.820312 29.539062 165.984375 C 30.71875 164.207031 32.707031 164.199219 34.148438 165.15625 C 35.6875 166.183594 36.179688 168.09375 36.4375 169.085938 L 37.824219 176.164062 C 37.859375 176.453125 37.902344 176.480469 38.394531 176.808594 L 43.253906 169.5 Z M 40.378906 166.824219 "/>
<path style=" stroke:none;fill-rule:nonzero;fill:rgb(0%,0%,0%);fill-opacity:1;" d="M 59.207031 152.722656 L 63.910156 145.648438 C 64.144531 145.296875 64.464844 144.8125 63.953125 144.476562 C 63.445312 144.136719 63.125 144.621094 62.890625 144.972656 L 58.1875 152.046875 L 51.082031 147.324219 C 50.738281 147.09375 50.25 146.769531 49.910156 147.277344 C 49.574219 147.78125 50.0625 148.105469 50.410156 148.335938 L 57.515625 153.058594 L 52.796875 160.160156 C 52.558594 160.515625 52.242188 160.996094 52.75 161.332031 C 53.261719 161.671875 53.578125 161.191406 53.816406 160.835938 L 58.535156 153.734375 L 65.628906 158.453125 C 65.984375 158.6875 66.46875 159.011719 66.804688 158.507812 C 67.140625 157.996094 66.660156 157.675781 66.300781 157.4375 Z M 59.207031 152.722656 "/>
<path style=" stroke:none;fill-rule:nonzero;fill:rgb(0%,0%,0%);fill-opacity:1;" d="M 73.519531 122.875 L 73.503906 122.855469 L 73.488281 122.84375 L 73.464844 122.8125 L 73.445312 122.785156 L 73.417969 122.761719 L 73.378906 122.722656 L 73.359375 122.695312 L 73.34375 122.675781 L 73.324219 122.65625 L 73.304688 122.644531 L 73.273438 122.605469 L 73.261719 122.589844 L 73.246094 122.582031 L 73.234375 122.566406 L 73.21875 122.554688 L 73.207031 122.539062 L 73.191406 122.53125 L 73.167969 122.507812 L 73.136719 122.488281 L 73.113281 122.46875 L 73.085938 122.453125 L 73.0625 122.4375 L 73.046875 122.425781 L 73.03125 122.417969 L 73.019531 122.402344 L 73.003906 122.390625 C 72.539062 122.082031 72.082031 122.285156 71.828125 122.667969 C 71.660156 122.921875 71.542969 123.429688 71.773438 123.914062 C 71.863281 124.046875 72.507812 124.769531 72.90625 125.175781 C 73.441406 125.792969 74.015625 126.421875 74.59375 127.03125 L 78.398438 131.210938 C 78.71875 131.558594 79.765625 133.824219 78.652344 135.5 C 77.792969 136.792969 76.492188 136.339844 75.550781 135.714844 C 74.386719 134.941406 73.097656 133.453125 71.445312 131.117188 C 70.671875 130.015625 70.460938 129.726562 69.953125 129.390625 C 68.816406 128.632812 67.339844 128.828125 66.492188 130.097656 C 64.894531 132.507812 67.941406 135.882812 68.175781 136.039062 C 68.429688 136.207031 68.597656 135.953125 68.632812 135.902344 C 68.800781 135.648438 68.761719 135.585938 68.441406 135.1875 C 66.511719 132.914062 66.425781 131.40625 67 130.539062 C 67.132812 130.339844 67.425781 129.902344 68.234375 130.441406 C 68.871094 130.863281 69.351562 131.550781 69.71875 132.058594 C 71.738281 134.851562 72.875 136.277344 74.070312 137.070312 C 76.320312 138.566406 78.144531 137.476562 79.140625 135.980469 C 79.804688 134.980469 79.9375 133.839844 79.703125 132.660156 C 80.796875 133.859375 81.847656 134.988281 82.519531 136.902344 C 82.933594 138.132812 83.039062 139.589844 82.257812 140.761719 C 82.03125 141.105469 81.1875 142.199219 79.910156 141.972656 C 80.183594 141.566406 80.40625 141.230469 80.324219 140.679688 C 80.277344 140.277344 80.109375 139.800781 79.628906 139.484375 C 78.839844 138.957031 78.285156 139.574219 78.117188 139.828125 C 77.730469 140.40625 77.578125 141.523438 78.820312 142.347656 C 80.089844 143.195312 81.777344 142.691406 82.8125 141.128906 C 84.554688 138.507812 83.972656 134.363281 81.589844 131.742188 Z M 73.519531 122.875 "/>
<path style=" stroke:none;fill-rule:nonzero;fill:rgb(0%,0%,0%);fill-opacity:1;" d="M 77.4375 111.058594 L 77.039062 111.660156 C 77.390625 111.96875 78.324219 112.851562 78.34375 113.195312 C 78.355469 113.398438 77.449219 114.765625 77.28125 115.011719 L 75.113281 118.28125 C 74.707031 115.324219 74.621094 114.382812 74.496094 112.757812 C 74.320312 110.746094 74.035156 108.796875 72.347656 107.675781 C 70.199219 106.25 67.640625 107.25 66.128906 109.523438 C 64.671875 111.71875 65.21875 114.238281 66.847656 115.320312 C 67.761719 115.925781 68.355469 115.222656 68.476562 115.039062 C 68.757812 114.613281 68.792969 113.898438 68.15625 113.476562 C 67.839844 113.265625 67.136719 112.980469 66.523438 113.902344 C 65.632812 112.515625 66.046875 111.050781 66.601562 110.21875 C 67.78125 108.441406 69.769531 108.433594 71.207031 109.390625 C 72.75 110.414062 73.242188 112.328125 73.5 113.320312 L 74.886719 120.398438 C 74.921875 120.6875 74.960938 120.714844 75.457031 121.042969 L 80.3125 113.730469 Z M 77.4375 111.058594 "/>
<path style=" stroke:none;fill-rule:nonzero;fill:rgb(0%,0%,0%);fill-opacity:1;" d="M 99.382812 86.917969 L 99.425781 86.851562 L 99.476562 86.777344 L 99.523438 86.703125 L 99.546875 86.660156 L 99.570312 86.625 L 99.589844 86.585938 L 99.605469 86.546875 L 99.664062 86.429688 L 99.675781 86.386719 L 99.6875 86.351562 L 99.695312 86.3125 L 99.707031 86.277344 L 99.710938 86.234375 L 99.714844 86.195312 L 99.710938 86.15625 L 99.714844 86.121094 L 99.707031 86.078125 L 99.699219 86.042969 L 99.679688 85.984375 L 99.671875 85.964844 L 99.664062 85.953125 L 99.65625 85.933594 L 99.644531 85.917969 L 99.628906 85.894531 L 99.617188 85.878906 L 99.601562 85.859375 L 99.589844 85.84375 L 99.570312 85.828125 L 99.554688 85.808594 L 99.496094 85.761719 L 99.476562 85.75 L 99.449219 85.730469 C 98.941406 85.394531 98.621094 85.878906 98.386719 86.226562 L 88.292969 101.417969 C 88.054688 101.773438 87.738281 102.25 88.246094 102.589844 C 88.746094 102.921875 89.0625 102.441406 89.316406 102.066406 Z M 99.382812 86.917969 "/>
<path style=" stroke:none;fill-rule:nonzero;fill:rgb(0%,0%,0%);fill-opacity:1;" d="M 104.320312 90.171875 L 104.347656 90.136719 L 104.367188 90.105469 L 104.410156 90.03125 L 104.480469 89.925781 L 104.5 89.886719 L 104.515625 89.847656 L 104.539062 89.8125 L 104.558594 89.773438 L 104.570312 89.734375 L 104.585938 89.695312 L 104.597656 89.660156 L 104.609375 89.617188 L 104.621094 89.578125 L 104.632812 89.542969 L 104.636719 89.5 L 104.636719 89.464844 L 104.632812 89.425781 L 104.632812 89.386719 L 104.628906 89.347656 L 104.617188 89.3125 L 104.613281 89.292969 L 104.605469 89.273438 L 104.601562 89.257812 L 104.59375 89.238281 L 104.582031 89.222656 L 104.570312 89.199219 L 104.558594 89.1875 L 104.550781 89.164062 L 104.535156 89.148438 L 104.523438 89.132812 L 104.503906 89.113281 L 104.472656 89.074219 L 104.449219 89.0625 L 104.433594 89.042969 L 104.414062 89.03125 L 104.386719 89.011719 L 104.367188 89 C 103.859375 88.660156 103.539062 89.144531 103.289062 89.515625 L 93.222656 104.664062 C 92.972656 105.039062 92.65625 105.519531 93.164062 105.859375 C 93.671875 106.195312 93.992188 105.71875 94.226562 105.359375 Z M 104.320312 90.171875 "/>
<path style=" stroke:none;fill-rule:nonzero;fill:rgb(0%,0%,0%);fill-opacity:1;" d="M 114.644531 72.875 L 116.847656 74.339844 C 117.765625 74.949219 118.007812 75.175781 116.761719 77.054688 L 116.40625 77.589844 L 117.195312 78.113281 C 117.804688 77.015625 118.683594 75.699219 119.390625 74.628906 C 120.097656 73.566406 120.992188 72.222656 121.761719 71.242188 L 120.972656 70.71875 L 120.621094 71.246094 C 119.371094 73.125 119.0625 72.992188 118.148438 72.386719 L 115.941406 70.921875 L 117.628906 68.378906 L 116.847656 67.859375 L 115.160156 70.398438 L 103.613281 62.726562 C 103.105469 62.390625 102.957031 62.292969 102.691406 62.691406 C 102.535156 62.925781 102.488281 63 102.664062 63.410156 L 109.378906 79.097656 L 109.855469 78.378906 L 104.507812 65.910156 L 113.964844 72.195312 L 109.855469 78.378906 L 109.378906 79.097656 L 110.160156 79.621094 Z M 114.644531 72.875 "/>
<path style=" stroke:none;fill-rule:nonzero;fill:rgb(0%,0%,0%);fill-opacity:1;" d="M 341.664062 288.722656 L 341.683594 288.644531 L 341.714844 288.554688 L 341.746094 288.457031 L 341.773438 288.347656 L 341.820312 288.234375 L 341.863281 288.109375 L 341.90625 287.976562 L 341.957031 287.84375 L 342.011719 287.703125 L 342.078125 287.5625 L 342.144531 287.410156 L 342.214844 287.265625 L 342.292969 287.117188 L 342.375 286.96875 L 342.460938 286.820312 L 342.554688 286.671875 L 342.65625 286.53125 L 342.753906 286.386719 L 342.867188 286.253906 L 343.101562 285.996094 L 343.230469 285.878906 L 343.367188 285.769531 L 343.507812 285.667969 L 343.652344 285.578125 L 343.8125 285.5 L 343.886719 285.460938 L 343.96875 285.429688 L 344.054688 285.402344 L 344.136719 285.375 L 344.226562 285.351562 L 344.3125 285.332031 L 344.40625 285.316406 L 344.5 285.304688 L 344.589844 285.296875 L 344.6875 285.289062 L 344.789062 285.289062 L 344.886719 285.292969 C 345.039062 285.300781 345.769531 285.34375 346.382812 285.769531 C 345.523438 285.875 344.867188 286.609375 344.828125 287.335938 C 344.800781 287.820312 345.105469 288.425781 345.929688 288.472656 C 346.601562 288.507812 347.605469 288.019531 347.671875 286.792969 C 347.761719 285.199219 345.980469 284.683594 344.945312 284.628906 C 343.175781 284.53125 342.015625 286.089844 341.617188 286.765625 C 340.960938 284.714844 339.328125 284.320312 338.453125 284.273438 C 335.273438 284.097656 333.3125 287.933594 333.269531 288.699219 C 333.253906 289.007812 333.5625 289.023438 333.628906 289.027344 C 333.867188 289.039062 333.96875 288.976562 334.039062 288.710938 C 335.25 285.535156 337.316406 284.878906 338.351562 284.9375 C 338.933594 284.96875 339.976562 285.296875 339.878906 287.066406 C 339.828125 288.007812 339.199219 290.03125 337.839844 294.242188 C 337.246094 296.105469 336.109375 297.328125 334.761719 297.253906 C 334.578125 297.246094 333.878906 297.207031 333.265625 296.773438 C 334.039062 296.667969 334.742188 296.066406 334.789062 295.203125 C 334.832031 294.382812 334.179688 294.105469 333.71875 294.082031 C 332.800781 294.03125 331.992188 294.78125 331.9375 295.761719 C 331.859375 297.15625 333.359375 297.851562 334.695312 297.925781 C 336.714844 298.039062 337.921875 295.960938 338.03125 295.785156 C 338.332031 296.933594 339.367188 298.183594 341.195312 298.28125 C 344.34375 298.457031 346.304688 294.617188 346.34375 293.851562 C 346.363281 293.546875 346.085938 293.53125 345.988281 293.527344 C 345.71875 293.511719 345.644531 293.628906 345.578125 293.835938 C 344.394531 297.046875 342.277344 297.667969 341.296875 297.613281 C 340.101562 297.546875 339.667969 296.546875 339.722656 295.503906 C 339.761719 294.832031 339.980469 294.171875 340.398438 292.851562 Z M 341.664062 288.722656 "/>
<path style=" stroke:none;fill-rule:nonzero;fill:rgb(0%,0%,0%);fill-opacity:1;" d="M 368.082031 292.382812 L 376.605469 292.851562 C 377.027344 292.875 377.609375 292.90625 377.644531 292.292969 C 377.675781 291.683594 377.09375 291.648438 376.671875 291.625 L 368.152344 291.160156 L 368.621094 282.609375 C 368.644531 282.191406 368.675781 281.605469 368.0625 281.570312 C 367.460938 281.535156 367.429688 282.125 367.40625 282.542969 L 366.9375 291.09375 L 358.386719 290.625 C 357.957031 290.601562 357.382812 290.570312 357.347656 291.179688 C 357.316406 291.792969 357.890625 291.824219 358.320312 291.847656 L 366.871094 292.316406 L 366.402344 300.855469 C 366.378906 301.285156 366.347656 301.867188 366.949219 301.902344 C 367.558594 301.933594 367.59375 301.351562 367.617188 300.921875 Z M 368.082031 292.382812 "/>
<path style=" stroke:none;fill-rule:nonzero;fill:rgb(0%,0%,0%);fill-opacity:1;" d="M 401.195312 289.574219 L 401.203125 289.550781 L 401.210938 289.53125 L 401.222656 289.496094 L 401.230469 289.464844 L 401.238281 289.429688 L 401.253906 289.398438 L 401.261719 289.375 L 401.269531 289.34375 L 401.285156 289.296875 L 401.289062 289.273438 L 401.296875 289.246094 L 401.300781 289.222656 L 401.308594 289.207031 L 401.316406 289.167969 L 401.320312 289.152344 L 401.324219 289.132812 L 401.324219 289.113281 L 401.332031 289.082031 L 401.332031 289.046875 L 401.339844 289.015625 L 401.34375 288.984375 L 401.34375 288.957031 L 401.347656 288.9375 L 401.347656 288.882812 C 401.378906 288.324219 400.972656 288.03125 400.511719 288.007812 C 400.207031 287.988281 399.710938 288.148438 399.40625 288.589844 C 399.339844 288.742188 399.039062 289.664062 398.898438 290.214844 C 398.632812 290.992188 398.375 291.808594 398.152344 292.621094 L 396.472656 298.039062 C 396.332031 298.492188 394.902344 300.550781 392.882812 300.441406 C 391.332031 300.355469 391.0625 299.003906 391.125 297.867188 C 391.199219 296.464844 391.832031 294.597656 393.007812 291.976562 C 393.566406 290.746094 393.707031 290.417969 393.742188 289.804688 C 393.816406 288.4375 392.902344 287.257812 391.371094 287.171875 C 388.476562 287.015625 387.101562 291.371094 387.085938 291.652344 C 387.066406 291.957031 387.375 291.972656 387.441406 291.976562 C 387.746094 291.996094 387.78125 291.929688 387.960938 291.445312 C 388.941406 288.621094 390.210938 287.78125 391.25 287.835938 C 391.488281 287.851562 392.015625 287.878906 391.960938 288.851562 C 391.921875 289.617188 391.570312 290.386719 391.320312 290.960938 C 389.929688 294.128906 389.277344 295.839844 389.195312 297.277344 C 389.046875 299.984375 390.921875 301.007812 392.722656 301.109375 C 393.917969 301.175781 394.980469 300.710938 395.878906 299.90625 C 395.398438 301.464844 394.949219 302.945312 393.636719 304.5 C 392.789062 305.488281 391.582031 306.316406 390.171875 306.242188 C 389.75 306.21875 388.378906 306.042969 387.929688 304.828125 C 388.417969 304.855469 388.816406 304.875 389.261719 304.523438 C 389.582031 304.277344 389.910156 303.890625 389.941406 303.316406 C 389.992188 302.367188 389.179688 302.199219 388.871094 302.179688 C 388.167969 302.144531 387.128906 302.578125 387.046875 304.070312 C 386.964844 305.605469 388.25 306.804688 390.136719 306.90625 C 393.285156 307.082031 396.582031 304.464844 397.628906 301.070312 Z M 401.195312 289.574219 "/>
<path style=" stroke:none;fill-rule:nonzero;fill:rgb(0%,0%,0%);fill-opacity:1;" d="M 431.792969 292.898438 L 431.964844 292.90625 L 432.058594 292.914062 L 432.101562 292.910156 L 432.144531 292.910156 L 432.316406 292.894531 L 432.359375 292.894531 L 432.402344 292.882812 L 432.441406 292.871094 L 432.484375 292.863281 L 432.519531 292.851562 L 432.550781 292.835938 L 432.589844 292.820312 L 432.621094 292.796875 L 432.652344 292.78125 L 432.6875 292.75 L 432.738281 292.699219 L 432.75 292.679688 L 432.777344 292.652344 L 432.785156 292.632812 L 432.796875 292.617188 L 432.804688 292.589844 L 432.8125 292.574219 L 432.820312 292.550781 L 432.828125 292.53125 L 432.84375 292.484375 L 432.84375 292.457031 L 432.851562 292.433594 L 432.851562 292.410156 L 432.855469 292.386719 L 432.855469 292.355469 C 432.890625 291.742188 432.308594 291.710938 431.882812 291.6875 L 413.605469 290.683594 C 413.175781 290.660156 412.601562 290.628906 412.566406 291.242188 C 412.535156 291.84375 413.109375 291.875 413.570312 291.898438 Z M 431.792969 292.898438 "/>
<path style=" stroke:none;fill-rule:nonzero;fill:rgb(0%,0%,0%);fill-opacity:1;" d="M 431.492188 298.828125 L 431.535156 298.832031 L 431.660156 298.832031 L 431.746094 298.835938 L 431.789062 298.839844 L 431.875 298.832031 L 431.917969 298.835938 L 431.960938 298.832031 L 431.996094 298.820312 L 432.039062 298.816406 L 432.082031 298.804688 L 432.121094 298.796875 L 432.160156 298.785156 L 432.195312 298.777344 L 432.265625 298.742188 L 432.304688 298.71875 L 432.335938 298.699219 L 432.363281 298.675781 L 432.386719 298.644531 L 432.40625 298.632812 L 432.414062 298.617188 L 432.425781 298.605469 L 432.441406 298.585938 L 432.453125 298.570312 L 432.460938 298.550781 L 432.472656 298.53125 L 432.480469 298.515625 L 432.488281 298.492188 L 432.496094 298.472656 L 432.511719 298.425781 L 432.519531 298.398438 L 432.519531 298.375 L 432.527344 298.351562 L 432.527344 298.328125 L 432.53125 298.296875 L 432.53125 298.273438 C 432.566406 297.660156 431.984375 297.628906 431.535156 297.601562 L 413.3125 296.605469 C 412.851562 296.578125 412.277344 296.546875 412.242188 297.160156 C 412.210938 297.773438 412.785156 297.804688 413.214844 297.828125 Z M 431.492188 298.828125 "/>
<path style=" stroke:none;fill-rule:nonzero;fill:rgb(0%,0%,0%);fill-opacity:1;" d="M 446.472656 301.359375 L 449.882812 298.394531 C 454.871094 294.445312 456.800781 292.898438 456.96875 289.847656 C 457.15625 286.363281 454.542969 283.769531 450.816406 283.5625 C 447.363281 283.375 444.949219 286.070312 444.796875 288.78125 C 444.707031 290.492188 446.238281 290.574219 446.328125 290.582031 C 446.847656 290.609375 447.933594 290.300781 448.003906 289.050781 C 448.046875 288.253906 447.546875 287.429688 446.472656 287.367188 C 446.234375 287.355469 446.167969 287.351562 446.078125 287.378906 C 446.886719 285.433594 448.597656 284.394531 450.367188 284.492188 C 453.140625 284.644531 454.328125 287.199219 454.191406 289.695312 C 454.058594 292.136719 452.394531 294.464844 450.613281 296.265625 L 444.398438 302.472656 C 444.03125 302.785156 444.027344 302.847656 443.988281 303.582031 L 455.3125 304.203125 L 456.46875 298.9375 L 455.703125 298.898438 C 455.5 299.808594 455.210938 301.136719 454.878906 301.582031 C 454.644531 301.808594 452.636719 301.695312 451.96875 301.660156 Z M 446.472656 301.359375 "/>
<path style=" stroke:none;fill-rule:nonzero;fill:rgb(0%,0%,0%);fill-opacity:1;" d="M 193.234375 240.007812 L 193.226562 239.582031 L 193.199219 239.164062 L 193.160156 238.753906 L 193.09375 238.351562 L 193.019531 237.960938 L 192.929688 237.582031 L 192.820312 237.214844 L 192.691406 236.859375 L 192.554688 236.511719 L 192.398438 236.171875 L 192.234375 235.851562 L 192.050781 235.542969 L 191.855469 235.242188 L 191.640625 234.953125 L 191.421875 234.683594 L 191.179688 234.425781 L 190.933594 234.179688 L 190.675781 233.941406 L 190.398438 233.722656 L 190.117188 233.523438 L 189.820312 233.332031 L 189.515625 233.160156 L 189.199219 233 L 188.871094 232.855469 L 188.53125 232.730469 L 188.1875 232.613281 L 187.828125 232.523438 L 187.46875 232.441406 L 187.09375 232.386719 L 186.707031 232.339844 L 186.324219 232.308594 L 185.925781 232.304688 L 185.753906 233.023438 C 188.105469 233.023438 190.6875 234.621094 190.6875 238.886719 C 190.6875 240.949219 189.910156 245.417969 187.078125 248.945312 C 185.703125 250.6875 183.34375 252.378906 180.949219 252.378906 C 178.109375 252.378906 176.109375 250.0625 176.109375 246.28125 C 176.109375 245.019531 176.503906 240.835938 178.710938 237.484375 C 180.691406 234.511719 183.488281 233.023438 185.753906 233.023438 L 185.925781 232.304688 C 179.746094 232.304688 173.441406 238.804688 173.441406 245.480469 C 173.441406 250.230469 176.648438 253.121094 180.777344 253.121094 C 186.839844 253.121094 193.234375 246.855469 193.234375 240.007812 Z M 193.234375 240.007812 "/>
<path style=" stroke:none;fill-rule:nonzero;fill:rgb(0%,0%,0%);fill-opacity:1;" d="M 211.597656 80.476562 L 211.488281 80.648438 L 211.386719 80.816406 L 211.277344 80.976562 L 211.167969 81.128906 L 211.0625 81.269531 L 210.957031 81.402344 L 210.847656 81.53125 L 210.742188 81.648438 L 210.632812 81.765625 L 210.523438 81.867188 L 210.421875 81.964844 L 210.3125 82.058594 L 210.203125 82.144531 L 210.097656 82.226562 L 209.988281 82.300781 L 209.769531 82.433594 L 209.550781 82.542969 L 209.441406 82.59375 L 209.335938 82.632812 L 209.21875 82.671875 L 209.109375 82.714844 L 208.996094 82.742188 L 208.886719 82.769531 L 208.769531 82.792969 L 208.65625 82.816406 L 208.546875 82.835938 L 208.3125 82.863281 L 208.082031 82.878906 C 207.730469 82.910156 207.476562 82.910156 207.476562 83.457031 C 207.476562 83.628906 207.621094 83.769531 207.84375 83.769531 C 208.617188 83.769531 209.507812 83.679688 210.304688 83.679688 C 211.25 83.679688 212.253906 83.769531 213.175781 83.769531 C 213.339844 83.769531 213.71875 83.769531 213.71875 83.226562 C 213.71875 82.910156 213.460938 82.878906 213.261719 82.878906 C 212.597656 82.828125 211.914062 82.59375 211.914062 81.886719 C 211.914062 81.535156 212.085938 81.21875 212.3125 80.828125 L 214.492188 77.15625 L 221.675781 77.15625 L 221.597656 76.269531 L 215.03125 76.269531 L 220.683594 66.8125 L 221.597656 76.269531 L 221.675781 77.15625 C 221.738281 77.753906 222.136719 81.648438 222.136719 81.9375 C 222.136719 82.800781 220.648438 82.878906 220.078125 82.878906 C 219.675781 82.878906 219.386719 82.878906 219.386719 83.457031 C 219.386719 83.769531 219.726562 83.769531 219.789062 83.769531 C 220.957031 83.769531 222.199219 83.679688 223.367188 83.679688 C 224.085938 83.679688 225.890625 83.769531 226.609375 83.769531 C 226.78125 83.769531 227.121094 83.769531 227.121094 83.195312 C 227.121094 82.878906 226.832031 82.878906 226.464844 82.878906 C 224.6875 82.878906 224.6875 82.683594 224.597656 81.851562 L 222.855469 63.957031 C 222.792969 63.382812 222.792969 63.265625 222.308594 63.265625 C 221.847656 63.265625 221.738281 63.460938 221.5625 63.75 Z M 211.597656 80.476562 "/>
<path style=" stroke:none;fill-rule:nonzero;fill:rgb(0%,0%,0%);fill-opacity:1;" d="M 343.621094 212.382812 L 343.589844 212.484375 L 343.570312 212.582031 L 343.539062 212.675781 L 343.492188 212.847656 L 343.4375 212.996094 L 343.40625 213.066406 L 343.378906 213.128906 L 343.34375 213.191406 L 343.304688 213.25 L 343.265625 213.300781 L 343.222656 213.351562 L 343.121094 213.4375 L 343.058594 213.472656 L 342.992188 213.511719 L 342.917969 213.542969 L 342.84375 213.570312 L 342.757812 213.601562 L 342.667969 213.621094 L 342.613281 213.632812 L 342.5625 213.640625 L 342.511719 213.652344 L 342.453125 213.664062 L 342.394531 213.667969 L 342.339844 213.675781 L 342.273438 213.679688 L 342.207031 213.691406 L 342.144531 213.699219 L 342.066406 213.703125 L 342 213.703125 L 341.925781 213.707031 L 341.84375 213.714844 L 341.761719 213.714844 L 341.683594 213.71875 L 341.597656 213.71875 L 341.503906 213.726562 L 341.015625 213.726562 C 340.527344 213.726562 340.242188 213.726562 340.242188 214.300781 C 340.242188 214.617188 340.503906 214.617188 341.015625 214.617188 L 351.238281 214.617188 C 355.761719 214.617188 359.140625 211.242188 359.140625 208.433594 C 359.140625 206.375 357.480469 204.710938 354.703125 204.394531 C 357.6875 203.851562 360.695312 201.730469 360.695312 199.003906 C 360.695312 196.886719 358.796875 195.054688 355.359375 195.054688 L 354.960938 195.945312 C 357.480469 195.945312 358.078125 197.628906 358.078125 198.890625 C 358.078125 201.414062 355.617188 204.136719 352.128906 204.136719 L 347.949219 204.136719 L 347.777344 204.765625 L 353.1875 204.765625 C 355.933594 204.765625 356.480469 206.886719 356.480469 208.117188 C 356.480469 210.957031 353.933594 213.726562 350.554688 213.726562 L 346.65625 213.726562 C 346.257812 213.726562 346.195312 213.726562 346.027344 213.703125 C 345.742188 213.675781 345.660156 213.644531 345.660156 213.414062 C 345.660156 213.335938 345.660156 213.273438 345.804688 212.761719 L 347.777344 204.765625 L 347.949219 204.136719 L 349.71875 197.03125 C 349.976562 196.03125 350.03125 195.945312 351.273438 195.945312 L 354.960938 195.945312 L 355.359375 195.054688 L 345.742188 195.054688 C 345.203125 195.054688 344.914062 195.054688 344.914062 195.628906 C 344.914062 195.945312 345.167969 195.945312 345.714844 195.945312 C 345.765625 195.945312 346.316406 195.945312 346.800781 195.996094 C 347.3125 196.0625 347.570312 196.089844 347.570312 196.457031 C 347.570312 196.574219 347.546875 196.664062 347.453125 197.003906 Z M 343.621094 212.382812 "/>
<path style=" stroke:none;fill-rule:nonzero;fill:rgb(0%,0%,0%);fill-opacity:1;" d="M 422.636719 224.902344 L 422.652344 224.828125 L 422.675781 224.742188 L 422.699219 224.652344 L 422.722656 224.546875 L 422.757812 224.4375 L 422.789062 224.316406 L 422.824219 224.191406 L 422.867188 224.066406 L 422.910156 223.933594 L 423.019531 223.652344 L 423.078125 223.511719 L 423.140625 223.367188 L 423.210938 223.226562 L 423.285156 223.082031 L 423.367188 222.9375 L 423.453125 222.800781 L 423.539062 222.660156 L 423.636719 222.53125 L 423.738281 222.402344 L 423.84375 222.277344 L 423.957031 222.160156 L 424.078125 222.050781 L 424.203125 221.949219 L 424.335938 221.855469 L 424.480469 221.777344 L 424.550781 221.734375 L 424.625 221.703125 L 424.707031 221.671875 L 424.78125 221.644531 L 424.859375 221.617188 L 424.941406 221.59375 L 425.027344 221.574219 L 425.113281 221.558594 L 425.199219 221.546875 L 425.292969 221.535156 L 425.382812 221.53125 L 425.476562 221.53125 C 425.621094 221.53125 426.304688 221.53125 426.902344 221.898438 C 426.101562 222.039062 425.527344 222.757812 425.527344 223.445312 C 425.527344 223.898438 425.84375 224.449219 426.613281 224.449219 C 427.246094 224.449219 428.160156 223.9375 428.160156 222.789062 C 428.160156 221.292969 426.46875 220.902344 425.5 220.902344 C 423.835938 220.902344 422.832031 222.421875 422.492188 223.074219 C 421.773438 221.191406 420.226562 220.902344 419.40625 220.902344 C 416.421875 220.902344 414.78125 224.59375 414.78125 225.3125 C 414.78125 225.597656 415.070312 225.597656 415.132812 225.597656 C 415.359375 225.597656 415.449219 225.535156 415.5 225.28125 C 416.472656 222.246094 418.371094 221.53125 419.339844 221.53125 C 419.886719 221.53125 420.882812 221.78125 420.882812 223.445312 C 420.882812 224.328125 420.398438 226.253906 419.339844 230.261719 C 418.882812 232.039062 417.882812 233.238281 416.617188 233.238281 C 416.445312 233.238281 415.789062 233.238281 415.191406 232.867188 C 415.910156 232.726562 416.535156 232.128906 416.535156 231.320312 C 416.535156 230.550781 415.910156 230.324219 415.480469 230.324219 C 414.617188 230.324219 413.898438 231.066406 413.898438 231.984375 C 413.898438 233.296875 415.335938 233.871094 416.589844 233.871094 C 418.484375 233.871094 419.507812 231.867188 419.601562 231.699219 C 419.941406 232.757812 420.972656 233.871094 422.6875 233.871094 C 425.640625 233.871094 427.28125 230.179688 427.28125 229.460938 C 427.28125 229.175781 427.023438 229.175781 426.929688 229.175781 C 426.675781 229.175781 426.613281 229.289062 426.5625 229.484375 C 425.621094 232.550781 423.671875 233.238281 422.75 233.238281 C 421.628906 233.238281 421.167969 232.324219 421.167969 231.347656 C 421.167969 230.714844 421.34375 230.089844 421.664062 228.828125 Z M 422.636719 224.902344 "/>
<g clip-path="url(#clip2)" clip-rule="nonzero">
<path style=" stroke:none;fill-rule:nonzero;fill:rgb(0%,0%,0%);fill-opacity:1;" d="M 208.34375 2.273438 L 208.347656 2.25 L 208.355469 2.230469 L 208.359375 2.199219 L 208.371094 2.167969 L 208.378906 2.132812 L 208.382812 2.105469 L 208.394531 2.082031 L 208.398438 2.054688 L 208.40625 2.03125 L 208.410156 2.007812 L 208.410156 1.984375 L 208.417969 1.960938 L 208.421875 1.9375 L 208.429688 1.921875 L 208.429688 1.90625 L 208.433594 1.886719 L 208.433594 1.871094 L 208.441406 1.851562 L 208.441406 1.835938 L 208.445312 1.808594 L 208.445312 1.714844 L 208.453125 1.6875 L 208.453125 1.617188 C 208.453125 1.09375 208.054688 0.839844 207.625 0.839844 C 207.335938 0.839844 206.875 1.015625 206.617188 1.445312 C 206.5625 1.589844 206.332031 2.46875 206.222656 2.992188 C 206.015625 3.734375 205.820312 4.507812 205.648438 5.277344 L 204.351562 10.4375 C 204.242188 10.867188 203.015625 12.867188 201.121094 12.867188 C 199.664062 12.867188 199.339844 11.613281 199.339844 10.550781 C 199.339844 9.234375 199.835938 7.453125 200.804688 4.941406 C 201.265625 3.761719 201.382812 3.445312 201.382812 2.871094 C 201.382812 1.589844 200.46875 0.53125 199.03125 0.53125 C 196.304688 0.53125 195.246094 4.675781 195.246094 4.941406 C 195.246094 5.226562 195.535156 5.226562 195.597656 5.226562 C 195.886719 5.226562 195.910156 5.164062 196.050781 4.703125 C 196.828125 2.007812 197.964844 1.15625 198.945312 1.15625 C 199.171875 1.15625 199.664062 1.15625 199.664062 2.070312 C 199.664062 2.789062 199.375 3.527344 199.171875 4.078125 C 198.03125 7.113281 197.507812 8.746094 197.507812 10.097656 C 197.507812 12.636719 199.316406 13.5 201 13.5 C 202.128906 13.5 203.09375 13.011719 203.894531 12.210938 C 203.527344 13.695312 203.1875 15.101562 202.035156 16.625 C 201.289062 17.59375 200.203125 18.433594 198.886719 18.433594 C 198.488281 18.433594 197.195312 18.339844 196.707031 17.226562 C 197.167969 17.226562 197.546875 17.226562 197.9375 16.875 C 198.226562 16.625 198.511719 16.246094 198.511719 15.707031 C 198.511719 14.816406 197.742188 14.699219 197.453125 14.699219 C 196.800781 14.699219 195.84375 15.160156 195.84375 16.5625 C 195.84375 18 197.117188 19.058594 198.886719 19.058594 C 201.839844 19.058594 204.785156 16.441406 205.59375 13.210938 Z M 208.34375 2.273438 "/>
</g>
<path style=" stroke:none;fill-rule:nonzero;fill:rgb(89.0625%,85.9375%,85.9375%);fill-opacity:1;" d="M 267.957031 157.15625 L 205.980469 96.121094 L 217.167969 97.242188 C 244.550781 99.988281 270.546875 113.246094 293.203125 136.023438 C 306.0625 148.945312 309.3125 153.488281 316.753906 168.902344 C 324.738281 185.453125 331.898438 209.8125 330.515625 215.722656 C 330.171875 217.195312 304.878906 193.515625 267.957031 157.15625 Z M 267.957031 157.15625 "/>
<path style=" stroke:none;fill-rule:nonzero;fill:rgb(0%,0%,0%);fill-opacity:1;" d="M 263.035156 54.0625 C 265.785156 55.871094 268.765625 56.03125 270.660156 54.40625 C 272.953125 52.4375 272.804688 48.144531 269.960938 44.832031 L 265.152344 39.226562 L 249.027344 53.0625 L 250.746094 55.066406 L 258.097656 48.757812 L 261.253906 52.433594 L 257.648438 63.109375 L 259.429688 65.183594 Z M 259.515625 47.539062 L 265.558594 42.351562 L 268.433594 45.699219 C 270.746094 48.394531 270.671875 51.109375 269.035156 52.515625 C 267.398438 53.921875 264.734375 53.617188 262.390625 50.886719 Z M 259.515625 47.539062 "/>
<path style=" stroke:none;fill-rule:nonzero;fill:rgb(0%,0%,0%);fill-opacity:1;" d="M 273.328125 71.066406 C 274.089844 70.410156 275.808594 68.871094 276.476562 66.78125 C 277.054688 64.582031 276.121094 62.980469 275.402344 62.140625 C 273.183594 59.558594 268.898438 59.570312 265.914062 62.132812 C 262.855469 64.757812 262.355469 69.105469 264.730469 71.871094 C 265.976562 73.328125 267.679688 74.207031 269.117188 74.554688 L 270.519531 73.09375 C 268.03125 72.703125 266.617188 71.199219 266.179688 70.691406 C 264.585938 68.832031 264.941406 65.9375 267.171875 63.894531 Z M 268.542969 62.910156 C 270.601562 61.777344 272.828125 62.011719 273.984375 63.359375 C 275.011719 64.5625 275.34375 66.492188 273.476562 68.660156 Z M 268.542969 62.910156 "/>
<path style=" stroke:none;fill-rule:nonzero;fill:rgb(0%,0%,0%);fill-opacity:1;" d="M 288.042969 77.164062 L 286.542969 75.417969 L 284.980469 76.761719 C 285.082031 76.292969 285.355469 74.035156 283.828125 72.25 C 281.828125 69.921875 277.816406 69.886719 274.6875 72.574219 C 271.738281 75.105469 270.769531 78.910156 272.675781 81.128906 C 273.796875 82.4375 275.375 83.171875 277.09375 83.402344 L 271.414062 88.277344 L 272.976562 90.097656 Z M 279.230469 81.695312 C 278.828125 82.039062 278.792969 82.070312 278.277344 82.132812 C 276.835938 82.296875 275.6875 81.765625 275 80.964844 C 273.46875 79.183594 274.101562 76.238281 276.25 74.394531 C 278.613281 72.363281 281.617188 72.695312 283.054688 74.367188 C 284.425781 75.96875 283.414062 78.105469 282.503906 78.882812 Z M 279.230469 81.695312 "/>
<path style=" stroke:none;fill-rule:nonzero;fill:rgb(0%,0%,0%);fill-opacity:1;" d="M 298.109375 89.410156 L 296.550781 87.589844 L 289.816406 93.367188 C 288.070312 94.867188 286.144531 94.246094 284.863281 92.753906 C 283.457031 91.113281 283.921875 90.402344 284.902344 89.558594 L 292.582031 82.96875 L 291.050781 81.183594 L 283.300781 87.835938 C 281.625 89.273438 280.933594 90.753906 282.589844 92.679688 C 283.652344 93.917969 285.421875 95.242188 287.441406 95.535156 L 286.3125 96.503906 L 287.8125 98.25 Z M 298.109375 89.410156 "/>
<path style=" stroke:none;fill-rule:nonzero;fill:rgb(0%,0%,0%);fill-opacity:1;" d="M 308.460938 90.351562 L 306.683594 88.273438 L 304.609375 90.054688 L 306.386719 92.128906 Z M 302.84375 94.921875 L 301.34375 93.175781 L 291.042969 102.015625 L 292.542969 103.761719 Z M 302.84375 94.921875 "/>
<path style=" stroke:none;fill-rule:nonzero;fill:rgb(0%,0%,0%);fill-opacity:1;" d="M 302.285156 105.023438 C 304.578125 103.058594 307.691406 103.292969 309.730469 105.523438 L 311.261719 104.210938 C 309.480469 102.136719 307.222656 101.863281 305.542969 102.042969 L 307.652344 100.230469 L 306.246094 98.59375 L 295.800781 107.558594 L 297.300781 109.304688 Z M 302.285156 105.023438 "/>
<path style=" stroke:none;fill-rule:nonzero;fill:rgb(0%,0%,0%);fill-opacity:1;" d="M 314.324219 118.828125 C 315.089844 118.171875 316.804688 116.636719 317.472656 114.546875 C 318.050781 112.34375 317.117188 110.742188 316.398438 109.90625 C 314.183594 107.320312 309.894531 107.335938 306.910156 109.898438 C 303.855469 112.519531 303.351562 116.871094 305.726562 119.636719 C 306.976562 121.089844 308.675781 121.96875 310.113281 122.316406 L 311.515625 120.859375 C 309.03125 120.464844 307.613281 118.964844 307.175781 118.453125 C 305.582031 116.597656 305.941406 113.699219 308.171875 111.660156 Z M 309.539062 110.675781 C 311.597656 109.539062 313.824219 109.777344 314.980469 111.125 C 316.011719 112.324219 316.339844 114.253906 314.472656 116.425781 Z M 309.539062 110.675781 "/>
<path style=" stroke:none;fill-rule:nonzero;fill:rgb(0%,0%,0%);fill-opacity:1;" d="M 334.609375 120.148438 L 333.109375 118.402344 L 326.269531 124.273438 C 326.226562 122.164062 325.386719 120.671875 324.636719 119.796875 C 322.667969 117.503906 318.703125 117.746094 315.71875 120.308594 C 312.664062 122.933594 311.828125 126.746094 313.734375 128.964844 C 314.390625 129.730469 315.765625 130.890625 318.125 131.136719 L 316.925781 132.167969 L 318.488281 133.988281 Z M 320.164062 129.386719 C 319.835938 129.667969 319.367188 130.007812 318.089844 129.839844 C 317.148438 129.703125 316.464844 129.277344 315.964844 128.695312 C 314.714844 127.238281 314.371094 124.625 317.246094 122.160156 C 320.304688 119.535156 322.96875 120.722656 324.125 122.070312 C 325.027344 123.125 325.113281 124.253906 324.785156 125.421875 Z M 320.164062 129.386719 "/>
<path style=" stroke:none;fill-rule:nonzero;fill:rgb(0%,0%,0%);fill-opacity:1;" d="M 350.410156 138.554688 L 348.628906 136.480469 L 327.320312 144.277344 L 328.789062 145.988281 L 335.050781 143.710938 L 340.859375 150.480469 L 337.628906 156.289062 L 339.472656 158.4375 Z M 341.734375 148.847656 L 336.796875 143.097656 L 342.261719 140.996094 C 344.050781 140.28125 346.640625 139.324219 347.671875 138.753906 C 347.40625 139.109375 346.949219 139.753906 345.890625 141.613281 Z M 341.734375 148.847656 "/>
<path style=" stroke:none;fill-rule:nonzero;fill:rgb(0%,0%,0%);fill-opacity:1;" d="M 348.144531 158.453125 C 350.4375 156.484375 353.550781 156.722656 355.589844 158.953125 L 357.121094 157.640625 C 355.339844 155.566406 353.082031 155.292969 351.402344 155.472656 L 353.511719 153.660156 L 352.105469 152.019531 L 341.660156 160.988281 L 343.160156 162.734375 Z M 348.144531 158.453125 "/>
<path style=" stroke:none;fill-rule:nonzero;fill:rgb(0%,0%,0%);fill-opacity:1;" d="M 360.183594 172.257812 C 360.949219 171.601562 362.664062 170.066406 363.332031 167.972656 C 363.910156 165.773438 362.976562 164.171875 362.257812 163.335938 C 360.039062 160.75 355.753906 160.765625 352.769531 163.324219 C 349.714844 165.949219 349.210938 170.296875 351.585938 173.066406 C 352.835938 174.519531 354.535156 175.398438 355.972656 175.746094 L 357.375 174.289062 C 354.890625 173.894531 353.472656 172.390625 353.035156 171.882812 C 351.441406 170.027344 351.800781 167.128906 354.03125 165.089844 Z M 355.398438 164.105469 C 357.457031 162.96875 359.683594 163.207031 360.839844 164.554688 C 361.871094 165.753906 362.199219 167.683594 360.332031 169.855469 Z M 355.398438 164.105469 "/>
<path style=" stroke:none;fill-rule:nonzero;fill:rgb(0%,0%,0%);fill-opacity:1;" d="M 370.355469 180.867188 C 372.722656 178.835938 372.890625 175.722656 371.046875 173.574219 C 369.765625 172.082031 368.496094 171.339844 366.941406 170.777344 L 365.539062 172.234375 C 367.40625 172.71875 368.695312 173.632812 369.664062 174.761719 C 370.601562 175.851562 370.503906 177.578125 368.792969 179.046875 L 367.773438 179.921875 C 364.738281 176.460938 361.226562 174.355469 359.1875 176.105469 C 358.207031 176.949219 356.84375 179.191406 358.59375 181.230469 C 358.875 181.558594 360.785156 183.710938 362.996094 184.148438 L 362.160156 184.867188 L 363.660156 186.617188 Z M 365.152344 182.171875 C 364.71875 182.546875 364.136719 183.046875 363.011719 182.621094 C 362.046875 182.308594 361.230469 181.429688 361.011719 181.175781 C 360.074219 180.085938 359.714844 178.558594 360.660156 177.746094 C 362.300781 176.34375 365.664062 179.964844 366.609375 180.921875 Z M 365.152344 182.171875 "/>
</g>
</svg>
