<?xml version="1.0" encoding="UTF-8"?>
<svg xmlns="http://www.w3.org/2000/svg" xmlns:xlink="http://www.w3.org/1999/xlink" width="111pt" height="63pt" viewBox="0 0 111 63" version="1.1">
<g id="surface1">
<path style=" stroke:none;fill-rule:nonzero;fill:rgb(0%,0%,0%);fill-opacity:1;" d="M 27.238281 1.828125 C 27.433594 2.308594 27.601562 2.742188 27.601562 2.789062 C 27.601562 3.125 28.273438 2.789062 28.703125 2.210938 L 29.230469 1.566406 L 29.496094 2.238281 C 29.929688 3.339844 30.191406 5.597656 29.976562 6.171875 C 29.855469 6.484375 29.351562 6.917969 28.871094 7.132812 C 27.71875 7.660156 27.71875 7.660156 27.910156 7.828125 C 28.175781 8.09375 30.167969 6.964844 30.480469 6.363281 C 30.742188 5.859375 30.742188 5.5 30.433594 4.011719 C 29.878906 1.566406 29.617188 0.964844 29.0625 0.964844 C 28.800781 0.964844 28.511719 1.179688 28.441406 1.445312 C 28.367188 1.707031 28.175781 1.925781 28.054688 1.925781 C 27.9375 1.925781 27.71875 1.707031 27.550781 1.445312 C 27.046875 0.652344 26.855469 0.894531 27.238281 1.828125 Z M 27.238281 1.828125 "/>
<path style=" stroke:none;fill-rule:nonzero;fill:rgb(0%,0%,0%);fill-opacity:1;" d="M 20.449219 6.773438 C 19.921875 7.46875 18.960938 9.628906 18.960938 10.179688 C 18.960938 10.683594 19.105469 10.804688 19.800781 10.949219 C 20.519531 11.070312 20.664062 11.238281 20.855469 11.980469 C 21 12.460938 21.121094 13.925781 21.121094 15.246094 C 21.167969 18.507812 21.167969 18.726562 20.855469 18.726562 C 20.519531 18.726562 14.566406 15.390625 12.792969 14.210938 C 12.121094 13.78125 11.351562 13.445312 11.113281 13.492188 C 10.847656 13.539062 12.191406 14.476562 14.878906 16.0625 C 19.007812 18.507812 20.160156 19.300781 20.160156 19.757812 C 20.160156 19.875 20.375 20.140625 20.664062 20.378906 C 21.121094 20.742188 21.191406 21.195312 21.480469 25.925781 C 21.886719 32.09375 22.726562 43.085938 23.015625 45.605469 C 23.136719 46.589844 23.160156 47.476562 23.0625 47.574219 C 22.992188 47.644531 19.632812 47.910156 15.601562 48.125 C 8.113281 48.53125 7.441406 48.605469 7.441406 48.964844 C 7.441406 49.253906 9.214844 50.164062 9.742188 50.164062 C 10.078125 50.164062 10.078125 50.09375 9.839844 49.804688 C 9.671875 49.589844 9.601562 49.371094 9.648438 49.300781 C 9.910156 49.0625 12.910156 48.75 17.28125 48.484375 C 23.183594 48.171875 23.230469 48.171875 23.375 48.652344 C 23.449219 48.894531 23.785156 51.054688 24.121094 53.476562 C 24.625 56.933594 24.695312 57.941406 24.480469 58.203125 C 24.289062 58.421875 24.238281 58.875 24.335938 59.378906 C 24.503906 60.292969 25.296875 61.421875 25.585938 61.15625 C 25.679688 61.0625 25.367188 58.300781 24.863281 55.035156 C 24.382812 51.75 24 48.917969 24 48.699219 C 24 48.363281 24.335938 48.269531 25.632812 48.148438 C 27.601562 47.957031 41.617188 47.210938 53.808594 46.660156 C 62.304688 46.253906 62.878906 46.253906 63.3125 46.636719 C 63.550781 46.851562 63.910156 47.042969 64.078125 47.042969 C 64.921875 47.042969 70.800781 50.886719 71.953125 52.179688 C 72.886719 53.261719 73.03125 54.054688 72.910156 57.414062 C 72.816406 59.910156 72.742188 60.246094 72.023438 61.683594 C 71.230469 63.195312 71.230469 63.222656 71.855469 62.667969 C 72.191406 62.355469 72.71875 61.492188 73.007812 60.75 C 73.464844 59.597656 73.535156 58.925781 73.558594 56.238281 C 73.558594 54.484375 73.585938 53.042969 73.632812 53.042969 C 73.65625 53.042969 75.816406 54.460938 78.433594 56.210938 C 84.480469 60.269531 87.144531 61.925781 87.527344 61.925781 C 88.367188 61.925781 87.671875 61.15625 86.160156 60.414062 C 85.222656 59.957031 80.015625 56.621094 74.59375 52.996094 L 64.726562 46.445312 L 65.902344 46.277344 C 66.550781 46.203125 70.105469 46.011719 73.800781 45.867188 C 77.496094 45.726562 83.542969 45.4375 87.238281 45.246094 C 90.9375 45.054688 94.609375 44.886719 95.398438 44.835938 L 96.839844 44.765625 L 96.910156 45.558594 C 96.984375 46.371094 97.441406 46.398438 97.441406 45.582031 C 97.441406 45.292969 97.753906 44.980469 98.28125 44.71875 C 98.734375 44.5 99.121094 44.210938 99.121094 44.09375 C 99.121094 43.972656 98.761719 43.949219 98.28125 44.019531 C 97.488281 44.1875 97.441406 44.140625 97.441406 43.539062 C 97.441406 42.988281 97.511719 42.941406 98.015625 43.0625 C 99.023438 43.300781 100.800781 44.140625 100.800781 44.355469 C 100.800781 44.453125 100.441406 44.71875 100.03125 44.933594 C 98.761719 45.558594 97.199219 46.78125 97.199219 47.164062 C 97.199219 47.691406 97.511719 47.597656 98.160156 46.925781 C 98.472656 46.589844 99.40625 45.894531 100.246094 45.339844 C 101.089844 44.789062 101.734375 44.238281 101.710938 44.117188 C 101.664062 43.996094 100.824219 43.566406 99.839844 43.132812 C 98.542969 42.582031 97.921875 42.148438 97.558594 41.597656 C 97.296875 41.164062 97.007812 40.828125 96.910156 40.804688 C 96.792969 40.804688 96.71875 41.550781 96.71875 42.460938 L 96.71875 44.117188 L 95.59375 44.261719 C 92.449219 44.644531 71.664062 45.605469 66.070312 45.605469 L 63.40625 45.605469 L 59.710938 43.230469 C 57.695312 41.933594 54.625 40.035156 52.921875 39.003906 C 51.191406 37.972656 48.265625 36.125 46.367188 34.902344 C 43.609375 33.078125 42.863281 32.476562 42.574219 31.804688 C 42.265625 31.0625 42.167969 30.988281 41.519531 31.109375 C 40.894531 31.253906 39.769531 30.605469 32.710938 26.261719 C 21.695312 19.492188 22.367188 19.949219 22.078125 18.964844 C 21.9375 18.507812 21.769531 16.613281 21.671875 14.765625 L 21.527344 11.40625 L 22.777344 10.875 C 23.878906 10.421875 24 10.277344 24 9.628906 C 24 8.8125 22.894531 7.398438 21.816406 6.820312 C 21 6.414062 20.761719 6.390625 20.449219 6.773438 Z M 22.992188 8.355469 C 23.375 8.859375 23.351562 9.964844 22.945312 10.324219 C 22.320312 10.804688 21.480469 10.515625 21.40625 9.773438 C 21.3125 8.957031 20.878906 8.910156 20.878906 9.726562 C 20.878906 10.421875 20.304688 10.757812 19.824219 10.347656 C 19.367188 9.964844 19.726562 8.910156 20.664062 7.902344 C 21.359375 7.15625 21.359375 7.15625 22.03125 7.566406 C 22.390625 7.804688 22.824219 8.140625 22.992188 8.355469 Z M 23.257812 21.027344 C 25.441406 22.277344 36.167969 28.902344 38.449219 30.414062 C 39.71875 31.230469 40.847656 32.140625 40.921875 32.40625 C 41.015625 32.71875 41.28125 32.886719 41.6875 32.886719 C 42.3125 32.886719 43.199219 33.390625 48.289062 36.605469 C 49.96875 37.660156 53.640625 39.964844 56.449219 41.71875 C 62.039062 45.222656 62.542969 45.558594 62.375 45.699219 C 62.328125 45.773438 56.449219 46.085938 49.320312 46.445312 C 42.191406 46.78125 34.585938 47.164062 32.398438 47.285156 C 30.214844 47.40625 27.40625 47.523438 26.136719 47.523438 L 23.832031 47.523438 L 23.566406 45.53125 C 22.800781 39.820312 21.550781 20.40625 21.960938 20.40625 C 22.078125 20.40625 22.65625 20.691406 23.257812 21.027344 Z M 23.257812 21.027344 "/>
<path style=" stroke:none;fill-rule:nonzero;fill:rgb(0%,0%,0%);fill-opacity:1;" d="M 0.984375 19.277344 C 0.601562 20.453125 0 23.691406 0 24.652344 C 0 25.707031 0.457031 25.613281 0.816406 24.484375 C 1.273438 23.070312 1.753906 23.308594 2.375 25.203125 C 2.664062 26.117188 3 26.886719 3.144531 26.886719 C 3.433594 26.886719 3.433594 26.835938 3 25.179688 C 2.785156 24.390625 2.6875 23.644531 2.761719 23.523438 C 2.953125 23.238281 1.800781 20.71875 1.414062 20.597656 C 1.246094 20.550781 1.246094 20.308594 1.414062 19.851562 C 1.558594 19.46875 1.679688 19.011719 1.679688 18.820312 C 1.679688 18.195312 1.246094 18.484375 0.984375 19.277344 Z M 1.558594 22.277344 C 1.558594 23.070312 1.078125 23.019531 1.007812 22.230469 C 0.9375 21.75 1.007812 21.582031 1.246094 21.652344 C 1.414062 21.726562 1.558594 21.988281 1.558594 22.277344 Z M 1.558594 22.277344 "/>
<path style=" stroke:none;fill-rule:nonzero;fill:rgb(0%,0%,0%);fill-opacity:1;" d="M 6 19.085938 C 5.136719 20.117188 4.726562 24.222656 5.304688 26.261719 C 5.59375 27.339844 6.816406 28.683594 7.222656 28.421875 C 7.414062 28.324219 7.296875 28.132812 6.886719 27.941406 C 6.023438 27.484375 5.761719 26.453125 5.761719 23.550781 C 5.761719 21.53125 5.878906 20.789062 6.238281 19.949219 C 6.503906 19.371094 6.71875 18.867188 6.71875 18.820312 C 6.71875 18.605469 6.265625 18.75 6 19.085938 Z M 6 19.085938 "/>
<path style=" stroke:none;fill-rule:nonzero;fill:rgb(0%,0%,0%);fill-opacity:1;" d="M 17.761719 19.566406 C 17.761719 19.636719 17.976562 20.117188 18.238281 20.644531 C 18.625 21.414062 18.71875 22.0625 18.71875 24.222656 C 18.71875 26.308594 18.625 27.125 18.238281 28.085938 C 17.664062 29.550781 17.640625 29.667969 18.121094 29.285156 C 18.792969 28.734375 19.222656 26.523438 19.246094 23.789062 C 19.246094 21.484375 19.199219 21.054688 18.71875 20.308594 C 18.265625 19.566406 17.761719 19.179688 17.761719 19.566406 Z M 17.761719 19.566406 "/>
<path style=" stroke:none;fill-rule:nonzero;fill:rgb(0%,0%,0%);fill-opacity:1;" d="M 9.433594 21.222656 L 8.640625 21.460938 L 8.640625 23.238281 C 8.640625 24.195312 8.761719 25.203125 8.878906 25.46875 C 9.214844 26.070312 10.320312 26.070312 11.0625 25.492188 C 11.519531 25.109375 11.59375 24.820312 11.59375 23.550781 C 11.566406 21.507812 10.894531 20.765625 9.433594 21.222656 Z M 10.800781 21.964844 C 11.496094 22.804688 10.847656 25.445312 9.960938 25.445312 C 9.046875 25.445312 8.832031 23.40625 9.648438 22.324219 C 10.246094 21.507812 10.390625 21.460938 10.800781 21.964844 Z M 10.800781 21.964844 "/>
<path style=" stroke:none;fill-rule:nonzero;fill:rgb(0%,0%,0%);fill-opacity:1;" d="M 15.265625 21.867188 C 14.878906 22.300781 14.640625 22.902344 14.640625 23.332031 C 14.640625 24.003906 14.6875 24.054688 15.289062 23.933594 C 15.742188 23.859375 16.175781 23.980469 16.726562 24.414062 C 17.640625 25.109375 17.6875 25.0625 17.0625 23.957031 C 16.824219 23.523438 16.535156 22.757812 16.464844 22.277344 C 16.246094 21.078125 16.007812 20.980469 15.265625 21.867188 Z M 15.792969 22.613281 C 15.742188 22.757812 15.550781 22.949219 15.40625 22.996094 C 15.238281 23.042969 15.167969 22.949219 15.265625 22.707031 C 15.433594 22.277344 15.9375 22.179688 15.792969 22.613281 Z M 15.792969 22.613281 "/>
<path style=" stroke:none;fill-rule:nonzero;fill:rgb(0%,0%,0%);fill-opacity:1;" d="M 67.199219 23.164062 C 67.199219 23.523438 67.296875 23.71875 67.441406 23.644531 C 67.824219 23.40625 69.097656 25.421875 69.238281 26.523438 C 69.433594 27.75 69 30.003906 68.351562 31.277344 C 67.679688 32.597656 67.992188 32.644531 68.761719 31.371094 C 69.550781 30.003906 69.839844 28.996094 69.839844 27.582031 C 69.839844 25.707031 68.785156 23.40625 67.65625 22.804688 C 67.273438 22.589844 67.199219 22.636719 67.199219 23.164062 Z M 67.199219 23.164062 "/>
<path style=" stroke:none;fill-rule:nonzero;fill:rgb(0%,0%,0%);fill-opacity:1;" d="M 49.078125 26.140625 C 49.175781 27.582031 49.34375 29.117188 49.441406 29.550781 C 49.609375 30.246094 49.632812 30.125 49.65625 28.804688 C 49.679688 27.558594 49.800781 27.054688 50.28125 26.355469 C 50.617188 25.875 50.878906 25.300781 50.878906 25.109375 C 50.878906 24.773438 49.488281 23.523438 49.078125 23.523438 C 48.984375 23.523438 48.984375 24.699219 49.078125 26.140625 Z M 50.113281 24.773438 C 50.519531 25.179688 50.472656 25.683594 50.039062 25.683594 C 49.753906 25.683594 49.199219 25.011719 49.199219 24.628906 C 49.199219 24.363281 49.824219 24.484375 50.113281 24.773438 Z M 50.113281 24.773438 "/>
<path style=" stroke:none;fill-rule:nonzero;fill:rgb(0%,0%,0%);fill-opacity:1;" d="M 12.625 25.46875 C 12.527344 26.285156 12.503906 26.980469 12.574219 27.054688 C 12.769531 27.246094 13.488281 24.507812 13.320312 24.246094 C 12.984375 23.71875 12.769531 24.078125 12.625 25.46875 Z M 12.625 25.46875 "/>
<path style=" stroke:none;fill-rule:nonzero;fill:rgb(0%,0%,0%);fill-opacity:1;" d="M 52.992188 24.894531 C 52.558594 25.613281 52.414062 26.238281 52.367188 27.75 C 52.273438 29.523438 52.320312 29.71875 52.894531 30.414062 C 53.542969 31.179688 54.382812 31.566406 54.625 31.179688 C 54.695312 31.0625 54.601562 30.964844 54.382812 30.964844 C 54.191406 30.964844 53.761719 30.628906 53.398438 30.195312 C 52.800781 29.5 52.753906 29.285156 52.847656 27.84375 C 52.894531 26.667969 53.0625 26.09375 53.472656 25.589844 C 54 24.894531 54.191406 24.003906 53.785156 24.003906 C 53.664062 24.003906 53.304688 24.414062 52.992188 24.894531 Z M 52.992188 24.894531 "/>
<path style=" stroke:none;fill-rule:nonzero;fill:rgb(0%,0%,0%);fill-opacity:1;" d="M 62.640625 25.085938 C 62.640625 25.613281 63.265625 27.027344 63.574219 27.246094 C 63.742188 27.339844 64.007812 27.269531 64.199219 27.125 C 64.511719 26.859375 64.558594 26.957031 64.558594 27.75 C 64.558594 28.46875 64.414062 28.78125 63.792969 29.308594 L 63 29.957031 L 63.359375 30.988281 C 63.648438 31.851562 63.839844 32.042969 64.320312 32.042969 C 64.824219 32.042969 64.945312 31.902344 65.113281 30.964844 C 65.398438 29.378906 65.207031 25.515625 64.824219 25.15625 C 64.585938 24.941406 64.464844 24.917969 64.390625 25.109375 C 64.34375 25.253906 64.152344 25.589844 63.960938 25.828125 C 63.648438 26.261719 63.601562 26.238281 63.359375 25.492188 C 63.070312 24.699219 62.640625 24.460938 62.640625 25.085938 Z M 64.558594 30.484375 C 64.558594 31.851562 64.246094 32.042969 63.863281 30.917969 C 63.648438 30.292969 63.671875 30.078125 63.984375 29.71875 C 64.222656 29.476562 64.441406 29.285156 64.488281 29.285156 C 64.511719 29.285156 64.558594 29.8125 64.558594 30.484375 Z M 64.558594 30.484375 "/>
<path style=" stroke:none;fill-rule:nonzero;fill:rgb(0%,0%,0%);fill-opacity:1;" d="M 56.398438 25.492188 C 56.398438 25.636719 56.617188 26.117188 56.902344 26.550781 C 57.3125 27.222656 57.382812 27.582031 57.238281 28.566406 C 57.046875 29.910156 57.265625 30.148438 57.648438 29.019531 C 57.863281 28.347656 57.9375 28.324219 58.296875 28.660156 C 58.945312 29.238281 59.039062 29.117188 58.703125 28.277344 C 58.488281 27.773438 58.441406 27.316406 58.585938 26.957031 C 58.777344 26.453125 58.726562 26.40625 58.054688 26.40625 C 57.527344 26.40625 57.289062 26.261719 57.191406 25.949219 C 57.070312 25.445312 56.398438 25.0625 56.398438 25.492188 Z M 56.398438 25.492188 "/>
<path style=" stroke:none;fill-rule:nonzero;fill:rgb(0%,0%,0%);fill-opacity:1;" d="M 60.71875 28.445312 C 60.574219 28.902344 60.480469 29.523438 60.527344 29.8125 C 60.601562 30.292969 60.671875 30.246094 61.03125 29.429688 C 61.488281 28.421875 61.558594 27.605469 61.222656 27.605469 C 61.105469 27.605469 60.863281 27.988281 60.71875 28.445312 Z M 60.71875 28.445312 "/>
<path style=" stroke:none;fill-rule:nonzero;fill:rgb(0%,0%,0%);fill-opacity:1;" d="M 108.910156 44.789062 C 108.3125 45.390625 108.265625 45.414062 107.734375 45.027344 C 106.96875 44.5 106.800781 44.550781 106.800781 45.269531 C 106.800781 45.773438 106.894531 45.84375 107.28125 45.726562 C 108.097656 45.460938 108.097656 46.203125 107.304688 47.910156 C 106.488281 49.660156 106.464844 49.683594 106.777344 49.683594 C 106.871094 49.683594 107.328125 49.011719 107.761719 48.195312 L 108.550781 46.734375 L 109.246094 47.5 C 110.183594 48.558594 110.398438 48.246094 109.558594 47.042969 C 109.175781 46.46875 108.960938 45.941406 109.054688 45.699219 C 109.199219 45.339844 109.246094 45.339844 109.679688 45.726562 C 110.136719 46.15625 110.160156 46.132812 110.160156 45.53125 C 110.160156 44.835938 109.945312 44.164062 109.703125 44.164062 C 109.632812 44.164062 109.273438 44.453125 108.910156 44.789062 Z M 108.910156 44.789062 "/>
<path style=" stroke:none;fill-rule:nonzero;fill:rgb(0%,0%,0%);fill-opacity:1;" d="M 62.953125 51.605469 C 63.046875 52.324219 63.191406 53.71875 63.265625 54.652344 C 63.457031 56.667969 63.648438 56.789062 65.113281 55.804688 C 66.3125 54.964844 66.265625 54.4375 64.871094 53.71875 C 63.792969 53.164062 63.71875 53.070312 63.601562 52.011719 C 63.527344 51.390625 63.3125 50.742188 63.144531 50.597656 C 62.878906 50.332031 62.832031 50.5 62.953125 51.605469 Z M 65.183594 54.53125 C 65.351562 54.796875 64.488281 55.683594 64.054688 55.683594 C 63.816406 55.683594 63.769531 54.652344 64.007812 54.414062 C 64.246094 54.148438 64.992188 54.222656 65.183594 54.53125 Z M 65.183594 54.53125 "/>
<path style=" stroke:none;fill-rule:nonzero;fill:rgb(0%,0%,0%);fill-opacity:1;" d="M 59.113281 51.269531 C 58.777344 51.796875 58.65625 52.492188 58.609375 54.363281 C 58.535156 57.027344 58.894531 58.179688 59.976562 58.734375 C 60.863281 59.164062 61.105469 58.828125 60.265625 58.300781 C 58.945312 57.507812 58.535156 53.886719 59.566406 52.085938 C 59.976562 51.363281 60.046875 51.078125 59.832031 50.859375 C 59.640625 50.667969 59.449219 50.765625 59.113281 51.269531 Z M 59.113281 51.269531 "/>
<path style=" stroke:none;fill-rule:nonzero;fill:rgb(0%,0%,0%);fill-opacity:1;" d="M 52.199219 51.027344 C 50.136719 51.53125 49.945312 51.796875 50.761719 52.804688 C 50.929688 52.996094 51.121094 54.027344 51.214844 55.085938 C 51.433594 57.53125 51.574219 58.085938 52.007812 58.085938 C 52.273438 58.085938 52.320312 57.796875 52.199219 56.574219 C 52.105469 55.757812 51.9375 54.796875 51.792969 54.4375 C 51.648438 54.078125 51.625 53.574219 51.71875 53.355469 C 51.839844 53.117188 51.9375 52.804688 51.960938 52.683594 C 52.054688 51.917969 52.414062 51.605469 53.160156 51.605469 C 54.457031 51.605469 55.105469 52.683594 54.359375 53.667969 C 53.808594 54.390625 53.929688 54.773438 54.886719 55.613281 C 55.753906 56.355469 55.777344 56.429688 55.34375 56.765625 C 55.105469 56.957031 54.433594 57.171875 53.855469 57.269531 C 53.28125 57.339844 52.800781 57.507812 52.800781 57.628906 C 52.800781 58.035156 54.359375 57.820312 55.320312 57.292969 C 56.617188 56.574219 56.640625 55.804688 55.390625 55.15625 L 54.503906 54.699219 L 54.984375 53.886719 C 55.800781 52.515625 55.105469 51.269531 53.375 51.027344 C 52.992188 50.980469 52.464844 50.980469 52.199219 51.027344 Z M 52.199219 51.027344 "/>
<path style=" stroke:none;fill-rule:nonzero;fill:rgb(0%,0%,0%);fill-opacity:1;" d="M 69.382812 54.773438 C 69.40625 56.910156 69.625 57.460938 70.367188 57.558594 C 70.894531 57.628906 71.039062 57.507812 71.28125 56.789062 C 71.425781 56.308594 71.496094 55.613281 71.398438 55.203125 C 71.183594 54.269531 70.390625 53.285156 69.816406 53.285156 C 69.40625 53.285156 69.359375 53.453125 69.382812 54.773438 Z M 70.65625 54.628906 C 70.871094 55.179688 70.824219 56.476562 70.558594 56.886719 C 70.390625 57.148438 70.296875 57.101562 70.105469 56.574219 C 69.71875 55.589844 69.769531 54.246094 70.175781 54.246094 C 70.367188 54.246094 70.585938 54.414062 70.65625 54.628906 Z M 70.65625 54.628906 "/>
<path style=" stroke:none;fill-rule:nonzero;fill:rgb(0%,0%,0%);fill-opacity:1;" d="M 66.625 56.667969 C 66.191406 58.132812 66.144531 58.566406 66.480469 58.566406 C 66.839844 58.566406 67.535156 55.925781 67.246094 55.636719 C 67.078125 55.46875 66.886719 55.78125 66.625 56.667969 Z M 66.625 56.667969 "/>
</g>
</svg>
