<?xml version="1.0" encoding="UTF-8"?>
<svg xmlns="http://www.w3.org/2000/svg" xmlns:xlink="http://www.w3.org/1999/xlink" width="529pt" height="402pt" viewBox="0 0 529 402" version="1.1">
<g id="surface1">
<path style="fill:none;stroke-width:21.0779;stroke-linecap:round;stroke-linejoin:round;stroke:rgb(0%,0%,0%);stroke-opacity:1;stroke-miterlimit:4;" d="M 3133.710938 2010.9375 C 3133.710938 2030.546875 3133.085938 2050.195312 3131.835938 2069.804688 C 3130.585938 2089.414062 3128.710938 2108.984375 3126.25 2128.4375 C 3123.75 2147.929688 3120.625 2167.34375 3116.914062 2186.640625 C 3113.203125 2205.898438 3108.867188 2225.078125 3103.945312 2244.101562 C 3099.023438 2263.085938 3093.476562 2281.953125 3087.34375 2300.625 C 3081.210938 2319.296875 3074.492188 2337.734375 3067.1875 2355.976562 C 3059.882812 2374.21875 3052.03125 2392.226562 3043.59375 2409.960938 C 3035.15625 2427.695312 3026.132812 2445.15625 3016.601562 2462.304688 C 3007.03125 2479.492188 2996.953125 2496.328125 2986.328125 2512.851562 C 2975.703125 2529.375 2964.570312 2545.585938 2952.929688 2561.367188 C 2941.25 2577.1875 2929.101562 2592.65625 2916.484375 2607.695312 C 2903.867188 2622.734375 2890.78125 2637.382812 2877.226562 2651.601562 C 2863.671875 2665.820312 2849.648438 2679.609375 2835.234375 2692.929688 C 2820.78125 2706.25 2805.9375 2719.140625 2790.703125 2731.523438 C 2775.46875 2743.90625 2759.804688 2755.78125 2743.828125 2767.1875 C 2727.8125 2778.59375 2711.445312 2789.453125 2694.765625 2799.804688 C 2678.085938 2810.15625 2661.054688 2820 2643.75 2829.257812 C 2626.445312 2838.554688 2608.828125 2847.265625 2590.976562 2855.429688 C 2573.085938 2863.59375 2554.960938 2871.171875 2536.640625 2878.203125 C 2518.28125 2885.195312 2499.726562 2891.640625 2480.9375 2897.460938 C 2462.1875 2903.28125 2443.242188 2908.515625 2424.179688 2913.164062 C 2405.078125 2917.8125 2385.859375 2921.835938 2366.523438 2925.234375 C 2347.148438 2928.632812 2327.695312 2931.445312 2308.203125 2933.632812 C 2288.671875 2935.78125 2269.101562 2937.34375 2249.453125 2938.28125 C 2229.84375 2939.21875 2210.195312 2939.53125 2190.546875 2939.21875 C 2170.9375 2938.90625 2151.289062 2937.96875 2131.71875 2936.40625 C 2112.148438 2934.84375 2092.617188 2932.695312 2073.164062 2929.882812 C 2053.710938 2927.109375 2034.375 2923.671875 2015.15625 2919.648438 C 1995.9375 2915.625 1976.835938 2911.015625 1957.890625 2905.78125 C 1938.945312 2900.546875 1920.195312 2894.6875 1901.640625 2888.28125 C 1883.085938 2881.835938 1864.726562 2874.84375 1846.601562 2867.265625 C 1828.476562 2859.648438 1810.625 2851.484375 1793.007812 2842.773438 C 1775.429688 2834.0625 1758.085938 2824.765625 1741.09375 2814.960938 C 1724.0625 2805.117188 1707.382812 2794.765625 1691.015625 2783.90625 C 1674.6875 2773.007812 1658.671875 2761.601562 1643.046875 2749.726562 C 1627.382812 2737.8125 1612.148438 2725.429688 1597.304688 2712.578125 C 1582.460938 2699.726562 1568.046875 2686.367188 1554.023438 2672.578125 C 1540.039062 2658.828125 1526.484375 2644.609375 1513.359375 2629.960938 C 1500.273438 2615.3125 1487.65625 2600.273438 1475.507812 2584.84375 C 1463.359375 2569.375 1451.71875 2553.554688 1440.585938 2537.382812 C 1429.453125 2521.210938 1418.828125 2504.6875 1408.710938 2487.8125 C 1398.632812 2470.976562 1389.0625 2453.789062 1380.078125 2436.328125 C 1371.09375 2418.90625 1362.617188 2401.132812 1354.765625 2383.164062 C 1346.875 2365.15625 1339.570312 2346.914062 1332.851562 2328.476562 C 1326.132812 2310 1320 2291.328125 1314.492188 2272.5 C 1308.945312 2253.632812 1304.023438 2234.609375 1299.6875 2215.46875 C 1295.351562 2196.289062 1291.640625 2176.992188 1288.554688 2157.617188 C 1285.429688 2138.203125 1282.929688 2118.710938 1281.09375 2099.179688 C 1279.21875 2079.609375 1277.96875 2060 1277.34375 2040.390625 C 1276.71875 2020.742188 1276.71875 2001.09375 1277.34375 1981.445312 C 1277.96875 1961.835938 1279.21875 1942.226562 1281.09375 1922.65625 C 1282.929688 1903.125 1285.429688 1883.632812 1288.554688 1864.21875 C 1291.640625 1844.84375 1295.351562 1825.546875 1299.6875 1806.367188 C 1304.023438 1787.226562 1308.945312 1768.203125 1314.492188 1749.375 C 1320 1730.507812 1326.132812 1711.835938 1332.851562 1693.398438 C 1339.570312 1674.921875 1346.875 1656.679688 1354.765625 1638.671875 C 1362.617188 1620.703125 1371.09375 1602.96875 1380.078125 1585.507812 C 1389.0625 1568.046875 1398.632812 1550.859375 1408.710938 1534.023438 C 1418.828125 1517.148438 1429.453125 1500.625 1440.585938 1484.453125 C 1451.71875 1468.28125 1463.359375 1452.460938 1475.507812 1437.03125 C 1487.65625 1421.5625 1500.273438 1406.523438 1513.359375 1391.875 C 1526.484375 1377.226562 1540.039062 1363.007812 1554.023438 1349.257812 C 1568.007812 1335.46875 1582.460938 1322.148438 1597.304688 1309.257812 C 1612.148438 1296.40625 1627.421875 1284.023438 1643.046875 1272.109375 C 1658.671875 1260.234375 1674.6875 1248.828125 1691.015625 1237.96875 C 1707.382812 1227.070312 1724.0625 1216.71875 1741.09375 1206.875 C 1758.085938 1197.070312 1775.429688 1187.773438 1793.007812 1179.0625 C 1810.625 1170.351562 1828.476562 1162.1875 1846.601562 1154.609375 C 1864.726562 1146.992188 1883.085938 1140 1901.640625 1133.554688 C 1920.195312 1127.148438 1938.945312 1121.328125 1957.890625 1116.09375 C 1976.835938 1110.859375 1995.9375 1106.210938 2015.15625 1102.1875 C 2034.375 1098.164062 2053.710938 1094.765625 2073.164062 1091.953125 C 2092.617188 1089.140625 2112.148438 1086.992188 2131.71875 1085.429688 C 2151.289062 1083.867188 2170.9375 1082.929688 2190.546875 1082.617188 C 2210.195312 1082.304688 2229.84375 1082.617188 2249.453125 1083.554688 C 2269.101562 1084.492188 2288.671875 1086.054688 2308.203125 1088.242188 C 2327.695312 1090.390625 2347.148438 1093.203125 2366.523438 1096.601562 C 2385.859375 1100.039062 2405.078125 1104.0625 2424.179688 1108.671875 C 2443.242188 1113.320312 2462.1875 1118.554688 2480.9375 1124.375 C 2499.726562 1130.195312 2518.28125 1136.640625 2536.640625 1143.632812 C 2554.960938 1150.664062 2573.085938 1158.242188 2590.976562 1166.40625 C 2608.828125 1174.570312 2626.445312 1183.28125 2643.75 1192.578125 C 2661.054688 1201.835938 2678.085938 1211.679688 2694.765625 1222.03125 C 2711.445312 1232.382812 2727.8125 1243.28125 2743.828125 1254.648438 C 2759.804688 1266.054688 2775.46875 1277.96875 2790.703125 1290.351562 C 2805.9375 1302.734375 2820.78125 1315.585938 2835.234375 1328.90625 C 2849.648438 1342.226562 2863.671875 1356.015625 2877.226562 1370.234375 C 2890.78125 1384.453125 2903.867188 1399.101562 2916.484375 1414.140625 C 2929.140625 1429.179688 2941.25 1444.648438 2952.929688 1460.46875 C 2964.570312 1476.289062 2975.703125 1492.460938 2986.328125 1508.984375 C 2996.953125 1525.507812 3007.03125 1542.382812 3016.601562 1559.53125 C 3026.132812 1576.679688 3035.15625 1594.140625 3043.59375 1611.875 C 3052.03125 1629.609375 3059.882812 1647.617188 3067.1875 1665.859375 C 3074.492188 1684.101562 3081.210938 1702.578125 3087.34375 1721.210938 C 3093.476562 1739.882812 3099.023438 1758.75 3103.945312 1777.734375 C 3108.867188 1796.757812 3113.203125 1815.9375 3116.914062 1835.234375 C 3120.625 1854.492188 3123.75 1873.90625 3126.25 1893.398438 C 3128.710938 1912.890625 3130.585938 1932.421875 3131.835938 1952.03125 C 3133.085938 1971.640625 3133.710938 1991.289062 3133.710938 2010.9375 " transform="matrix(0.1,0,0,-0.1,0,402)"/>
<path style="fill:none;stroke-width:21.0779;stroke-linecap:round;stroke-linejoin:round;stroke:rgb(0%,0%,0%);stroke-opacity:1;stroke-miterlimit:4;" d="M 215.820312 2010.9375 L 4194.765625 2010.9375 M 2205.273438 21.445312 L 2205.273438 4000.390625 M 4062.109375 2010.9375 C 4062.109375 2030.546875 4061.484375 2050.195312 4060.234375 2069.804688 C 4059.023438 2089.414062 4057.148438 2108.984375 4054.648438 2128.4375 C 4052.148438 2147.929688 4049.0625 2167.34375 4045.351562 2186.640625 C 4041.640625 2205.898438 4037.304688 2225.078125 4032.34375 2244.101562 C 4027.421875 2263.085938 4021.875 2281.953125 4015.78125 2300.625 C 4009.648438 2319.296875 4002.929688 2337.734375 3995.625 2355.976562 C 3988.320312 2374.21875 3980.429688 2392.226562 3971.992188 2409.960938 C 3963.554688 2427.695312 3954.53125 2445.15625 3945 2462.304688 C 3935.46875 2479.492188 3925.351562 2496.328125 3914.726562 2512.851562 C 3904.101562 2529.375 3892.96875 2545.585938 3881.328125 2561.367188 C 3869.6875 2577.1875 3857.539062 2592.65625 3844.921875 2607.695312 C 3832.304688 2622.734375 3819.179688 2637.382812 3805.625 2651.601562 C 3792.070312 2665.820312 3778.085938 2679.609375 3763.632812 2692.929688 C 3749.21875 2706.25 3734.375 2719.140625 3719.101562 2731.523438 C 3703.867188 2743.90625 3688.242188 2755.78125 3672.226562 2767.1875 C 3656.25 2778.59375 3639.882812 2789.453125 3623.203125 2799.804688 C 3606.484375 2810.15625 3589.492188 2820 3572.148438 2829.257812 C 3554.84375 2838.554688 3537.265625 2847.265625 3519.375 2855.429688 C 3501.523438 2863.59375 3483.398438 2871.171875 3465.039062 2878.203125 C 3446.679688 2885.195312 3428.125 2891.640625 3409.375 2897.460938 C 3390.625 2903.28125 3371.679688 2908.515625 3352.578125 2913.164062 C 3333.515625 2917.8125 3314.257812 2921.835938 3294.921875 2925.234375 C 3275.585938 2928.632812 3256.132812 2931.445312 3236.601562 2933.632812 C 3217.070312 2935.78125 3197.5 2937.34375 3177.890625 2938.28125 C 3158.242188 2939.21875 3138.59375 2939.53125 3118.984375 2939.21875 C 3099.335938 2938.90625 3079.6875 2937.96875 3060.117188 2936.40625 C 3040.546875 2934.84375 3021.015625 2932.695312 3001.5625 2929.882812 C 2982.148438 2927.109375 2962.773438 2923.671875 2943.554688 2919.648438 C 2924.335938 2915.625 2905.234375 2911.015625 2886.289062 2905.78125 C 2867.382812 2900.546875 2848.59375 2894.6875 2830.039062 2888.28125 C 2811.484375 2881.835938 2793.125 2874.84375 2775 2867.265625 C 2756.914062 2859.648438 2739.023438 2851.484375 2721.445312 2842.773438 C 2703.828125 2834.0625 2686.523438 2824.765625 2669.492188 2814.960938 C 2652.5 2805.117188 2635.78125 2794.765625 2619.453125 2783.90625 C 2603.085938 2773.007812 2587.070312 2761.601562 2571.445312 2749.726562 C 2555.820312 2737.8125 2540.546875 2725.429688 2525.703125 2712.578125 C 2510.859375 2699.726562 2496.445312 2686.367188 2482.460938 2672.578125 C 2468.4375 2658.828125 2454.882812 2644.609375 2441.796875 2629.960938 C 2428.710938 2615.3125 2416.054688 2600.273438 2403.90625 2584.84375 C 2391.796875 2569.375 2380.117188 2553.554688 2368.984375 2537.382812 C 2357.851562 2521.210938 2347.226562 2504.6875 2337.148438 2487.8125 C 2327.03125 2470.976562 2317.5 2453.789062 2308.476562 2436.328125 C 2299.492188 2418.90625 2291.054688 2401.132812 2283.164062 2383.164062 C 2275.3125 2365.15625 2268.007812 2346.914062 2261.289062 2328.476562 C 2254.570312 2310 2248.4375 2291.328125 2242.890625 2272.5 C 2237.34375 2253.632812 2232.421875 2234.609375 2228.085938 2215.46875 C 2223.789062 2196.289062 2220.039062 2176.992188 2216.953125 2157.617188 C 2213.828125 2138.203125 2211.367188 2118.710938 2209.492188 2099.179688 C 2207.617188 2079.609375 2206.367188 2060 2205.742188 2040.390625 C 2205.117188 2020.742188 2205.117188 2001.09375 2205.742188 1981.445312 C 2206.367188 1961.835938 2207.617188 1942.226562 2209.492188 1922.65625 C 2211.367188 1903.125 2213.867188 1883.632812 2216.953125 1864.21875 C 2220.039062 1844.84375 2223.789062 1825.546875 2228.085938 1806.367188 C 2232.421875 1787.226562 2237.382812 1768.203125 2242.890625 1749.375 C 2248.4375 1730.507812 2254.570312 1711.835938 2261.289062 1693.398438 C 2268.007812 1674.921875 2275.3125 1656.679688 2283.164062 1638.671875 C 2291.054688 1620.703125 2299.492188 1602.96875 2308.476562 1585.507812 C 2317.5 1568.046875 2327.03125 1550.859375 2337.148438 1534.023438 C 2347.226562 1517.148438 2357.851562 1500.625 2368.984375 1484.453125 C 2380.117188 1468.28125 2391.796875 1452.460938 2403.90625 1437.03125 C 2416.054688 1421.5625 2428.710938 1406.523438 2441.796875 1391.875 C 2454.882812 1377.226562 2468.4375 1363.007812 2482.460938 1349.257812 C 2496.445312 1335.46875 2510.859375 1322.148438 2525.703125 1309.257812 C 2540.546875 1296.40625 2555.820312 1284.023438 2571.445312 1272.109375 C 2587.070312 1260.234375 2603.085938 1248.828125 2619.453125 1237.96875 C 2635.78125 1227.070312 2652.5 1216.71875 2669.492188 1206.875 C 2686.523438 1197.070312 2703.828125 1187.773438 2721.445312 1179.0625 C 2739.023438 1170.351562 2756.914062 1162.1875 2775 1154.609375 C 2793.125 1146.992188 2811.484375 1140 2830.039062 1133.554688 C 2848.59375 1127.148438 2867.382812 1121.328125 2886.289062 1116.09375 C 2905.234375 1110.859375 2924.335938 1106.210938 2943.554688 1102.1875 C 2962.773438 1098.164062 2982.148438 1094.765625 3001.5625 1091.953125 C 3021.015625 1089.140625 3040.546875 1086.992188 3060.117188 1085.429688 C 3079.6875 1083.867188 3099.335938 1082.929688 3118.984375 1082.617188 C 3138.59375 1082.304688 3158.242188 1082.617188 3177.890625 1083.554688 C 3197.5 1084.492188 3217.070312 1086.054688 3236.601562 1088.242188 C 3256.132812 1090.390625 3275.585938 1093.203125 3294.921875 1096.601562 C 3314.257812 1100.039062 3333.515625 1104.0625 3352.578125 1108.671875 C 3371.679688 1113.320312 3390.625 1118.554688 3409.375 1124.375 C 3428.125 1130.195312 3446.679688 1136.640625 3465.039062 1143.632812 C 3483.398438 1150.664062 3501.523438 1158.242188 3519.375 1166.40625 C 3537.265625 1174.570312 3554.84375 1183.28125 3572.148438 1192.578125 C 3589.492188 1201.835938 3606.484375 1211.679688 3623.203125 1222.03125 C 3639.882812 1232.382812 3656.25 1243.28125 3672.226562 1254.648438 C 3688.242188 1266.054688 3703.867188 1277.96875 3719.101562 1290.351562 C 3734.375 1302.734375 3749.21875 1315.585938 3763.632812 1328.90625 C 3778.085938 1342.226562 3792.070312 1356.015625 3805.625 1370.234375 C 3819.179688 1384.453125 3832.304688 1399.101562 3844.921875 1414.140625 C 3857.539062 1429.179688 3869.6875 1444.648438 3881.328125 1460.46875 C 3892.96875 1476.289062 3904.101562 1492.460938 3914.726562 1508.984375 C 3925.351562 1525.507812 3935.429688 1542.382812 3945 1559.53125 C 3954.53125 1576.679688 3963.554688 1594.140625 3971.992188 1611.875 C 3980.429688 1629.609375 3988.320312 1647.617188 3995.625 1665.859375 C 4002.929688 1684.101562 4009.648438 1702.578125 4015.78125 1721.210938 C 4021.875 1739.882812 4027.421875 1758.75 4032.34375 1777.734375 C 4037.304688 1796.757812 4041.640625 1815.9375 4045.351562 1835.234375 C 4049.0625 1854.492188 4052.148438 1873.90625 4054.648438 1893.398438 C 4057.148438 1912.890625 4058.984375 1932.421875 4060.234375 1952.03125 C 4061.484375 1971.640625 4062.109375 1991.289062 4062.109375 2010.9375 " transform="matrix(0.1,0,0,-0.1,0,402)"/>
<path style=" stroke:none;fill-rule:nonzero;fill:rgb(0%,0%,0%);fill-opacity:1;" d="M 260.449219 181.992188 L 260.289062 182.25 L 260.132812 182.496094 L 259.972656 182.734375 L 259.8125 182.953125 L 259.660156 183.167969 L 259.496094 183.363281 L 259.335938 183.550781 L 259.183594 183.726562 L 259.019531 183.898438 L 258.859375 184.050781 L 258.707031 184.195312 L 258.542969 184.332031 L 258.382812 184.460938 L 258.230469 184.578125 L 258.066406 184.6875 L 257.90625 184.792969 L 257.746094 184.886719 L 257.582031 184.96875 L 257.421875 185.046875 L 257.261719 185.121094 L 257.097656 185.183594 L 256.929688 185.242188 L 256.765625 185.300781 L 256.597656 185.34375 L 256.433594 185.386719 L 256.265625 185.421875 L 256.09375 185.453125 L 255.933594 185.480469 L 255.585938 185.523438 L 255.246094 185.546875 C 254.726562 185.589844 254.351562 185.589844 254.351562 186.398438 C 254.351562 186.652344 254.566406 186.867188 254.894531 186.867188 C 256.035156 186.867188 257.355469 186.730469 258.535156 186.730469 C 259.929688 186.730469 261.417969 186.867188 262.78125 186.867188 C 263.027344 186.867188 263.585938 186.867188 263.585938 186.058594 C 263.585938 185.589844 263.203125 185.546875 262.90625 185.546875 C 261.929688 185.472656 260.917969 185.121094 260.917969 184.078125 C 260.917969 183.558594 261.171875 183.089844 261.503906 182.511719 L 264.726562 177.078125 L 275.355469 177.078125 L 275.238281 175.769531 L 265.527344 175.769531 L 273.886719 161.78125 L 275.238281 175.769531 L 275.355469 177.078125 C 275.449219 177.960938 276.035156 183.726562 276.035156 184.152344 C 276.035156 185.429688 273.835938 185.546875 272.992188 185.546875 C 272.398438 185.546875 271.972656 185.546875 271.972656 186.398438 C 271.972656 186.867188 272.472656 186.867188 272.566406 186.867188 C 274.292969 186.867188 276.128906 186.730469 277.855469 186.730469 C 278.917969 186.730469 281.589844 186.867188 282.652344 186.867188 C 282.910156 186.867188 283.410156 186.867188 283.410156 186.015625 C 283.410156 185.546875 282.984375 185.546875 282.441406 185.546875 C 279.8125 185.546875 279.8125 185.257812 279.675781 184.027344 L 277.101562 157.554688 C 277.007812 156.703125 277.007812 156.53125 276.292969 156.53125 C 275.613281 156.53125 275.449219 156.820312 275.1875 157.246094 Z M 260.449219 181.992188 "/>
<path style=" stroke:none;fill-rule:nonzero;fill:rgb(0%,0%,0%);fill-opacity:1;" d="M 269.210938 90.875 L 269.355469 89.984375 L 271.710938 80.578125 C 272.007812 79.367188 272.085938 79.265625 273.570312 79.265625 L 276.894531 79.265625 C 279.765625 79.265625 281.597656 80.195312 281.597656 82.582031 C 281.597656 83.933594 280.90625 86.90625 279.558594 88.152344 C 277.824219 89.703125 275.753906 89.984375 274.222656 89.984375 L 269.355469 89.984375 L 269.210938 90.875 L 275.089844 90.875 C 280.003906 90.875 284.804688 87.285156 284.804688 83.414062 C 284.804688 80.75 282.527344 78.1875 277.996094 78.1875 L 266.796875 78.1875 C 266.136719 78.1875 265.753906 78.1875 265.753906 78.847656 C 265.753906 79.265625 266.066406 79.265625 266.761719 79.265625 C 267.207031 79.265625 267.835938 79.292969 268.246094 79.328125 C 268.800781 79.402344 269.011719 79.5 269.011719 79.882812 C 269.011719 80.019531 268.976562 80.132812 268.863281 80.542969 L 264.234375 99.105469 C 263.890625 100.457031 263.828125 100.726562 261.09375 100.726562 C 260.507812 100.726562 260.128906 100.726562 260.128906 101.394531 C 260.128906 101.804688 260.539062 101.804688 260.632812 101.804688 C 261.613281 101.804688 264.0625 101.691406 265.027344 101.691406 C 265.753906 101.691406 266.511719 101.742188 267.242188 101.742188 C 268.011719 101.742188 268.765625 101.804688 269.496094 101.804688 C 269.730469 101.804688 270.175781 101.804688 270.175781 101.109375 C 270.175781 100.726562 269.878906 100.726562 269.210938 100.726562 C 267.933594 100.726562 266.96875 100.726562 266.96875 100.109375 C 266.96875 99.910156 267.03125 99.734375 267.066406 99.527344 Z M 269.210938 90.875 "/>
<path style=" stroke:none;fill-rule:nonzero;fill:rgb(0%,0%,0%);fill-opacity:1;" d="M 267.164062 319.511719 L 267.6875 319.300781 L 268.210938 319.058594 L 268.726562 318.804688 L 269.242188 318.515625 L 269.75 318.210938 L 270.25 317.882812 L 270.746094 317.535156 L 271.238281 317.164062 L 271.710938 316.773438 L 272.183594 316.367188 L 272.640625 315.9375 L 273.082031 315.496094 L 273.519531 315.03125 L 273.933594 314.550781 L 274.339844 314.058594 L 274.730469 313.546875 L 275.101562 313.027344 L 275.457031 312.496094 L 275.792969 311.945312 L 276.113281 311.382812 L 276.410156 310.8125 L 276.683594 310.230469 L 276.941406 309.632812 L 277.171875 309.03125 L 277.382812 308.421875 L 277.5625 307.804688 L 277.714844 307.171875 L 277.847656 306.539062 L 277.957031 305.902344 L 278.027344 305.253906 L 278.074219 304.609375 L 278.085938 303.957031 C 278.085938 298.125 274.253906 294.226562 268.855469 294.226562 L 268.640625 295.132812 C 272.253906 295.132812 274.898438 297.941406 274.898438 302.800781 C 274.898438 306.417969 273.054688 314.886719 266.984375 318.277344 C 266.800781 317.019531 266.4375 314.375 263.796875 314.375 L 263.796875 315.167969 C 265.3125 315.167969 266.003906 316.039062 266.003906 318.238281 C 266.003906 318.785156 265.960938 318.820312 265.597656 318.964844 C 264.667969 319.367188 263.578125 319.613281 262.570312 319.613281 C 262.058594 319.613281 260.898438 319.613281 260.898438 318.058594 C 260.898438 316.621094 262.269531 315.167969 263.796875 315.167969 L 263.796875 314.375 C 261.878906 314.375 260.105469 316.191406 260.105469 318.058594 C 260.105469 318.785156 260.324219 319.183594 260.324219 319.21875 C 257.5 318.109375 256.273438 315.285156 256.273438 312.023438 C 256.273438 309.527344 257.210938 304.390625 259.960938 300.484375 C 262.605469 296.789062 266.003906 295.132812 268.640625 295.132812 L 268.855469 294.226562 C 261.050781 294.226562 253.085938 302.4375 253.085938 310.867188 C 253.085938 316.867188 257.136719 320.519531 262.351562 320.519531 C 263.25 320.519531 264.484375 320.375 265.894531 319.976562 C 265.742188 322.226562 265.742188 322.292969 265.742188 322.769531 C 265.742188 323.925781 265.742188 326.75 268.753906 326.75 C 273.054688 326.75 274.789062 320.128906 274.789062 319.730469 C 274.789062 319.480469 274.535156 319.367188 274.390625 319.367188 C 274.109375 319.367188 274.027344 319.546875 273.960938 319.765625 C 273.097656 322.335938 271 323.234375 269.730469 323.234375 C 268.058594 323.234375 267.515625 322.261719 267.164062 319.511719 Z M 267.164062 319.511719 "/>
<path style=" stroke:none;fill-rule:nonzero;fill:rgb(0%,0%,0%);fill-opacity:1;" d="M 211.898438 224.027344 L 211.886719 223.398438 L 211.847656 222.777344 L 211.785156 222.171875 L 211.691406 221.578125 L 211.582031 221 L 211.445312 220.4375 L 211.285156 219.894531 L 211.097656 219.367188 L 210.894531 218.855469 L 210.664062 218.355469 L 210.417969 217.878906 L 210.144531 217.417969 L 209.855469 216.976562 L 209.542969 216.550781 L 209.21875 216.152344 L 208.859375 215.769531 L 208.496094 215.402344 L 208.113281 215.054688 L 207.703125 214.734375 L 207.289062 214.433594 L 206.84375 214.152344 L 206.394531 213.898438 L 205.925781 213.660156 L 205.441406 213.449219 L 204.941406 213.261719 L 204.429688 213.089844 L 203.902344 212.957031 L 203.367188 212.835938 L 202.816406 212.75 L 202.246094 212.683594 L 201.675781 212.640625 L 201.089844 212.632812 L 200.832031 213.695312 C 204.3125 213.695312 208.128906 216.058594 208.128906 222.367188 C 208.128906 225.421875 206.980469 232.03125 202.789062 237.25 C 200.757812 239.828125 197.269531 242.328125 193.722656 242.328125 C 189.523438 242.328125 186.5625 238.902344 186.5625 233.304688 C 186.5625 231.441406 187.152344 225.25 190.414062 220.292969 C 193.339844 215.898438 197.484375 213.695312 200.832031 213.695312 L 201.089844 212.632812 C 191.945312 212.632812 182.617188 222.25 182.617188 232.121094 C 182.617188 239.148438 187.363281 243.425781 193.46875 243.425781 C 202.441406 243.425781 211.898438 234.15625 211.898438 224.027344 Z M 211.898438 224.027344 "/>
<path style=" stroke:none;fill-rule:nonzero;fill:rgb(0%,0%,0%);fill-opacity:1;" d="M 445.035156 198.175781 L 445.0625 198.0625 L 445.09375 197.9375 L 445.128906 197.800781 L 445.164062 197.648438 L 445.214844 197.484375 L 445.265625 197.308594 L 445.316406 197.121094 L 445.375 196.933594 L 445.441406 196.738281 L 445.519531 196.535156 L 445.605469 196.320312 L 445.691406 196.117188 L 445.785156 195.90625 L 445.886719 195.691406 L 445.996094 195.480469 L 446.113281 195.265625 L 446.371094 194.859375 L 446.515625 194.664062 L 446.820312 194.289062 L 446.992188 194.117188 L 447.167969 193.957031 L 447.355469 193.804688 L 447.550781 193.667969 L 447.765625 193.546875 L 447.867188 193.488281 L 447.976562 193.4375 L 448.097656 193.394531 L 448.207031 193.351562 L 448.324219 193.3125 L 448.445312 193.277344 L 448.574219 193.25 L 448.699219 193.226562 L 448.828125 193.207031 L 448.964844 193.191406 L 449.101562 193.183594 L 449.234375 193.183594 C 449.449219 193.183594 450.460938 193.183594 451.34375 193.726562 C 450.164062 193.941406 449.3125 195.003906 449.3125 196.015625 C 449.3125 196.6875 449.78125 197.503906 450.917969 197.503906 C 451.855469 197.503906 453.207031 196.746094 453.207031 195.046875 C 453.207031 192.835938 450.707031 192.257812 449.269531 192.257812 C 446.8125 192.257812 445.324219 194.5 444.824219 195.46875 C 443.757812 192.679688 441.472656 192.257812 440.257812 192.257812 C 435.84375 192.257812 433.417969 197.714844 433.417969 198.777344 C 433.417969 199.203125 433.84375 199.203125 433.9375 199.203125 C 434.269531 199.203125 434.40625 199.109375 434.480469 198.734375 C 435.917969 194.246094 438.726562 193.183594 440.164062 193.183594 C 440.96875 193.183594 442.441406 193.558594 442.441406 196.015625 C 442.441406 197.324219 441.726562 200.171875 440.164062 206.101562 C 439.480469 208.726562 438.003906 210.503906 436.132812 210.503906 C 435.875 210.503906 434.90625 210.503906 434.023438 209.953125 C 435.085938 209.75 436.011719 208.863281 436.011719 207.664062 C 436.011719 206.527344 435.085938 206.195312 434.449219 206.195312 C 433.171875 206.195312 432.109375 207.292969 432.109375 208.652344 C 432.109375 210.589844 434.234375 211.441406 436.089844 211.441406 C 438.894531 211.441406 440.410156 208.472656 440.546875 208.226562 C 441.046875 209.792969 442.578125 211.441406 445.113281 211.441406 C 449.484375 211.441406 451.90625 205.980469 451.90625 204.917969 C 451.90625 204.492188 451.523438 204.492188 451.386719 204.492188 C 451.011719 204.492188 450.917969 204.664062 450.84375 204.953125 C 449.449219 209.484375 446.566406 210.503906 445.207031 210.503906 C 443.546875 210.503906 442.867188 209.152344 442.867188 207.707031 C 442.867188 206.773438 443.121094 205.84375 443.597656 203.984375 Z M 445.035156 198.175781 "/>
<path style=" stroke:none;fill-rule:nonzero;fill:rgb(0%,0%,0%);fill-opacity:1;" d="M 206.703125 11.25 L 206.710938 11.214844 L 206.71875 11.1875 L 206.726562 11.136719 L 206.746094 11.097656 L 206.753906 11.042969 L 206.761719 11.003906 L 206.777344 10.96875 L 206.789062 10.925781 L 206.796875 10.890625 L 206.804688 10.859375 L 206.804688 10.824219 L 206.820312 10.753906 L 206.832031 10.730469 L 206.832031 10.703125 L 206.839844 10.679688 L 206.839844 10.652344 L 206.847656 10.628906 L 206.847656 10.601562 L 206.855469 10.558594 L 206.855469 10.425781 L 206.863281 10.382812 L 206.863281 10.28125 C 206.863281 9.503906 206.277344 9.132812 205.640625 9.132812 C 205.214844 9.132812 204.535156 9.386719 204.152344 10.023438 C 204.066406 10.238281 203.726562 11.539062 203.566406 12.3125 C 203.257812 13.410156 202.96875 14.558594 202.714844 15.695312 L 200.800781 23.324219 C 200.640625 23.960938 198.820312 26.921875 196.023438 26.921875 C 193.863281 26.921875 193.386719 25.066406 193.386719 23.496094 C 193.386719 21.546875 194.117188 18.910156 195.554688 15.195312 C 196.234375 13.453125 196.402344 12.984375 196.402344 12.132812 C 196.402344 10.238281 195.050781 8.671875 192.925781 8.671875 C 188.894531 8.671875 187.332031 14.804688 187.332031 15.195312 C 187.332031 15.621094 187.753906 15.621094 187.847656 15.621094 C 188.273438 15.621094 188.308594 15.527344 188.519531 14.847656 C 189.667969 10.859375 191.351562 9.597656 192.796875 9.597656 C 193.140625 9.597656 193.863281 9.597656 193.863281 10.953125 C 193.863281 12.015625 193.4375 13.101562 193.140625 13.917969 C 191.445312 18.410156 190.671875 20.824219 190.671875 22.824219 C 190.671875 26.582031 193.351562 27.855469 195.84375 27.855469 C 197.511719 27.855469 198.9375 27.132812 200.121094 25.953125 C 199.578125 28.144531 199.074219 30.230469 197.375 32.484375 C 196.269531 33.910156 194.660156 35.152344 192.714844 35.152344 C 192.125 35.152344 190.214844 35.015625 189.492188 33.367188 C 190.171875 33.367188 190.730469 33.367188 191.308594 32.847656 C 191.734375 32.484375 192.160156 31.921875 192.160156 31.121094 C 192.160156 29.804688 191.019531 29.632812 190.597656 29.632812 C 189.625 29.632812 188.214844 30.316406 188.214844 32.390625 C 188.214844 34.515625 190.09375 36.082031 192.714844 36.082031 C 197.085938 36.082031 201.4375 32.210938 202.636719 27.433594 Z M 206.703125 11.25 "/>
<path style=" stroke:none;fill-rule:nonzero;fill:rgb(0%,0%,0%);fill-opacity:1;" d="M 10.769531 94.269531 L 10.789062 94.179688 L 10.816406 94.074219 L 10.847656 93.960938 L 10.875 93.832031 L 10.917969 93.699219 L 10.960938 93.550781 L 11 93.394531 L 11.050781 93.238281 L 11.109375 93.078125 L 11.171875 92.90625 L 11.242188 92.730469 L 11.3125 92.5625 L 11.390625 92.386719 L 11.476562 92.207031 L 11.566406 92.03125 L 11.664062 91.855469 L 11.769531 91.6875 L 11.878906 91.515625 L 11.996094 91.355469 L 12.125 91.199219 L 12.25 91.042969 L 12.390625 90.902344 L 12.539062 90.769531 L 12.695312 90.640625 L 12.859375 90.527344 L 13.035156 90.429688 L 13.121094 90.378906 L 13.210938 90.339844 L 13.308594 90.300781 L 13.402344 90.265625 L 13.5 90.230469 L 13.601562 90.203125 L 13.707031 90.183594 L 13.8125 90.160156 L 13.917969 90.148438 L 14.03125 90.132812 L 14.144531 90.125 L 14.257812 90.125 C 14.433594 90.125 15.273438 90.125 16.007812 90.578125 C 15.027344 90.753906 14.320312 91.636719 14.320312 92.476562 C 14.320312 93.035156 14.707031 93.710938 15.652344 93.710938 C 16.429688 93.710938 17.554688 93.085938 17.554688 91.671875 C 17.554688 89.835938 15.476562 89.355469 14.285156 89.355469 C 12.246094 89.355469 11.007812 91.21875 10.59375 92.023438 C 9.710938 89.710938 7.8125 89.355469 6.800781 89.355469 C 3.136719 89.355469 1.125 93.890625 1.125 94.773438 C 1.125 95.125 1.476562 95.125 1.554688 95.125 C 1.832031 95.125 1.945312 95.046875 2.007812 94.734375 C 3.199219 91.007812 5.53125 90.125 6.722656 90.125 C 7.394531 90.125 8.617188 90.4375 8.617188 92.476562 C 8.617188 93.5625 8.023438 95.929688 6.722656 100.851562 C 6.160156 103.03125 4.929688 104.507812 3.378906 104.507812 C 3.164062 104.507812 2.359375 104.507812 1.625 104.046875 C 2.507812 103.878906 3.277344 103.144531 3.277344 102.148438 C 3.277344 101.203125 2.507812 100.925781 1.980469 100.925781 C 0.921875 100.925781 0.0390625 101.839844 0.0390625 102.96875 C 0.0390625 104.578125 1.804688 105.285156 3.34375 105.285156 C 5.671875 105.285156 6.929688 102.820312 7.042969 102.613281 C 7.457031 103.914062 8.726562 105.285156 10.832031 105.285156 C 14.460938 105.285156 16.472656 100.75 16.472656 99.867188 C 16.472656 99.515625 16.15625 99.515625 16.042969 99.515625 C 15.730469 99.515625 15.652344 99.65625 15.589844 99.898438 C 14.433594 103.660156 12.039062 104.507812 10.910156 104.507812 C 9.535156 104.507812 8.96875 103.382812 8.96875 102.183594 C 8.96875 101.40625 9.179688 100.636719 9.574219 99.09375 Z M 10.769531 94.269531 "/>
<path style=" stroke:none;fill-rule:nonzero;fill:rgb(0%,0%,0%);fill-opacity:1;" d="M 31.515625 87.710938 L 30.683594 87.710938 C 30.613281 88.25 30.359375 89.710938 30.042969 89.949219 C 29.859375 90.089844 27.960938 90.089844 27.613281 90.089844 L 23.082031 90.089844 C 25.664062 87.8125 26.527344 87.125 28 85.96875 C 29.824219 84.515625 31.515625 82.988281 31.515625 80.652344 C 31.515625 77.671875 28.917969 75.851562 25.761719 75.851562 C 22.722656 75.851562 20.644531 77.992188 20.644531 80.25 C 20.644531 81.511719 21.703125 81.632812 21.957031 81.632812 C 22.542969 81.632812 23.257812 81.210938 23.257812 80.328125 C 23.257812 79.890625 23.082031 79.027344 21.804688 79.027344 C 22.566406 77.285156 24.238281 76.746094 25.394531 76.746094 C 27.859375 76.746094 29.136719 78.652344 29.136719 80.652344 C 29.136719 82.792969 27.613281 84.484375 26.824219 85.367188 L 20.898438 91.226562 C 20.644531 91.445312 20.644531 91.503906 20.644531 92.1875 L 30.78125 92.1875 Z M 31.515625 87.710938 "/>
<path style=" stroke:none;fill-rule:nonzero;fill:rgb(0%,0%,0%);fill-opacity:1;" d="M 57.121094 96.8125 L 66.9375 96.8125 C 67.421875 96.8125 68.09375 96.8125 68.09375 96.105469 C 68.09375 95.398438 67.421875 95.398438 66.9375 95.398438 L 57.121094 95.398438 L 57.121094 85.542969 C 57.121094 85.0625 57.121094 84.386719 56.417969 84.386719 C 55.71875 84.386719 55.71875 85.0625 55.71875 85.542969 L 55.71875 95.398438 L 45.871094 95.398438 C 45.375 95.398438 44.710938 95.398438 44.710938 96.105469 C 44.710938 96.8125 45.375 96.8125 45.871094 96.8125 L 55.71875 96.8125 L 55.71875 106.652344 C 55.71875 107.148438 55.71875 107.816406 56.417969 107.816406 C 57.121094 107.816406 57.121094 107.148438 57.121094 106.652344 Z M 57.121094 96.8125 "/>
<path style=" stroke:none;fill-rule:nonzero;fill:rgb(0%,0%,0%);fill-opacity:1;" d="M 94.992188 91.496094 L 95 91.46875 L 95 91.445312 L 95.011719 91.402344 L 95.027344 91.367188 L 95.035156 91.328125 L 95.039062 91.292969 L 95.046875 91.261719 L 95.0625 91.226562 L 95.070312 91.199219 L 95.074219 91.171875 L 95.074219 91.144531 L 95.082031 91.113281 L 95.089844 91.085938 L 95.097656 91.066406 L 95.097656 91.042969 L 95.105469 91.023438 L 95.105469 91 L 95.109375 90.980469 L 95.109375 90.960938 L 95.117188 90.925781 L 95.117188 90.734375 L 95.125 90.710938 L 95.125 90.691406 C 95.125 90.046875 94.636719 89.738281 94.109375 89.738281 C 93.753906 89.738281 93.191406 89.949219 92.875 90.480469 C 92.800781 90.65625 92.519531 91.734375 92.386719 92.378906 C 92.132812 93.289062 91.890625 94.242188 91.679688 95.1875 L 90.089844 101.519531 C 89.957031 102.050781 88.445312 104.507812 86.125 104.507812 C 84.332031 104.507812 83.9375 102.96875 83.9375 101.660156 C 83.9375 100.046875 84.542969 97.855469 85.734375 94.773438 C 86.300781 93.324219 86.441406 92.9375 86.441406 92.230469 C 86.441406 90.65625 85.3125 89.355469 83.546875 89.355469 C 80.207031 89.355469 78.910156 94.445312 78.910156 94.773438 C 78.910156 95.125 79.261719 95.125 79.332031 95.125 C 79.6875 95.125 79.722656 95.046875 79.898438 94.480469 C 80.851562 91.171875 82.25 90.125 83.449219 90.125 C 83.722656 90.125 84.332031 90.125 84.332031 91.25 C 84.332031 92.132812 83.976562 93.035156 83.722656 93.710938 C 82.324219 97.441406 81.683594 99.445312 81.683594 101.105469 C 81.683594 104.222656 83.898438 105.285156 85.976562 105.285156 C 87.359375 105.285156 88.546875 104.683594 89.527344 103.703125 C 89.074219 105.523438 88.660156 107.253906 87.246094 109.125 C 86.328125 110.308594 84.996094 111.339844 83.371094 111.339844 C 82.890625 111.339844 81.300781 111.226562 80.703125 109.859375 C 81.265625 109.859375 81.734375 109.859375 82.214844 109.425781 C 82.566406 109.125 82.917969 108.65625 82.917969 107.996094 C 82.917969 106.898438 81.972656 106.757812 81.621094 106.757812 C 80.816406 106.757812 79.644531 107.324219 79.644531 109.046875 C 79.644531 110.8125 81.203125 112.109375 83.371094 112.109375 C 87.007812 112.109375 90.621094 108.898438 91.617188 104.929688 Z M 94.992188 91.496094 "/>
<path style=" stroke:none;fill-rule:nonzero;fill:rgb(0%,0%,0%);fill-opacity:1;" d="M 108.863281 87.710938 L 108.03125 87.710938 C 107.960938 88.25 107.707031 89.710938 107.386719 89.949219 C 107.199219 90.089844 105.304688 90.089844 104.960938 90.089844 L 100.425781 90.089844 C 103.011719 87.8125 103.863281 87.125 105.347656 85.96875 C 107.167969 84.515625 108.863281 82.988281 108.863281 80.652344 C 108.863281 77.671875 106.265625 75.851562 103.109375 75.851562 C 100.066406 75.851562 97.992188 77.992188 97.992188 80.25 C 97.992188 81.511719 99.050781 81.632812 99.304688 81.632812 C 99.890625 81.632812 100.605469 81.210938 100.605469 80.328125 C 100.605469 79.890625 100.425781 79.027344 99.148438 79.027344 C 99.910156 77.285156 101.585938 76.746094 102.742188 76.746094 C 105.207031 76.746094 106.484375 78.652344 106.484375 80.652344 C 106.484375 82.792969 104.960938 84.484375 104.167969 85.367188 L 98.246094 91.226562 C 97.992188 91.445312 97.992188 91.503906 97.992188 92.1875 L 108.128906 92.1875 Z M 108.863281 87.710938 "/>
<path style=" stroke:none;fill-rule:nonzero;fill:rgb(0%,0%,0%);fill-opacity:1;" d="M 146.117188 93.386719 L 146.414062 93.386719 L 146.46875 93.378906 L 146.519531 93.378906 L 146.570312 93.375 L 146.617188 93.367188 L 146.71875 93.351562 L 146.765625 93.34375 L 146.816406 93.332031 L 146.859375 93.316406 L 146.902344 93.304688 L 146.945312 93.289062 L 146.984375 93.269531 L 147.027344 93.246094 L 147.0625 93.21875 L 147.097656 93.195312 L 147.132812 93.160156 L 147.164062 93.132812 L 147.191406 93.097656 L 147.203125 93.078125 L 147.226562 93.042969 L 147.238281 93.019531 L 147.246094 93 L 147.261719 92.972656 L 147.269531 92.949219 L 147.273438 92.921875 L 147.28125 92.902344 L 147.289062 92.871094 L 147.296875 92.84375 L 147.296875 92.816406 L 147.304688 92.789062 L 147.304688 92.695312 C 147.304688 91.988281 146.632812 91.988281 146.144531 91.988281 L 125.078125 91.988281 C 124.585938 91.988281 123.921875 91.988281 123.921875 92.695312 C 123.921875 93.386719 124.585938 93.386719 125.109375 93.386719 Z M 146.117188 93.386719 "/>
<path style=" stroke:none;fill-rule:nonzero;fill:rgb(0%,0%,0%);fill-opacity:1;" d="M 146.144531 100.222656 L 146.238281 100.222656 L 146.335938 100.214844 L 146.484375 100.214844 L 146.535156 100.207031 L 146.582031 100.199219 L 146.632812 100.199219 L 146.683594 100.191406 L 146.726562 100.179688 L 146.773438 100.171875 L 146.816406 100.15625 L 146.867188 100.144531 L 146.910156 100.128906 L 146.949219 100.117188 L 146.992188 100.09375 L 147.027344 100.074219 L 147.0625 100.046875 L 147.097656 100.015625 L 147.132812 99.988281 L 147.164062 99.953125 L 147.175781 99.9375 L 147.191406 99.917969 L 147.203125 99.902344 L 147.21875 99.882812 L 147.226562 99.863281 L 147.238281 99.839844 L 147.246094 99.820312 L 147.261719 99.796875 L 147.269531 99.769531 L 147.273438 99.75 L 147.28125 99.71875 L 147.296875 99.664062 L 147.296875 99.636719 L 147.304688 99.605469 L 147.304688 99.515625 C 147.304688 98.808594 146.632812 98.808594 146.117188 98.808594 L 125.109375 98.808594 C 124.585938 98.808594 123.921875 98.808594 123.921875 99.515625 C 123.921875 100.222656 124.585938 100.222656 125.078125 100.222656 Z M 146.144531 100.222656 "/>
<path style=" stroke:none;fill-rule:nonzero;fill:rgb(0%,0%,0%);fill-opacity:1;" d="M 169.386719 99.09375 L 169.386719 102.148438 C 169.386719 103.417969 169.324219 103.800781 166.71875 103.800781 L 165.976562 103.800781 L 165.976562 104.894531 C 167.421875 104.78125 169.253906 104.78125 170.734375 104.78125 C 172.210938 104.78125 174.074219 104.78125 175.507812 104.894531 L 175.507812 103.800781 L 174.773438 103.800781 C 172.167969 103.800781 172.097656 103.417969 172.097656 102.148438 L 172.097656 99.09375 L 175.621094 99.09375 L 175.621094 98.003906 L 172.097656 98.003906 L 172.097656 81.992188 C 172.097656 81.289062 172.097656 81.082031 171.539062 81.082031 C 171.214844 81.082031 171.117188 81.082031 170.832031 81.511719 L 160.03125 98.003906 L 161.027344 98.003906 L 169.605469 84.886719 L 169.605469 98.003906 L 160.03125 98.003906 L 160.03125 99.09375 Z M 169.386719 99.09375 "/>
<path style=" stroke:none;fill-rule:nonzero;fill:rgb(0%,0%,0%);fill-opacity:1;" d="M 297.859375 336.210938 L 297.859375 336.152344 L 297.855469 336.140625 L 297.855469 336.132812 L 297.847656 336.121094 L 297.84375 336.109375 L 297.835938 336.09375 L 297.828125 336.082031 L 297.816406 336.0625 L 297.808594 336.050781 L 297.785156 336.011719 L 297.765625 335.992188 L 297.753906 335.972656 L 297.734375 335.949219 L 297.71875 335.933594 L 297.714844 335.921875 L 297.699219 335.910156 L 297.6875 335.894531 L 297.675781 335.882812 L 297.660156 335.863281 L 297.636719 335.839844 L 297.625 335.820312 L 297.605469 335.804688 L 297.589844 335.785156 L 297.570312 335.765625 L 297.550781 335.75 L 297.539062 335.730469 L 297.460938 335.652344 L 297.4375 335.625 L 297.417969 335.605469 L 297.390625 335.582031 L 297.371094 335.5625 L 297.347656 335.535156 L 297.320312 335.511719 C 293.324219 331.472656 292.300781 325.425781 292.300781 320.527344 C 292.300781 314.953125 293.515625 309.375 297.449219 305.382812 C 297.859375 304.992188 297.859375 304.925781 297.859375 304.832031 C 297.859375 304.605469 297.746094 304.515625 297.550781 304.515625 C 297.230469 304.515625 294.351562 306.6875 292.460938 310.75 C 290.824219 314.28125 290.445312 317.835938 290.445312 320.527344 C 290.445312 323.027344 290.789062 326.890625 292.550781 330.515625 C 294.46875 334.457031 297.230469 336.53125 297.550781 336.53125 C 297.746094 336.53125 297.859375 336.441406 297.859375 336.210938 Z M 297.859375 336.210938 "/>
<path style=" stroke:none;fill-rule:nonzero;fill:rgb(0%,0%,0%);fill-opacity:1;" d="M 310.382812 318.855469 L 310.402344 318.773438 L 310.421875 318.675781 L 310.445312 318.574219 L 310.480469 318.457031 L 310.511719 318.335938 L 310.550781 318.199219 L 310.59375 318.058594 L 310.640625 317.917969 L 310.691406 317.769531 L 310.75 317.617188 L 310.808594 317.453125 L 310.878906 317.300781 L 310.949219 317.140625 L 311.023438 316.980469 L 311.109375 316.820312 L 311.191406 316.65625 L 311.289062 316.503906 L 311.390625 316.347656 L 311.496094 316.203125 L 311.609375 316.058594 L 311.730469 315.917969 L 311.859375 315.789062 L 311.996094 315.667969 L 312.136719 315.550781 L 312.285156 315.449219 L 312.4375 315.359375 L 312.523438 315.3125 L 312.605469 315.277344 L 312.691406 315.242188 L 312.871094 315.179688 L 312.960938 315.152344 L 313.054688 315.132812 L 313.152344 315.113281 L 313.347656 315.089844 L 313.449219 315.082031 L 313.550781 315.082031 C 313.710938 315.082031 314.476562 315.082031 315.152344 315.496094 C 314.257812 315.65625 313.617188 316.457031 313.617188 317.222656 C 313.617188 317.730469 313.960938 318.347656 314.832031 318.347656 C 315.53125 318.347656 316.558594 317.777344 316.558594 316.492188 C 316.558594 314.820312 314.667969 314.382812 313.582031 314.382812 C 311.726562 314.382812 310.601562 316.078125 310.222656 316.8125 C 309.417969 314.703125 307.6875 314.382812 306.765625 314.382812 C 303.425781 314.382812 301.601562 318.507812 301.601562 319.3125 C 301.601562 319.632812 301.921875 319.632812 301.996094 319.632812 C 302.246094 319.632812 302.347656 319.5625 302.40625 319.28125 C 303.492188 315.886719 305.605469 315.082031 306.691406 315.082031 C 307.308594 315.082031 308.421875 315.367188 308.421875 317.222656 C 308.421875 318.214844 307.882812 320.367188 306.691406 324.847656 C 306.183594 326.832031 305.066406 328.175781 303.652344 328.175781 C 303.460938 328.175781 302.726562 328.175781 302.050781 327.757812 C 302.855469 327.605469 303.5625 326.9375 303.5625 326.03125 C 303.5625 325.167969 302.855469 324.917969 302.375 324.917969 C 301.410156 324.917969 300.605469 325.746094 300.605469 326.773438 C 300.605469 328.242188 302.210938 328.882812 303.621094 328.882812 C 305.742188 328.882812 306.886719 326.640625 306.988281 326.453125 C 307.367188 327.636719 308.523438 328.882812 310.441406 328.882812 C 313.746094 328.882812 315.570312 324.757812 315.570312 323.953125 C 315.570312 323.632812 315.28125 323.632812 315.183594 323.632812 C 314.902344 323.632812 314.832031 323.761719 314.765625 323.980469 C 313.710938 327.40625 311.53125 328.175781 310.511719 328.175781 C 309.257812 328.175781 308.742188 327.15625 308.742188 326.0625 C 308.742188 325.355469 308.9375 324.652344 309.296875 323.246094 Z M 310.382812 318.855469 "/>
<path style=" stroke:none;fill-rule:nonzero;fill:rgb(0%,0%,0%);fill-opacity:1;" d="M 346.238281 321.171875 L 346.441406 321.171875 L 346.546875 321.164062 L 346.589844 321.164062 L 346.640625 321.15625 L 346.691406 321.15625 L 346.738281 321.152344 L 346.78125 321.144531 L 346.835938 321.136719 L 346.878906 321.125 L 346.917969 321.113281 L 346.960938 321.097656 L 347.039062 321.074219 L 347.117188 321.035156 L 347.148438 321.007812 L 347.179688 320.988281 L 347.214844 320.957031 L 347.238281 320.933594 L 347.265625 320.898438 L 347.277344 320.882812 L 347.285156 320.863281 L 347.296875 320.84375 L 347.304688 320.824219 L 347.316406 320.804688 L 347.324219 320.785156 L 347.328125 320.757812 L 347.335938 320.738281 L 347.34375 320.714844 L 347.347656 320.6875 L 347.355469 320.664062 L 347.355469 320.636719 L 347.363281 320.609375 L 347.363281 320.527344 C 347.363281 319.882812 346.777344 319.882812 346.238281 319.882812 L 328.914062 319.882812 C 328.375 319.882812 327.796875 319.882812 327.796875 320.527344 C 327.796875 321.171875 328.375 321.171875 328.914062 321.171875 Z M 346.238281 321.171875 "/>
<path style=" stroke:none;fill-rule:nonzero;fill:rgb(0%,0%,0%);fill-opacity:1;" d="M 361.214844 326.0625 L 364.605469 322.765625 C 369.59375 318.347656 371.523438 316.621094 371.523438 313.417969 C 371.523438 309.761719 368.644531 307.195312 364.734375 307.195312 C 361.109375 307.195312 358.746094 310.152344 358.746094 313 C 358.746094 314.792969 360.351562 314.792969 360.433594 314.792969 C 360.996094 314.792969 362.105469 314.40625 362.105469 313.097656 C 362.105469 312.261719 361.535156 311.425781 360.410156 311.425781 C 360.160156 311.425781 360.089844 311.425781 360 311.457031 C 360.730469 309.375 362.460938 308.191406 364.316406 308.191406 C 367.230469 308.191406 368.613281 310.796875 368.613281 313.417969 C 368.613281 315.976562 367.003906 318.507812 365.25 320.496094 L 359.105469 327.347656 C 358.746094 327.695312 358.746094 327.757812 358.746094 328.53125 L 370.625 328.53125 L 371.523438 322.957031 L 370.71875 322.957031 C 370.558594 323.921875 370.339844 325.328125 370.019531 325.8125 C 369.789062 326.0625 367.679688 326.0625 366.980469 326.0625 Z M 361.214844 326.0625 "/>
<path style=" stroke:none;fill-rule:nonzero;fill:rgb(0%,0%,0%);fill-opacity:1;" d="M 382.4375 320.527344 L 382.4375 320.289062 L 382.429688 320.039062 L 382.425781 319.789062 L 382.417969 319.523438 L 382.390625 318.984375 L 382.355469 318.417969 L 382.300781 317.828125 L 382.230469 317.21875 L 382.148438 316.59375 L 382.039062 315.945312 L 381.917969 315.289062 L 381.769531 314.625 L 381.59375 313.953125 L 381.394531 313.269531 L 381.175781 312.582031 L 380.921875 311.894531 L 380.785156 311.554688 L 380.636719 311.214844 L 380.488281 310.871094 L 380.328125 310.53125 C 378.40625 306.597656 375.65625 304.515625 375.335938 304.515625 C 375.140625 304.515625 375.011719 304.636719 375.011719 304.832031 C 375.011719 304.925781 375.011719 304.992188 375.617188 305.570312 C 378.761719 308.734375 380.585938 313.828125 380.585938 320.527344 C 380.585938 325.996094 379.402344 331.632812 375.425781 335.671875 C 375.011719 336.050781 375.011719 336.121094 375.011719 336.210938 C 375.011719 336.402344 375.140625 336.53125 375.335938 336.53125 C 375.65625 336.53125 378.53125 334.351562 380.425781 330.292969 C 382.050781 326.773438 382.4375 323.21875 382.4375 320.527344 Z M 382.4375 320.527344 "/>
<path style=" stroke:none;fill-rule:nonzero;fill:rgb(0%,0%,0%);fill-opacity:1;" d="M 396.917969 312.882812 L 396.160156 312.882812 C 396.097656 313.375 395.863281 314.703125 395.574219 314.921875 C 395.402344 315.050781 393.679688 315.050781 393.363281 315.050781 L 389.238281 315.050781 C 391.589844 312.976562 392.367188 312.351562 393.71875 311.296875 C 395.375 309.972656 396.917969 308.585938 396.917969 306.457031 C 396.917969 303.746094 394.554688 302.085938 391.679688 302.085938 C 388.910156 302.085938 387.019531 304.035156 387.019531 306.089844 C 387.019531 307.242188 387.984375 307.351562 388.214844 307.351562 C 388.75 307.351562 389.398438 306.964844 389.398438 306.160156 C 389.398438 305.761719 389.238281 304.980469 388.074219 304.980469 C 388.769531 303.390625 390.292969 302.902344 391.347656 302.902344 C 393.589844 302.902344 394.753906 304.636719 394.753906 306.457031 C 394.753906 308.40625 393.363281 309.949219 392.644531 310.75 L 387.25 316.085938 C 387.019531 316.285156 387.019531 316.335938 387.019531 316.960938 L 396.25 316.960938 Z M 396.917969 312.882812 "/>
<path style=" stroke:none;fill-rule:nonzero;fill:rgb(0%,0%,0%);fill-opacity:1;" d="M 420.234375 321.171875 L 429.167969 321.171875 C 429.609375 321.171875 430.222656 321.171875 430.222656 320.527344 C 430.222656 319.882812 429.609375 319.882812 429.167969 319.882812 L 420.234375 319.882812 L 420.234375 310.910156 C 420.234375 310.472656 420.234375 309.855469 419.589844 309.855469 C 418.953125 309.855469 418.953125 310.472656 418.953125 310.910156 L 418.953125 319.882812 L 409.988281 319.882812 C 409.53125 319.882812 408.933594 319.882812 408.933594 320.527344 C 408.933594 321.171875 409.53125 321.171875 409.988281 321.171875 L 418.953125 321.171875 L 418.953125 330.128906 C 418.953125 330.582031 418.953125 331.191406 419.589844 331.191406 C 420.234375 331.191406 420.234375 330.582031 420.234375 330.128906 Z M 420.234375 321.171875 "/>
<path style=" stroke:none;fill-rule:nonzero;fill:rgb(0%,0%,0%);fill-opacity:1;" d="M 454.710938 316.328125 L 454.710938 316.304688 L 454.71875 316.285156 L 454.730469 316.246094 L 454.738281 316.214844 L 454.75 316.175781 L 454.757812 316.144531 L 454.761719 316.117188 L 454.769531 316.085938 L 454.777344 316.058594 L 454.78125 316.035156 L 454.789062 316.007812 L 454.792969 315.984375 L 454.800781 315.957031 L 454.800781 315.9375 L 454.808594 315.917969 L 454.808594 315.898438 L 454.8125 315.878906 L 454.8125 315.859375 L 454.820312 315.839844 L 454.820312 315.808594 L 454.828125 315.769531 L 454.828125 315.597656 C 454.828125 315.011719 454.390625 314.730469 453.90625 314.730469 C 453.585938 314.730469 453.070312 314.921875 452.78125 315.40625 C 452.71875 315.566406 452.460938 316.546875 452.339844 317.132812 C 452.109375 317.960938 451.882812 318.832031 451.695312 319.691406 L 450.25 325.457031 C 450.128906 325.941406 448.753906 328.175781 446.632812 328.175781 C 445.003906 328.175781 444.644531 326.773438 444.644531 325.585938 C 444.644531 324.113281 445.199219 322.121094 446.285156 319.3125 C 446.792969 317.996094 446.925781 317.640625 446.925781 317 C 446.925781 315.566406 445.898438 314.382812 444.292969 314.382812 C 441.25 314.382812 440.0625 319.015625 440.0625 319.3125 C 440.0625 319.632812 440.382812 319.632812 440.453125 319.632812 C 440.777344 319.632812 440.808594 319.5625 440.96875 319.050781 C 441.828125 316.035156 443.109375 315.082031 444.203125 315.082031 C 444.453125 315.082031 445.003906 315.082031 445.003906 316.105469 C 445.003906 316.910156 444.683594 317.730469 444.453125 318.347656 C 443.179688 321.742188 442.59375 323.566406 442.59375 325.078125 C 442.59375 327.917969 444.613281 328.882812 446.503906 328.882812 C 447.757812 328.882812 448.84375 328.335938 449.734375 327.445312 C 449.324219 329.101562 448.945312 330.675781 447.660156 332.378906 C 446.824219 333.460938 445.609375 334.398438 444.132812 334.398438 C 443.695312 334.398438 442.242188 334.296875 441.703125 333.046875 C 442.214844 333.046875 442.632812 333.046875 443.078125 332.65625 C 443.398438 332.378906 443.71875 331.957031 443.71875 331.351562 C 443.71875 330.355469 442.859375 330.226562 442.535156 330.226562 C 441.804688 330.226562 440.738281 330.742188 440.738281 332.308594 C 440.738281 333.917969 442.152344 335.097656 444.132812 335.097656 C 447.433594 335.097656 450.730469 332.175781 451.632812 328.5625 Z M 454.710938 316.328125 "/>
<path style=" stroke:none;fill-rule:nonzero;fill:rgb(0%,0%,0%);fill-opacity:1;" d="M 467.339844 312.882812 L 466.578125 312.882812 C 466.519531 313.375 466.289062 314.703125 466 314.921875 C 465.824219 315.050781 464.09375 315.050781 463.789062 315.050781 L 459.660156 315.050781 C 462.011719 312.976562 462.789062 312.351562 464.140625 311.296875 C 465.800781 309.972656 467.339844 308.585938 467.339844 306.457031 C 467.339844 303.746094 464.96875 302.085938 462.101562 302.085938 C 459.328125 302.085938 457.441406 304.035156 457.441406 306.089844 C 457.441406 307.242188 458.40625 307.351562 458.632812 307.351562 C 459.164062 307.351562 459.820312 306.964844 459.820312 306.160156 C 459.820312 305.761719 459.660156 304.980469 458.496094 304.980469 C 459.183594 303.390625 460.714844 302.902344 461.769531 302.902344 C 464.003906 302.902344 465.175781 304.636719 465.175781 306.457031 C 465.175781 308.40625 463.789062 309.949219 463.066406 310.75 L 457.667969 316.085938 C 457.441406 316.285156 457.441406 316.335938 457.441406 316.960938 L 466.667969 316.960938 Z M 467.339844 312.882812 "/>
<path style=" stroke:none;fill-rule:nonzero;fill:rgb(0%,0%,0%);fill-opacity:1;" d="M 501.253906 318.050781 L 501.53125 318.050781 L 501.574219 318.046875 L 501.628906 318.046875 L 501.671875 318.039062 L 501.71875 318.035156 L 501.761719 318.027344 L 501.808594 318.019531 L 501.851562 318.015625 L 501.890625 318 L 501.9375 317.988281 L 501.972656 317.976562 L 502.050781 317.945312 L 502.089844 317.925781 L 502.121094 317.898438 L 502.15625 317.878906 L 502.1875 317.847656 L 502.210938 317.820312 L 502.238281 317.789062 L 502.261719 317.75 L 502.269531 317.738281 L 502.28125 317.71875 L 502.289062 317.699219 L 502.300781 317.671875 L 502.308594 317.652344 L 502.316406 317.628906 L 502.320312 317.609375 L 502.328125 317.582031 L 502.328125 317.558594 L 502.335938 317.53125 L 502.335938 317.507812 L 502.339844 317.480469 L 502.339844 317.421875 C 502.339844 316.78125 501.730469 316.78125 501.285156 316.78125 L 482.105469 316.78125 C 481.648438 316.78125 481.050781 316.78125 481.050781 317.421875 C 481.050781 318.050781 481.648438 318.050781 482.132812 318.050781 Z M 501.253906 318.050781 "/>
<path style=" stroke:none;fill-rule:nonzero;fill:rgb(0%,0%,0%);fill-opacity:1;" d="M 501.285156 324.273438 L 501.371094 324.273438 L 501.460938 324.269531 L 501.59375 324.269531 L 501.640625 324.261719 L 501.683594 324.253906 L 501.730469 324.253906 L 501.769531 324.25 L 501.8125 324.234375 L 501.859375 324.230469 L 501.898438 324.21875 L 501.941406 324.203125 L 502.019531 324.179688 L 502.058594 324.160156 L 502.089844 324.140625 L 502.121094 324.113281 L 502.15625 324.089844 L 502.1875 324.0625 L 502.210938 324.03125 L 502.226562 324.019531 L 502.238281 324 L 502.25 323.984375 L 502.261719 323.964844 L 502.269531 323.945312 L 502.28125 323.925781 L 502.289062 323.910156 L 502.300781 323.890625 L 502.308594 323.863281 L 502.316406 323.84375 L 502.320312 323.816406 L 502.328125 323.792969 L 502.328125 323.765625 L 502.335938 323.742188 L 502.335938 323.714844 L 502.339844 323.691406 L 502.339844 323.632812 C 502.339844 322.988281 501.730469 322.988281 501.253906 322.988281 L 482.132812 322.988281 C 481.648438 322.988281 481.050781 322.988281 481.050781 323.632812 C 481.050781 324.273438 481.648438 324.273438 482.105469 324.273438 Z M 501.285156 324.273438 "/>
<path style=" stroke:none;fill-rule:nonzero;fill:rgb(0%,0%,0%);fill-opacity:1;" d="M 522.445312 323.246094 L 522.445312 326.03125 C 522.445312 327.1875 522.382812 327.535156 520.015625 327.535156 L 519.34375 327.535156 L 519.34375 328.53125 C 520.660156 328.425781 522.324219 328.425781 523.667969 328.425781 C 525.019531 328.425781 526.714844 328.425781 528.019531 328.53125 L 528.019531 327.535156 L 527.34375 327.535156 C 524.980469 327.535156 524.914062 327.1875 524.914062 326.03125 L 524.914062 323.246094 L 528.121094 323.246094 L 528.121094 322.257812 L 524.914062 322.257812 L 524.914062 307.679688 C 524.914062 307.035156 524.914062 306.847656 524.40625 306.847656 C 524.113281 306.847656 524.023438 306.847656 523.765625 307.242188 L 513.929688 322.257812 L 514.828125 322.257812 L 522.644531 310.3125 L 522.644531 322.257812 L 513.929688 322.257812 L 513.929688 323.246094 Z M 522.445312 323.246094 "/>
<path style=" stroke:none;fill-rule:nonzero;fill:rgb(94.921875%,94.921875%,94.921875%);fill-opacity:1;" d="M 259.589844 273.421875 C 239.746094 258.785156 226.234375 235.507812 223.15625 210.652344 L 222.179688 202.773438 L 310.835938 202.773438 L 310.835938 209.066406 C 310.835938 226.472656 296.253906 255.21875 280.570312 268.722656 C 268.417969 279.191406 267.648438 279.363281 259.589844 273.421875 Z M 259.589844 273.421875 "/>
<path style=" stroke:none;fill-rule:nonzero;fill:rgb(92.576599%,92.576599%,92.576599%);fill-opacity:1;" d="M 223.15625 191.183594 C 225.726562 170.421875 236.839844 148.609375 251.863281 134.832031 C 265.511719 122.320312 266.460938 122.125 276.476562 129.769531 C 293.949219 143.113281 308.097656 167.996094 310.335938 189.328125 L 311.355469 199.0625 L 222.179688 199.0625 Z M 263.992188 183.769531 C 263.660156 180.640625 264.640625 179.449219 267.9375 178.976562 C 272.867188 178.273438 278.15625 182.242188 274.210938 183.6875 C 269.5625 185.394531 272.0625 187.9375 278.386719 187.9375 C 285.578125 187.9375 286.1875 187.132812 282.09375 183.035156 C 280.386719 181.328125 279.3125 176.785156 279.3125 171.265625 C 279.3125 161.730469 277.988281 156.414062 275.617188 156.414062 C 274.820312 156.414062 270.671875 162.304688 266.390625 169.511719 C 262.109375 176.714844 257.425781 183.0625 255.980469 183.617188 C 251.40625 185.371094 253.132812 187.9375 258.890625 187.9375 C 263.53125 187.9375 264.359375 187.257812 263.992188 183.769531 Z M 263.992188 183.769531 "/>
</g>
</svg>
