<?xml version="1.0" encoding="UTF-8"?>
<svg xmlns="http://www.w3.org/2000/svg" xmlns:xlink="http://www.w3.org/1999/xlink" width="109pt" height="99pt" viewBox="0 0 109 99" version="1.1">
<defs>
<clipPath id="clip1">
  <path d="M 88 0.636719 L 97 0.636719 L 97 11 L 88 11 Z M 88 0.636719 "/>
</clipPath>
<clipPath id="clip2">
  <path d="M 103 0.636719 L 109 0.636719 L 109 7 L 103 7 Z M 103 0.636719 "/>
</clipPath>
</defs>
<g id="surface1">
<g clip-path="url(#clip1)" clip-rule="nonzero">
<path style=" stroke:none;fill-rule:nonzero;fill:rgb(0%,0%,0%);fill-opacity:1;" d="M 93.582031 1.207031 C 93.894531 2.214844 94.902344 3.320312 95.503906 3.320312 C 96.246094 3.320312 96.414062 4.183594 96.320312 7.015625 C 96.246094 8.742188 96.128906 9.152344 95.695312 9.582031 C 94.640625 10.640625 90.777344 10.328125 89.457031 9.078125 C 89.167969 8.816406 88.878906 8.695312 88.785156 8.816406 C 88.398438 9.464844 91.519531 10.757812 93.464844 10.757812 C 96.007812 10.757812 96.945312 9.773438 96.894531 7.160156 C 96.871094 5.597656 96.222656 1.304688 95.960938 0.871094 C 95.71875 0.488281 95.382812 1.183594 95.382812 2.046875 C 95.382812 3.152344 95.023438 3.03125 94.519531 1.757812 C 94.113281 0.65625 93.273438 0.175781 93.582031 1.207031 Z M 93.582031 1.207031 "/>
</g>
<g clip-path="url(#clip2)" clip-rule="nonzero">
<path style=" stroke:none;fill-rule:nonzero;fill:rgb(0%,0%,0%);fill-opacity:1;" d="M 104.816406 0.847656 C 105.535156 1.039062 105.464844 1.566406 104.214844 4.496094 C 103.710938 5.71875 103.328125 6.773438 103.375 6.847656 C 103.449219 6.894531 104.046875 5.863281 104.71875 4.519531 C 105.414062 3.199219 106.0625 2.117188 106.183594 2.117188 C 106.328125 2.117188 106.878906 2.527344 107.433594 3.007812 L 108.441406 3.917969 L 107.550781 2.695312 C 107.070312 2 106.664062 1.277344 106.664062 1.0625 C 106.664062 0.75 106.425781 0.679688 105.535156 0.703125 C 104.886719 0.726562 104.574219 0.773438 104.816406 0.847656 Z M 104.816406 0.847656 "/>
</g>
<path style=" stroke:none;fill-rule:nonzero;fill:rgb(0%,0%,0%);fill-opacity:1;" d="M 99.894531 1.542969 C 99.414062 1.757812 98.960938 2.09375 98.886719 2.285156 C 98.648438 2.910156 98.960938 2.960938 99.582031 2.359375 C 100.015625 1.949219 100.472656 1.808594 101.3125 1.78125 C 101.9375 1.78125 102.65625 1.855469 102.894531 1.976562 C 103.183594 2.117188 103.304688 2.070312 103.304688 1.808594 C 103.304688 1.085938 101.382812 0.941406 99.894531 1.542969 Z M 99.894531 1.542969 "/>
<path style=" stroke:none;fill-rule:nonzero;fill:rgb(0%,0%,0%);fill-opacity:1;" d="M 89.382812 2.816406 C 89.382812 3.078125 88.832031 3.96875 88.160156 4.808594 C 86.433594 6.96875 76.953125 16.6875 70.59375 22.832031 L 65.167969 28.085938 L 63.175781 27.007812 C 59.816406 25.160156 54.726562 23.285156 51.824219 22.78125 C 51.296875 22.6875 50.601562 22.445312 50.265625 22.277344 C 49.929688 22.085938 49.230469 21.894531 48.726562 21.824219 L 47.769531 21.679688 L 47.839844 20.117188 C 48.007812 16.664062 48.152344 16.277344 49.664062 15.726562 C 49.976562 15.605469 48.320312 12.222656 47.9375 12.222656 C 47.550781 12.199219 46.375 13.808594 45.558594 15.488281 C 44.769531 17.070312 44.960938 17.40625 46.398438 16.976562 C 46.953125 16.808594 47.457031 16.757812 47.527344 16.832031 C 47.625 16.902344 47.601562 17.910156 47.503906 19.039062 C 47.335938 21.222656 47.023438 21.800781 46.089844 21.800781 C 45.078125 21.800781 41.527344 22.496094 39.945312 23 C 39.078125 23.285156 37.207031 24.078125 35.742188 24.800781 C 26.792969 29.144531 20 38.382812 18.222656 48.605469 L 17.792969 51.078125 L 16.207031 51.078125 C 14.265625 51.078125 7.015625 50.648438 5.839844 50.453125 C 5.046875 50.335938 4.976562 50.261719 4.761719 49.230469 C 4.640625 48.605469 4.425781 48.078125 4.28125 48.03125 C 4.136719 47.984375 3.488281 48.367188 2.839844 48.917969 C 2.191406 49.445312 1.566406 49.878906 1.425781 49.878906 C 0.96875 49.902344 -0.207031 51.101562 0.03125 51.34375 C 0.296875 51.605469 4.351562 53 4.878906 53 C 5.144531 53 5.167969 52.925781 4.976562 52.734375 C 4.640625 52.398438 5.023438 51.414062 5.527344 51.222656 C 5.863281 51.078125 16.375 51.511719 17.265625 51.679688 C 17.695312 51.773438 17.792969 52.085938 18.03125 54.367188 C 18.609375 59.574219 20.648438 63.65625 24.871094 68.023438 L 26.527344 69.726562 L 23.695312 72.847656 C 22.136719 74.550781 18.726562 78.269531 16.113281 81.101562 C 11.144531 86.453125 10.640625 87.078125 11.238281 87.078125 C 11.433594 87.078125 12.054688 86.527344 12.632812 85.855469 C 14.527344 83.597656 17.3125 80.453125 20.910156 76.613281 C 22.855469 74.503906 24.945312 72.222656 25.519531 71.527344 C 26.097656 70.855469 26.71875 70.277344 26.910156 70.277344 C 27.078125 70.277344 28.351562 70.949219 29.695312 71.765625 C 33.441406 74.023438 36.945312 75.511719 41.144531 76.640625 C 42.390625 76.976562 43.640625 77.238281 43.929688 77.238281 C 44.40625 77.238281 44.433594 77.382812 44.625 82.808594 C 44.742188 85.878906 44.839844 89.046875 44.839844 89.839844 L 44.863281 91.277344 L 42.96875 91.566406 C 41.9375 91.710938 41.023438 91.902344 40.976562 91.976562 C 40.902344 92.046875 41.121094 92.214844 41.457031 92.335938 C 41.863281 92.503906 42.175781 92.910156 42.464844 93.726562 C 43.761719 97.253906 44.601562 98.527344 45.175781 97.808594 C 45.296875 97.664062 45.632812 96.703125 45.945312 95.71875 C 46.230469 94.734375 46.6875 93.511719 46.929688 93.03125 C 47.601562 91.734375 47.527344 91.472656 46.425781 91.304688 C 45.726562 91.207031 45.464844 91.039062 45.464844 90.726562 C 45.464844 90.511719 45.34375 88.6875 45.222656 86.71875 C 45.105469 84.726562 44.984375 81.894531 44.960938 80.40625 L 44.886719 77.671875 L 49.808594 77.71875 C 56.144531 77.742188 61.6875 77.117188 64.832031 76.015625 C 70.351562 74.070312 72.894531 72.605469 75.65625 69.824219 C 79.257812 66.152344 80.671875 62.3125 80.910156 55.566406 L 81.054688 52.039062 L 103.976562 52.039062 L 104.121094 52.566406 C 104.191406 52.878906 104.265625 53.359375 104.265625 53.648438 C 104.265625 54.390625 104.601562 54.34375 105.800781 53.40625 C 106.375 52.976562 107.335938 52.351562 107.960938 52.039062 C 108.558594 51.703125 109.039062 51.34375 108.992188 51.222656 C 108.824219 50.71875 107.648438 50.070312 106.640625 49.949219 C 105.992188 49.878906 105.34375 49.589844 104.9375 49.230469 C 104.097656 48.4375 103.785156 48.679688 103.785156 50.09375 C 103.785156 51.246094 103.785156 51.246094 102.894531 51.414062 C 102.390625 51.488281 97.230469 51.558594 91.398438 51.558594 L 80.816406 51.558594 L 80.40625 49.519531 C 78.992188 42.246094 73.734375 34.519531 66.34375 28.78125 L 65.742188 28.328125 L 78.054688 15.917969 C 87.679688 6.246094 90.34375 3.414062 90.296875 3.007812 C 90.199219 2.3125 89.382812 2.144531 89.382812 2.816406 Z M 47.863281 14.742188 C 47.863281 15.75 47.816406 15.847656 47 16.183594 C 46.519531 16.398438 46.039062 16.472656 45.921875 16.351562 C 45.65625 16.085938 47.144531 13.640625 47.550781 13.640625 C 47.769531 13.640625 47.863281 14 47.863281 14.742188 Z M 49.015625 15.464844 C 48.777344 15.703125 48.34375 15.320312 48.34375 14.886719 C 48.34375 14.527344 48.367188 14.527344 48.75 14.910156 C 48.96875 15.128906 49.089844 15.367188 49.015625 15.464844 Z M 41.144531 23.597656 C 40.785156 24.054688 40.832031 24.054688 42.054688 23.621094 C 42.582031 23.429688 43.902344 23.191406 45.007812 23.09375 L 46.976562 22.925781 L 46.808594 24.464844 C 46.710938 25.304688 46.472656 26.863281 46.257812 27.917969 C 46.039062 28.976562 45.847656 30.488281 45.777344 31.277344 C 45.726562 32.070312 45.488281 35.09375 45.222656 38 C 44.960938 40.902344 44.671875 44.71875 44.601562 46.472656 C 44.457031 49.183594 44.359375 49.808594 43.929688 50.429688 L 43.398438 51.199219 L 30.992188 51.269531 L 18.582031 51.320312 L 18.582031 50.144531 C 18.582031 48.800781 19.496094 44.984375 20.433594 42.558594 C 23.671875 33.96875 31.328125 26.429688 39.703125 23.574219 C 41.382812 23.023438 41.625 23.023438 41.144531 23.597656 Z M 50.359375 23.480469 C 50.648438 23.765625 50.671875 23.71875 48.96875 24.75 C 48.175781 25.230469 47.433594 25.542969 47.3125 25.472656 C 47.097656 25.351562 47.265625 23.621094 47.550781 23.167969 C 47.71875 22.902344 50.046875 23.167969 50.359375 23.480469 Z M 55.664062 24.34375 C 57.441406 24.917969 62.023438 26.863281 62.023438 27.03125 C 62 27.464844 52.089844 34.472656 48.054688 36.941406 C 45.75 38.335938 45.558594 38.238281 45.824219 35.960938 C 45.96875 34.78125 46.113281 34.445312 46.855469 33.726562 C 47.359375 33.246094 48.390625 32.503906 49.183594 32.046875 C 49.976562 31.589844 51.441406 30.75 52.425781 30.152344 C 53.40625 29.550781 54.945312 28.6875 55.808594 28.207031 C 56.671875 27.726562 57.65625 27.128906 57.96875 26.863281 C 59.046875 25.949219 57.777344 26.285156 56.046875 27.34375 C 53.070312 29.167969 46.425781 33.078125 46.28125 33.078125 C 46.0625 33.078125 46.375 31.304688 46.710938 30.558594 C 46.976562 29.960938 50.527344 27.558594 53.046875 26.285156 C 54.273438 25.664062 54.992188 25.015625 54.75 24.773438 C 54.632812 24.65625 49.953125 27.296875 47.839844 28.6875 C 47.382812 28.976562 46.902344 29.238281 46.808594 29.238281 C 46.519531 29.238281 46.878906 27.296875 47.265625 26.695312 C 47.574219 26.214844 48.105469 25.855469 51.054688 24.199219 C 52.328125 23.480469 53.046875 23.503906 55.664062 24.34375 Z M 64.566406 28.542969 C 64.640625 28.664062 61.328125 32.214844 57.199219 36.4375 C 51.777344 42.007812 49.136719 44.550781 47.527344 45.703125 C 45.511719 47.144531 45.34375 47.238281 45.273438 46.757812 C 45.199219 46.398438 45.488281 45.894531 46.113281 45.269531 C 47.097656 44.238281 49.953125 42.246094 51.175781 41.742188 C 51.921875 41.429688 52.207031 41 51.703125 41 C 51.007812 41 48.078125 42.824219 45.535156 44.886719 C 45.296875 45.078125 45.222656 44.933594 45.222656 44.261719 C 45.222656 42.679688 47.023438 41.238281 55.257812 36.199219 C 56.648438 35.359375 56.9375 34.808594 55.734375 35.3125 C 54.65625 35.765625 48.246094 39.894531 46.902344 41 C 45.273438 42.320312 45.246094 42.34375 45.367188 41.3125 C 45.679688 38.863281 45.703125 38.839844 46.542969 38.503906 C 47.527344 38.09375 59.71875 29.839844 61.496094 28.398438 L 62.769531 27.34375 L 63.582031 27.847656 C 64.039062 28.109375 64.496094 28.421875 64.566406 28.542969 Z M 67.734375 30.582031 C 73.855469 35.480469 79.136719 43.976562 80.167969 50.574219 L 80.335938 51.632812 L 70.902344 51.488281 C 65.71875 51.390625 57.75 51.320312 53.214844 51.320312 L 44.984375 51.320312 L 44.984375 50.765625 C 44.984375 50.285156 48.054688 46.304688 48.582031 46.085938 C 48.703125 46.039062 52.398438 42.175781 56.863281 37.496094 C 61.398438 32.71875 65.121094 29 65.335938 29 C 65.574219 29 66.65625 29.71875 67.734375 30.582031 Z M 46.425781 47.671875 C 46.425781 47.886719 45.824219 48.464844 45.296875 48.773438 C 44.792969 49.0625 44.9375 48.488281 45.511719 47.960938 C 46.0625 47.453125 46.425781 47.335938 46.425781 47.671875 Z M 4.136719 49.566406 C 4.089844 50.09375 3.921875 50.261719 3.414062 50.3125 C 2.648438 50.40625 2.550781 50.023438 3.152344 49.351562 C 3.75 48.703125 4.230469 48.800781 4.136719 49.566406 Z M 106.496094 50.765625 L 107.265625 51.199219 L 106.472656 51.269531 C 105.464844 51.367188 104.984375 51.199219 104.984375 50.71875 C 104.984375 50.238281 105.558594 50.261719 106.496094 50.765625 Z M 4.257812 51.246094 C 4.351562 51.296875 4.425781 51.558594 4.425781 51.824219 C 4.425781 52.253906 4.328125 52.304688 3.679688 52.160156 C 3.246094 52.0625 2.527344 51.824219 2.070312 51.632812 C 1.398438 51.367188 1.304688 51.222656 1.566406 51.054688 C 1.878906 50.839844 3.824219 50.984375 4.257812 51.246094 Z M 41.984375 52.039062 C 42.078125 52.183594 41.3125 53.238281 40.28125 54.390625 C 35.71875 59.527344 30.078125 65.742188 28.496094 67.398438 L 26.769531 69.199219 L 25.160156 67.519531 C 20.9375 63.128906 18.894531 58.949219 18.65625 54.246094 L 18.511719 51.800781 L 30.175781 51.800781 C 37.953125 51.800781 41.886719 51.871094 41.984375 52.039062 Z M 44.335938 64.207031 C 44.40625 71.046875 44.433594 76.6875 44.382812 76.734375 C 44.167969 76.925781 39.894531 75.800781 37.640625 74.933594 C 33.34375 73.351562 27.703125 70.230469 27.703125 69.464844 C 27.703125 69.101562 28.304688 68.40625 37.351562 58.351562 C 42.390625 52.757812 43.351562 51.800781 43.929688 51.800781 C 44.121094 51.800781 44.214844 55.277344 44.335938 64.207031 Z M 74.265625 52.015625 L 80.382812 52.160156 L 80.335938 55.757812 C 80.265625 61.421875 79.28125 64.640625 76.496094 68.285156 C 73.640625 72.054688 69.054688 74.453125 61.976562 75.941406 C 60.34375 76.277344 58.542969 76.664062 57.945312 76.808594 C 56.769531 77.09375 45.320312 77.191406 45.054688 76.902344 C 44.984375 76.832031 44.839844 71.335938 44.792969 64.6875 C 44.695312 53.550781 44.71875 52.589844 45.078125 52.207031 C 45.464844 51.824219 46.449219 51.800781 56.816406 51.824219 C 63.054688 51.847656 70.902344 51.941406 74.265625 52.015625 Z M 105.945312 52.542969 C 105.273438 53.117188 105.078125 53.191406 105.03125 52.878906 C 104.863281 52.160156 105.199219 51.800781 105.992188 51.800781 L 106.785156 51.824219 Z M 44.695312 92.621094 C 44.121094 92.933594 44.144531 93.847656 44.742188 95 C 45.273438 96.054688 45.367188 96.800781 44.9375 97.0625 C 44.550781 97.304688 44.121094 96.605469 43.542969 94.855469 C 42.945312 93.101562 43.0625 92.480469 43.976562 92.167969 C 44.769531 91.878906 45.320312 92.261719 44.695312 92.621094 Z M 46.496094 92.023438 C 46.566406 92.117188 46.472656 92.527344 46.230469 92.933594 C 45.847656 93.65625 45.824219 93.65625 45.75 93.128906 C 45.609375 92.191406 46.039062 91.566406 46.496094 92.023438 Z M 46.496094 92.023438 "/>
<path style=" stroke:none;fill-rule:nonzero;fill:rgb(0%,0%,0%);fill-opacity:1;" d="M 101.503906 3.320312 C 100.160156 3.605469 99.03125 4.0625 99.414062 4.207031 C 99.582031 4.277344 100.449219 4.160156 101.335938 3.917969 C 104.023438 3.269531 104.167969 2.789062 101.503906 3.320312 Z M 101.503906 3.320312 "/>
<path style=" stroke:none;fill-rule:nonzero;fill:rgb(0%,0%,0%);fill-opacity:1;" d="M 36.464844 5.023438 C 36.75 5.960938 37.230469 6.773438 37.761719 7.253906 C 38.289062 7.734375 38.191406 7.734375 39.75 6.96875 C 39.992188 6.847656 40.425781 8.574219 40.425781 9.679688 C 40.425781 10.519531 40.28125 10.757812 39.105469 11.839844 C 37.640625 13.207031 37.449219 13.78125 38.457031 14.046875 C 40.015625 14.429688 40.761719 13.855469 41.046875 12.054688 C 41.191406 11.09375 41.382812 10.832031 42.632812 9.773438 C 44.265625 8.429688 44.214844 8.261719 42.535156 9.34375 C 41.863281 9.773438 41.265625 10.015625 41.167969 9.894531 C 41.046875 9.773438 40.785156 8.671875 40.542969 7.445312 C 40.257812 5.933594 40.015625 5.238281 39.800781 5.238281 C 39.609375 5.238281 39.464844 5.453125 39.464844 5.695312 C 39.464844 5.933594 39.246094 6.390625 39.007812 6.703125 C 38.457031 7.398438 38.191406 7.207031 37.425781 5.671875 C 36.894531 4.542969 36.175781 4.0625 36.464844 5.023438 Z M 40.425781 12.246094 C 40.425781 12.847656 39.777344 13.640625 39.296875 13.640625 C 38.695312 13.640625 38.671875 12.917969 39.222656 12.296875 C 39.921875 11.574219 40.425781 11.550781 40.425781 12.246094 Z M 40.425781 12.246094 "/>
<path style=" stroke:none;fill-rule:nonzero;fill:rgb(0%,0%,0%);fill-opacity:1;" d="M 103.304688 56.480469 C 103.304688 56.695312 103.6875 57.175781 104.144531 57.582031 C 104.601562 57.992188 104.984375 58.472656 104.984375 58.664062 C 104.984375 58.855469 104.433594 59.886719 103.761719 60.96875 C 102.152344 63.582031 102.03125 63.800781 102.320312 63.800781 C 102.464844 63.800781 103.230469 62.816406 104.023438 61.640625 C 104.816406 60.4375 105.558594 59.480469 105.679688 59.480469 C 105.800781 59.480469 106.351562 60.078125 106.902344 60.824219 C 108.320312 62.695312 108.414062 62.238281 107.023438 60.199219 C 105.945312 58.640625 105.871094 58.496094 106.183594 57.871094 C 106.472656 57.246094 106.496094 57.222656 106.6875 57.679688 C 106.832031 58.085938 106.878906 58.039062 106.878906 57.4375 C 106.902344 56.742188 106.542969 55.902344 106.351562 56.117188 C 106.28125 56.191406 106.0625 56.597656 105.824219 57.054688 L 105.414062 57.847656 L 104.527344 56.984375 C 103.566406 56.023438 103.304688 55.925781 103.304688 56.480469 Z M 103.304688 56.480469 "/>
</g>
</svg>
