<?xml version="1.0" encoding="UTF-8"?>
<svg xmlns="http://www.w3.org/2000/svg" xmlns:xlink="http://www.w3.org/1999/xlink" width="111pt" height="88pt" viewBox="0 0 111 88" version="1.1">
<defs>
<clipPath id="clip1">
  <path d="M 36 0.511719 L 42 0.511719 L 42 12 L 36 12 Z M 36 0.511719 "/>
</clipPath>
<clipPath id="clip2">
  <path d="M 101 0.511719 L 106 0.511719 L 106 6 L 101 6 Z M 101 0.511719 "/>
</clipPath>
<clipPath id="clip3">
  <path d="M 105 0.511719 L 106 0.511719 L 106 2 L 105 2 Z M 105 0.511719 "/>
</clipPath>
<clipPath id="clip4">
  <path d="M 90 0.511719 L 95 0.511719 L 95 13 L 90 13 Z M 90 0.511719 "/>
</clipPath>
</defs>
<g id="surface1">
<g clip-path="url(#clip1)" clip-rule="nonzero">
<path style=" stroke:none;fill-rule:nonzero;fill:rgb(0%,0%,0%);fill-opacity:1;" d="M 36.039062 2.328125 C 36.136719 3.550781 36.28125 4.273438 36.546875 4.535156 C 36.90625 4.894531 37.023438 4.824219 38.03125 3.792969 L 39.113281 2.664062 L 39.113281 4.078125 C 39.113281 5.304688 39.039062 5.542969 38.5625 5.855469 C 37.863281 6.289062 36.570312 8.28125 36.351562 9.214844 C 36.160156 9.984375 36.59375 11.230469 37.167969 11.519531 C 38.320312 12.144531 39.210938 10.75 39.59375 7.800781 C 39.882812 5.617188 39.976562 5.449219 41.175781 4.703125 C 42.210938 4.054688 41.898438 3.886719 40.769531 4.488281 C 40.359375 4.679688 39.976562 4.800781 39.929688 4.75 C 39.855469 4.703125 39.714844 3.960938 39.570312 3.121094 C 39.425781 2.28125 39.234375 1.488281 39.113281 1.367188 C 38.992188 1.246094 38.65625 1.679688 38.320312 2.351562 C 37.722656 3.527344 37.050781 4.273438 36.808594 4.054688 C 36.738281 3.984375 36.617188 3.144531 36.546875 2.207031 C 36.351562 -0.121094 35.898438 -0.0234375 36.039062 2.328125 Z M 39.234375 7.511719 C 38.945312 10.078125 38.175781 11.304688 37.3125 10.582031 C 36.617188 10.007812 36.976562 8.566406 38.320312 6.792969 C 39.210938 5.617188 39.425781 5.808594 39.234375 7.511719 Z M 39.234375 7.511719 "/>
</g>
<g clip-path="url(#clip2)" clip-rule="nonzero">
<path style=" stroke:none;fill-rule:nonzero;fill:rgb(0%,0%,0%);fill-opacity:1;" d="M 102.472656 0.742188 C 102.472656 0.863281 102.640625 1.128906 102.855469 1.34375 C 103.289062 1.75 103.191406 2.136719 102.066406 4.414062 C 101.105469 6.359375 101.609375 6.238281 102.6875 4.273438 C 103.242188 3.261719 103.792969 2.421875 103.890625 2.421875 C 103.984375 2.421875 104.417969 2.925781 104.847656 3.527344 C 105.929688 5.0625 106.023438 4.703125 104.992188 3 C 104.488281 2.183594 104.175781 1.367188 104.226562 1.078125 C 104.296875 0.625 104.199219 0.550781 103.386719 0.550781 C 102.882812 0.527344 102.472656 0.625 102.472656 0.742188 Z M 102.472656 0.742188 "/>
</g>
<g clip-path="url(#clip3)" clip-rule="nonzero">
<path style=" stroke:none;fill-rule:nonzero;fill:rgb(0%,0%,0%);fill-opacity:1;" d="M 105.113281 0.671875 C 105.113281 0.769531 105.234375 1.03125 105.351562 1.222656 C 105.546875 1.535156 105.59375 1.535156 105.59375 1.175781 C 105.59375 0.960938 105.496094 0.695312 105.351562 0.625 C 105.234375 0.550781 105.113281 0.550781 105.113281 0.671875 Z M 105.113281 0.671875 "/>
</g>
<g clip-path="url(#clip4)" clip-rule="nonzero">
<path style=" stroke:none;fill-rule:nonzero;fill:rgb(0%,0%,0%);fill-opacity:1;" d="M 90.328125 1.320312 C 90.066406 2.351562 91.050781 5.0625 91.695312 5.0625 C 91.839844 5.0625 92.273438 4.726562 92.65625 4.320312 C 93.039062 3.886719 93.402344 3.601562 93.449219 3.648438 C 93.519531 3.695312 93.617188 4.152344 93.714844 4.632812 C 93.882812 5.472656 93.808594 5.589844 92.992188 6.3125 C 91.625 7.535156 90.953125 8.855469 90.953125 10.320312 C 90.953125 11.398438 91.050781 11.6875 91.648438 12.289062 C 92.03125 12.671875 92.535156 12.984375 92.753906 12.984375 C 93.472656 12.984375 94.265625 11.902344 94.457031 10.679688 C 94.695312 9.09375 94.410156 4.777344 93.953125 3.023438 C 93.519531 1.414062 93.113281 0.792969 93.113281 1.703125 C 93.089844 2.566406 92.226562 4.34375 91.839844 4.34375 C 91.386719 4.34375 91.191406 3.839844 91.191406 2.710938 C 91.191406 0.984375 90.640625 0.09375 90.328125 1.320312 Z M 93.953125 9.070312 C 93.953125 12.238281 93.378906 13.03125 92.03125 11.664062 C 90.976562 10.632812 91.359375 8.757812 92.945312 7.03125 C 93.785156 6.144531 93.953125 6.480469 93.953125 9.070312 Z M 93.953125 9.070312 "/>
</g>
<path style=" stroke:none;fill-rule:nonzero;fill:rgb(0%,0%,0%);fill-opacity:1;" d="M 97.671875 1.632812 C 97.21875 1.824219 96.953125 2.183594 96.953125 2.734375 C 96.953125 3.144531 97 3.144531 97.578125 2.6875 C 98.34375 2.085938 99.28125 2.039062 99.882812 2.589844 C 100.289062 2.953125 100.3125 2.953125 100.3125 2.496094 C 100.3125 1.75 98.703125 1.246094 97.671875 1.632812 Z M 97.671875 1.632812 "/>
<path style=" stroke:none;fill-rule:nonzero;fill:rgb(0%,0%,0%);fill-opacity:1;" d="M 98.296875 4.054688 C 97.503906 4.273438 96.832031 4.609375 96.761719 4.800781 C 96.617188 5.207031 97.671875 4.992188 99.714844 4.199219 C 100.890625 3.769531 101.03125 3.648438 100.433594 3.648438 C 100.050781 3.671875 99.066406 3.839844 98.296875 4.054688 Z M 98.296875 4.054688 "/>
<path style=" stroke:none;fill-rule:nonzero;fill:rgb(0%,0%,0%);fill-opacity:1;" d="M 85.359375 4.945312 C 83.441406 7.96875 77.824219 14.113281 70.839844 20.832031 L 66.210938 25.296875 L 64.097656 24.289062 C 59.632812 22.222656 55.335938 20.953125 50.679688 20.28125 C 49.289062 20.085938 48.113281 19.894531 48.066406 19.871094 C 47.871094 19.679688 48.496094 11.6875 48.714844 11.421875 C 49.023438 11.0625 48.855469 9.863281 48.425781 8.976562 C 48.234375 8.566406 48.234375 8.183594 48.449219 7.441406 C 48.617188 6.886719 48.664062 6.359375 48.546875 6.238281 C 48.234375 5.925781 47.273438 6.289062 47.273438 6.71875 C 47.273438 7.273438 46.386719 8.902344 45.640625 9.695312 C 44.871094 10.511719 45.089844 10.800781 46.695312 11.015625 L 47.871094 11.183594 L 47.945312 12.382812 C 48.015625 13.390625 47.585938 19.726562 47.441406 19.847656 C 47.417969 19.871094 45.136719 20.304688 42.351562 20.785156 C 34.144531 22.222656 31.167969 23.589844 26.96875 27.742188 C 22.121094 32.542969 19.386719 37.96875 18.304688 45.023438 L 17.898438 47.734375 L 15.351562 47.878906 C 13.960938 47.953125 11.128906 48.09375 9.015625 48.167969 C 4.816406 48.335938 4.792969 48.335938 4.792969 46.871094 C 4.792969 45.792969 4.21875 45.625 3.351562 46.464844 C 2.96875 46.847656 2.082031 47.542969 1.386719 48.023438 C 0.160156 48.863281 -0.390625 49.703125 0.304688 49.703125 C 0.472656 49.703125 0.882812 49.992188 1.21875 50.328125 C 1.9375 51.09375 3.28125 51.9375 3.617188 51.816406 C 3.761719 51.769531 3.449219 51.433594 2.898438 51.070312 C 1.816406 50.351562 1.074219 49.367188 1.3125 48.984375 C 1.386719 48.863281 1.984375 48.742188 2.65625 48.742188 C 3.808594 48.742188 3.832031 48.769531 3.832031 49.464844 C 3.832031 49.945312 3.953125 50.183594 4.191406 50.183594 C 4.386719 50.183594 4.554688 49.96875 4.554688 49.703125 C 4.554688 49.464844 4.769531 49.128906 5.007812 48.984375 C 5.273438 48.863281 8.226562 48.671875 11.679688 48.601562 L 17.871094 48.433594 L 18.378906 51.121094 C 19.335938 56.085938 21.832031 60.121094 26.25 63.769531 L 28.527344 65.640625 L 27.039062 67.320312 C 26.226562 68.253906 22.984375 71.640625 19.863281 74.832031 C 14.632812 80.160156 13.769531 81.144531 14.367188 81.144531 C 14.703125 81.144531 16.335938 79.75 17.007812 78.886719 C 17.488281 78.261719 23.898438 71.351562 28.457031 66.527344 L 28.984375 65.953125 L 31.722656 67.152344 C 35.898438 69.023438 39.351562 70.03125 44.65625 70.917969 L 45.519531 71.0625 L 45.664062 73.992188 C 45.761719 75.601562 45.832031 77.472656 45.832031 78.167969 L 45.832031 79.441406 L 44.824219 79.703125 C 44.25 79.847656 43.410156 80.085938 42.953125 80.253906 L 42.113281 80.542969 L 42.808594 80.617188 C 43.191406 80.664062 43.984375 80.589844 44.585938 80.421875 C 45.160156 80.28125 45.6875 80.207031 45.738281 80.230469 C 45.953125 80.472656 46.097656 84.214844 45.90625 84.71875 C 45.6875 85.273438 45.59375 85.175781 44.511719 83.351562 C 43.433594 81.527344 42.953125 81 42.953125 81.648438 C 42.953125 81.792969 43.167969 82.199219 43.433594 82.582031 C 43.695312 82.945312 44.105469 83.710938 44.367188 84.289062 C 44.609375 84.863281 45.136719 85.703125 45.546875 86.160156 L 46.265625 87 L 46.410156 85.558594 C 46.648438 83.519531 47.199219 80.136719 47.394531 79.632812 C 47.535156 79.296875 47.441406 79.222656 46.816406 79.222656 L 46.074219 79.222656 L 46.074219 71.136719 L 49.191406 70.96875 C 53.417969 70.777344 55.121094 70.488281 58.671875 69.503906 C 66.640625 67.246094 71.632812 64.777344 74.992188 61.367188 C 78.328125 58.03125 80.394531 52.632812 80.394531 47.328125 L 80.394531 45.9375 L 82.265625 45.769531 C 84.257812 45.601562 93.882812 45.023438 99.066406 44.757812 L 102.234375 44.589844 L 102.234375 45.886719 L 102.257812 47.183594 L 103.144531 46.199219 C 103.625 45.671875 104.609375 44.757812 105.304688 44.207031 C 106.625 43.128906 106.839844 42.742188 106.097656 42.742188 C 105.449219 42.742188 103.914062 42.070312 103.050781 41.398438 C 102.640625 41.085938 102.234375 40.917969 102.160156 40.992188 C 102.066406 41.0625 102.066406 41.757812 102.160156 42.527344 C 102.234375 43.320312 102.210938 43.945312 102.089844 43.945312 C 101.96875 43.945312 100.914062 44.0625 99.714844 44.183594 C 98.535156 44.304688 94.695312 44.566406 91.191406 44.757812 C 87.6875 44.976562 83.847656 45.191406 82.625 45.261719 L 80.441406 45.40625 L 80.175781 44.015625 C 79.335938 39.671875 77.65625 36.144531 74.367188 31.871094 C 72.808594 29.832031 72.761719 29.785156 69.59375 27.480469 C 68.199219 26.472656 67.023438 25.609375 66.976562 25.558594 C 66.929688 25.511719 69.738281 22.632812 73.21875 19.175781 C 79.527344 12.886719 82.480469 9.695312 85.050781 6.261719 C 86.296875 4.582031 86.65625 3.863281 86.226562 3.863281 C 86.105469 3.863281 85.722656 4.34375 85.359375 4.945312 Z M 47.847656 9.046875 C 47.921875 9.261719 47.992188 9.695312 47.992188 10.03125 C 47.992188 10.535156 47.921875 10.609375 47.464844 10.488281 C 47.152344 10.414062 46.769531 10.34375 46.625 10.34375 C 46.191406 10.34375 46.242188 9.9375 46.746094 9.261719 C 47.226562 8.589844 47.632812 8.496094 47.847656 9.046875 Z M 47.511719 20.664062 C 47.511719 20.785156 47.199219 20.902344 46.792969 20.902344 C 46.410156 20.902344 46.074219 20.785156 46.074219 20.664062 C 46.074219 20.519531 46.410156 20.421875 46.792969 20.421875 C 47.199219 20.421875 47.511719 20.519531 47.511719 20.664062 Z M 51.640625 20.902344 C 55.839844 21.625 61.167969 23.375 64.863281 25.246094 L 65.777344 25.726562 L 63.6875 27.9375 C 62.5625 29.160156 58.3125 33.671875 54.304688 37.992188 C 50.273438 42.335938 46.863281 45.863281 46.722656 45.863281 C 46.167969 45.863281 47.394531 22.632812 47.992188 22.007812 C 48.28125 21.71875 49.722656 22.246094 50.847656 23.085938 C 51.761719 23.734375 51.832031 23.757812 51.832031 23.304688 C 51.832031 22.726562 50.800781 22.03125 49.144531 21.480469 C 47.992188 21.09375 47.5625 20.421875 48.449219 20.421875 C 48.6875 20.421875 50.128906 20.640625 51.640625 20.902344 Z M 47.007812 21.71875 C 47.226562 21.960938 47.152344 23.785156 46.792969 29.085938 C 46.527344 32.976562 46.242188 38.542969 46.144531 41.449219 L 46 46.777344 L 43.21875 46.917969 C 41.679688 46.992188 36.761719 47.183594 32.273438 47.328125 C 27.785156 47.472656 22.890625 47.664062 21.402344 47.757812 C 19.890625 47.832031 18.640625 47.832031 18.570312 47.757812 C 18.402344 47.472656 18.953125 43.65625 19.457031 41.710938 C 20.753906 36.574219 23.5625 31.703125 27.28125 28.078125 C 31.984375 23.472656 37.023438 21.457031 43.9375 21.40625 C 46.050781 21.382812 46.792969 21.457031 47.007812 21.71875 Z M 68.609375 27.480469 C 69.472656 28.078125 70.601562 28.894531 71.128906 29.351562 L 72.066406 30.167969 L 71.296875 31.390625 C 69.496094 34.320312 66.089844 42.40625 65.824219 44.375 C 65.632812 45.9375 65.441406 46.105469 63.808594 46.105469 C 62.703125 46.105469 62.394531 46.03125 62.394531 45.742188 C 62.394531 44.925781 64.984375 38.230469 66.953125 33.984375 C 69.28125 28.917969 69.425781 28.582031 69.136719 28.582031 C 68.753906 28.582031 65.03125 36.742188 63.496094 40.945312 C 62.609375 43.320312 61.816406 45.433594 61.695312 45.625 C 61.433594 46.105469 60.351562 46.273438 56.105469 46.488281 C 53.5625 46.609375 52.554688 46.582031 52.554688 46.390625 C 52.554688 45.792969 54.832031 39.839844 55.722656 38.113281 C 56.5625 36.480469 59.871094 32.472656 60.136719 32.734375 C 60.183594 32.785156 59.730469 33.9375 59.128906 35.328125 C 57.449219 39.121094 54.976562 46.105469 55.3125 46.105469 C 55.554688 46.105469 56.199219 44.566406 57.257812 41.472656 C 58.3125 38.449219 59.128906 36.648438 61.554688 31.894531 C 62.824219 29.421875 65.921875 26.015625 66.617188 26.28125 C 66.855469 26.375 67.746094 26.902344 68.609375 27.480469 Z M 73.769531 31.945312 C 74.226562 32.472656 75.015625 33.480469 75.496094 34.222656 L 76.386719 35.542969 L 75.882812 36.09375 C 75.089844 36.9375 74.03125 39.238281 72.90625 42.550781 C 71.730469 46.054688 71.992188 45.863281 68.367188 45.863281 C 65.847656 45.863281 65.898438 45.984375 66.855469 42.9375 C 67.984375 39.335938 69.761719 35.207031 71.082031 33.023438 C 72.113281 31.34375 72.378906 30.984375 72.617188 30.984375 C 72.785156 30.984375 73.289062 31.414062 73.769531 31.945312 Z M 77.847656 38.230469 C 79.050781 40.777344 79.121094 41.449219 78.351562 43.007812 C 77.320312 45.023438 76.839844 45.625 76.167969 45.625 C 75.855469 45.625 75.59375 45.527344 75.59375 45.382812 C 75.59375 44.925781 76.625 42.359375 77.058594 41.734375 C 77.320312 41.398438 77.511719 40.917969 77.511719 40.703125 C 77.511719 39.550781 76 41.976562 75.234375 44.375 C 74.824219 45.625 74.824219 45.625 73.816406 45.625 C 73.242188 45.625 72.738281 45.550781 72.640625 45.480469 C 72.472656 45.3125 73.890625 41.136719 74.800781 39.070312 C 75.136719 38.328125 75.546875 37.703125 75.714844 37.703125 C 75.855469 37.703125 76.121094 37.441406 76.265625 37.105469 C 76.410156 36.769531 76.648438 36.503906 76.769531 36.503906 C 76.914062 36.503906 77.394531 37.296875 77.847656 38.230469 Z M 53.417969 42.144531 C 51.761719 46.246094 51.519531 46.632812 50.679688 46.535156 C 49.816406 46.441406 49.890625 45.816406 51.089844 43.34375 C 51.976562 41.496094 54.496094 38.160156 54.664062 38.640625 C 54.714844 38.757812 54.136719 40.34375 53.417969 42.144531 Z M 104.175781 42.863281 C 105.015625 43.320312 104.898438 43.703125 103.914062 43.703125 C 103.144531 43.703125 102.832031 43.390625 103.050781 42.863281 C 103.21875 42.40625 103.289062 42.40625 104.175781 42.863281 Z M 78.714844 44.421875 C 77.992188 45.816406 77.871094 45.480469 78.519531 43.917969 C 78.832031 43.175781 79.097656 42.792969 79.144531 43.03125 C 79.191406 43.246094 79 43.871094 78.714844 44.421875 Z M 50.394531 43.34375 C 50.394531 43.414062 50.175781 43.871094 49.914062 44.351562 C 49.648438 44.855469 49.433594 45.480469 49.433594 45.742188 C 49.433594 46.03125 49.3125 46.367188 49.144531 46.535156 C 48.785156 46.894531 47.273438 46.917969 47.273438 46.558594 C 47.273438 46.273438 49.9375 43.222656 50.226562 43.222656 C 50.320312 43.222656 50.394531 43.273438 50.394531 43.34375 Z M 79.578125 45.3125 C 79.3125 45.574219 79.121094 45.167969 79.3125 44.734375 C 79.503906 44.328125 79.503906 44.328125 79.601562 44.734375 C 79.671875 44.976562 79.648438 45.238281 79.578125 45.3125 Z M 103.671875 44.785156 C 103.503906 44.976562 103.289062 45.070312 103.167969 45 C 102.855469 44.808594 103.144531 44.421875 103.601562 44.421875 C 103.914062 44.421875 103.914062 44.496094 103.671875 44.785156 Z M 79.769531 46.246094 C 80.199219 47.398438 79.746094 51.238281 78.808594 54.023438 C 77.058594 59.28125 73.433594 63.046875 67.335938 65.925781 C 61.816406 68.519531 54.039062 70.34375 48.519531 70.34375 L 46.050781 70.34375 L 46.21875 64.273438 C 46.527344 51.742188 46.671875 47.566406 46.792969 47.472656 C 46.914062 47.351562 58.480469 46.75 70.914062 46.246094 C 75.015625 46.078125 78.640625 45.910156 78.976562 45.886719 C 79.359375 45.886719 79.671875 46.007812 79.769531 46.246094 Z M 3.832031 47.664062 C 3.832031 48.09375 3.714844 48.261719 3.351562 48.261719 C 2.824219 48.261719 2.730469 47.785156 3.160156 47.351562 C 3.617188 46.894531 3.832031 47.015625 3.832031 47.664062 Z M 45.113281 47.519531 C 45.113281 47.640625 43.914062 49.007812 42.449219 50.566406 C 40.984375 52.152344 37.386719 56.039062 34.480469 59.230469 C 31.554688 62.449219 29.082031 65.0625 28.960938 65.0625 C 28.601562 65.0625 25.695312 62.640625 24.136719 61.078125 C 21.113281 57.984375 18.976562 53.664062 18.761719 50.160156 L 18.664062 48.3125 L 22.335938 48.144531 C 27.59375 47.902344 41.296875 47.375 43.386719 47.328125 C 44.320312 47.328125 45.113281 47.398438 45.113281 47.519531 Z M 45.714844 68.113281 L 45.546875 70.34375 L 44.847656 70.34375 C 43.839844 70.34375 38.609375 69.214844 36.378906 68.496094 C 34.144531 67.800781 30.136719 65.976562 29.898438 65.566406 C 29.777344 65.398438 30.066406 64.847656 30.546875 64.273438 C 31.816406 62.734375 37.527344 56.519531 41.847656 52.007812 L 45.714844 47.953125 L 45.785156 56.925781 C 45.832031 61.871094 45.785156 66.910156 45.714844 68.113281 Z M 45.714844 68.113281 "/>
<path style=" stroke:none;fill-rule:nonzero;fill:rgb(0%,0%,0%);fill-opacity:1;" d="M 64.863281 28.367188 C 64.097656 29.28125 59.96875 39.480469 58.9375 42.960938 C 58.503906 44.472656 58.480469 44.664062 58.769531 44.664062 C 58.890625 44.664062 59.226562 43.871094 59.511719 42.910156 C 60.257812 40.414062 62.609375 34.390625 63.257812 33.261719 C 63.976562 31.992188 65.320312 28.609375 65.226562 28.296875 C 65.175781 28.152344 65.03125 28.175781 64.863281 28.367188 Z M 64.863281 28.367188 "/>
<path style=" stroke:none;fill-rule:nonzero;fill:rgb(0%,0%,0%);fill-opacity:1;" d="M 73.097656 36.09375 C 72.066406 37.824219 69.328125 43.847656 69.28125 44.449219 C 69.183594 45.625 69.714844 45.214844 70.121094 43.777344 C 70.359375 42.960938 71.367188 40.726562 72.351562 38.808594 C 73.335938 36.886719 74.03125 35.253906 73.914062 35.183594 C 73.792969 35.113281 73.433594 35.519531 73.097656 36.09375 Z M 73.097656 36.09375 "/>
<path style=" stroke:none;fill-rule:nonzero;fill:rgb(0%,0%,0%);fill-opacity:1;" d="M 109 48.671875 C 108.304688 49.535156 108.257812 49.558594 107.824219 49.152344 C 107.417969 48.792969 106.792969 48.601562 106.792969 48.839844 C 106.792969 48.886719 106.960938 49.320312 107.152344 49.824219 C 107.511719 50.664062 107.511719 50.734375 106.890625 51.816406 C 106.527344 52.441406 105.90625 53.421875 105.519531 54.023438 C 104.394531 55.679688 105.59375 54.527344 106.9375 52.65625 C 107.535156 51.816406 108.113281 51.144531 108.210938 51.144531 C 108.304688 51.144531 108.59375 51.574219 108.832031 52.078125 C 109.050781 52.609375 109.578125 53.328125 109.960938 53.710938 C 110.679688 54.359375 110.679688 54.359375 109.695312 52.558594 C 109.167969 51.550781 108.714844 50.566406 108.714844 50.375 C 108.714844 49.726562 109.695312 48.695312 110.175781 48.816406 C 110.65625 48.9375 110.730469 48.792969 110.488281 48.167969 C 110.25 47.542969 109.769531 47.710938 109 48.671875 Z M 109 48.671875 "/>
</g>
</svg>
