<?xml version="1.0" encoding="UTF-8"?>
<svg xmlns="http://www.w3.org/2000/svg" xmlns:xlink="http://www.w3.org/1999/xlink" width="92pt" height="59pt" viewBox="0 0 92 59" version="1.1">
<defs>
<clipPath id="clip1">
  <path d="M 0 0.878906 L 92 0.878906 L 92 45 L 0 45 Z M 0 0.878906 "/>
</clipPath>
<clipPath id="clip2">
  <path d="M 36 49 L 42 49 L 42 58.878906 L 36 58.878906 Z M 36 49 "/>
</clipPath>
</defs>
<g id="surface1">
<g clip-path="url(#clip1)" clip-rule="nonzero">
<path style=" stroke:none;fill-rule:nonzero;fill:rgb(0%,0%,0%);fill-opacity:1;" d="M 2.566406 9.328125 C 2.425781 17.34375 2.136719 23.101562 1.320312 33.277344 C 0.71875 41.078125 0.648438 42.566406 0.9375 42.734375 C 1.078125 42.832031 1.199219 42.808594 1.199219 42.664062 C 1.199219 42.519531 1.320312 41.367188 1.441406 40.070312 C 1.871094 35.992188 2.878906 16.621094 3.046875 9.832031 L 3.191406 3.304688 L 4.65625 3.183594 C 5.472656 3.109375 12.769531 2.917969 20.878906 2.773438 C 37.65625 2.464844 59.664062 2.632812 71.519531 3.160156 C 80.136719 3.566406 89.878906 4.191406 90.527344 4.382812 C 90.769531 4.453125 91.03125 4.789062 91.105469 5.101562 C 91.34375 6.0625 91.03125 13.503906 90.503906 19.359375 C 90.238281 22.335938 89.902344 26.007812 89.785156 27.519531 C 89.449219 31.023438 89.449219 42.640625 89.761719 43.453125 C 89.878906 43.789062 90.097656 44.078125 90.238281 44.078125 C 90.40625 44.078125 90.433594 43.261719 90.3125 41.488281 C 89.976562 36.808594 90.121094 28.695312 90.671875 22.839844 C 91.390625 15.183594 91.390625 15.085938 91.703125 9.085938 C 91.894531 4.910156 91.894531 3.664062 91.679688 3.375 C 91.441406 3.109375 91.296875 3.085938 91.03125 3.304688 C 90.648438 3.640625 86.710938 3.519531 75.839844 2.871094 C 70.03125 2.535156 64.105469 2.464844 36.238281 2.4375 C 18.214844 2.4375 3.335938 2.34375 3.191406 2.246094 C 2.785156 1.984375 2.785156 1.359375 3.191406 1.359375 C 3.359375 1.359375 3.625 1.480469 3.792969 1.648438 C 3.960938 1.816406 4.078125 1.839844 4.078125 1.695312 C 4.078125 1.335938 3.550781 0.878906 3.097656 0.878906 C 2.761719 0.878906 2.6875 1.695312 2.566406 9.328125 Z M 2.566406 9.328125 "/>
</g>
<path style=" stroke:none;fill-rule:nonzero;fill:rgb(0%,0%,0%);fill-opacity:1;" d="M 56.160156 11.773438 C 55.03125 11.941406 53.808594 12.253906 53.398438 12.472656 C 52.34375 13.070312 48.335938 14.800781 48.046875 14.800781 C 47.902344 14.800781 47.015625 14.414062 46.078125 13.933594 C 42.335938 12.0625 36.550781 11.222656 32.761719 12.015625 C 30.097656 12.566406 26.449219 13.863281 24.792969 14.824219 C 22.585938 16.117188 20.328125 18.496094 19.703125 20.199219 C 18.9375 22.214844 19.054688 25.40625 19.992188 27.183594 C 21.601562 30.351562 25.464844 32.558594 30.601562 33.304688 C 33.40625 33.6875 39.648438 33.136719 44.6875 32.03125 C 45.984375 31.765625 46.105469 31.765625 46.800781 32.269531 C 47.6875 32.941406 50.542969 34.382812 51.910156 34.863281 C 53.28125 35.34375 58.921875 35.75 61.441406 35.558594 C 67.199219 35.101562 73.679688 32.894531 75.550781 30.757812 C 77.015625 29.125 77.375 28.09375 77.375 25.816406 C 77.375 22.933594 76.726562 21.640625 73.703125 18.613281 C 71.113281 16.046875 69.457031 14.941406 66.097656 13.597656 C 64.824219 13.09375 63.527344 12.421875 63.191406 12.109375 C 62.664062 11.632812 62.351562 11.558594 60.40625 11.511719 C 59.183594 11.511719 57.289062 11.632812 56.160156 11.773438 Z M 62.398438 12.160156 C 62.855469 12.472656 61.296875 12.472656 60.601562 12.160156 C 60.214844 11.992188 60.335938 11.941406 61.078125 11.941406 C 61.609375 11.941406 62.207031 12.039062 62.398438 12.160156 Z M 39.070312 12.398438 C 40.34375 12.542969 42.097656 12.878906 42.960938 13.167969 C 44.496094 13.671875 47.28125 14.941406 47.28125 15.160156 C 47.28125 15.230469 46.511719 16.09375 45.601562 17.125 C 44.664062 18.136719 43.609375 19.574219 43.246094 20.292969 C 42.695312 21.472656 42.601562 21.925781 42.601562 23.800781 C 42.601562 26.390625 43.054688 27.855469 44.449219 29.800781 C 45.023438 30.589844 45.335938 31.238281 45.191406 31.382812 C 44.878906 31.695312 39.742188 32.535156 36.167969 32.847656 C 30.167969 33.398438 25.007812 32.054688 22.03125 29.152344 C 20.257812 27.421875 19.800781 26.222656 19.800781 23.320312 C 19.800781 20.320312 20.28125 19.261719 22.558594 17.101562 C 25.078125 14.726562 28.894531 13.117188 32.0625 13.117188 C 33.191406 13.09375 33.382812 13.046875 33.023438 12.855469 C 31.847656 12.160156 34.777344 11.941406 39.070312 12.398438 Z M 60.480469 12.664062 C 63 12.976562 67.152344 14.320312 69.167969 15.472656 C 71.328125 16.742188 75.335938 20.773438 76.222656 22.597656 C 77.183594 24.566406 77.183594 26.847656 76.273438 28.71875 C 75.167969 30.976562 72.886719 32.511719 69.023438 33.613281 C 62.375 35.558594 55.585938 35.703125 51.070312 34 C 49.367188 33.375 47.183594 32.054688 47.089844 31.597656 C 47.0625 31.359375 47.617188 30.976562 48.816406 30.445312 C 52.34375 28.863281 53.425781 27.253906 53.230469 23.824219 C 53.136719 21.664062 52.054688 19.3125 50.0625 16.910156 L 48.71875 15.304688 L 49.246094 14.917969 C 49.992188 14.414062 52.992188 13.191406 54.527344 12.78125 C 56.089844 12.351562 57.816406 12.328125 60.480469 12.664062 Z M 49.488281 17.152344 C 52.273438 20.125 53.496094 24.207031 52.34375 26.679688 C 52.105469 27.207031 51.527344 28 51.097656 28.453125 C 50.015625 29.535156 46.992188 30.976562 46.222656 30.78125 C 45.527344 30.613281 43.824219 28.167969 43.414062 26.773438 C 43.152344 25.910156 43.175781 25.742188 43.921875 24.351562 C 44.832031 22.648438 47.183594 19.09375 48.097656 18.0625 C 48.433594 17.679688 48.71875 17.199219 48.71875 17.007812 C 48.71875 16.3125 47.425781 17.847656 45.359375 20.917969 C 44.257812 22.550781 43.273438 23.847656 43.152344 23.773438 C 42.910156 23.632812 42.910156 22.453125 43.152344 22.09375 C 43.246094 21.949219 43.558594 21.710938 43.871094 21.542969 C 44.160156 21.398438 44.398438 21.160156 44.398438 21.015625 C 44.398438 20.464844 47.808594 16.046875 48.265625 16.023438 C 48.359375 16 48.886719 16.503906 49.488281 17.152344 Z M 44.953125 18.878906 C 44.734375 19.261719 44.449219 19.597656 44.328125 19.597656 C 44.207031 19.597656 44.351562 19.261719 44.640625 18.878906 C 44.929688 18.472656 45.214844 18.160156 45.265625 18.160156 C 45.335938 18.160156 45.191406 18.472656 44.953125 18.878906 Z M 44.953125 18.878906 "/>
<path style=" stroke:none;fill-rule:nonzero;fill:rgb(0%,0%,0%);fill-opacity:1;" d="M 48.695312 19.765625 C 48.265625 20.535156 47.0625 22.527344 46.03125 24.207031 C 45 25.863281 44.160156 27.304688 44.160156 27.375 C 44.160156 27.445312 44.328125 27.519531 44.519531 27.519531 C 44.710938 27.519531 45.144531 26.992188 45.457031 26.367188 C 46.414062 24.496094 48.742188 20.75 49.488281 19.886719 C 49.871094 19.429688 50.136719 18.949219 50.089844 18.808594 C 49.871094 18.160156 49.441406 18.472656 48.695312 19.765625 Z M 48.695312 19.765625 "/>
<path style=" stroke:none;fill-rule:nonzero;fill:rgb(0%,0%,0%);fill-opacity:1;" d="M 50.257812 20.847656 C 49.535156 21.640625 45.839844 27.613281 45.839844 27.949219 C 45.839844 28.527344 46.511719 28.214844 46.753906 27.519531 C 47.0625 26.679688 48.839844 23.847656 50.230469 22.046875 C 50.855469 21.230469 51.121094 20.703125 50.953125 20.535156 C 50.808594 20.390625 50.566406 20.511719 50.257812 20.847656 Z M 50.257812 20.847656 "/>
<path style=" stroke:none;fill-rule:nonzero;fill:rgb(0%,0%,0%);fill-opacity:1;" d="M 51.046875 24.445312 C 49.03125 27.207031 47.761719 29.101562 47.761719 29.390625 C 47.761719 29.992188 48.433594 29.34375 49.632812 27.519531 C 50.304688 26.535156 51.121094 25.453125 51.457031 25.144531 C 52.054688 24.566406 52.296875 23.679688 51.863281 23.679688 C 51.71875 23.679688 51.359375 24.039062 51.046875 24.445312 Z M 51.046875 24.445312 "/>
<path style=" stroke:none;fill-rule:nonzero;fill:rgb(0%,0%,0%);fill-opacity:1;" d="M 51.023438 26.773438 C 50.304688 27.566406 50.734375 27.832031 51.480469 27.039062 C 51.960938 26.535156 52.054688 26.320312 51.792969 26.320312 C 51.601562 26.320312 51.238281 26.535156 51.023438 26.773438 Z M 51.023438 26.773438 "/>
<path style=" stroke:none;fill-rule:nonzero;fill:rgb(0%,0%,0%);fill-opacity:1;" d="M 13.078125 29.726562 C 12.671875 31.527344 12.238281 33.855469 12.238281 34.3125 C 12.265625 34.816406 12.289062 34.816406 12.742188 34.167969 C 13.34375 33.375 13.753906 33.351562 14.398438 34.046875 C 14.878906 34.574219 14.878906 34.574219 14.878906 34.070312 C 14.878906 33.734375 15.097656 33.519531 15.550781 33.398438 L 16.199219 33.230469 L 15.40625 32.941406 C 14.449219 32.605469 14.160156 32.199219 14.160156 31.191406 C 14.160156 30.351562 13.726562 29.199219 13.414062 29.199219 C 13.296875 29.199219 13.152344 29.4375 13.078125 29.726562 Z M 13.921875 32.605469 C 13.921875 32.847656 13.824219 33.039062 13.703125 33.039062 C 13.390625 33.039062 13.199219 32.390625 13.367188 31.933594 C 13.488281 31.621094 13.535156 31.621094 13.703125 31.886719 C 13.824219 32.054688 13.921875 32.390625 13.921875 32.605469 Z M 13.921875 32.605469 "/>
<path style=" stroke:none;fill-rule:nonzero;fill:rgb(0%,0%,0%);fill-opacity:1;" d="M 79.054688 30.351562 C 78.910156 30.445312 78.71875 31.527344 78.671875 32.726562 C 78.601562 33.976562 78.40625 35.125 78.238281 35.320312 C 78.070312 35.511719 78.023438 35.847656 78.097656 36.0625 C 78.3125 36.613281 82.105469 36.472656 82.703125 35.871094 C 83.089844 35.488281 83.089844 35.4375 82.703125 34.863281 C 82.488281 34.527344 81.984375 34.070312 81.574219 33.855469 L 80.832031 33.472656 L 81.574219 32.800781 C 81.984375 32.414062 82.320312 31.933594 82.320312 31.742188 C 82.320312 31.238281 81.671875 30.664062 80.929688 30.496094 C 79.488281 30.207031 79.296875 30.183594 79.054688 30.351562 Z M 81.3125 31.261719 C 82.03125 31.765625 81.984375 31.910156 80.878906 32.65625 C 80.351562 32.992188 79.921875 33.375 79.921875 33.472656 C 79.921875 33.589844 80.425781 33.949219 81.070312 34.285156 C 81.792969 34.671875 82.199219 35.054688 82.199219 35.34375 C 82.199219 35.726562 81.984375 35.800781 80.785156 35.871094 C 80.015625 35.917969 79.273438 35.847656 79.175781 35.75 C 78.984375 35.558594 79.320312 31.480469 79.585938 31.09375 C 79.777344 30.757812 80.734375 30.855469 81.3125 31.261719 Z M 81.3125 31.261719 "/>
<path style=" stroke:none;fill-rule:nonzero;fill:rgb(0%,0%,0%);fill-opacity:1;" d="M 0 45.613281 C 0 46.046875 0.167969 46.070312 4.273438 45.925781 C 6.601562 45.832031 26.519531 45.6875 48.550781 45.589844 C 70.558594 45.519531 88.511719 45.375 88.441406 45.328125 C 88.367188 45.253906 68.449219 45.183594 44.160156 45.183594 C 0.886719 45.160156 0 45.160156 0 45.613281 Z M 0 45.613281 "/>
<g clip-path="url(#clip2)" clip-rule="nonzero">
<path style=" stroke:none;fill-rule:nonzero;fill:rgb(0%,0%,0%);fill-opacity:1;" d="M 38.542969 49.765625 C 38.472656 50.007812 38.304688 50.894531 38.160156 51.757812 C 37.800781 53.75 37.535156 54.398438 37.078125 54.398438 C 36.886719 54.398438 36.71875 54.496094 36.71875 54.640625 C 36.71875 54.757812 36.886719 54.878906 37.054688 54.878906 C 37.320312 54.878906 37.441406 55.238281 37.488281 56.125 L 37.558594 57.398438 L 37.921875 56.222656 C 38.328125 54.902344 38.761719 54.566406 39 55.40625 C 39.335938 56.535156 39.960938 58 40.152344 58 C 40.367188 58 40.367188 58.117188 39.984375 56.605469 C 39.574219 55.09375 39.671875 54.640625 40.464844 54.640625 C 40.777344 54.640625 41.039062 54.519531 41.039062 54.398438 C 41.039062 54.253906 40.726562 54.160156 40.367188 54.160156 C 40.007812 54.160156 39.574219 54.039062 39.40625 53.871094 C 39.046875 53.511719 39.046875 52.382812 39.40625 51.375 C 39.625 50.773438 39.625 50.4375 39.40625 49.957031 C 39.097656 49.261719 38.734375 49.191406 38.542969 49.765625 Z M 38.640625 53.703125 C 38.640625 53.96875 38.542969 54.136719 38.398438 54.039062 C 38.28125 53.96875 38.230469 53.75 38.328125 53.558594 C 38.496094 53.054688 38.640625 53.101562 38.640625 53.703125 Z M 38.640625 53.703125 "/>
</g>
<path style=" stroke:none;fill-rule:nonzero;fill:rgb(0%,0%,0%);fill-opacity:1;" d="M 45.433594 49.839844 C 44.496094 50.390625 43.824219 51.664062 43.414062 53.582031 C 43.105469 55.167969 43.246094 56.320312 43.800781 56.320312 C 44.230469 56.320312 44.28125 55.933594 43.894531 55.695312 C 43.535156 55.480469 43.800781 53.246094 44.304688 52.046875 C 45.910156 48.207031 48.070312 50.414062 47.640625 55.453125 C 47.519531 56.871094 47.542969 57.328125 47.761719 57.136719 C 47.902344 56.992188 48.046875 55.839844 48.070312 54.375 C 48.121094 52.285156 48.046875 51.734375 47.640625 50.941406 C 46.921875 49.527344 46.367188 49.261719 45.433594 49.839844 Z M 45.433594 49.839844 "/>
<path style=" stroke:none;fill-rule:nonzero;fill:rgb(0%,0%,0%);fill-opacity:1;" d="M 53.398438 50.800781 C 53.496094 50.941406 53.976562 51.253906 54.503906 51.519531 C 55.609375 52.09375 55.65625 52.285156 54.839844 52.816406 C 53.929688 53.414062 54.097656 54.0625 55.320312 54.925781 C 56.28125 55.597656 56.375 55.742188 56.039062 55.984375 C 55.824219 56.152344 55.175781 56.34375 54.574219 56.4375 C 53.953125 56.511719 53.566406 56.679688 53.664062 56.824219 C 53.855469 57.136719 55.632812 56.871094 56.351562 56.414062 C 57.144531 55.910156 57 55.480469 55.800781 54.640625 C 55.199219 54.230469 54.71875 53.824219 54.71875 53.703125 C 54.71875 53.605469 55.054688 53.222656 55.441406 52.839844 C 55.847656 52.453125 56.160156 52.070312 56.160156 51.976562 C 56.160156 51.734375 54.023438 50.558594 53.59375 50.558594 C 53.398438 50.558594 53.328125 50.679688 53.398438 50.800781 Z M 53.398438 50.800781 "/>
<path style=" stroke:none;fill-rule:nonzero;fill:rgb(0%,0%,0%);fill-opacity:1;" d="M 52.585938 52.742188 C 52.609375 53.726562 52.703125 54.78125 52.800781 55.117188 C 52.921875 55.453125 52.945312 54.710938 52.871094 53.4375 C 52.703125 50.679688 52.558594 50.292969 52.585938 52.742188 Z M 52.585938 52.742188 "/>
</g>
</svg>
