<?xml version="1.0" encoding="UTF-8"?>
<svg xmlns="http://www.w3.org/2000/svg" xmlns:xlink="http://www.w3.org/1999/xlink" width="86pt" height="62pt" viewBox="0 0 86 62" version="1.1">
<defs>
<clipPath id="clip1">
  <path d="M 1 0.230469 L 86 0.230469 L 86 39 L 1 39 Z M 1 0.230469 "/>
</clipPath>
</defs>
<g id="surface1">
<g clip-path="url(#clip1)" clip-rule="nonzero">
<path style=" stroke:none;fill-rule:nonzero;fill:rgb(0%,0%,0%);fill-opacity:1;" d="M 64.765625 0.523438 C 43.285156 1.460938 31.117188 2.179688 19.164062 3.261719 C 14.867188 3.640625 9.371094 4.078125 6.925781 4.222656 C 2.101562 4.507812 1.765625 4.554688 2.027344 4.964844 C 2.125 5.132812 2.578125 5.179688 3.300781 5.085938 C 4.355469 4.9375 8.316406 4.582031 20.722656 3.523438 C 27.539062 2.921875 35.386719 2.371094 41.242188 2.058594 C 51.445312 1.507812 71.84375 0.617188 78.109375 0.472656 L 84.851562 0.304688 L 85.019531 0.886719 C 85.117188 1.195312 85.261719 8.828125 85.332031 17.828125 C 85.453125 32.898438 85.429688 34.242188 85.066406 34.816406 C 84.683594 35.394531 84.683594 35.515625 85.1875 36.859375 C 85.476562 37.648438 85.789062 38.296875 85.90625 38.296875 C 86.101562 38.296875 85.90625 6.042969 85.667969 2.539062 L 85.523438 0.261719 L 78.804688 0.234375 C 75.109375 0.214844 68.796875 0.332031 64.765625 0.523438 Z M 64.765625 0.523438 "/>
</g>
<path style=" stroke:none;fill-rule:nonzero;fill:rgb(0%,0%,0%);fill-opacity:1;" d="M 0.828125 4.816406 C 0.46875 6.261719 -0.203125 36.617188 0.0585938 38.847656 C 0.46875 42.042969 0.636719 39.640625 0.660156 30.546875 C 0.660156 15.472656 0.972656 6.472656 1.453125 6.765625 C 1.714844 6.929688 1.453125 4.703125 1.164062 4.390625 C 1.066406 4.265625 0.925781 4.480469 0.828125 4.816406 Z M 0.828125 4.816406 "/>
<path style=" stroke:none;fill-rule:nonzero;fill:rgb(0%,0%,0%);fill-opacity:1;" d="M 52.523438 8.679688 C 51.132812 8.878906 46.476562 10.027344 46.621094 10.144531 C 46.667969 10.222656 47.675781 10.003906 48.851562 9.71875 C 50.699219 9.214844 51.515625 9.140625 55.402344 9.160156 C 59.195312 9.160156 60.15625 9.234375 61.980469 9.691406 C 64.546875 10.339844 66.5625 11.179688 68.386719 12.429688 C 73.019531 15.496094 74.628906 21.472656 72.15625 26.539062 C 70.789062 29.320312 68.410156 31.144531 64.1875 32.65625 C 57.683594 34.984375 49.8125 35.179688 44.21875 33.160156 C 42.730469 32.609375 40.042969 31.121094 40.042969 30.859375 C 40.066406 30.785156 40.621094 30.351562 41.269531 29.898438 C 42.757812 28.867188 44.773438 26.539062 45.394531 25.121094 C 46.621094 22.363281 45.636719 19.144531 42.757812 16.460938 L 41.148438 14.945312 L 41.867188 14.371094 C 43.019531 13.433594 45.757812 12.214844 48.5625 11.417969 C 53.21875 10.078125 56.964844 10.363281 57.925781 12.113281 C 58.117188 12.472656 58.261719 12.597656 58.285156 12.382812 C 58.285156 11.828125 57.613281 10.984375 56.867188 10.582031 C 54.394531 9.304688 48.253906 10.507812 42.898438 13.265625 L 40.332031 14.589844 L 38.578125 13.984375 C 37.597656 13.648438 36.277344 13.242188 35.628906 13.097656 C 33.613281 12.640625 28.765625 12.382812 26.460938 12.617188 C 24.203125 12.808594 23.195312 13.195312 21.898438 14.273438 C 21.492188 14.609375 20.53125 15.28125 19.765625 15.738281 C 19.019531 16.195312 17.578125 17.441406 16.546875 18.496094 C 13.8125 21.351562 12.757812 23.878906 12.972656 27.09375 C 13.164062 29.828125 14.675781 32.371094 16.882812 33.640625 C 17.21875 33.835938 17.316406 34.144531 17.292969 34.964844 C 17.242188 36.472656 17.507812 36.765625 18.226562 35.992188 C 18.660156 35.488281 18.707031 35.371094 18.394531 35.488281 C 18.058594 35.609375 17.964844 35.515625 17.964844 35.058594 C 17.964844 34.363281 18.132812 34.339844 20.171875 34.792969 C 25.140625 35.921875 29.699219 35.273438 36.253906 32.515625 C 37.8125 31.867188 39.203125 31.339844 39.347656 31.339844 C 39.492188 31.339844 40.042969 31.648438 40.597656 32.011719 C 42.011719 32.972656 44.195312 33.859375 46.429688 34.363281 C 47.964844 34.722656 49.285156 34.816406 53.363281 34.816406 C 58.019531 34.816406 58.597656 34.769531 60.925781 34.167969 C 65.4375 33.015625 69.109375 31.121094 71.125 28.914062 C 73.8125 25.9375 74.605469 20.273438 72.828125 16.769531 C 72.011719 15.160156 69.804688 12.765625 68.074219 11.636719 C 66.636719 10.722656 63.058594 9.472656 60.5625 9.015625 C 58.957031 8.730469 53.820312 8.515625 52.523438 8.679688 Z M 24.804688 13.339844 C 24.132812 13.628906 23.914062 13.628906 24.082031 13.339844 C 24.15625 13.195312 24.46875 13.097656 24.757812 13.121094 C 25.261719 13.121094 25.261719 13.144531 24.804688 13.339844 Z M 31.332031 13.703125 C 32.101562 14.730469 30.949219 19.628906 28.1875 27.066406 C 26.554688 31.480469 25.957031 33.429688 26.195312 33.640625 C 26.410156 33.859375 27.300781 33.28125 27.589844 32.730469 C 27.828125 32.273438 27.804688 32.253906 27.347656 32.371094 C 27.082031 32.441406 26.84375 32.417969 26.84375 32.347656 C 26.84375 32.273438 27.636719 30.042969 28.621094 27.402344 C 29.605469 24.738281 30.683594 21.523438 31.042969 20.253906 C 31.378906 18.976562 31.933594 17.152344 32.242188 16.242188 C 32.578125 15.304688 32.84375 14.226562 32.84375 13.816406 C 32.84375 13.003906 32.988281 12.976562 34.882812 13.433594 C 35.699219 13.628906 36.058594 13.816406 36.035156 14.058594 C 36.011719 14.253906 35.578125 15.664062 35.050781 17.179688 C 34.429688 19.003906 34.019531 20.730469 33.851562 22.222656 C 33.683594 23.730469 33.203125 25.746094 32.410156 28.222656 C 30.972656 32.730469 30.898438 32.972656 31.210938 33.160156 C 31.523438 33.351562 31.882812 32.804688 31.882812 32.085938 C 31.882812 31.769531 32.410156 29.878906 33.058594 27.859375 C 34.234375 24.261719 34.5 23.085938 35.003906 19.582031 C 35.316406 17.515625 36.011719 15.738281 36.539062 15.738281 C 36.804688 15.738281 36.925781 15.523438 36.925781 15.042969 C 36.925781 14.636719 37.042969 14.253906 37.164062 14.179688 C 37.429688 14.011719 39.804688 14.710938 39.804688 14.945312 C 39.804688 15.015625 39.132812 15.785156 38.339844 16.648438 C 37.5 17.539062 36.515625 18.957031 36.109375 19.816406 C 35.410156 21.28125 35.363281 21.546875 35.339844 24.382812 C 35.316406 26.609375 35.171875 27.957031 34.765625 29.515625 C 34.476562 30.664062 34.308594 31.671875 34.378906 31.746094 C 34.570312 31.9375 35.410156 29.878906 35.628906 28.769531 C 35.914062 27.183594 36.058594 27.160156 36.898438 28.460938 C 37.332031 29.132812 37.957031 29.847656 38.269531 30.066406 C 38.578125 30.261719 38.84375 30.523438 38.84375 30.640625 C 38.84375 30.976562 35.484375 32.46875 32.339844 33.523438 C 28.738281 34.722656 25.570312 35.132812 22.597656 34.746094 C 20.4375 34.460938 19.066406 34.144531 18.46875 33.765625 C 18.179688 33.570312 18.324219 32.730469 19.355469 28.648438 C 20.050781 25.964844 21.109375 22.027344 21.707031 19.9375 C 22.957031 15.570312 22.980469 15.523438 22.644531 15.523438 C 22.285156 15.523438 21.972656 16.554688 19.738281 25.222656 C 18.613281 29.5625 17.652344 33.160156 17.605469 33.214844 C 17.410156 33.402344 15.828125 32.273438 15.109375 31.433594 C 14.292969 30.523438 14.171875 29.878906 14.722656 29.417969 C 14.914062 29.253906 15.082031 28.890625 15.082031 28.601562 C 15.082031 28.339844 15.636719 26.207031 16.285156 23.898438 C 16.957031 21.597656 17.484375 19.480469 17.484375 19.242188 C 17.484375 18.261719 17.027344 19.265625 16.402344 21.617188 C 15.660156 24.402344 14.460938 28.167969 14.125 28.703125 C 13.429688 29.804688 13.164062 26.226562 13.765625 23.992188 C 15.300781 18.351562 22.859375 13.003906 29.074219 13.167969 C 30.636719 13.222656 31.019531 13.3125 31.332031 13.703125 Z M 23.53125 13.746094 C 23.363281 13.816406 23.148438 13.792969 23.074219 13.722656 C 22.980469 13.648438 23.125 13.582031 23.386719 13.601562 C 23.652344 13.601562 23.722656 13.671875 23.53125 13.746094 Z M 42.757812 17.226562 C 45.371094 19.964844 45.925781 21.640625 45.109375 24.382812 C 44.652344 25.867188 44.363281 26.296875 42.972656 27.71875 C 40.933594 29.777344 39.925781 30.429688 39.226562 30.09375 C 38.628906 29.804688 37.1875 28.027344 36.421875 26.539062 C 35.578125 24.957031 35.605469 22.144531 36.492188 20.226562 C 37.261719 18.570312 39.949219 15.496094 40.597656 15.496094 C 40.859375 15.496094 41.796875 16.242188 42.757812 17.226562 Z M 42.757812 17.226562 "/>
<path style=" stroke:none;fill-rule:nonzero;fill:rgb(0%,0%,0%);fill-opacity:1;" d="M 27.109375 14.847656 C 26.699219 15.351562 26.242188 16.792969 23.941406 24.71875 C 22.765625 28.792969 21.804688 32.515625 21.804688 32.992188 L 21.828125 33.859375 L 22.378906 33.214844 C 22.835938 32.710938 22.933594 32.371094 22.835938 31.648438 C 22.714844 30.597656 24.636719 23.609375 26.4375 18.617188 C 27.035156 16.964844 27.589844 15.382812 27.683594 15.066406 C 27.851562 14.488281 27.539062 14.347656 27.109375 14.847656 Z M 27.109375 14.847656 "/>
<path style=" stroke:none;fill-rule:nonzero;fill:rgb(0%,0%,0%);fill-opacity:1;" d="M 74.363281 32.273438 C 74.363281 34.914062 74.242188 35.417969 73.691406 35.417969 C 73.402344 35.417969 73.378906 35.488281 73.570312 35.679688 C 73.957031 36.066406 76.597656 35.992188 77.410156 35.609375 C 78.300781 35.179688 78.324219 34.867188 77.507812 33.929688 C 76.835938 33.160156 76.8125 33.09375 77.148438 32.320312 C 77.460938 31.601562 77.4375 31.433594 77.125 30.957031 C 76.933594 30.640625 76.453125 30.332031 76.09375 30.261719 C 74.171875 29.847656 74.363281 29.609375 74.363281 32.273438 Z M 76.714844 31.480469 C 76.765625 31.769531 76.5 32.320312 76.164062 32.730469 L 75.539062 33.472656 L 76.234375 33.835938 C 76.621094 34.027344 77.050781 34.363281 77.21875 34.554688 C 77.484375 34.867188 77.460938 34.964844 76.980469 35.152344 C 76.667969 35.253906 76.042969 35.441406 75.589844 35.539062 L 74.773438 35.710938 L 74.914062 33.496094 C 75.011719 32.296875 75.15625 31.195312 75.226562 31.078125 C 75.492188 30.617188 76.644531 30.957031 76.714844 31.480469 Z M 76.714844 31.480469 "/>
<path style=" stroke:none;fill-rule:nonzero;fill:rgb(0%,0%,0%);fill-opacity:1;" d="M 8.125 32.636719 C 7.765625 33.617188 7.523438 37.964844 7.835938 38.152344 C 7.980469 38.226562 8.195312 37.964844 8.363281 37.480469 C 8.796875 36.160156 9.515625 36.113281 10.140625 37.363281 C 10.621094 38.320312 11.050781 38.207031 10.644531 37.242188 C 10.285156 36.382812 10.285156 36.382812 10.933594 36.09375 L 11.605469 35.828125 L 10.789062 35.65625 C 9.875 35.441406 9.660156 35.207031 9.300781 33.859375 C 9.15625 33.332031 8.890625 32.710938 8.699219 32.441406 C 8.386719 31.984375 8.363281 32.011719 8.125 32.636719 Z M 9.082031 34.722656 C 9.371094 35.804688 9.300781 36.042969 8.722656 35.828125 C 8.484375 35.710938 8.363281 35.347656 8.363281 34.582031 C 8.363281 33.261719 8.722656 33.332031 9.082031 34.722656 Z M 9.082031 34.722656 "/>
<path style=" stroke:none;fill-rule:nonzero;fill:rgb(0%,0%,0%);fill-opacity:1;" d="M 82.570312 41.296875 C 82.644531 41.371094 83.171875 41.5625 83.722656 41.730469 C 84.972656 42.09375 85.210938 42.523438 84.277344 42.71875 C 81.636719 43.265625 71.101562 43.722656 54.082031 44.058594 C 30.925781 44.515625 23.84375 44.777344 12.683594 45.617188 C 4.476562 46.265625 0.589844 46.703125 0.226562 47.058594 C -0.492188 47.757812 1.140625 47.828125 3.445312 47.207031 C 7.429688 46.144531 23.363281 45.160156 43.164062 44.777344 C 74.4375 44.179688 84.660156 43.703125 85.597656 42.765625 C 86.125 42.234375 84.660156 41.179688 83.4375 41.179688 C 82.882812 41.179688 82.5 41.226562 82.570312 41.296875 Z M 82.570312 41.296875 "/>
<path style=" stroke:none;fill-rule:nonzero;fill:rgb(0%,0%,0%);fill-opacity:1;" d="M 58.5 48.546875 C 58.5 48.640625 58.453125 49.265625 58.402344 49.9375 C 58.378906 50.589844 58.261719 51.570312 58.164062 52.097656 C 57.898438 53.441406 58.234375 53.011719 58.667969 51.472656 C 59.050781 49.964844 59.101562 48.71875 58.765625 48.496094 C 58.644531 48.429688 58.523438 48.429688 58.5 48.546875 Z M 58.5 48.546875 "/>
<path style=" stroke:none;fill-rule:nonzero;fill:rgb(0%,0%,0%);fill-opacity:1;" d="M 33.707031 52.984375 C 33.226562 53.757812 31.90625 58.3125 31.714844 59.875 C 31.523438 61.480469 31.859375 61.363281 32.605469 59.542969 C 33.109375 58.3125 33.203125 58.222656 33.949219 58.222656 C 34.597656 58.222656 34.789062 58.335938 34.859375 58.75 C 35.195312 60.382812 35.269531 60.617188 35.507812 60.617188 C 35.652344 60.617188 35.746094 60.210938 35.722656 59.707031 C 35.652344 58.242188 35.699219 58.074219 36.277344 57.789062 C 36.804688 57.523438 36.804688 57.523438 36.300781 57.523438 C 35.554688 57.5 35.316406 57.066406 35.125 55.457031 C 34.957031 54.066406 34.453125 52.457031 34.1875 52.457031 C 34.117188 52.457031 33.898438 52.699219 33.707031 52.984375 Z M 34.621094 55.601562 C 34.90625 57.09375 34.8125 57.5 34.164062 57.5 C 33.492188 57.5 33.421875 57.183594 33.828125 55.75 C 34.117188 54.667969 34.402344 54.617188 34.621094 55.601562 Z M 34.621094 55.601562 "/>
<path style=" stroke:none;fill-rule:nonzero;fill:rgb(0%,0%,0%);fill-opacity:1;" d="M 41.796875 52.984375 C 41.074219 53.777344 40.042969 56.441406 39.875 57.90625 C 39.707031 59.542969 40.1875 59.636719 40.429688 58.027344 C 40.765625 55.699219 41.867188 53.179688 42.5625 53.179688 C 43.308594 53.179688 43.644531 54.472656 43.644531 57.402344 C 43.644531 58.960938 43.714844 60.140625 43.8125 60.066406 C 44.148438 59.707031 44.316406 57.042969 44.101562 55.363281 C 43.765625 52.625 42.925781 51.785156 41.796875 52.984375 Z M 41.796875 52.984375 "/>
<path style=" stroke:none;fill-rule:nonzero;fill:rgb(0%,0%,0%);fill-opacity:1;" d="M 50.195312 53.179688 C 49.667969 53.394531 49.644531 53.488281 49.789062 55.625 C 49.859375 56.847656 49.957031 58.335938 50.027344 58.9375 C 50.148438 59.875 50.21875 59.945312 50.484375 59.585938 C 50.652344 59.347656 51.253906 59.105469 51.949219 59.039062 C 54.394531 58.699219 55.164062 57.691406 53.675781 56.777344 C 53.242188 56.515625 52.789062 56.25 52.644531 56.207031 C 52.523438 56.152344 52.859375 55.722656 53.4375 55.222656 C 54.46875 54.332031 54.683594 53.757812 54.15625 53.226562 C 53.820312 52.890625 50.988281 52.867188 50.195312 53.179688 Z M 53.628906 53.679688 C 53.699219 53.824219 53.269531 54.449219 52.667969 55.074219 C 51.445312 56.320312 51.445312 56.347656 52.957031 57.113281 C 54.371094 57.832031 53.773438 58.457031 51.660156 58.457031 L 50.675781 58.457031 L 50.507812 57.351562 C 50.21875 55.265625 50.316406 53.945312 50.796875 53.679688 C 51.347656 53.347656 53.410156 53.347656 53.628906 53.679688 Z M 53.628906 53.679688 "/>
</g>
</svg>
